<?xml version="1.0" encoding="UTF-8" standalone="no"?>
<!DOCTYPE svg PUBLIC "-//W3C//DTD SVG 1.1//EN"
 "http://www.w3.org/Graphics/SVG/1.1/DTD/svg11.dtd">
<!-- Generated by graphviz version 2.40.1 (20161225.0304)
 -->
<!-- Title: packet.h Pages: 1 -->
<svg width="1178pt" height="576pt"
 viewBox="0.00 0.00 1178.00 576.00" xmlns="http://www.w3.org/2000/svg" xmlns:xlink="http://www.w3.org/1999/xlink">
<g id="graph0" class="graph" transform="scale(1 1) rotate(0) translate(4 572)">
<title>packet.h</title>
<polygon fill="#ffffff" stroke="transparent" points="-4,4 -4,-572 1174,-572 1174,4 -4,4"/>
<!-- Node0 -->
<g id="node1" class="node">
<title>Node0</title>
<polygon fill="#bfbfbf" stroke="#000000" points="145.5,-548.5 145.5,-567.5 204.5,-567.5 204.5,-548.5 145.5,-548.5"/>
<text text-anchor="middle" x="175" y="-555.5" font-family="Helvetica,sans-Serif" font-size="10.00" fill="#000000">packet.h</text>
</g>
<!-- Node1 -->
<g id="node2" class="node">
<title>Node1</title>
<g id="a_node2"><a xlink:href="visibility__begin_8h_source.html" target="_top" xlink:title="odp/visibility_begin.h">
<polygon fill="#ffffff" stroke="#000000" points="911.5,-.5 911.5,-19.5 1032.5,-19.5 1032.5,-.5 911.5,-.5"/>
<text text-anchor="middle" x="972" y="-7.5" font-family="Helvetica,sans-Serif" font-size="10.00" fill="#000000">odp/visibility_begin.h</text>
</a>
</g>
</g>
<!-- Node0&#45;&gt;Node1 -->
<g id="edge1" class="edge">
<title>Node0&#45;&gt;Node1</title>
<path fill="none" stroke="#191970" d="M204.5084,-557.6951C369.4629,-555.6113 1170,-540.3544 1170,-440.5 1170,-440.5 1170,-440.5 1170,-122 1170,-61.7377 1099.6558,-33.5232 1042.8245,-20.5621"/>
<polygon fill="#191970" stroke="#191970" points="1043.2654,-17.0768 1032.7521,-18.3888 1041.789,-23.9193 1043.2654,-17.0768"/>
</g>
<!-- Node2 -->
<g id="node3" class="node">
<title>Node2</title>
<g id="a_node3"><a xlink:href="api_2proto__stats__types_8h.html" target="_top" xlink:title="ODP proto stats types. ">
<polygon fill="#ffffff" stroke="#000000" points="37,-358.5 37,-388.5 147,-388.5 147,-358.5 37,-358.5"/>
<text text-anchor="start" x="45" y="-376.5" font-family="Helvetica,sans-Serif" font-size="10.00" fill="#000000">odp/api/proto_stats</text>
<text text-anchor="middle" x="92" y="-365.5" font-family="Helvetica,sans-Serif" font-size="10.00" fill="#000000">_types.h</text>
</a>
</g>
</g>
<!-- Node0&#45;&gt;Node2 -->
<g id="edge2" class="edge">
<title>Node0&#45;&gt;Node2</title>
<path fill="none" stroke="#191970" d="M170.6544,-548.3402C158.1129,-520.4619 121.5732,-439.2381 103.0462,-398.0544"/>
<polygon fill="#191970" stroke="#191970" points="106.1489,-396.4201 98.8543,-388.7363 99.7651,-399.292 106.1489,-396.4201"/>
</g>
<!-- Node12 -->
<g id="node13" class="node">
<title>Node12</title>
<g id="a_node13"><a xlink:href="visibility__end_8h_source.html" target="_top" xlink:title="odp/visibility_end.h">
<polygon fill="#ffffff" stroke="#000000" points="294,-.5 294,-19.5 406,-19.5 406,-.5 294,-.5"/>
<text text-anchor="middle" x="350" y="-7.5" font-family="Helvetica,sans-Serif" font-size="10.00" fill="#000000">odp/visibility_end.h</text>
</a>
</g>
</g>
<!-- Node0&#45;&gt;Node12 -->
<g id="edge48" class="edge">
<title>Node0&#45;&gt;Node12</title>
<path fill="none" stroke="#191970" d="M145.3136,-552.2804C95.3854,-540.7478 0,-509.6646 0,-440.5 0,-440.5 0,-440.5 0,-122 0,-63.0948 182.1064,-30.8947 283.6049,-17.5224"/>
<polygon fill="#191970" stroke="#191970" points="284.2967,-20.9622 293.7664,-16.2109 283.4007,-14.0198 284.2967,-20.9622"/>
</g>
<!-- Node13 -->
<g id="node14" class="node">
<title>Node13</title>
<g id="a_node14"><a xlink:href="api_2time_8h.html" target="_top" xlink:title="ODP time. ">
<polygon fill="#ffffff" stroke="#000000" points="343.5,-297 343.5,-316 430.5,-316 430.5,-297 343.5,-297"/>
<text text-anchor="middle" x="387" y="-304" font-family="Helvetica,sans-Serif" font-size="10.00" fill="#000000">odp/api/time.h</text>
</a>
</g>
</g>
<!-- Node0&#45;&gt;Node13 -->
<g id="edge18" class="edge">
<title>Node0&#45;&gt;Node13</title>
<path fill="none" stroke="#191970" d="M174.1411,-548.3377C172.5628,-524.986 171.4948,-464.5004 198,-425 234.3124,-370.8841 304.5479,-336.711 348.4206,-319.6448"/>
<polygon fill="#191970" stroke="#191970" points="349.7786,-322.8733 357.8964,-316.065 347.3047,-316.325 349.7786,-322.8733"/>
</g>
<!-- Node16 -->
<g id="node17" class="node">
<title>Node16</title>
<g id="a_node17"><a xlink:href="api_2packet__types_8h.html" target="_top" xlink:title="ODP packet. ">
<polygon fill="#ffffff" stroke="#000000" points="203,-492.5 203,-511.5 333,-511.5 333,-492.5 203,-492.5"/>
<text text-anchor="middle" x="268" y="-499.5" font-family="Helvetica,sans-Serif" font-size="10.00" fill="#000000">odp/api/packet_types.h</text>
</a>
</g>
</g>
<!-- Node0&#45;&gt;Node16 -->
<g id="edge24" class="edge">
<title>Node0&#45;&gt;Node16</title>
<path fill="none" stroke="#191970" d="M191.1994,-548.2455C205.6018,-539.5731 226.8732,-526.7645 243.3799,-516.825"/>
<polygon fill="#191970" stroke="#191970" points="245.225,-519.7996 251.9863,-511.6427 241.614,-513.8028 245.225,-519.7996"/>
</g>
<!-- Node3 -->
<g id="node4" class="node">
<title>Node3</title>
<polygon fill="#ffffff" stroke="#bfbfbf" points="28,-291.5 28,-321.5 156,-321.5 156,-291.5 28,-291.5"/>
<text text-anchor="start" x="36" y="-309.5" font-family="Helvetica,sans-Serif" font-size="10.00" fill="#000000">odp/api/abi/proto_stats</text>
<text text-anchor="middle" x="92" y="-298.5" font-family="Helvetica,sans-Serif" font-size="10.00" fill="#000000">_types.h</text>
</g>
<!-- Node2&#45;&gt;Node3 -->
<g id="edge3" class="edge">
<title>Node2&#45;&gt;Node3</title>
<path fill="none" stroke="#191970" d="M92,-358.2967C92,-350.5013 92,-340.7991 92,-331.9064"/>
<polygon fill="#191970" stroke="#191970" points="95.5001,-331.6431 92,-321.6432 88.5001,-331.6432 95.5001,-331.6431"/>
</g>
<!-- Node4 -->
<g id="node5" class="node">
<title>Node4</title>
<g id="a_node5"><a xlink:href="api_2spec_2proto__stats__types_8h.html" target="_top" xlink:title="ODP proto stats types. ">
<polygon fill="#ffffff" stroke="#000000" points="212.5,-291.5 212.5,-321.5 319.5,-321.5 319.5,-291.5 212.5,-291.5"/>
<text text-anchor="start" x="220.5" y="-309.5" font-family="Helvetica,sans-Serif" font-size="10.00" fill="#000000">odp/api/spec/proto</text>
<text text-anchor="middle" x="266" y="-298.5" font-family="Helvetica,sans-Serif" font-size="10.00" fill="#000000">_stats_types.h</text>
</a>
</g>
</g>
<!-- Node2&#45;&gt;Node4 -->
<g id="edge4" class="edge">
<title>Node2&#45;&gt;Node4</title>
<path fill="none" stroke="#191970" d="M131.049,-358.4639C156.5934,-348.6278 190.1584,-335.7034 217.4231,-325.2049"/>
<polygon fill="#191970" stroke="#191970" points="218.7063,-328.4614 226.7807,-321.6017 216.1909,-321.9289 218.7063,-328.4614"/>
</g>
<!-- Node4&#45;&gt;Node1 -->
<g id="edge5" class="edge">
<title>Node4&#45;&gt;Node1</title>
<path fill="none" stroke="#191970" d="M319.7102,-293.5539C324.8578,-292.5791 330.0155,-291.7034 335,-291 601.7214,-253.3582 681.9993,-332.4137 940,-255 998.0074,-237.5947 1056,-244.0624 1056,-183.5 1056,-183.5 1056,-183.5 1056,-122 1056,-80.9075 1019.3635,-45.2426 994.4811,-25.7588"/>
<polygon fill="#191970" stroke="#191970" points="996.3431,-22.7795 986.2495,-19.5596 992.1321,-28.3713 996.3431,-22.7795"/>
</g>
<!-- Node5 -->
<g id="node6" class="node">
<title>Node5</title>
<g id="a_node6"><a xlink:href="api_2std__types_8h.html" target="_top" xlink:title="Standard C language types and definitions for ODP. ">
<polygon fill="#ffffff" stroke="#000000" points="207,-235.5 207,-254.5 319,-254.5 319,-235.5 207,-235.5"/>
<text text-anchor="middle" x="263" y="-242.5" font-family="Helvetica,sans-Serif" font-size="10.00" fill="#000000">odp/api/std_types.h</text>
</a>
</g>
</g>
<!-- Node4&#45;&gt;Node5 -->
<g id="edge6" class="edge">
<title>Node4&#45;&gt;Node5</title>
<path fill="none" stroke="#191970" d="M265.2584,-291.2977C264.8724,-283.3834 264.3953,-273.6043 263.9793,-265.0759"/>
<polygon fill="#191970" stroke="#191970" points="267.4635,-264.6645 263.4803,-254.8469 260.4718,-265.0056 267.4635,-264.6645"/>
</g>
<!-- Node4&#45;&gt;Node12 -->
<g id="edge17" class="edge">
<title>Node4&#45;&gt;Node12</title>
<path fill="none" stroke="#191970" d="M227.4733,-291.4252C186.9521,-272.7427 129,-236.7205 129,-183.5 129,-183.5 129,-183.5 129,-122 129,-51.8752 218.6269,-25.6437 283.7266,-15.8396"/>
<polygon fill="#191970" stroke="#191970" points="284.5313,-19.261 293.9467,-14.403 283.5568,-12.3291 284.5313,-19.261"/>
</g>
<!-- Node6 -->
<g id="node7" class="node">
<title>Node6</title>
<polygon fill="#ffffff" stroke="#bfbfbf" points="157,-174 157,-193 287,-193 287,-174 157,-174"/>
<text text-anchor="middle" x="222" y="-181" font-family="Helvetica,sans-Serif" font-size="10.00" fill="#000000">odp/api/abi/std_types.h</text>
</g>
<!-- Node5&#45;&gt;Node6 -->
<g id="edge7" class="edge">
<title>Node5&#45;&gt;Node6</title>
<path fill="none" stroke="#191970" d="M256.5938,-235.3906C250.6114,-226.417 241.5253,-212.7879 234.1661,-201.7491"/>
<polygon fill="#191970" stroke="#191970" points="236.9558,-199.6239 228.4966,-193.2449 231.1314,-203.5068 236.9558,-199.6239"/>
</g>
<!-- Node7 -->
<g id="node8" class="node">
<title>Node7</title>
<g id="a_node8"><a xlink:href="api_2spec_2std__types_8h.html" target="_top" xlink:title="Standard C language types and definitions for ODP. ">
<polygon fill="#ffffff" stroke="#000000" points="305.5,-174 305.5,-193 442.5,-193 442.5,-174 305.5,-174"/>
<text text-anchor="middle" x="374" y="-181" font-family="Helvetica,sans-Serif" font-size="10.00" fill="#000000">odp/api/spec/std_types.h</text>
</a>
</g>
</g>
<!-- Node5&#45;&gt;Node7 -->
<g id="edge8" class="edge">
<title>Node5&#45;&gt;Node7</title>
<path fill="none" stroke="#191970" d="M280.3438,-235.3906C298.4273,-225.3713 326.9859,-209.5483 347.8165,-198.0071"/>
<polygon fill="#191970" stroke="#191970" points="349.7271,-200.9498 356.778,-193.0419 346.3346,-194.8268 349.7271,-200.9498"/>
</g>
<!-- Node7&#45;&gt;Node1 -->
<g id="edge9" class="edge">
<title>Node7&#45;&gt;Node1</title>
<path fill="none" stroke="#191970" d="M401.6182,-173.9082C452.0282,-156.1618 562.0471,-116.3234 652,-76 669.7754,-68.0318 672.4974,-62.0917 691,-56 760.4327,-33.1404 843.4088,-21.3414 901.1162,-15.4524"/>
<polygon fill="#191970" stroke="#191970" points="901.6211,-18.9197 911.229,-14.4545 900.9336,-11.9535 901.6211,-18.9197"/>
</g>
<!-- Node8 -->
<g id="node9" class="node">
<title>Node8</title>
<polygon fill="#ffffff" stroke="#bfbfbf" points="264.5,-112.5 264.5,-131.5 317.5,-131.5 317.5,-112.5 264.5,-112.5"/>
<text text-anchor="middle" x="291" y="-119.5" font-family="Helvetica,sans-Serif" font-size="10.00" fill="#000000">stdint.h</text>
</g>
<!-- Node7&#45;&gt;Node8 -->
<g id="edge10" class="edge">
<title>Node7&#45;&gt;Node8</title>
<path fill="none" stroke="#191970" d="M361.0313,-173.8906C347.9966,-164.2324 327.6836,-149.1812 312.2845,-137.771"/>
<polygon fill="#191970" stroke="#191970" points="313.9961,-134.6832 303.8777,-131.5419 309.8287,-140.3075 313.9961,-134.6832"/>
</g>
<!-- Node9 -->
<g id="node10" class="node">
<title>Node9</title>
<g id="a_node10"><a xlink:href="api_2align_8h.html" target="_top" xlink:title="ODP alignments. ">
<polygon fill="#ffffff" stroke="#000000" points="335.5,-112.5 335.5,-131.5 424.5,-131.5 424.5,-112.5 335.5,-112.5"/>
<text text-anchor="middle" x="380" y="-119.5" font-family="Helvetica,sans-Serif" font-size="10.00" fill="#000000">odp/api/align.h</text>
</a>
</g>
</g>
<!-- Node7&#45;&gt;Node9 -->
<g id="edge11" class="edge">
<title>Node7&#45;&gt;Node9</title>
<path fill="none" stroke="#191970" d="M374.9375,-173.8906C375.7692,-165.3657 377.0108,-152.6392 378.0562,-141.9235"/>
<polygon fill="#191970" stroke="#191970" points="381.5617,-142.0375 379.0493,-131.7449 374.5947,-141.3577 381.5617,-142.0375"/>
</g>
<!-- Node7&#45;&gt;Node12 -->
<g id="edge16" class="edge">
<title>Node7&#45;&gt;Node12</title>
<path fill="none" stroke="#191970" d="M331.0748,-173.9581C284.4869,-160.9248 213.1179,-132.4222 186,-76 182.1494,-67.9884 180.63,-63.0835 186,-56 198.1458,-39.9787 243.6581,-27.9991 283.6645,-20.2878"/>
<polygon fill="#191970" stroke="#191970" points="284.5035,-23.6918 293.6933,-18.4194 283.2214,-16.8102 284.5035,-23.6918"/>
</g>
<!-- Node10 -->
<g id="node11" class="node">
<title>Node10</title>
<polygon fill="#ffffff" stroke="#bfbfbf" points="195.5,-56.5 195.5,-75.5 302.5,-75.5 302.5,-56.5 195.5,-56.5"/>
<text text-anchor="middle" x="249" y="-63.5" font-family="Helvetica,sans-Serif" font-size="10.00" fill="#000000">odp/api/abi/align.h</text>
</g>
<!-- Node9&#45;&gt;Node10 -->
<g id="edge12" class="edge">
<title>Node9&#45;&gt;Node10</title>
<path fill="none" stroke="#191970" d="M357.4803,-112.3733C336.2628,-103.3032 304.2724,-89.6279 280.5231,-79.4755"/>
<polygon fill="#191970" stroke="#191970" points="281.7967,-76.2136 271.2258,-75.5011 279.0452,-82.6502 281.7967,-76.2136"/>
</g>
<!-- Node11 -->
<g id="node12" class="node">
<title>Node11</title>
<g id="a_node12"><a xlink:href="api_2spec_2align_8h.html" target="_top" xlink:title="ODP alignments. ">
<polygon fill="#ffffff" stroke="#000000" points="397,-56.5 397,-75.5 511,-75.5 511,-56.5 397,-56.5"/>
<text text-anchor="middle" x="454" y="-63.5" font-family="Helvetica,sans-Serif" font-size="10.00" fill="#000000">odp/api/spec/align.h</text>
</a>
</g>
</g>
<!-- Node9&#45;&gt;Node11 -->
<g id="edge13" class="edge">
<title>Node9&#45;&gt;Node11</title>
<path fill="none" stroke="#191970" d="M392.8898,-112.2455C403.9254,-103.8943 420.0292,-91.7076 432.9353,-81.9408"/>
<polygon fill="#191970" stroke="#191970" points="435.3959,-84.4681 441.2579,-75.6427 431.1717,-78.8862 435.3959,-84.4681"/>
</g>
<!-- Node11&#45;&gt;Node1 -->
<g id="edge14" class="edge">
<title>Node11&#45;&gt;Node1</title>
<path fill="none" stroke="#191970" d="M511.358,-57.2599C514.618,-56.819 517.8493,-56.3956 521,-56 655.2209,-39.1478 812.5076,-24.1892 901.3857,-16.1779"/>
<polygon fill="#191970" stroke="#191970" points="901.7048,-19.6634 911.3516,-15.2829 901.0786,-12.6915 901.7048,-19.6634"/>
</g>
<!-- Node11&#45;&gt;Node12 -->
<g id="edge15" class="edge">
<title>Node11&#45;&gt;Node12</title>
<path fill="none" stroke="#191970" d="M435.8846,-56.2455C419.555,-47.4527 395.329,-34.4079 376.7661,-24.4125"/>
<polygon fill="#191970" stroke="#191970" points="378.3719,-21.3021 367.9078,-19.6427 375.0532,-27.4654 378.3719,-21.3021"/>
</g>
<!-- Node13&#45;&gt;Node5 -->
<g id="edge19" class="edge">
<title>Node13&#45;&gt;Node5</title>
<path fill="none" stroke="#191970" d="M367.625,-296.8906C347.1505,-286.7359 314.6558,-270.6196 291.3115,-259.0416"/>
<polygon fill="#191970" stroke="#191970" points="292.7528,-255.8496 282.2389,-254.5419 289.6425,-262.1207 292.7528,-255.8496"/>
</g>
<!-- Node14 -->
<g id="node15" class="node">
<title>Node14</title>
<polygon fill="#ffffff" stroke="#bfbfbf" points="337.5,-235.5 337.5,-254.5 442.5,-254.5 442.5,-235.5 337.5,-235.5"/>
<text text-anchor="middle" x="390" y="-242.5" font-family="Helvetica,sans-Serif" font-size="10.00" fill="#000000">odp/api/abi/time.h</text>
</g>
<!-- Node13&#45;&gt;Node14 -->
<g id="edge20" class="edge">
<title>Node13&#45;&gt;Node14</title>
<path fill="none" stroke="#191970" d="M387.4688,-296.8906C387.8846,-288.3657 388.5054,-275.6392 389.0281,-264.9235"/>
<polygon fill="#191970" stroke="#191970" points="392.5332,-264.9035 389.5246,-254.7449 385.5415,-264.5624 392.5332,-264.9035"/>
</g>
<!-- Node15 -->
<g id="node16" class="node">
<title>Node15</title>
<g id="a_node16"><a xlink:href="api_2spec_2time_8h.html" target="_top" xlink:title="ODP time. ">
<polygon fill="#ffffff" stroke="#000000" points="529.5,-56.5 529.5,-75.5 642.5,-75.5 642.5,-56.5 529.5,-56.5"/>
<text text-anchor="middle" x="586" y="-63.5" font-family="Helvetica,sans-Serif" font-size="10.00" fill="#000000">odp/api/spec/time.h</text>
</a>
</g>
</g>
<!-- Node13&#45;&gt;Node15 -->
<g id="edge21" class="edge">
<title>Node13&#45;&gt;Node15</title>
<path fill="none" stroke="#191970" d="M401.4027,-296.8945C415.2574,-287.2564 436.3491,-271.5081 452,-255 505.3738,-198.703 554.3827,-119.9579 575.3091,-84.5427"/>
<polygon fill="#191970" stroke="#191970" points="578.4198,-86.1566 580.447,-75.7575 572.3773,-82.6227 578.4198,-86.1566"/>
</g>
<!-- Node15&#45;&gt;Node1 -->
<g id="edge22" class="edge">
<title>Node15&#45;&gt;Node1</title>
<path fill="none" stroke="#191970" d="M642.5411,-57.7971C711.1404,-47.8449 826.8299,-31.0609 901.2673,-20.2617"/>
<polygon fill="#191970" stroke="#191970" points="902.0939,-23.6785 911.4878,-18.779 901.0888,-16.7511 902.0939,-23.6785"/>
</g>
<!-- Node15&#45;&gt;Node12 -->
<g id="edge23" class="edge">
<title>Node15&#45;&gt;Node12</title>
<path fill="none" stroke="#191970" d="M545.6983,-56.4369C505.3936,-46.8731 443.3179,-32.1432 399.9182,-21.845"/>
<polygon fill="#191970" stroke="#191970" points="400.6734,-18.4271 390.1355,-19.5237 399.0572,-25.238 400.6734,-18.4271"/>
</g>
<!-- Node17 -->
<g id="node18" class="node">
<title>Node17</title>
<polygon fill="#ffffff" stroke="#bfbfbf" points="339.5,-425.5 339.5,-455.5 446.5,-455.5 446.5,-425.5 339.5,-425.5"/>
<text text-anchor="start" x="347.5" y="-443.5" font-family="Helvetica,sans-Serif" font-size="10.00" fill="#000000">odp/api/abi/packet</text>
<text text-anchor="middle" x="393" y="-432.5" font-family="Helvetica,sans-Serif" font-size="10.00" fill="#000000">_types.h</text>
</g>
<!-- Node16&#45;&gt;Node17 -->
<g id="edge25" class="edge">
<title>Node16&#45;&gt;Node17</title>
<path fill="none" stroke="#191970" d="M287.5313,-492.3906C305.075,-483.7591 331.3736,-470.8202 353.3204,-460.0224"/>
<polygon fill="#191970" stroke="#191970" points="354.9939,-463.0997 362.4216,-455.5446 351.9036,-456.8188 354.9939,-463.0997"/>
</g>
<!-- Node18 -->
<g id="node19" class="node">
<title>Node18</title>
<g id="a_node19"><a xlink:href="api_2spec_2packet__types_8h.html" target="_top" xlink:title="ODP packet types. ">
<polygon fill="#ffffff" stroke="#000000" points="207,-425.5 207,-455.5 321,-455.5 321,-425.5 207,-425.5"/>
<text text-anchor="start" x="215" y="-443.5" font-family="Helvetica,sans-Serif" font-size="10.00" fill="#000000">odp/api/spec/packet</text>
<text text-anchor="middle" x="264" y="-432.5" font-family="Helvetica,sans-Serif" font-size="10.00" fill="#000000">_types.h</text>
</a>
</g>
</g>
<!-- Node16&#45;&gt;Node18 -->
<g id="edge26" class="edge">
<title>Node16&#45;&gt;Node18</title>
<path fill="none" stroke="#191970" d="M267.375,-492.3906C266.9088,-485.2234 266.2495,-475.0862 265.6371,-465.671"/>
<polygon fill="#191970" stroke="#191970" points="269.1203,-465.2963 264.9785,-455.5446 262.135,-465.7507 269.1203,-465.2963"/>
</g>
<!-- Node18&#45;&gt;Node1 -->
<g id="edge27" class="edge">
<title>Node18&#45;&gt;Node1</title>
<path fill="none" stroke="#191970" d="M321.2998,-426.8204C324.5746,-426.1708 327.8251,-425.558 331,-425 508.2208,-393.8515 1132,-486.4373 1132,-306.5 1132,-306.5 1132,-306.5 1132,-122 1132,-67.7109 1069.413,-37.5195 1022.5272,-22.5189"/>
<polygon fill="#191970" stroke="#191970" points="1023.375,-19.1183 1012.7887,-19.5453 1021.3307,-25.8132 1023.375,-19.1183"/>
</g>
<!-- Node18&#45;&gt;Node2 -->
<g id="edge28" class="edge">
<title>Node18&#45;&gt;Node2</title>
<path fill="none" stroke="#191970" d="M225.3998,-425.4639C200.2593,-415.6708 167.2595,-402.8162 140.372,-392.3426"/>
<polygon fill="#191970" stroke="#191970" points="141.3569,-388.9701 130.7685,-388.6017 138.8161,-395.4927 141.3569,-388.9701"/>
</g>
<!-- Node18&#45;&gt;Node12 -->
<g id="edge47" class="edge">
<title>Node18&#45;&gt;Node12</title>
<path fill="none" stroke="#191970" d="M253.9715,-425.1592C236.1944,-398.0096 197.9238,-339.7608 165,-291 132.5417,-242.9286 91,-241.5034 91,-183.5 91,-183.5 91,-183.5 91,-122 91,-84.3794 112.065,-75.8863 144,-56 167.1112,-41.6083 232.7975,-28.4257 283.8474,-19.8973"/>
<polygon fill="#191970" stroke="#191970" points="284.545,-23.3297 293.8453,-18.2547 283.4101,-16.4223 284.545,-23.3297"/>
</g>
<!-- Node19 -->
<g id="node20" class="node">
<title>Node19</title>
<g id="a_node20"><a xlink:href="api_2queue__types_8h.html" target="_top" xlink:title="ODP queue. ">
<polygon fill="#ffffff" stroke="#000000" points="491.5,-364 491.5,-383 618.5,-383 618.5,-364 491.5,-364"/>
<text text-anchor="middle" x="555" y="-371" font-family="Helvetica,sans-Serif" font-size="10.00" fill="#000000">odp/api/queue_types.h</text>
</a>
</g>
</g>
<!-- Node18&#45;&gt;Node19 -->
<g id="edge29" class="edge">
<title>Node18&#45;&gt;Node19</title>
<path fill="none" stroke="#191970" d="M321.0192,-427.3034C324.3961,-426.5236 327.7425,-425.7513 331,-425 390.1034,-411.3692 457.9925,-395.7687 503.3967,-385.3432"/>
<polygon fill="#191970" stroke="#191970" points="504.336,-388.7187 513.2991,-383.0696 502.7695,-381.8962 504.336,-388.7187"/>
</g>
<!-- Node20 -->
<g id="node21" class="node">
<title>Node20</title>
<polygon fill="#ffffff" stroke="#bfbfbf" points="482.5,-297 482.5,-316 627.5,-316 627.5,-297 482.5,-297"/>
<text text-anchor="middle" x="555" y="-304" font-family="Helvetica,sans-Serif" font-size="10.00" fill="#000000">odp/api/abi/queue_types.h</text>
</g>
<!-- Node19&#45;&gt;Node20 -->
<g id="edge30" class="edge">
<title>Node19&#45;&gt;Node20</title>
<path fill="none" stroke="#191970" d="M555,-363.9005C555,-354.149 555,-338.7597 555,-326.3695"/>
<polygon fill="#191970" stroke="#191970" points="558.5001,-326.0816 555,-316.0817 551.5001,-326.0817 558.5001,-326.0816"/>
</g>
<!-- Node21 -->
<g id="node22" class="node">
<title>Node21</title>
<g id="a_node22"><a xlink:href="api_2spec_2queue__types_8h.html" target="_top" xlink:title="ODP queue types. ">
<polygon fill="#ffffff" stroke="#000000" points="657.5,-291.5 657.5,-321.5 768.5,-321.5 768.5,-291.5 657.5,-291.5"/>
<text text-anchor="start" x="665.5" y="-309.5" font-family="Helvetica,sans-Serif" font-size="10.00" fill="#000000">odp/api/spec/queue</text>
<text text-anchor="middle" x="713" y="-298.5" font-family="Helvetica,sans-Serif" font-size="10.00" fill="#000000">_types.h</text>
</a>
</g>
</g>
<!-- Node19&#45;&gt;Node21 -->
<g id="edge31" class="edge">
<title>Node19&#45;&gt;Node21</title>
<path fill="none" stroke="#191970" d="M577.6375,-363.9005C601.1983,-353.9096 638.715,-338.0006 668.2827,-325.4624"/>
<polygon fill="#191970" stroke="#191970" points="669.7355,-328.6481 677.5755,-321.5218 667.0027,-322.2036 669.7355,-328.6481"/>
</g>
<!-- Node21&#45;&gt;Node1 -->
<g id="edge32" class="edge">
<title>Node21&#45;&gt;Node1</title>
<path fill="none" stroke="#191970" d="M768.8051,-305.409C857.5349,-302.5568 1025.3348,-292.2491 1070,-255 1095.743,-233.5313 1094,-217.0202 1094,-183.5 1094,-183.5 1094,-183.5 1094,-122 1094,-90.7875 1091.0544,-79.042 1070,-56 1056.1368,-40.828 1036.2367,-30.2245 1017.9862,-23.0549"/>
<polygon fill="#191970" stroke="#191970" points="1018.9442,-19.6781 1008.3506,-19.5153 1016.5305,-26.2489 1018.9442,-19.6781"/>
</g>
<!-- Node21&#45;&gt;Node12 -->
<g id="edge46" class="edge">
<title>Node21&#45;&gt;Node12</title>
<path fill="none" stroke="#191970" d="M693.2607,-291.4803C648.3919,-257.6233 534.8088,-173.5085 434,-112 404.8085,-94.1888 386.9897,-102.9966 366,-76 355.7214,-62.7798 351.9231,-43.9133 350.5784,-29.7351"/>
<polygon fill="#191970" stroke="#191970" points="354.0602,-29.3316 349.949,-19.567 347.0735,-29.7642 354.0602,-29.3316"/>
</g>
<!-- Node22 -->
<g id="node23" class="node">
<title>Node22</title>
<g id="a_node23"><a xlink:href="api_2schedule__types_8h.html" target="_top" xlink:title="ODP schedule. ">
<polygon fill="#ffffff" stroke="#000000" points="791,-235.5 791,-254.5 931,-254.5 931,-235.5 791,-235.5"/>
<text text-anchor="middle" x="861" y="-242.5" font-family="Helvetica,sans-Serif" font-size="10.00" fill="#000000">odp/api/schedule_types.h</text>
</a>
</g>
</g>
<!-- Node21&#45;&gt;Node22 -->
<g id="edge33" class="edge">
<title>Node21&#45;&gt;Node22</title>
<path fill="none" stroke="#191970" d="M749.2049,-291.4554C773.4658,-281.374 805.1356,-268.2139 828.5712,-258.4755"/>
<polygon fill="#191970" stroke="#191970" points="830.1739,-261.5997 838.0653,-254.5303 827.4877,-255.1356 830.1739,-261.5997"/>
</g>
<!-- Node27 -->
<g id="node28" class="node">
<title>Node27</title>
<g id="a_node28"><a xlink:href="deprecated_8h.html" target="_top" xlink:title="Control deprecated API definitions. ">
<polygon fill="#ffffff" stroke="#000000" points="653.5,-235.5 653.5,-254.5 772.5,-254.5 772.5,-235.5 653.5,-235.5"/>
<text text-anchor="middle" x="713" y="-242.5" font-family="Helvetica,sans-Serif" font-size="10.00" fill="#000000">odp/api/deprecated.h</text>
</a>
</g>
</g>
<!-- Node21&#45;&gt;Node27 -->
<g id="edge42" class="edge">
<title>Node21&#45;&gt;Node27</title>
<path fill="none" stroke="#191970" d="M713,-291.2977C713,-283.3834 713,-273.6043 713,-265.0759"/>
<polygon fill="#191970" stroke="#191970" points="716.5001,-264.8469 713,-254.8469 709.5001,-264.847 716.5001,-264.8469"/>
</g>
<!-- Node23 -->
<g id="node24" class="node">
<title>Node23</title>
<polygon fill="#ffffff" stroke="#bfbfbf" points="910.5,-168.5 910.5,-198.5 1027.5,-198.5 1027.5,-168.5 910.5,-168.5"/>
<text text-anchor="start" x="918.5" y="-186.5" font-family="Helvetica,sans-Serif" font-size="10.00" fill="#000000">odp/api/abi/schedule</text>
<text text-anchor="middle" x="969" y="-175.5" font-family="Helvetica,sans-Serif" font-size="10.00" fill="#000000">_types.h</text>
</g>
<!-- Node22&#45;&gt;Node23 -->
<g id="edge34" class="edge">
<title>Node22&#45;&gt;Node23</title>
<path fill="none" stroke="#191970" d="M877.875,-235.3906C892.7622,-226.9132 914.9457,-214.2809 933.6975,-203.6028"/>
<polygon fill="#191970" stroke="#191970" points="935.6223,-206.5345 942.5802,-198.5446 932.1584,-200.4516 935.6223,-206.5345"/>
</g>
<!-- Node24 -->
<g id="node25" class="node">
<title>Node24</title>
<g id="a_node25"><a xlink:href="api_2spec_2schedule__types_8h.html" target="_top" xlink:title="ODP schedule types. ">
<polygon fill="#ffffff" stroke="#000000" points="767.5,-168.5 767.5,-198.5 892.5,-198.5 892.5,-168.5 767.5,-168.5"/>
<text text-anchor="start" x="775.5" y="-186.5" font-family="Helvetica,sans-Serif" font-size="10.00" fill="#000000">odp/api/spec/schedule</text>
<text text-anchor="middle" x="830" y="-175.5" font-family="Helvetica,sans-Serif" font-size="10.00" fill="#000000">_types.h</text>
</a>
</g>
</g>
<!-- Node22&#45;&gt;Node24 -->
<g id="edge35" class="edge">
<title>Node22&#45;&gt;Node24</title>
<path fill="none" stroke="#191970" d="M856.1563,-235.3906C852.4269,-227.9922 847.1025,-217.4291 842.2298,-207.7623"/>
<polygon fill="#191970" stroke="#191970" points="845.2101,-205.8989 837.5835,-198.5446 838.9593,-209.0497 845.2101,-205.8989"/>
</g>
<!-- Node24&#45;&gt;Node1 -->
<g id="edge36" class="edge">
<title>Node24&#45;&gt;Node1</title>
<path fill="none" stroke="#191970" d="M880.8958,-168.4954C922.5086,-153.0239 977.8051,-124.2295 999,-76 1006.1093,-59.8226 996.8975,-41.1675 987.3544,-27.8266"/>
<polygon fill="#191970" stroke="#191970" points="990.1016,-25.6578 981.2035,-19.9066 984.573,-29.9514 990.1016,-25.6578"/>
</g>
<!-- Node24&#45;&gt;Node12 -->
<g id="edge41" class="edge">
<title>Node24&#45;&gt;Node12</title>
<path fill="none" stroke="#191970" d="M767.0716,-171.0578C652.3963,-147.9686 418.3655,-98.7734 388,-76 372.5088,-64.382 362.3055,-44.4565 356.4098,-29.531"/>
<polygon fill="#191970" stroke="#191970" points="359.5592,-27.9483 352.8641,-19.7369 352.9772,-30.3311 359.5592,-27.9483"/>
</g>
<!-- Node25 -->
<g id="node26" class="node">
<title>Node25</title>
<g id="a_node26"><a xlink:href="support_8h.html" target="_top" xlink:title="ODP support API &#45; platform specific header. ">
<polygon fill="#ffffff" stroke="#000000" points="827.5,-112.5 827.5,-131.5 928.5,-131.5 928.5,-112.5 827.5,-112.5"/>
<text text-anchor="middle" x="878" y="-119.5" font-family="Helvetica,sans-Serif" font-size="10.00" fill="#000000">odp/api/support.h</text>
</a>
</g>
</g>
<!-- Node24&#45;&gt;Node25 -->
<g id="edge37" class="edge">
<title>Node24&#45;&gt;Node25</title>
<path fill="none" stroke="#191970" d="M841.8652,-168.2977C848.5975,-159.672 857.0585,-148.8312 864.1006,-139.8087"/>
<polygon fill="#191970" stroke="#191970" points="866.921,-141.8836 870.3146,-131.8469 861.4027,-137.5766 866.921,-141.8836"/>
</g>
<!-- Node26 -->
<g id="node27" class="node">
<title>Node26</title>
<g id="a_node27"><a xlink:href="spec_2support_8h.html" target="_top" xlink:title="ODP support API. ">
<polygon fill="#ffffff" stroke="#000000" points="862.5,-56.5 862.5,-75.5 989.5,-75.5 989.5,-56.5 862.5,-56.5"/>
<text text-anchor="middle" x="926" y="-63.5" font-family="Helvetica,sans-Serif" font-size="10.00" fill="#000000">odp/api/spec/support.h</text>
</a>
</g>
</g>
<!-- Node25&#45;&gt;Node26 -->
<g id="edge38" class="edge">
<title>Node25&#45;&gt;Node26</title>
<path fill="none" stroke="#191970" d="M886.361,-112.2455C893.175,-104.2958 902.9681,-92.8706 911.1152,-83.3656"/>
<polygon fill="#191970" stroke="#191970" points="913.8843,-85.513 917.7349,-75.6427 908.5695,-80.9575 913.8843,-85.513"/>
</g>
<!-- Node26&#45;&gt;Node1 -->
<g id="edge39" class="edge">
<title>Node26&#45;&gt;Node1</title>
<path fill="none" stroke="#191970" d="M934.0126,-56.2455C940.4768,-48.3761 949.7385,-37.101 957.4983,-27.6542"/>
<polygon fill="#191970" stroke="#191970" points="960.4364,-29.5916 964.0792,-19.6427 955.0273,-25.1484 960.4364,-29.5916"/>
</g>
<!-- Node26&#45;&gt;Node12 -->
<g id="edge40" class="edge">
<title>Node26&#45;&gt;Node12</title>
<path fill="none" stroke="#191970" d="M862.4174,-57.004C859.5741,-56.6538 856.7582,-56.3172 854,-56 697.3517,-37.9831 512.6506,-22.6209 416.2092,-15.0454"/>
<polygon fill="#191970" stroke="#191970" points="416.2668,-11.5393 406.0242,-14.2486 415.7207,-18.518 416.2668,-11.5393"/>
</g>
<!-- Node28 -->
<g id="node29" class="node">
<title>Node28</title>
<g id="a_node29"><a xlink:href="spec_2deprecated_8h.html" target="_top" xlink:title="Macro for deprecated API definitions. ">
<polygon fill="#ffffff" stroke="#000000" points="699.5,-56.5 699.5,-75.5 844.5,-75.5 844.5,-56.5 699.5,-56.5"/>
<text text-anchor="middle" x="772" y="-63.5" font-family="Helvetica,sans-Serif" font-size="10.00" fill="#000000">odp/api/spec/deprecated.h</text>
</a>
</g>
</g>
<!-- Node27&#45;&gt;Node28 -->
<g id="edge43" class="edge">
<title>Node27&#45;&gt;Node28</title>
<path fill="none" stroke="#191970" d="M716.1721,-235.3762C725.496,-207.0883 752.949,-123.7987 765.5474,-85.5767"/>
<polygon fill="#191970" stroke="#191970" points="769.0058,-86.2645 768.8122,-75.6714 762.3576,-84.0731 769.0058,-86.2645"/>
</g>
<!-- Node28&#45;&gt;Node1 -->
<g id="edge44" class="edge">
<title>Node28&#45;&gt;Node1</title>
<path fill="none" stroke="#191970" d="M806.3812,-56.3733C840.0701,-46.9404 891.5482,-32.5265 928.1618,-22.2747"/>
<polygon fill="#191970" stroke="#191970" points="929.3815,-25.5679 938.0674,-19.5011 927.494,-18.8271 929.3815,-25.5679"/>
</g>
<!-- Node28&#45;&gt;Node12 -->
<g id="edge45" class="edge">
<title>Node28&#45;&gt;Node12</title>
<path fill="none" stroke="#191970" d="M699.9351,-56.4369C620.4072,-45.8834 493.4764,-29.0395 416.3226,-18.8011"/>
<polygon fill="#191970" stroke="#191970" points="416.6138,-15.3091 406.2403,-17.4632 415.6929,-22.2483 416.6138,-15.3091"/>
</g>
</g>
</svg>
