<?xml version="1.0" encoding="UTF-8" standalone="no"?>
<!DOCTYPE svg PUBLIC "-//W3C//DTD SVG 1.1//EN"
 "http://www.w3.org/Graphics/SVG/1.1/DTD/svg11.dtd">
<!-- Generated by graphviz version 2.40.1 (20161225.0304)
 -->
<!-- Title: queue.h Pages: 1 -->
<svg width="1293pt" height="800pt"
 viewBox="0.00 0.00 1293.00 800.00" xmlns="http://www.w3.org/2000/svg" xmlns:xlink="http://www.w3.org/1999/xlink">
<g id="graph0" class="graph" transform="scale(1 1) rotate(0) translate(4 796)">
<title>queue.h</title>
<polygon fill="#ffffff" stroke="transparent" points="-4,4 -4,-796 1289,-796 1289,4 -4,4"/>
<!-- Node0 -->
<g id="node1" class="node">
<title>Node0</title>
<polygon fill="#bfbfbf" stroke="#000000" points="47,-772.5 47,-791.5 103,-791.5 103,-772.5 47,-772.5"/>
<text text-anchor="middle" x="75" y="-779.5" font-family="Helvetica,sans-Serif" font-size="10.00" fill="#000000">queue.h</text>
</g>
<!-- Node1 -->
<g id="node2" class="node">
<title>Node1</title>
<g id="a_node2"><a xlink:href="visibility__begin_8h_source.html" target="_top" xlink:title="odp/visibility_begin.h">
<polygon fill="#ffffff" stroke="#000000" points="799.5,-.5 799.5,-19.5 920.5,-19.5 920.5,-.5 799.5,-.5"/>
<text text-anchor="middle" x="860" y="-7.5" font-family="Helvetica,sans-Serif" font-size="10.00" fill="#000000">odp/visibility_begin.h</text>
</a>
</g>
</g>
<!-- Node0&#45;&gt;Node1 -->
<g id="edge1" class="edge">
<title>Node0&#45;&gt;Node1</title>
<path fill="none" stroke="#191970" d="M103.1286,-780.9152C284.8047,-773.7289 1285,-731.3783 1285,-670 1285,-670 1285,-670 1285,-122 1285,-80.201 1255.5861,-74.2878 1218,-56 1168.8297,-32.0759 1020.317,-19.3925 930.7645,-13.7425"/>
<polygon fill="#191970" stroke="#191970" points="930.879,-10.243 920.6824,-13.1203 930.4478,-17.2297 930.879,-10.243"/>
</g>
<!-- Node2 -->
<g id="node3" class="node">
<title>Node2</title>
<g id="a_node3"><a xlink:href="api_2event_8h.html" target="_top" xlink:title="ODP event. ">
<polygon fill="#ffffff" stroke="#000000" points="66,-716.5 66,-735.5 158,-735.5 158,-716.5 66,-716.5"/>
<text text-anchor="middle" x="112" y="-723.5" font-family="Helvetica,sans-Serif" font-size="10.00" fill="#000000">odp/api/event.h</text>
</a>
</g>
</g>
<!-- Node0&#45;&gt;Node2 -->
<g id="edge2" class="edge">
<title>Node0&#45;&gt;Node2</title>
<path fill="none" stroke="#191970" d="M81.4449,-772.2455C86.5382,-764.5367 93.7908,-753.5598 99.952,-744.2348"/>
<polygon fill="#191970" stroke="#191970" points="103.0365,-745.9155 105.6289,-735.6427 97.1962,-742.0566 103.0365,-745.9155"/>
</g>
<!-- Node13 -->
<g id="node14" class="node">
<title>Node13</title>
<g id="a_node14"><a xlink:href="visibility__end_8h_source.html" target="_top" xlink:title="odp/visibility_end.h">
<polygon fill="#ffffff" stroke="#000000" points="197,-.5 197,-19.5 309,-19.5 309,-.5 197,-.5"/>
<text text-anchor="middle" x="253" y="-7.5" font-family="Helvetica,sans-Serif" font-size="10.00" fill="#000000">odp/visibility_end.h</text>
</a>
</g>
</g>
<!-- Node0&#45;&gt;Node13 -->
<g id="edge65" class="edge">
<title>Node0&#45;&gt;Node13</title>
<path fill="none" stroke="#191970" d="M62.6153,-772.3714C41.3132,-754.6205 0,-714.4628 0,-670 0,-670 0,-670 0,-122 0,-79.8832 31.1831,-76.4534 68,-56 104.4941,-35.7259 149.9403,-24.2631 186.6561,-17.8506"/>
<polygon fill="#191970" stroke="#191970" points="187.4737,-21.2629 196.7657,-16.1727 186.3276,-14.3573 187.4737,-21.2629"/>
</g>
<!-- Node28 -->
<g id="node29" class="node">
<title>Node28</title>
<g id="a_node29"><a xlink:href="api_2queue__types_8h.html" target="_top" xlink:title="ODP queue. ">
<polygon fill="#ffffff" stroke="#000000" points="134.5,-364 134.5,-383 261.5,-383 261.5,-364 134.5,-364"/>
<text text-anchor="middle" x="198" y="-371" font-family="Helvetica,sans-Serif" font-size="10.00" fill="#000000">odp/api/queue_types.h</text>
</a>
</g>
</g>
<!-- Node0&#45;&gt;Node28 -->
<g id="edge64" class="edge">
<title>Node0&#45;&gt;Node28</title>
<path fill="none" stroke="#191970" d="M69.5405,-772.4646C59.2484,-753.5623 38,-709.7274 38,-670 38,-670 38,-670 38,-502 38,-441.1711 109.17,-404.3226 156.5774,-386.5248"/>
<polygon fill="#191970" stroke="#191970" points="157.7919,-389.8075 166.0062,-383.116 155.4119,-383.2245 157.7919,-389.8075"/>
</g>
<!-- Node3 -->
<g id="node4" class="node">
<title>Node3</title>
<polygon fill="#ffffff" stroke="#bfbfbf" points="104,-548.5 104,-567.5 214,-567.5 214,-548.5 104,-548.5"/>
<text text-anchor="middle" x="159" y="-555.5" font-family="Helvetica,sans-Serif" font-size="10.00" fill="#000000">odp/api/abi/event.h</text>
</g>
<!-- Node2&#45;&gt;Node3 -->
<g id="edge3" class="edge">
<title>Node2&#45;&gt;Node3</title>
<path fill="none" stroke="#191970" d="M114.6616,-716.4862C122.1234,-689.8144 143.358,-613.9117 153.4901,-577.695"/>
<polygon fill="#191970" stroke="#191970" points="156.9269,-578.4011 156.2505,-567.8279 150.1857,-576.5151 156.9269,-578.4011"/>
</g>
<!-- Node4 -->
<g id="node5" class="node">
<title>Node4</title>
<g id="a_node5"><a xlink:href="api_2spec_2event_8h.html" target="_top" xlink:title="ODP event. ">
<polygon fill="#ffffff" stroke="#000000" points="309,-660.5 309,-679.5 427,-679.5 427,-660.5 309,-660.5"/>
<text text-anchor="middle" x="368" y="-667.5" font-family="Helvetica,sans-Serif" font-size="10.00" fill="#000000">odp/api/spec/event.h</text>
</a>
</g>
</g>
<!-- Node2&#45;&gt;Node4 -->
<g id="edge4" class="edge">
<title>Node2&#45;&gt;Node4</title>
<path fill="none" stroke="#191970" d="M155.7171,-716.4369C199.6216,-706.8328 267.3413,-692.0191 314.445,-681.7152"/>
<polygon fill="#191970" stroke="#191970" points="315.4422,-685.0799 324.4632,-679.5237 313.9463,-678.2416 315.4422,-685.0799"/>
</g>
<!-- Node4&#45;&gt;Node1 -->
<g id="edge5" class="edge">
<title>Node4&#45;&gt;Node1</title>
<path fill="none" stroke="#191970" d="M427.0386,-668.7005C624.1213,-663.5895 1247,-640.8802 1247,-558 1247,-558 1247,-558 1247,-122 1247,-82.0568 1221.3838,-74.5321 1186,-56 1142.9227,-33.4384 1013.0908,-20.5469 930.8594,-14.4378"/>
<polygon fill="#191970" stroke="#191970" points="931.0557,-10.943 920.8282,-13.7086 930.5481,-17.9245 931.0557,-10.943"/>
</g>
<!-- Node5 -->
<g id="node6" class="node">
<title>Node5</title>
<g id="a_node6"><a xlink:href="api_2packet_8h.html" target="_top" xlink:title="ODP packet descriptor. ">
<polygon fill="#ffffff" stroke="#000000" points="524,-604.5 524,-623.5 622,-623.5 622,-604.5 524,-604.5"/>
<text text-anchor="middle" x="573" y="-611.5" font-family="Helvetica,sans-Serif" font-size="10.00" fill="#000000">odp/api/packet.h</text>
</a>
</g>
</g>
<!-- Node4&#45;&gt;Node5 -->
<g id="edge6" class="edge">
<title>Node4&#45;&gt;Node5</title>
<path fill="none" stroke="#191970" d="M403.2408,-660.3733C437.9194,-650.9001 490.9883,-636.4032 528.5462,-626.1435"/>
<polygon fill="#191970" stroke="#191970" points="529.4949,-629.5126 538.2191,-623.5011 527.6502,-622.7601 529.4949,-629.5126"/>
</g>
<!-- Node4&#45;&gt;Node13 -->
<g id="edge63" class="edge">
<title>Node4&#45;&gt;Node13</title>
<path fill="none" stroke="#191970" d="M308.9331,-665.3754C245.4819,-657.0302 146.8039,-633.6274 95,-568 5.3749,-454.4589 55,-389.6522 55,-245 55,-245 55,-245 55,-122 55,-60.0262 129.3965,-31.9465 186.9829,-19.4943"/>
<polygon fill="#191970" stroke="#191970" points="187.6959,-22.921 196.7908,-17.4866 186.292,-16.0633 187.6959,-22.921"/>
</g>
<!-- Node5&#45;&gt;Node3 -->
<g id="edge18" class="edge">
<title>Node5&#45;&gt;Node3</title>
<path fill="none" stroke="#191970" d="M523.8428,-607.6245C456.9008,-598.9015 333.335,-582.6548 228,-568 226.891,-567.8457 225.7721,-567.6895 224.6454,-567.5318"/>
<polygon fill="#191970" stroke="#191970" points="224.7448,-564.0112 214.3537,-566.0788 223.7662,-570.9424 224.7448,-564.0112"/>
</g>
<!-- Node6 -->
<g id="node7" class="node">
<title>Node6</title>
<g id="a_node7"><a xlink:href="api_2std__types_8h.html" target="_top" xlink:title="Standard C language types and definitions for ODP. ">
<polygon fill="#ffffff" stroke="#000000" points="858,-235.5 858,-254.5 970,-254.5 970,-235.5 858,-235.5"/>
<text text-anchor="middle" x="914" y="-242.5" font-family="Helvetica,sans-Serif" font-size="10.00" fill="#000000">odp/api/std_types.h</text>
</a>
</g>
</g>
<!-- Node5&#45;&gt;Node6 -->
<g id="edge7" class="edge">
<title>Node5&#45;&gt;Node6</title>
<path fill="none" stroke="#191970" d="M622.2921,-611.1693C724.2322,-604.9694 955.0469,-589.0464 1031,-568 1097.2919,-549.6306 1171,-570.7899 1171,-502 1171,-502 1171,-502 1171,-373.5 1171,-288.1629 1056.2382,-259.4961 980.0913,-249.8678"/>
<polygon fill="#191970" stroke="#191970" points="980.4244,-246.3828 970.0822,-248.6826 979.6012,-253.3343 980.4244,-246.3828"/>
</g>
<!-- Node14 -->
<g id="node15" class="node">
<title>Node14</title>
<polygon fill="#ffffff" stroke="#bfbfbf" points="508,-548.5 508,-567.5 638,-567.5 638,-548.5 508,-548.5"/>
<text text-anchor="middle" x="573" y="-555.5" font-family="Helvetica,sans-Serif" font-size="10.00" fill="#000000">odp/api/abi/packet_io.h</text>
</g>
<!-- Node5&#45;&gt;Node14 -->
<g id="edge19" class="edge">
<title>Node5&#45;&gt;Node14</title>
<path fill="none" stroke="#191970" d="M573,-604.2455C573,-596.9382 573,-586.6944 573,-577.7046"/>
<polygon fill="#191970" stroke="#191970" points="576.5001,-577.6426 573,-567.6427 569.5001,-577.6427 576.5001,-577.6426"/>
</g>
<!-- Node15 -->
<g id="node16" class="node">
<title>Node15</title>
<polygon fill="#ffffff" stroke="#bfbfbf" points="188.5,-425.5 188.5,-455.5 295.5,-455.5 295.5,-425.5 188.5,-425.5"/>
<text text-anchor="start" x="196.5" y="-443.5" font-family="Helvetica,sans-Serif" font-size="10.00" fill="#000000">odp/api/abi/packet</text>
<text text-anchor="middle" x="242" y="-432.5" font-family="Helvetica,sans-Serif" font-size="10.00" fill="#000000">_types.h</text>
</g>
<!-- Node5&#45;&gt;Node15 -->
<g id="edge20" class="edge">
<title>Node5&#45;&gt;Node15</title>
<path fill="none" stroke="#191970" d="M523.682,-608.0528C479.0508,-601.6149 412.0717,-589.2939 357,-568 310.9287,-550.1862 290.9416,-551.2861 261,-512 250.8508,-498.6833 246.1112,-480.3888 243.9035,-465.639"/>
<polygon fill="#191970" stroke="#191970" points="247.371,-465.1579 242.7023,-455.6472 240.421,-465.9935 247.371,-465.1579"/>
</g>
<!-- Node16 -->
<g id="node17" class="node">
<title>Node16</title>
<polygon fill="#ffffff" stroke="#bfbfbf" points="656,-548.5 656,-567.5 772,-567.5 772,-548.5 656,-548.5"/>
<text text-anchor="middle" x="714" y="-555.5" font-family="Helvetica,sans-Serif" font-size="10.00" fill="#000000">odp/api/abi/packet.h</text>
</g>
<!-- Node5&#45;&gt;Node16 -->
<g id="edge21" class="edge">
<title>Node5&#45;&gt;Node16</title>
<path fill="none" stroke="#191970" d="M597.2388,-604.3733C620.2789,-595.2226 655.1214,-581.3844 680.7501,-571.2057"/>
<polygon fill="#191970" stroke="#191970" points="682.0756,-574.4452 690.0775,-567.5011 679.4918,-567.9395 682.0756,-574.4452"/>
</g>
<!-- Node17 -->
<g id="node18" class="node">
<title>Node17</title>
<polygon fill="#ffffff" stroke="#bfbfbf" points="790,-548.5 790,-567.5 900,-567.5 900,-548.5 790,-548.5"/>
<text text-anchor="middle" x="845" y="-555.5" font-family="Helvetica,sans-Serif" font-size="10.00" fill="#000000">odp/api/abi/buffer.h</text>
</g>
<!-- Node5&#45;&gt;Node17 -->
<g id="edge22" class="edge">
<title>Node5&#45;&gt;Node17</title>
<path fill="none" stroke="#191970" d="M619.4494,-604.4369C666.2935,-594.7925 738.6539,-579.8948 788.7262,-569.5858"/>
<polygon fill="#191970" stroke="#191970" points="789.6534,-572.9684 798.7422,-567.5237 788.2418,-566.1122 789.6534,-572.9684"/>
</g>
<!-- Node18 -->
<g id="node19" class="node">
<title>Node18</title>
<polygon fill="#ffffff" stroke="#bfbfbf" points="918,-548.5 918,-567.5 1022,-567.5 1022,-548.5 918,-548.5"/>
<text text-anchor="middle" x="970" y="-555.5" font-family="Helvetica,sans-Serif" font-size="10.00" fill="#000000">odp/api/abi/pool.h</text>
</g>
<!-- Node5&#45;&gt;Node18 -->
<g id="edge23" class="edge">
<title>Node5&#45;&gt;Node18</title>
<path fill="none" stroke="#191970" d="M622.0259,-607.7009C685.5275,-599.4503 799.9184,-584.2776 907.6978,-568.1667"/>
<polygon fill="#191970" stroke="#191970" points="908.4009,-571.6005 917.7709,-566.6553 907.3622,-564.678 908.4009,-571.6005"/>
</g>
<!-- Node19 -->
<g id="node20" class="node">
<title>Node19</title>
<g id="a_node20"><a xlink:href="api_2spec_2packet_8h.html" target="_top" xlink:title="ODP packet descriptor. ">
<polygon fill="#ffffff" stroke="#000000" points="366.5,-548.5 366.5,-567.5 489.5,-567.5 489.5,-548.5 366.5,-548.5"/>
<text text-anchor="middle" x="428" y="-555.5" font-family="Helvetica,sans-Serif" font-size="10.00" fill="#000000">odp/api/spec/packet.h</text>
</a>
</g>
</g>
<!-- Node5&#45;&gt;Node19 -->
<g id="edge24" class="edge">
<title>Node5&#45;&gt;Node19</title>
<path fill="none" stroke="#191970" d="M548.0736,-604.3733C524.3798,-595.2226 488.5489,-581.3844 462.1932,-571.2057"/>
<polygon fill="#191970" stroke="#191970" points="463.1906,-567.8389 452.6011,-567.5011 460.6686,-574.3689 463.1906,-567.8389"/>
</g>
<!-- Node7 -->
<g id="node8" class="node">
<title>Node7</title>
<polygon fill="#ffffff" stroke="#bfbfbf" points="835,-174 835,-193 965,-193 965,-174 835,-174"/>
<text text-anchor="middle" x="900" y="-181" font-family="Helvetica,sans-Serif" font-size="10.00" fill="#000000">odp/api/abi/std_types.h</text>
</g>
<!-- Node6&#45;&gt;Node7 -->
<g id="edge8" class="edge">
<title>Node6&#45;&gt;Node7</title>
<path fill="none" stroke="#191970" d="M911.8125,-235.3906C909.8514,-226.776 906.9137,-213.8708 904.4585,-203.0858"/>
<polygon fill="#191970" stroke="#191970" points="907.8507,-202.2185 902.2183,-193.2449 901.0254,-203.7723 907.8507,-202.2185"/>
</g>
<!-- Node8 -->
<g id="node9" class="node">
<title>Node8</title>
<g id="a_node9"><a xlink:href="api_2spec_2std__types_8h.html" target="_top" xlink:title="Standard C language types and definitions for ODP. ">
<polygon fill="#ffffff" stroke="#000000" points="983.5,-174 983.5,-193 1120.5,-193 1120.5,-174 983.5,-174"/>
<text text-anchor="middle" x="1052" y="-181" font-family="Helvetica,sans-Serif" font-size="10.00" fill="#000000">odp/api/spec/std_types.h</text>
</a>
</g>
</g>
<!-- Node6&#45;&gt;Node8 -->
<g id="edge9" class="edge">
<title>Node6&#45;&gt;Node8</title>
<path fill="none" stroke="#191970" d="M935.5625,-235.3906C958.5512,-225.1457 995.156,-208.8326 1021.1824,-197.2339"/>
<polygon fill="#191970" stroke="#191970" points="1022.8796,-200.3095 1030.5889,-193.0419 1020.0302,-193.9156 1022.8796,-200.3095"/>
</g>
<!-- Node8&#45;&gt;Node1 -->
<g id="edge10" class="edge">
<title>Node8&#45;&gt;Node1</title>
<path fill="none" stroke="#191970" d="M1063.3665,-173.9681C1088.8432,-151.4834 1145.8711,-94.1614 1114,-56 1091.0136,-28.4768 997.5047,-17.3886 930.6285,-12.943"/>
<polygon fill="#191970" stroke="#191970" points="930.7529,-9.444 920.5529,-12.3095 930.3136,-16.4302 930.7529,-9.444"/>
</g>
<!-- Node9 -->
<g id="node10" class="node">
<title>Node9</title>
<polygon fill="#ffffff" stroke="#bfbfbf" points="1027.5,-112.5 1027.5,-131.5 1080.5,-131.5 1080.5,-112.5 1027.5,-112.5"/>
<text text-anchor="middle" x="1054" y="-119.5" font-family="Helvetica,sans-Serif" font-size="10.00" fill="#000000">stdint.h</text>
</g>
<!-- Node8&#45;&gt;Node9 -->
<g id="edge11" class="edge">
<title>Node8&#45;&gt;Node9</title>
<path fill="none" stroke="#191970" d="M1052.3125,-173.8906C1052.5897,-165.3657 1053.0036,-152.6392 1053.3521,-141.9235"/>
<polygon fill="#191970" stroke="#191970" points="1056.8561,-141.8534 1053.6831,-131.7449 1049.8598,-141.6258 1056.8561,-141.8534"/>
</g>
<!-- Node10 -->
<g id="node11" class="node">
<title>Node10</title>
<g id="a_node11"><a xlink:href="api_2align_8h.html" target="_top" xlink:title="ODP alignments. ">
<polygon fill="#ffffff" stroke="#000000" points="920.5,-112.5 920.5,-131.5 1009.5,-131.5 1009.5,-112.5 920.5,-112.5"/>
<text text-anchor="middle" x="965" y="-119.5" font-family="Helvetica,sans-Serif" font-size="10.00" fill="#000000">odp/api/align.h</text>
</a>
</g>
</g>
<!-- Node8&#45;&gt;Node10 -->
<g id="edge12" class="edge">
<title>Node8&#45;&gt;Node10</title>
<path fill="none" stroke="#191970" d="M1038.4063,-173.8906C1024.6157,-164.1421 1003.0528,-148.8994 986.859,-137.4521"/>
<polygon fill="#191970" stroke="#191970" points="988.6844,-134.4563 978.4983,-131.5419 984.6437,-140.1723 988.6844,-134.4563"/>
</g>
<!-- Node8&#45;&gt;Node13 -->
<g id="edge17" class="edge">
<title>Node8&#45;&gt;Node13</title>
<path fill="none" stroke="#191970" d="M1026.0711,-173.9389C947.4159,-144.9612 715.8531,-59.8518 699,-56 566.5151,-25.7204 407.3004,-15.3465 319.4331,-11.8107"/>
<polygon fill="#191970" stroke="#191970" points="319.465,-8.3094 309.3378,-11.422 319.1957,-15.3042 319.465,-8.3094"/>
</g>
<!-- Node11 -->
<g id="node12" class="node">
<title>Node11</title>
<polygon fill="#ffffff" stroke="#bfbfbf" points="997.5,-56.5 997.5,-75.5 1104.5,-75.5 1104.5,-56.5 997.5,-56.5"/>
<text text-anchor="middle" x="1051" y="-63.5" font-family="Helvetica,sans-Serif" font-size="10.00" fill="#000000">odp/api/abi/align.h</text>
</g>
<!-- Node10&#45;&gt;Node11 -->
<g id="edge13" class="edge">
<title>Node10&#45;&gt;Node11</title>
<path fill="none" stroke="#191970" d="M979.9801,-112.2455C993.1751,-103.6534 1012.6051,-91.0014 1027.8079,-81.1018"/>
<polygon fill="#191970" stroke="#191970" points="1029.7215,-84.0325 1036.1916,-75.6427 1025.9017,-78.1665 1029.7215,-84.0325"/>
</g>
<!-- Node12 -->
<g id="node13" class="node">
<title>Node12</title>
<g id="a_node13"><a xlink:href="api_2spec_2align_8h.html" target="_top" xlink:title="ODP alignments. ">
<polygon fill="#ffffff" stroke="#000000" points="865,-56.5 865,-75.5 979,-75.5 979,-56.5 865,-56.5"/>
<text text-anchor="middle" x="922" y="-63.5" font-family="Helvetica,sans-Serif" font-size="10.00" fill="#000000">odp/api/spec/align.h</text>
</a>
</g>
</g>
<!-- Node10&#45;&gt;Node12 -->
<g id="edge14" class="edge">
<title>Node10&#45;&gt;Node12</title>
<path fill="none" stroke="#191970" d="M957.51,-112.2455C951.4674,-104.3761 942.8097,-93.101 935.5559,-83.6542"/>
<polygon fill="#191970" stroke="#191970" points="938.2705,-81.4426 929.4042,-75.6427 932.7185,-85.7058 938.2705,-81.4426"/>
</g>
<!-- Node12&#45;&gt;Node1 -->
<g id="edge15" class="edge">
<title>Node12&#45;&gt;Node1</title>
<path fill="none" stroke="#191970" d="M911.2004,-56.2455C902.1322,-48.0549 888.9794,-36.1749 878.2755,-26.5069"/>
<polygon fill="#191970" stroke="#191970" points="880.4429,-23.7482 870.6758,-19.6427 875.7509,-28.9429 880.4429,-23.7482"/>
</g>
<!-- Node12&#45;&gt;Node13 -->
<g id="edge16" class="edge">
<title>Node12&#45;&gt;Node13</title>
<path fill="none" stroke="#191970" d="M864.6877,-57.6113C860.0611,-57.0306 855.455,-56.4846 851,-56 658.267,-35.0356 429.5646,-20.2337 319.1612,-13.7197"/>
<polygon fill="#191970" stroke="#191970" points="319.3597,-10.2255 309.1719,-13.134 318.9498,-17.2135 319.3597,-10.2255"/>
</g>
<!-- Node19&#45;&gt;Node1 -->
<g id="edge25" class="edge">
<title>Node19&#45;&gt;Node1</title>
<path fill="none" stroke="#191970" d="M489.5557,-549.1922C492.7484,-548.7786 495.9111,-548.3786 499,-548 652.0209,-529.2463 700.1428,-567.4275 844,-512 1031.5524,-439.737 1209,-445.9921 1209,-245 1209,-245 1209,-245 1209,-122 1209,-84.6561 1189.2474,-74.8327 1157,-56 1119.7232,-34.2301 1006.5549,-21.3847 931.1744,-15.022"/>
<polygon fill="#191970" stroke="#191970" points="931.0542,-11.5003 920.8005,-14.1669 930.4792,-18.4766 931.0542,-11.5003"/>
</g>
<!-- Node19&#45;&gt;Node13 -->
<g id="edge62" class="edge">
<title>Node19&#45;&gt;Node13</title>
<path fill="none" stroke="#191970" d="M427.5206,-548.4304C426.3653,-534.5713 422.4266,-508.7443 409,-492 388.0973,-465.9323 370.8482,-474.464 343,-456 324.5457,-443.7644 324.0796,-434.3317 304,-425 230.4101,-390.8004 182.9573,-445.7982 125,-389 78.1754,-343.1118 93,-310.5612 93,-245 93,-245 93,-245 93,-122 93,-67.7109 155.587,-37.5195 202.4728,-22.5189"/>
<polygon fill="#191970" stroke="#191970" points="203.6693,-25.8132 212.2113,-19.5453 201.625,-19.1183 203.6693,-25.8132"/>
</g>
<!-- Node20 -->
<g id="node21" class="node">
<title>Node20</title>
<g id="a_node21"><a xlink:href="api_2proto__stats__types_8h.html" target="_top" xlink:title="ODP proto stats types. ">
<polygon fill="#ffffff" stroke="#000000" points="835,-358.5 835,-388.5 945,-388.5 945,-358.5 835,-358.5"/>
<text text-anchor="start" x="843" y="-376.5" font-family="Helvetica,sans-Serif" font-size="10.00" fill="#000000">odp/api/proto_stats</text>
<text text-anchor="middle" x="890" y="-365.5" font-family="Helvetica,sans-Serif" font-size="10.00" fill="#000000">_types.h</text>
</a>
</g>
</g>
<!-- Node19&#45;&gt;Node20 -->
<g id="edge26" class="edge">
<title>Node19&#45;&gt;Node20</title>
<path fill="none" stroke="#191970" d="M489.5592,-549.22C492.7509,-548.7991 495.9125,-548.3899 499,-548 570.4339,-538.9781 761.9828,-553.2453 821,-512 859.3792,-485.178 877.4828,-430.6773 885.1292,-398.6212"/>
<polygon fill="#191970" stroke="#191970" points="888.585,-399.2038 887.3356,-388.6829 881.7514,-397.6866 888.585,-399.2038"/>
</g>
<!-- Node23 -->
<g id="node24" class="node">
<title>Node23</title>
<g id="a_node24"><a xlink:href="api_2time_8h.html" target="_top" xlink:title="ODP time. ">
<polygon fill="#ffffff" stroke="#000000" points="669.5,-297 669.5,-316 756.5,-316 756.5,-297 669.5,-297"/>
<text text-anchor="middle" x="713" y="-304" font-family="Helvetica,sans-Serif" font-size="10.00" fill="#000000">odp/api/time.h</text>
</a>
</g>
</g>
<!-- Node19&#45;&gt;Node23 -->
<g id="edge32" class="edge">
<title>Node19&#45;&gt;Node23</title>
<path fill="none" stroke="#191970" d="M438.8243,-548.448C481.7646,-510.5551 640.4072,-370.56 694.6641,-322.6806"/>
<polygon fill="#191970" stroke="#191970" points="696.9827,-325.3025 702.1649,-316.0615 692.351,-320.0539 696.9827,-325.3025"/>
</g>
<!-- Node26 -->
<g id="node27" class="node">
<title>Node26</title>
<g id="a_node27"><a xlink:href="api_2packet__types_8h.html" target="_top" xlink:title="ODP packet. ">
<polygon fill="#ffffff" stroke="#000000" points="270,-492.5 270,-511.5 400,-511.5 400,-492.5 270,-492.5"/>
<text text-anchor="middle" x="335" y="-499.5" font-family="Helvetica,sans-Serif" font-size="10.00" fill="#000000">odp/api/packet_types.h</text>
</a>
</g>
</g>
<!-- Node19&#45;&gt;Node26 -->
<g id="edge38" class="edge">
<title>Node19&#45;&gt;Node26</title>
<path fill="none" stroke="#191970" d="M411.8006,-548.2455C397.3982,-539.5731 376.1268,-526.7645 359.6201,-516.825"/>
<polygon fill="#191970" stroke="#191970" points="361.386,-513.8028 351.0137,-511.6427 357.775,-519.7996 361.386,-513.8028"/>
</g>
<!-- Node21 -->
<g id="node22" class="node">
<title>Node21</title>
<polygon fill="#ffffff" stroke="#bfbfbf" points="962,-291.5 962,-321.5 1090,-321.5 1090,-291.5 962,-291.5"/>
<text text-anchor="start" x="970" y="-309.5" font-family="Helvetica,sans-Serif" font-size="10.00" fill="#000000">odp/api/abi/proto_stats</text>
<text text-anchor="middle" x="1026" y="-298.5" font-family="Helvetica,sans-Serif" font-size="10.00" fill="#000000">_types.h</text>
</g>
<!-- Node20&#45;&gt;Node21 -->
<g id="edge27" class="edge">
<title>Node20&#45;&gt;Node21</title>
<path fill="none" stroke="#191970" d="M920.5211,-358.4639C939.8955,-348.9191 965.173,-336.4663 986.1257,-326.144"/>
<polygon fill="#191970" stroke="#191970" points="987.6865,-329.2768 995.1103,-321.7177 984.593,-322.9974 987.6865,-329.2768"/>
</g>
<!-- Node22 -->
<g id="node23" class="node">
<title>Node22</title>
<g id="a_node23"><a xlink:href="api_2spec_2proto__stats__types_8h.html" target="_top" xlink:title="ODP proto stats types. ">
<polygon fill="#ffffff" stroke="#000000" points="836.5,-291.5 836.5,-321.5 943.5,-321.5 943.5,-291.5 836.5,-291.5"/>
<text text-anchor="start" x="844.5" y="-309.5" font-family="Helvetica,sans-Serif" font-size="10.00" fill="#000000">odp/api/spec/proto</text>
<text text-anchor="middle" x="890" y="-298.5" font-family="Helvetica,sans-Serif" font-size="10.00" fill="#000000">_stats_types.h</text>
</a>
</g>
</g>
<!-- Node20&#45;&gt;Node22 -->
<g id="edge28" class="edge">
<title>Node20&#45;&gt;Node22</title>
<path fill="none" stroke="#191970" d="M890,-358.2967C890,-350.5013 890,-340.7991 890,-331.9064"/>
<polygon fill="#191970" stroke="#191970" points="893.5001,-331.6431 890,-321.6432 886.5001,-331.6432 893.5001,-331.6431"/>
</g>
<!-- Node22&#45;&gt;Node1 -->
<g id="edge29" class="edge">
<title>Node22&#45;&gt;Node1</title>
<path fill="none" stroke="#191970" d="M935.7729,-291.4451C1015.3976,-264.5889 1171,-208.862 1171,-183.5 1171,-183.5 1171,-183.5 1171,-122 1171,-87.9282 1160.0762,-75.3033 1132,-56 1100.1212,-34.0823 1000.1533,-21.5083 930.7304,-15.2136"/>
<polygon fill="#191970" stroke="#191970" points="930.9901,-11.7231 920.7211,-14.3301 930.3746,-18.6959 930.9901,-11.7231"/>
</g>
<!-- Node22&#45;&gt;Node6 -->
<g id="edge30" class="edge">
<title>Node22&#45;&gt;Node6</title>
<path fill="none" stroke="#191970" d="M895.9326,-291.2977C899.1252,-283.1166 903.0954,-272.943 906.5004,-264.2179"/>
<polygon fill="#191970" stroke="#191970" points="909.7823,-265.4351 910.1573,-254.8469 903.2613,-262.8903 909.7823,-265.4351"/>
</g>
<!-- Node22&#45;&gt;Node13 -->
<g id="edge31" class="edge">
<title>Node22&#45;&gt;Node13</title>
<path fill="none" stroke="#191970" d="M877.6516,-291.4826C834.8689,-239.6267 694.0661,-70.4711 666,-56 607.1058,-25.6337 420.0887,-15.1617 319.1393,-11.6686"/>
<polygon fill="#191970" stroke="#191970" points="319.1625,-8.1676 309.0516,-11.3329 318.9296,-15.1637 319.1625,-8.1676"/>
</g>
<!-- Node23&#45;&gt;Node6 -->
<g id="edge33" class="edge">
<title>Node23&#45;&gt;Node6</title>
<path fill="none" stroke="#191970" d="M744.4063,-296.8906C779.0698,-286.2846 834.9881,-269.1753 873.0625,-257.5257"/>
<polygon fill="#191970" stroke="#191970" points="874.2759,-260.8146 882.8143,-254.5419 872.2278,-254.1209 874.2759,-260.8146"/>
</g>
<!-- Node24 -->
<g id="node25" class="node">
<title>Node24</title>
<polygon fill="#ffffff" stroke="#bfbfbf" points="658.5,-235.5 658.5,-254.5 763.5,-254.5 763.5,-235.5 658.5,-235.5"/>
<text text-anchor="middle" x="711" y="-242.5" font-family="Helvetica,sans-Serif" font-size="10.00" fill="#000000">odp/api/abi/time.h</text>
</g>
<!-- Node23&#45;&gt;Node24 -->
<g id="edge34" class="edge">
<title>Node23&#45;&gt;Node24</title>
<path fill="none" stroke="#191970" d="M712.6875,-296.8906C712.4103,-288.3657 711.9964,-275.6392 711.6479,-264.9235"/>
<polygon fill="#191970" stroke="#191970" points="715.1402,-264.6258 711.3169,-254.7449 708.1439,-264.8534 715.1402,-264.6258"/>
</g>
<!-- Node25 -->
<g id="node26" class="node">
<title>Node25</title>
<g id="a_node26"><a xlink:href="api_2spec_2time_8h.html" target="_top" xlink:title="ODP time. ">
<polygon fill="#ffffff" stroke="#000000" points="543.5,-56.5 543.5,-75.5 656.5,-75.5 656.5,-56.5 543.5,-56.5"/>
<text text-anchor="middle" x="600" y="-63.5" font-family="Helvetica,sans-Serif" font-size="10.00" fill="#000000">odp/api/spec/time.h</text>
</a>
</g>
</g>
<!-- Node23&#45;&gt;Node25 -->
<g id="edge35" class="edge">
<title>Node23&#45;&gt;Node25</title>
<path fill="none" stroke="#191970" d="M696.0112,-296.8462C681.6551,-287.8247 661.6247,-273.0541 650,-255 615.0156,-200.6664 604.4124,-122.6097 601.2754,-86.1707"/>
<polygon fill="#191970" stroke="#191970" points="604.7418,-85.5927 600.4978,-75.885 597.7617,-86.1204 604.7418,-85.5927"/>
</g>
<!-- Node25&#45;&gt;Node1 -->
<g id="edge36" class="edge">
<title>Node25&#45;&gt;Node1</title>
<path fill="none" stroke="#191970" d="M644.4002,-56.4369C689.0841,-46.8127 758.057,-31.957 805.9088,-21.6504"/>
<polygon fill="#191970" stroke="#191970" points="806.7441,-25.0508 815.783,-19.5237 805.2702,-18.2078 806.7441,-25.0508"/>
</g>
<!-- Node25&#45;&gt;Node13 -->
<g id="edge37" class="edge">
<title>Node25&#45;&gt;Node13</title>
<path fill="none" stroke="#191970" d="M543.4762,-56.878C482.135,-46.9786 384.2787,-31.1862 319.3408,-20.7063"/>
<polygon fill="#191970" stroke="#191970" points="319.6418,-17.2097 309.2119,-19.0717 318.5265,-24.1203 319.6418,-17.2097"/>
</g>
<!-- Node26&#45;&gt;Node15 -->
<g id="edge39" class="edge">
<title>Node26&#45;&gt;Node15</title>
<path fill="none" stroke="#191970" d="M320.4688,-492.3906C307.8823,-484.0673 289.2393,-471.7389 273.283,-461.1872"/>
<polygon fill="#191970" stroke="#191970" points="275.0221,-458.1411 264.7504,-455.5446 271.1609,-463.98 275.0221,-458.1411"/>
</g>
<!-- Node27 -->
<g id="node28" class="node">
<title>Node27</title>
<g id="a_node28"><a xlink:href="api_2spec_2packet__types_8h.html" target="_top" xlink:title="ODP packet types. ">
<polygon fill="#ffffff" stroke="#000000" points="352,-425.5 352,-455.5 466,-455.5 466,-425.5 352,-425.5"/>
<text text-anchor="start" x="360" y="-443.5" font-family="Helvetica,sans-Serif" font-size="10.00" fill="#000000">odp/api/spec/packet</text>
<text text-anchor="middle" x="409" y="-432.5" font-family="Helvetica,sans-Serif" font-size="10.00" fill="#000000">_types.h</text>
</a>
</g>
</g>
<!-- Node26&#45;&gt;Node27 -->
<g id="edge40" class="edge">
<title>Node26&#45;&gt;Node27</title>
<path fill="none" stroke="#191970" d="M346.5625,-492.3906C356.2993,-484.2986 370.5913,-472.4207 383.0453,-462.0705"/>
<polygon fill="#191970" stroke="#191970" points="385.4439,-464.628 390.8976,-455.5446 380.9697,-459.2445 385.4439,-464.628"/>
</g>
<!-- Node27&#45;&gt;Node1 -->
<g id="edge41" class="edge">
<title>Node27&#45;&gt;Node1</title>
<path fill="none" stroke="#191970" d="M466.0671,-428.2862C555.7492,-408.0202 723.8283,-365.3632 766,-322 787.252,-300.1476 839.3489,-93.9369 855.2888,-29.287"/>
<polygon fill="#191970" stroke="#191970" points="858.6938,-30.0973 857.6793,-19.5512 851.8957,-28.4281 858.6938,-30.0973"/>
</g>
<!-- Node27&#45;&gt;Node13 -->
<g id="edge61" class="edge">
<title>Node27&#45;&gt;Node13</title>
<path fill="none" stroke="#191970" d="M395.4376,-425.0981C371.3935,-397.854 319.6195,-339.4635 275,-291 236.8825,-249.5987 208.8079,-251.2881 188,-199 163.2676,-136.8503 212.6409,-61.1299 238.5379,-27.5183"/>
<polygon fill="#191970" stroke="#191970" points="241.38,-29.5671 244.8484,-19.5561 235.8941,-25.2192 241.38,-29.5671"/>
</g>
<!-- Node27&#45;&gt;Node20 -->
<g id="edge42" class="edge">
<title>Node27&#45;&gt;Node20</title>
<path fill="none" stroke="#191970" d="M466.0432,-432.7718C539.3983,-422.8046 670.7251,-404.862 783,-389 796.5349,-387.0878 811.028,-385.0092 824.8389,-383.0137"/>
<polygon fill="#191970" stroke="#191970" points="825.3559,-386.4754 834.7514,-381.5788 824.3531,-379.5476 825.3559,-386.4754"/>
</g>
<!-- Node27&#45;&gt;Node28 -->
<g id="edge43" class="edge">
<title>Node27&#45;&gt;Node28</title>
<path fill="none" stroke="#191970" d="M361.6475,-425.4639C324.3796,-413.63 273.0335,-397.3258 237.8516,-386.1543"/>
<polygon fill="#191970" stroke="#191970" points="238.5249,-382.6959 227.9346,-383.0053 236.4063,-389.3677 238.5249,-382.6959"/>
</g>
<!-- Node29 -->
<g id="node30" class="node">
<title>Node29</title>
<polygon fill="#ffffff" stroke="#bfbfbf" points="121.5,-297 121.5,-316 266.5,-316 266.5,-297 121.5,-297"/>
<text text-anchor="middle" x="194" y="-304" font-family="Helvetica,sans-Serif" font-size="10.00" fill="#000000">odp/api/abi/queue_types.h</text>
</g>
<!-- Node28&#45;&gt;Node29 -->
<g id="edge44" class="edge">
<title>Node28&#45;&gt;Node29</title>
<path fill="none" stroke="#191970" d="M197.4269,-363.9005C196.8447,-354.149 195.926,-338.7597 195.1862,-326.3695"/>
<polygon fill="#191970" stroke="#191970" points="198.6619,-325.8553 194.572,-316.0817 191.6743,-326.2725 198.6619,-325.8553"/>
</g>
<!-- Node30 -->
<g id="node31" class="node">
<title>Node30</title>
<g id="a_node31"><a xlink:href="api_2spec_2queue__types_8h.html" target="_top" xlink:title="ODP queue types. ">
<polygon fill="#ffffff" stroke="#000000" points="323.5,-291.5 323.5,-321.5 434.5,-321.5 434.5,-291.5 323.5,-291.5"/>
<text text-anchor="start" x="331.5" y="-309.5" font-family="Helvetica,sans-Serif" font-size="10.00" fill="#000000">odp/api/spec/queue</text>
<text text-anchor="middle" x="379" y="-298.5" font-family="Helvetica,sans-Serif" font-size="10.00" fill="#000000">_types.h</text>
</a>
</g>
</g>
<!-- Node28&#45;&gt;Node30 -->
<g id="edge45" class="edge">
<title>Node28&#45;&gt;Node30</title>
<path fill="none" stroke="#191970" d="M223.9329,-363.9005C251.1571,-353.8231 294.6468,-337.7247 328.651,-325.1375"/>
<polygon fill="#191970" stroke="#191970" points="330.2557,-328.2756 338.4188,-321.5218 327.8257,-321.7109 330.2557,-328.2756"/>
</g>
<!-- Node30&#45;&gt;Node1 -->
<g id="edge46" class="edge">
<title>Node30&#45;&gt;Node1</title>
<path fill="none" stroke="#191970" d="M434.8941,-296.5563C470.7274,-288.6656 517.4002,-275.4903 555,-255 673.6927,-190.3174 675.913,-135.8237 785,-56 800.4714,-44.6789 818.7996,-33.4019 833.4647,-24.847"/>
<polygon fill="#191970" stroke="#191970" points="835.5837,-27.6658 842.506,-19.6451 832.0928,-21.5984 835.5837,-27.6658"/>
</g>
<!-- Node30&#45;&gt;Node13 -->
<g id="edge60" class="edge">
<title>Node30&#45;&gt;Node13</title>
<path fill="none" stroke="#191970" d="M325.1877,-291.4851C252.2489,-269.5111 131,-226.5139 131,-183.5 131,-183.5 131,-183.5 131,-122 131,-90.7875 133.9456,-79.042 155,-56 168.8632,-40.828 188.7633,-30.2245 207.0138,-23.0549"/>
<polygon fill="#191970" stroke="#191970" points="208.4695,-26.2489 216.6494,-19.5153 206.0558,-19.6781 208.4695,-26.2489"/>
</g>
<!-- Node31 -->
<g id="node32" class="node">
<title>Node31</title>
<g id="a_node32"><a xlink:href="api_2schedule__types_8h.html" target="_top" xlink:title="ODP schedule. ">
<polygon fill="#ffffff" stroke="#000000" points="268,-235.5 268,-254.5 408,-254.5 408,-235.5 268,-235.5"/>
<text text-anchor="middle" x="338" y="-242.5" font-family="Helvetica,sans-Serif" font-size="10.00" fill="#000000">odp/api/schedule_types.h</text>
</a>
</g>
</g>
<!-- Node30&#45;&gt;Node31 -->
<g id="edge47" class="edge">
<title>Node30&#45;&gt;Node31</title>
<path fill="none" stroke="#191970" d="M368.8652,-291.2977C363.2332,-282.8498 356.1849,-272.2773 350.246,-263.369"/>
<polygon fill="#191970" stroke="#191970" points="353.0238,-261.226 344.5646,-254.8469 347.1995,-265.1089 353.0238,-261.226"/>
</g>
<!-- Node36 -->
<g id="node37" class="node">
<title>Node36</title>
<g id="a_node37"><a xlink:href="deprecated_8h.html" target="_top" xlink:title="Control deprecated API definitions. ">
<polygon fill="#ffffff" stroke="#000000" points="426.5,-235.5 426.5,-254.5 545.5,-254.5 545.5,-235.5 426.5,-235.5"/>
<text text-anchor="middle" x="486" y="-242.5" font-family="Helvetica,sans-Serif" font-size="10.00" fill="#000000">odp/api/deprecated.h</text>
</a>
</g>
</g>
<!-- Node30&#45;&gt;Node36 -->
<g id="edge56" class="edge">
<title>Node30&#45;&gt;Node36</title>
<path fill="none" stroke="#191970" d="M405.1751,-291.4554C422.0887,-281.734 443.9829,-269.15 460.7172,-259.5317"/>
<polygon fill="#191970" stroke="#191970" points="462.493,-262.548 469.4188,-254.5303 459.0047,-256.4791 462.493,-262.548"/>
</g>
<!-- Node32 -->
<g id="node33" class="node">
<title>Node32</title>
<polygon fill="#ffffff" stroke="#bfbfbf" points="197.5,-168.5 197.5,-198.5 314.5,-198.5 314.5,-168.5 197.5,-168.5"/>
<text text-anchor="start" x="205.5" y="-186.5" font-family="Helvetica,sans-Serif" font-size="10.00" fill="#000000">odp/api/abi/schedule</text>
<text text-anchor="middle" x="256" y="-175.5" font-family="Helvetica,sans-Serif" font-size="10.00" fill="#000000">_types.h</text>
</g>
<!-- Node31&#45;&gt;Node32 -->
<g id="edge48" class="edge">
<title>Node31&#45;&gt;Node32</title>
<path fill="none" stroke="#191970" d="M325.1875,-235.3906C314.2953,-227.2215 298.2588,-215.1941 284.3669,-204.7752"/>
<polygon fill="#191970" stroke="#191970" points="286.1595,-201.7446 276.0595,-198.5446 281.9595,-207.3446 286.1595,-201.7446"/>
</g>
<!-- Node33 -->
<g id="node34" class="node">
<title>Node33</title>
<g id="a_node34"><a xlink:href="api_2spec_2schedule__types_8h.html" target="_top" xlink:title="ODP schedule types. ">
<polygon fill="#ffffff" stroke="#000000" points="332.5,-168.5 332.5,-198.5 457.5,-198.5 457.5,-168.5 332.5,-168.5"/>
<text text-anchor="start" x="340.5" y="-186.5" font-family="Helvetica,sans-Serif" font-size="10.00" fill="#000000">odp/api/spec/schedule</text>
<text text-anchor="middle" x="395" y="-175.5" font-family="Helvetica,sans-Serif" font-size="10.00" fill="#000000">_types.h</text>
</a>
</g>
</g>
<!-- Node31&#45;&gt;Node33 -->
<g id="edge49" class="edge">
<title>Node31&#45;&gt;Node33</title>
<path fill="none" stroke="#191970" d="M346.9063,-235.3906C354.1919,-227.5298 364.7887,-216.0964 374.1823,-205.9612"/>
<polygon fill="#191970" stroke="#191970" points="376.8256,-208.2581 381.0562,-198.5446 371.6915,-203.4997 376.8256,-208.2581"/>
</g>
<!-- Node33&#45;&gt;Node1 -->
<g id="edge50" class="edge">
<title>Node33&#45;&gt;Node1</title>
<path fill="none" stroke="#191970" d="M435.4523,-168.4065C525.3587,-134.8608 740.4933,-54.5901 825.0357,-23.0458"/>
<polygon fill="#191970" stroke="#191970" points="826.3022,-26.309 834.4477,-19.534 823.8551,-19.7507 826.3022,-26.309"/>
</g>
<!-- Node33&#45;&gt;Node13 -->
<g id="edge55" class="edge">
<title>Node33&#45;&gt;Node13</title>
<path fill="none" stroke="#191970" d="M344.1042,-168.4954C302.4914,-153.0239 247.1949,-124.2295 226,-76 218.8907,-59.8226 228.1025,-41.1675 237.6456,-27.8266"/>
<polygon fill="#191970" stroke="#191970" points="240.427,-29.9514 243.7965,-19.9066 234.8984,-25.6578 240.427,-29.9514"/>
</g>
<!-- Node34 -->
<g id="node35" class="node">
<title>Node34</title>
<g id="a_node35"><a xlink:href="support_8h.html" target="_top" xlink:title="ODP support API &#45; platform specific header. ">
<polygon fill="#ffffff" stroke="#000000" points="296.5,-112.5 296.5,-131.5 397.5,-131.5 397.5,-112.5 296.5,-112.5"/>
<text text-anchor="middle" x="347" y="-119.5" font-family="Helvetica,sans-Serif" font-size="10.00" fill="#000000">odp/api/support.h</text>
</a>
</g>
</g>
<!-- Node33&#45;&gt;Node34 -->
<g id="edge51" class="edge">
<title>Node33&#45;&gt;Node34</title>
<path fill="none" stroke="#191970" d="M383.1348,-168.2977C376.4025,-159.672 367.9415,-148.8312 360.8994,-139.8087"/>
<polygon fill="#191970" stroke="#191970" points="363.5973,-137.5766 354.6854,-131.8469 358.079,-141.8836 363.5973,-137.5766"/>
</g>
<!-- Node35 -->
<g id="node36" class="node">
<title>Node35</title>
<g id="a_node36"><a xlink:href="spec_2support_8h.html" target="_top" xlink:title="ODP support API. ">
<polygon fill="#ffffff" stroke="#000000" points="235.5,-56.5 235.5,-75.5 362.5,-75.5 362.5,-56.5 235.5,-56.5"/>
<text text-anchor="middle" x="299" y="-63.5" font-family="Helvetica,sans-Serif" font-size="10.00" fill="#000000">odp/api/spec/support.h</text>
</a>
</g>
</g>
<!-- Node34&#45;&gt;Node35 -->
<g id="edge52" class="edge">
<title>Node34&#45;&gt;Node35</title>
<path fill="none" stroke="#191970" d="M338.639,-112.2455C331.825,-104.2958 322.0319,-92.8706 313.8848,-83.3656"/>
<polygon fill="#191970" stroke="#191970" points="316.4305,-80.9575 307.2651,-75.6427 311.1157,-85.513 316.4305,-80.9575"/>
</g>
<!-- Node35&#45;&gt;Node1 -->
<g id="edge53" class="edge">
<title>Node35&#45;&gt;Node1</title>
<path fill="none" stroke="#191970" d="M362.5837,-57.0136C365.4267,-56.6608 368.2422,-56.3211 371,-56 519.5277,-38.7082 694.024,-23.5218 789.2186,-15.6701"/>
<polygon fill="#191970" stroke="#191970" points="789.6239,-19.1487 799.3036,-14.8413 789.0505,-12.1722 789.6239,-19.1487"/>
</g>
<!-- Node35&#45;&gt;Node13 -->
<g id="edge54" class="edge">
<title>Node35&#45;&gt;Node13</title>
<path fill="none" stroke="#191970" d="M290.9874,-56.2455C284.5232,-48.3761 275.2615,-37.101 267.5017,-27.6542"/>
<polygon fill="#191970" stroke="#191970" points="269.9727,-25.1484 260.9208,-19.6427 264.5636,-29.5916 269.9727,-25.1484"/>
</g>
<!-- Node37 -->
<g id="node38" class="node">
<title>Node37</title>
<g id="a_node38"><a xlink:href="spec_2deprecated_8h.html" target="_top" xlink:title="Macro for deprecated API definitions. ">
<polygon fill="#ffffff" stroke="#000000" points="380.5,-56.5 380.5,-75.5 525.5,-75.5 525.5,-56.5 380.5,-56.5"/>
<text text-anchor="middle" x="453" y="-63.5" font-family="Helvetica,sans-Serif" font-size="10.00" fill="#000000">odp/api/spec/deprecated.h</text>
</a>
</g>
</g>
<!-- Node36&#45;&gt;Node37 -->
<g id="edge57" class="edge">
<title>Node36&#45;&gt;Node37</title>
<path fill="none" stroke="#191970" d="M484.2258,-235.3762C479.0107,-207.0883 463.6556,-123.7987 456.6091,-85.5767"/>
<polygon fill="#191970" stroke="#191970" points="460.0381,-84.8711 454.783,-75.6714 453.1541,-86.1403 460.0381,-84.8711"/>
</g>
<!-- Node37&#45;&gt;Node1 -->
<g id="edge58" class="edge">
<title>Node37&#45;&gt;Node1</title>
<path fill="none" stroke="#191970" d="M522.5033,-56.4369C596.8795,-46.2033 714.244,-30.0549 789.1385,-19.75"/>
<polygon fill="#191970" stroke="#191970" points="789.9862,-23.1664 799.4157,-18.3359 789.0319,-16.2317 789.9862,-23.1664"/>
</g>
<!-- Node37&#45;&gt;Node13 -->
<g id="edge59" class="edge">
<title>Node37&#45;&gt;Node13</title>
<path fill="none" stroke="#191970" d="M418.6188,-56.3733C384.9299,-46.9404 333.4518,-32.5265 296.8382,-22.2747"/>
<polygon fill="#191970" stroke="#191970" points="297.506,-18.8271 286.9326,-19.5011 295.6185,-25.5679 297.506,-18.8271"/>
</g>
</g>
</svg>
