<?xml version="1.0" encoding="UTF-8" standalone="no"?>
<!DOCTYPE svg PUBLIC "-//W3C//DTD SVG 1.1//EN"
 "http://www.w3.org/Graphics/SVG/1.1/DTD/svg11.dtd">
<!-- Generated by graphviz version 2.40.1 (20161225.0304)
 -->
<!-- Title: comp.h Pages: 1 -->
<svg width="1342pt" height="744pt"
 viewBox="0.00 0.00 1342.00 744.00" xmlns="http://www.w3.org/2000/svg" xmlns:xlink="http://www.w3.org/1999/xlink">
<g id="graph0" class="graph" transform="scale(1 1) rotate(0) translate(4 740)">
<title>comp.h</title>
<polygon fill="#ffffff" stroke="transparent" points="-4,4 -4,-740 1338,-740 1338,4 -4,4"/>
<!-- Node0 -->
<g id="node1" class="node">
<title>Node0</title>
<polygon fill="#bfbfbf" stroke="#000000" points="332.5,-716.5 332.5,-735.5 385.5,-735.5 385.5,-716.5 332.5,-716.5"/>
<text text-anchor="middle" x="359" y="-723.5" font-family="Helvetica,sans-Serif" font-size="10.00" fill="#000000">comp.h</text>
</g>
<!-- Node1 -->
<g id="node2" class="node">
<title>Node1</title>
<polygon fill="#ffffff" stroke="#bfbfbf" points="0,-660.5 0,-679.5 110,-679.5 110,-660.5 0,-660.5"/>
<text text-anchor="middle" x="55" y="-667.5" font-family="Helvetica,sans-Serif" font-size="10.00" fill="#000000">odp/api/abi/comp.h</text>
</g>
<!-- Node0&#45;&gt;Node1 -->
<g id="edge1" class="edge">
<title>Node0&#45;&gt;Node1</title>
<path fill="none" stroke="#191970" d="M332.2885,-721.0795C284.3301,-712.245 182.4859,-693.4842 116.4749,-681.3243"/>
<polygon fill="#191970" stroke="#191970" points="117.073,-677.8757 106.6044,-679.5061 115.8049,-684.7599 117.073,-677.8757"/>
</g>
<!-- Node2 -->
<g id="node3" class="node">
<title>Node2</title>
<polygon fill="#ffffff" stroke="#bfbfbf" points="38,-548.5 38,-567.5 148,-567.5 148,-548.5 38,-548.5"/>
<text text-anchor="middle" x="93" y="-555.5" font-family="Helvetica,sans-Serif" font-size="10.00" fill="#000000">odp/api/abi/event.h</text>
</g>
<!-- Node0&#45;&gt;Node2 -->
<g id="edge2" class="edge">
<title>Node0&#45;&gt;Node2</title>
<path fill="none" stroke="#191970" d="M335.3229,-716.3741C297.0349,-700.2464 219.97,-665.4264 162,-624 141.9317,-609.6588 121.8815,-589.6916 108.6082,-575.4835"/>
<polygon fill="#191970" stroke="#191970" points="110.9652,-572.8751 101.6273,-567.8696 105.8056,-577.6058 110.9652,-572.8751"/>
</g>
<!-- Node3 -->
<g id="node4" class="node">
<title>Node3</title>
<polygon fill="#ffffff" stroke="#bfbfbf" points="988.5,-297 988.5,-316 1133.5,-316 1133.5,-297 988.5,-297"/>
<text text-anchor="middle" x="1061" y="-304" font-family="Helvetica,sans-Serif" font-size="10.00" fill="#000000">odp/api/abi/queue_types.h</text>
</g>
<!-- Node0&#45;&gt;Node3 -->
<g id="edge3" class="edge">
<title>Node0&#45;&gt;Node3</title>
<path fill="none" stroke="#191970" d="M385.5846,-725.8148C541.8488,-724.3851 1334,-712.2903 1334,-614 1334,-614 1334,-614 1334,-558 1334,-430.6442 1171.3047,-350.0384 1097.1092,-319.9006"/>
<polygon fill="#191970" stroke="#191970" points="1098.259,-316.5913 1087.6735,-316.1468 1095.6714,-323.0955 1098.259,-316.5913"/>
</g>
<!-- Node4 -->
<g id="node5" class="node">
<title>Node4</title>
<g id="a_node5"><a xlink:href="api_2spec_2comp_8h.html" target="_top" xlink:title="ODP Compression. ">
<polygon fill="#ffffff" stroke="#000000" points="457.5,-660.5 457.5,-679.5 574.5,-679.5 574.5,-660.5 457.5,-660.5"/>
<text text-anchor="middle" x="516" y="-667.5" font-family="Helvetica,sans-Serif" font-size="10.00" fill="#000000">odp/api/spec/comp.h</text>
</a>
</g>
</g>
<!-- Node0&#45;&gt;Node4 -->
<g id="edge4" class="edge">
<title>Node0&#45;&gt;Node4</title>
<path fill="none" stroke="#191970" d="M385.6329,-716.5004C411.4583,-707.2887 450.8401,-693.2417 479.5616,-682.9971"/>
<polygon fill="#191970" stroke="#191970" points="480.9935,-686.2024 489.2364,-679.5462 478.6418,-679.6093 480.9935,-686.2024"/>
</g>
<!-- Node5 -->
<g id="node6" class="node">
<title>Node5</title>
<g id="a_node6"><a xlink:href="visibility__begin_8h_source.html" target="_top" xlink:title="odp/visibility_begin.h">
<polygon fill="#ffffff" stroke="#000000" points="1083.5,-.5 1083.5,-19.5 1204.5,-19.5 1204.5,-.5 1083.5,-.5"/>
<text text-anchor="middle" x="1144" y="-7.5" font-family="Helvetica,sans-Serif" font-size="10.00" fill="#000000">odp/visibility_begin.h</text>
</a>
</g>
</g>
<!-- Node4&#45;&gt;Node5 -->
<g id="edge5" class="edge">
<title>Node4&#45;&gt;Node5</title>
<path fill="none" stroke="#191970" d="M574.9487,-668.0394C708.4589,-663.2084 1030.5059,-649.2527 1136,-624 1198.7736,-608.9736 1226.1717,-615.3857 1270,-568 1331.7929,-501.1916 1334,-464.504 1334,-373.5 1334,-373.5 1334,-373.5 1334,-122 1334,-64.2347 1268.0182,-35.6568 1213.8206,-21.9265"/>
<polygon fill="#191970" stroke="#191970" points="1214.3974,-18.4656 1203.8564,-19.5319 1212.7617,-25.2718 1214.3974,-18.4656"/>
</g>
<!-- Node6 -->
<g id="node7" class="node">
<title>Node6</title>
<g id="a_node7"><a xlink:href="support_8h.html" target="_top" xlink:title="ODP support API &#45; platform specific header. ">
<polygon fill="#ffffff" stroke="#000000" points="1052.5,-112.5 1052.5,-131.5 1153.5,-131.5 1153.5,-112.5 1052.5,-112.5"/>
<text text-anchor="middle" x="1103" y="-119.5" font-family="Helvetica,sans-Serif" font-size="10.00" fill="#000000">odp/api/support.h</text>
</a>
</g>
</g>
<!-- Node4&#45;&gt;Node6 -->
<g id="edge6" class="edge">
<title>Node4&#45;&gt;Node6</title>
<path fill="none" stroke="#191970" d="M574.5333,-667.3152C749.743,-658.5066 1258,-627.007 1258,-558 1258,-558 1258,-558 1258,-306.5 1258,-227.2153 1173.0507,-164.2041 1128.9299,-136.8244"/>
<polygon fill="#191970" stroke="#191970" points="1130.5475,-133.7123 1120.1799,-131.5296 1126.9235,-139.7012 1130.5475,-133.7123"/>
</g>
<!-- Node8 -->
<g id="node9" class="node">
<title>Node8</title>
<g id="a_node9"><a xlink:href="visibility__end_8h_source.html" target="_top" xlink:title="odp/visibility_end.h">
<polygon fill="#ffffff" stroke="#000000" points="542,-.5 542,-19.5 654,-19.5 654,-.5 542,-.5"/>
<text text-anchor="middle" x="598" y="-7.5" font-family="Helvetica,sans-Serif" font-size="10.00" fill="#000000">odp/visibility_end.h</text>
</a>
</g>
</g>
<!-- Node4&#45;&gt;Node8 -->
<g id="edge64" class="edge">
<title>Node4&#45;&gt;Node8</title>
<path fill="none" stroke="#191970" d="M471.7056,-660.464C397.4858,-643.5968 252.791,-606.6195 219,-568 104.2367,-436.8377 142,-357.7819 142,-183.5 142,-183.5 142,-183.5 142,-122 142,-84.9295 160.7014,-74.194 193,-56 249.3474,-24.2592 431.6935,-14.3937 531.3898,-11.3468"/>
<polygon fill="#191970" stroke="#191970" points="531.7605,-14.8376 541.6545,-11.0483 531.557,-7.8406 531.7605,-14.8376"/>
</g>
<!-- Node9 -->
<g id="node10" class="node">
<title>Node9</title>
<g id="a_node10"><a xlink:href="api_2packet_8h.html" target="_top" xlink:title="ODP packet descriptor. ">
<polygon fill="#ffffff" stroke="#000000" points="467,-604.5 467,-623.5 565,-623.5 565,-604.5 467,-604.5"/>
<text text-anchor="middle" x="516" y="-611.5" font-family="Helvetica,sans-Serif" font-size="10.00" fill="#000000">odp/api/packet.h</text>
</a>
</g>
</g>
<!-- Node4&#45;&gt;Node9 -->
<g id="edge10" class="edge">
<title>Node4&#45;&gt;Node9</title>
<path fill="none" stroke="#191970" d="M516,-660.2455C516,-652.9382 516,-642.6944 516,-633.7046"/>
<polygon fill="#191970" stroke="#191970" points="519.5001,-633.6426 516,-623.6427 512.5001,-633.6427 519.5001,-633.6426"/>
</g>
<!-- Node7 -->
<g id="node8" class="node">
<title>Node7</title>
<g id="a_node8"><a xlink:href="spec_2support_8h.html" target="_top" xlink:title="ODP support API. ">
<polygon fill="#ffffff" stroke="#000000" points="988.5,-56.5 988.5,-75.5 1115.5,-75.5 1115.5,-56.5 988.5,-56.5"/>
<text text-anchor="middle" x="1052" y="-63.5" font-family="Helvetica,sans-Serif" font-size="10.00" fill="#000000">odp/api/spec/support.h</text>
</a>
</g>
</g>
<!-- Node6&#45;&gt;Node7 -->
<g id="edge7" class="edge">
<title>Node6&#45;&gt;Node7</title>
<path fill="none" stroke="#191970" d="M1094.1165,-112.2455C1086.8034,-104.2155 1076.2609,-92.6394 1067.5533,-83.0781"/>
<polygon fill="#191970" stroke="#191970" points="1070.1028,-80.6795 1060.7817,-75.6427 1064.9273,-85.3928 1070.1028,-80.6795"/>
</g>
<!-- Node7&#45;&gt;Node5 -->
<g id="edge8" class="edge">
<title>Node7&#45;&gt;Node5</title>
<path fill="none" stroke="#191970" d="M1068.0252,-56.2455C1082.1408,-47.6534 1102.9263,-35.0014 1119.1899,-25.1018"/>
<polygon fill="#191970" stroke="#191970" points="1121.4363,-27.8319 1128.1585,-19.6427 1117.7966,-21.8525 1121.4363,-27.8319"/>
</g>
<!-- Node7&#45;&gt;Node8 -->
<g id="edge9" class="edge">
<title>Node7&#45;&gt;Node8</title>
<path fill="none" stroke="#191970" d="M988.4052,-57.1036C985.5652,-56.7264 982.7534,-56.357 980,-56 869.2124,-41.6372 740.1459,-26.4084 663.9653,-17.5749"/>
<polygon fill="#191970" stroke="#191970" points="664.3668,-14.0981 654.0305,-16.4244 663.5615,-21.0516 664.3668,-14.0981"/>
</g>
<!-- Node9&#45;&gt;Node2 -->
<g id="edge22" class="edge">
<title>Node9&#45;&gt;Node2</title>
<path fill="none" stroke="#191970" d="M466.6487,-607.4665C390.2096,-597.3469 243.1512,-577.8782 158.0997,-566.6184"/>
<polygon fill="#191970" stroke="#191970" points="158.4168,-563.1299 148.0439,-565.2871 157.498,-570.0694 158.4168,-563.1299"/>
</g>
<!-- Node10 -->
<g id="node11" class="node">
<title>Node10</title>
<g id="a_node11"><a xlink:href="api_2std__types_8h.html" target="_top" xlink:title="Standard C language types and definitions for ODP. ">
<polygon fill="#ffffff" stroke="#000000" points="370,-235.5 370,-254.5 482,-254.5 482,-235.5 370,-235.5"/>
<text text-anchor="middle" x="426" y="-242.5" font-family="Helvetica,sans-Serif" font-size="10.00" fill="#000000">odp/api/std_types.h</text>
</a>
</g>
</g>
<!-- Node9&#45;&gt;Node10 -->
<g id="edge11" class="edge">
<title>Node9&#45;&gt;Node10</title>
<path fill="none" stroke="#191970" d="M466.8723,-609.3995C390.3375,-601.7314 249.8234,-585.4473 235,-568 145.3817,-462.5182 336.0727,-309.6457 403.5283,-260.6974"/>
<polygon fill="#191970" stroke="#191970" points="405.7428,-263.4164 411.8324,-254.7465 401.6653,-257.7266 405.7428,-263.4164"/>
</g>
<!-- Node17 -->
<g id="node18" class="node">
<title>Node17</title>
<polygon fill="#ffffff" stroke="#bfbfbf" points="244,-548.5 244,-567.5 374,-567.5 374,-548.5 244,-548.5"/>
<text text-anchor="middle" x="309" y="-555.5" font-family="Helvetica,sans-Serif" font-size="10.00" fill="#000000">odp/api/abi/packet_io.h</text>
</g>
<!-- Node9&#45;&gt;Node17 -->
<g id="edge23" class="edge">
<title>Node9&#45;&gt;Node17</title>
<path fill="none" stroke="#191970" d="M480.4154,-604.3733C445.3984,-594.9001 391.8119,-580.4032 353.8875,-570.1435"/>
<polygon fill="#191970" stroke="#191970" points="354.6873,-566.7341 344.1202,-567.5011 352.8592,-573.4912 354.6873,-566.7341"/>
</g>
<!-- Node18 -->
<g id="node19" class="node">
<title>Node18</title>
<polygon fill="#ffffff" stroke="#bfbfbf" points="1122.5,-425.5 1122.5,-455.5 1229.5,-455.5 1229.5,-425.5 1122.5,-425.5"/>
<text text-anchor="start" x="1130.5" y="-443.5" font-family="Helvetica,sans-Serif" font-size="10.00" fill="#000000">odp/api/abi/packet</text>
<text text-anchor="middle" x="1176" y="-432.5" font-family="Helvetica,sans-Serif" font-size="10.00" fill="#000000">_types.h</text>
</g>
<!-- Node9&#45;&gt;Node18 -->
<g id="edge24" class="edge">
<title>Node9&#45;&gt;Node18</title>
<path fill="none" stroke="#191970" d="M565.3075,-610.1159C690.3155,-599.5506 1016.2201,-567.3151 1108,-512 1128.4261,-499.6893 1146.7464,-479.6226 1159.2104,-463.8765"/>
<polygon fill="#191970" stroke="#191970" points="1162.2087,-465.7178 1165.5085,-455.6499 1156.6505,-461.4626 1162.2087,-465.7178"/>
</g>
<!-- Node19 -->
<g id="node20" class="node">
<title>Node19</title>
<polygon fill="#ffffff" stroke="#bfbfbf" points="392,-548.5 392,-567.5 508,-567.5 508,-548.5 392,-548.5"/>
<text text-anchor="middle" x="450" y="-555.5" font-family="Helvetica,sans-Serif" font-size="10.00" fill="#000000">odp/api/abi/packet.h</text>
</g>
<!-- Node9&#45;&gt;Node19 -->
<g id="edge25" class="edge">
<title>Node9&#45;&gt;Node19</title>
<path fill="none" stroke="#191970" d="M504.5037,-604.2455C494.7558,-595.9746 480.5741,-583.9416 469.1202,-574.2232"/>
<polygon fill="#191970" stroke="#191970" points="471.2541,-571.4437 461.3646,-567.6427 466.7253,-576.7813 471.2541,-571.4437"/>
</g>
<!-- Node20 -->
<g id="node21" class="node">
<title>Node20</title>
<polygon fill="#ffffff" stroke="#bfbfbf" points="526,-548.5 526,-567.5 636,-567.5 636,-548.5 526,-548.5"/>
<text text-anchor="middle" x="581" y="-555.5" font-family="Helvetica,sans-Serif" font-size="10.00" fill="#000000">odp/api/abi/buffer.h</text>
</g>
<!-- Node9&#45;&gt;Node20 -->
<g id="edge26" class="edge">
<title>Node9&#45;&gt;Node20</title>
<path fill="none" stroke="#191970" d="M527.3221,-604.2455C536.9223,-595.9746 550.8892,-583.9416 562.1695,-574.2232"/>
<polygon fill="#191970" stroke="#191970" points="564.516,-576.8214 569.8076,-567.6427 559.947,-571.5182 564.516,-576.8214"/>
</g>
<!-- Node21 -->
<g id="node22" class="node">
<title>Node21</title>
<polygon fill="#ffffff" stroke="#bfbfbf" points="654,-548.5 654,-567.5 758,-567.5 758,-548.5 654,-548.5"/>
<text text-anchor="middle" x="706" y="-555.5" font-family="Helvetica,sans-Serif" font-size="10.00" fill="#000000">odp/api/abi/pool.h</text>
</g>
<!-- Node9&#45;&gt;Node21 -->
<g id="edge27" class="edge">
<title>Node9&#45;&gt;Node21</title>
<path fill="none" stroke="#191970" d="M548.6622,-604.3733C580.5298,-594.9807 629.1531,-580.6496 663.907,-570.4064"/>
<polygon fill="#191970" stroke="#191970" points="665.1615,-573.6855 673.764,-567.5011 663.1825,-566.9711 665.1615,-573.6855"/>
</g>
<!-- Node22 -->
<g id="node23" class="node">
<title>Node22</title>
<g id="a_node23"><a xlink:href="api_2spec_2packet_8h.html" target="_top" xlink:title="ODP packet descriptor. ">
<polygon fill="#ffffff" stroke="#000000" points="776.5,-548.5 776.5,-567.5 899.5,-567.5 899.5,-548.5 776.5,-548.5"/>
<text text-anchor="middle" x="838" y="-555.5" font-family="Helvetica,sans-Serif" font-size="10.00" fill="#000000">odp/api/spec/packet.h</text>
</a>
</g>
</g>
<!-- Node9&#45;&gt;Node22 -->
<g id="edge28" class="edge">
<title>Node9&#45;&gt;Node22</title>
<path fill="none" stroke="#191970" d="M565.2554,-605.4338C620.9949,-595.74 711.9952,-579.9139 773.3937,-569.2359"/>
<polygon fill="#191970" stroke="#191970" points="774.109,-572.6641 783.3614,-567.5024 772.9096,-565.7676 774.109,-572.6641"/>
</g>
<!-- Node11 -->
<g id="node12" class="node">
<title>Node11</title>
<polygon fill="#ffffff" stroke="#bfbfbf" points="447,-174 447,-193 577,-193 577,-174 447,-174"/>
<text text-anchor="middle" x="512" y="-181" font-family="Helvetica,sans-Serif" font-size="10.00" fill="#000000">odp/api/abi/std_types.h</text>
</g>
<!-- Node10&#45;&gt;Node11 -->
<g id="edge12" class="edge">
<title>Node10&#45;&gt;Node11</title>
<path fill="none" stroke="#191970" d="M439.4375,-235.3906C453.0695,-225.6421 474.3846,-210.3994 490.3922,-198.9521"/>
<polygon fill="#191970" stroke="#191970" points="492.5586,-201.7057 498.6569,-193.0419 488.4868,-196.0118 492.5586,-201.7057"/>
</g>
<!-- Node12 -->
<g id="node13" class="node">
<title>Node12</title>
<g id="a_node13"><a xlink:href="api_2spec_2std__types_8h.html" target="_top" xlink:title="Standard C language types and definitions for ODP. ">
<polygon fill="#ffffff" stroke="#000000" points="291.5,-174 291.5,-193 428.5,-193 428.5,-174 291.5,-174"/>
<text text-anchor="middle" x="360" y="-181" font-family="Helvetica,sans-Serif" font-size="10.00" fill="#000000">odp/api/spec/std_types.h</text>
</a>
</g>
</g>
<!-- Node10&#45;&gt;Node12 -->
<g id="edge13" class="edge">
<title>Node10&#45;&gt;Node12</title>
<path fill="none" stroke="#191970" d="M415.6875,-235.3906C405.5758,-225.9683 389.9558,-211.4134 377.8293,-200.1137"/>
<polygon fill="#191970" stroke="#191970" points="380.1601,-197.5015 370.4579,-193.2449 375.388,-202.6228 380.1601,-197.5015"/>
</g>
<!-- Node12&#45;&gt;Node5 -->
<g id="edge14" class="edge">
<title>Node12&#45;&gt;Node5</title>
<path fill="none" stroke="#191970" d="M389.0745,-173.9368C460.922,-150.6246 652.9177,-90.2728 817,-56 904.5407,-37.7148 1006.8119,-24.6338 1073.3577,-17.2039"/>
<polygon fill="#191970" stroke="#191970" points="1073.7612,-20.6807 1083.3168,-16.1044 1072.993,-13.723 1073.7612,-20.6807"/>
</g>
<!-- Node12&#45;&gt;Node8 -->
<g id="edge21" class="edge">
<title>Node12&#45;&gt;Node8</title>
<path fill="none" stroke="#191970" d="M337.722,-173.8694C292.3418,-152.98 196.7518,-101.7022 237,-56 256.1312,-34.2764 432.8762,-20.0816 531.7667,-13.7691"/>
<polygon fill="#191970" stroke="#191970" points="532.2019,-17.2487 541.9627,-13.1285 531.7629,-10.2625 532.2019,-17.2487"/>
</g>
<!-- Node13 -->
<g id="node14" class="node">
<title>Node13</title>
<polygon fill="#ffffff" stroke="#bfbfbf" points="323.5,-112.5 323.5,-131.5 376.5,-131.5 376.5,-112.5 323.5,-112.5"/>
<text text-anchor="middle" x="350" y="-119.5" font-family="Helvetica,sans-Serif" font-size="10.00" fill="#000000">stdint.h</text>
</g>
<!-- Node12&#45;&gt;Node13 -->
<g id="edge15" class="edge">
<title>Node12&#45;&gt;Node13</title>
<path fill="none" stroke="#191970" d="M358.4375,-173.8906C357.0513,-165.3657 354.982,-152.6392 353.2396,-141.9235"/>
<polygon fill="#191970" stroke="#191970" points="356.6442,-141.0535 351.5845,-131.7449 349.7349,-142.177 356.6442,-141.0535"/>
</g>
<!-- Node14 -->
<g id="node15" class="node">
<title>Node14</title>
<g id="a_node15"><a xlink:href="api_2align_8h.html" target="_top" xlink:title="ODP alignments. ">
<polygon fill="#ffffff" stroke="#000000" points="394.5,-112.5 394.5,-131.5 483.5,-131.5 483.5,-112.5 394.5,-112.5"/>
<text text-anchor="middle" x="439" y="-119.5" font-family="Helvetica,sans-Serif" font-size="10.00" fill="#000000">odp/api/align.h</text>
</a>
</g>
</g>
<!-- Node12&#45;&gt;Node14 -->
<g id="edge16" class="edge">
<title>Node12&#45;&gt;Node14</title>
<path fill="none" stroke="#191970" d="M372.3438,-173.8906C384.7503,-164.2324 404.0843,-149.1812 418.7413,-137.771"/>
<polygon fill="#191970" stroke="#191970" points="421.0021,-140.4466 426.7429,-131.5419 416.7021,-134.923 421.0021,-140.4466"/>
</g>
<!-- Node15 -->
<g id="node16" class="node">
<title>Node15</title>
<polygon fill="#ffffff" stroke="#bfbfbf" points="377.5,-56.5 377.5,-75.5 484.5,-75.5 484.5,-56.5 377.5,-56.5"/>
<text text-anchor="middle" x="431" y="-63.5" font-family="Helvetica,sans-Serif" font-size="10.00" fill="#000000">odp/api/abi/align.h</text>
</g>
<!-- Node14&#45;&gt;Node15 -->
<g id="edge17" class="edge">
<title>Node14&#45;&gt;Node15</title>
<path fill="none" stroke="#191970" d="M437.6065,-112.2455C436.5626,-104.9382 435.0992,-94.6944 433.8149,-85.7046"/>
<polygon fill="#191970" stroke="#191970" points="437.2566,-85.0472 432.3775,-75.6427 430.327,-86.0372 437.2566,-85.0472"/>
</g>
<!-- Node16 -->
<g id="node17" class="node">
<title>Node16</title>
<g id="a_node17"><a xlink:href="api_2spec_2align_8h.html" target="_top" xlink:title="ODP alignments. ">
<polygon fill="#ffffff" stroke="#000000" points="541,-56.5 541,-75.5 655,-75.5 655,-56.5 541,-56.5"/>
<text text-anchor="middle" x="598" y="-63.5" font-family="Helvetica,sans-Serif" font-size="10.00" fill="#000000">odp/api/spec/align.h</text>
</a>
</g>
</g>
<!-- Node14&#45;&gt;Node16 -->
<g id="edge18" class="edge">
<title>Node14&#45;&gt;Node16</title>
<path fill="none" stroke="#191970" d="M466.3331,-112.3733C492.5434,-103.1419 532.2984,-89.1402 561.2668,-78.9375"/>
<polygon fill="#191970" stroke="#191970" points="562.7542,-82.1244 571.0236,-75.5011 560.4288,-75.5219 562.7542,-82.1244"/>
</g>
<!-- Node16&#45;&gt;Node5 -->
<g id="edge19" class="edge">
<title>Node16&#45;&gt;Node5</title>
<path fill="none" stroke="#191970" d="M655.1428,-60.1392C755.6484,-49.8309 963.7579,-28.4864 1073.202,-17.2613"/>
<polygon fill="#191970" stroke="#191970" points="1073.5666,-20.7424 1083.1573,-16.2403 1072.8523,-13.7789 1073.5666,-20.7424"/>
</g>
<!-- Node16&#45;&gt;Node8 -->
<g id="edge20" class="edge">
<title>Node16&#45;&gt;Node8</title>
<path fill="none" stroke="#191970" d="M598,-56.2455C598,-48.9382 598,-38.6944 598,-29.7046"/>
<polygon fill="#191970" stroke="#191970" points="601.5001,-29.6426 598,-19.6427 594.5001,-29.6427 601.5001,-29.6426"/>
</g>
<!-- Node22&#45;&gt;Node5 -->
<g id="edge29" class="edge">
<title>Node22&#45;&gt;Node5</title>
<path fill="none" stroke="#191970" d="M863.8368,-548.397C884.8205,-540.0959 914.7956,-527.0772 939,-512 1122.0153,-397.9978 1296,-399.118 1296,-183.5 1296,-183.5 1296,-183.5 1296,-122 1296,-68.8635 1235.0521,-38.1127 1190.3436,-22.7035"/>
<polygon fill="#191970" stroke="#191970" points="1191.388,-19.3626 1180.795,-19.5566 1189.1969,-26.0108 1191.388,-19.3626"/>
</g>
<!-- Node22&#45;&gt;Node8 -->
<g id="edge63" class="edge">
<title>Node22&#45;&gt;Node8</title>
<path fill="none" stroke="#191970" d="M803.533,-548.444C772.1805,-539.5766 724.7232,-525.7164 684,-512 468.1298,-439.2906 353.1139,-497.5807 208,-322 167.992,-273.5923 180,-246.3009 180,-183.5 180,-183.5 180,-183.5 180,-122 180,-86.7457 193.9926,-74.5046 224,-56 274.0486,-25.1365 438.2194,-14.9358 531.5633,-11.5974"/>
<polygon fill="#191970" stroke="#191970" points="531.8776,-15.0888 541.7526,-11.2502 531.6391,-8.0929 531.8776,-15.0888"/>
</g>
<!-- Node23 -->
<g id="node24" class="node">
<title>Node23</title>
<g id="a_node24"><a xlink:href="api_2proto__stats__types_8h.html" target="_top" xlink:title="ODP proto stats types. ">
<polygon fill="#ffffff" stroke="#000000" points="548,-358.5 548,-388.5 658,-388.5 658,-358.5 548,-358.5"/>
<text text-anchor="start" x="556" y="-376.5" font-family="Helvetica,sans-Serif" font-size="10.00" fill="#000000">odp/api/proto_stats</text>
<text text-anchor="middle" x="603" y="-365.5" font-family="Helvetica,sans-Serif" font-size="10.00" fill="#000000">_types.h</text>
</a>
</g>
</g>
<!-- Node22&#45;&gt;Node23 -->
<g id="edge30" class="edge">
<title>Node22&#45;&gt;Node23</title>
<path fill="none" stroke="#191970" d="M825.6963,-548.3402C789.2863,-519.7546 681.4384,-435.0825 630.3833,-394.9988"/>
<polygon fill="#191970" stroke="#191970" points="632.4336,-392.1587 622.4067,-388.7363 628.1109,-397.6646 632.4336,-392.1587"/>
</g>
<!-- Node26 -->
<g id="node27" class="node">
<title>Node26</title>
<g id="a_node27"><a xlink:href="api_2time_8h.html" target="_top" xlink:title="ODP time. ">
<polygon fill="#ffffff" stroke="#000000" points="217.5,-297 217.5,-316 304.5,-316 304.5,-297 217.5,-297"/>
<text text-anchor="middle" x="261" y="-304" font-family="Helvetica,sans-Serif" font-size="10.00" fill="#000000">odp/api/time.h</text>
</a>
</g>
</g>
<!-- Node22&#45;&gt;Node26 -->
<g id="edge36" class="edge">
<title>Node22&#45;&gt;Node26</title>
<path fill="none" stroke="#191970" d="M816.0855,-548.448C727.5436,-509.8548 396.0174,-365.3507 292.2514,-320.1217"/>
<polygon fill="#191970" stroke="#191970" points="293.5019,-316.8488 282.9364,-316.0615 290.7049,-323.2657 293.5019,-316.8488"/>
</g>
<!-- Node29 -->
<g id="node30" class="node">
<title>Node29</title>
<g id="a_node30"><a xlink:href="api_2packet__types_8h.html" target="_top" xlink:title="ODP packet. ">
<polygon fill="#ffffff" stroke="#000000" points="800,-492.5 800,-511.5 930,-511.5 930,-492.5 800,-492.5"/>
<text text-anchor="middle" x="865" y="-499.5" font-family="Helvetica,sans-Serif" font-size="10.00" fill="#000000">odp/api/packet_types.h</text>
</a>
</g>
</g>
<!-- Node22&#45;&gt;Node29 -->
<g id="edge42" class="edge">
<title>Node22&#45;&gt;Node29</title>
<path fill="none" stroke="#191970" d="M842.703,-548.2455C846.3424,-540.6973 851.4924,-530.0158 855.9262,-520.8197"/>
<polygon fill="#191970" stroke="#191970" points="859.1605,-522.1704 860.3509,-511.6427 852.8551,-519.1303 859.1605,-522.1704"/>
</g>
<!-- Node24 -->
<g id="node25" class="node">
<title>Node24</title>
<polygon fill="#ffffff" stroke="#bfbfbf" points="404,-291.5 404,-321.5 532,-321.5 532,-291.5 404,-291.5"/>
<text text-anchor="start" x="412" y="-309.5" font-family="Helvetica,sans-Serif" font-size="10.00" fill="#000000">odp/api/abi/proto_stats</text>
<text text-anchor="middle" x="468" y="-298.5" font-family="Helvetica,sans-Serif" font-size="10.00" fill="#000000">_types.h</text>
</g>
<!-- Node23&#45;&gt;Node24 -->
<g id="edge31" class="edge">
<title>Node23&#45;&gt;Node24</title>
<path fill="none" stroke="#191970" d="M572.7034,-358.4639C553.5576,-348.9619 528.6047,-336.5779 507.8612,-326.283"/>
<polygon fill="#191970" stroke="#191970" points="509.1761,-323.0282 498.6626,-321.7177 506.0641,-329.2985 509.1761,-323.0282"/>
</g>
<!-- Node25 -->
<g id="node26" class="node">
<title>Node25</title>
<g id="a_node26"><a xlink:href="api_2spec_2proto__stats__types_8h.html" target="_top" xlink:title="ODP proto stats types. ">
<polygon fill="#ffffff" stroke="#000000" points="550.5,-291.5 550.5,-321.5 657.5,-321.5 657.5,-291.5 550.5,-291.5"/>
<text text-anchor="start" x="558.5" y="-309.5" font-family="Helvetica,sans-Serif" font-size="10.00" fill="#000000">odp/api/spec/proto</text>
<text text-anchor="middle" x="604" y="-298.5" font-family="Helvetica,sans-Serif" font-size="10.00" fill="#000000">_stats_types.h</text>
</a>
</g>
</g>
<!-- Node23&#45;&gt;Node25 -->
<g id="edge32" class="edge">
<title>Node23&#45;&gt;Node25</title>
<path fill="none" stroke="#191970" d="M603.2269,-358.2967C603.3433,-350.5013 603.4881,-340.7991 603.6208,-331.9064"/>
<polygon fill="#191970" stroke="#191970" points="607.1243,-331.6943 603.774,-321.6432 600.125,-331.5898 607.1243,-331.6943"/>
</g>
<!-- Node25&#45;&gt;Node5 -->
<g id="edge33" class="edge">
<title>Node25&#45;&gt;Node5</title>
<path fill="none" stroke="#191970" d="M614.4743,-291.2854C635.1406,-262.4878 684.1272,-200.0364 741,-168 817.4531,-124.934 1061.5679,-136.631 1125,-76 1137.5009,-64.0511 1141.9357,-44.458 1143.4316,-29.717"/>
<polygon fill="#191970" stroke="#191970" points="1146.9333,-29.8028 1144.0875,-19.5973 1139.9479,-29.35 1146.9333,-29.8028"/>
</g>
<!-- Node25&#45;&gt;Node8 -->
<g id="edge35" class="edge">
<title>Node25&#45;&gt;Node8</title>
<path fill="none" stroke="#191970" d="M603.9842,-291.0878C603.5251,-265.025 600.6932,-210.8959 586,-168 570.6362,-123.1463 544.4353,-121.7522 532,-76 529.6686,-67.4223 527.887,-63.8801 532,-56 539.1245,-42.3502 552.3523,-31.926 565.1056,-24.4806"/>
<polygon fill="#191970" stroke="#191970" points="567.0647,-27.4012 574.2141,-19.5822 563.7492,-21.2362 567.0647,-27.4012"/>
</g>
<!-- Node25&#45;&gt;Node10 -->
<g id="edge34" class="edge">
<title>Node25&#45;&gt;Node10</title>
<path fill="none" stroke="#191970" d="M560.4563,-291.4554C530.6263,-281.149 491.4834,-267.6249 463.1298,-257.8286"/>
<polygon fill="#191970" stroke="#191970" points="464.1784,-254.4879 453.5837,-254.5303 461.8924,-261.1041 464.1784,-254.4879"/>
</g>
<!-- Node26&#45;&gt;Node10 -->
<g id="edge37" class="edge">
<title>Node26&#45;&gt;Node10</title>
<path fill="none" stroke="#191970" d="M286.7813,-296.8906C314.752,-286.4652 359.5819,-269.7559 390.786,-258.1252"/>
<polygon fill="#191970" stroke="#191970" points="392.2519,-261.3141 400.3998,-254.5419 389.8071,-254.7549 392.2519,-261.3141"/>
</g>
<!-- Node27 -->
<g id="node28" class="node">
<title>Node27</title>
<polygon fill="#ffffff" stroke="#bfbfbf" points="208.5,-235.5 208.5,-254.5 313.5,-254.5 313.5,-235.5 208.5,-235.5"/>
<text text-anchor="middle" x="261" y="-242.5" font-family="Helvetica,sans-Serif" font-size="10.00" fill="#000000">odp/api/abi/time.h</text>
</g>
<!-- Node26&#45;&gt;Node27 -->
<g id="edge38" class="edge">
<title>Node26&#45;&gt;Node27</title>
<path fill="none" stroke="#191970" d="M261,-296.8906C261,-288.3657 261,-275.6392 261,-264.9235"/>
<polygon fill="#191970" stroke="#191970" points="264.5001,-264.7448 261,-254.7449 257.5001,-264.7449 264.5001,-264.7448"/>
</g>
<!-- Node28 -->
<g id="node29" class="node">
<title>Node28</title>
<g id="a_node29"><a xlink:href="api_2spec_2time_8h.html" target="_top" xlink:title="ODP time. ">
<polygon fill="#ffffff" stroke="#000000" points="246.5,-56.5 246.5,-75.5 359.5,-75.5 359.5,-56.5 246.5,-56.5"/>
<text text-anchor="middle" x="303" y="-63.5" font-family="Helvetica,sans-Serif" font-size="10.00" fill="#000000">odp/api/spec/time.h</text>
</a>
</g>
</g>
<!-- Node26&#45;&gt;Node28 -->
<g id="edge39" class="edge">
<title>Node26&#45;&gt;Node28</title>
<path fill="none" stroke="#191970" d="M279.5023,-296.8461C294.0636,-288.1028 313.3007,-273.7295 322,-255 325.7444,-246.9383 325.6163,-243.12 322,-235 312.2694,-213.1513 291.7306,-220.8487 282,-199 265.1242,-161.1078 281.7327,-111.8453 293.5144,-85.1803"/>
<polygon fill="#191970" stroke="#191970" points="296.817,-86.3788 297.8615,-75.8356 290.4702,-83.4263 296.817,-86.3788"/>
</g>
<!-- Node28&#45;&gt;Node5 -->
<g id="edge40" class="edge">
<title>Node28&#45;&gt;Node5</title>
<path fill="none" stroke="#191970" d="M359.6796,-56.961C362.4899,-56.613 365.2752,-56.2897 368,-56 626.9736,-28.4641 936.4527,-16.3034 1073.1429,-11.9846"/>
<polygon fill="#191970" stroke="#191970" points="1073.5841,-15.4727 1083.4703,-11.6629 1073.3661,-8.4761 1073.5841,-15.4727"/>
</g>
<!-- Node28&#45;&gt;Node8 -->
<g id="edge41" class="edge">
<title>Node28&#45;&gt;Node8</title>
<path fill="none" stroke="#191970" d="M353.3771,-56.4369C404.5005,-46.7321 483.6455,-31.708 537.9853,-21.3926"/>
<polygon fill="#191970" stroke="#191970" points="538.6589,-24.8273 547.8307,-19.5237 537.3533,-17.9502 538.6589,-24.8273"/>
</g>
<!-- Node29&#45;&gt;Node18 -->
<g id="edge43" class="edge">
<title>Node29&#45;&gt;Node18</title>
<path fill="none" stroke="#191970" d="M913.2525,-492.4581C966.7985,-481.8694 1053.4243,-464.7392 1112.4563,-453.0657"/>
<polygon fill="#191970" stroke="#191970" points="1113.2817,-456.4703 1122.4128,-451.0968 1111.9237,-449.6033 1113.2817,-456.4703"/>
</g>
<!-- Node30 -->
<g id="node31" class="node">
<title>Node30</title>
<g id="a_node31"><a xlink:href="api_2spec_2packet__types_8h.html" target="_top" xlink:title="ODP packet types. ">
<polygon fill="#ffffff" stroke="#000000" points="808,-425.5 808,-455.5 922,-455.5 922,-425.5 808,-425.5"/>
<text text-anchor="start" x="816" y="-443.5" font-family="Helvetica,sans-Serif" font-size="10.00" fill="#000000">odp/api/spec/packet</text>
<text text-anchor="middle" x="865" y="-432.5" font-family="Helvetica,sans-Serif" font-size="10.00" fill="#000000">_types.h</text>
</a>
</g>
</g>
<!-- Node29&#45;&gt;Node30 -->
<g id="edge44" class="edge">
<title>Node29&#45;&gt;Node30</title>
<path fill="none" stroke="#191970" d="M865,-492.3906C865,-485.2234 865,-475.0862 865,-465.671"/>
<polygon fill="#191970" stroke="#191970" points="868.5001,-465.5446 865,-455.5446 861.5001,-465.5446 868.5001,-465.5446"/>
</g>
<!-- Node30&#45;&gt;Node5 -->
<g id="edge45" class="edge">
<title>Node30&#45;&gt;Node5</title>
<path fill="none" stroke="#191970" d="M922.2254,-431.0952C985.2083,-417.7611 1085.1706,-387.2979 1143,-322 1223.1604,-231.4871 1251.6695,-165.3093 1200,-56 1193.9754,-43.2547 1182.4968,-32.8542 1171.4926,-25.1874"/>
<polygon fill="#191970" stroke="#191970" points="1173.1828,-22.1127 1162.8824,-19.6324 1169.3879,-27.9948 1173.1828,-22.1127"/>
</g>
<!-- Node30&#45;&gt;Node8 -->
<g id="edge62" class="edge">
<title>Node30&#45;&gt;Node8</title>
<path fill="none" stroke="#191970" d="M843.7661,-425.4949C795.7565,-389.6289 683,-293.6664 683,-183.5 683,-183.5 683,-183.5 683,-122 683,-91.4754 681.7658,-80.822 664,-56 654.7115,-43.0223 640.5658,-32.4653 627.7494,-24.7535"/>
<polygon fill="#191970" stroke="#191970" points="629.1661,-21.5334 618.7405,-19.6471 625.7142,-27.6232 629.1661,-21.5334"/>
</g>
<!-- Node30&#45;&gt;Node23 -->
<g id="edge46" class="edge">
<title>Node30&#45;&gt;Node23</title>
<path fill="none" stroke="#191970" d="M807.8267,-425.8794C766.6191,-415.3415 710.9407,-401.1032 668.036,-390.1313"/>
<polygon fill="#191970" stroke="#191970" points="668.8106,-386.7169 658.2552,-387.6301 667.0763,-393.4986 668.8106,-386.7169"/>
</g>
<!-- Node31 -->
<g id="node32" class="node">
<title>Node31</title>
<g id="a_node32"><a xlink:href="api_2queue__types_8h.html" target="_top" xlink:title="ODP queue. ">
<polygon fill="#ffffff" stroke="#000000" points="829.5,-364 829.5,-383 956.5,-383 956.5,-364 829.5,-364"/>
<text text-anchor="middle" x="893" y="-371" font-family="Helvetica,sans-Serif" font-size="10.00" fill="#000000">odp/api/queue_types.h</text>
</a>
</g>
</g>
<!-- Node30&#45;&gt;Node31 -->
<g id="edge47" class="edge">
<title>Node30&#45;&gt;Node31</title>
<path fill="none" stroke="#191970" d="M871.3536,-425.2967C875.4197,-415.5672 880.727,-402.8675 885.0687,-392.4784"/>
<polygon fill="#191970" stroke="#191970" points="888.3802,-393.6313 889.0069,-383.055 881.9215,-390.9321 888.3802,-393.6313"/>
</g>
<!-- Node31&#45;&gt;Node3 -->
<g id="edge48" class="edge">
<title>Node31&#45;&gt;Node3</title>
<path fill="none" stroke="#191970" d="M917.0703,-363.9005C946.013,-352.3579 994.7621,-332.9163 1027.4017,-319.8993"/>
<polygon fill="#191970" stroke="#191970" points="1028.9823,-323.0371 1036.9743,-316.0817 1026.3892,-316.5351 1028.9823,-323.0371"/>
</g>
<!-- Node32 -->
<g id="node33" class="node">
<title>Node32</title>
<g id="a_node33"><a xlink:href="api_2spec_2queue__types_8h.html" target="_top" xlink:title="ODP queue types. ">
<polygon fill="#ffffff" stroke="#000000" points="837.5,-291.5 837.5,-321.5 948.5,-321.5 948.5,-291.5 837.5,-291.5"/>
<text text-anchor="start" x="845.5" y="-309.5" font-family="Helvetica,sans-Serif" font-size="10.00" fill="#000000">odp/api/spec/queue</text>
<text text-anchor="middle" x="893" y="-298.5" font-family="Helvetica,sans-Serif" font-size="10.00" fill="#000000">_types.h</text>
</a>
</g>
</g>
<!-- Node31&#45;&gt;Node32 -->
<g id="edge49" class="edge">
<title>Node31&#45;&gt;Node32</title>
<path fill="none" stroke="#191970" d="M893,-363.9005C893,-355.5099 893,-342.9451 893,-331.7085"/>
<polygon fill="#191970" stroke="#191970" points="896.5001,-331.5217 893,-321.5218 889.5001,-331.5218 896.5001,-331.5217"/>
</g>
<!-- Node32&#45;&gt;Node5 -->
<g id="edge50" class="edge">
<title>Node32&#45;&gt;Node5</title>
<path fill="none" stroke="#191970" d="M948.7326,-295.3975C1007.7475,-283.2777 1094.1637,-264.3532 1107,-255 1158.7476,-217.294 1163.5911,-193.3243 1182,-132 1191.715,-99.6372 1195.8358,-87.6487 1184,-56 1179.8851,-44.9969 1171.8185,-34.8874 1164.0006,-26.9652"/>
<polygon fill="#191970" stroke="#191970" points="1166.0985,-24.1329 1156.4212,-19.82 1161.2968,-29.2264 1166.0985,-24.1329"/>
</g>
<!-- Node32&#45;&gt;Node8 -->
<g id="edge61" class="edge">
<title>Node32&#45;&gt;Node8</title>
<path fill="none" stroke="#191970" d="M837.1565,-291.886C786.9336,-274.9721 721,-241.6867 721,-183.5 721,-183.5 721,-183.5 721,-122 721,-90.7875 718.0992,-79.001 697,-56 683.0355,-40.7768 663.015,-30.1778 644.6271,-23.025"/>
<polygon fill="#191970" stroke="#191970" points="645.795,-19.7255 635.201,-19.5924 643.3998,-26.303 645.795,-19.7255"/>
</g>
<!-- Node33 -->
<g id="node34" class="node">
<title>Node33</title>
<g id="a_node34"><a xlink:href="api_2schedule__types_8h.html" target="_top" xlink:title="ODP schedule. ">
<polygon fill="#ffffff" stroke="#000000" points="820,-235.5 820,-254.5 960,-254.5 960,-235.5 820,-235.5"/>
<text text-anchor="middle" x="890" y="-242.5" font-family="Helvetica,sans-Serif" font-size="10.00" fill="#000000">odp/api/schedule_types.h</text>
</a>
</g>
</g>
<!-- Node32&#45;&gt;Node33 -->
<g id="edge51" class="edge">
<title>Node32&#45;&gt;Node33</title>
<path fill="none" stroke="#191970" d="M892.2584,-291.2977C891.8724,-283.3834 891.3953,-273.6043 890.9793,-265.0759"/>
<polygon fill="#191970" stroke="#191970" points="894.4635,-264.6645 890.4803,-254.8469 887.4718,-265.0056 894.4635,-264.6645"/>
</g>
<!-- Node36 -->
<g id="node37" class="node">
<title>Node36</title>
<g id="a_node37"><a xlink:href="deprecated_8h.html" target="_top" xlink:title="Control deprecated API definitions. ">
<polygon fill="#ffffff" stroke="#000000" points="978.5,-235.5 978.5,-254.5 1097.5,-254.5 1097.5,-235.5 978.5,-235.5"/>
<text text-anchor="middle" x="1038" y="-242.5" font-family="Helvetica,sans-Serif" font-size="10.00" fill="#000000">odp/api/deprecated.h</text>
</a>
</g>
</g>
<!-- Node32&#45;&gt;Node36 -->
<g id="edge57" class="edge">
<title>Node32&#45;&gt;Node36</title>
<path fill="none" stroke="#191970" d="M928.471,-291.4554C952.2402,-281.374 983.268,-268.2139 1006.2285,-258.4755"/>
<polygon fill="#191970" stroke="#191970" points="1007.6906,-261.6572 1015.5301,-254.5303 1004.9573,-255.2129 1007.6906,-261.6572"/>
</g>
<!-- Node34 -->
<g id="node35" class="node">
<title>Node34</title>
<polygon fill="#ffffff" stroke="#bfbfbf" points="892.5,-168.5 892.5,-198.5 1009.5,-198.5 1009.5,-168.5 892.5,-168.5"/>
<text text-anchor="start" x="900.5" y="-186.5" font-family="Helvetica,sans-Serif" font-size="10.00" fill="#000000">odp/api/abi/schedule</text>
<text text-anchor="middle" x="951" y="-175.5" font-family="Helvetica,sans-Serif" font-size="10.00" fill="#000000">_types.h</text>
</g>
<!-- Node33&#45;&gt;Node34 -->
<g id="edge52" class="edge">
<title>Node33&#45;&gt;Node34</title>
<path fill="none" stroke="#191970" d="M899.5313,-235.3906C907.4047,-227.4527 918.8913,-215.8718 929.0167,-205.6635"/>
<polygon fill="#191970" stroke="#191970" points="931.5205,-208.1093 936.0777,-198.5446 926.5506,-203.1797 931.5205,-208.1093"/>
</g>
<!-- Node35 -->
<g id="node36" class="node">
<title>Node35</title>
<g id="a_node36"><a xlink:href="api_2spec_2schedule__types_8h.html" target="_top" xlink:title="ODP schedule types. ">
<polygon fill="#ffffff" stroke="#000000" points="749.5,-168.5 749.5,-198.5 874.5,-198.5 874.5,-168.5 749.5,-168.5"/>
<text text-anchor="start" x="757.5" y="-186.5" font-family="Helvetica,sans-Serif" font-size="10.00" fill="#000000">odp/api/spec/schedule</text>
<text text-anchor="middle" x="812" y="-175.5" font-family="Helvetica,sans-Serif" font-size="10.00" fill="#000000">_types.h</text>
</a>
</g>
</g>
<!-- Node33&#45;&gt;Node35 -->
<g id="edge53" class="edge">
<title>Node33&#45;&gt;Node35</title>
<path fill="none" stroke="#191970" d="M877.8125,-235.3906C867.4516,-227.2215 852.1974,-215.1941 838.9831,-204.7752"/>
<polygon fill="#191970" stroke="#191970" points="841.1007,-201.9877 831.0809,-198.5446 836.7666,-207.4846 841.1007,-201.9877"/>
</g>
<!-- Node35&#45;&gt;Node5 -->
<g id="edge54" class="edge">
<title>Node35&#45;&gt;Node5</title>
<path fill="none" stroke="#191970" d="M874.7685,-169.6637C877.8855,-169.0782 880.9756,-168.5197 884,-168 945.6109,-157.4125 1121.7211,-178.9474 1163,-132 1188.353,-103.1655 1168.9268,-54.9559 1154.9718,-28.5996"/>
<polygon fill="#191970" stroke="#191970" points="1157.9158,-26.692 1149.9961,-19.6543 1151.7985,-30.0947 1157.9158,-26.692"/>
</g>
<!-- Node35&#45;&gt;Node6 -->
<g id="edge55" class="edge">
<title>Node35&#45;&gt;Node6</title>
<path fill="none" stroke="#191970" d="M874.8247,-169.9559C877.9268,-169.2932 880.9984,-168.6383 884,-168 939.526,-156.1918 1003.0129,-142.8772 1047.2835,-133.6228"/>
<polygon fill="#191970" stroke="#191970" points="1048.1936,-137.0083 1057.2662,-131.5367 1046.7617,-130.1563 1048.1936,-137.0083"/>
</g>
<!-- Node35&#45;&gt;Node8 -->
<g id="edge56" class="edge">
<title>Node35&#45;&gt;Node8</title>
<path fill="none" stroke="#191970" d="M806.7741,-168.1528C796.9302,-141.4956 773.1338,-86.5682 735,-56 714.6111,-39.6562 688.1363,-28.9971 663.9024,-22.1025"/>
<polygon fill="#191970" stroke="#191970" points="664.5999,-18.6661 654.035,-19.4621 662.7904,-25.4282 664.5999,-18.6661"/>
</g>
<!-- Node37 -->
<g id="node38" class="node">
<title>Node37</title>
<g id="a_node38"><a xlink:href="spec_2deprecated_8h.html" target="_top" xlink:title="Macro for deprecated API definitions. ">
<polygon fill="#ffffff" stroke="#000000" points="825.5,-56.5 825.5,-75.5 970.5,-75.5 970.5,-56.5 825.5,-56.5"/>
<text text-anchor="middle" x="898" y="-63.5" font-family="Helvetica,sans-Serif" font-size="10.00" fill="#000000">odp/api/spec/deprecated.h</text>
</a>
</g>
</g>
<!-- Node36&#45;&gt;Node37 -->
<g id="edge58" class="edge">
<title>Node36&#45;&gt;Node37</title>
<path fill="none" stroke="#191970" d="M1037.5106,-235.2597C1036.3389,-219.8815 1032.375,-189.5167 1019,-168 995.1521,-129.6352 952.0269,-98.4769 924.2225,-81.093"/>
<polygon fill="#191970" stroke="#191970" points="925.7912,-77.9503 915.4306,-75.7352 922.1485,-83.9278 925.7912,-77.9503"/>
</g>
<!-- Node37&#45;&gt;Node5 -->
<g id="edge59" class="edge">
<title>Node37&#45;&gt;Node5</title>
<path fill="none" stroke="#191970" d="M940.0094,-56.4369C982.1104,-46.8529 1047.0005,-32.0812 1092.2521,-21.78"/>
<polygon fill="#191970" stroke="#191970" points="1093.1902,-25.1561 1102.1639,-19.5237 1091.6364,-18.3307 1093.1902,-25.1561"/>
</g>
<!-- Node37&#45;&gt;Node8 -->
<g id="edge60" class="edge">
<title>Node37&#45;&gt;Node8</title>
<path fill="none" stroke="#191970" d="M846.769,-56.4369C794.7792,-46.7321 714.2927,-31.708 659.0319,-21.3926"/>
<polygon fill="#191970" stroke="#191970" points="659.4921,-17.9182 649.0197,-19.5237 658.2076,-24.7993 659.4921,-17.9182"/>
</g>
</g>
</svg>
