<?xml version="1.0" encoding="UTF-8" standalone="no"?>
<!DOCTYPE svg PUBLIC "-//W3C//DTD SVG 1.1//EN"
 "http://www.w3.org/Graphics/SVG/1.1/DTD/svg11.dtd">
<!-- Generated by graphviz version 2.40.1 (20161225.0304)
 -->
<!-- Title: align.h Pages: 1 -->
<svg width="2175pt" height="588pt"
 viewBox="0.00 0.00 2174.50 588.00" xmlns="http://www.w3.org/2000/svg" xmlns:xlink="http://www.w3.org/1999/xlink">
<g id="graph0" class="graph" transform="scale(1 1) rotate(0) translate(4 584)">
<title>align.h</title>
<polygon fill="#ffffff" stroke="transparent" points="-4,4 -4,-584 2170.5,-584 2170.5,4 -4,4"/>
<!-- Node2 -->
<g id="node1" class="node">
<title>Node2</title>
<polygon fill="#bfbfbf" stroke="#000000" points="1079.5,-560.5 1079.5,-579.5 1129.5,-579.5 1129.5,-560.5 1079.5,-560.5"/>
<text text-anchor="middle" x="1104.5" y="-567.5" font-family="Helvetica,sans-Serif" font-size="10.00" fill="#000000">align.h</text>
</g>
<!-- Node3 -->
<g id="node2" class="node">
<title>Node3</title>
<g id="a_node2"><a xlink:href="arch_2arm32-linux_2odp_2api_2abi_2align_8h_source.html" target="_top" xlink:title="align.h">
<polygon fill="#ffffff" stroke="#000000" points="875.5,-504.5 875.5,-523.5 925.5,-523.5 925.5,-504.5 875.5,-504.5"/>
<text text-anchor="middle" x="900.5" y="-511.5" font-family="Helvetica,sans-Serif" font-size="10.00" fill="#000000">align.h</text>
</a>
</g>
</g>
<!-- Node2&#45;&gt;Node3 -->
<g id="edge1" class="edge">
<title>Node2&#45;&gt;Node3</title>
<path fill="none" stroke="#191970" d="M1069.3669,-560.7327C1034.9476,-551.5972 981.0331,-537.1371 934.5,-524 931.6578,-523.1976 928.686,-522.3445 925.7333,-521.488"/>
<polygon fill="#191970" stroke="#191970" points="1068.8303,-564.2112 1079.3932,-563.3895 1070.6234,-557.4447 1068.8303,-564.2112"/>
</g>
<!-- Node4 -->
<g id="node3" class="node">
<title>Node4</title>
<g id="a_node3"><a xlink:href="arch_2arm64-linux_2odp_2api_2abi_2align_8h_source.html" target="_top" xlink:title="align.h">
<polygon fill="#ffffff" stroke="#000000" points="943.5,-504.5 943.5,-523.5 993.5,-523.5 993.5,-504.5 943.5,-504.5"/>
<text text-anchor="middle" x="968.5" y="-511.5" font-family="Helvetica,sans-Serif" font-size="10.00" fill="#000000">align.h</text>
</a>
</g>
</g>
<!-- Node2&#45;&gt;Node4 -->
<g id="edge2" class="edge">
<title>Node2&#45;&gt;Node4</title>
<path fill="none" stroke="#191970" d="M1071.7601,-556.5189C1046.9917,-546.3201 1013.595,-532.5685 991.5742,-523.5011"/>
<polygon fill="#191970" stroke="#191970" points="1070.5413,-559.8021 1081.1208,-560.3733 1073.2066,-553.3293 1070.5413,-559.8021"/>
</g>
<!-- Node5 -->
<g id="node4" class="node">
<title>Node5</title>
<g id="a_node4"><a xlink:href="arch_2default-linux_2odp_2api_2abi_2align_8h_source.html" target="_top" xlink:title="align.h">
<polygon fill="#ffffff" stroke="#000000" points="1011.5,-504.5 1011.5,-523.5 1061.5,-523.5 1061.5,-504.5 1011.5,-504.5"/>
<text text-anchor="middle" x="1036.5" y="-511.5" font-family="Helvetica,sans-Serif" font-size="10.00" fill="#000000">align.h</text>
</a>
</g>
</g>
<!-- Node2&#45;&gt;Node5 -->
<g id="edge3" class="edge">
<title>Node2&#45;&gt;Node5</title>
<path fill="none" stroke="#191970" d="M1084.6404,-553.645C1072.8142,-543.9058 1058.2108,-531.8795 1048.209,-523.6427"/>
<polygon fill="#191970" stroke="#191970" points="1082.711,-556.5902 1092.6553,-560.2455 1087.161,-551.1867 1082.711,-556.5902"/>
</g>
<!-- Node6 -->
<g id="node5" class="node">
<title>Node6</title>
<g id="a_node5"><a xlink:href="arch_2mips64-linux_2odp_2api_2abi_2align_8h_source.html" target="_top" xlink:title="align.h">
<polygon fill="#ffffff" stroke="#000000" points="1079.5,-504.5 1079.5,-523.5 1129.5,-523.5 1129.5,-504.5 1079.5,-504.5"/>
<text text-anchor="middle" x="1104.5" y="-511.5" font-family="Helvetica,sans-Serif" font-size="10.00" fill="#000000">align.h</text>
</a>
</g>
</g>
<!-- Node2&#45;&gt;Node6 -->
<g id="edge4" class="edge">
<title>Node2&#45;&gt;Node6</title>
<path fill="none" stroke="#191970" d="M1104.5,-550.1575C1104.5,-541.155 1104.5,-530.9199 1104.5,-523.6427"/>
<polygon fill="#191970" stroke="#191970" points="1101.0001,-550.2455 1104.5,-560.2455 1108.0001,-550.2456 1101.0001,-550.2455"/>
</g>
<!-- Node7 -->
<g id="node6" class="node">
<title>Node7</title>
<g id="a_node6"><a xlink:href="arch_2power64-linux_2odp_2api_2abi_2align_8h_source.html" target="_top" xlink:title="align.h">
<polygon fill="#ffffff" stroke="#000000" points="1147.5,-504.5 1147.5,-523.5 1197.5,-523.5 1197.5,-504.5 1147.5,-504.5"/>
<text text-anchor="middle" x="1172.5" y="-511.5" font-family="Helvetica,sans-Serif" font-size="10.00" fill="#000000">align.h</text>
</a>
</g>
</g>
<!-- Node2&#45;&gt;Node7 -->
<g id="edge5" class="edge">
<title>Node2&#45;&gt;Node7</title>
<path fill="none" stroke="#191970" d="M1124.3596,-553.645C1136.1858,-543.9058 1150.7892,-531.8795 1160.791,-523.6427"/>
<polygon fill="#191970" stroke="#191970" points="1121.839,-551.1867 1116.3447,-560.2455 1126.289,-556.5902 1121.839,-551.1867"/>
</g>
<!-- Node8 -->
<g id="node7" class="node">
<title>Node8</title>
<g id="a_node7"><a xlink:href="arch_2x86__32-linux_2odp_2api_2abi_2align_8h_source.html" target="_top" xlink:title="align.h">
<polygon fill="#ffffff" stroke="#000000" points="1215.5,-504.5 1215.5,-523.5 1265.5,-523.5 1265.5,-504.5 1215.5,-504.5"/>
<text text-anchor="middle" x="1240.5" y="-511.5" font-family="Helvetica,sans-Serif" font-size="10.00" fill="#000000">align.h</text>
</a>
</g>
</g>
<!-- Node2&#45;&gt;Node8 -->
<g id="edge6" class="edge">
<title>Node2&#45;&gt;Node8</title>
<path fill="none" stroke="#191970" d="M1137.2399,-556.5189C1162.0083,-546.3201 1195.405,-532.5685 1217.4258,-523.5011"/>
<polygon fill="#191970" stroke="#191970" points="1135.7934,-553.3293 1127.8792,-560.3733 1138.4587,-559.8021 1135.7934,-553.3293"/>
</g>
<!-- Node9 -->
<g id="node8" class="node">
<title>Node9</title>
<g id="a_node8"><a xlink:href="arch_2x86__64-linux_2odp_2api_2abi_2align_8h_source.html" target="_top" xlink:title="align.h">
<polygon fill="#ffffff" stroke="#000000" points="1283.5,-504.5 1283.5,-523.5 1333.5,-523.5 1333.5,-504.5 1283.5,-504.5"/>
<text text-anchor="middle" x="1308.5" y="-511.5" font-family="Helvetica,sans-Serif" font-size="10.00" fill="#000000">align.h</text>
</a>
</g>
</g>
<!-- Node2&#45;&gt;Node9 -->
<g id="edge7" class="edge">
<title>Node2&#45;&gt;Node9</title>
<path fill="none" stroke="#191970" d="M1139.6331,-560.7327C1174.0524,-551.5972 1227.9669,-537.1371 1274.5,-524 1277.3422,-523.1976 1280.314,-522.3445 1283.2667,-521.488"/>
<polygon fill="#191970" stroke="#191970" points="1138.3766,-557.4447 1129.6068,-563.3895 1140.1697,-564.2112 1138.3766,-557.4447"/>
</g>
<!-- Node10 -->
<g id="node9" class="node">
<title>Node10</title>
<g id="a_node9"><a xlink:href="api_2align_8h.html" target="_top" xlink:title="ODP alignments. ">
<polygon fill="#ffffff" stroke="#000000" points="1283.5,-448.5 1283.5,-467.5 1333.5,-467.5 1333.5,-448.5 1283.5,-448.5"/>
<text text-anchor="middle" x="1308.5" y="-455.5" font-family="Helvetica,sans-Serif" font-size="10.00" fill="#000000">align.h</text>
</a>
</g>
</g>
<!-- Node9&#45;&gt;Node10 -->
<g id="edge8" class="edge">
<title>Node9&#45;&gt;Node10</title>
<path fill="none" stroke="#191970" d="M1308.5,-494.1575C1308.5,-485.155 1308.5,-474.9199 1308.5,-467.6427"/>
<polygon fill="#191970" stroke="#191970" points="1305.0001,-494.2455 1308.5,-504.2455 1312.0001,-494.2456 1305.0001,-494.2455"/>
</g>
<!-- Node11 -->
<g id="node10" class="node">
<title>Node11</title>
<g id="a_node10"><a xlink:href="api_2abi-default_2atomic_8h.html" target="_top" xlink:title="ODP atomic operations. ">
<polygon fill="#ffffff" stroke="#000000" points="269,-280.5 269,-299.5 328,-299.5 328,-280.5 269,-280.5"/>
<text text-anchor="middle" x="298.5" y="-287.5" font-family="Helvetica,sans-Serif" font-size="10.00" fill="#000000">atomic.h</text>
</a>
</g>
</g>
<!-- Node10&#45;&gt;Node11 -->
<g id="edge9" class="edge">
<title>Node10&#45;&gt;Node11</title>
<path fill="none" stroke="#191970" d="M1273.1453,-453.018C1146.5713,-435.012 704.3093,-370.6346 342.5,-300 337.8869,-299.0994 333.0192,-298.0716 328.2696,-297.0258"/>
<polygon fill="#191970" stroke="#191970" points="1273.0056,-456.5332 1283.3982,-454.4732 1273.9893,-449.6026 1273.0056,-456.5332"/>
</g>
<!-- Node29 -->
<g id="node21" class="node">
<title>Node29</title>
<g id="a_node21"><a xlink:href="odp__api_8h.html" target="_top" xlink:title="The OpenDataPlane API. ">
<polygon fill="#ffffff" stroke="#000000" points="1276.5,-56.5 1276.5,-75.5 1340.5,-75.5 1340.5,-56.5 1276.5,-56.5"/>
<text text-anchor="middle" x="1308.5" y="-63.5" font-family="Helvetica,sans-Serif" font-size="10.00" fill="#000000">odp_api.h</text>
</a>
</g>
</g>
<!-- Node10&#45;&gt;Node29 -->
<g id="edge64" class="edge">
<title>Node10&#45;&gt;Node29</title>
<path fill="none" stroke="#191970" d="M1344.0806,-457.1648C1506.1311,-452.8999 2166.5,-430.3458 2166.5,-346 2166.5,-346 2166.5,-346 2166.5,-178 2166.5,-93.0306 1496.3307,-70.77 1340.5687,-66.7436"/>
<polygon fill="#191970" stroke="#191970" points="1343.6207,-453.6753 1333.7136,-457.4303 1343.8,-460.673 1343.6207,-453.6753"/>
</g>
<!-- Node58 -->
<g id="node23" class="node">
<title>Node58</title>
<g id="a_node23"><a xlink:href="api_2abi-default_2cpumask_8h.html" target="_top" xlink:title="ODP CPU masks and enumeration. ">
<polygon fill="#ffffff" stroke="#000000" points="1716.5,-280.5 1716.5,-299.5 1786.5,-299.5 1786.5,-280.5 1716.5,-280.5"/>
<text text-anchor="middle" x="1751.5" y="-287.5" font-family="Helvetica,sans-Serif" font-size="10.00" fill="#000000">cpumask.h</text>
</a>
</g>
</g>
<!-- Node10&#45;&gt;Node58 -->
<g id="edge23" class="edge">
<title>Node10&#45;&gt;Node58</title>
<path fill="none" stroke="#191970" d="M1343.1606,-444.8556C1429.2951,-412.1906 1651.5009,-327.9229 1726.4144,-299.5133"/>
<polygon fill="#191970" stroke="#191970" points="1341.696,-441.6677 1333.5869,-448.4862 1344.1782,-448.2128 1341.696,-441.6677"/>
</g>
<!-- Node82 -->
<g id="node32" class="node">
<title>Node82</title>
<g id="a_node32"><a xlink:href="api_2spec_2std__types_8h.html" target="_top" xlink:title="Standard C language types and definitions for ODP. ">
<polygon fill="#ffffff" stroke="#000000" points="1240,-392.5 1240,-411.5 1313,-411.5 1313,-392.5 1240,-392.5"/>
<text text-anchor="middle" x="1276.5" y="-399.5" font-family="Helvetica,sans-Serif" font-size="10.00" fill="#000000">std_types.h</text>
</a>
</g>
</g>
<!-- Node10&#45;&gt;Node82 -->
<g id="edge33" class="edge">
<title>Node10&#45;&gt;Node82</title>
<path fill="none" stroke="#191970" d="M1297.8355,-439.3372C1292.5346,-430.0605 1286.3513,-419.2398 1282.0101,-411.6427"/>
<polygon fill="#191970" stroke="#191970" points="1294.9257,-441.2996 1302.926,-448.2455 1301.0034,-437.8266 1294.9257,-441.2996"/>
</g>
<!-- Node12 -->
<g id="node11" class="node">
<title>Node12</title>
<g id="a_node11"><a xlink:href="arch_2arm32-linux_2odp_2api_2abi_2atomic_8h_source.html" target="_top" xlink:title="atomic.h">
<polygon fill="#ffffff" stroke="#000000" points="308,-224.5 308,-243.5 367,-243.5 367,-224.5 308,-224.5"/>
<text text-anchor="middle" x="337.5" y="-231.5" font-family="Helvetica,sans-Serif" font-size="10.00" fill="#000000">atomic.h</text>
</a>
</g>
</g>
<!-- Node11&#45;&gt;Node12 -->
<g id="edge10" class="edge">
<title>Node11&#45;&gt;Node12</title>
<path fill="none" stroke="#191970" d="M311.0908,-271.9209C317.6395,-262.5176 325.3824,-251.3997 330.7846,-243.6427"/>
<polygon fill="#191970" stroke="#191970" points="308.1361,-270.0392 305.2933,-280.2455 313.8804,-274.0397 308.1361,-270.0392"/>
</g>
<!-- Node13 -->
<g id="node12" class="node">
<title>Node13</title>
<g id="a_node12"><a xlink:href="arch_2arm64-linux_2odp_2api_2abi_2atomic_8h_source.html" target="_top" xlink:title="atomic.h">
<polygon fill="#ffffff" stroke="#000000" points="385,-224.5 385,-243.5 444,-243.5 444,-224.5 385,-224.5"/>
<text text-anchor="middle" x="414.5" y="-231.5" font-family="Helvetica,sans-Serif" font-size="10.00" fill="#000000">atomic.h</text>
</a>
</g>
</g>
<!-- Node11&#45;&gt;Node13 -->
<g id="edge11" class="edge">
<title>Node11&#45;&gt;Node13</title>
<path fill="none" stroke="#191970" d="M327.5537,-275.9741C348.5565,-265.8348 376.3691,-252.408 394.8191,-243.5011"/>
<polygon fill="#191970" stroke="#191970" points="325.925,-272.8738 318.4411,-280.3733 328.9683,-279.1776 325.925,-272.8738"/>
</g>
<!-- Node14 -->
<g id="node13" class="node">
<title>Node14</title>
<g id="a_node13"><a xlink:href="arch_2default-linux_2odp_2api_2abi_2atomic_8h_source.html" target="_top" xlink:title="atomic.h">
<polygon fill="#ffffff" stroke="#000000" points="0,-224.5 0,-243.5 59,-243.5 59,-224.5 0,-224.5"/>
<text text-anchor="middle" x="29.5" y="-231.5" font-family="Helvetica,sans-Serif" font-size="10.00" fill="#000000">atomic.h</text>
</a>
</g>
</g>
<!-- Node11&#45;&gt;Node14 -->
<g id="edge12" class="edge">
<title>Node11&#45;&gt;Node14</title>
<path fill="none" stroke="#191970" d="M258.9489,-282.8807C212.8231,-274.4031 134.3601,-259.4394 67.5,-244 64.8412,-243.386 62.0856,-242.7198 59.3283,-242.0326"/>
<polygon fill="#191970" stroke="#191970" points="258.3739,-286.3335 268.8406,-284.6903 259.6337,-279.4478 258.3739,-286.3335"/>
</g>
<!-- Node15 -->
<g id="node14" class="node">
<title>Node15</title>
<g id="a_node14"><a xlink:href="arch_2mips64-linux_2odp_2api_2abi_2atomic_8h_source.html" target="_top" xlink:title="atomic.h">
<polygon fill="#ffffff" stroke="#000000" points="77,-224.5 77,-243.5 136,-243.5 136,-224.5 77,-224.5"/>
<text text-anchor="middle" x="106.5" y="-231.5" font-family="Helvetica,sans-Serif" font-size="10.00" fill="#000000">atomic.h</text>
</a>
</g>
</g>
<!-- Node11&#45;&gt;Node15 -->
<g id="edge13" class="edge">
<title>Node11&#45;&gt;Node15</title>
<path fill="none" stroke="#191970" d="M259.106,-278.5101C222.6005,-267.8626 169.1065,-252.2602 136.1128,-242.6371"/>
<polygon fill="#191970" stroke="#191970" points="258.3407,-281.9327 268.9208,-281.3727 260.3008,-275.2127 258.3407,-281.9327"/>
</g>
<!-- Node16 -->
<g id="node15" class="node">
<title>Node16</title>
<g id="a_node15"><a xlink:href="arch_2power64-linux_2odp_2api_2abi_2atomic_8h_source.html" target="_top" xlink:title="atomic.h">
<polygon fill="#ffffff" stroke="#000000" points="154,-224.5 154,-243.5 213,-243.5 213,-224.5 154,-224.5"/>
<text text-anchor="middle" x="183.5" y="-231.5" font-family="Helvetica,sans-Serif" font-size="10.00" fill="#000000">atomic.h</text>
</a>
</g>
</g>
<!-- Node11&#45;&gt;Node16 -->
<g id="edge14" class="edge">
<title>Node11&#45;&gt;Node16</title>
<path fill="none" stroke="#191970" d="M269.6967,-275.9741C248.875,-265.8348 221.3022,-252.408 203.0112,-243.5011"/>
<polygon fill="#191970" stroke="#191970" points="268.2078,-279.1419 278.7308,-280.3733 271.2724,-272.8484 268.2078,-279.1419"/>
</g>
<!-- Node17 -->
<g id="node16" class="node">
<title>Node17</title>
<g id="a_node16"><a xlink:href="arch_2x86__32-linux_2odp_2api_2abi_2atomic_8h_source.html" target="_top" xlink:title="atomic.h">
<polygon fill="#ffffff" stroke="#000000" points="231,-224.5 231,-243.5 290,-243.5 290,-224.5 231,-224.5"/>
<text text-anchor="middle" x="260.5" y="-231.5" font-family="Helvetica,sans-Serif" font-size="10.00" fill="#000000">atomic.h</text>
</a>
</g>
</g>
<!-- Node11&#45;&gt;Node17 -->
<g id="edge15" class="edge">
<title>Node11&#45;&gt;Node17</title>
<path fill="none" stroke="#191970" d="M286.2321,-271.9209C279.8512,-262.5176 272.3069,-251.3997 267.0432,-243.6427"/>
<polygon fill="#191970" stroke="#191970" points="283.3697,-273.936 291.8809,-280.2455 289.162,-270.0055 283.3697,-273.936"/>
</g>
<!-- Node18 -->
<g id="node17" class="node">
<title>Node18</title>
<g id="a_node17"><a xlink:href="arch_2x86__64-linux_2odp_2api_2abi_2atomic_8h_source.html" target="_top" xlink:title="atomic.h">
<polygon fill="#ffffff" stroke="#000000" points="462,-224.5 462,-243.5 521,-243.5 521,-224.5 462,-224.5"/>
<text text-anchor="middle" x="491.5" y="-231.5" font-family="Helvetica,sans-Serif" font-size="10.00" fill="#000000">atomic.h</text>
</a>
</g>
</g>
<!-- Node11&#45;&gt;Node18 -->
<g id="edge16" class="edge">
<title>Node11&#45;&gt;Node18</title>
<path fill="none" stroke="#191970" d="M338.0992,-278.5101C374.7948,-267.8626 428.5675,-252.2602 461.7329,-242.6371"/>
<polygon fill="#191970" stroke="#191970" points="336.8618,-275.2247 328.2333,-281.3727 338.8125,-281.9474 336.8618,-275.2247"/>
</g>
<!-- Node19 -->
<g id="node18" class="node">
<title>Node19</title>
<g id="a_node18"><a xlink:href="api_2atomic_8h.html" target="_top" xlink:title="ODP atomic operations. ">
<polygon fill="#ffffff" stroke="#ff0000" points="462,-168.5 462,-187.5 521,-187.5 521,-168.5 462,-168.5"/>
<text text-anchor="middle" x="491.5" y="-175.5" font-family="Helvetica,sans-Serif" font-size="10.00" fill="#000000">atomic.h</text>
</a>
</g>
</g>
<!-- Node18&#45;&gt;Node19 -->
<g id="edge17" class="edge">
<title>Node18&#45;&gt;Node19</title>
<path fill="none" stroke="#191970" d="M491.5,-214.1575C491.5,-205.155 491.5,-194.9199 491.5,-187.6427"/>
<polygon fill="#191970" stroke="#191970" points="488.0001,-214.2455 491.5,-224.2455 495.0001,-214.2456 488.0001,-214.2455"/>
</g>
<!-- Node20 -->
<g id="node19" class="node">
<title>Node20</title>
<g id="a_node19"><a xlink:href="api_2abi-default_2barrier_8h.html" target="_top" xlink:title="ODP barrier. ">
<polygon fill="#ffffff" stroke="#ff0000" points="779,-112.5 779,-131.5 836,-131.5 836,-112.5 779,-112.5"/>
<text text-anchor="middle" x="807.5" y="-119.5" font-family="Helvetica,sans-Serif" font-size="10.00" fill="#000000">barrier.h</text>
</a>
</g>
</g>
<!-- Node19&#45;&gt;Node20 -->
<g id="edge18" class="edge">
<title>Node19&#45;&gt;Node20</title>
<path fill="none" stroke="#191970" d="M531.4471,-170.9208C596.1951,-159.4464 722.4954,-137.0641 778.9926,-127.0519"/>
<polygon fill="#191970" stroke="#191970" points="530.4643,-167.5403 521.2285,-172.7317 531.6859,-174.4329 530.4643,-167.5403"/>
</g>
<!-- Node28 -->
<g id="node20" class="node">
<title>Node28</title>
<g id="a_node20"><a xlink:href="api_2barrier_8h.html" target="_top" xlink:title="ODP execution barriers. ">
<polygon fill="#ffffff" stroke="#000000" points="521,-112.5 521,-131.5 578,-131.5 578,-112.5 521,-112.5"/>
<text text-anchor="middle" x="549.5" y="-119.5" font-family="Helvetica,sans-Serif" font-size="10.00" fill="#000000">barrier.h</text>
</a>
</g>
</g>
<!-- Node19&#45;&gt;Node28 -->
<g id="edge19" class="edge">
<title>Node19&#45;&gt;Node28</title>
<path fill="none" stroke="#191970" d="M509.0293,-161.0751C519.0083,-151.4402 531.1476,-139.7196 539.5129,-131.6427"/>
<polygon fill="#191970" stroke="#191970" points="506.3658,-158.7817 501.6028,-168.2455 511.228,-163.8175 506.3658,-158.7817"/>
</g>
<!-- Node19&#45;&gt;Node29 -->
<g id="edge22" class="edge">
<title>Node19&#45;&gt;Node29</title>
<path fill="none" stroke="#191970" d="M491.8262,-157.6035C493.2543,-142.4971 497.8583,-122.7436 511.5,-112 542.0218,-87.9624 1130.6368,-70.7401 1276.1714,-66.838"/>
<polygon fill="#191970" stroke="#191970" points="488.3077,-157.8472 491.256,-168.0235 495.2972,-158.2297 488.3077,-157.8472"/>
</g>
<!-- Node28&#45;&gt;Node29 -->
<g id="edge20" class="edge">
<title>Node28&#45;&gt;Node29</title>
<path fill="none" stroke="#191970" d="M588.4368,-119.1272C721.1639,-109.3344 1154.3894,-77.3705 1276.3111,-68.3749"/>
<polygon fill="#191970" stroke="#191970" points="588.0422,-115.6467 578.3269,-119.8731 588.5573,-122.6277 588.0422,-115.6467"/>
</g>
<!-- Node30 -->
<g id="node22" class="node">
<title>Node30</title>
<g id="a_node22"><a xlink:href="odp_8h.html" target="_top" xlink:title="WARNING: THIS FILE IS DEPRECATED AND WILL BE REMOVED!!! ODP APPLICATIONS SHOULD NOW INCLUDE odp_api...">
<polygon fill="#ffffff" stroke="#000000" points="1286.5,-.5 1286.5,-19.5 1330.5,-19.5 1330.5,-.5 1286.5,-.5"/>
<text text-anchor="middle" x="1308.5" y="-7.5" font-family="Helvetica,sans-Serif" font-size="10.00" fill="#000000">odp.h</text>
</a>
</g>
</g>
<!-- Node29&#45;&gt;Node30 -->
<g id="edge21" class="edge">
<title>Node29&#45;&gt;Node30</title>
<path fill="none" stroke="#191970" d="M1308.5,-46.1575C1308.5,-37.155 1308.5,-26.9199 1308.5,-19.6427"/>
<polygon fill="#191970" stroke="#191970" points="1305.0001,-46.2455 1308.5,-56.2455 1312.0001,-46.2456 1305.0001,-46.2455"/>
</g>
<!-- Node59 -->
<g id="node24" class="node">
<title>Node59</title>
<g id="a_node24"><a xlink:href="arch_2arm32-linux_2odp_2api_2abi_2cpumask_8h_source.html" target="_top" xlink:title="cpumask.h">
<polygon fill="#ffffff" stroke="#000000" points="2068.5,-224.5 2068.5,-243.5 2138.5,-243.5 2138.5,-224.5 2068.5,-224.5"/>
<text text-anchor="middle" x="2103.5" y="-231.5" font-family="Helvetica,sans-Serif" font-size="10.00" fill="#000000">cpumask.h</text>
</a>
</g>
</g>
<!-- Node58&#45;&gt;Node59 -->
<g id="edge24" class="edge">
<title>Node58&#45;&gt;Node59</title>
<path fill="none" stroke="#191970" d="M1796.6857,-284.3342C1856.8766,-276.54 1966.5776,-261.4728 2059.5,-244 2062.4255,-243.4499 2065.452,-242.8428 2068.4851,-242.2077"/>
<polygon fill="#191970" stroke="#191970" points="1796.2207,-280.8651 1786.7493,-285.613 1797.1143,-287.8079 1796.2207,-280.8651"/>
</g>
<!-- Node60 -->
<g id="node25" class="node">
<title>Node60</title>
<g id="a_node25"><a xlink:href="arch_2arm64-linux_2odp_2api_2abi_2cpumask_8h_source.html" target="_top" xlink:title="cpumask.h">
<polygon fill="#ffffff" stroke="#000000" points="1540.5,-224.5 1540.5,-243.5 1610.5,-243.5 1610.5,-224.5 1540.5,-224.5"/>
<text text-anchor="middle" x="1575.5" y="-231.5" font-family="Helvetica,sans-Serif" font-size="10.00" fill="#000000">cpumask.h</text>
</a>
</g>
</g>
<!-- Node58&#45;&gt;Node60 -->
<g id="edge25" class="edge">
<title>Node58&#45;&gt;Node60</title>
<path fill="none" stroke="#191970" d="M1711.6596,-277.3235C1679.3827,-267.0536 1634.6148,-252.8093 1605.3607,-243.5011"/>
<polygon fill="#191970" stroke="#191970" points="1710.654,-280.6764 1721.2445,-280.3733 1712.7765,-274.0059 1710.654,-280.6764"/>
</g>
<!-- Node61 -->
<g id="node26" class="node">
<title>Node61</title>
<g id="a_node26"><a xlink:href="arch_2default-linux_2odp_2api_2abi_2cpumask_8h_source.html" target="_top" xlink:title="cpumask.h">
<polygon fill="#ffffff" stroke="#000000" points="1628.5,-224.5 1628.5,-243.5 1698.5,-243.5 1698.5,-224.5 1628.5,-224.5"/>
<text text-anchor="middle" x="1663.5" y="-231.5" font-family="Helvetica,sans-Serif" font-size="10.00" fill="#000000">cpumask.h</text>
</a>
</g>
</g>
<!-- Node58&#45;&gt;Node61 -->
<g id="edge26" class="edge">
<title>Node58&#45;&gt;Node61</title>
<path fill="none" stroke="#191970" d="M1727.5655,-274.769C1711.9717,-264.8456 1692.099,-252.1994 1678.6528,-243.6427"/>
<polygon fill="#191970" stroke="#191970" points="1725.8559,-277.8296 1736.1716,-280.2455 1729.614,-271.9239 1725.8559,-277.8296"/>
</g>
<!-- Node62 -->
<g id="node27" class="node">
<title>Node62</title>
<g id="a_node27"><a xlink:href="arch_2mips64-linux_2odp_2api_2abi_2cpumask_8h_source.html" target="_top" xlink:title="cpumask.h">
<polygon fill="#ffffff" stroke="#000000" points="1716.5,-224.5 1716.5,-243.5 1786.5,-243.5 1786.5,-224.5 1716.5,-224.5"/>
<text text-anchor="middle" x="1751.5" y="-231.5" font-family="Helvetica,sans-Serif" font-size="10.00" fill="#000000">cpumask.h</text>
</a>
</g>
</g>
<!-- Node58&#45;&gt;Node62 -->
<g id="edge27" class="edge">
<title>Node58&#45;&gt;Node62</title>
<path fill="none" stroke="#191970" d="M1751.5,-270.1575C1751.5,-261.155 1751.5,-250.9199 1751.5,-243.6427"/>
<polygon fill="#191970" stroke="#191970" points="1748.0001,-270.2455 1751.5,-280.2455 1755.0001,-270.2456 1748.0001,-270.2455"/>
</g>
<!-- Node63 -->
<g id="node28" class="node">
<title>Node63</title>
<g id="a_node28"><a xlink:href="arch_2power64-linux_2odp_2api_2abi_2cpumask_8h_source.html" target="_top" xlink:title="cpumask.h">
<polygon fill="#ffffff" stroke="#000000" points="1892.5,-224.5 1892.5,-243.5 1962.5,-243.5 1962.5,-224.5 1892.5,-224.5"/>
<text text-anchor="middle" x="1927.5" y="-231.5" font-family="Helvetica,sans-Serif" font-size="10.00" fill="#000000">cpumask.h</text>
</a>
</g>
</g>
<!-- Node58&#45;&gt;Node63 -->
<g id="edge28" class="edge">
<title>Node58&#45;&gt;Node63</title>
<path fill="none" stroke="#191970" d="M1791.3404,-277.3235C1823.6173,-267.0536 1868.3852,-252.8093 1897.6393,-243.5011"/>
<polygon fill="#191970" stroke="#191970" points="1790.2235,-274.0059 1781.7555,-280.3733 1792.346,-280.6764 1790.2235,-274.0059"/>
</g>
<!-- Node64 -->
<g id="node29" class="node">
<title>Node64</title>
<g id="a_node29"><a xlink:href="arch_2x86__32-linux_2odp_2api_2abi_2cpumask_8h_source.html" target="_top" xlink:title="cpumask.h">
<polygon fill="#ffffff" stroke="#000000" points="1980.5,-224.5 1980.5,-243.5 2050.5,-243.5 2050.5,-224.5 1980.5,-224.5"/>
<text text-anchor="middle" x="2015.5" y="-231.5" font-family="Helvetica,sans-Serif" font-size="10.00" fill="#000000">cpumask.h</text>
</a>
</g>
</g>
<!-- Node58&#45;&gt;Node64 -->
<g id="edge29" class="edge">
<title>Node58&#45;&gt;Node64</title>
<path fill="none" stroke="#191970" d="M1796.5125,-280.8264C1841.0128,-271.7011 1911.0196,-257.1947 1971.5,-244 1974.4084,-243.3655 1977.4228,-242.699 1980.4478,-242.024"/>
<polygon fill="#191970" stroke="#191970" points="1795.6888,-277.4224 1786.5944,-282.8577 1797.0933,-284.28 1795.6888,-277.4224"/>
</g>
<!-- Node65 -->
<g id="node30" class="node">
<title>Node65</title>
<g id="a_node30"><a xlink:href="arch_2x86__64-linux_2odp_2api_2abi_2cpumask_8h_source.html" target="_top" xlink:title="cpumask.h">
<polygon fill="#ffffff" stroke="#000000" points="1804.5,-224.5 1804.5,-243.5 1874.5,-243.5 1874.5,-224.5 1804.5,-224.5"/>
<text text-anchor="middle" x="1839.5" y="-231.5" font-family="Helvetica,sans-Serif" font-size="10.00" fill="#000000">cpumask.h</text>
</a>
</g>
</g>
<!-- Node58&#45;&gt;Node65 -->
<g id="edge30" class="edge">
<title>Node58&#45;&gt;Node65</title>
<path fill="none" stroke="#191970" d="M1775.4345,-274.769C1791.0283,-264.8456 1810.901,-252.1994 1824.3472,-243.6427"/>
<polygon fill="#191970" stroke="#191970" points="1773.386,-271.9239 1766.8284,-280.2455 1777.1441,-277.8296 1773.386,-271.9239"/>
</g>
<!-- Node66 -->
<g id="node31" class="node">
<title>Node66</title>
<g id="a_node31"><a xlink:href="api_2cpumask_8h.html" target="_top" xlink:title="ODP CPU masks and enumeration. ">
<polygon fill="#ffffff" stroke="#ff0000" points="1741.5,-168.5 1741.5,-187.5 1811.5,-187.5 1811.5,-168.5 1741.5,-168.5"/>
<text text-anchor="middle" x="1776.5" y="-175.5" font-family="Helvetica,sans-Serif" font-size="10.00" fill="#000000">cpumask.h</text>
</a>
</g>
</g>
<!-- Node65&#45;&gt;Node66 -->
<g id="edge31" class="edge">
<title>Node65&#45;&gt;Node66</title>
<path fill="none" stroke="#191970" d="M1820.7808,-217.3607C1809.8818,-207.6727 1796.5245,-195.7995 1787.348,-187.6427"/>
<polygon fill="#191970" stroke="#191970" points="1818.7268,-220.2178 1828.5262,-224.2455 1823.3774,-214.9859 1818.7268,-220.2178"/>
</g>
<!-- Node66&#45;&gt;Node29 -->
<g id="edge32" class="edge">
<title>Node66&#45;&gt;Node29</title>
<path fill="none" stroke="#191970" d="M1740.2929,-165.062C1698.7549,-150.5853 1628.3927,-127.1774 1566.5,-112 1486.0763,-92.2784 1389.6036,-77.3486 1340.5502,-70.3652"/>
<polygon fill="#191970" stroke="#191970" points="1739.364,-168.4451 1749.9588,-168.4511 1741.6802,-161.8394 1739.364,-168.4451"/>
</g>
<!-- Node83 -->
<g id="node33" class="node">
<title>Node83</title>
<g id="a_node33"><a xlink:href="api_2std__types_8h.html" target="_top" xlink:title="Standard C language types and definitions for ODP. ">
<polygon fill="#ffffff" stroke="#ff0000" points="1104,-336.5 1104,-355.5 1177,-355.5 1177,-336.5 1104,-336.5"/>
<text text-anchor="middle" x="1140.5" y="-343.5" font-family="Helvetica,sans-Serif" font-size="10.00" fill="#000000">std_types.h</text>
</a>
</g>
</g>
<!-- Node82&#45;&gt;Node83 -->
<g id="edge34" class="edge">
<title>Node82&#45;&gt;Node83</title>
<path fill="none" stroke="#191970" d="M1243.7601,-388.5189C1218.9917,-378.3201 1185.595,-364.5685 1163.5742,-355.5011"/>
<polygon fill="#191970" stroke="#191970" points="1242.5413,-391.8021 1253.1208,-392.3733 1245.2066,-385.3293 1242.5413,-391.8021"/>
</g>
<!-- Node83&#45;&gt;Node11 -->
<g id="edge35" class="edge">
<title>Node83&#45;&gt;Node11</title>
<path fill="none" stroke="#191970" d="M1093.6974,-344.3238C945.7163,-338.8632 489.0952,-320.7375 342.5,-300 337.8461,-299.3417 332.9568,-298.4426 328.1979,-297.4518"/>
<polygon fill="#191970" stroke="#191970" points="1093.6885,-347.8258 1103.8102,-344.695 1093.9453,-340.8305 1093.6885,-347.8258"/>
</g>
<!-- Node83&#45;&gt;Node20 -->
<g id="edge36" class="edge">
<title>Node83&#45;&gt;Node20</title>
<path fill="none" stroke="#191970" d="M1118.3537,-330.4175C1099.1583,-316.9585 1070.5982,-297.0465 1045.5,-280 961.3938,-222.8759 859.3713,-155.922 822.0597,-131.5122"/>
<polygon fill="#191970" stroke="#191970" points="1116.5225,-333.4083 1126.7181,-336.2894 1120.5445,-327.6791 1116.5225,-333.4083"/>
</g>
<!-- Node83&#45;&gt;Node28 -->
<g id="edge46" class="edge">
<title>Node83&#45;&gt;Node28</title>
<path fill="none" stroke="#191970" d="M1093.7886,-344.9379C931.438,-341.0222 400.2126,-326.2432 375.5,-300 369.4062,-293.5287 369.9761,-286.9641 375.5,-280 419.1807,-224.9306 481.4942,-295.3428 529.5,-244 559.1107,-212.3309 554.4444,-154.68 551.1583,-131.7676"/>
<polygon fill="#191970" stroke="#191970" points="1093.8589,-348.4405 1103.9396,-345.1801 1094.0259,-341.4425 1093.8589,-348.4405"/>
</g>
<!-- Node83&#45;&gt;Node29 -->
<g id="edge63" class="edge">
<title>Node83&#45;&gt;Node29</title>
<path fill="none" stroke="#191970" d="M1187.4263,-344.5474C1254.135,-341.3821 1371.2325,-331.3865 1397.5,-300 1458.0327,-227.6706 1351.9952,-109.8282 1318.282,-75.6018"/>
<polygon fill="#191970" stroke="#191970" points="1187.0105,-341.0623 1177.1743,-344.999 1187.3186,-348.0555 1187.0105,-341.0623"/>
</g>
<!-- Node83&#45;&gt;Node58 -->
<g id="edge38" class="edge">
<title>Node83&#45;&gt;Node58</title>
<path fill="none" stroke="#191970" d="M1187.4962,-341.6927C1305.4199,-330.8846 1611.8473,-302.7996 1716.1419,-293.2407"/>
<polygon fill="#191970" stroke="#191970" points="1186.9836,-338.2249 1177.3448,-342.6231 1187.6226,-345.1957 1186.9836,-338.2249"/>
</g>
<!-- Node84 -->
<g id="node34" class="node">
<title>Node84</title>
<g id="a_node34"><a xlink:href="api_2abi-default_2byteorder_8h.html" target="_top" xlink:title="ODP byteorder. ">
<polygon fill="#ffffff" stroke="#ff0000" points="1540.5,-280.5 1540.5,-299.5 1612.5,-299.5 1612.5,-280.5 1540.5,-280.5"/>
<text text-anchor="middle" x="1576.5" y="-287.5" font-family="Helvetica,sans-Serif" font-size="10.00" fill="#000000">byteorder.h</text>
</a>
</g>
</g>
<!-- Node83&#45;&gt;Node84 -->
<g id="edge37" class="edge">
<title>Node83&#45;&gt;Node84</title>
<path fill="none" stroke="#191970" d="M1187.2931,-341.6247C1260.0725,-334.5494 1404.6941,-319.4075 1526.5,-300 1530.9585,-299.2896 1535.625,-298.4654 1540.2396,-297.6009"/>
<polygon fill="#191970" stroke="#191970" points="1186.7052,-338.1651 1177.0877,-342.6097 1187.3777,-345.1328 1186.7052,-338.1651"/>
</g>
<!-- Node93 -->
<g id="node35" class="node">
<title>Node93</title>
<g id="a_node35"><a xlink:href="api_2abi-default_2init_8h.html" target="_top" xlink:title="ODP initialization. ">
<polygon fill="#ffffff" stroke="#ff0000" points="385,-280.5 385,-299.5 426,-299.5 426,-280.5 385,-280.5"/>
<text text-anchor="middle" x="405.5" y="-287.5" font-family="Helvetica,sans-Serif" font-size="10.00" fill="#000000">init.h</text>
</a>
</g>
</g>
<!-- Node83&#45;&gt;Node93 -->
<g id="edge39" class="edge">
<title>Node83&#45;&gt;Node93</title>
<path fill="none" stroke="#191970" d="M1093.5623,-344.5749C956.9513,-340.1686 561.2471,-325.5032 434.5,-300 431.7851,-299.4537 428.9766,-298.7168 426.2245,-297.8891"/>
<polygon fill="#191970" stroke="#191970" points="1093.5959,-348.0776 1103.7025,-344.8984 1093.8192,-341.0812 1093.5959,-348.0776"/>
</g>
<!-- Node101 -->
<g id="node36" class="node">
<title>Node101</title>
<g id="a_node36"><a xlink:href="api_2abi-default_2ipsec_8h.html" target="_top" xlink:title="ODP IPSEC API &#45; platform specific types. ">
<polygon fill="#ffffff" stroke="#ff0000" points="444,-280.5 444,-299.5 495,-299.5 495,-280.5 444,-280.5"/>
<text text-anchor="middle" x="469.5" y="-287.5" font-family="Helvetica,sans-Serif" font-size="10.00" fill="#000000">ipsec.h</text>
</a>
</g>
</g>
<!-- Node83&#45;&gt;Node101 -->
<g id="edge40" class="edge">
<title>Node83&#45;&gt;Node101</title>
<path fill="none" stroke="#191970" d="M1093.508,-343.9131C966.2522,-338.0533 616.9178,-320.5296 503.5,-300 500.8361,-299.5178 498.0835,-298.906 495.3514,-298.2233"/>
<polygon fill="#191970" stroke="#191970" points="1093.5542,-347.4188 1103.7037,-344.3795 1093.8741,-340.4261 1093.5542,-347.4188"/>
</g>
<!-- Node110 -->
<g id="node37" class="node">
<title>Node110</title>
<g id="a_node37"><a xlink:href="api_2abi-default_2packet__io_8h.html" target="_top" xlink:title="ODP Packet IO. ">
<polygon fill="#ffffff" stroke="#ff0000" points="513,-280.5 513,-299.5 586,-299.5 586,-280.5 513,-280.5"/>
<text text-anchor="middle" x="549.5" y="-287.5" font-family="Helvetica,sans-Serif" font-size="10.00" fill="#000000">packet_io.h</text>
</a>
</g>
</g>
<!-- Node83&#45;&gt;Node110 -->
<g id="edge41" class="edge">
<title>Node83&#45;&gt;Node110</title>
<path fill="none" stroke="#191970" d="M1093.8702,-344.1075C999.3928,-339.8238 778.778,-327.5371 595.5,-300 592.4289,-299.5386 589.2559,-298.9938 586.0791,-298.4006"/>
<polygon fill="#191970" stroke="#191970" points="1093.8093,-347.6082 1103.9549,-344.5559 1094.1203,-340.6151 1093.8093,-347.6082"/>
</g>
<!-- Node40 -->
<g id="node38" class="node">
<title>Node40</title>
<g id="a_node38"><a xlink:href="api_2abi-default_2rwlock__recursive_8h.html" target="_top" xlink:title="ODP recursive read/write lock. ">
<polygon fill="#ffffff" stroke="#ff0000" points="604.5,-280.5 604.5,-299.5 712.5,-299.5 712.5,-280.5 604.5,-280.5"/>
<text text-anchor="middle" x="658.5" y="-287.5" font-family="Helvetica,sans-Serif" font-size="10.00" fill="#000000">rwlock_recursive.h</text>
</a>
</g>
</g>
<!-- Node83&#45;&gt;Node40 -->
<g id="edge42" class="edge">
<title>Node83&#45;&gt;Node40</title>
<path fill="none" stroke="#191970" d="M1093.6121,-341.5946C1016.0556,-334.1413 856.2339,-318.0784 721.5,-300 718.6462,-299.6171 715.7223,-299.2088 712.7719,-298.7842"/>
<polygon fill="#191970" stroke="#191970" points="1093.7106,-345.1199 1103.9985,-342.5885 1094.3774,-338.1518 1093.7106,-345.1199"/>
</g>
<!-- Node138 -->
<g id="node39" class="node">
<title>Node138</title>
<g id="a_node39"><a xlink:href="api_2abi-default_2schedule_8h.html" target="_top" xlink:title="ODP schedule. ">
<polygon fill="#ffffff" stroke="#ff0000" points="731,-280.5 731,-299.5 800,-299.5 800,-280.5 731,-280.5"/>
<text text-anchor="middle" x="765.5" y="-287.5" font-family="Helvetica,sans-Serif" font-size="10.00" fill="#000000">schedule.h</text>
</a>
</g>
</g>
<!-- Node83&#45;&gt;Node138 -->
<g id="edge43" class="edge">
<title>Node83&#45;&gt;Node138</title>
<path fill="none" stroke="#191970" d="M1093.3678,-340.7342C1028.9869,-333.2492 910.0561,-318.3794 809.5,-300 806.4176,-299.4366 803.2242,-298.8051 800.0298,-298.1406"/>
<polygon fill="#191970" stroke="#191970" points="1093.265,-344.2455 1103.6003,-341.915 1094.0675,-337.2916 1093.265,-344.2455"/>
</g>
<!-- Node146 -->
<g id="node40" class="node">
<title>Node146</title>
<g id="a_node40"><a xlink:href="api_2abi-default_2spinlock__recursive_8h.html" target="_top" xlink:title="ODP recursive spinlock. ">
<polygon fill="#ffffff" stroke="#ff0000" points="818.5,-280.5 818.5,-299.5 934.5,-299.5 934.5,-280.5 818.5,-280.5"/>
<text text-anchor="middle" x="876.5" y="-287.5" font-family="Helvetica,sans-Serif" font-size="10.00" fill="#000000">spinlock_recursive.h</text>
</a>
</g>
</g>
<!-- Node83&#45;&gt;Node146 -->
<g id="edge44" class="edge">
<title>Node83&#45;&gt;Node146</title>
<path fill="none" stroke="#191970" d="M1093.8595,-336.1066C1045.302,-325.8065 969.7612,-309.7827 921.7331,-299.5949"/>
<polygon fill="#191970" stroke="#191970" points="1093.2833,-339.5621 1103.7919,-338.2134 1094.7359,-332.7145 1093.2833,-339.5621"/>
</g>
<!-- Node155 -->
<g id="node41" class="node">
<title>Node155</title>
<g id="a_node41"><a xlink:href="api_2abi-default_2traffic__mngr_8h.html" target="_top" xlink:title="ODP traffic mngr. ">
<polygon fill="#ffffff" stroke="#ff0000" points="952.5,-280.5 952.5,-299.5 1036.5,-299.5 1036.5,-280.5 952.5,-280.5"/>
<text text-anchor="middle" x="994.5" y="-287.5" font-family="Helvetica,sans-Serif" font-size="10.00" fill="#000000">traffic_mngr.h</text>
</a>
</g>
</g>
<!-- Node83&#45;&gt;Node155 -->
<g id="edge45" class="edge">
<title>Node83&#45;&gt;Node155</title>
<path fill="none" stroke="#191970" d="M1106.0565,-332.7888C1079.3987,-322.5639 1043.12,-308.6488 1019.2708,-299.5011"/>
<polygon fill="#191970" stroke="#191970" points="1104.8115,-336.0598 1115.4017,-336.3733 1107.3184,-329.5241 1104.8115,-336.0598"/>
</g>
<!-- Node163 -->
<g id="node42" class="node">
<title>Node163</title>
<g id="a_node42"><a xlink:href="api_2buffer_8h.html" target="_top" xlink:title="ODP buffer descriptor. ">
<polygon fill="#ffffff" stroke="#000000" points="1431,-168.5 1431,-187.5 1484,-187.5 1484,-168.5 1431,-168.5"/>
<text text-anchor="middle" x="1457.5" y="-175.5" font-family="Helvetica,sans-Serif" font-size="10.00" fill="#000000">buffer.h</text>
</a>
</g>
</g>
<!-- Node83&#45;&gt;Node163 -->
<g id="edge47" class="edge">
<title>Node83&#45;&gt;Node163</title>
<path fill="none" stroke="#191970" d="M1187.1266,-342.3008C1269.315,-335.3178 1432.9891,-319.1623 1450.5,-300 1479.4093,-268.3644 1467.0544,-210.6941 1460.5559,-187.7721"/>
<polygon fill="#191970" stroke="#191970" points="1186.7186,-338.8226 1177.046,-343.1459 1187.3035,-345.7981 1186.7186,-338.8226"/>
</g>
<!-- Node118 -->
<g id="node43" class="node">
<title>Node118</title>
<g id="a_node43"><a xlink:href="api_2classification_8h.html" target="_top" xlink:title="ODP classification descriptor. ">
<polygon fill="#ffffff" stroke="#ff0000" points="1469,-112.5 1469,-131.5 1558,-131.5 1558,-112.5 1469,-112.5"/>
<text text-anchor="middle" x="1513.5" y="-119.5" font-family="Helvetica,sans-Serif" font-size="10.00" fill="#000000">classification.h</text>
</a>
</g>
</g>
<!-- Node83&#45;&gt;Node118 -->
<g id="edge49" class="edge">
<title>Node83&#45;&gt;Node118</title>
<path fill="none" stroke="#191970" d="M1187.3061,-342.3819C1273.3649,-335.3115 1449.8519,-318.7076 1470.5,-300 1520.6826,-254.5334 1517.1261,-161.5009 1514.5155,-131.5306"/>
<polygon fill="#191970" stroke="#191970" points="1186.9598,-338.8984 1177.2759,-343.1964 1187.5264,-345.8754 1186.9598,-338.8984"/>
</g>
<!-- Node124 -->
<g id="node44" class="node">
<title>Node124</title>
<g id="a_node44"><a xlink:href="api_2crypto_8h.html" target="_top" xlink:title="ODP crypto. ">
<polygon fill="#ffffff" stroke="#ff0000" points="1056.5,-168.5 1056.5,-187.5 1112.5,-187.5 1112.5,-168.5 1056.5,-168.5"/>
<text text-anchor="middle" x="1084.5" y="-175.5" font-family="Helvetica,sans-Serif" font-size="10.00" fill="#000000">crypto.h</text>
</a>
</g>
</g>
<!-- Node83&#45;&gt;Node124 -->
<g id="edge51" class="edge">
<title>Node83&#45;&gt;Node124</title>
<path fill="none" stroke="#191970" d="M1134.0756,-326.7267C1122.1069,-290.8207 1096.7941,-214.8822 1087.776,-187.8279"/>
<polygon fill="#191970" stroke="#191970" points="1130.846,-328.1062 1137.3287,-336.4862 1137.4868,-325.8926 1130.846,-328.1062"/>
</g>
<!-- Node120 -->
<g id="node45" class="node">
<title>Node120</title>
<g id="a_node45"><a xlink:href="api_2packet_8h.html" target="_top" xlink:title="ODP packet descriptor. ">
<polygon fill="#ffffff" stroke="#ff0000" points="1117,-112.5 1117,-131.5 1176,-131.5 1176,-112.5 1117,-112.5"/>
<text text-anchor="middle" x="1146.5" y="-119.5" font-family="Helvetica,sans-Serif" font-size="10.00" fill="#000000">packet.h</text>
</a>
</g>
</g>
<!-- Node83&#45;&gt;Node120 -->
<g id="edge53" class="edge">
<title>Node83&#45;&gt;Node120</title>
<path fill="none" stroke="#191970" d="M1141.0326,-326.1177C1142.2767,-279.6713 1145.3369,-165.4223 1146.2431,-131.5891"/>
<polygon fill="#191970" stroke="#191970" points="1137.5269,-326.2848 1140.7578,-336.375 1144.5244,-326.4723 1137.5269,-326.2848"/>
</g>
<!-- Node132 -->
<g id="node46" class="node">
<title>Node132</title>
<g id="a_node46"><a xlink:href="api_2packet__io_8h.html" target="_top" xlink:title="ODP Packet IO. ">
<polygon fill="#ffffff" stroke="#ff0000" points="1169,-168.5 1169,-187.5 1242,-187.5 1242,-168.5 1169,-168.5"/>
<text text-anchor="middle" x="1205.5" y="-175.5" font-family="Helvetica,sans-Serif" font-size="10.00" fill="#000000">packet_io.h</text>
</a>
</g>
</g>
<!-- Node83&#45;&gt;Node132 -->
<g id="edge55" class="edge">
<title>Node83&#45;&gt;Node132</title>
<path fill="none" stroke="#191970" d="M1147.9569,-326.7267C1161.8491,-290.8207 1191.2301,-214.8822 1201.6975,-187.8279"/>
<polygon fill="#191970" stroke="#191970" points="1144.5252,-325.897 1144.1809,-336.4862 1151.0536,-328.4229 1144.5252,-325.897"/>
</g>
<!-- Node164 -->
<g id="node47" class="node">
<title>Node164</title>
<g id="a_node47"><a xlink:href="api_2proto__stats_8h.html" target="_top" xlink:title="ODP proto stats. ">
<polygon fill="#ffffff" stroke="#000000" points="1234.5,-112.5 1234.5,-131.5 1314.5,-131.5 1314.5,-112.5 1234.5,-112.5"/>
<text text-anchor="middle" x="1274.5" y="-119.5" font-family="Helvetica,sans-Serif" font-size="10.00" fill="#000000">proto_stats.h</text>
</a>
</g>
</g>
<!-- Node83&#45;&gt;Node164 -->
<g id="edge57" class="edge">
<title>Node83&#45;&gt;Node164</title>
<path fill="none" stroke="#191970" d="M1155.1593,-328.5576C1178.1357,-300.5034 1222.8544,-242.9238 1250.5,-188 1260.1479,-168.8326 1267.8737,-144.825 1271.7601,-131.6922"/>
<polygon fill="#191970" stroke="#191970" points="1152.4476,-326.3446 1148.7696,-336.2806 1157.841,-330.8068 1152.4476,-326.3446"/>
</g>
<!-- Node128 -->
<g id="node48" class="node">
<title>Node128</title>
<g id="a_node48"><a xlink:href="api_2queue_8h.html" target="_top" xlink:title="ODP queue. ">
<polygon fill="#ffffff" stroke="#ff0000" points="1316.5,-168.5 1316.5,-187.5 1372.5,-187.5 1372.5,-168.5 1316.5,-168.5"/>
<text text-anchor="middle" x="1344.5" y="-175.5" font-family="Helvetica,sans-Serif" font-size="10.00" fill="#000000">queue.h</text>
</a>
</g>
</g>
<!-- Node83&#45;&gt;Node128 -->
<g id="edge59" class="edge">
<title>Node83&#45;&gt;Node128</title>
<path fill="none" stroke="#191970" d="M1187.4735,-343.7855C1249.8037,-339.7499 1354.7614,-328.7661 1378.5,-300 1406.6298,-265.9128 1369.627,-210.1438 1352.429,-187.7539"/>
<polygon fill="#191970" stroke="#191970" points="1186.876,-340.3154 1177.1079,-344.4182 1187.3026,-347.3024 1186.876,-340.3154"/>
</g>
<!-- Node165 -->
<g id="node49" class="node">
<title>Node165</title>
<g id="a_node49"><a xlink:href="spec_2chksum_8h.html" target="_top" xlink:title="ODP checksum functions. ">
<polygon fill="#ffffff" stroke="#ff0000" points="1244.5,-280.5 1244.5,-299.5 1308.5,-299.5 1308.5,-280.5 1244.5,-280.5"/>
<text text-anchor="middle" x="1276.5" y="-287.5" font-family="Helvetica,sans-Serif" font-size="10.00" fill="#000000">chksum.h</text>
</a>
</g>
</g>
<!-- Node83&#45;&gt;Node165 -->
<g id="edge61" class="edge">
<title>Node83&#45;&gt;Node165</title>
<path fill="none" stroke="#191970" d="M1173.2399,-332.5189C1198.0083,-322.3201 1231.405,-308.5685 1253.4258,-299.5011"/>
<polygon fill="#191970" stroke="#191970" points="1171.7934,-329.3293 1163.8792,-336.3733 1174.4587,-335.8021 1171.7934,-329.3293"/>
</g>
<!-- Node167 -->
<g id="node50" class="node">
<title>Node167</title>
<g id="a_node50"><a xlink:href="api_2spec_2cpu_8h.html" target="_top" xlink:title="ODP CPU API. ">
<polygon fill="#ffffff" stroke="#ff0000" points="1327,-280.5 1327,-299.5 1370,-299.5 1370,-280.5 1327,-280.5"/>
<text text-anchor="middle" x="1348.5" y="-287.5" font-family="Helvetica,sans-Serif" font-size="10.00" fill="#000000">cpu.h</text>
</a>
</g>
</g>
<!-- Node83&#45;&gt;Node167 -->
<g id="edge62" class="edge">
<title>Node83&#45;&gt;Node167</title>
<path fill="none" stroke="#191970" d="M1187.4306,-334.5886C1223.2212,-325.6963 1273.6602,-312.7561 1317.5,-300 1320.5407,-299.1152 1323.7345,-298.1391 1326.8689,-297.1538"/>
<polygon fill="#191970" stroke="#191970" points="1186.1472,-331.3005 1177.2803,-337.0995 1187.8282,-338.0956 1186.1472,-331.3005"/>
</g>
<!-- Node163&#45;&gt;Node29 -->
<g id="edge48" class="edge">
<title>Node163&#45;&gt;Node29</title>
<path fill="none" stroke="#191970" d="M1449.4124,-158.6694C1442.5058,-144.1725 1431.3325,-124.7178 1416.5,-112 1394.5306,-93.1628 1363.7043,-81.07 1340.6061,-74.0352"/>
<polygon fill="#191970" stroke="#191970" points="1446.3929,-160.4898 1453.6786,-168.1819 1452.7799,-157.6253 1446.3929,-160.4898"/>
</g>
<!-- Node118&#45;&gt;Node29 -->
<g id="edge50" class="edge">
<title>Node118&#45;&gt;Node29</title>
<path fill="none" stroke="#191970" d="M1468.3008,-109.6529C1429.6243,-99.0876 1374.9104,-84.1414 1340.5858,-74.7649"/>
<polygon fill="#191970" stroke="#191970" points="1467.6904,-113.1143 1478.2592,-112.3733 1469.535,-106.3617 1467.6904,-113.1143"/>
</g>
<!-- Node124&#45;&gt;Node29 -->
<g id="edge52" class="edge">
<title>Node124&#45;&gt;Node29</title>
<path fill="none" stroke="#191970" d="M1086.3276,-158.1645C1088.7514,-143.3598 1094.3888,-123.7388 1107.5,-112 1132.1701,-89.9123 1226.1528,-75.7255 1276.3863,-69.5553"/>
<polygon fill="#191970" stroke="#191970" points="1082.8237,-157.974 1085.03,-168.3366 1089.7674,-158.8599 1082.8237,-157.974"/>
</g>
<!-- Node120&#45;&gt;Node29 -->
<g id="edge54" class="edge">
<title>Node120&#45;&gt;Node29</title>
<path fill="none" stroke="#191970" d="M1183.9422,-109.057C1213.5901,-98.8084 1254.3196,-84.729 1281.0146,-75.5011"/>
<polygon fill="#191970" stroke="#191970" points="1182.6565,-105.7982 1174.3488,-112.3733 1184.9436,-112.414 1182.6565,-105.7982"/>
</g>
<!-- Node132&#45;&gt;Node29 -->
<g id="edge56" class="edge">
<title>Node132&#45;&gt;Node29</title>
<path fill="none" stroke="#191970" d="M1207.5087,-158.2698C1209.8292,-144.094 1214.8141,-125.2284 1225.5,-112 1239.4759,-94.6988 1261.7932,-82.8527 1279.7677,-75.5197"/>
<polygon fill="#191970" stroke="#191970" points="1204.0056,-158.0624 1206.1608,-168.4358 1210.9449,-158.9826 1204.0056,-158.0624"/>
</g>
<!-- Node164&#45;&gt;Node29 -->
<g id="edge58" class="edge">
<title>Node164&#45;&gt;Node29</title>
<path fill="none" stroke="#191970" d="M1285.6535,-103.6296C1291.3247,-94.2887 1297.9845,-83.3197 1302.6455,-75.6427"/>
<polygon fill="#191970" stroke="#191970" points="1282.6204,-101.8812 1280.4223,-112.2455 1288.6039,-105.5141 1282.6204,-101.8812"/>
</g>
<!-- Node128&#45;&gt;Node29 -->
<g id="edge60" class="edge">
<title>Node128&#45;&gt;Node29</title>
<path fill="none" stroke="#191970" d="M1338.2826,-158.3321C1334.1223,-145.2034 1328.5118,-127.5583 1323.5,-112 1319.4306,-99.3673 1314.6706,-84.8057 1311.6225,-75.5083"/>
<polygon fill="#191970" stroke="#191970" points="1335.0365,-159.6753 1341.3911,-168.153 1341.7102,-157.5629 1335.0365,-159.6753"/>
</g>
</g>
</svg>
