<?xml version="1.0" encoding="UTF-8" standalone="no"?>
<!DOCTYPE svg PUBLIC "-//W3C//DTD SVG 1.1//EN"
 "http://www.w3.org/Graphics/SVG/1.1/DTD/svg11.dtd">
<!-- Generated by graphviz version 2.40.1 (20161225.0304)
 -->
<!-- Title: proto_stats.h Pages: 1 -->
<svg width="460pt" height="442pt"
 viewBox="0.00 0.00 459.50 442.00" xmlns="http://www.w3.org/2000/svg" xmlns:xlink="http://www.w3.org/1999/xlink">
<g id="graph0" class="graph" transform="scale(1 1) rotate(0) translate(4 438)">
<title>proto_stats.h</title>
<polygon fill="#ffffff" stroke="transparent" points="-4,4 -4,-438 455.5,-438 455.5,4 -4,4"/>
<!-- Node0 -->
<g id="node1" class="node">
<title>Node0</title>
<polygon fill="#bfbfbf" stroke="#000000" points="150.5,-414.5 150.5,-433.5 230.5,-433.5 230.5,-414.5 150.5,-414.5"/>
<text text-anchor="middle" x="190.5" y="-421.5" font-family="Helvetica,sans-Serif" font-size="10.00" fill="#000000">proto_stats.h</text>
</g>
<!-- Node1 -->
<g id="node2" class="node">
<title>Node1</title>
<g id="a_node2"><a xlink:href="visibility__begin_8h_source.html" target="_top" xlink:title="odp/visibility_begin.h">
<polygon fill="#ffffff" stroke="#000000" points="0,-.5 0,-19.5 121,-19.5 121,-.5 0,-.5"/>
<text text-anchor="middle" x="60.5" y="-7.5" font-family="Helvetica,sans-Serif" font-size="10.00" fill="#000000">odp/visibility_begin.h</text>
</a>
</g>
</g>
<!-- Node0&#45;&gt;Node1 -->
<g id="edge1" class="edge">
<title>Node0&#45;&gt;Node1</title>
<path fill="none" stroke="#191970" d="M150.3838,-415.3757C95.4371,-400.9349 3.5,-366.2077 3.5,-295.5 3.5,-295.5 3.5,-295.5 3.5,-122 3.5,-85.1826 28.2675,-48.2377 45.1501,-27.3313"/>
<polygon fill="#191970" stroke="#191970" points="47.8511,-29.5574 51.5938,-19.6456 42.4869,-25.06 47.8511,-29.5574"/>
</g>
<!-- Node2 -->
<g id="node3" class="node">
<title>Node2</title>
<g id="a_node3"><a xlink:href="api_2proto__stats__types_8h.html" target="_top" xlink:title="ODP proto stats types. ">
<polygon fill="#ffffff" stroke="#000000" points="135.5,-347.5 135.5,-377.5 245.5,-377.5 245.5,-347.5 135.5,-347.5"/>
<text text-anchor="start" x="143.5" y="-365.5" font-family="Helvetica,sans-Serif" font-size="10.00" fill="#000000">odp/api/proto_stats</text>
<text text-anchor="middle" x="190.5" y="-354.5" font-family="Helvetica,sans-Serif" font-size="10.00" fill="#000000">_types.h</text>
</a>
</g>
</g>
<!-- Node0&#45;&gt;Node2 -->
<g id="edge2" class="edge">
<title>Node0&#45;&gt;Node2</title>
<path fill="none" stroke="#191970" d="M190.5,-414.3906C190.5,-407.2234 190.5,-397.0862 190.5,-387.671"/>
<polygon fill="#191970" stroke="#191970" points="194.0001,-387.5446 190.5,-377.5446 187.0001,-387.5446 194.0001,-387.5446"/>
</g>
<!-- Node12 -->
<g id="node13" class="node">
<title>Node12</title>
<g id="a_node13"><a xlink:href="visibility__end_8h_source.html" target="_top" xlink:title="odp/visibility_end.h">
<polygon fill="#ffffff" stroke="#000000" points="338.5,-.5 338.5,-19.5 450.5,-19.5 450.5,-.5 338.5,-.5"/>
<text text-anchor="middle" x="394.5" y="-7.5" font-family="Helvetica,sans-Serif" font-size="10.00" fill="#000000">odp/visibility_end.h</text>
</a>
</g>
</g>
<!-- Node0&#45;&gt;Node12 -->
<g id="edge18" class="edge">
<title>Node0&#45;&gt;Node12</title>
<path fill="none" stroke="#191970" d="M226.2437,-414.4439C297.725,-394.276 451.5,-345.1227 451.5,-295.5 451.5,-295.5 451.5,-295.5 451.5,-122 451.5,-85.1826 426.7325,-48.2377 409.8499,-27.3313"/>
<polygon fill="#191970" stroke="#191970" points="412.5131,-25.06 403.4063,-19.6456 407.1489,-29.5574 412.5131,-25.06"/>
</g>
<!-- Node3 -->
<g id="node4" class="node">
<title>Node3</title>
<polygon fill="#ffffff" stroke="#bfbfbf" points="58.5,-280.5 58.5,-310.5 186.5,-310.5 186.5,-280.5 58.5,-280.5"/>
<text text-anchor="start" x="66.5" y="-298.5" font-family="Helvetica,sans-Serif" font-size="10.00" fill="#000000">odp/api/abi/proto_stats</text>
<text text-anchor="middle" x="122.5" y="-287.5" font-family="Helvetica,sans-Serif" font-size="10.00" fill="#000000">_types.h</text>
</g>
<!-- Node2&#45;&gt;Node3 -->
<g id="edge3" class="edge">
<title>Node2&#45;&gt;Node3</title>
<path fill="none" stroke="#191970" d="M175.0697,-347.2967C166.2016,-338.559 154.9022,-327.4257 145.0535,-317.7218"/>
<polygon fill="#191970" stroke="#191970" points="147.449,-315.1685 137.8692,-310.6432 142.536,-320.1548 147.449,-315.1685"/>
</g>
<!-- Node4 -->
<g id="node5" class="node">
<title>Node4</title>
<g id="a_node5"><a xlink:href="api_2spec_2proto__stats__types_8h.html" target="_top" xlink:title="ODP proto stats types. ">
<polygon fill="#ffffff" stroke="#000000" points="205,-280.5 205,-310.5 312,-310.5 312,-280.5 205,-280.5"/>
<text text-anchor="start" x="213" y="-298.5" font-family="Helvetica,sans-Serif" font-size="10.00" fill="#000000">odp/api/spec/proto</text>
<text text-anchor="middle" x="258.5" y="-287.5" font-family="Helvetica,sans-Serif" font-size="10.00" fill="#000000">_stats_types.h</text>
</a>
</g>
</g>
<!-- Node2&#45;&gt;Node4 -->
<g id="edge4" class="edge">
<title>Node2&#45;&gt;Node4</title>
<path fill="none" stroke="#191970" d="M205.9303,-347.2967C214.7984,-338.559 226.0978,-327.4257 235.9465,-317.7218"/>
<polygon fill="#191970" stroke="#191970" points="238.464,-320.1548 243.1308,-310.6432 233.551,-315.1685 238.464,-320.1548"/>
</g>
<!-- Node4&#45;&gt;Node1 -->
<g id="edge5" class="edge">
<title>Node4&#45;&gt;Node1</title>
<path fill="none" stroke="#191970" d="M211.4142,-280.411C147.5928,-258.5126 41.5,-216.3435 41.5,-178 41.5,-178 41.5,-178 41.5,-122 41.5,-89.2688 49.4852,-51.9052 55.1022,-29.6716"/>
<polygon fill="#191970" stroke="#191970" points="58.5415,-30.3545 57.6965,-19.7934 51.7711,-28.5763 58.5415,-30.3545"/>
</g>
<!-- Node5 -->
<g id="node6" class="node">
<title>Node5</title>
<g id="a_node6"><a xlink:href="api_2std__types_8h.html" target="_top" xlink:title="Standard C language types and definitions for ODP. ">
<polygon fill="#ffffff" stroke="#000000" points="202.5,-224.5 202.5,-243.5 314.5,-243.5 314.5,-224.5 202.5,-224.5"/>
<text text-anchor="middle" x="258.5" y="-231.5" font-family="Helvetica,sans-Serif" font-size="10.00" fill="#000000">odp/api/std_types.h</text>
</a>
</g>
</g>
<!-- Node4&#45;&gt;Node5 -->
<g id="edge6" class="edge">
<title>Node4&#45;&gt;Node5</title>
<path fill="none" stroke="#191970" d="M258.5,-280.2977C258.5,-272.3834 258.5,-262.6043 258.5,-254.0759"/>
<polygon fill="#191970" stroke="#191970" points="262.0001,-253.8469 258.5,-243.8469 255.0001,-253.847 262.0001,-253.8469"/>
</g>
<!-- Node4&#45;&gt;Node12 -->
<g id="edge17" class="edge">
<title>Node4&#45;&gt;Node12</title>
<path fill="none" stroke="#191970" d="M309.2528,-280.4821C354.4573,-263.6066 413.5,-231.3531 413.5,-178 413.5,-178 413.5,-178 413.5,-122 413.5,-89.2688 405.5148,-51.9052 399.8978,-29.6716"/>
<polygon fill="#191970" stroke="#191970" points="403.2289,-28.5763 397.3035,-19.7934 396.4585,-30.3545 403.2289,-28.5763"/>
</g>
<!-- Node6 -->
<g id="node7" class="node">
<title>Node6</title>
<polygon fill="#ffffff" stroke="#bfbfbf" points="70.5,-168.5 70.5,-187.5 200.5,-187.5 200.5,-168.5 70.5,-168.5"/>
<text text-anchor="middle" x="135.5" y="-175.5" font-family="Helvetica,sans-Serif" font-size="10.00" fill="#000000">odp/api/abi/std_types.h</text>
</g>
<!-- Node5&#45;&gt;Node6 -->
<g id="edge7" class="edge">
<title>Node5&#45;&gt;Node6</title>
<path fill="none" stroke="#191970" d="M237.3555,-224.3733C217.6108,-215.3838 187.9302,-201.8706 165.6945,-191.7471"/>
<polygon fill="#191970" stroke="#191970" points="166.92,-188.4594 156.3685,-187.5011 164.0194,-194.8302 166.92,-188.4594"/>
</g>
<!-- Node7 -->
<g id="node8" class="node">
<title>Node7</title>
<g id="a_node8"><a xlink:href="api_2spec_2std__types_8h.html" target="_top" xlink:title="Standard C language types and definitions for ODP. ">
<polygon fill="#ffffff" stroke="#000000" points="219,-168.5 219,-187.5 356,-187.5 356,-168.5 219,-168.5"/>
<text text-anchor="middle" x="287.5" y="-175.5" font-family="Helvetica,sans-Serif" font-size="10.00" fill="#000000">odp/api/spec/std_types.h</text>
</a>
</g>
</g>
<!-- Node5&#45;&gt;Node7 -->
<g id="edge8" class="edge">
<title>Node5&#45;&gt;Node7</title>
<path fill="none" stroke="#191970" d="M263.5514,-224.2455C267.5019,-216.617 273.1097,-205.7881 277.9058,-196.5267"/>
<polygon fill="#191970" stroke="#191970" points="281.0159,-198.1321 282.5065,-187.6427 274.7999,-194.9131 281.0159,-198.1321"/>
</g>
<!-- Node7&#45;&gt;Node1 -->
<g id="edge9" class="edge">
<title>Node7&#45;&gt;Node1</title>
<path fill="none" stroke="#191970" d="M252.3905,-168.4251C226.9661,-160.6608 192.322,-148.3293 164.5,-132 131.3228,-112.5276 123.1292,-105.5517 98.5,-76 86.3753,-61.4519 75.9224,-42.5221 69.0662,-28.668"/>
<polygon fill="#191970" stroke="#191970" points="72.2079,-27.1249 64.737,-19.6124 65.8925,-30.1441 72.2079,-27.1249"/>
</g>
<!-- Node8 -->
<g id="node9" class="node">
<title>Node8</title>
<polygon fill="#ffffff" stroke="#bfbfbf" points="173,-112.5 173,-131.5 226,-131.5 226,-112.5 173,-112.5"/>
<text text-anchor="middle" x="199.5" y="-119.5" font-family="Helvetica,sans-Serif" font-size="10.00" fill="#000000">stdint.h</text>
</g>
<!-- Node7&#45;&gt;Node8 -->
<g id="edge10" class="edge">
<title>Node7&#45;&gt;Node8</title>
<path fill="none" stroke="#191970" d="M272.1716,-168.2455C258.6697,-159.6534 238.7878,-147.0014 223.2314,-137.1018"/>
<polygon fill="#191970" stroke="#191970" points="224.9685,-134.0587 214.6528,-131.6427 221.2103,-139.9643 224.9685,-134.0587"/>
</g>
<!-- Node9 -->
<g id="node10" class="node">
<title>Node9</title>
<g id="a_node10"><a xlink:href="api_2align_8h.html" target="_top" xlink:title="ODP alignments. ">
<polygon fill="#ffffff" stroke="#000000" points="244,-112.5 244,-131.5 333,-131.5 333,-112.5 244,-112.5"/>
<text text-anchor="middle" x="288.5" y="-119.5" font-family="Helvetica,sans-Serif" font-size="10.00" fill="#000000">odp/api/align.h</text>
</a>
</g>
</g>
<!-- Node7&#45;&gt;Node9 -->
<g id="edge11" class="edge">
<title>Node7&#45;&gt;Node9</title>
<path fill="none" stroke="#191970" d="M287.6742,-168.2455C287.8047,-160.9382 287.9876,-150.6944 288.1481,-141.7046"/>
<polygon fill="#191970" stroke="#191970" points="291.6486,-141.7036 288.3278,-131.6427 284.6497,-141.5786 291.6486,-141.7036"/>
</g>
<!-- Node7&#45;&gt;Node12 -->
<g id="edge16" class="edge">
<title>Node7&#45;&gt;Node12</title>
<path fill="none" stroke="#191970" d="M302.7438,-168.245C314.8519,-159.8557 331.5186,-146.7926 342.5,-132 366.4097,-99.7922 381.8595,-54.9191 389.2905,-29.536"/>
<polygon fill="#191970" stroke="#191970" points="392.7321,-30.2256 392.0641,-19.6518 385.9924,-28.3343 392.7321,-30.2256"/>
</g>
<!-- Node10 -->
<g id="node11" class="node">
<title>Node10</title>
<polygon fill="#ffffff" stroke="#bfbfbf" points="108,-56.5 108,-75.5 215,-75.5 215,-56.5 108,-56.5"/>
<text text-anchor="middle" x="161.5" y="-63.5" font-family="Helvetica,sans-Serif" font-size="10.00" fill="#000000">odp/api/abi/align.h</text>
</g>
<!-- Node9&#45;&gt;Node10 -->
<g id="edge12" class="edge">
<title>Node9&#45;&gt;Node10</title>
<path fill="none" stroke="#191970" d="M266.6679,-112.3733C246.1897,-103.3435 215.3601,-89.7494 192.3681,-79.6111"/>
<polygon fill="#191970" stroke="#191970" points="193.6093,-76.3333 183.0472,-75.5011 190.785,-82.7383 193.6093,-76.3333"/>
</g>
<!-- Node11 -->
<g id="node12" class="node">
<title>Node11</title>
<g id="a_node12"><a xlink:href="api_2spec_2align_8h.html" target="_top" xlink:title="ODP alignments. ">
<polygon fill="#ffffff" stroke="#000000" points="233.5,-56.5 233.5,-75.5 347.5,-75.5 347.5,-56.5 233.5,-56.5"/>
<text text-anchor="middle" x="290.5" y="-63.5" font-family="Helvetica,sans-Serif" font-size="10.00" fill="#000000">odp/api/spec/align.h</text>
</a>
</g>
</g>
<!-- Node9&#45;&gt;Node11 -->
<g id="edge13" class="edge">
<title>Node9&#45;&gt;Node11</title>
<path fill="none" stroke="#191970" d="M288.8484,-112.2455C289.1093,-104.9382 289.4752,-94.6944 289.7963,-85.7046"/>
<polygon fill="#191970" stroke="#191970" points="293.2964,-85.7613 290.1556,-75.6427 286.3008,-85.5113 293.2964,-85.7613"/>
</g>
<!-- Node11&#45;&gt;Node1 -->
<g id="edge14" class="edge">
<title>Node11&#45;&gt;Node1</title>
<path fill="none" stroke="#191970" d="M251.2229,-56.4369C212.0256,-46.8932 151.7,-32.2052 109.4165,-21.9101"/>
<polygon fill="#191970" stroke="#191970" points="110.1592,-18.4888 99.6151,-19.5237 108.5032,-25.2901 110.1592,-18.4888"/>
</g>
<!-- Node11&#45;&gt;Node12 -->
<g id="edge15" class="edge">
<title>Node11&#45;&gt;Node12</title>
<path fill="none" stroke="#191970" d="M308.6154,-56.2455C324.945,-47.4527 349.171,-34.4079 367.7339,-24.4125"/>
<polygon fill="#191970" stroke="#191970" points="369.4468,-27.4654 376.5922,-19.6427 366.1281,-21.3021 369.4468,-27.4654"/>
</g>
</g>
</svg>
