<?xml version="1.0" encoding="UTF-8" standalone="no"?>
<!DOCTYPE svg PUBLIC "-//W3C//DTD SVG 1.1//EN"
 "http://www.w3.org/Graphics/SVG/1.1/DTD/svg11.dtd">
<!-- Generated by graphviz version 2.40.1 (20161225.0304)
 -->
<!-- Title: align.h Pages: 1 -->
<svg width="2724pt" height="476pt"
 viewBox="0.00 0.00 2723.50 476.00" xmlns="http://www.w3.org/2000/svg" xmlns:xlink="http://www.w3.org/1999/xlink">
<g id="graph0" class="graph" transform="scale(1 1) rotate(0) translate(4 472)">
<title>align.h</title>
<polygon fill="#ffffff" stroke="transparent" points="-4,4 -4,-472 2719.5,-472 2719.5,4 -4,4"/>
<!-- Node5 -->
<g id="node1" class="node">
<title>Node5</title>
<polygon fill="#bfbfbf" stroke="#000000" points="1438.5,-448.5 1438.5,-467.5 1488.5,-467.5 1488.5,-448.5 1438.5,-448.5"/>
<text text-anchor="middle" x="1463.5" y="-455.5" font-family="Helvetica,sans-Serif" font-size="10.00" fill="#000000">align.h</text>
</g>
<!-- Node6 -->
<g id="node2" class="node">
<title>Node6</title>
<g id="a_node2"><a xlink:href="api_2abi-default_2atomic_8h.html" target="_top" xlink:title="ODP atomic operations. ">
<polygon fill="#ffffff" stroke="#000000" points="308,-280.5 308,-299.5 367,-299.5 367,-280.5 308,-280.5"/>
<text text-anchor="middle" x="337.5" y="-287.5" font-family="Helvetica,sans-Serif" font-size="10.00" fill="#000000">atomic.h</text>
</a>
</g>
</g>
<!-- Node5&#45;&gt;Node6 -->
<g id="edge1" class="edge">
<title>Node5&#45;&gt;Node6</title>
<path fill="none" stroke="#191970" d="M1428.5059,-452.7789C1258.9411,-427.4797 524.5004,-317.9006 367.2199,-294.4342"/>
<polygon fill="#191970" stroke="#191970" points="1427.9961,-456.2415 1438.4032,-454.2555 1429.0291,-449.3181 1427.9961,-456.2415"/>
</g>
<!-- Node24 -->
<g id="node13" class="node">
<title>Node24</title>
<g id="a_node13"><a xlink:href="odp__api_8h.html" target="_top" xlink:title="The OpenDataPlane API. ">
<polygon fill="#ffffff" stroke="#000000" points="2039.5,-56.5 2039.5,-75.5 2103.5,-75.5 2103.5,-56.5 2039.5,-56.5"/>
<text text-anchor="middle" x="2071.5" y="-63.5" font-family="Helvetica,sans-Serif" font-size="10.00" fill="#000000">odp_api.h</text>
</a>
</g>
</g>
<!-- Node5&#45;&gt;Node24 -->
<g id="edge67" class="edge">
<title>Node5&#45;&gt;Node24</title>
<path fill="none" stroke="#191970" d="M1498.6143,-456.7474C1701.5743,-449.2822 2715.5,-408.844 2715.5,-346 2715.5,-346 2715.5,-346 2715.5,-178 2715.5,-115.2293 2234.4696,-77.3013 2103.8774,-68.161"/>
<polygon fill="#191970" stroke="#191970" points="1498.3748,-453.2537 1488.5092,-457.1163 1498.6303,-460.249 1498.3748,-453.2537"/>
</g>
<!-- Node53 -->
<g id="node15" class="node">
<title>Node53</title>
<g id="a_node15"><a xlink:href="api_2abi-default_2cpumask_8h.html" target="_top" xlink:title="ODP CPU masks and enumeration. ">
<polygon fill="#ffffff" stroke="#000000" points="715.5,-280.5 715.5,-299.5 785.5,-299.5 785.5,-280.5 715.5,-280.5"/>
<text text-anchor="middle" x="750.5" y="-287.5" font-family="Helvetica,sans-Serif" font-size="10.00" fill="#000000">cpumask.h</text>
</a>
</g>
</g>
<!-- Node5&#45;&gt;Node53 -->
<g id="edge15" class="edge">
<title>Node5&#45;&gt;Node53</title>
<path fill="none" stroke="#191970" d="M1428.2287,-449.6892C1306.781,-421.0732 906.7501,-326.8163 785.5861,-298.2671"/>
<polygon fill="#191970" stroke="#191970" points="1427.5878,-453.134 1438.124,-452.0208 1429.1932,-446.3206 1427.5878,-453.134"/>
</g>
<!-- Node77 -->
<g id="node25" class="node">
<title>Node77</title>
<g id="a_node25"><a xlink:href="api_2spec_2std__types_8h.html" target="_top" xlink:title="Standard C language types and definitions for ODP. ">
<polygon fill="#ffffff" stroke="#000000" points="1812,-392.5 1812,-411.5 1885,-411.5 1885,-392.5 1812,-392.5"/>
<text text-anchor="middle" x="1848.5" y="-399.5" font-family="Helvetica,sans-Serif" font-size="10.00" fill="#000000">std_types.h</text>
</a>
</g>
</g>
<!-- Node5&#45;&gt;Node77 -->
<g id="edge26" class="edge">
<title>Node5&#45;&gt;Node77</title>
<path fill="none" stroke="#191970" d="M1498.8114,-452.8638C1571.6804,-442.2647 1738.0635,-418.0635 1811.9656,-407.3141"/>
<polygon fill="#191970" stroke="#191970" points="1498.153,-449.4226 1488.7609,-454.3257 1499.1606,-456.3498 1498.153,-449.4226"/>
</g>
<!-- Node7 -->
<g id="node3" class="node">
<title>Node7</title>
<g id="a_node3"><a xlink:href="arch_2arm32-linux_2odp_2api_2abi_2atomic_8h_source.html" target="_top" xlink:title="atomic.h">
<polygon fill="#ffffff" stroke="#000000" points="308,-224.5 308,-243.5 367,-243.5 367,-224.5 308,-224.5"/>
<text text-anchor="middle" x="337.5" y="-231.5" font-family="Helvetica,sans-Serif" font-size="10.00" fill="#000000">atomic.h</text>
</a>
</g>
</g>
<!-- Node6&#45;&gt;Node7 -->
<g id="edge2" class="edge">
<title>Node6&#45;&gt;Node7</title>
<path fill="none" stroke="#191970" d="M337.5,-270.1575C337.5,-261.155 337.5,-250.9199 337.5,-243.6427"/>
<polygon fill="#191970" stroke="#191970" points="334.0001,-270.2455 337.5,-280.2455 341.0001,-270.2456 334.0001,-270.2455"/>
</g>
<!-- Node8 -->
<g id="node4" class="node">
<title>Node8</title>
<g id="a_node4"><a xlink:href="arch_2arm64-linux_2odp_2api_2abi_2atomic_8h_source.html" target="_top" xlink:title="atomic.h">
<polygon fill="#ffffff" stroke="#000000" points="385,-224.5 385,-243.5 444,-243.5 444,-224.5 385,-224.5"/>
<text text-anchor="middle" x="414.5" y="-231.5" font-family="Helvetica,sans-Serif" font-size="10.00" fill="#000000">atomic.h</text>
</a>
</g>
</g>
<!-- Node6&#45;&gt;Node8 -->
<g id="edge3" class="edge">
<title>Node6&#45;&gt;Node8</title>
<path fill="none" stroke="#191970" d="M359.2116,-274.2097C372.7353,-264.3743 389.6958,-252.0394 401.2413,-243.6427"/>
<polygon fill="#191970" stroke="#191970" points="356.9411,-271.5332 350.9124,-280.2455 361.0584,-277.1944 356.9411,-271.5332"/>
</g>
<!-- Node9 -->
<g id="node5" class="node">
<title>Node9</title>
<g id="a_node5"><a xlink:href="arch_2default-linux_2odp_2api_2abi_2atomic_8h_source.html" target="_top" xlink:title="atomic.h">
<polygon fill="#ffffff" stroke="#000000" points="0,-224.5 0,-243.5 59,-243.5 59,-224.5 0,-224.5"/>
<text text-anchor="middle" x="29.5" y="-231.5" font-family="Helvetica,sans-Serif" font-size="10.00" fill="#000000">atomic.h</text>
</a>
</g>
</g>
<!-- Node6&#45;&gt;Node9 -->
<g id="edge4" class="edge">
<title>Node6&#45;&gt;Node9</title>
<path fill="none" stroke="#191970" d="M297.7994,-284.3619C244.9671,-276.6025 148.7595,-261.578 67.5,-244 64.833,-243.4231 62.0716,-242.7823 59.3106,-242.1117"/>
<polygon fill="#191970" stroke="#191970" points="297.3699,-287.8362 307.7702,-285.8156 298.3798,-280.9095 297.3699,-287.8362"/>
</g>
<!-- Node10 -->
<g id="node6" class="node">
<title>Node10</title>
<g id="a_node6"><a xlink:href="arch_2mips64-linux_2odp_2api_2abi_2atomic_8h_source.html" target="_top" xlink:title="atomic.h">
<polygon fill="#ffffff" stroke="#000000" points="77,-224.5 77,-243.5 136,-243.5 136,-224.5 77,-224.5"/>
<text text-anchor="middle" x="106.5" y="-231.5" font-family="Helvetica,sans-Serif" font-size="10.00" fill="#000000">atomic.h</text>
</a>
</g>
</g>
<!-- Node6&#45;&gt;Node10 -->
<g id="edge5" class="edge">
<title>Node6&#45;&gt;Node10</title>
<path fill="none" stroke="#191970" d="M297.7721,-280.8169C258.7057,-271.7194 197.4069,-257.2645 144.5,-244 141.8532,-243.3364 139.1058,-242.636 136.3538,-241.9266"/>
<polygon fill="#191970" stroke="#191970" points="297.1579,-284.2674 307.6908,-283.1228 298.7431,-277.4492 297.1579,-284.2674"/>
</g>
<!-- Node11 -->
<g id="node7" class="node">
<title>Node11</title>
<g id="a_node7"><a xlink:href="arch_2power64-linux_2odp_2api_2abi_2atomic_8h_source.html" target="_top" xlink:title="atomic.h">
<polygon fill="#ffffff" stroke="#000000" points="154,-224.5 154,-243.5 213,-243.5 213,-224.5 154,-224.5"/>
<text text-anchor="middle" x="183.5" y="-231.5" font-family="Helvetica,sans-Serif" font-size="10.00" fill="#000000">atomic.h</text>
</a>
</g>
</g>
<!-- Node6&#45;&gt;Node11 -->
<g id="edge6" class="edge">
<title>Node6&#45;&gt;Node11</title>
<path fill="none" stroke="#191970" d="M301.5386,-276.9231C273.3866,-266.686 234.8945,-252.6889 209.6281,-243.5011"/>
<polygon fill="#191970" stroke="#191970" points="300.4324,-280.245 311.0265,-280.3733 302.8246,-273.6665 300.4324,-280.245"/>
</g>
<!-- Node12 -->
<g id="node8" class="node">
<title>Node12</title>
<g id="a_node8"><a xlink:href="arch_2x86__32-linux_2odp_2api_2abi_2atomic_8h_source.html" target="_top" xlink:title="atomic.h">
<polygon fill="#ffffff" stroke="#000000" points="231,-224.5 231,-243.5 290,-243.5 290,-224.5 231,-224.5"/>
<text text-anchor="middle" x="260.5" y="-231.5" font-family="Helvetica,sans-Serif" font-size="10.00" fill="#000000">atomic.h</text>
</a>
</g>
</g>
<!-- Node6&#45;&gt;Node12 -->
<g id="edge7" class="edge">
<title>Node6&#45;&gt;Node12</title>
<path fill="none" stroke="#191970" d="M315.7884,-274.2097C302.2647,-264.3743 285.3042,-252.0394 273.7587,-243.6427"/>
<polygon fill="#191970" stroke="#191970" points="313.9416,-277.1944 324.0876,-280.2455 318.0589,-271.5332 313.9416,-277.1944"/>
</g>
<!-- Node13 -->
<g id="node9" class="node">
<title>Node13</title>
<g id="a_node9"><a xlink:href="arch_2x86__64-linux_2odp_2api_2abi_2atomic_8h_source.html" target="_top" xlink:title="atomic.h">
<polygon fill="#ffffff" stroke="#000000" points="462,-224.5 462,-243.5 521,-243.5 521,-224.5 462,-224.5"/>
<text text-anchor="middle" x="491.5" y="-231.5" font-family="Helvetica,sans-Serif" font-size="10.00" fill="#000000">atomic.h</text>
</a>
</g>
</g>
<!-- Node6&#45;&gt;Node13 -->
<g id="edge8" class="edge">
<title>Node6&#45;&gt;Node13</title>
<path fill="none" stroke="#191970" d="M373.4614,-276.9231C401.6134,-266.686 440.1055,-252.6889 465.3719,-243.5011"/>
<polygon fill="#191970" stroke="#191970" points="372.1754,-273.6665 363.9735,-280.3733 374.5676,-280.245 372.1754,-273.6665"/>
</g>
<!-- Node14 -->
<g id="node10" class="node">
<title>Node14</title>
<g id="a_node10"><a xlink:href="api_2atomic_8h.html" target="_top" xlink:title="ODP atomic operations. ">
<polygon fill="#ffffff" stroke="#ff0000" points="990,-168.5 990,-187.5 1049,-187.5 1049,-168.5 990,-168.5"/>
<text text-anchor="middle" x="1019.5" y="-175.5" font-family="Helvetica,sans-Serif" font-size="10.00" fill="#000000">atomic.h</text>
</a>
</g>
</g>
<!-- Node13&#45;&gt;Node14 -->
<g id="edge9" class="edge">
<title>Node13&#45;&gt;Node14</title>
<path fill="none" stroke="#191970" d="M531.082,-224.1615C710.4778,-193.5654 914.5839,-182.4659 989.7952,-179.1669"/>
<polygon fill="#191970" stroke="#191970" points="530.4629,-220.7165 521.206,-225.8701 531.6563,-227.614 530.4629,-220.7165"/>
</g>
<!-- Node15 -->
<g id="node11" class="node">
<title>Node15</title>
<g id="a_node11"><a xlink:href="api_2abi-default_2barrier_8h.html" target="_top" xlink:title="ODP barrier. ">
<polygon fill="#ffffff" stroke="#ff0000" points="1344,-112.5 1344,-131.5 1401,-131.5 1401,-112.5 1344,-112.5"/>
<text text-anchor="middle" x="1372.5" y="-119.5" font-family="Helvetica,sans-Serif" font-size="10.00" fill="#000000">barrier.h</text>
</a>
</g>
</g>
<!-- Node14&#45;&gt;Node15 -->
<g id="edge10" class="edge">
<title>Node14&#45;&gt;Node15</title>
<path fill="none" stroke="#191970" d="M1059.3174,-171.6834C1131.2339,-160.2745 1281.1406,-136.4933 1343.8993,-126.5372"/>
<polygon fill="#191970" stroke="#191970" points="1058.6204,-168.2501 1049.2924,-173.2737 1059.7173,-175.1636 1058.6204,-168.2501"/>
</g>
<!-- Node23 -->
<g id="node12" class="node">
<title>Node23</title>
<g id="a_node12"><a xlink:href="api_2barrier_8h.html" target="_top" xlink:title="ODP execution barriers. ">
<polygon fill="#ffffff" stroke="#000000" points="1049,-112.5 1049,-131.5 1106,-131.5 1106,-112.5 1049,-112.5"/>
<text text-anchor="middle" x="1077.5" y="-119.5" font-family="Helvetica,sans-Serif" font-size="10.00" fill="#000000">barrier.h</text>
</a>
</g>
</g>
<!-- Node14&#45;&gt;Node23 -->
<g id="edge11" class="edge">
<title>Node14&#45;&gt;Node23</title>
<path fill="none" stroke="#191970" d="M1037.0293,-161.0751C1047.0083,-151.4402 1059.1476,-139.7196 1067.5129,-131.6427"/>
<polygon fill="#191970" stroke="#191970" points="1034.3658,-158.7817 1029.6028,-168.2455 1039.228,-163.8175 1034.3658,-158.7817"/>
</g>
<!-- Node14&#45;&gt;Node24 -->
<g id="edge14" class="edge">
<title>Node14&#45;&gt;Node24</title>
<path fill="none" stroke="#191970" d="M1019.7414,-158.0502C1021.0936,-142.8549 1025.6375,-122.7711 1039.5,-112 1079.9281,-80.5877 1869.5159,-68.6127 2039.4542,-66.394"/>
<polygon fill="#191970" stroke="#191970" points="1016.2239,-158.3221 1019.228,-168.4821 1023.2154,-158.6663 1016.2239,-158.3221"/>
</g>
<!-- Node23&#45;&gt;Node24 -->
<g id="edge12" class="edge">
<title>Node23&#45;&gt;Node24</title>
<path fill="none" stroke="#191970" d="M1116.5773,-119.7985C1278.0091,-110.7037 1891.3719,-76.1481 2039.2695,-67.8158"/>
<polygon fill="#191970" stroke="#191970" points="1115.9638,-116.3274 1106.1765,-120.3844 1116.3576,-123.3163 1115.9638,-116.3274"/>
</g>
<!-- Node25 -->
<g id="node14" class="node">
<title>Node25</title>
<g id="a_node14"><a xlink:href="odp_8h.html" target="_top" xlink:title="WARNING: THIS FILE IS DEPRECATED AND WILL BE REMOVED!!! ODP APPLICATIONS SHOULD NOW INCLUDE odp_api...">
<polygon fill="#ffffff" stroke="#000000" points="2049.5,-.5 2049.5,-19.5 2093.5,-19.5 2093.5,-.5 2049.5,-.5"/>
<text text-anchor="middle" x="2071.5" y="-7.5" font-family="Helvetica,sans-Serif" font-size="10.00" fill="#000000">odp.h</text>
</a>
</g>
</g>
<!-- Node24&#45;&gt;Node25 -->
<g id="edge13" class="edge">
<title>Node24&#45;&gt;Node25</title>
<path fill="none" stroke="#191970" d="M2071.5,-46.1575C2071.5,-37.155 2071.5,-26.9199 2071.5,-19.6427"/>
<polygon fill="#191970" stroke="#191970" points="2068.0001,-46.2455 2071.5,-56.2455 2075.0001,-46.2456 2068.0001,-46.2455"/>
</g>
<!-- Node54 -->
<g id="node16" class="node">
<title>Node54</title>
<g id="a_node16"><a xlink:href="arch_2arm32-linux_2odp_2api_2abi_2cpumask_8h_source.html" target="_top" xlink:title="cpumask.h">
<polygon fill="#ffffff" stroke="#000000" points="979.5,-224.5 979.5,-243.5 1049.5,-243.5 1049.5,-224.5 979.5,-224.5"/>
<text text-anchor="middle" x="1014.5" y="-231.5" font-family="Helvetica,sans-Serif" font-size="10.00" fill="#000000">cpumask.h</text>
</a>
</g>
</g>
<!-- Node53&#45;&gt;Node54 -->
<g id="edge16" class="edge">
<title>Node53&#45;&gt;Node54</title>
<path fill="none" stroke="#191970" d="M795.9466,-280.5946C850.2347,-269.3423 937.8184,-251.13 970.5,-244 973.4084,-243.3655 976.4228,-242.699 979.4478,-242.024"/>
<polygon fill="#191970" stroke="#191970" points="794.9705,-277.2224 785.8886,-282.6786 796.3908,-284.0768 794.9705,-277.2224"/>
</g>
<!-- Node55 -->
<g id="node17" class="node">
<title>Node55</title>
<g id="a_node17"><a xlink:href="arch_2arm64-linux_2odp_2api_2abi_2cpumask_8h_source.html" target="_top" xlink:title="cpumask.h">
<polygon fill="#ffffff" stroke="#000000" points="539.5,-224.5 539.5,-243.5 609.5,-243.5 609.5,-224.5 539.5,-224.5"/>
<text text-anchor="middle" x="574.5" y="-231.5" font-family="Helvetica,sans-Serif" font-size="10.00" fill="#000000">cpumask.h</text>
</a>
</g>
</g>
<!-- Node53&#45;&gt;Node55 -->
<g id="edge17" class="edge">
<title>Node53&#45;&gt;Node55</title>
<path fill="none" stroke="#191970" d="M710.6596,-277.3235C678.3827,-267.0536 633.6148,-252.8093 604.3607,-243.5011"/>
<polygon fill="#191970" stroke="#191970" points="709.654,-280.6764 720.2445,-280.3733 711.7765,-274.0059 709.654,-280.6764"/>
</g>
<!-- Node56 -->
<g id="node18" class="node">
<title>Node56</title>
<g id="a_node18"><a xlink:href="arch_2default-linux_2odp_2api_2abi_2cpumask_8h_source.html" target="_top" xlink:title="cpumask.h">
<polygon fill="#ffffff" stroke="#000000" points="627.5,-224.5 627.5,-243.5 697.5,-243.5 697.5,-224.5 627.5,-224.5"/>
<text text-anchor="middle" x="662.5" y="-231.5" font-family="Helvetica,sans-Serif" font-size="10.00" fill="#000000">cpumask.h</text>
</a>
</g>
</g>
<!-- Node53&#45;&gt;Node56 -->
<g id="edge18" class="edge">
<title>Node53&#45;&gt;Node56</title>
<path fill="none" stroke="#191970" d="M726.5655,-274.769C710.9717,-264.8456 691.099,-252.1994 677.6528,-243.6427"/>
<polygon fill="#191970" stroke="#191970" points="724.8559,-277.8296 735.1716,-280.2455 728.614,-271.9239 724.8559,-277.8296"/>
</g>
<!-- Node57 -->
<g id="node19" class="node">
<title>Node57</title>
<g id="a_node19"><a xlink:href="arch_2mips64-linux_2odp_2api_2abi_2cpumask_8h_source.html" target="_top" xlink:title="cpumask.h">
<polygon fill="#ffffff" stroke="#000000" points="715.5,-224.5 715.5,-243.5 785.5,-243.5 785.5,-224.5 715.5,-224.5"/>
<text text-anchor="middle" x="750.5" y="-231.5" font-family="Helvetica,sans-Serif" font-size="10.00" fill="#000000">cpumask.h</text>
</a>
</g>
</g>
<!-- Node53&#45;&gt;Node57 -->
<g id="edge19" class="edge">
<title>Node53&#45;&gt;Node57</title>
<path fill="none" stroke="#191970" d="M750.5,-270.1575C750.5,-261.155 750.5,-250.9199 750.5,-243.6427"/>
<polygon fill="#191970" stroke="#191970" points="747.0001,-270.2455 750.5,-280.2455 754.0001,-270.2456 747.0001,-270.2455"/>
</g>
<!-- Node58 -->
<g id="node20" class="node">
<title>Node58</title>
<g id="a_node20"><a xlink:href="arch_2power64-linux_2odp_2api_2abi_2cpumask_8h_source.html" target="_top" xlink:title="cpumask.h">
<polygon fill="#ffffff" stroke="#000000" points="803.5,-224.5 803.5,-243.5 873.5,-243.5 873.5,-224.5 803.5,-224.5"/>
<text text-anchor="middle" x="838.5" y="-231.5" font-family="Helvetica,sans-Serif" font-size="10.00" fill="#000000">cpumask.h</text>
</a>
</g>
</g>
<!-- Node53&#45;&gt;Node58 -->
<g id="edge20" class="edge">
<title>Node53&#45;&gt;Node58</title>
<path fill="none" stroke="#191970" d="M774.4345,-274.769C790.0283,-264.8456 809.901,-252.1994 823.3472,-243.6427"/>
<polygon fill="#191970" stroke="#191970" points="772.386,-271.9239 765.8284,-280.2455 776.1441,-277.8296 772.386,-271.9239"/>
</g>
<!-- Node59 -->
<g id="node21" class="node">
<title>Node59</title>
<g id="a_node21"><a xlink:href="arch_2x86__32-linux_2odp_2api_2abi_2cpumask_8h_source.html" target="_top" xlink:title="cpumask.h">
<polygon fill="#ffffff" stroke="#000000" points="891.5,-224.5 891.5,-243.5 961.5,-243.5 961.5,-224.5 891.5,-224.5"/>
<text text-anchor="middle" x="926.5" y="-231.5" font-family="Helvetica,sans-Serif" font-size="10.00" fill="#000000">cpumask.h</text>
</a>
</g>
</g>
<!-- Node53&#45;&gt;Node59 -->
<g id="edge21" class="edge">
<title>Node53&#45;&gt;Node59</title>
<path fill="none" stroke="#191970" d="M790.3404,-277.3235C822.6173,-267.0536 867.3852,-252.8093 896.6393,-243.5011"/>
<polygon fill="#191970" stroke="#191970" points="789.2235,-274.0059 780.7555,-280.3733 791.346,-280.6764 789.2235,-274.0059"/>
</g>
<!-- Node60 -->
<g id="node22" class="node">
<title>Node60</title>
<g id="a_node22"><a xlink:href="arch_2x86__64-linux_2odp_2api_2abi_2cpumask_8h_source.html" target="_top" xlink:title="cpumask.h">
<polygon fill="#ffffff" stroke="#000000" points="1299.5,-224.5 1299.5,-243.5 1369.5,-243.5 1369.5,-224.5 1299.5,-224.5"/>
<text text-anchor="middle" x="1334.5" y="-231.5" font-family="Helvetica,sans-Serif" font-size="10.00" fill="#000000">cpumask.h</text>
</a>
</g>
</g>
<!-- Node53&#45;&gt;Node60 -->
<g id="edge22" class="edge">
<title>Node53&#45;&gt;Node60</title>
<path fill="none" stroke="#191970" d="M795.7864,-284.231C807.7193,-282.7783 820.588,-281.2718 832.5,-280 1007.6344,-261.3012 1217.6494,-243.5737 1299.4696,-236.8463"/>
<polygon fill="#191970" stroke="#191970" points="795.0858,-280.7907 785.5884,-285.4865 795.9412,-287.7383 795.0858,-280.7907"/>
</g>
<!-- Node61 -->
<g id="node23" class="node">
<title>Node61</title>
<g id="a_node23"><a xlink:href="api_2cpumask_8h.html" target="_top" xlink:title="ODP CPU masks and enumeration. ">
<polygon fill="#ffffff" stroke="#ff0000" points="1750.5,-168.5 1750.5,-187.5 1820.5,-187.5 1820.5,-168.5 1750.5,-168.5"/>
<text text-anchor="middle" x="1785.5" y="-175.5" font-family="Helvetica,sans-Serif" font-size="10.00" fill="#000000">cpumask.h</text>
</a>
</g>
</g>
<!-- Node60&#45;&gt;Node61 -->
<g id="edge23" class="edge">
<title>Node60&#45;&gt;Node61</title>
<path fill="none" stroke="#191970" d="M1379.6588,-228.3927C1469.5289,-217.2337 1669.0893,-192.4545 1750.1974,-182.3835"/>
<polygon fill="#191970" stroke="#191970" points="1379.0064,-224.9467 1369.5139,-229.6524 1379.869,-231.8934 1379.0064,-224.9467"/>
</g>
<!-- Node61&#45;&gt;Node24 -->
<g id="edge25" class="edge">
<title>Node61&#45;&gt;Node24</title>
<path fill="none" stroke="#191970" d="M1787.8044,-157.9359C1790.6099,-143.0082 1796.8125,-123.3332 1810.5,-112 1844.8762,-83.5366 1977.038,-71.7962 2039.0375,-67.7789"/>
<polygon fill="#191970" stroke="#191970" points="1784.2855,-157.7985 1786.2535,-168.209 1791.2071,-158.8435 1784.2855,-157.7985"/>
</g>
<!-- Node73 -->
<g id="node24" class="node">
<title>Node73</title>
<g id="a_node24"><a xlink:href="api_2spec_2init_8h.html" target="_top" xlink:title="init.h">
<polygon fill="#ffffff" stroke="#ff0000" points="1820,-112.5 1820,-131.5 1861,-131.5 1861,-112.5 1820,-112.5"/>
<text text-anchor="middle" x="1840.5" y="-119.5" font-family="Helvetica,sans-Serif" font-size="10.00" fill="#000000">init.h</text>
</a>
</g>
</g>
<!-- Node61&#45;&gt;Node73 -->
<g id="edge24" class="edge">
<title>Node61&#45;&gt;Node73</title>
<path fill="none" stroke="#191970" d="M1802.1226,-161.0751C1811.5855,-151.4402 1823.0969,-139.7196 1831.0295,-131.6427"/>
<polygon fill="#191970" stroke="#191970" points="1799.5903,-158.6585 1795.0803,-168.2455 1804.5845,-163.5635 1799.5903,-158.6585"/>
</g>
<!-- Node78 -->
<g id="node26" class="node">
<title>Node78</title>
<g id="a_node26"><a xlink:href="api_2std__types_8h.html" target="_top" xlink:title="Standard C language types and definitions for ODP. ">
<polygon fill="#ffffff" stroke="#ff0000" points="1812,-336.5 1812,-355.5 1885,-355.5 1885,-336.5 1812,-336.5"/>
<text text-anchor="middle" x="1848.5" y="-343.5" font-family="Helvetica,sans-Serif" font-size="10.00" fill="#000000">std_types.h</text>
</a>
</g>
</g>
<!-- Node77&#45;&gt;Node78 -->
<g id="edge27" class="edge">
<title>Node77&#45;&gt;Node78</title>
<path fill="none" stroke="#191970" d="M1848.5,-382.1575C1848.5,-373.155 1848.5,-362.9199 1848.5,-355.6427"/>
<polygon fill="#191970" stroke="#191970" points="1845.0001,-382.2455 1848.5,-392.2455 1852.0001,-382.2456 1845.0001,-382.2455"/>
</g>
<!-- Node78&#45;&gt;Node6 -->
<g id="edge28" class="edge">
<title>Node78&#45;&gt;Node6</title>
<path fill="none" stroke="#191970" d="M1801.8128,-344.2697C1570.8853,-335.7112 554.4125,-298.0391 367.1938,-291.1005"/>
<polygon fill="#191970" stroke="#191970" points="1801.7751,-347.7706 1811.8979,-344.6435 1802.0344,-340.7754 1801.7751,-347.7706"/>
</g>
<!-- Node78&#45;&gt;Node15 -->
<g id="edge29" class="edge">
<title>Node78&#45;&gt;Node15</title>
<path fill="none" stroke="#191970" d="M1801.849,-343.1799C1752.4807,-338.8022 1673.1979,-327.7393 1610.5,-300 1559.3038,-277.3494 1423.8931,-165.2019 1383.8234,-131.5576"/>
<polygon fill="#191970" stroke="#191970" points="1801.6573,-346.6759 1811.9129,-344.0161 1802.2371,-339.7 1801.6573,-346.6759"/>
</g>
<!-- Node78&#45;&gt;Node23 -->
<g id="edge39" class="edge">
<title>Node78&#45;&gt;Node23</title>
<path fill="none" stroke="#191970" d="M1801.7166,-345.6594C1606.6213,-344.0141 866.379,-335.4476 832.5,-300 826.3584,-293.574 826.7301,-286.7617 832.5,-280 898.5216,-202.6293 986.7044,-316.045 1058.5,-244 1089.2162,-213.1771 1083.1656,-154.5238 1079.3437,-131.5589"/>
<polygon fill="#191970" stroke="#191970" points="1801.8953,-349.1609 1811.9238,-345.7433 1801.9529,-342.1611 1801.8953,-349.1609"/>
</g>
<!-- Node78&#45;&gt;Node24 -->
<g id="edge66" class="edge">
<title>Node78&#45;&gt;Node24</title>
<path fill="none" stroke="#191970" d="M1895.2304,-343.0052C1994.9865,-336.2782 2222.1131,-319.0595 2251.5,-300 2280.0859,-281.46 2290.5,-268.0718 2290.5,-234 2290.5,-234 2290.5,-234 2290.5,-178 2290.5,-95.1534 2164.7327,-73.5518 2103.8142,-67.9479"/>
<polygon fill="#191970" stroke="#191970" points="1894.877,-339.5209 1885.1324,-343.6796 1895.3435,-346.5053 1894.877,-339.5209"/>
</g>
<!-- Node78&#45;&gt;Node53 -->
<g id="edge31" class="edge">
<title>Node78&#45;&gt;Node53</title>
<path fill="none" stroke="#191970" d="M1801.8373,-344.9322C1625.2251,-340.7387 997.7353,-324.4201 799.5,-300 795.0191,-299.448 790.3368,-298.7077 785.7199,-297.8783"/>
<polygon fill="#191970" stroke="#191970" points="1801.7683,-348.4315 1811.8481,-345.1683 1801.9335,-341.4334 1801.7683,-348.4315"/>
</g>
<!-- Node78&#45;&gt;Node73 -->
<g id="edge59" class="edge">
<title>Node78&#45;&gt;Node73</title>
<path fill="none" stroke="#191970" d="M1847.7899,-326.1177C1846.1311,-279.6713 1842.0508,-165.4223 1840.8425,-131.5891"/>
<polygon fill="#191970" stroke="#191970" points="1844.3015,-326.5063 1848.1563,-336.375 1851.297,-326.2564 1844.3015,-326.5063"/>
</g>
<!-- Node79 -->
<g id="node27" class="node">
<title>Node79</title>
<g id="a_node27"><a xlink:href="api_2abi-default_2byteorder_8h.html" target="_top" xlink:title="ODP byteorder. ">
<polygon fill="#ffffff" stroke="#ff0000" points="2356.5,-280.5 2356.5,-299.5 2428.5,-299.5 2428.5,-280.5 2356.5,-280.5"/>
<text text-anchor="middle" x="2392.5" y="-287.5" font-family="Helvetica,sans-Serif" font-size="10.00" fill="#000000">byteorder.h</text>
</a>
</g>
</g>
<!-- Node78&#45;&gt;Node79 -->
<g id="edge30" class="edge">
<title>Node78&#45;&gt;Node79</title>
<path fill="none" stroke="#191970" d="M1895.4076,-343.2717C1983.4029,-337.7905 2179.1091,-323.8796 2342.5,-300 2346.9673,-299.3471 2351.6391,-298.5575 2356.2565,-297.7115"/>
<polygon fill="#191970" stroke="#191970" points="1894.986,-339.7909 1885.2198,-343.8984 1895.4159,-346.7777 1894.986,-339.7909"/>
</g>
<!-- Node88 -->
<g id="node28" class="node">
<title>Node88</title>
<g id="a_node28"><a xlink:href="api_2abi-default_2init_8h.html" target="_top" xlink:title="ODP initialization. ">
<polygon fill="#ffffff" stroke="#ff0000" points="2447,-280.5 2447,-299.5 2488,-299.5 2488,-280.5 2447,-280.5"/>
<text text-anchor="middle" x="2467.5" y="-287.5" font-family="Helvetica,sans-Serif" font-size="10.00" fill="#000000">init.h</text>
</a>
</g>
</g>
<!-- Node78&#45;&gt;Node88 -->
<g id="edge32" class="edge">
<title>Node78&#45;&gt;Node88</title>
<path fill="none" stroke="#191970" d="M1895.2862,-343.8209C2015.6752,-337.9777 2333.9592,-320.9721 2437.5,-300 2440.5132,-299.3897 2443.6437,-298.5678 2446.696,-297.6563"/>
<polygon fill="#191970" stroke="#191970" points="1895.0943,-340.326 1885.2743,-344.3032 1895.4312,-347.3179 1895.0943,-340.326"/>
</g>
<!-- Node96 -->
<g id="node29" class="node">
<title>Node96</title>
<g id="a_node29"><a xlink:href="api_2abi-default_2ipsec_8h.html" target="_top" xlink:title="ODP IPSEC API &#45; platform specific types. ">
<polygon fill="#ffffff" stroke="#ff0000" points="2545,-280.5 2545,-299.5 2596,-299.5 2596,-280.5 2545,-280.5"/>
<text text-anchor="middle" x="2570.5" y="-287.5" font-family="Helvetica,sans-Serif" font-size="10.00" fill="#000000">ipsec.h</text>
</a>
</g>
</g>
<!-- Node78&#45;&gt;Node96 -->
<g id="edge33" class="edge">
<title>Node78&#45;&gt;Node96</title>
<path fill="none" stroke="#191970" d="M1895.5334,-343.9184C2028.8777,-337.8434 2407.6603,-319.3404 2530.5,-300 2535.1669,-299.2652 2540.0861,-298.2446 2544.8174,-297.1345"/>
<polygon fill="#191970" stroke="#191970" points="1895.0813,-340.4352 1885.25,-344.3844 1895.3982,-347.428 1895.0813,-340.4352"/>
</g>
<!-- Node105 -->
<g id="node30" class="node">
<title>Node105</title>
<g id="a_node30"><a xlink:href="api_2abi-default_2packet__io_8h.html" target="_top" xlink:title="ODP Packet IO. ">
<polygon fill="#ffffff" stroke="#ff0000" points="2614,-280.5 2614,-299.5 2687,-299.5 2687,-280.5 2614,-280.5"/>
<text text-anchor="middle" x="2650.5" y="-287.5" font-family="Helvetica,sans-Serif" font-size="10.00" fill="#000000">packet_io.h</text>
</a>
</g>
</g>
<!-- Node78&#45;&gt;Node105 -->
<g id="edge34" class="edge">
<title>Node78&#45;&gt;Node105</title>
<path fill="none" stroke="#191970" d="M1895.2023,-344.0986C2037.8141,-338.1437 2466.3079,-319.1103 2604.5,-300 2607.5763,-299.5746 2610.7529,-299.0551 2613.9322,-298.4789"/>
<polygon fill="#191970" stroke="#191970" points="1894.8879,-340.6085 1885.0419,-344.5209 1895.1786,-347.6025 1894.8879,-340.6085"/>
</g>
<!-- Node35 -->
<g id="node31" class="node">
<title>Node35</title>
<g id="a_node31"><a xlink:href="api_2abi-default_2rwlock__recursive_8h.html" target="_top" xlink:title="ODP recursive read/write lock. ">
<polygon fill="#ffffff" stroke="#ff0000" points="841.5,-280.5 841.5,-299.5 949.5,-299.5 949.5,-280.5 841.5,-280.5"/>
<text text-anchor="middle" x="895.5" y="-287.5" font-family="Helvetica,sans-Serif" font-size="10.00" fill="#000000">rwlock_recursive.h</text>
</a>
</g>
</g>
<!-- Node78&#45;&gt;Node35 -->
<g id="edge35" class="edge">
<title>Node78&#45;&gt;Node35</title>
<path fill="none" stroke="#191970" d="M1801.7425,-345.3244C1669.2088,-343.0346 1279.8604,-333.7141 958.5,-300 955.6364,-299.6996 952.7046,-299.357 949.748,-298.984"/>
<polygon fill="#191970" stroke="#191970" points="1801.8813,-348.8271 1811.9386,-345.4953 1801.9987,-341.8281 1801.8813,-348.8271"/>
</g>
<!-- Node133 -->
<g id="node32" class="node">
<title>Node133</title>
<g id="a_node32"><a xlink:href="api_2abi-default_2schedule_8h.html" target="_top" xlink:title="ODP schedule. ">
<polygon fill="#ffffff" stroke="#ff0000" points="968,-280.5 968,-299.5 1037,-299.5 1037,-280.5 968,-280.5"/>
<text text-anchor="middle" x="1002.5" y="-287.5" font-family="Helvetica,sans-Serif" font-size="10.00" fill="#000000">schedule.h</text>
</a>
</g>
</g>
<!-- Node78&#45;&gt;Node133 -->
<g id="edge36" class="edge">
<title>Node78&#45;&gt;Node133</title>
<path fill="none" stroke="#191970" d="M1801.4629,-344.3307C1652.7402,-338.8907 1193.8306,-320.82 1046.5,-300 1043.5525,-299.5835 1040.5105,-299.0703 1037.4671,-298.4983"/>
<polygon fill="#191970" stroke="#191970" points="1801.5056,-347.8345 1811.6263,-344.7004 1801.7602,-340.8391 1801.5056,-347.8345"/>
</g>
<!-- Node141 -->
<g id="node33" class="node">
<title>Node141</title>
<g id="a_node33"><a xlink:href="api_2abi-default_2spinlock__recursive_8h.html" target="_top" xlink:title="ODP recursive spinlock. ">
<polygon fill="#ffffff" stroke="#ff0000" points="1055.5,-280.5 1055.5,-299.5 1171.5,-299.5 1171.5,-280.5 1055.5,-280.5"/>
<text text-anchor="middle" x="1113.5" y="-287.5" font-family="Helvetica,sans-Serif" font-size="10.00" fill="#000000">spinlock_recursive.h</text>
</a>
</g>
</g>
<!-- Node78&#45;&gt;Node141 -->
<g id="edge37" class="edge">
<title>Node78&#45;&gt;Node141</title>
<path fill="none" stroke="#191970" d="M1801.8333,-344.0633C1692.8281,-339.261 1413.0813,-325.3244 1180.5,-300 1177.5771,-299.6817 1174.5861,-299.3303 1171.5682,-298.9551"/>
<polygon fill="#191970" stroke="#191970" points="1801.6989,-347.5607 1811.8418,-344.4996 1802.0038,-340.5673 1801.6989,-347.5607"/>
</g>
<!-- Node150 -->
<g id="node34" class="node">
<title>Node150</title>
<g id="a_node34"><a xlink:href="api_2abi-default_2traffic__mngr_8h.html" target="_top" xlink:title="ODP traffic mngr. ">
<polygon fill="#ffffff" stroke="#ff0000" points="1189.5,-280.5 1189.5,-299.5 1273.5,-299.5 1273.5,-280.5 1189.5,-280.5"/>
<text text-anchor="middle" x="1231.5" y="-287.5" font-family="Helvetica,sans-Serif" font-size="10.00" fill="#000000">traffic_mngr.h</text>
</a>
</g>
</g>
<!-- Node78&#45;&gt;Node150 -->
<g id="edge38" class="edge">
<title>Node78&#45;&gt;Node150</title>
<path fill="none" stroke="#191970" d="M1801.8577,-343.9884C1704.8151,-339.4123 1474.2498,-326.5053 1282.5,-300 1279.6399,-299.6047 1276.698,-299.1519 1273.7393,-298.6623"/>
<polygon fill="#191970" stroke="#191970" points="1801.7739,-347.4882 1811.9255,-344.4557 1802.0985,-340.4957 1801.7739,-347.4882"/>
</g>
<!-- Node158 -->
<g id="node35" class="node">
<title>Node158</title>
<g id="a_node35"><a xlink:href="api_2buffer_8h.html" target="_top" xlink:title="ODP buffer descriptor. ">
<polygon fill="#ffffff" stroke="#000000" points="2319,-168.5 2319,-187.5 2372,-187.5 2372,-168.5 2319,-168.5"/>
<text text-anchor="middle" x="2345.5" y="-175.5" font-family="Helvetica,sans-Serif" font-size="10.00" fill="#000000">buffer.h</text>
</a>
</g>
</g>
<!-- Node78&#45;&gt;Node158 -->
<g id="edge40" class="edge">
<title>Node78&#45;&gt;Node158</title>
<path fill="none" stroke="#191970" d="M1895.4535,-344.1198C2005.4623,-339.3141 2272.983,-325.1528 2304.5,-300 2340.1279,-271.5664 2345.0092,-210.9777 2345.5223,-187.5367"/>
<polygon fill="#191970" stroke="#191970" points="1895.1528,-340.6294 1885.3124,-344.5558 1895.4535,-347.623 1895.1528,-340.6294"/>
</g>
<!-- Node113 -->
<g id="node36" class="node">
<title>Node113</title>
<g id="a_node36"><a xlink:href="api_2classification_8h.html" target="_top" xlink:title="ODP classification descriptor. ">
<polygon fill="#ffffff" stroke="#ff0000" points="2439,-168.5 2439,-187.5 2528,-187.5 2528,-168.5 2439,-168.5"/>
<text text-anchor="middle" x="2483.5" y="-175.5" font-family="Helvetica,sans-Serif" font-size="10.00" fill="#000000">classification.h</text>
</a>
</g>
</g>
<!-- Node78&#45;&gt;Node113 -->
<g id="edge42" class="edge">
<title>Node78&#45;&gt;Node113</title>
<path fill="none" stroke="#191970" d="M1895.6337,-344.3965C2041.3493,-339.2133 2476.0397,-321.9642 2496.5,-300 2525.8277,-268.5166 2500.7786,-210.7583 2488.906,-187.7924"/>
<polygon fill="#191970" stroke="#191970" points="1895.1184,-340.9125 1885.248,-344.7629 1895.3652,-347.9081 1895.1184,-340.9125"/>
</g>
<!-- Node119 -->
<g id="node37" class="node">
<title>Node119</title>
<g id="a_node37"><a xlink:href="api_2crypto_8h.html" target="_top" xlink:title="ODP crypto. ">
<polygon fill="#ffffff" stroke="#ff0000" points="1882.5,-112.5 1882.5,-131.5 1938.5,-131.5 1938.5,-112.5 1882.5,-112.5"/>
<text text-anchor="middle" x="1910.5" y="-119.5" font-family="Helvetica,sans-Serif" font-size="10.00" fill="#000000">crypto.h</text>
</a>
</g>
</g>
<!-- Node78&#45;&gt;Node119 -->
<g id="edge44" class="edge">
<title>Node78&#45;&gt;Node119</title>
<path fill="none" stroke="#191970" d="M1853.8407,-326.7044C1866.5905,-280.6409 1898.4416,-165.5657 1907.8459,-131.5891"/>
<polygon fill="#191970" stroke="#191970" points="1850.4585,-325.8037 1851.1641,-336.375 1857.2049,-327.671 1850.4585,-325.8037"/>
</g>
<!-- Node115 -->
<g id="node38" class="node">
<title>Node115</title>
<g id="a_node38"><a xlink:href="api_2packet_8h.html" target="_top" xlink:title="ODP packet descriptor. ">
<polygon fill="#ffffff" stroke="#ff0000" points="2029,-280.5 2029,-299.5 2088,-299.5 2088,-280.5 2029,-280.5"/>
<text text-anchor="middle" x="2058.5" y="-287.5" font-family="Helvetica,sans-Serif" font-size="10.00" fill="#000000">packet.h</text>
</a>
</g>
</g>
<!-- Node78&#45;&gt;Node115 -->
<g id="edge46" class="edge">
<title>Node78&#45;&gt;Node115</title>
<path fill="none" stroke="#191970" d="M1894.3355,-333.7772C1935.2535,-322.8657 1993.9671,-307.2088 2028.965,-297.876"/>
<polygon fill="#191970" stroke="#191970" points="1893.3608,-330.4147 1884.6003,-336.3733 1895.1645,-337.1784 1893.3608,-330.4147"/>
</g>
<!-- Node131 -->
<g id="node39" class="node">
<title>Node131</title>
<g id="a_node39"><a xlink:href="api_2spec_2packet__flags_8h.html" target="_top" xlink:title="ODP packet flags. ">
<polygon fill="#ffffff" stroke="#ff0000" points="1991,-224.5 1991,-243.5 2078,-243.5 2078,-224.5 1991,-224.5"/>
<text text-anchor="middle" x="2034.5" y="-231.5" font-family="Helvetica,sans-Serif" font-size="10.00" fill="#000000">packet_flags.h</text>
</a>
</g>
</g>
<!-- Node78&#45;&gt;Node131 -->
<g id="edge60" class="edge">
<title>Node78&#45;&gt;Node131</title>
<path fill="none" stroke="#191970" d="M1895.0902,-335.3741C1920.6073,-328.1052 1951.9391,-316.7099 1976.5,-300 1999.2016,-284.5551 2018.6534,-258.2002 2028.2021,-243.9132"/>
<polygon fill="#191970" stroke="#191970" points="1893.9921,-332.0456 1885.2653,-338.0534 1895.8339,-338.799 1893.9921,-332.0456"/>
</g>
<!-- Node127 -->
<g id="node40" class="node">
<title>Node127</title>
<g id="a_node40"><a xlink:href="api_2packet__io_8h.html" target="_top" xlink:title="ODP Packet IO. ">
<polygon fill="#ffffff" stroke="#ff0000" points="1915,-168.5 1915,-187.5 1988,-187.5 1988,-168.5 1915,-168.5"/>
<text text-anchor="middle" x="1951.5" y="-175.5" font-family="Helvetica,sans-Serif" font-size="10.00" fill="#000000">packet_io.h</text>
</a>
</g>
</g>
<!-- Node78&#45;&gt;Node127 -->
<g id="edge49" class="edge">
<title>Node78&#45;&gt;Node127</title>
<path fill="none" stroke="#191970" d="M1870.5348,-330.2236C1880.6877,-322.095 1892.2786,-311.4856 1900.5,-300 1927.2241,-262.6654 1943.3197,-209.2032 1949.0828,-187.6"/>
<polygon fill="#191970" stroke="#191970" points="1868.2491,-327.5659 1862.4503,-336.4329 1872.513,-333.1175 1868.2491,-327.5659"/>
</g>
<!-- Node159 -->
<g id="node41" class="node">
<title>Node159</title>
<g id="a_node41"><a xlink:href="api_2proto__stats_8h.html" target="_top" xlink:title="ODP proto stats. ">
<polygon fill="#ffffff" stroke="#000000" points="1997.5,-112.5 1997.5,-131.5 2077.5,-131.5 2077.5,-112.5 1997.5,-112.5"/>
<text text-anchor="middle" x="2037.5" y="-119.5" font-family="Helvetica,sans-Serif" font-size="10.00" fill="#000000">proto_stats.h</text>
</a>
</g>
</g>
<!-- Node78&#45;&gt;Node159 -->
<g id="edge51" class="edge">
<title>Node78&#45;&gt;Node159</title>
<path fill="none" stroke="#191970" d="M1877.2982,-331.5756C1891.6038,-323.5302 1908.5509,-312.5943 1921.5,-300 1950.0572,-272.2252 2013.0062,-164.5997 2031.9805,-131.6448"/>
<polygon fill="#191970" stroke="#191970" points="1875.4669,-328.5872 1868.3474,-336.4336 1878.806,-334.7395 1875.4669,-328.5872"/>
</g>
<!-- Node123 -->
<g id="node42" class="node">
<title>Node123</title>
<g id="a_node42"><a xlink:href="api_2queue_8h.html" target="_top" xlink:title="ODP queue. ">
<polygon fill="#ffffff" stroke="#ff0000" points="2170.5,-168.5 2170.5,-187.5 2226.5,-187.5 2226.5,-168.5 2170.5,-168.5"/>
<text text-anchor="middle" x="2198.5" y="-175.5" font-family="Helvetica,sans-Serif" font-size="10.00" fill="#000000">queue.h</text>
</a>
</g>
</g>
<!-- Node78&#45;&gt;Node123 -->
<g id="edge53" class="edge">
<title>Node78&#45;&gt;Node123</title>
<path fill="none" stroke="#191970" d="M1895.2538,-343.8171C1992.7182,-338.7868 2210.4367,-324.864 2232.5,-300 2261.9794,-266.7785 2223.7676,-210.0251 2206.3353,-187.5604"/>
<polygon fill="#191970" stroke="#191970" points="1894.9042,-340.3302 1885.0941,-344.3316 1895.2584,-347.3213 1894.9042,-340.3302"/>
</g>
<!-- Node160 -->
<g id="node43" class="node">
<title>Node160</title>
<g id="a_node43"><a xlink:href="spec_2chksum_8h.html" target="_top" xlink:title="ODP checksum functions. ">
<polygon fill="#ffffff" stroke="#ff0000" points="1291.5,-280.5 1291.5,-299.5 1355.5,-299.5 1355.5,-280.5 1291.5,-280.5"/>
<text text-anchor="middle" x="1323.5" y="-287.5" font-family="Helvetica,sans-Serif" font-size="10.00" fill="#000000">chksum.h</text>
</a>
</g>
</g>
<!-- Node78&#45;&gt;Node160 -->
<g id="edge55" class="edge">
<title>Node78&#45;&gt;Node160</title>
<path fill="none" stroke="#191970" d="M1801.7919,-343.8083C1715.1038,-339.2436 1523.6622,-326.829 1364.5,-300 1361.6101,-299.5129 1358.6223,-298.9338 1355.6378,-298.3035"/>
<polygon fill="#191970" stroke="#191970" points="1801.668,-347.3065 1811.8351,-344.3265 1802.0288,-340.3158 1801.668,-347.3065"/>
</g>
<!-- Node162 -->
<g id="node44" class="node">
<title>Node162</title>
<g id="a_node44"><a xlink:href="api_2spec_2cpu_8h.html" target="_top" xlink:title="ODP CPU API. ">
<polygon fill="#ffffff" stroke="#ff0000" points="1374,-280.5 1374,-299.5 1417,-299.5 1417,-280.5 1374,-280.5"/>
<text text-anchor="middle" x="1395.5" y="-287.5" font-family="Helvetica,sans-Serif" font-size="10.00" fill="#000000">cpu.h</text>
</a>
</g>
</g>
<!-- Node78&#45;&gt;Node162 -->
<g id="edge56" class="edge">
<title>Node78&#45;&gt;Node162</title>
<path fill="none" stroke="#191970" d="M1801.8114,-344.1772C1723.2937,-340.3899 1560.1828,-329.4165 1425.5,-300 1422.8182,-299.4143 1420.0396,-298.6759 1417.3042,-297.8668"/>
<polygon fill="#191970" stroke="#191970" points="1801.7136,-347.6764 1811.8655,-344.6449 1802.0389,-340.6839 1801.7136,-347.6764"/>
</g>
<!-- Node164 -->
<g id="node45" class="node">
<title>Node164</title>
<g id="a_node45"><a xlink:href="spec_2feature_8h.html" target="_top" xlink:title="ODP features. ">
<polygon fill="#ffffff" stroke="#ff0000" points="1435,-280.5 1435,-299.5 1496,-299.5 1496,-280.5 1435,-280.5"/>
<text text-anchor="middle" x="1465.5" y="-287.5" font-family="Helvetica,sans-Serif" font-size="10.00" fill="#000000">feature.h</text>
</a>
</g>
</g>
<!-- Node78&#45;&gt;Node164 -->
<g id="edge57" class="edge">
<title>Node78&#45;&gt;Node164</title>
<path fill="none" stroke="#191970" d="M1801.7182,-341.5147C1735.2697,-334.7431 1609.9093,-320.4874 1504.5,-300 1501.7554,-299.4666 1498.9164,-298.8557 1496.0794,-298.2046"/>
<polygon fill="#191970" stroke="#191970" points="1801.5644,-345.0168 1811.8649,-342.537 1802.2662,-338.0521 1801.5644,-345.0168"/>
</g>
<!-- Node166 -->
<g id="node46" class="node">
<title>Node166</title>
<g id="a_node46"><a xlink:href="api_2spec_2hash_8h.html" target="_top" xlink:title="ODP Hash functions. ">
<polygon fill="#ffffff" stroke="#ff0000" points="1514,-280.5 1514,-299.5 1563,-299.5 1563,-280.5 1514,-280.5"/>
<text text-anchor="middle" x="1538.5" y="-287.5" font-family="Helvetica,sans-Serif" font-size="10.00" fill="#000000">hash.h</text>
</a>
</g>
</g>
<!-- Node78&#45;&gt;Node166 -->
<g id="edge58" class="edge">
<title>Node78&#45;&gt;Node166</title>
<path fill="none" stroke="#191970" d="M1801.949,-339.2985C1747.7848,-331.2239 1655.7745,-316.6485 1577.5,-300 1572.8509,-299.0112 1567.9199,-297.8421 1563.1848,-296.6583"/>
<polygon fill="#191970" stroke="#191970" points="1801.5312,-342.7747 1811.9361,-340.7775 1802.5567,-335.8503 1801.5312,-342.7747"/>
</g>
<!-- Node168 -->
<g id="node47" class="node">
<title>Node168</title>
<g id="a_node47"><a xlink:href="api_2spec_2pool_8h.html" target="_top" xlink:title="ODP pool. ">
<polygon fill="#ffffff" stroke="#ff0000" points="2148,-224.5 2148,-243.5 2195,-243.5 2195,-224.5 2148,-224.5"/>
<text text-anchor="middle" x="2171.5" y="-231.5" font-family="Helvetica,sans-Serif" font-size="10.00" fill="#000000">pool.h</text>
</a>
</g>
</g>
<!-- Node78&#45;&gt;Node168 -->
<g id="edge61" class="edge">
<title>Node78&#45;&gt;Node168</title>
<path fill="none" stroke="#191970" d="M1895.5501,-340.3082C1957.2646,-332.3256 2061.7844,-316.8779 2096.5,-300 2124.8898,-286.1976 2150.8203,-258.6619 2163.4391,-243.8962"/>
<polygon fill="#191970" stroke="#191970" points="1894.7673,-336.8797 1885.2908,-341.6175 1895.6535,-343.8233 1894.7673,-336.8797"/>
</g>
<!-- Node170 -->
<g id="node48" class="node">
<title>Node170</title>
<g id="a_node48"><a xlink:href="pool__types_8h.html" target="_top" xlink:title="Type definitions for pools. ">
<polygon fill="#ffffff" stroke="#000000" points="2145,-280.5 2145,-299.5 2224,-299.5 2224,-280.5 2145,-280.5"/>
<text text-anchor="middle" x="2184.5" y="-287.5" font-family="Helvetica,sans-Serif" font-size="10.00" fill="#000000">pool_types.h</text>
</a>
</g>
</g>
<!-- Node78&#45;&gt;Node170 -->
<g id="edge62" class="edge">
<title>Node78&#45;&gt;Node170</title>
<path fill="none" stroke="#191970" d="M1895.0051,-338.7267C1950.9497,-329.9049 2047.6882,-314.4202 2130.5,-300 2135.1965,-299.1822 2140.1184,-298.3024 2144.9985,-297.4159"/>
<polygon fill="#191970" stroke="#191970" points="1894.3803,-335.2819 1885.0463,-340.2947 1895.469,-342.1967 1894.3803,-335.2819"/>
</g>
<!-- Node171 -->
<g id="node49" class="node">
<title>Node171</title>
<g id="a_node49"><a xlink:href="api_2spec_2proto__stats__types_8h.html" target="_top" xlink:title="ODP proto stats types. ">
<polygon fill="#ffffff" stroke="#ff0000" points="1620,-280.5 1620,-299.5 1733,-299.5 1733,-280.5 1620,-280.5"/>
<text text-anchor="middle" x="1676.5" y="-287.5" font-family="Helvetica,sans-Serif" font-size="10.00" fill="#000000">proto_stats_types.h</text>
</a>
</g>
</g>
<!-- Node78&#45;&gt;Node171 -->
<g id="edge64" class="edge">
<title>Node78&#45;&gt;Node171</title>
<path fill="none" stroke="#191970" d="M1809.1565,-333.1905C1777.6449,-322.9309 1734.1481,-308.7691 1705.682,-299.5011"/>
<polygon fill="#191970" stroke="#191970" points="1808.3399,-336.6054 1818.9321,-336.3733 1810.507,-329.9493 1808.3399,-336.6054"/>
</g>
<!-- Node71 -->
<g id="node50" class="node">
<title>Node71</title>
<g id="a_node50"><a xlink:href="api_2spec_2schedule_8h.html" target="_top" xlink:title="ODP schedule. ">
<polygon fill="#ffffff" stroke="#ff0000" points="1751,-280.5 1751,-299.5 1820,-299.5 1820,-280.5 1751,-280.5"/>
<text text-anchor="middle" x="1785.5" y="-287.5" font-family="Helvetica,sans-Serif" font-size="10.00" fill="#000000">schedule.h</text>
</a>
</g>
</g>
<!-- Node78&#45;&gt;Node71 -->
<g id="edge65" class="edge">
<title>Node78&#45;&gt;Node71</title>
<path fill="none" stroke="#191970" d="M1829.7808,-329.3607C1818.8818,-319.6727 1805.5245,-307.7995 1796.348,-299.6427"/>
<polygon fill="#191970" stroke="#191970" points="1827.7268,-332.2178 1837.5262,-336.2455 1832.3774,-326.9859 1827.7268,-332.2178"/>
</g>
<!-- Node158&#45;&gt;Node24 -->
<g id="edge41" class="edge">
<title>Node158&#45;&gt;Node24</title>
<path fill="none" stroke="#191970" d="M2338.5171,-158.6952C2332.0401,-143.6044 2320.9075,-123.344 2304.5,-112 2272.2804,-89.7238 2159.5405,-75.1751 2103.5506,-69.154"/>
<polygon fill="#191970" stroke="#191970" points="2335.3244,-160.1389 2342.2651,-168.1437 2341.8312,-157.5578 2335.3244,-160.1389"/>
</g>
<!-- Node113&#45;&gt;Node24 -->
<g id="edge43" class="edge">
<title>Node113&#45;&gt;Node24</title>
<path fill="none" stroke="#191970" d="M2455.7689,-163.9279C2425.2899,-149.0035 2374.5291,-125.7273 2328.5,-112 2249.4454,-88.4235 2152.9005,-75.1199 2103.6911,-69.3988"/>
<polygon fill="#191970" stroke="#191970" points="2454.4054,-167.1583 2464.9203,-168.4574 2457.5106,-160.8847 2454.4054,-167.1583"/>
</g>
<!-- Node119&#45;&gt;Node24 -->
<g id="edge45" class="edge">
<title>Node119&#45;&gt;Node24</title>
<path fill="none" stroke="#191970" d="M1947.7111,-109.057C1977.1759,-98.8084 2017.6541,-84.729 2044.1843,-75.5011"/>
<polygon fill="#191970" stroke="#191970" points="1946.472,-105.7822 1938.1769,-112.3733 1948.7717,-112.3937 1946.472,-105.7822"/>
</g>
<!-- Node115&#45;&gt;Node24 -->
<g id="edge48" class="edge">
<title>Node115&#45;&gt;Node24</title>
<path fill="none" stroke="#191970" d="M2072.6593,-271.9387C2078.1188,-263.8664 2083.7122,-253.9416 2086.5,-244 2102.3401,-187.5122 2095.7081,-169.9395 2086.5,-112 2084.4433,-99.0584 2079.3231,-84.8079 2075.6368,-75.6493"/>
<polygon fill="#191970" stroke="#191970" points="2069.7324,-270.0134 2066.7089,-280.1677 2075.4048,-274.1151 2069.7324,-270.0134"/>
</g>
<!-- Node115&#45;&gt;Node131 -->
<g id="edge47" class="edge">
<title>Node115&#45;&gt;Node131</title>
<path fill="none" stroke="#191970" d="M2050.3759,-271.0437C2046.4285,-261.8331 2041.8542,-251.1598 2038.6326,-243.6427"/>
<polygon fill="#191970" stroke="#191970" points="2047.1633,-272.4328 2054.3195,-280.2455 2053.5973,-269.6753 2047.1633,-272.4328"/>
</g>
<!-- Node127&#45;&gt;Node24 -->
<g id="edge50" class="edge">
<title>Node127&#45;&gt;Node24</title>
<path fill="none" stroke="#191970" d="M1958.7413,-159.0672C1964.9434,-144.7833 1975.0133,-125.4211 1988.5,-112 2004.9657,-95.6144 2028.4723,-83.324 2046.2687,-75.5884"/>
<polygon fill="#191970" stroke="#191970" points="1955.4649,-157.8324 1954.9153,-168.413 1961.9431,-160.4845 1955.4649,-157.8324"/>
</g>
<!-- Node159&#45;&gt;Node24 -->
<g id="edge52" class="edge">
<title>Node159&#45;&gt;Node24</title>
<path fill="none" stroke="#191970" d="M2048.6535,-103.6296C2054.3247,-94.2887 2060.9845,-83.3197 2065.6455,-75.6427"/>
<polygon fill="#191970" stroke="#191970" points="2045.6204,-101.8812 2043.4223,-112.2455 2051.6039,-105.5141 2045.6204,-101.8812"/>
</g>
<!-- Node123&#45;&gt;Node24 -->
<g id="edge54" class="edge">
<title>Node123&#45;&gt;Node24</title>
<path fill="none" stroke="#191970" d="M2180.0978,-161.7713C2153.2079,-138.0573 2104.0219,-94.6807 2082.3005,-75.5249"/>
<polygon fill="#191970" stroke="#191970" points="2177.8569,-164.4617 2187.6721,-168.4509 2182.4869,-159.2116 2177.8569,-164.4617"/>
</g>
<!-- Node170&#45;&gt;Node168 -->
<g id="edge63" class="edge">
<title>Node170&#45;&gt;Node168</title>
<path fill="none" stroke="#191970" d="M2179.9625,-270.4538C2177.8561,-261.3803 2175.4464,-250.9998 2173.7385,-243.6427"/>
<polygon fill="#191970" stroke="#191970" points="2176.5649,-271.2961 2182.2356,-280.2455 2183.3835,-269.7131 2176.5649,-271.2961"/>
</g>
</g>
</svg>
