<?xml version="1.0" encoding="UTF-8" standalone="no"?>
<!DOCTYPE svg PUBLIC "-//W3C//DTD SVG 1.1//EN"
 "http://www.w3.org/Graphics/SVG/1.1/DTD/svg11.dtd">
<!-- Generated by graphviz version 2.40.1 (20161225.0304)
 -->
<!-- Title: proto_stats_types.h Pages: 1 -->
<svg width="712pt" height="1036pt"
 viewBox="0.00 0.00 711.50 1036.00" xmlns="http://www.w3.org/2000/svg" xmlns:xlink="http://www.w3.org/1999/xlink">
<g id="graph0" class="graph" transform="scale(1 1) rotate(0) translate(4 1032)">
<title>proto_stats_types.h</title>
<polygon fill="#ffffff" stroke="transparent" points="-4,4 -4,-1032 707.5,-1032 707.5,4 -4,4"/>
<!-- Node12 -->
<g id="node1" class="node">
<title>Node12</title>
<polygon fill="#bfbfbf" stroke="#000000" points="513,-1008.5 513,-1027.5 626,-1027.5 626,-1008.5 513,-1008.5"/>
<text text-anchor="middle" x="569.5" y="-1015.5" font-family="Helvetica,sans-Serif" font-size="10.00" fill="#000000">proto_stats_types.h</text>
</g>
<!-- Node13 -->
<g id="node2" class="node">
<title>Node13</title>
<g id="a_node2"><a xlink:href="api_2spec_2packet_8h.html" target="_top" xlink:title="ODP packet descriptor. ">
<polygon fill="#ffffff" stroke="#000000" points="466,-840.5 466,-859.5 525,-859.5 525,-840.5 466,-840.5"/>
<text text-anchor="middle" x="495.5" y="-847.5" font-family="Helvetica,sans-Serif" font-size="10.00" fill="#000000">packet.h</text>
</a>
</g>
</g>
<!-- Node12&#45;&gt;Node13 -->
<g id="edge1" class="edge">
<title>Node12&#45;&gt;Node13</title>
<path fill="none" stroke="#191970" d="M570.3107,-998.232C570.4823,-972.9073 567.7978,-928.4179 549.5,-896 540.6619,-880.3416 524.3409,-867.5818 511.9468,-859.5073"/>
<polygon fill="#191970" stroke="#191970" points="566.8076,-998.329 570.0766,-1008.4069 573.8057,-998.49 566.8076,-998.329"/>
</g>
<!-- Node39 -->
<g id="node28" class="node">
<title>Node39</title>
<g id="a_node28"><a xlink:href="api_2spec_2packet__types_8h.html" target="_top" xlink:title="ODP packet types. ">
<polygon fill="#ffffff" stroke="#000000" points="450,-952.5 450,-971.5 541,-971.5 541,-952.5 450,-952.5"/>
<text text-anchor="middle" x="495.5" y="-959.5" font-family="Helvetica,sans-Serif" font-size="10.00" fill="#000000">packet_types.h</text>
</a>
</g>
</g>
<!-- Node12&#45;&gt;Node39 -->
<g id="edge41" class="edge">
<title>Node12&#45;&gt;Node39</title>
<path fill="none" stroke="#191970" d="M548.6343,-1002.2097C535.6375,-992.3743 519.3378,-980.0394 508.2421,-971.6427"/>
<polygon fill="#191970" stroke="#191970" points="546.524,-1005.002 556.6102,-1008.2455 550.7482,-999.4201 546.524,-1005.002"/>
</g>
<!-- Node41 -->
<g id="node30" class="node">
<title>Node41</title>
<g id="a_node30"><a xlink:href="api_2spec_2proto__stats_8h.html" target="_top" xlink:title="ODP Proto Stats. ">
<polygon fill="#ffffff" stroke="#000000" points="614.5,-896.5 614.5,-915.5 694.5,-915.5 694.5,-896.5 614.5,-896.5"/>
<text text-anchor="middle" x="654.5" y="-903.5" font-family="Helvetica,sans-Serif" font-size="10.00" fill="#000000">proto_stats.h</text>
</a>
</g>
</g>
<!-- Node12&#45;&gt;Node41 -->
<g id="edge44" class="edge">
<title>Node12&#45;&gt;Node41</title>
<path fill="none" stroke="#191970" d="M583.0005,-1000.2111C601.2241,-976.1989 633.0467,-934.2679 647.2713,-915.5249"/>
<polygon fill="#191970" stroke="#191970" points="580.0045,-998.3693 576.7471,-1008.4509 585.5805,-1002.6011 580.0045,-998.3693"/>
</g>
<!-- Node14 -->
<g id="node3" class="node">
<title>Node14</title>
<g id="a_node3"><a xlink:href="api_2packet_8h.html" target="_top" xlink:title="ODP packet descriptor. ">
<polygon fill="#ffffff" stroke="#000000" points="427,-784.5 427,-803.5 486,-803.5 486,-784.5 427,-784.5"/>
<text text-anchor="middle" x="456.5" y="-791.5" font-family="Helvetica,sans-Serif" font-size="10.00" fill="#000000">packet.h</text>
</a>
</g>
</g>
<!-- Node13&#45;&gt;Node14 -->
<g id="edge2" class="edge">
<title>Node13&#45;&gt;Node14</title>
<path fill="none" stroke="#191970" d="M482.9092,-831.9209C476.3605,-822.5176 468.6176,-811.3997 463.2154,-803.6427"/>
<polygon fill="#191970" stroke="#191970" points="480.1196,-834.0397 488.7067,-840.2455 485.8639,-830.0392 480.1196,-834.0397"/>
</g>
<!-- Node15 -->
<g id="node4" class="node">
<title>Node15</title>
<g id="a_node4"><a xlink:href="api_2spec_2comp_8h.html" target="_top" xlink:title="ODP Compression. ">
<polygon fill="#ffffff" stroke="#000000" points="71,-728.5 71,-747.5 124,-747.5 124,-728.5 71,-728.5"/>
<text text-anchor="middle" x="97.5" y="-735.5" font-family="Helvetica,sans-Serif" font-size="10.00" fill="#000000">comp.h</text>
</a>
</g>
</g>
<!-- Node14&#45;&gt;Node15 -->
<g id="edge3" class="edge">
<title>Node14&#45;&gt;Node15</title>
<path fill="none" stroke="#191970" d="M416.54,-787.7667C342.7117,-776.2503 186.7778,-751.9263 124.2587,-742.1741"/>
<polygon fill="#191970" stroke="#191970" points="416.3961,-791.2865 426.8161,-789.3696 417.475,-784.3701 416.3961,-791.2865"/>
</g>
<!-- Node17 -->
<g id="node6" class="node">
<title>Node17</title>
<g id="a_node6"><a xlink:href="odp__api_8h.html" target="_top" xlink:title="The OpenDataPlane API. ">
<polygon fill="#ffffff" stroke="#000000" points="363.5,-56.5 363.5,-75.5 427.5,-75.5 427.5,-56.5 363.5,-56.5"/>
<text text-anchor="middle" x="395.5" y="-63.5" font-family="Helvetica,sans-Serif" font-size="10.00" fill="#000000">odp_api.h</text>
</a>
</g>
</g>
<!-- Node14&#45;&gt;Node17 -->
<g id="edge40" class="edge">
<title>Node14&#45;&gt;Node17</title>
<path fill="none" stroke="#191970" d="M496.3082,-787.1767C548.7763,-775.6395 634.5,-746.8644 634.5,-682 634.5,-682 634.5,-682 634.5,-178 634.5,-132.8642 492.9694,-90.8712 427.7326,-73.9125"/>
<polygon fill="#191970" stroke="#191970" points="495.3708,-783.7967 486.2932,-789.2599 496.7964,-790.65 495.3708,-783.7967"/>
</g>
<!-- Node19 -->
<g id="node8" class="node">
<title>Node19</title>
<g id="a_node8"><a xlink:href="api_2spec_2crypto_8h.html" target="_top" xlink:title="ODP crypto. ">
<polygon fill="#ffffff" stroke="#000000" points="127.5,-560.5 127.5,-579.5 183.5,-579.5 183.5,-560.5 127.5,-560.5"/>
<text text-anchor="middle" x="155.5" y="-567.5" font-family="Helvetica,sans-Serif" font-size="10.00" fill="#000000">crypto.h</text>
</a>
</g>
</g>
<!-- Node14&#45;&gt;Node19 -->
<g id="edge7" class="edge">
<title>Node14&#45;&gt;Node19</title>
<path fill="none" stroke="#191970" d="M416.6958,-790.8812C357.5742,-785.4916 250.4102,-772.5746 221.5,-748 168.0112,-702.5328 157.8409,-609.5007 155.9334,-579.5306"/>
<polygon fill="#191970" stroke="#191970" points="416.5294,-794.38 426.7981,-791.7715 417.144,-787.407 416.5294,-794.38"/>
</g>
<!-- Node23 -->
<g id="node12" class="node">
<title>Node23</title>
<g id="a_node12"><a xlink:href="api_2spec_2event_8h.html" target="_top" xlink:title="ODP event. ">
<polygon fill="#ffffff" stroke="#000000" points="430,-728.5 430,-747.5 483,-747.5 483,-728.5 430,-728.5"/>
<text text-anchor="middle" x="456.5" y="-735.5" font-family="Helvetica,sans-Serif" font-size="10.00" fill="#000000">event.h</text>
</a>
</g>
</g>
<!-- Node14&#45;&gt;Node23 -->
<g id="edge13" class="edge">
<title>Node14&#45;&gt;Node23</title>
<path fill="none" stroke="#191970" d="M456.5,-774.1575C456.5,-765.155 456.5,-754.9199 456.5,-747.6427"/>
<polygon fill="#191970" stroke="#191970" points="453.0001,-774.2455 456.5,-784.2455 460.0001,-774.2456 453.0001,-774.2455"/>
</g>
<!-- Node29 -->
<g id="node18" class="node">
<title>Node29</title>
<g id="a_node18"><a xlink:href="api_2spec_2packet__io_8h.html" target="_top" xlink:title="ODP Packet IO. ">
<polygon fill="#ffffff" stroke="#000000" points="234,-392.5 234,-411.5 307,-411.5 307,-392.5 234,-392.5"/>
<text text-anchor="middle" x="270.5" y="-399.5" font-family="Helvetica,sans-Serif" font-size="10.00" fill="#000000">packet_io.h</text>
</a>
</g>
</g>
<!-- Node14&#45;&gt;Node29 -->
<g id="edge39" class="edge">
<title>Node14&#45;&gt;Node29</title>
<path fill="none" stroke="#191970" d="M416.5926,-791.4669C352.9325,-785.0269 235.5,-762.2688 235.5,-682 235.5,-682 235.5,-682 235.5,-514 235.5,-474.4788 255.5998,-430.5376 265.3356,-411.5717"/>
<polygon fill="#191970" stroke="#191970" points="416.416,-794.9654 426.695,-792.3979 417.0583,-787.9949 416.416,-794.9654"/>
</g>
<!-- Node37 -->
<g id="node26" class="node">
<title>Node37</title>
<g id="a_node26"><a xlink:href="api_2spec_2packet__flags_8h.html" target="_top" xlink:title="ODP packet flags. ">
<polygon fill="#ffffff" stroke="#000000" points="506,-672.5 506,-691.5 593,-691.5 593,-672.5 506,-672.5"/>
<text text-anchor="middle" x="549.5" y="-679.5" font-family="Helvetica,sans-Serif" font-size="10.00" fill="#000000">packet_flags.h</text>
</a>
</g>
</g>
<!-- Node14&#45;&gt;Node37 -->
<g id="edge36" class="edge">
<title>Node14&#45;&gt;Node37</title>
<path fill="none" stroke="#191970" d="M471.0085,-776.5274C490.9027,-752.5688 525.959,-710.3505 541.5909,-691.5249"/>
<polygon fill="#191970" stroke="#191970" points="468.1248,-774.5215 464.4291,-784.4509 473.5102,-778.9934 468.1248,-774.5215"/>
</g>
<!-- Node16 -->
<g id="node5" class="node">
<title>Node16</title>
<g id="a_node5"><a xlink:href="api_2comp_8h.html" target="_top" xlink:title="ODP crypto. ">
<polygon fill="#ffffff" stroke="#000000" points="0,-504.5 0,-523.5 53,-523.5 53,-504.5 0,-504.5"/>
<text text-anchor="middle" x="26.5" y="-511.5" font-family="Helvetica,sans-Serif" font-size="10.00" fill="#000000">comp.h</text>
</a>
</g>
</g>
<!-- Node15&#45;&gt;Node16 -->
<g id="edge4" class="edge">
<title>Node15&#45;&gt;Node16</title>
<path fill="none" stroke="#191970" d="M91.384,-718.7044C76.7835,-672.6409 40.3088,-557.5657 29.5394,-523.5891"/>
<polygon fill="#191970" stroke="#191970" points="88.0912,-719.8999 94.4492,-728.375 94.7641,-717.7848 88.0912,-719.8999"/>
</g>
<!-- Node16&#45;&gt;Node17 -->
<g id="edge5" class="edge">
<title>Node16&#45;&gt;Node17</title>
<path fill="none" stroke="#191970" d="M23.9477,-494.2338C21.2867,-471.8859 17.5,-434.3925 17.5,-402 17.5,-402 17.5,-402 17.5,-178 17.5,-106.1327 271.861,-76.8065 363.2719,-68.5878"/>
<polygon fill="#191970" stroke="#191970" points="20.5081,-494.9384 25.2105,-504.4324 27.455,-494.0781 20.5081,-494.9384"/>
</g>
<!-- Node18 -->
<g id="node7" class="node">
<title>Node18</title>
<g id="a_node7"><a xlink:href="odp_8h.html" target="_top" xlink:title="WARNING: THIS FILE IS DEPRECATED AND WILL BE REMOVED!!! ODP APPLICATIONS SHOULD NOW INCLUDE odp_api...">
<polygon fill="#ffffff" stroke="#000000" points="373.5,-.5 373.5,-19.5 417.5,-19.5 417.5,-.5 373.5,-.5"/>
<text text-anchor="middle" x="395.5" y="-7.5" font-family="Helvetica,sans-Serif" font-size="10.00" fill="#000000">odp.h</text>
</a>
</g>
</g>
<!-- Node17&#45;&gt;Node18 -->
<g id="edge6" class="edge">
<title>Node17&#45;&gt;Node18</title>
<path fill="none" stroke="#191970" d="M395.5,-46.1575C395.5,-37.155 395.5,-26.9199 395.5,-19.6427"/>
<polygon fill="#191970" stroke="#191970" points="392.0001,-46.2455 395.5,-56.2455 399.0001,-46.2456 392.0001,-46.2455"/>
</g>
<!-- Node20 -->
<g id="node9" class="node">
<title>Node20</title>
<g id="a_node9"><a xlink:href="api_2crypto_8h.html" target="_top" xlink:title="ODP crypto. ">
<polygon fill="#ffffff" stroke="#000000" points="45.5,-224.5 45.5,-243.5 101.5,-243.5 101.5,-224.5 45.5,-224.5"/>
<text text-anchor="middle" x="73.5" y="-231.5" font-family="Helvetica,sans-Serif" font-size="10.00" fill="#000000">crypto.h</text>
</a>
</g>
</g>
<!-- Node19&#45;&gt;Node20 -->
<g id="edge8" class="edge">
<title>Node19&#45;&gt;Node20</title>
<path fill="none" stroke="#191970" d="M137.1409,-553.4899C116.7001,-533.2007 86.5,-496.6797 86.5,-458 86.5,-458 86.5,-458 86.5,-346 86.5,-307.8288 78.9572,-262.8249 75.3626,-243.545"/>
<polygon fill="#191970" stroke="#191970" points="134.7667,-556.0622 144.414,-560.4418 139.6035,-551.002 134.7667,-556.0622"/>
</g>
<!-- Node20&#45;&gt;Node17 -->
<g id="edge12" class="edge">
<title>Node20&#45;&gt;Node17</title>
<path fill="none" stroke="#191970" d="M85.498,-215.6972C104.2853,-188.5851 143.3154,-138.1469 189.5,-112 218.9175,-95.3456 312.9315,-78.8039 363.1524,-70.8631"/>
<polygon fill="#191970" stroke="#191970" points="82.4252,-213.993 79.7184,-224.2363 88.2221,-217.9167 82.4252,-213.993"/>
</g>
<!-- Node21 -->
<g id="node10" class="node">
<title>Node21</title>
<g id="a_node10"><a xlink:href="api_2spec_2ipsec_8h.html" target="_top" xlink:title="ODP IPSEC API. ">
<polygon fill="#ffffff" stroke="#000000" points="177,-168.5 177,-187.5 228,-187.5 228,-168.5 177,-168.5"/>
<text text-anchor="middle" x="202.5" y="-175.5" font-family="Helvetica,sans-Serif" font-size="10.00" fill="#000000">ipsec.h</text>
</a>
</g>
</g>
<!-- Node20&#45;&gt;Node21 -->
<g id="edge9" class="edge">
<title>Node20&#45;&gt;Node21</title>
<path fill="none" stroke="#191970" d="M104.8671,-220.3833C128.3284,-210.1985 159.8185,-196.5284 180.6135,-187.5011"/>
<polygon fill="#191970" stroke="#191970" points="103.4551,-217.1806 95.6759,-224.3733 106.2426,-223.6017 103.4551,-217.1806"/>
</g>
<!-- Node22 -->
<g id="node11" class="node">
<title>Node22</title>
<g id="a_node11"><a xlink:href="api_2ipsec_8h.html" target="_top" xlink:title="ODP IPSEC API &#45; platform specific header. ">
<polygon fill="#ffffff" stroke="#000000" points="199,-112.5 199,-131.5 250,-131.5 250,-112.5 199,-112.5"/>
<text text-anchor="middle" x="224.5" y="-119.5" font-family="Helvetica,sans-Serif" font-size="10.00" fill="#000000">ipsec.h</text>
</a>
</g>
</g>
<!-- Node21&#45;&gt;Node22 -->
<g id="edge10" class="edge">
<title>Node21&#45;&gt;Node22</title>
<path fill="none" stroke="#191970" d="M210.0628,-158.7493C213.6546,-149.6064 217.7901,-139.0798 220.7118,-131.6427"/>
<polygon fill="#191970" stroke="#191970" points="206.7311,-157.6582 206.3321,-168.2455 213.2463,-160.2178 206.7311,-157.6582"/>
</g>
<!-- Node22&#45;&gt;Node17 -->
<g id="edge11" class="edge">
<title>Node22&#45;&gt;Node17</title>
<path fill="none" stroke="#191970" d="M259.7878,-110.4438C291.2644,-100.1356 336.8032,-85.2223 366.2817,-75.5686"/>
<polygon fill="#191970" stroke="#191970" points="258.5145,-107.1778 250.1004,-113.6162 260.6931,-113.8301 258.5145,-107.1778"/>
</g>
<!-- Node24 -->
<g id="node13" class="node">
<title>Node24</title>
<g id="a_node13"><a xlink:href="api_2event_8h.html" target="_top" xlink:title="ODP event. ">
<polygon fill="#ffffff" stroke="#000000" points="430,-672.5 430,-691.5 483,-691.5 483,-672.5 430,-672.5"/>
<text text-anchor="middle" x="456.5" y="-679.5" font-family="Helvetica,sans-Serif" font-size="10.00" fill="#000000">event.h</text>
</a>
</g>
</g>
<!-- Node23&#45;&gt;Node24 -->
<g id="edge14" class="edge">
<title>Node23&#45;&gt;Node24</title>
<path fill="none" stroke="#191970" d="M456.5,-718.1575C456.5,-709.155 456.5,-698.9199 456.5,-691.6427"/>
<polygon fill="#191970" stroke="#191970" points="453.0001,-718.2455 456.5,-728.2455 460.0001,-718.2456 453.0001,-718.2455"/>
</g>
<!-- Node24&#45;&gt;Node17 -->
<g id="edge35" class="edge">
<title>Node24&#45;&gt;Node17</title>
<path fill="none" stroke="#191970" d="M475.8396,-665.1373C484.1207,-657.0403 493.2935,-646.7657 499.5,-636 514.8086,-609.4462 519.5,-600.6506 519.5,-570 519.5,-570 519.5,-570 519.5,-514 519.5,-438.2291 490.5,-421.7709 490.5,-346 490.5,-346 490.5,-346 490.5,-178 490.5,-130.3202 439.8095,-92.5362 412.4841,-75.632"/>
<polygon fill="#191970" stroke="#191970" points="473.2195,-662.7952 468.2991,-672.1782 477.9969,-667.9115 473.2195,-662.7952"/>
</g>
<!-- Node25 -->
<g id="node14" class="node">
<title>Node25</title>
<g id="a_node14"><a xlink:href="api_2spec_2queue_8h.html" target="_top" xlink:title="ODP queue. ">
<polygon fill="#ffffff" stroke="#000000" points="347.5,-616.5 347.5,-635.5 403.5,-635.5 403.5,-616.5 347.5,-616.5"/>
<text text-anchor="middle" x="375.5" y="-623.5" font-family="Helvetica,sans-Serif" font-size="10.00" fill="#000000">queue.h</text>
</a>
</g>
</g>
<!-- Node24&#45;&gt;Node25 -->
<g id="edge15" class="edge">
<title>Node24&#45;&gt;Node25</title>
<path fill="none" stroke="#191970" d="M434.066,-666.49C419.7746,-656.6096 401.7084,-644.1194 389.4474,-635.6427"/>
<polygon fill="#191970" stroke="#191970" points="432.1749,-669.4376 442.3909,-672.2455 436.1557,-663.6797 432.1749,-669.4376"/>
</g>
<!-- Node35 -->
<g id="node24" class="node">
<title>Node35</title>
<g id="a_node24"><a xlink:href="api_2spec_2schedule_8h.html" target="_top" xlink:title="ODP schedule. ">
<polygon fill="#ffffff" stroke="#000000" points="422,-616.5 422,-635.5 491,-635.5 491,-616.5 422,-616.5"/>
<text text-anchor="middle" x="456.5" y="-623.5" font-family="Helvetica,sans-Serif" font-size="10.00" fill="#000000">schedule.h</text>
</a>
</g>
</g>
<!-- Node24&#45;&gt;Node35 -->
<g id="edge32" class="edge">
<title>Node24&#45;&gt;Node35</title>
<path fill="none" stroke="#191970" d="M456.5,-662.1575C456.5,-653.155 456.5,-642.9199 456.5,-635.6427"/>
<polygon fill="#191970" stroke="#191970" points="453.0001,-662.2455 456.5,-672.2455 460.0001,-662.2456 453.0001,-662.2455"/>
</g>
<!-- Node26 -->
<g id="node15" class="node">
<title>Node26</title>
<g id="a_node15"><a xlink:href="api_2queue_8h.html" target="_top" xlink:title="ODP queue. ">
<polygon fill="#ffffff" stroke="#000000" points="347.5,-560.5 347.5,-579.5 403.5,-579.5 403.5,-560.5 347.5,-560.5"/>
<text text-anchor="middle" x="375.5" y="-567.5" font-family="Helvetica,sans-Serif" font-size="10.00" fill="#000000">queue.h</text>
</a>
</g>
</g>
<!-- Node25&#45;&gt;Node26 -->
<g id="edge16" class="edge">
<title>Node25&#45;&gt;Node26</title>
<path fill="none" stroke="#191970" d="M375.5,-606.1575C375.5,-597.155 375.5,-586.9199 375.5,-579.6427"/>
<polygon fill="#191970" stroke="#191970" points="372.0001,-606.2455 375.5,-616.2455 379.0001,-606.2456 372.0001,-606.2455"/>
</g>
<!-- Node26&#45;&gt;Node17 -->
<g id="edge31" class="edge">
<title>Node26&#45;&gt;Node17</title>
<path fill="none" stroke="#191970" d="M379.3927,-550.3432C389.2648,-498.719 414.5,-354.9299 414.5,-234 414.5,-234 414.5,-234 414.5,-178 414.5,-139.7388 403.5887,-95.1479 398.3035,-75.7934"/>
<polygon fill="#191970" stroke="#191970" points="375.9055,-549.9409 377.434,-560.4249 382.777,-551.276 375.9055,-549.9409"/>
</g>
<!-- Node27 -->
<g id="node16" class="node">
<title>Node27</title>
<g id="a_node16"><a xlink:href="spec_2packet__io__stats_8h.html" target="_top" xlink:title="ODP Packet IO statistics. ">
<polygon fill="#ffffff" stroke="#000000" points="263.5,-504.5 263.5,-523.5 365.5,-523.5 365.5,-504.5 263.5,-504.5"/>
<text text-anchor="middle" x="314.5" y="-511.5" font-family="Helvetica,sans-Serif" font-size="10.00" fill="#000000">packet_io_stats.h</text>
</a>
</g>
</g>
<!-- Node26&#45;&gt;Node27 -->
<g id="edge17" class="edge">
<title>Node26&#45;&gt;Node27</title>
<path fill="none" stroke="#191970" d="M357.3751,-553.3607C346.822,-543.6727 333.8888,-531.7995 325.0036,-523.6427"/>
<polygon fill="#191970" stroke="#191970" points="355.1411,-556.0611 364.8746,-560.2455 359.875,-550.9045 355.1411,-556.0611"/>
</g>
<!-- Node28 -->
<g id="node17" class="node">
<title>Node28</title>
<g id="a_node17"><a xlink:href="packet__io__stats_8h.html" target="_top" xlink:title="ODP packet IO stats. ">
<polygon fill="#ffffff" stroke="#000000" points="263.5,-448.5 263.5,-467.5 365.5,-467.5 365.5,-448.5 263.5,-448.5"/>
<text text-anchor="middle" x="314.5" y="-455.5" font-family="Helvetica,sans-Serif" font-size="10.00" fill="#000000">packet_io_stats.h</text>
</a>
</g>
</g>
<!-- Node27&#45;&gt;Node28 -->
<g id="edge18" class="edge">
<title>Node27&#45;&gt;Node28</title>
<path fill="none" stroke="#191970" d="M314.5,-494.1575C314.5,-485.155 314.5,-474.9199 314.5,-467.6427"/>
<polygon fill="#191970" stroke="#191970" points="311.0001,-494.2455 314.5,-504.2455 318.0001,-494.2456 311.0001,-494.2455"/>
</g>
<!-- Node28&#45;&gt;Node29 -->
<g id="edge19" class="edge">
<title>Node28&#45;&gt;Node29</title>
<path fill="none" stroke="#191970" d="M300.5231,-440.2112C293.0871,-430.7472 284.234,-419.4797 278.0764,-411.6427"/>
<polygon fill="#191970" stroke="#191970" points="297.9054,-442.5447 306.8358,-448.2455 303.4097,-438.22 297.9054,-442.5447"/>
</g>
<!-- Node30 -->
<g id="node19" class="node">
<title>Node30</title>
<g id="a_node19"><a xlink:href="api_2packet__io_8h.html" target="_top" xlink:title="ODP Packet IO. ">
<polygon fill="#ffffff" stroke="#000000" points="234,-336.5 234,-355.5 307,-355.5 307,-336.5 234,-336.5"/>
<text text-anchor="middle" x="270.5" y="-343.5" font-family="Helvetica,sans-Serif" font-size="10.00" fill="#000000">packet_io.h</text>
</a>
</g>
</g>
<!-- Node29&#45;&gt;Node30 -->
<g id="edge20" class="edge">
<title>Node29&#45;&gt;Node30</title>
<path fill="none" stroke="#191970" d="M270.5,-382.1575C270.5,-373.155 270.5,-362.9199 270.5,-355.6427"/>
<polygon fill="#191970" stroke="#191970" points="267.0001,-382.2455 270.5,-392.2455 274.0001,-382.2456 267.0001,-382.2455"/>
</g>
<!-- Node30&#45;&gt;Node17 -->
<g id="edge30" class="edge">
<title>Node30&#45;&gt;Node17</title>
<path fill="none" stroke="#191970" d="M311.397,-332.4809C327.8075,-325.1958 345.6109,-314.6313 357.5,-300 376.7497,-276.3103 376.5,-264.5246 376.5,-234 376.5,-234 376.5,-234 376.5,-178 376.5,-139.7388 387.4113,-95.1479 392.6965,-75.7934"/>
<polygon fill="#191970" stroke="#191970" points="309.848,-329.3342 301.951,-336.3973 312.529,-335.8005 309.848,-329.3342"/>
</g>
<!-- Node30&#45;&gt;Node21 -->
<g id="edge25" class="edge">
<title>Node30&#45;&gt;Node21</title>
<path fill="none" stroke="#191970" d="M224.1042,-334.3942C193.5461,-325.7044 157.563,-313.103 148.5,-300 129.2853,-272.2199 134.3388,-254.6659 148.5,-224 155.8833,-208.0115 171.8676,-195.5319 184.5401,-187.6299"/>
<polygon fill="#191970" stroke="#191970" points="223.2229,-337.7817 233.7941,-337.0737 225.0887,-331.035 223.2229,-337.7817"/>
</g>
<!-- Node31 -->
<g id="node20" class="node">
<title>Node31</title>
<g id="a_node20"><a xlink:href="api_2spec_2classification_8h.html" target="_top" xlink:title="ODP classification descriptor. ">
<polygon fill="#ffffff" stroke="#000000" points="158,-280.5 158,-299.5 247,-299.5 247,-280.5 158,-280.5"/>
<text text-anchor="middle" x="202.5" y="-287.5" font-family="Helvetica,sans-Serif" font-size="10.00" fill="#000000">classification.h</text>
</a>
</g>
</g>
<!-- Node30&#45;&gt;Node31 -->
<g id="edge21" class="edge">
<title>Node30&#45;&gt;Node31</title>
<path fill="none" stroke="#191970" d="M250.6404,-329.645C238.8142,-319.9058 224.2108,-307.8795 214.209,-299.6427"/>
<polygon fill="#191970" stroke="#191970" points="248.711,-332.5902 258.6553,-336.2455 253.161,-327.1867 248.711,-332.5902"/>
</g>
<!-- Node33 -->
<g id="node22" class="node">
<title>Node33</title>
<g id="a_node22"><a xlink:href="api_2spec_2traffic__mngr_8h.html" target="_top" xlink:title="traffic_mngr.h">
<polygon fill="#ffffff" stroke="#000000" points="264.5,-280.5 264.5,-299.5 348.5,-299.5 348.5,-280.5 264.5,-280.5"/>
<text text-anchor="middle" x="306.5" y="-287.5" font-family="Helvetica,sans-Serif" font-size="10.00" fill="#000000">traffic_mngr.h</text>
</a>
</g>
</g>
<!-- Node30&#45;&gt;Node33 -->
<g id="edge26" class="edge">
<title>Node30&#45;&gt;Node33</title>
<path fill="none" stroke="#191970" d="M282.3096,-327.6296C288.3144,-318.2887 295.3659,-307.3197 300.3011,-299.6427"/>
<polygon fill="#191970" stroke="#191970" points="279.2342,-325.9411 276.7707,-336.2455 285.1225,-329.7264 279.2342,-325.9411"/>
</g>
<!-- Node32 -->
<g id="node21" class="node">
<title>Node32</title>
<g id="a_node21"><a xlink:href="api_2classification_8h.html" target="_top" xlink:title="ODP classification descriptor. ">
<polygon fill="#ffffff" stroke="#000000" points="158,-224.5 158,-243.5 247,-243.5 247,-224.5 158,-224.5"/>
<text text-anchor="middle" x="202.5" y="-231.5" font-family="Helvetica,sans-Serif" font-size="10.00" fill="#000000">classification.h</text>
</a>
</g>
</g>
<!-- Node31&#45;&gt;Node32 -->
<g id="edge22" class="edge">
<title>Node31&#45;&gt;Node32</title>
<path fill="none" stroke="#191970" d="M202.5,-270.1575C202.5,-261.155 202.5,-250.9199 202.5,-243.6427"/>
<polygon fill="#191970" stroke="#191970" points="199.0001,-270.2455 202.5,-280.2455 206.0001,-270.2456 199.0001,-270.2455"/>
</g>
<!-- Node32&#45;&gt;Node17 -->
<g id="edge24" class="edge">
<title>Node32&#45;&gt;Node17</title>
<path fill="none" stroke="#191970" d="M221.036,-217.865C260.575,-183.4477 352.1916,-103.6985 384.2096,-75.8279"/>
<polygon fill="#191970" stroke="#191970" points="218.6742,-215.2806 213.4295,-224.4862 223.2702,-220.5605 218.6742,-215.2806"/>
</g>
<!-- Node32&#45;&gt;Node21 -->
<g id="edge23" class="edge">
<title>Node32&#45;&gt;Node21</title>
<path fill="none" stroke="#191970" d="M202.5,-214.1575C202.5,-205.155 202.5,-194.9199 202.5,-187.6427"/>
<polygon fill="#191970" stroke="#191970" points="199.0001,-214.2455 202.5,-224.2455 206.0001,-214.2456 199.0001,-214.2455"/>
</g>
<!-- Node34 -->
<g id="node23" class="node">
<title>Node34</title>
<g id="a_node23"><a xlink:href="api_2traffic__mngr_8h.html" target="_top" xlink:title="ODP Traffic manager. ">
<polygon fill="#ffffff" stroke="#000000" points="264.5,-224.5 264.5,-243.5 348.5,-243.5 348.5,-224.5 264.5,-224.5"/>
<text text-anchor="middle" x="306.5" y="-231.5" font-family="Helvetica,sans-Serif" font-size="10.00" fill="#000000">traffic_mngr.h</text>
</a>
</g>
</g>
<!-- Node33&#45;&gt;Node34 -->
<g id="edge27" class="edge">
<title>Node33&#45;&gt;Node34</title>
<path fill="none" stroke="#191970" d="M306.5,-270.1575C306.5,-261.155 306.5,-250.9199 306.5,-243.6427"/>
<polygon fill="#191970" stroke="#191970" points="303.0001,-270.2455 306.5,-280.2455 310.0001,-270.2456 303.0001,-270.2455"/>
</g>
<!-- Node34&#45;&gt;Node17 -->
<g id="edge29" class="edge">
<title>Node34&#45;&gt;Node17</title>
<path fill="none" stroke="#191970" d="M314.0451,-214.6134C323.9042,-190.0577 342.3074,-146.7562 362.5,-112 370.2023,-98.7424 380.7716,-84.561 387.8536,-75.5047"/>
<polygon fill="#191970" stroke="#191970" points="310.6786,-213.6086 310.2514,-224.1948 317.187,-216.1856 310.6786,-213.6086"/>
</g>
<!-- Node34&#45;&gt;Node21 -->
<g id="edge28" class="edge">
<title>Node34&#45;&gt;Node21</title>
<path fill="none" stroke="#191970" d="M279.4971,-219.46C260.8864,-209.4388 236.6701,-196.3993 220.4078,-187.6427"/>
<polygon fill="#191970" stroke="#191970" points="277.9205,-222.5861 288.3846,-224.2455 281.2392,-216.4228 277.9205,-222.5861"/>
</g>
<!-- Node36 -->
<g id="node25" class="node">
<title>Node36</title>
<g id="a_node25"><a xlink:href="api_2schedule_8h.html" target="_top" xlink:title="ODP schedule. ">
<polygon fill="#ffffff" stroke="#000000" points="422,-448.5 422,-467.5 491,-467.5 491,-448.5 422,-448.5"/>
<text text-anchor="middle" x="456.5" y="-455.5" font-family="Helvetica,sans-Serif" font-size="10.00" fill="#000000">schedule.h</text>
</a>
</g>
</g>
<!-- Node35&#45;&gt;Node36 -->
<g id="edge33" class="edge">
<title>Node35&#45;&gt;Node36</title>
<path fill="none" stroke="#191970" d="M456.5,-606.2601C456.5,-570.1669 456.5,-494.7656 456.5,-467.8279"/>
<polygon fill="#191970" stroke="#191970" points="453.0001,-606.4862 456.5,-616.4862 460.0001,-606.4863 453.0001,-606.4862"/>
</g>
<!-- Node36&#45;&gt;Node17 -->
<g id="edge34" class="edge">
<title>Node36&#45;&gt;Node17</title>
<path fill="none" stroke="#191970" d="M455.3656,-438.2029C454.183,-415.8273 452.5,-378.309 452.5,-346 452.5,-346 452.5,-346 452.5,-178 452.5,-136.1099 420.4375,-94.055 404.4063,-75.6456"/>
<polygon fill="#191970" stroke="#191970" points="451.8833,-438.6229 455.9269,-448.4157 458.8728,-438.2387 451.8833,-438.6229"/>
</g>
<!-- Node38 -->
<g id="node27" class="node">
<title>Node38</title>
<g id="a_node27"><a xlink:href="api_2packet__flags_8h.html" target="_top" xlink:title="ODP packet flags. ">
<polygon fill="#ffffff" stroke="#000000" points="519,-392.5 519,-411.5 606,-411.5 606,-392.5 519,-392.5"/>
<text text-anchor="middle" x="562.5" y="-399.5" font-family="Helvetica,sans-Serif" font-size="10.00" fill="#000000">packet_flags.h</text>
</a>
</g>
</g>
<!-- Node37&#45;&gt;Node38 -->
<g id="edge37" class="edge">
<title>Node37&#45;&gt;Node38</title>
<path fill="none" stroke="#191970" d="M552.6195,-662.2528C555.8718,-639.922 560.5,-602.4438 560.5,-570 560.5,-570 560.5,-570 560.5,-514 560.5,-476.0773 561.6604,-430.9433 562.2134,-411.5873"/>
<polygon fill="#191970" stroke="#191970" points="549.1132,-662.0313 551.076,-672.4427 556.0343,-663.0797 549.1132,-662.0313"/>
</g>
<!-- Node38&#45;&gt;Node17 -->
<g id="edge38" class="edge">
<title>Node38&#45;&gt;Node17</title>
<path fill="none" stroke="#191970" d="M557.748,-382.6376C552.7185,-360.416 545.5,-322.808 545.5,-290 545.5,-290 545.5,-290 545.5,-178 545.5,-119.6624 471.7537,-88.0702 427.6788,-74.3985"/>
<polygon fill="#191970" stroke="#191970" points="554.3676,-383.5526 560.0643,-392.4856 561.1816,-381.9498 554.3676,-383.5526"/>
</g>
<!-- Node40 -->
<g id="node29" class="node">
<title>Node40</title>
<g id="a_node29"><a xlink:href="api_2packet__types_8h.html" target="_top" xlink:title="ODP packet. ">
<polygon fill="#ffffff" stroke="#000000" points="450,-896.5 450,-915.5 541,-915.5 541,-896.5 450,-896.5"/>
<text text-anchor="middle" x="495.5" y="-903.5" font-family="Helvetica,sans-Serif" font-size="10.00" fill="#000000">packet_types.h</text>
</a>
</g>
</g>
<!-- Node39&#45;&gt;Node40 -->
<g id="edge42" class="edge">
<title>Node39&#45;&gt;Node40</title>
<path fill="none" stroke="#191970" d="M495.5,-942.1575C495.5,-933.155 495.5,-922.9199 495.5,-915.6427"/>
<polygon fill="#191970" stroke="#191970" points="492.0001,-942.2455 495.5,-952.2455 499.0001,-942.2456 492.0001,-942.2455"/>
</g>
<!-- Node40&#45;&gt;Node13 -->
<g id="edge43" class="edge">
<title>Node40&#45;&gt;Node13</title>
<path fill="none" stroke="#191970" d="M495.5,-886.1575C495.5,-877.155 495.5,-866.9199 495.5,-859.6427"/>
<polygon fill="#191970" stroke="#191970" points="492.0001,-886.2455 495.5,-896.2455 499.0001,-886.2456 492.0001,-886.2455"/>
</g>
<!-- Node42 -->
<g id="node31" class="node">
<title>Node42</title>
<g id="a_node31"><a xlink:href="api_2proto__stats_8h.html" target="_top" xlink:title="ODP proto stats. ">
<polygon fill="#ffffff" stroke="#000000" points="623.5,-840.5 623.5,-859.5 703.5,-859.5 703.5,-840.5 623.5,-840.5"/>
<text text-anchor="middle" x="663.5" y="-847.5" font-family="Helvetica,sans-Serif" font-size="10.00" fill="#000000">proto_stats.h</text>
</a>
</g>
</g>
<!-- Node41&#45;&gt;Node42 -->
<g id="edge45" class="edge">
<title>Node41&#45;&gt;Node42</title>
<path fill="none" stroke="#191970" d="M657.689,-886.1575C659.1358,-877.155 660.7807,-866.9199 661.9503,-859.6427"/>
<polygon fill="#191970" stroke="#191970" points="654.1989,-885.8168 656.0677,-896.2455 661.1102,-886.9276 654.1989,-885.8168"/>
</g>
<!-- Node42&#45;&gt;Node17 -->
<g id="edge46" class="edge">
<title>Node42&#45;&gt;Node17</title>
<path fill="none" stroke="#191970" d="M666.0523,-830.2338C668.7133,-807.8859 672.5,-770.3925 672.5,-738 672.5,-738 672.5,-738 672.5,-178 672.5,-129.1111 628.7089,-132.8734 584.5,-112 532.586,-87.4887 466.2753,-75.2464 427.5814,-69.7874"/>
<polygon fill="#191970" stroke="#191970" points="662.545,-830.0781 664.7895,-840.4324 669.4919,-830.9384 662.545,-830.0781"/>
</g>
</g>
</svg>
