<?xml version="1.0" encoding="UTF-8" standalone="no"?>
<!DOCTYPE svg PUBLIC "-//W3C//DTD SVG 1.1//EN"
 "http://www.w3.org/Graphics/SVG/1.1/DTD/svg11.dtd">
<!-- Generated by graphviz version 2.40.1 (20161225.0304)
 -->
<!-- Title: crypto.h Pages: 1 -->
<svg width="1361pt" height="744pt"
 viewBox="0.00 0.00 1360.53 744.00" xmlns="http://www.w3.org/2000/svg" xmlns:xlink="http://www.w3.org/1999/xlink">
<g id="graph0" class="graph" transform="scale(1 1) rotate(0) translate(4 740)">
<title>crypto.h</title>
<polygon fill="#ffffff" stroke="transparent" points="-4,4 -4,-740 1356.5302,-740 1356.5302,4 -4,4"/>
<!-- Node0 -->
<g id="node1" class="node">
<title>Node0</title>
<polygon fill="#bfbfbf" stroke="#000000" points="964.0302,-716.5 964.0302,-735.5 1020.0302,-735.5 1020.0302,-716.5 964.0302,-716.5"/>
<text text-anchor="middle" x="992.0302" y="-723.5" font-family="Helvetica,sans-Serif" font-size="10.00" fill="#000000">crypto.h</text>
</g>
<!-- Node1 -->
<g id="node2" class="node">
<title>Node1</title>
<g id="a_node2"><a xlink:href="api_2std__types_8h.html" target="_top" xlink:title="Standard C language types and definitions for ODP. ">
<polygon fill="#ffffff" stroke="#000000" points="255.0302,-235.5 255.0302,-254.5 367.0302,-254.5 367.0302,-235.5 255.0302,-235.5"/>
<text text-anchor="middle" x="311.0302" y="-242.5" font-family="Helvetica,sans-Serif" font-size="10.00" fill="#000000">odp/api/std_types.h</text>
</a>
</g>
</g>
<!-- Node0&#45;&gt;Node1 -->
<g id="edge1" class="edge">
<title>Node0&#45;&gt;Node1</title>
<path fill="none" stroke="#191970" d="M963.7264,-725.2517C847.6564,-722.0199 407.8671,-708.1335 272.0302,-680 150.4208,-654.8132 78.8289,-675.1425 16.0302,-568 -64.9295,-429.8728 187.5123,-300.1956 279.1414,-258.7244"/>
<polygon fill="#191970" stroke="#191970" points="280.7906,-261.8211 288.4931,-254.5463 277.9352,-255.4299 280.7906,-261.8211"/>
</g>
<!-- Node10 -->
<g id="node11" class="node">
<title>Node10</title>
<polygon fill="#ffffff" stroke="#bfbfbf" points="859.5302,-425.5 859.5302,-455.5 966.5302,-455.5 966.5302,-425.5 859.5302,-425.5"/>
<text text-anchor="start" x="867.5302" y="-443.5" font-family="Helvetica,sans-Serif" font-size="10.00" fill="#000000">odp/api/abi/packet</text>
<text text-anchor="middle" x="913.0302" y="-432.5" font-family="Helvetica,sans-Serif" font-size="10.00" fill="#000000">_types.h</text>
</g>
<!-- Node0&#45;&gt;Node10 -->
<g id="edge12" class="edge">
<title>Node0&#45;&gt;Node10</title>
<path fill="none" stroke="#191970" d="M992.0302,-716.4116C992.0302,-697.0538 992.0302,-651.9167 992.0302,-614 992.0302,-614 992.0302,-614 992.0302,-558 992.0302,-519.5725 962.5709,-484.2611 939.6314,-462.5897"/>
<polygon fill="#191970" stroke="#191970" points="941.9035,-459.925 932.1538,-455.7784 937.1897,-465.0999 941.9035,-459.925"/>
</g>
<!-- Node11 -->
<g id="node12" class="node">
<title>Node11</title>
<polygon fill="#ffffff" stroke="#bfbfbf" points="1239.5302,-660.5 1239.5302,-679.5 1352.5302,-679.5 1352.5302,-660.5 1239.5302,-660.5"/>
<text text-anchor="middle" x="1296.0302" y="-667.5" font-family="Helvetica,sans-Serif" font-size="10.00" fill="#000000">odp/api/abi/crypto.h</text>
</g>
<!-- Node0&#45;&gt;Node11 -->
<g id="edge13" class="edge">
<title>Node0&#45;&gt;Node11</title>
<path fill="none" stroke="#191970" d="M1020.0848,-720.832C1068.4996,-711.9135 1168.8244,-693.4326 1234.2331,-681.3837"/>
<polygon fill="#191970" stroke="#191970" points="1235.2172,-684.7614 1244.4177,-679.5076 1233.949,-677.8772 1235.2172,-684.7614"/>
</g>
<!-- Node12 -->
<g id="node13" class="node">
<title>Node12</title>
<polygon fill="#ffffff" stroke="#bfbfbf" points="25.0302,-548.5 25.0302,-567.5 135.0302,-567.5 135.0302,-548.5 25.0302,-548.5"/>
<text text-anchor="middle" x="80.0302" y="-555.5" font-family="Helvetica,sans-Serif" font-size="10.00" fill="#000000">odp/api/abi/buffer.h</text>
</g>
<!-- Node0&#45;&gt;Node12 -->
<g id="edge14" class="edge">
<title>Node0&#45;&gt;Node12</title>
<path fill="none" stroke="#191970" d="M963.6755,-724.9608C834.1503,-719.8548 298.6223,-694.7535 149.0302,-624 125.9809,-613.0983 105.7202,-591.4709 93.2179,-575.942"/>
<polygon fill="#191970" stroke="#191970" points="95.6769,-573.4003 86.7909,-567.6307 90.1394,-577.6825 95.6769,-573.4003"/>
</g>
<!-- Node13 -->
<g id="node14" class="node">
<title>Node13</title>
<polygon fill="#ffffff" stroke="#bfbfbf" points="191.0302,-548.5 191.0302,-567.5 295.0302,-567.5 295.0302,-548.5 191.0302,-548.5"/>
<text text-anchor="middle" x="243.0302" y="-555.5" font-family="Helvetica,sans-Serif" font-size="10.00" fill="#000000">odp/api/abi/pool.h</text>
</g>
<!-- Node0&#45;&gt;Node13 -->
<g id="edge15" class="edge">
<title>Node0&#45;&gt;Node13</title>
<path fill="none" stroke="#191970" d="M963.9128,-721.009C887.034,-707.2167 666.9953,-666.7654 486.0302,-624 415.132,-607.2454 333.5661,-584.3364 285.2643,-570.3853"/>
<polygon fill="#191970" stroke="#191970" points="286.057,-566.9711 275.478,-567.5497 284.1088,-573.6946 286.057,-566.9711"/>
</g>
<!-- Node14 -->
<g id="node15" class="node">
<title>Node14</title>
<polygon fill="#ffffff" stroke="#bfbfbf" points="1047.5302,-297 1047.5302,-316 1192.5302,-316 1192.5302,-297 1047.5302,-297"/>
<text text-anchor="middle" x="1120.0302" y="-304" font-family="Helvetica,sans-Serif" font-size="10.00" fill="#000000">odp/api/abi/queue_types.h</text>
</g>
<!-- Node0&#45;&gt;Node14 -->
<g id="edge16" class="edge">
<title>Node0&#45;&gt;Node14</title>
<path fill="none" stroke="#191970" d="M1020.2675,-721.931C1061.5825,-715.3343 1135.3175,-700.9029 1151.0302,-680 1234.1994,-569.3585 1157.7412,-384.6919 1129.5169,-325.4236"/>
<polygon fill="#191970" stroke="#191970" points="1132.5246,-323.6056 1124.9997,-316.1473 1126.2311,-326.6703 1132.5246,-323.6056"/>
</g>
<!-- Node15 -->
<g id="node16" class="node">
<title>Node15</title>
<g id="a_node16"><a xlink:href="api_2spec_2crypto_8h.html" target="_top" xlink:title="ODP crypto. ">
<polygon fill="#ffffff" stroke="#000000" points="1020.5302,-660.5 1020.5302,-679.5 1141.5302,-679.5 1141.5302,-660.5 1020.5302,-660.5"/>
<text text-anchor="middle" x="1081.0302" y="-667.5" font-family="Helvetica,sans-Serif" font-size="10.00" fill="#000000">odp/api/spec/crypto.h</text>
</a>
</g>
</g>
<!-- Node0&#45;&gt;Node15 -->
<g id="edge17" class="edge">
<title>Node0&#45;&gt;Node15</title>
<path fill="none" stroke="#191970" d="M1007.5328,-716.2455C1021.1881,-707.6534 1041.2959,-695.0014 1057.0291,-685.1018"/>
<polygon fill="#191970" stroke="#191970" points="1059.1052,-687.9307 1065.7052,-679.6427 1055.3773,-682.006 1059.1052,-687.9307"/>
</g>
<!-- Node2 -->
<g id="node3" class="node">
<title>Node2</title>
<polygon fill="#ffffff" stroke="#bfbfbf" points="338.0302,-174 338.0302,-193 468.0302,-193 468.0302,-174 338.0302,-174"/>
<text text-anchor="middle" x="403.0302" y="-181" font-family="Helvetica,sans-Serif" font-size="10.00" fill="#000000">odp/api/abi/std_types.h</text>
</g>
<!-- Node1&#45;&gt;Node2 -->
<g id="edge2" class="edge">
<title>Node1&#45;&gt;Node2</title>
<path fill="none" stroke="#191970" d="M325.4052,-235.3906C340.1233,-225.5519 363.2134,-210.1167 380.3891,-198.6351"/>
<polygon fill="#191970" stroke="#191970" points="382.3876,-201.5091 388.7561,-193.0419 378.4974,-195.6896 382.3876,-201.5091"/>
</g>
<!-- Node3 -->
<g id="node4" class="node">
<title>Node3</title>
<g id="a_node4"><a xlink:href="api_2spec_2std__types_8h.html" target="_top" xlink:title="Standard C language types and definitions for ODP. ">
<polygon fill="#ffffff" stroke="#000000" points="182.5302,-174 182.5302,-193 319.5302,-193 319.5302,-174 182.5302,-174"/>
<text text-anchor="middle" x="251.0302" y="-181" font-family="Helvetica,sans-Serif" font-size="10.00" fill="#000000">odp/api/spec/std_types.h</text>
</a>
</g>
</g>
<!-- Node1&#45;&gt;Node3 -->
<g id="edge3" class="edge">
<title>Node1&#45;&gt;Node3</title>
<path fill="none" stroke="#191970" d="M301.6552,-235.3906C292.5502,-226.0581 278.5327,-211.6902 267.5544,-200.4374"/>
<polygon fill="#191970" stroke="#191970" points="270.0258,-197.9586 260.5373,-193.2449 265.0154,-202.8468 270.0258,-197.9586"/>
</g>
<!-- Node4 -->
<g id="node5" class="node">
<title>Node4</title>
<g id="a_node5"><a xlink:href="visibility__begin_8h_source.html" target="_top" xlink:title="odp/visibility_begin.h">
<polygon fill="#ffffff" stroke="#000000" points="465.5302,-.5 465.5302,-19.5 586.5302,-19.5 586.5302,-.5 465.5302,-.5"/>
<text text-anchor="middle" x="526.0302" y="-7.5" font-family="Helvetica,sans-Serif" font-size="10.00" fill="#000000">odp/visibility_begin.h</text>
</a>
</g>
</g>
<!-- Node3&#45;&gt;Node4 -->
<g id="edge4" class="edge">
<title>Node3&#45;&gt;Node4</title>
<path fill="none" stroke="#191970" d="M240.9996,-173.9687C231.7058,-164.3855 218.5168,-148.6767 213.0302,-132 207.3389,-114.7012 204.5472,-68.6138 216.0302,-56 231.9286,-38.5359 368.858,-23.6015 455.333,-15.7986"/>
<polygon fill="#191970" stroke="#191970" points="455.7068,-19.2793 465.3567,-14.9056 455.0856,-12.3069 455.7068,-19.2793"/>
</g>
<!-- Node5 -->
<g id="node6" class="node">
<title>Node5</title>
<polygon fill="#ffffff" stroke="#bfbfbf" points="222.5302,-112.5 222.5302,-131.5 275.5302,-131.5 275.5302,-112.5 222.5302,-112.5"/>
<text text-anchor="middle" x="249.0302" y="-119.5" font-family="Helvetica,sans-Serif" font-size="10.00" fill="#000000">stdint.h</text>
</g>
<!-- Node3&#45;&gt;Node5 -->
<g id="edge5" class="edge">
<title>Node3&#45;&gt;Node5</title>
<path fill="none" stroke="#191970" d="M250.7177,-173.8906C250.4404,-165.3657 250.0265,-152.6392 249.6781,-141.9235"/>
<polygon fill="#191970" stroke="#191970" points="253.1703,-141.6258 249.3471,-131.7449 246.174,-141.8534 253.1703,-141.6258"/>
</g>
<!-- Node6 -->
<g id="node7" class="node">
<title>Node6</title>
<g id="a_node7"><a xlink:href="api_2align_8h.html" target="_top" xlink:title="ODP alignments. ">
<polygon fill="#ffffff" stroke="#000000" points="332.5302,-112.5 332.5302,-131.5 421.5302,-131.5 421.5302,-112.5 332.5302,-112.5"/>
<text text-anchor="middle" x="377.0302" y="-119.5" font-family="Helvetica,sans-Serif" font-size="10.00" fill="#000000">odp/api/align.h</text>
</a>
</g>
</g>
<!-- Node3&#45;&gt;Node6 -->
<g id="edge6" class="edge">
<title>Node3&#45;&gt;Node6</title>
<path fill="none" stroke="#191970" d="M270.7177,-173.8906C291.5224,-163.7359 324.5412,-147.6196 348.262,-136.0416"/>
<polygon fill="#191970" stroke="#191970" points="350.0295,-139.0736 357.4809,-131.5419 346.959,-132.783 350.0295,-139.0736"/>
</g>
<!-- Node9 -->
<g id="node10" class="node">
<title>Node9</title>
<g id="a_node10"><a xlink:href="visibility__end_8h_source.html" target="_top" xlink:title="odp/visibility_end.h">
<polygon fill="#ffffff" stroke="#000000" points="1063.0302,-.5 1063.0302,-19.5 1175.0302,-19.5 1175.0302,-.5 1063.0302,-.5"/>
<text text-anchor="middle" x="1119.0302" y="-7.5" font-family="Helvetica,sans-Serif" font-size="10.00" fill="#000000">odp/visibility_end.h</text>
</a>
</g>
</g>
<!-- Node3&#45;&gt;Node9 -->
<g id="edge11" class="edge">
<title>Node3&#45;&gt;Node9</title>
<path fill="none" stroke="#191970" d="M293.9805,-173.9482C375.9826,-155.6233 560.4496,-113.975 715.0302,-76 749.367,-67.5646 757.3558,-62.9184 792.0302,-56 881.5526,-38.1379 986.2197,-24.6996 1052.557,-17.0925"/>
<polygon fill="#191970" stroke="#191970" points="1053.3252,-20.5278 1062.8665,-15.9219 1052.5354,-13.5725 1053.3252,-20.5278"/>
</g>
<!-- Node7 -->
<g id="node8" class="node">
<title>Node7</title>
<polygon fill="#ffffff" stroke="#bfbfbf" points="258.5302,-56.5 258.5302,-75.5 365.5302,-75.5 365.5302,-56.5 258.5302,-56.5"/>
<text text-anchor="middle" x="312.0302" y="-63.5" font-family="Helvetica,sans-Serif" font-size="10.00" fill="#000000">odp/api/abi/align.h</text>
</g>
<!-- Node6&#45;&gt;Node7 -->
<g id="edge7" class="edge">
<title>Node6&#45;&gt;Node7</title>
<path fill="none" stroke="#191970" d="M365.708,-112.2455C356.1078,-103.9746 342.141,-91.9416 330.8607,-82.2232"/>
<polygon fill="#191970" stroke="#191970" points="333.0831,-79.5182 323.2225,-75.6427 328.5142,-84.8214 333.0831,-79.5182"/>
</g>
<!-- Node8 -->
<g id="node9" class="node">
<title>Node8</title>
<g id="a_node9"><a xlink:href="api_2spec_2align_8h.html" target="_top" xlink:title="ODP alignments. ">
<polygon fill="#ffffff" stroke="#000000" points="384.0302,-56.5 384.0302,-75.5 498.0302,-75.5 498.0302,-56.5 384.0302,-56.5"/>
<text text-anchor="middle" x="441.0302" y="-63.5" font-family="Helvetica,sans-Serif" font-size="10.00" fill="#000000">odp/api/spec/align.h</text>
</a>
</g>
</g>
<!-- Node6&#45;&gt;Node8 -->
<g id="edge8" class="edge">
<title>Node6&#45;&gt;Node8</title>
<path fill="none" stroke="#191970" d="M388.1781,-112.2455C397.5388,-104.0549 411.116,-92.1749 422.1651,-82.5069"/>
<polygon fill="#191970" stroke="#191970" points="424.7889,-84.8618 430.01,-75.6427 420.1794,-79.5937 424.7889,-84.8618"/>
</g>
<!-- Node8&#45;&gt;Node4 -->
<g id="edge9" class="edge">
<title>Node8&#45;&gt;Node4</title>
<path fill="none" stroke="#191970" d="M455.836,-56.2455C468.7558,-47.7337 487.7233,-35.2375 502.6854,-25.3801"/>
<polygon fill="#191970" stroke="#191970" points="504.9689,-28.067 511.394,-19.6427 501.1178,-22.2216 504.9689,-28.067"/>
</g>
<!-- Node8&#45;&gt;Node9 -->
<g id="edge10" class="edge">
<title>Node8&#45;&gt;Node9</title>
<path fill="none" stroke="#191970" d="M498.2517,-61.2737C623.1766,-50.9555 919.7501,-26.4597 1052.6313,-15.4843"/>
<polygon fill="#191970" stroke="#191970" points="1052.9996,-18.9659 1062.6776,-14.6545 1052.4234,-11.9896 1052.9996,-18.9659"/>
</g>
<!-- Node15&#45;&gt;Node4 -->
<g id="edge18" class="edge">
<title>Node15&#45;&gt;Node4</title>
<path fill="none" stroke="#191970" d="M1020.3206,-667.2557C828.31,-658.0158 243.2467,-625.3581 182.0302,-568 94.5597,-486.0429 116.0302,-426.3668 116.0302,-306.5 116.0302,-306.5 116.0302,-306.5 116.0302,-122 116.0302,-83.5305 138.2369,-74.3825 172.0302,-56 219.4714,-30.1934 366.3892,-18.2047 455.3495,-13.1804"/>
<polygon fill="#191970" stroke="#191970" points="455.5747,-16.6734 465.3677,-12.6301 455.1907,-9.6839 455.5747,-16.6734"/>
</g>
<!-- Node15&#45;&gt;Node9 -->
<g id="edge68" class="edge">
<title>Node15&#45;&gt;Node9</title>
<path fill="none" stroke="#191970" d="M1091.1212,-660.2384C1135.2461,-616.4558 1309.0302,-432.1407 1309.0302,-245 1309.0302,-245 1309.0302,-245 1309.0302,-122 1309.0302,-62.973 1240.1347,-34.4224 1185.3172,-21.048"/>
<polygon fill="#191970" stroke="#191970" points="1185.7967,-17.5666 1175.2652,-18.7234 1184.2195,-24.3866 1185.7967,-17.5666"/>
</g>
<!-- Node16 -->
<g id="node17" class="node">
<title>Node16</title>
<g id="a_node17"><a xlink:href="deprecated_8h.html" target="_top" xlink:title="Control deprecated API definitions. ">
<polygon fill="#ffffff" stroke="#000000" points="1085.5302,-235.5 1085.5302,-254.5 1204.5302,-254.5 1204.5302,-235.5 1085.5302,-235.5"/>
<text text-anchor="middle" x="1145.0302" y="-242.5" font-family="Helvetica,sans-Serif" font-size="10.00" fill="#000000">odp/api/deprecated.h</text>
</a>
</g>
</g>
<!-- Node15&#45;&gt;Node16 -->
<g id="edge19" class="edge">
<title>Node15&#45;&gt;Node16</title>
<path fill="none" stroke="#191970" d="M1085.745,-660.3544C1105.0864,-620.1778 1178.4355,-461.703 1202.0302,-322 1204.3246,-308.4146 1207.972,-303.4307 1202.0302,-291 1195.8854,-278.1449 1184.2002,-267.7306 1173.0017,-260.0832"/>
<polygon fill="#191970" stroke="#191970" points="1174.5641,-256.9304 1164.2402,-254.5495 1170.826,-262.8488 1174.5641,-256.9304"/>
</g>
<!-- Node18 -->
<g id="node19" class="node">
<title>Node18</title>
<g id="a_node19"><a xlink:href="support_8h.html" target="_top" xlink:title="ODP support API &#45; platform specific header. ">
<polygon fill="#ffffff" stroke="#000000" points="970.5302,-112.5 970.5302,-131.5 1071.5302,-131.5 1071.5302,-112.5 970.5302,-112.5"/>
<text text-anchor="middle" x="1021.0302" y="-119.5" font-family="Helvetica,sans-Serif" font-size="10.00" fill="#000000">odp/api/support.h</text>
</a>
</g>
</g>
<!-- Node15&#45;&gt;Node18 -->
<g id="edge23" class="edge">
<title>Node15&#45;&gt;Node18</title>
<path fill="none" stroke="#191970" d="M1073.74,-660.4077C1060.3121,-641.7535 1033.0302,-598.829 1033.0302,-558 1033.0302,-558 1033.0302,-558 1033.0302,-440.5 1033.0302,-327.305 1025.3677,-191.6412 1022.2887,-141.6965"/>
<polygon fill="#191970" stroke="#191970" points="1025.777,-141.3982 1021.6584,-131.6367 1018.7907,-141.836 1025.777,-141.3982"/>
</g>
<!-- Node20 -->
<g id="node21" class="node">
<title>Node20</title>
<g id="a_node21"><a xlink:href="api_2packet_8h.html" target="_top" xlink:title="ODP packet descriptor. ">
<polygon fill="#ffffff" stroke="#000000" points="495.0302,-604.5 495.0302,-623.5 593.0302,-623.5 593.0302,-604.5 495.0302,-604.5"/>
<text text-anchor="middle" x="544.0302" y="-611.5" font-family="Helvetica,sans-Serif" font-size="10.00" fill="#000000">odp/api/packet.h</text>
</a>
</g>
</g>
<!-- Node15&#45;&gt;Node20 -->
<g id="edge27" class="edge">
<title>Node15&#45;&gt;Node20</title>
<path fill="none" stroke="#191970" d="M1020.4733,-663.6849C916.7849,-652.872 706.4921,-630.942 603.5319,-620.205"/>
<polygon fill="#191970" stroke="#191970" points="603.6215,-616.6955 593.3123,-619.1393 602.8954,-623.6577 603.6215,-616.6955"/>
</g>
<!-- Node17 -->
<g id="node18" class="node">
<title>Node17</title>
<g id="a_node18"><a xlink:href="spec_2deprecated_8h.html" target="_top" xlink:title="Macro for deprecated API definitions. ">
<polygon fill="#ffffff" stroke="#000000" points="945.5302,-56.5 945.5302,-75.5 1090.5302,-75.5 1090.5302,-56.5 945.5302,-56.5"/>
<text text-anchor="middle" x="1018.0302" y="-63.5" font-family="Helvetica,sans-Serif" font-size="10.00" fill="#000000">odp/api/spec/deprecated.h</text>
</a>
</g>
</g>
<!-- Node16&#45;&gt;Node17 -->
<g id="edge20" class="edge">
<title>Node16&#45;&gt;Node17</title>
<path fill="none" stroke="#191970" d="M1142.2163,-235.3988C1135.0549,-212.1827 1114.3139,-151.9756 1081.0302,-112 1070.78,-99.689 1056.5515,-88.9337 1044.2096,-80.925"/>
<polygon fill="#191970" stroke="#191970" points="1045.9804,-77.9046 1035.6401,-75.5958 1042.2837,-83.8489 1045.9804,-77.9046"/>
</g>
<!-- Node17&#45;&gt;Node4 -->
<g id="edge21" class="edge">
<title>Node17&#45;&gt;Node4</title>
<path fill="none" stroke="#191970" d="M945.1771,-56.9661C942.4269,-56.6377 939.7039,-56.3147 937.0302,-56 817.5805,-41.9425 678.4756,-26.5861 596.5832,-17.6497"/>
<polygon fill="#191970" stroke="#191970" points="596.9609,-14.1702 586.6404,-16.5656 596.2021,-21.129 596.9609,-14.1702"/>
</g>
<!-- Node17&#45;&gt;Node9 -->
<g id="edge22" class="edge">
<title>Node17&#45;&gt;Node9</title>
<path fill="none" stroke="#191970" d="M1035.623,-56.2455C1051.4092,-47.4928 1074.794,-34.527 1092.7889,-24.5496"/>
<polygon fill="#191970" stroke="#191970" points="1094.5904,-27.5528 1101.6389,-19.6427 1091.196,-21.4308 1094.5904,-27.5528"/>
</g>
<!-- Node19 -->
<g id="node20" class="node">
<title>Node19</title>
<g id="a_node20"><a xlink:href="spec_2support_8h.html" target="_top" xlink:title="ODP support API. ">
<polygon fill="#ffffff" stroke="#000000" points="800.5302,-56.5 800.5302,-75.5 927.5302,-75.5 927.5302,-56.5 800.5302,-56.5"/>
<text text-anchor="middle" x="864.0302" y="-63.5" font-family="Helvetica,sans-Serif" font-size="10.00" fill="#000000">odp/api/spec/support.h</text>
</a>
</g>
</g>
<!-- Node18&#45;&gt;Node19 -->
<g id="edge24" class="edge">
<title>Node18&#45;&gt;Node19</title>
<path fill="none" stroke="#191970" d="M994.0409,-112.3733C968.1602,-103.1419 928.9054,-89.1402 900.3013,-78.9375"/>
<polygon fill="#191970" stroke="#191970" points="901.2619,-75.5642 890.6672,-75.5011 898.9101,-82.1573 901.2619,-75.5642"/>
</g>
<!-- Node19&#45;&gt;Node4 -->
<g id="edge25" class="edge">
<title>Node19&#45;&gt;Node4</title>
<path fill="none" stroke="#191970" d="M806.3099,-56.4369C747.3701,-46.6717 655.9232,-31.5207 593.6336,-21.2006"/>
<polygon fill="#191970" stroke="#191970" points="593.9499,-17.7053 583.5123,-19.5237 592.8057,-24.6112 593.9499,-17.7053"/>
</g>
<!-- Node19&#45;&gt;Node9 -->
<g id="edge26" class="edge">
<title>Node19&#45;&gt;Node9</title>
<path fill="none" stroke="#191970" d="M907.5765,-56.4369C951.3094,-46.8328 1018.7646,-32.0191 1065.6844,-21.7152"/>
<polygon fill="#191970" stroke="#191970" points="1066.647,-25.0872 1075.6634,-19.5237 1065.1454,-18.2502 1066.647,-25.0872"/>
</g>
<!-- Node20&#45;&gt;Node1 -->
<g id="edge28" class="edge">
<title>Node20&#45;&gt;Node1</title>
<path fill="none" stroke="#191970" d="M494.5607,-605.6285C438.2594,-595.6564 352.6742,-578.9713 342.0302,-568 301.8207,-526.5541 317.0302,-498.2457 317.0302,-440.5 317.0302,-440.5 317.0302,-440.5 317.0302,-373.5 317.0302,-334.9593 314.3037,-289.9871 312.5266,-264.7679"/>
<polygon fill="#191970" stroke="#191970" points="316.0079,-264.3837 311.7901,-254.6647 309.0265,-264.8927 316.0079,-264.3837"/>
</g>
<!-- Node20&#45;&gt;Node10 -->
<g id="edge31" class="edge">
<title>Node20&#45;&gt;Node10</title>
<path fill="none" stroke="#191970" d="M593.356,-610.7797C684.7192,-604.3475 872.9409,-588.7285 894.0302,-568 920.9204,-541.5696 920.6462,-494.7059 917.3156,-465.7509"/>
<polygon fill="#191970" stroke="#191970" points="920.7525,-465.0491 915.9397,-455.6105 913.816,-465.9903 920.7525,-465.0491"/>
</g>
<!-- Node20&#45;&gt;Node12 -->
<g id="edge33" class="edge">
<title>Node20&#45;&gt;Node12</title>
<path fill="none" stroke="#191970" d="M494.8133,-608.06C410.6503,-597.9024 239.0877,-577.1966 145.128,-565.8566"/>
<polygon fill="#191970" stroke="#191970" points="145.5215,-562.3788 135.1741,-564.6553 144.6827,-569.3284 145.5215,-562.3788"/>
</g>
<!-- Node20&#45;&gt;Node13 -->
<g id="edge34" class="edge">
<title>Node20&#45;&gt;Node13</title>
<path fill="none" stroke="#191970" d="M494.9994,-604.878C442.9041,-595.1858 360.4469,-579.845 304.1521,-569.3715"/>
<polygon fill="#191970" stroke="#191970" points="304.7787,-565.9281 294.3072,-567.5399 303.4983,-572.81 304.7787,-565.9281"/>
</g>
<!-- Node21 -->
<g id="node22" class="node">
<title>Node21</title>
<polygon fill="#ffffff" stroke="#bfbfbf" points="351.0302,-548.5 351.0302,-567.5 461.0302,-567.5 461.0302,-548.5 351.0302,-548.5"/>
<text text-anchor="middle" x="406.0302" y="-555.5" font-family="Helvetica,sans-Serif" font-size="10.00" fill="#000000">odp/api/abi/event.h</text>
</g>
<!-- Node20&#45;&gt;Node21 -->
<g id="edge29" class="edge">
<title>Node20&#45;&gt;Node21</title>
<path fill="none" stroke="#191970" d="M520.3071,-604.3733C497.8565,-595.2629 463.9562,-581.5062 438.9047,-571.3404"/>
<polygon fill="#191970" stroke="#191970" points="440.0258,-568.0182 429.4436,-567.5011 437.3937,-574.5045 440.0258,-568.0182"/>
</g>
<!-- Node22 -->
<g id="node23" class="node">
<title>Node22</title>
<polygon fill="#ffffff" stroke="#bfbfbf" points="479.0302,-548.5 479.0302,-567.5 609.0302,-567.5 609.0302,-548.5 479.0302,-548.5"/>
<text text-anchor="middle" x="544.0302" y="-555.5" font-family="Helvetica,sans-Serif" font-size="10.00" fill="#000000">odp/api/abi/packet_io.h</text>
</g>
<!-- Node20&#45;&gt;Node22 -->
<g id="edge30" class="edge">
<title>Node20&#45;&gt;Node22</title>
<path fill="none" stroke="#191970" d="M544.0302,-604.2455C544.0302,-596.9382 544.0302,-586.6944 544.0302,-577.7046"/>
<polygon fill="#191970" stroke="#191970" points="547.5303,-577.6426 544.0302,-567.6427 540.5303,-577.6427 547.5303,-577.6426"/>
</g>
<!-- Node23 -->
<g id="node24" class="node">
<title>Node23</title>
<polygon fill="#ffffff" stroke="#bfbfbf" points="769.0302,-548.5 769.0302,-567.5 885.0302,-567.5 885.0302,-548.5 769.0302,-548.5"/>
<text text-anchor="middle" x="827.0302" y="-555.5" font-family="Helvetica,sans-Serif" font-size="10.00" fill="#000000">odp/api/abi/packet.h</text>
</g>
<!-- Node20&#45;&gt;Node23 -->
<g id="edge32" class="edge">
<title>Node20&#45;&gt;Node23</title>
<path fill="none" stroke="#191970" d="M592.358,-604.4369C641.1983,-594.7724 716.6978,-579.8326 768.8066,-569.5213"/>
<polygon fill="#191970" stroke="#191970" points="769.7712,-572.8983 778.9016,-567.5237 768.4124,-566.0315 769.7712,-572.8983"/>
</g>
<!-- Node24 -->
<g id="node25" class="node">
<title>Node24</title>
<g id="a_node25"><a xlink:href="api_2spec_2packet_8h.html" target="_top" xlink:title="ODP packet descriptor. ">
<polygon fill="#ffffff" stroke="#000000" points="627.5302,-548.5 627.5302,-567.5 750.5302,-567.5 750.5302,-548.5 627.5302,-548.5"/>
<text text-anchor="middle" x="689.0302" y="-555.5" font-family="Helvetica,sans-Serif" font-size="10.00" fill="#000000">odp/api/spec/packet.h</text>
</a>
</g>
</g>
<!-- Node20&#45;&gt;Node24 -->
<g id="edge35" class="edge">
<title>Node20&#45;&gt;Node24</title>
<path fill="none" stroke="#191970" d="M568.9565,-604.3733C592.6503,-595.2226 628.4812,-581.3844 654.8369,-571.2057"/>
<polygon fill="#191970" stroke="#191970" points="656.3615,-574.3689 664.429,-567.5011 653.8396,-567.8389 656.3615,-574.3689"/>
</g>
<!-- Node24&#45;&gt;Node4 -->
<g id="edge36" class="edge">
<title>Node24&#45;&gt;Node4</title>
<path fill="none" stroke="#191970" d="M649.2553,-548.4571C525.2677,-517.5651 154.0302,-415.9324 154.0302,-306.5 154.0302,-306.5 154.0302,-306.5 154.0302,-122 154.0302,-84.6561 173.6806,-74.6568 206.0302,-56 247.2359,-32.2355 374.1613,-19.7745 455.2302,-14.0668"/>
<polygon fill="#191970" stroke="#191970" points="455.6332,-17.5475 465.3702,-13.3711 455.154,-10.5639 455.6332,-17.5475"/>
</g>
<!-- Node24&#45;&gt;Node9 -->
<g id="edge67" class="edge">
<title>Node24&#45;&gt;Node9</title>
<path fill="none" stroke="#191970" d="M750.2143,-548.4618C899.6406,-521.3391 1271.0302,-429.2123 1271.0302,-183.5 1271.0302,-183.5 1271.0302,-183.5 1271.0302,-122 1271.0302,-68.8635 1210.0822,-38.1127 1165.3738,-22.7035"/>
<polygon fill="#191970" stroke="#191970" points="1166.4182,-19.3626 1155.8251,-19.5566 1164.2271,-26.0108 1166.4182,-19.3626"/>
</g>
<!-- Node25 -->
<g id="node26" class="node">
<title>Node25</title>
<g id="a_node26"><a xlink:href="api_2proto__stats__types_8h.html" target="_top" xlink:title="ODP proto stats types. ">
<polygon fill="#ffffff" stroke="#000000" points="634.0302,-358.5 634.0302,-388.5 744.0302,-388.5 744.0302,-358.5 634.0302,-358.5"/>
<text text-anchor="start" x="642.0302" y="-376.5" font-family="Helvetica,sans-Serif" font-size="10.00" fill="#000000">odp/api/proto_stats</text>
<text text-anchor="middle" x="689.0302" y="-365.5" font-family="Helvetica,sans-Serif" font-size="10.00" fill="#000000">_types.h</text>
</a>
</g>
</g>
<!-- Node24&#45;&gt;Node25 -->
<g id="edge37" class="edge">
<title>Node24&#45;&gt;Node25</title>
<path fill="none" stroke="#191970" d="M689.0302,-548.3402C689.0302,-520.6387 689.0302,-440.2663 689.0302,-398.8429"/>
<polygon fill="#191970" stroke="#191970" points="692.5303,-398.7363 689.0302,-388.7363 685.5303,-398.7364 692.5303,-398.7363"/>
</g>
<!-- Node28 -->
<g id="node29" class="node">
<title>Node28</title>
<g id="a_node29"><a xlink:href="api_2time_8h.html" target="_top" xlink:title="ODP time. ">
<polygon fill="#ffffff" stroke="#000000" points="394.5302,-297 394.5302,-316 481.5302,-316 481.5302,-297 394.5302,-297"/>
<text text-anchor="middle" x="438.0302" y="-304" font-family="Helvetica,sans-Serif" font-size="10.00" fill="#000000">odp/api/time.h</text>
</a>
</g>
</g>
<!-- Node24&#45;&gt;Node28 -->
<g id="edge43" class="edge">
<title>Node24&#45;&gt;Node28</title>
<path fill="none" stroke="#191970" d="M679.4972,-548.448C641.8349,-510.7107 503.1086,-371.7081 454.772,-323.2752"/>
<polygon fill="#191970" stroke="#191970" points="457.1141,-320.6672 447.5727,-316.0615 452.1594,-325.6121 457.1141,-320.6672"/>
</g>
<!-- Node31 -->
<g id="node32" class="node">
<title>Node31</title>
<g id="a_node32"><a xlink:href="api_2packet__types_8h.html" target="_top" xlink:title="ODP packet. ">
<polygon fill="#ffffff" stroke="#000000" points="718.0302,-492.5 718.0302,-511.5 848.0302,-511.5 848.0302,-492.5 718.0302,-492.5"/>
<text text-anchor="middle" x="783.0302" y="-499.5" font-family="Helvetica,sans-Serif" font-size="10.00" fill="#000000">odp/api/packet_types.h</text>
</a>
</g>
</g>
<!-- Node24&#45;&gt;Node31 -->
<g id="edge49" class="edge">
<title>Node24&#45;&gt;Node31</title>
<path fill="none" stroke="#191970" d="M705.4037,-548.2455C719.961,-539.5731 741.4612,-526.7645 758.1454,-516.825"/>
<polygon fill="#191970" stroke="#191970" points="760.0445,-519.7676 766.8442,-511.6427 756.4619,-513.7539 760.0445,-519.7676"/>
</g>
<!-- Node26 -->
<g id="node27" class="node">
<title>Node26</title>
<polygon fill="#ffffff" stroke="#bfbfbf" points="625.0302,-291.5 625.0302,-321.5 753.0302,-321.5 753.0302,-291.5 625.0302,-291.5"/>
<text text-anchor="start" x="633.0302" y="-309.5" font-family="Helvetica,sans-Serif" font-size="10.00" fill="#000000">odp/api/abi/proto_stats</text>
<text text-anchor="middle" x="689.0302" y="-298.5" font-family="Helvetica,sans-Serif" font-size="10.00" fill="#000000">_types.h</text>
</g>
<!-- Node25&#45;&gt;Node26 -->
<g id="edge38" class="edge">
<title>Node25&#45;&gt;Node26</title>
<path fill="none" stroke="#191970" d="M689.0302,-358.2967C689.0302,-350.5013 689.0302,-340.7991 689.0302,-331.9064"/>
<polygon fill="#191970" stroke="#191970" points="692.5302,-331.6431 689.0302,-321.6432 685.5302,-331.6432 692.5302,-331.6431"/>
</g>
<!-- Node27 -->
<g id="node28" class="node">
<title>Node27</title>
<g id="a_node28"><a xlink:href="api_2spec_2proto__stats__types_8h.html" target="_top" xlink:title="ODP proto stats types. ">
<polygon fill="#ffffff" stroke="#000000" points="499.5302,-291.5 499.5302,-321.5 606.5302,-321.5 606.5302,-291.5 499.5302,-291.5"/>
<text text-anchor="start" x="507.5302" y="-309.5" font-family="Helvetica,sans-Serif" font-size="10.00" fill="#000000">odp/api/spec/proto</text>
<text text-anchor="middle" x="553.0302" y="-298.5" font-family="Helvetica,sans-Serif" font-size="10.00" fill="#000000">_stats_types.h</text>
</a>
</g>
</g>
<!-- Node25&#45;&gt;Node27 -->
<g id="edge39" class="edge">
<title>Node25&#45;&gt;Node27</title>
<path fill="none" stroke="#191970" d="M658.5091,-358.4639C639.1347,-348.9191 613.8572,-336.4663 592.9045,-326.144"/>
<polygon fill="#191970" stroke="#191970" points="594.4372,-322.9974 583.9199,-321.7177 591.3436,-329.2768 594.4372,-322.9974"/>
</g>
<!-- Node27&#45;&gt;Node1 -->
<g id="edge41" class="edge">
<title>Node27&#45;&gt;Node1</title>
<path fill="none" stroke="#191970" d="M499.3225,-292.8512C457.0889,-282.1182 398.818,-267.3097 358.3303,-257.0205"/>
<polygon fill="#191970" stroke="#191970" points="358.9945,-253.5781 348.4405,-254.5072 357.2703,-260.3625 358.9945,-253.5781"/>
</g>
<!-- Node27&#45;&gt;Node4 -->
<g id="edge40" class="edge">
<title>Node27&#45;&gt;Node4</title>
<path fill="none" stroke="#191970" d="M549.1437,-291.2853C540.9676,-262.4875 519.1705,-200.0358 477.0302,-168 421.4184,-125.7231 387.2497,-161.7202 324.0302,-132 305.3672,-123.2263 259.213,-94.4651 250.0302,-76 246.0721,-68.041 244.2846,-62.7824 250.0302,-56 263.2147,-40.4362 377.904,-25.494 455.2302,-17.0573"/>
<polygon fill="#191970" stroke="#191970" points="455.8396,-20.512 465.4071,-15.9608 455.0897,-13.5523 455.8396,-20.512"/>
</g>
<!-- Node27&#45;&gt;Node9 -->
<g id="edge42" class="edge">
<title>Node27&#45;&gt;Node9</title>
<path fill="none" stroke="#191970" d="M606.5404,-292.8036C609.7421,-292.1494 612.9231,-291.5412 616.0302,-291 768.3446,-264.4688 823.0027,-322.6386 962.0302,-255 1057.4509,-208.5766 1088.2495,-177.2435 1120.0302,-76 1124.7493,-60.9663 1124.1106,-43.0419 1122.5081,-29.6692"/>
<polygon fill="#191970" stroke="#191970" points="1125.9549,-29.0515 1121.0318,-19.67 1119.03,-30.074 1125.9549,-29.0515"/>
</g>
<!-- Node28&#45;&gt;Node1 -->
<g id="edge44" class="edge">
<title>Node28&#45;&gt;Node1</title>
<path fill="none" stroke="#191970" d="M418.1864,-296.8906C397.2166,-286.7359 363.9357,-270.6196 340.0266,-259.0416"/>
<polygon fill="#191970" stroke="#191970" points="341.2603,-255.7502 330.7346,-254.5419 338.2094,-262.0504 341.2603,-255.7502"/>
</g>
<!-- Node29 -->
<g id="node30" class="node">
<title>Node29</title>
<polygon fill="#ffffff" stroke="#bfbfbf" points="385.5302,-235.5 385.5302,-254.5 490.5302,-254.5 490.5302,-235.5 385.5302,-235.5"/>
<text text-anchor="middle" x="438.0302" y="-242.5" font-family="Helvetica,sans-Serif" font-size="10.00" fill="#000000">odp/api/abi/time.h</text>
</g>
<!-- Node28&#45;&gt;Node29 -->
<g id="edge45" class="edge">
<title>Node28&#45;&gt;Node29</title>
<path fill="none" stroke="#191970" d="M438.0302,-296.8906C438.0302,-288.3657 438.0302,-275.6392 438.0302,-264.9235"/>
<polygon fill="#191970" stroke="#191970" points="441.5303,-264.7448 438.0302,-254.7449 434.5303,-264.7449 441.5303,-264.7448"/>
</g>
<!-- Node30 -->
<g id="node31" class="node">
<title>Node30</title>
<g id="a_node31"><a xlink:href="api_2spec_2time_8h.html" target="_top" xlink:title="ODP time. ">
<polygon fill="#ffffff" stroke="#000000" points="592.5302,-56.5 592.5302,-75.5 705.5302,-75.5 705.5302,-56.5 592.5302,-56.5"/>
<text text-anchor="middle" x="649.0302" y="-63.5" font-family="Helvetica,sans-Serif" font-size="10.00" fill="#000000">odp/api/spec/time.h</text>
</a>
</g>
</g>
<!-- Node28&#45;&gt;Node30 -->
<g id="edge46" class="edge">
<title>Node28&#45;&gt;Node30</title>
<path fill="none" stroke="#191970" d="M451.0544,-296.9686C464.0906,-287.1413 484.4025,-271.0321 500.0302,-255 556.2803,-197.2942 612.3454,-119.263 636.5772,-84.2856"/>
<polygon fill="#191970" stroke="#191970" points="639.7579,-85.8373 642.5413,-75.6146 633.9905,-81.8703 639.7579,-85.8373"/>
</g>
<!-- Node30&#45;&gt;Node4 -->
<g id="edge47" class="edge">
<title>Node30&#45;&gt;Node4</title>
<path fill="none" stroke="#191970" d="M627.8857,-56.3733C608.141,-47.3838 578.4603,-33.8706 556.2247,-23.7471"/>
<polygon fill="#191970" stroke="#191970" points="557.4501,-20.4594 546.8987,-19.5011 554.5495,-26.8302 557.4501,-20.4594"/>
</g>
<!-- Node30&#45;&gt;Node9 -->
<g id="edge48" class="edge">
<title>Node30&#45;&gt;Node9</title>
<path fill="none" stroke="#191970" d="M705.7231,-59.2451C793.0305,-48.8425 959.9936,-28.949 1052.7564,-17.8965"/>
<polygon fill="#191970" stroke="#191970" points="1053.3521,-21.3503 1062.8677,-16.6917 1052.5238,-14.3995 1053.3521,-21.3503"/>
</g>
<!-- Node31&#45;&gt;Node10 -->
<g id="edge50" class="edge">
<title>Node31&#45;&gt;Node10</title>
<path fill="none" stroke="#191970" d="M803.3427,-492.3906C821.6697,-483.7205 849.1831,-470.7046 872.0688,-459.8779"/>
<polygon fill="#191970" stroke="#191970" points="873.6858,-462.9849 881.2286,-455.5446 870.6923,-456.6572 873.6858,-462.9849"/>
</g>
<!-- Node32 -->
<g id="node33" class="node">
<title>Node32</title>
<g id="a_node33"><a xlink:href="api_2spec_2packet__types_8h.html" target="_top" xlink:title="ODP packet types. ">
<polygon fill="#ffffff" stroke="#000000" points="726.0302,-425.5 726.0302,-455.5 840.0302,-455.5 840.0302,-425.5 726.0302,-425.5"/>
<text text-anchor="start" x="734.0302" y="-443.5" font-family="Helvetica,sans-Serif" font-size="10.00" fill="#000000">odp/api/spec/packet</text>
<text text-anchor="middle" x="783.0302" y="-432.5" font-family="Helvetica,sans-Serif" font-size="10.00" fill="#000000">_types.h</text>
</a>
</g>
</g>
<!-- Node31&#45;&gt;Node32 -->
<g id="edge51" class="edge">
<title>Node31&#45;&gt;Node32</title>
<path fill="none" stroke="#191970" d="M783.0302,-492.3906C783.0302,-485.2234 783.0302,-475.0862 783.0302,-465.671"/>
<polygon fill="#191970" stroke="#191970" points="786.5303,-465.5446 783.0302,-455.5446 779.5303,-465.5446 786.5303,-465.5446"/>
</g>
<!-- Node32&#45;&gt;Node4 -->
<g id="edge52" class="edge">
<title>Node32&#45;&gt;Node4</title>
<path fill="none" stroke="#191970" d="M783.8295,-425.2165C784.6778,-397.1584 783.6087,-336.171 762.0302,-291 761.92,-290.7695 561.1785,-76.208 561.0302,-76 550.4658,-61.192 540.9719,-42.7998 534.5464,-29.1952"/>
<polygon fill="#191970" stroke="#191970" points="537.6159,-27.4923 530.2639,-19.8635 531.2538,-30.412 537.6159,-27.4923"/>
</g>
<!-- Node32&#45;&gt;Node9 -->
<g id="edge66" class="edge">
<title>Node32&#45;&gt;Node9</title>
<path fill="none" stroke="#191970" d="M795.5808,-425.2198C811.1721,-407.073 839.3611,-376.8908 869.0302,-358 906.417,-334.1951 920.805,-338.2768 962.0302,-322 996.344,-308.452 1003.7089,-301.6487 1039.0302,-291 1115.0567,-268.0795 1156.3082,-309.5304 1214.0302,-255 1237.9316,-232.42 1233.0302,-216.3806 1233.0302,-183.5 1233.0302,-183.5 1233.0302,-183.5 1233.0302,-122 1233.0302,-75.4628 1184.0919,-41.828 1150.3437,-24.1659"/>
<polygon fill="#191970" stroke="#191970" points="1151.7878,-20.9746 1141.2811,-19.6105 1148.6439,-27.2289 1151.7878,-20.9746"/>
</g>
<!-- Node32&#45;&gt;Node25 -->
<g id="edge53" class="edge">
<title>Node32&#45;&gt;Node25</title>
<path fill="none" stroke="#191970" d="M761.7001,-425.2967C748.9605,-416.2163 732.5912,-404.5488 718.6149,-394.587"/>
<polygon fill="#191970" stroke="#191970" points="720.4505,-391.5973 710.2758,-388.6432 716.3875,-397.2975 720.4505,-391.5973"/>
</g>
<!-- Node33 -->
<g id="node34" class="node">
<title>Node33</title>
<g id="a_node34"><a xlink:href="api_2queue__types_8h.html" target="_top" xlink:title="ODP queue. ">
<polygon fill="#ffffff" stroke="#000000" points="877.5302,-364 877.5302,-383 1004.5302,-383 1004.5302,-364 877.5302,-364"/>
<text text-anchor="middle" x="941.0302" y="-371" font-family="Helvetica,sans-Serif" font-size="10.00" fill="#000000">odp/api/queue_types.h</text>
</a>
</g>
</g>
<!-- Node32&#45;&gt;Node33 -->
<g id="edge54" class="edge">
<title>Node32&#45;&gt;Node33</title>
<path fill="none" stroke="#191970" d="M818.4884,-425.4639C845.5959,-413.969 882.6501,-398.2561 908.8957,-387.1266"/>
<polygon fill="#191970" stroke="#191970" points="910.5421,-390.2302 918.3821,-383.1039 907.8092,-383.7857 910.5421,-390.2302"/>
</g>
<!-- Node33&#45;&gt;Node14 -->
<g id="edge55" class="edge">
<title>Node33&#45;&gt;Node14</title>
<path fill="none" stroke="#191970" d="M966.6765,-363.9005C997.6472,-352.3082 1049.9034,-332.7486 1084.6808,-319.7313"/>
<polygon fill="#191970" stroke="#191970" points="1086.2929,-322.8651 1094.4314,-316.0817 1083.839,-316.3093 1086.2929,-322.8651"/>
</g>
<!-- Node34 -->
<g id="node35" class="node">
<title>Node34</title>
<g id="a_node35"><a xlink:href="api_2spec_2queue__types_8h.html" target="_top" xlink:title="ODP queue types. ">
<polygon fill="#ffffff" stroke="#000000" points="841.5302,-291.5 841.5302,-321.5 952.5302,-321.5 952.5302,-291.5 841.5302,-291.5"/>
<text text-anchor="start" x="849.5302" y="-309.5" font-family="Helvetica,sans-Serif" font-size="10.00" fill="#000000">odp/api/spec/queue</text>
<text text-anchor="middle" x="897.0302" y="-298.5" font-family="Helvetica,sans-Serif" font-size="10.00" fill="#000000">_types.h</text>
</a>
</g>
</g>
<!-- Node33&#45;&gt;Node34 -->
<g id="edge56" class="edge">
<title>Node33&#45;&gt;Node34</title>
<path fill="none" stroke="#191970" d="M934.726,-363.9005C928.9317,-355.0773 920.1063,-341.6387 912.4513,-329.9822"/>
<polygon fill="#191970" stroke="#191970" points="915.3101,-327.9592 906.8952,-321.5218 909.459,-331.8017 915.3101,-327.9592"/>
</g>
<!-- Node34&#45;&gt;Node4 -->
<g id="edge57" class="edge">
<title>Node34&#45;&gt;Node4</title>
<path fill="none" stroke="#191970" d="M868.1409,-291.4018C849.5763,-281.4803 825.0824,-267.9783 804.0302,-255 696.728,-188.85 672.8504,-165.4458 584.0302,-76 568.5122,-60.3728 552.0502,-41.3802 540.6445,-27.7886"/>
<polygon fill="#191970" stroke="#191970" points="543.0252,-25.1775 533.9402,-19.7265 537.643,-29.6532 543.0252,-25.1775"/>
</g>
<!-- Node34&#45;&gt;Node9 -->
<g id="edge65" class="edge">
<title>Node34&#45;&gt;Node9</title>
<path fill="none" stroke="#191970" d="M939.8971,-291.4102C1000.2317,-267.7171 1108.5691,-215.6618 1160.0302,-132 1177.9116,-102.9295 1185.0488,-87.1178 1171.0302,-56 1165.4605,-43.6369 1154.7439,-33.2563 1144.4796,-25.5033"/>
<polygon fill="#191970" stroke="#191970" points="1146.2851,-22.4948 1136.0869,-19.623 1142.2683,-28.2277 1146.2851,-22.4948"/>
</g>
<!-- Node34&#45;&gt;Node16 -->
<g id="edge64" class="edge">
<title>Node34&#45;&gt;Node16</title>
<path fill="none" stroke="#191970" d="M952.6862,-292.6982C995.9598,-281.967 1055.3827,-267.2311 1096.6828,-256.9894"/>
<polygon fill="#191970" stroke="#191970" points="1097.6462,-260.3565 1106.5098,-254.5524 1095.9613,-253.5623 1097.6462,-260.3565"/>
</g>
<!-- Node35 -->
<g id="node36" class="node">
<title>Node35</title>
<g id="a_node36"><a xlink:href="api_2schedule__types_8h.html" target="_top" xlink:title="ODP schedule. ">
<polygon fill="#ffffff" stroke="#000000" points="813.0302,-235.5 813.0302,-254.5 953.0302,-254.5 953.0302,-235.5 813.0302,-235.5"/>
<text text-anchor="middle" x="883.0302" y="-242.5" font-family="Helvetica,sans-Serif" font-size="10.00" fill="#000000">odp/api/schedule_types.h</text>
</a>
</g>
</g>
<!-- Node34&#45;&gt;Node35 -->
<g id="edge58" class="edge">
<title>Node34&#45;&gt;Node35</title>
<path fill="none" stroke="#191970" d="M893.5695,-291.2977C891.7476,-283.2945 889.4916,-273.3843 887.5349,-264.7889"/>
<polygon fill="#191970" stroke="#191970" points="890.9041,-263.8206 885.2717,-254.8469 884.0788,-265.3744 890.9041,-263.8206"/>
</g>
<!-- Node36 -->
<g id="node37" class="node">
<title>Node36</title>
<polygon fill="#ffffff" stroke="#bfbfbf" points="873.5302,-168.5 873.5302,-198.5 990.5302,-198.5 990.5302,-168.5 873.5302,-168.5"/>
<text text-anchor="start" x="881.5302" y="-186.5" font-family="Helvetica,sans-Serif" font-size="10.00" fill="#000000">odp/api/abi/schedule</text>
<text text-anchor="middle" x="932.0302" y="-175.5" font-family="Helvetica,sans-Serif" font-size="10.00" fill="#000000">_types.h</text>
</g>
<!-- Node35&#45;&gt;Node36 -->
<g id="edge59" class="edge">
<title>Node35&#45;&gt;Node36</title>
<path fill="none" stroke="#191970" d="M890.6864,-235.3906C896.8267,-227.6839 905.7029,-216.5434 913.658,-206.5589"/>
<polygon fill="#191970" stroke="#191970" points="916.5493,-208.5467 920.0434,-198.5446 911.0746,-204.1847 916.5493,-208.5467"/>
</g>
<!-- Node37 -->
<g id="node38" class="node">
<title>Node37</title>
<g id="a_node38"><a xlink:href="api_2spec_2schedule__types_8h.html" target="_top" xlink:title="ODP schedule types. ">
<polygon fill="#ffffff" stroke="#000000" points="730.5302,-168.5 730.5302,-198.5 855.5302,-198.5 855.5302,-168.5 730.5302,-168.5"/>
<text text-anchor="start" x="738.5302" y="-186.5" font-family="Helvetica,sans-Serif" font-size="10.00" fill="#000000">odp/api/spec/schedule</text>
<text text-anchor="middle" x="793.0302" y="-175.5" font-family="Helvetica,sans-Serif" font-size="10.00" fill="#000000">_types.h</text>
</a>
</g>
</g>
<!-- Node35&#45;&gt;Node37 -->
<g id="edge60" class="edge">
<title>Node35&#45;&gt;Node37</title>
<path fill="none" stroke="#191970" d="M868.9677,-235.3906C856.7872,-227.0673 838.7456,-214.7389 823.304,-204.1872"/>
<polygon fill="#191970" stroke="#191970" points="825.2778,-201.2968 815.0466,-198.5446 821.3284,-207.0763 825.2778,-201.2968"/>
</g>
<!-- Node37&#45;&gt;Node4 -->
<g id="edge61" class="edge">
<title>Node37&#45;&gt;Node4</title>
<path fill="none" stroke="#191970" d="M788.0924,-168.24C778.5336,-141.2149 754.861,-85.057 715.0302,-56 696.0307,-42.1398 641.7601,-29.745 596.2218,-21.3238"/>
<polygon fill="#191970" stroke="#191970" points="596.82,-17.8752 586.3561,-19.5352 595.5713,-24.763 596.82,-17.8752"/>
</g>
<!-- Node37&#45;&gt;Node9 -->
<g id="edge63" class="edge">
<title>Node37&#45;&gt;Node9</title>
<path fill="none" stroke="#191970" d="M824.8897,-168.3784C858.4697,-152.8318 913.1666,-128.6121 962.0302,-112 1022.0428,-91.5975 1054.6502,-120.2542 1100.0302,-76 1112.4108,-63.9265 1116.8616,-44.35 1118.3939,-29.6468"/>
<polygon fill="#191970" stroke="#191970" points="1121.8933,-29.7725 1119.0798,-19.5581 1114.9095,-29.2977 1121.8933,-29.7725"/>
</g>
<!-- Node37&#45;&gt;Node18 -->
<g id="edge62" class="edge">
<title>Node37&#45;&gt;Node18</title>
<path fill="none" stroke="#191970" d="M848.8052,-168.4554C887.8487,-157.9239 939.3476,-144.0328 975.8295,-134.1923"/>
<polygon fill="#191970" stroke="#191970" points="976.9548,-137.5139 985.6982,-131.5303 975.1318,-130.7555 976.9548,-137.5139"/>
</g>
</g>
</svg>
