<?xml version="1.0" encoding="UTF-8" standalone="no"?>
<!DOCTYPE svg PUBLIC "-//W3C//DTD SVG 1.1//EN"
 "http://www.w3.org/Graphics/SVG/1.1/DTD/svg11.dtd">
<!-- Generated by graphviz version 2.40.1 (20161225.0304)
 -->
<!-- Title: std_types.h Pages: 1 -->
<svg width="3518pt" height="196pt"
 viewBox="0.00 0.00 3518.00 196.00" xmlns="http://www.w3.org/2000/svg" xmlns:xlink="http://www.w3.org/1999/xlink">
<g id="graph0" class="graph" transform="scale(1 1) rotate(0) translate(4 192)">
<title>std_types.h</title>
<polygon fill="#ffffff" stroke="transparent" points="-4,4 -4,-192 3514,-192 3514,4 -4,4"/>
<!-- Node7 -->
<g id="node1" class="node">
<title>Node7</title>
<polygon fill="#bfbfbf" stroke="#000000" points="2028,-168.5 2028,-187.5 2101,-187.5 2101,-168.5 2028,-168.5"/>
<text text-anchor="middle" x="2064.5" y="-175.5" font-family="Helvetica,sans-Serif" font-size="10.00" fill="#000000">std_types.h</text>
</g>
<!-- Node8 -->
<g id="node2" class="node">
<title>Node8</title>
<g id="a_node2"><a xlink:href="api_2std__types_8h.html" target="_top" xlink:title="Standard C language types and definitions for ODP. ">
<polygon fill="#ffffff" stroke="#000000" points="2028,-112.5 2028,-131.5 2101,-131.5 2101,-112.5 2028,-112.5"/>
<text text-anchor="middle" x="2064.5" y="-119.5" font-family="Helvetica,sans-Serif" font-size="10.00" fill="#000000">std_types.h</text>
</a>
</g>
</g>
<!-- Node7&#45;&gt;Node8 -->
<g id="edge1" class="edge">
<title>Node7&#45;&gt;Node8</title>
<path fill="none" stroke="#191970" d="M2064.5,-158.1575C2064.5,-149.155 2064.5,-138.9199 2064.5,-131.6427"/>
<polygon fill="#191970" stroke="#191970" points="2061.0001,-158.2455 2064.5,-168.2455 2068.0001,-158.2456 2061.0001,-158.2455"/>
</g>
<!-- Node9 -->
<g id="node3" class="node">
<title>Node9</title>
<g id="a_node3"><a xlink:href="api_2abi-default_2atomic_8h.html" target="_top" xlink:title="ODP atomic operations. ">
<polygon fill="#ffffff" stroke="#000000" points="270,-56.5 270,-75.5 329,-75.5 329,-56.5 270,-56.5"/>
<text text-anchor="middle" x="299.5" y="-63.5" font-family="Helvetica,sans-Serif" font-size="10.00" fill="#000000">atomic.h</text>
</a>
</g>
</g>
<!-- Node8&#45;&gt;Node9 -->
<g id="edge2" class="edge">
<title>Node8&#45;&gt;Node9</title>
<path fill="none" stroke="#191970" d="M2017.8497,-120.6821C1833.5826,-115.452 1138.5373,-95.495 566.5,-76 480.2709,-73.0613 378.396,-69.114 329.1304,-67.175"/>
<polygon fill="#191970" stroke="#191970" points="2017.9037,-124.1849 2027.999,-120.9699 2018.1022,-117.1877 2017.9037,-124.1849"/>
</g>
<!-- Node18 -->
<g id="node11" class="node">
<title>Node18</title>
<g id="a_node11"><a xlink:href="api_2abi-default_2barrier_8h.html" target="_top" xlink:title="ODP barrier. ">
<polygon fill="#ffffff" stroke="#ff0000" points="576,-56.5 576,-75.5 633,-75.5 633,-56.5 576,-56.5"/>
<text text-anchor="middle" x="604.5" y="-63.5" font-family="Helvetica,sans-Serif" font-size="10.00" fill="#000000">barrier.h</text>
</a>
</g>
</g>
<!-- Node8&#45;&gt;Node18 -->
<g id="edge10" class="edge">
<title>Node8&#45;&gt;Node18</title>
<path fill="none" stroke="#191970" d="M2017.5582,-121.8992C1803.2921,-121.222 916.8113,-116.0088 642.5,-76 639.5298,-75.5668 636.4581,-74.9871 633.4074,-74.324"/>
<polygon fill="#191970" stroke="#191970" points="2017.8185,-125.3999 2027.8289,-121.9298 2017.8394,-118.4 2017.8185,-125.3999"/>
</g>
<!-- Node56 -->
<g id="node15" class="node">
<title>Node56</title>
<g id="a_node15"><a xlink:href="api_2abi-default_2byteorder_8h.html" target="_top" xlink:title="ODP byteorder. ">
<polygon fill="#ffffff" stroke="#ff0000" points="651.5,-56.5 651.5,-75.5 723.5,-75.5 723.5,-56.5 651.5,-56.5"/>
<text text-anchor="middle" x="687.5" y="-63.5" font-family="Helvetica,sans-Serif" font-size="10.00" fill="#000000">byteorder.h</text>
</a>
</g>
</g>
<!-- Node8&#45;&gt;Node56 -->
<g id="edge14" class="edge">
<title>Node8&#45;&gt;Node56</title>
<path fill="none" stroke="#191970" d="M2017.5808,-121.5387C1811.9082,-119.3382 988.8533,-108.6275 732.5,-76 729.6419,-75.6362 726.6978,-75.177 723.7484,-74.6564"/>
<polygon fill="#191970" stroke="#191970" points="2017.7064,-125.0401 2027.7427,-121.6458 2017.7802,-118.0405 2017.7064,-125.0401"/>
</g>
<!-- Node65 -->
<g id="node16" class="node">
<title>Node65</title>
<g id="a_node16"><a xlink:href="api_2abi-default_2cpumask_8h.html" target="_top" xlink:title="ODP CPU masks and enumeration. ">
<polygon fill="#ffffff" stroke="#ff0000" points="741.5,-56.5 741.5,-75.5 811.5,-75.5 811.5,-56.5 741.5,-56.5"/>
<text text-anchor="middle" x="776.5" y="-63.5" font-family="Helvetica,sans-Serif" font-size="10.00" fill="#000000">cpumask.h</text>
</a>
</g>
</g>
<!-- Node8&#45;&gt;Node65 -->
<g id="edge15" class="edge">
<title>Node8&#45;&gt;Node65</title>
<path fill="none" stroke="#191970" d="M2017.8137,-121.4391C1821.0594,-118.8957 1058.6544,-107.1886 820.5,-76 817.7037,-75.6338 814.8238,-75.1728 811.9391,-74.651"/>
<polygon fill="#191970" stroke="#191970" points="2017.7817,-124.9389 2027.8256,-121.5669 2017.8711,-117.9395 2017.7817,-124.9389"/>
</g>
<!-- Node89 -->
<g id="node17" class="node">
<title>Node89</title>
<g id="a_node17"><a xlink:href="api_2abi-default_2init_8h.html" target="_top" xlink:title="ODP initialization. ">
<polygon fill="#ffffff" stroke="#ff0000" points="830,-56.5 830,-75.5 871,-75.5 871,-56.5 830,-56.5"/>
<text text-anchor="middle" x="850.5" y="-63.5" font-family="Helvetica,sans-Serif" font-size="10.00" fill="#000000">init.h</text>
</a>
</g>
</g>
<!-- Node8&#45;&gt;Node89 -->
<g id="edge16" class="edge">
<title>Node8&#45;&gt;Node89</title>
<path fill="none" stroke="#191970" d="M2017.8294,-120.9964C1812.2493,-116.4662 992.6224,-97.22 879.5,-76 876.7781,-75.4894 873.9655,-74.7737 871.2113,-73.9572"/>
<polygon fill="#191970" stroke="#191970" points="2017.9145,-124.499 2027.9888,-121.2193 2018.0681,-117.5007 2017.9145,-124.499"/>
</g>
<!-- Node97 -->
<g id="node18" class="node">
<title>Node97</title>
<g id="a_node18"><a xlink:href="api_2abi-default_2ipsec_8h.html" target="_top" xlink:title="ODP IPSEC API &#45; platform specific types. ">
<polygon fill="#ffffff" stroke="#ff0000" points="889,-56.5 889,-75.5 940,-75.5 940,-56.5 889,-56.5"/>
<text text-anchor="middle" x="914.5" y="-63.5" font-family="Helvetica,sans-Serif" font-size="10.00" fill="#000000">ipsec.h</text>
</a>
</g>
</g>
<!-- Node8&#45;&gt;Node97 -->
<g id="edge17" class="edge">
<title>Node8&#45;&gt;Node97</title>
<path fill="none" stroke="#191970" d="M2017.5506,-121.5938C1833.2614,-119.7629 1159.1721,-110.7818 948.5,-76 945.8289,-75.559 943.0716,-74.9742 940.3367,-74.308"/>
<polygon fill="#191970" stroke="#191970" points="2017.689,-125.0952 2027.7225,-121.6925 2017.757,-118.0956 2017.689,-125.0952"/>
</g>
<!-- Node106 -->
<g id="node19" class="node">
<title>Node106</title>
<g id="a_node19"><a xlink:href="api_2abi-default_2packet__io_8h.html" target="_top" xlink:title="ODP Packet IO. ">
<polygon fill="#ffffff" stroke="#ff0000" points="958,-56.5 958,-75.5 1031,-75.5 1031,-56.5 958,-56.5"/>
<text text-anchor="middle" x="994.5" y="-63.5" font-family="Helvetica,sans-Serif" font-size="10.00" fill="#000000">packet_io.h</text>
</a>
</g>
</g>
<!-- Node8&#45;&gt;Node106 -->
<g id="edge18" class="edge">
<title>Node8&#45;&gt;Node106</title>
<path fill="none" stroke="#191970" d="M2017.808,-120.9528C1843.837,-116.8875 1233.4303,-101.1204 1040.5,-76 1037.4204,-75.599 1034.2415,-75.0967 1031.0606,-74.5321"/>
<polygon fill="#191970" stroke="#191970" points="2017.8377,-124.4543 2027.9162,-121.1872 2018.0001,-117.4562 2017.8377,-124.4543"/>
</g>
<!-- Node38 -->
<g id="node20" class="node">
<title>Node38</title>
<g id="a_node20"><a xlink:href="api_2abi-default_2rwlock__recursive_8h.html" target="_top" xlink:title="ODP recursive read/write lock. ">
<polygon fill="#ffffff" stroke="#ff0000" points="1049.5,-56.5 1049.5,-75.5 1157.5,-75.5 1157.5,-56.5 1049.5,-56.5"/>
<text text-anchor="middle" x="1103.5" y="-63.5" font-family="Helvetica,sans-Serif" font-size="10.00" fill="#000000">rwlock_recursive.h</text>
</a>
</g>
</g>
<!-- Node8&#45;&gt;Node38 -->
<g id="edge19" class="edge">
<title>Node8&#45;&gt;Node38</title>
<path fill="none" stroke="#191970" d="M2017.3222,-121.3476C1883.5972,-119.1185 1490.7492,-109.9419 1166.5,-76 1163.6363,-75.7002 1160.7044,-75.3582 1157.7478,-74.9856"/>
<polygon fill="#191970" stroke="#191970" points="2017.5547,-124.8517 2027.6099,-121.5138 2017.6678,-117.8526 2017.5547,-124.8517"/>
</g>
<!-- Node134 -->
<g id="node21" class="node">
<title>Node134</title>
<g id="a_node21"><a xlink:href="api_2abi-default_2schedule_8h.html" target="_top" xlink:title="ODP schedule. ">
<polygon fill="#ffffff" stroke="#ff0000" points="1176,-56.5 1176,-75.5 1245,-75.5 1245,-56.5 1176,-56.5"/>
<text text-anchor="middle" x="1210.5" y="-63.5" font-family="Helvetica,sans-Serif" font-size="10.00" fill="#000000">schedule.h</text>
</a>
</g>
</g>
<!-- Node8&#45;&gt;Node134 -->
<g id="edge20" class="edge">
<title>Node8&#45;&gt;Node134</title>
<path fill="none" stroke="#191970" d="M2017.5081,-120.3629C1867.8488,-114.9867 1403.4716,-97.009 1254.5,-76 1251.5524,-75.5843 1248.5103,-75.0717 1245.4669,-74.5001"/>
<polygon fill="#191970" stroke="#191970" points="2017.6124,-123.8688 2027.731,-120.7281 2017.8624,-116.8732 2017.6124,-123.8688"/>
</g>
<!-- Node142 -->
<g id="node22" class="node">
<title>Node142</title>
<g id="a_node22"><a xlink:href="api_2abi-default_2spinlock__recursive_8h.html" target="_top" xlink:title="ODP recursive spinlock. ">
<polygon fill="#ffffff" stroke="#ff0000" points="1263.5,-56.5 1263.5,-75.5 1379.5,-75.5 1379.5,-56.5 1263.5,-56.5"/>
<text text-anchor="middle" x="1321.5" y="-63.5" font-family="Helvetica,sans-Serif" font-size="10.00" fill="#000000">spinlock_recursive.h</text>
</a>
</g>
</g>
<!-- Node8&#45;&gt;Node142 -->
<g id="edge21" class="edge">
<title>Node8&#45;&gt;Node142</title>
<path fill="none" stroke="#191970" d="M2017.6715,-120.1087C1907.644,-115.3825 1624.1472,-101.5615 1388.5,-76 1385.5769,-75.6829 1382.5858,-75.3324 1379.5679,-74.958"/>
<polygon fill="#191970" stroke="#191970" points="2017.6308,-123.6101 2027.7704,-120.5378 2017.928,-116.6164 2017.6308,-123.6101"/>
</g>
<!-- Node151 -->
<g id="node23" class="node">
<title>Node151</title>
<g id="a_node23"><a xlink:href="api_2abi-default_2traffic__mngr_8h.html" target="_top" xlink:title="ODP traffic mngr. ">
<polygon fill="#ffffff" stroke="#ff0000" points="1397.5,-56.5 1397.5,-75.5 1481.5,-75.5 1481.5,-56.5 1397.5,-56.5"/>
<text text-anchor="middle" x="1439.5" y="-63.5" font-family="Helvetica,sans-Serif" font-size="10.00" fill="#000000">traffic_mngr.h</text>
</a>
</g>
</g>
<!-- Node8&#45;&gt;Node151 -->
<g id="edge22" class="edge">
<title>Node8&#45;&gt;Node151</title>
<path fill="none" stroke="#191970" d="M2017.6459,-119.7387C1920.1547,-114.6981 1688.4833,-100.9727 1495.5,-76 1490.9946,-75.417 1486.3002,-74.7206 1481.6302,-73.9705"/>
<polygon fill="#191970" stroke="#191970" points="2017.5945,-123.2406 2027.76,-120.2553 2017.9515,-116.2497 2017.5945,-123.2406"/>
</g>
<!-- Node26 -->
<g id="node24" class="node">
<title>Node26</title>
<g id="a_node24"><a xlink:href="api_2barrier_8h.html" target="_top" xlink:title="ODP execution barriers. ">
<polygon fill="#ffffff" stroke="#000000" points="2667,-56.5 2667,-75.5 2724,-75.5 2724,-56.5 2667,-56.5"/>
<text text-anchor="middle" x="2695.5" y="-63.5" font-family="Helvetica,sans-Serif" font-size="10.00" fill="#000000">barrier.h</text>
</a>
</g>
</g>
<!-- Node8&#45;&gt;Node26 -->
<g id="edge23" class="edge">
<title>Node8&#45;&gt;Node26</title>
<path fill="none" stroke="#191970" d="M2111.3583,-121.2227C2212.0276,-118.9287 2456.1537,-110.0176 2657.5,-76 2660.5942,-75.4772 2663.8033,-74.8195 2666.9862,-74.0921"/>
<polygon fill="#191970" stroke="#191970" points="2111.1396,-117.7265 2101.2177,-121.4422 2111.2912,-124.7249 2111.1396,-117.7265"/>
</g>
<!-- Node27 -->
<g id="node25" class="node">
<title>Node27</title>
<g id="a_node25"><a xlink:href="odp__api_8h.html" target="_top" xlink:title="The OpenDataPlane API. ">
<polygon fill="#ffffff" stroke="#ff0000" points="1962.5,-.5 1962.5,-19.5 2026.5,-19.5 2026.5,-.5 1962.5,-.5"/>
<text text-anchor="middle" x="1994.5" y="-7.5" font-family="Helvetica,sans-Serif" font-size="10.00" fill="#000000">odp_api.h</text>
</a>
</g>
</g>
<!-- Node8&#45;&gt;Node27 -->
<g id="edge63" class="edge">
<title>Node8&#45;&gt;Node27</title>
<path fill="none" stroke="#191970" d="M2017.4713,-120.3186C1913.041,-116.1015 1669.0564,-103.3927 1644.5,-76 1638.5666,-69.3813 1638.6384,-62.6824 1644.5,-56 1665.3385,-32.2435 1879.7824,-16.9082 1962.3438,-11.845"/>
<polygon fill="#191970" stroke="#191970" points="2017.5921,-123.826 2027.7224,-120.7233 2017.8683,-116.8315 2017.5921,-123.826"/>
</g>
<!-- Node159 -->
<g id="node26" class="node">
<title>Node159</title>
<g id="a_node26"><a xlink:href="api_2buffer_8h.html" target="_top" xlink:title="ODP buffer descriptor. ">
<polygon fill="#ffffff" stroke="#000000" points="1654,-56.5 1654,-75.5 1707,-75.5 1707,-56.5 1654,-56.5"/>
<text text-anchor="middle" x="1680.5" y="-63.5" font-family="Helvetica,sans-Serif" font-size="10.00" fill="#000000">buffer.h</text>
</a>
</g>
</g>
<!-- Node8&#45;&gt;Node159 -->
<g id="edge25" class="edge">
<title>Node8&#45;&gt;Node159</title>
<path fill="none" stroke="#191970" d="M2017.4934,-118.0211C1950.1201,-111.8179 1822.426,-98.1959 1715.5,-76 1712.7774,-75.4348 1709.9568,-74.7686 1707.1523,-74.0526"/>
<polygon fill="#191970" stroke="#191970" points="2017.501,-121.536 2027.7761,-118.9531 2018.1329,-114.5646 2017.501,-121.536"/>
</g>
<!-- Node114 -->
<g id="node27" class="node">
<title>Node114</title>
<g id="a_node27"><a xlink:href="api_2classification_8h.html" target="_top" xlink:title="ODP classification descriptor. ">
<polygon fill="#ffffff" stroke="#ff0000" points="1725,-56.5 1725,-75.5 1814,-75.5 1814,-56.5 1725,-56.5"/>
<text text-anchor="middle" x="1769.5" y="-63.5" font-family="Helvetica,sans-Serif" font-size="10.00" fill="#000000">classification.h</text>
</a>
</g>
</g>
<!-- Node8&#45;&gt;Node114 -->
<g id="edge27" class="edge">
<title>Node8&#45;&gt;Node114</title>
<path fill="none" stroke="#191970" d="M2017.7683,-113.1289C1962.0064,-102.5436 1869.4312,-84.97 1814.4621,-74.5352"/>
<polygon fill="#191970" stroke="#191970" points="2017.2572,-116.5943 2027.7345,-115.0208 2018.5627,-109.7171 2017.2572,-116.5943"/>
</g>
<!-- Node120 -->
<g id="node28" class="node">
<title>Node120</title>
<g id="a_node28"><a xlink:href="api_2crypto_8h.html" target="_top" xlink:title="ODP crypto. ">
<polygon fill="#ffffff" stroke="#ff0000" points="2072.5,-56.5 2072.5,-75.5 2128.5,-75.5 2128.5,-56.5 2072.5,-56.5"/>
<text text-anchor="middle" x="2100.5" y="-63.5" font-family="Helvetica,sans-Serif" font-size="10.00" fill="#000000">crypto.h</text>
</a>
</g>
</g>
<!-- Node8&#45;&gt;Node120 -->
<g id="edge29" class="edge">
<title>Node8&#45;&gt;Node120</title>
<path fill="none" stroke="#191970" d="M2076.3096,-103.6296C2082.3144,-94.2887 2089.3659,-83.3197 2094.3011,-75.6427"/>
<polygon fill="#191970" stroke="#191970" points="2073.2342,-101.9411 2070.7707,-112.2455 2079.1225,-105.7264 2073.2342,-101.9411"/>
</g>
<!-- Node116 -->
<g id="node29" class="node">
<title>Node116</title>
<g id="a_node29"><a xlink:href="api_2packet_8h.html" target="_top" xlink:title="ODP packet descriptor. ">
<polygon fill="#ffffff" stroke="#ff0000" points="1538,-56.5 1538,-75.5 1597,-75.5 1597,-56.5 1538,-56.5"/>
<text text-anchor="middle" x="1567.5" y="-63.5" font-family="Helvetica,sans-Serif" font-size="10.00" fill="#000000">packet.h</text>
</a>
</g>
</g>
<!-- Node8&#45;&gt;Node116 -->
<g id="edge31" class="edge">
<title>Node8&#45;&gt;Node116</title>
<path fill="none" stroke="#191970" d="M2017.8476,-119.1519C1935.4381,-113.701 1758.8782,-100.1374 1611.5,-76 1606.8616,-75.2403 1601.9804,-74.2874 1597.2251,-73.2736"/>
<polygon fill="#191970" stroke="#191970" points="2017.6886,-122.6489 2027.8952,-119.807 2018.1441,-115.6637 2017.6886,-122.6489"/>
</g>
<!-- Node132 -->
<g id="node30" class="node">
<title>Node132</title>
<g id="a_node30"><a xlink:href="api_2spec_2packet__flags_8h.html" target="_top" xlink:title="ODP packet flags. ">
<polygon fill="#ffffff" stroke="#ff0000" points="1495,-.5 1495,-19.5 1582,-19.5 1582,-.5 1495,-.5"/>
<text text-anchor="middle" x="1538.5" y="-7.5" font-family="Helvetica,sans-Serif" font-size="10.00" fill="#000000">packet_flags.h</text>
</a>
</g>
</g>
<!-- Node8&#45;&gt;Node132 -->
<g id="edge46" class="edge">
<title>Node8&#45;&gt;Node132</title>
<path fill="none" stroke="#191970" d="M2017.5186,-121.5147C1892.91,-119.7424 1561.2546,-111.686 1528.5,-76 1514.3942,-60.6318 1525.0685,-34.2457 1532.6496,-19.9335"/>
<polygon fill="#191970" stroke="#191970" points="2017.8276,-125.0191 2027.8738,-121.6542 2017.9219,-118.0197 2017.8276,-125.0191"/>
</g>
<!-- Node128 -->
<g id="node31" class="node">
<title>Node128</title>
<g id="a_node31"><a xlink:href="api_2packet__io_8h.html" target="_top" xlink:title="ODP Packet IO. ">
<polygon fill="#ffffff" stroke="#ff0000" points="2742,-56.5 2742,-75.5 2815,-75.5 2815,-56.5 2742,-56.5"/>
<text text-anchor="middle" x="2778.5" y="-63.5" font-family="Helvetica,sans-Serif" font-size="10.00" fill="#000000">packet_io.h</text>
</a>
</g>
</g>
<!-- Node8&#45;&gt;Node128 -->
<g id="edge34" class="edge">
<title>Node8&#45;&gt;Node128</title>
<path fill="none" stroke="#191970" d="M2111.2985,-121.1125C2220.5827,-118.5321 2500.8793,-108.9729 2732.5,-76 2735.5746,-75.5623 2738.75,-75.0342 2741.9285,-74.4522"/>
<polygon fill="#191970" stroke="#191970" points="2111.1815,-117.6142 2101.2638,-121.341 2111.3409,-124.6124 2111.1815,-117.6142"/>
</g>
<!-- Node130 -->
<g id="node32" class="node">
<title>Node130</title>
<g id="a_node32"><a xlink:href="api_2spec_2traffic__mngr_8h.html" target="_top" xlink:title="traffic_mngr.h">
<polygon fill="#ffffff" stroke="#ff0000" points="3006.5,-.5 3006.5,-19.5 3090.5,-19.5 3090.5,-.5 3006.5,-.5"/>
<text text-anchor="middle" x="3048.5" y="-7.5" font-family="Helvetica,sans-Serif" font-size="10.00" fill="#000000">traffic_mngr.h</text>
</a>
</g>
</g>
<!-- Node8&#45;&gt;Node130 -->
<g id="edge56" class="edge">
<title>Node8&#45;&gt;Node130</title>
<path fill="none" stroke="#191970" d="M2111.3931,-121.2C2339.5657,-117.199 3323.6482,-98.6506 3345.5,-76 3351.6716,-69.6028 3351.2844,-62.7493 3345.5,-56 3329.1171,-36.8843 3168.6293,-20.4463 3090.6314,-13.5134"/>
<polygon fill="#191970" stroke="#191970" points="2111.0433,-117.7055 2101.106,-121.3795 2111.1655,-124.7044 2111.0433,-117.7055"/>
</g>
<!-- Node160 -->
<g id="node33" class="node">
<title>Node160</title>
<g id="a_node33"><a xlink:href="api_2proto__stats_8h.html" target="_top" xlink:title="ODP proto stats. ">
<polygon fill="#ffffff" stroke="#000000" points="2146.5,-56.5 2146.5,-75.5 2226.5,-75.5 2226.5,-56.5 2146.5,-56.5"/>
<text text-anchor="middle" x="2186.5" y="-63.5" font-family="Helvetica,sans-Serif" font-size="10.00" fill="#000000">proto_stats.h</text>
</a>
</g>
</g>
<!-- Node8&#45;&gt;Node160 -->
<g id="edge37" class="edge">
<title>Node8&#45;&gt;Node160</title>
<path fill="none" stroke="#191970" d="M2094.7584,-108.1109C2116.8819,-97.9559 2146.3094,-84.4482 2165.8011,-75.5011"/>
<polygon fill="#191970" stroke="#191970" points="2093.1007,-105.0206 2085.4725,-112.3733 2096.021,-111.3824 2093.1007,-105.0206"/>
</g>
<!-- Node124 -->
<g id="node34" class="node">
<title>Node124</title>
<g id="a_node34"><a xlink:href="api_2queue_8h.html" target="_top" xlink:title="ODP queue. ">
<polygon fill="#ffffff" stroke="#ff0000" points="2244.5,-56.5 2244.5,-75.5 2300.5,-75.5 2300.5,-56.5 2244.5,-56.5"/>
<text text-anchor="middle" x="2272.5" y="-63.5" font-family="Helvetica,sans-Serif" font-size="10.00" fill="#000000">queue.h</text>
</a>
</g>
</g>
<!-- Node8&#45;&gt;Node124 -->
<g id="edge39" class="edge">
<title>Node8&#45;&gt;Node124</title>
<path fill="none" stroke="#191970" d="M2109.6487,-109.8703C2144.1265,-100.6037 2192.8148,-87.5096 2235.5,-76 2238.3268,-75.2378 2241.275,-74.4422 2244.2192,-73.6471"/>
<polygon fill="#191970" stroke="#191970" points="2108.6223,-106.5219 2099.8734,-112.4974 2110.4391,-113.282 2108.6223,-106.5219"/>
</g>
<!-- Node161 -->
<g id="node35" class="node">
<title>Node161</title>
<g id="a_node35"><a xlink:href="spec_2chksum_8h.html" target="_top" xlink:title="ODP checksum functions. ">
<polygon fill="#ffffff" stroke="#ff0000" points="2318.5,-56.5 2318.5,-75.5 2382.5,-75.5 2382.5,-56.5 2318.5,-56.5"/>
<text text-anchor="middle" x="2350.5" y="-63.5" font-family="Helvetica,sans-Serif" font-size="10.00" fill="#000000">chksum.h</text>
</a>
</g>
</g>
<!-- Node8&#45;&gt;Node161 -->
<g id="edge41" class="edge">
<title>Node8&#45;&gt;Node161</title>
<path fill="none" stroke="#191970" d="M2111.2115,-113.9982C2160.6199,-105.355 2240.7771,-90.8212 2309.5,-76 2312.3648,-75.3822 2315.3354,-74.7132 2318.3086,-74.0243"/>
<polygon fill="#191970" stroke="#191970" points="2110.4009,-110.5866 2101.1501,-115.7512 2111.6025,-117.4827 2110.4009,-110.5866"/>
</g>
<!-- Node163 -->
<g id="node36" class="node">
<title>Node163</title>
<g id="a_node36"><a xlink:href="api_2spec_2cpu_8h.html" target="_top" xlink:title="ODP CPU API. ">
<polygon fill="#ffffff" stroke="#ff0000" points="2401,-56.5 2401,-75.5 2444,-75.5 2444,-56.5 2401,-56.5"/>
<text text-anchor="middle" x="2422.5" y="-63.5" font-family="Helvetica,sans-Serif" font-size="10.00" fill="#000000">cpu.h</text>
</a>
</g>
</g>
<!-- Node8&#45;&gt;Node163 -->
<g id="edge42" class="edge">
<title>Node8&#45;&gt;Node163</title>
<path fill="none" stroke="#191970" d="M2111.3242,-117.972C2175.2249,-111.896 2293.0562,-98.6245 2391.5,-76 2394.5864,-75.2907 2397.8058,-74.4132 2400.9525,-73.475"/>
<polygon fill="#191970" stroke="#191970" points="2110.7976,-114.5058 2101.1662,-118.9202 2111.4483,-121.4755 2110.7976,-114.5058"/>
</g>
<!-- Node165 -->
<g id="node37" class="node">
<title>Node165</title>
<g id="a_node37"><a xlink:href="spec_2feature_8h.html" target="_top" xlink:title="ODP features. ">
<polygon fill="#ffffff" stroke="#ff0000" points="2462,-56.5 2462,-75.5 2523,-75.5 2523,-56.5 2462,-56.5"/>
<text text-anchor="middle" x="2492.5" y="-63.5" font-family="Helvetica,sans-Serif" font-size="10.00" fill="#000000">feature.h</text>
</a>
</g>
</g>
<!-- Node8&#45;&gt;Node165 -->
<g id="edge43" class="edge">
<title>Node8&#45;&gt;Node165</title>
<path fill="none" stroke="#191970" d="M2111.3721,-118.3776C2184.5989,-112.2844 2330.4047,-98.4059 2452.5,-76 2455.4571,-75.4573 2458.5205,-74.8236 2461.5758,-74.1432"/>
<polygon fill="#191970" stroke="#191970" points="2110.7864,-114.9138 2101.1063,-119.2202 2111.3591,-121.8904 2110.7864,-114.9138"/>
</g>
<!-- Node167 -->
<g id="node38" class="node">
<title>Node167</title>
<g id="a_node38"><a xlink:href="api_2spec_2hash_8h.html" target="_top" xlink:title="ODP Hash functions. ">
<polygon fill="#ffffff" stroke="#ff0000" points="2541,-56.5 2541,-75.5 2590,-75.5 2590,-56.5 2541,-56.5"/>
<text text-anchor="middle" x="2565.5" y="-63.5" font-family="Helvetica,sans-Serif" font-size="10.00" fill="#000000">hash.h</text>
</a>
</g>
</g>
<!-- Node8&#45;&gt;Node167 -->
<g id="edge44" class="edge">
<title>Node8&#45;&gt;Node167</title>
<path fill="none" stroke="#191970" d="M2111.2214,-120.3017C2195.7714,-116.5867 2379.4994,-105.5667 2531.5,-76 2534.5198,-75.4126 2537.657,-74.6732 2540.7505,-73.8635"/>
<polygon fill="#191970" stroke="#191970" points="2111.0112,-116.8074 2101.169,-120.7292 2111.3087,-123.801 2111.0112,-116.8074"/>
</g>
<!-- Node85 -->
<g id="node39" class="node">
<title>Node85</title>
<g id="a_node39"><a xlink:href="api_2spec_2init_8h.html" target="_top" xlink:title="init.h">
<polygon fill="#ffffff" stroke="#ff0000" points="2608,-56.5 2608,-75.5 2649,-75.5 2649,-56.5 2608,-56.5"/>
<text text-anchor="middle" x="2628.5" y="-63.5" font-family="Helvetica,sans-Serif" font-size="10.00" fill="#000000">init.h</text>
</a>
</g>
</g>
<!-- Node8&#45;&gt;Node85 -->
<g id="edge45" class="edge">
<title>Node8&#45;&gt;Node85</title>
<path fill="none" stroke="#191970" d="M2111.1304,-119.3983C2223.3128,-112.9112 2505.8256,-95.1568 2598.5,-76 2601.5108,-75.3776 2604.6399,-74.549 2607.6915,-73.6342"/>
<polygon fill="#191970" stroke="#191970" points="2110.9157,-115.9048 2101.1329,-119.9726 2111.3172,-122.8933 2110.9157,-115.9048"/>
</g>
<!-- Node169 -->
<g id="node40" class="node">
<title>Node169</title>
<g id="a_node40"><a xlink:href="api_2spec_2pool_8h.html" target="_top" xlink:title="ODP pool. ">
<polygon fill="#ffffff" stroke="#ff0000" points="3413,-.5 3413,-19.5 3460,-19.5 3460,-.5 3413,-.5"/>
<text text-anchor="middle" x="3436.5" y="-7.5" font-family="Helvetica,sans-Serif" font-size="10.00" fill="#000000">pool.h</text>
</a>
</g>
</g>
<!-- Node8&#45;&gt;Node169 -->
<g id="edge47" class="edge">
<title>Node8&#45;&gt;Node169</title>
<path fill="none" stroke="#191970" d="M2111.2517,-121.2328C2336.7216,-117.42 3303.3781,-99.7424 3362.5,-76 3391.8934,-64.1961 3417.2623,-35.2646 3429.2072,-19.9243"/>
<polygon fill="#191970" stroke="#191970" points="2111.0215,-117.7361 2101.0818,-121.4038 2111.1393,-124.7351 2111.0215,-117.7361"/>
</g>
<!-- Node171 -->
<g id="node41" class="node">
<title>Node171</title>
<g id="a_node41"><a xlink:href="pool__types_8h.html" target="_top" xlink:title="Type definitions for pools. ">
<polygon fill="#ffffff" stroke="#000000" points="3431,-56.5 3431,-75.5 3510,-75.5 3510,-56.5 3431,-56.5"/>
<text text-anchor="middle" x="3470.5" y="-63.5" font-family="Helvetica,sans-Serif" font-size="10.00" fill="#000000">pool_types.h</text>
</a>
</g>
</g>
<!-- Node8&#45;&gt;Node171 -->
<g id="edge48" class="edge">
<title>Node8&#45;&gt;Node171</title>
<path fill="none" stroke="#191970" d="M2111.4105,-121.3436C2318.9062,-118.2957 3155.4604,-104.4505 3416.5,-76 3421.1444,-75.4938 3425.9891,-74.815 3430.7875,-74.0483"/>
<polygon fill="#191970" stroke="#191970" points="2111.1122,-117.8475 2101.1642,-121.4928 2111.2141,-124.8467 2111.1122,-117.8475"/>
</g>
<!-- Node172 -->
<g id="node42" class="node">
<title>Node172</title>
<g id="a_node42"><a xlink:href="api_2spec_2proto__stats__types_8h.html" target="_top" xlink:title="ODP proto stats types. ">
<polygon fill="#ffffff" stroke="#ff0000" points="2833,-56.5 2833,-75.5 2946,-75.5 2946,-56.5 2833,-56.5"/>
<text text-anchor="middle" x="2889.5" y="-63.5" font-family="Helvetica,sans-Serif" font-size="10.00" fill="#000000">proto_stats_types.h</text>
</a>
</g>
</g>
<!-- Node8&#45;&gt;Node172 -->
<g id="edge50" class="edge">
<title>Node8&#45;&gt;Node172</title>
<path fill="none" stroke="#191970" d="M2111.5646,-120.6183C2230.9067,-116.7958 2554.9345,-104.4261 2823.5,-76 2826.4964,-75.6828 2829.565,-75.327 2832.6601,-74.9435"/>
<polygon fill="#191970" stroke="#191970" points="2111.2102,-117.1277 2101.3255,-120.9413 2111.4309,-124.1242 2111.2102,-117.1277"/>
</g>
<!-- Node83 -->
<g id="node43" class="node">
<title>Node83</title>
<g id="a_node43"><a xlink:href="api_2spec_2schedule_8h.html" target="_top" xlink:title="ODP schedule. ">
<polygon fill="#ffffff" stroke="#ff0000" points="2964,-56.5 2964,-75.5 3033,-75.5 3033,-56.5 2964,-56.5"/>
<text text-anchor="middle" x="2998.5" y="-63.5" font-family="Helvetica,sans-Serif" font-size="10.00" fill="#000000">schedule.h</text>
</a>
</g>
</g>
<!-- Node8&#45;&gt;Node83 -->
<g id="edge51" class="edge">
<title>Node8&#45;&gt;Node83</title>
<path fill="none" stroke="#191970" d="M2111.7729,-120.63C2271.3487,-115.8372 2789.3275,-98.8652 2954.5,-76 2957.4487,-75.5918 2960.4915,-75.0845 2963.5354,-74.5164"/>
<polygon fill="#191970" stroke="#191970" points="2111.2406,-117.1442 2101.3495,-120.941 2111.4495,-124.1411 2111.2406,-117.1442"/>
</g>
<!-- Node178 -->
<g id="node44" class="node">
<title>Node178</title>
<g id="a_node44"><a xlink:href="api_2spec_2stash_8h.html" target="_top" xlink:title="ODP stash. ">
<polygon fill="#ffffff" stroke="#ff0000" points="3051.5,-56.5 3051.5,-75.5 3103.5,-75.5 3103.5,-56.5 3051.5,-56.5"/>
<text text-anchor="middle" x="3077.5" y="-63.5" font-family="Helvetica,sans-Serif" font-size="10.00" fill="#000000">stash.h</text>
</a>
</g>
</g>
<!-- Node8&#45;&gt;Node178 -->
<g id="edge52" class="edge">
<title>Node8&#45;&gt;Node178</title>
<path fill="none" stroke="#191970" d="M2111.3246,-121.184C2280.4022,-118.0211 2859.0042,-105.2634 3041.5,-76 3044.7024,-75.4865 3048.0272,-74.7921 3051.3043,-74.0071"/>
<polygon fill="#191970" stroke="#191970" points="2111.1841,-117.6859 2101.2505,-121.3701 2111.3135,-124.6847 2111.1841,-117.6859"/>
</g>
<!-- Node180 -->
<g id="node45" class="node">
<title>Node180</title>
<g id="a_node45"><a xlink:href="api_2spec_2std_8h.html" target="_top" xlink:title="ODP standard types and optimized C library functions. ">
<polygon fill="#ffffff" stroke="#ff0000" points="3122,-56.5 3122,-75.5 3163,-75.5 3163,-56.5 3122,-56.5"/>
<text text-anchor="middle" x="3142.5" y="-63.5" font-family="Helvetica,sans-Serif" font-size="10.00" fill="#000000">std.h</text>
</a>
</g>
</g>
<!-- Node8&#45;&gt;Node180 -->
<g id="edge53" class="edge">
<title>Node8&#45;&gt;Node180</title>
<path fill="none" stroke="#191970" d="M2111.2319,-121.6697C2288.0884,-120.1531 2916.2813,-112.2753 3112.5,-76 3115.5232,-75.4411 3118.6593,-74.6482 3121.7142,-73.7504"/>
<polygon fill="#191970" stroke="#191970" points="2111.1776,-118.17 2101.2071,-121.753 2111.2358,-125.1697 2111.1776,-118.17"/>
</g>
<!-- Node182 -->
<g id="node46" class="node">
<title>Node182</title>
<g id="a_node46"><a xlink:href="spec_2threshold_8h.html" target="_top" xlink:title="ODP threshold descriptor. ">
<polygon fill="#ffffff" stroke="#ff0000" points="3181,-56.5 3181,-75.5 3252,-75.5 3252,-56.5 3181,-56.5"/>
<text text-anchor="middle" x="3216.5" y="-63.5" font-family="Helvetica,sans-Serif" font-size="10.00" fill="#000000">threshold.h</text>
</a>
</g>
</g>
<!-- Node8&#45;&gt;Node182 -->
<g id="edge54" class="edge">
<title>Node8&#45;&gt;Node182</title>
<path fill="none" stroke="#191970" d="M2111.3151,-121.1602C2294.3262,-117.7057 2961.602,-103.4627 3171.5,-76 3174.5155,-75.6055 3177.6272,-75.1077 3180.7403,-74.5461"/>
<polygon fill="#191970" stroke="#191970" points="2111.1441,-117.6627 2101.2113,-121.3492 2111.2751,-124.6614 2111.1441,-117.6627"/>
</g>
<!-- Node184 -->
<g id="node47" class="node">
<title>Node184</title>
<g id="a_node47"><a xlink:href="api_2spec_2thrmask_8h.html" target="_top" xlink:title="ODP thread masks. ">
<polygon fill="#ffffff" stroke="#ff0000" points="3270.5,-56.5 3270.5,-75.5 3336.5,-75.5 3336.5,-56.5 3270.5,-56.5"/>
<text text-anchor="middle" x="3303.5" y="-63.5" font-family="Helvetica,sans-Serif" font-size="10.00" fill="#000000">thrmask.h</text>
</a>
</g>
</g>
<!-- Node8&#45;&gt;Node184 -->
<g id="edge55" class="edge">
<title>Node8&#45;&gt;Node184</title>
<path fill="none" stroke="#191970" d="M2111.2557,-121.3892C2303.3414,-118.6965 3032.3664,-106.631 3260.5,-76 3263.6905,-75.5716 3266.9915,-75.0146 3270.2808,-74.3828"/>
<polygon fill="#191970" stroke="#191970" points="2111.1556,-117.8902 2101.205,-121.5284 2111.2526,-124.8895 2111.1556,-117.8902"/>
</g>
<!-- Node185 -->
<g id="node48" class="node">
<title>Node185</title>
<g id="a_node48"><a xlink:href="system__info_8h.html" target="_top" xlink:title="ODP system information. ">
<polygon fill="#ffffff" stroke="#000000" points="1832.5,-56.5 1832.5,-75.5 1918.5,-75.5 1918.5,-56.5 1832.5,-56.5"/>
<text text-anchor="middle" x="1875.5" y="-63.5" font-family="Helvetica,sans-Serif" font-size="10.00" fill="#000000">system_info.h</text>
</a>
</g>
</g>
<!-- Node8&#45;&gt;Node185 -->
<g id="edge57" class="edge">
<title>Node8&#45;&gt;Node185</title>
<path fill="none" stroke="#191970" d="M2022.1643,-109.4561C1987.4706,-99.1765 1939.1166,-84.8494 1907.5663,-75.5011"/>
<polygon fill="#191970" stroke="#191970" points="2021.4274,-112.8881 2032.0097,-112.3733 2023.4161,-106.1765 2021.4274,-112.8881"/>
</g>
<!-- Node186 -->
<g id="node49" class="node">
<title>Node186</title>
<g id="a_node49"><a xlink:href="api_2time_8h.html" target="_top" xlink:title="ODP time. ">
<polygon fill="#ffffff" stroke="#ff0000" points="1936.5,-56.5 1936.5,-75.5 1984.5,-75.5 1984.5,-56.5 1936.5,-56.5"/>
<text text-anchor="middle" x="1960.5" y="-63.5" font-family="Helvetica,sans-Serif" font-size="10.00" fill="#000000">time.h</text>
</a>
</g>
</g>
<!-- Node8&#45;&gt;Node186 -->
<g id="edge59" class="edge">
<title>Node8&#45;&gt;Node186</title>
<path fill="none" stroke="#191970" d="M2037.4971,-107.46C2018.8864,-97.4388 1994.6701,-84.3993 1978.4078,-75.6427"/>
<polygon fill="#191970" stroke="#191970" points="2035.9205,-110.5861 2046.3846,-112.2455 2039.2392,-104.4228 2035.9205,-110.5861"/>
</g>
<!-- Node187 -->
<g id="node50" class="node">
<title>Node187</title>
<g id="a_node50"><a xlink:href="api_2timer_8h.html" target="_top" xlink:title="ODP timer service. ">
<polygon fill="#ffffff" stroke="#000000" points="2003,-56.5 2003,-75.5 2054,-75.5 2054,-56.5 2003,-56.5"/>
<text text-anchor="middle" x="2028.5" y="-63.5" font-family="Helvetica,sans-Serif" font-size="10.00" fill="#000000">timer.h</text>
</a>
</g>
</g>
<!-- Node8&#45;&gt;Node187 -->
<g id="edge61" class="edge">
<title>Node8&#45;&gt;Node187</title>
<path fill="none" stroke="#191970" d="M2052.6904,-103.6296C2046.6856,-94.2887 2039.6341,-83.3197 2034.6989,-75.6427"/>
<polygon fill="#191970" stroke="#191970" points="2049.8775,-105.7264 2058.2293,-112.2455 2055.7658,-101.9411 2049.8775,-105.7264"/>
</g>
<!-- Node10 -->
<g id="node4" class="node">
<title>Node10</title>
<g id="a_node4"><a xlink:href="arch_2arm32-linux_2odp_2api_2abi_2atomic_8h_source.html" target="_top" xlink:title="atomic.h">
<polygon fill="#ffffff" stroke="#000000" points="0,-.5 0,-19.5 59,-19.5 59,-.5 0,-.5"/>
<text text-anchor="middle" x="29.5" y="-7.5" font-family="Helvetica,sans-Serif" font-size="10.00" fill="#000000">atomic.h</text>
</a>
</g>
</g>
<!-- Node9&#45;&gt;Node10 -->
<g id="edge3" class="edge">
<title>Node9&#45;&gt;Node10</title>
<path fill="none" stroke="#191970" d="M259.7761,-58.8937C213.4491,-50.4283 134.6449,-35.476 67.5,-20 64.841,-19.3871 62.0852,-18.7216 59.3277,-18.0349"/>
<polygon fill="#191970" stroke="#191970" points="259.246,-62.3547 269.7109,-60.7006 260.4985,-55.4676 259.246,-62.3547"/>
</g>
<!-- Node11 -->
<g id="node5" class="node">
<title>Node11</title>
<g id="a_node5"><a xlink:href="arch_2arm64-linux_2odp_2api_2abi_2atomic_8h_source.html" target="_top" xlink:title="atomic.h">
<polygon fill="#ffffff" stroke="#000000" points="77,-.5 77,-19.5 136,-19.5 136,-.5 77,-.5"/>
<text text-anchor="middle" x="106.5" y="-7.5" font-family="Helvetica,sans-Serif" font-size="10.00" fill="#000000">atomic.h</text>
</a>
</g>
</g>
<!-- Node9&#45;&gt;Node11 -->
<g id="edge4" class="edge">
<title>Node9&#45;&gt;Node11</title>
<path fill="none" stroke="#191970" d="M259.9008,-54.5101C223.2052,-43.8626 169.4325,-28.2602 136.2671,-18.6371"/>
<polygon fill="#191970" stroke="#191970" points="259.1875,-57.9474 269.7667,-57.3727 261.1382,-51.2247 259.1875,-57.9474"/>
</g>
<!-- Node12 -->
<g id="node6" class="node">
<title>Node12</title>
<g id="a_node6"><a xlink:href="arch_2default-linux_2odp_2api_2abi_2atomic_8h_source.html" target="_top" xlink:title="atomic.h">
<polygon fill="#ffffff" stroke="#000000" points="154,-.5 154,-19.5 213,-19.5 213,-.5 154,-.5"/>
<text text-anchor="middle" x="183.5" y="-7.5" font-family="Helvetica,sans-Serif" font-size="10.00" fill="#000000">atomic.h</text>
</a>
</g>
</g>
<!-- Node9&#45;&gt;Node12 -->
<g id="edge5" class="edge">
<title>Node9&#45;&gt;Node12</title>
<path fill="none" stroke="#191970" d="M270.4463,-51.9741C249.4435,-41.8348 221.6309,-28.408 203.1809,-19.5011"/>
<polygon fill="#191970" stroke="#191970" points="269.0317,-55.1776 279.5589,-56.3733 272.075,-48.8738 269.0317,-55.1776"/>
</g>
<!-- Node13 -->
<g id="node7" class="node">
<title>Node13</title>
<g id="a_node7"><a xlink:href="arch_2mips64-linux_2odp_2api_2abi_2atomic_8h_source.html" target="_top" xlink:title="atomic.h">
<polygon fill="#ffffff" stroke="#000000" points="231,-.5 231,-19.5 290,-19.5 290,-.5 231,-.5"/>
<text text-anchor="middle" x="260.5" y="-7.5" font-family="Helvetica,sans-Serif" font-size="10.00" fill="#000000">atomic.h</text>
</a>
</g>
</g>
<!-- Node9&#45;&gt;Node13 -->
<g id="edge6" class="edge">
<title>Node9&#45;&gt;Node13</title>
<path fill="none" stroke="#191970" d="M286.9092,-47.9209C280.3605,-38.5176 272.6176,-27.3997 267.2154,-19.6427"/>
<polygon fill="#191970" stroke="#191970" points="284.1196,-50.0397 292.7067,-56.2455 289.8639,-46.0392 284.1196,-50.0397"/>
</g>
<!-- Node14 -->
<g id="node8" class="node">
<title>Node14</title>
<g id="a_node8"><a xlink:href="arch_2power64-linux_2odp_2api_2abi_2atomic_8h_source.html" target="_top" xlink:title="atomic.h">
<polygon fill="#ffffff" stroke="#000000" points="308,-.5 308,-19.5 367,-19.5 367,-.5 308,-.5"/>
<text text-anchor="middle" x="337.5" y="-7.5" font-family="Helvetica,sans-Serif" font-size="10.00" fill="#000000">atomic.h</text>
</a>
</g>
</g>
<!-- Node9&#45;&gt;Node14 -->
<g id="edge7" class="edge">
<title>Node9&#45;&gt;Node14</title>
<path fill="none" stroke="#191970" d="M311.7679,-47.9209C318.1488,-38.5176 325.6931,-27.3997 330.9568,-19.6427"/>
<polygon fill="#191970" stroke="#191970" points="308.838,-46.0055 306.1191,-56.2455 314.6303,-49.936 308.838,-46.0055"/>
</g>
<!-- Node15 -->
<g id="node9" class="node">
<title>Node15</title>
<g id="a_node9"><a xlink:href="arch_2x86__32-linux_2odp_2api_2abi_2atomic_8h_source.html" target="_top" xlink:title="atomic.h">
<polygon fill="#ffffff" stroke="#000000" points="385,-.5 385,-19.5 444,-19.5 444,-.5 385,-.5"/>
<text text-anchor="middle" x="414.5" y="-7.5" font-family="Helvetica,sans-Serif" font-size="10.00" fill="#000000">atomic.h</text>
</a>
</g>
</g>
<!-- Node9&#45;&gt;Node15 -->
<g id="edge8" class="edge">
<title>Node9&#45;&gt;Node15</title>
<path fill="none" stroke="#191970" d="M328.3033,-51.9741C349.125,-41.8348 376.6978,-28.408 394.9888,-19.5011"/>
<polygon fill="#191970" stroke="#191970" points="326.7276,-48.8484 319.2692,-56.3733 329.7922,-55.1419 326.7276,-48.8484"/>
</g>
<!-- Node16 -->
<g id="node10" class="node">
<title>Node16</title>
<g id="a_node10"><a xlink:href="arch_2x86__64-linux_2odp_2api_2abi_2atomic_8h_source.html" target="_top" xlink:title="atomic.h">
<polygon fill="#ffffff" stroke="#ff0000" points="462,-.5 462,-19.5 521,-19.5 521,-.5 462,-.5"/>
<text text-anchor="middle" x="491.5" y="-7.5" font-family="Helvetica,sans-Serif" font-size="10.00" fill="#000000">atomic.h</text>
</a>
</g>
</g>
<!-- Node9&#45;&gt;Node16 -->
<g id="edge9" class="edge">
<title>Node9&#45;&gt;Node16</title>
<path fill="none" stroke="#191970" d="M338.894,-54.5101C375.3995,-43.8626 428.8935,-28.2602 461.8872,-18.6371"/>
<polygon fill="#191970" stroke="#191970" points="337.6992,-51.2127 329.0792,-57.3727 339.6593,-57.9327 337.6992,-51.2127"/>
</g>
<!-- Node19 -->
<g id="node12" class="node">
<title>Node19</title>
<g id="a_node12"><a xlink:href="arch_2arm32-linux_2odp_2api_2abi_2barrier_8h_source.html" target="_top" xlink:title="barrier.h">
<polygon fill="#ffffff" stroke="#000000" points="614,-.5 614,-19.5 671,-19.5 671,-.5 614,-.5"/>
<text text-anchor="middle" x="642.5" y="-7.5" font-family="Helvetica,sans-Serif" font-size="10.00" fill="#000000">barrier.h</text>
</a>
</g>
</g>
<!-- Node18&#45;&gt;Node19 -->
<g id="edge11" class="edge">
<title>Node18&#45;&gt;Node19</title>
<path fill="none" stroke="#191970" d="M616.7679,-47.9209C623.1488,-38.5176 630.6931,-27.3997 635.9568,-19.6427"/>
<polygon fill="#191970" stroke="#191970" points="613.838,-46.0055 611.1191,-56.2455 619.6303,-49.936 613.838,-46.0055"/>
</g>
<!-- Node20 -->
<g id="node13" class="node">
<title>Node20</title>
<g id="a_node13"><a xlink:href="arch_2arm64-linux_2odp_2api_2abi_2barrier_8h_source.html" target="_top" xlink:title="barrier.h">
<polygon fill="#ffffff" stroke="#000000" points="689,-.5 689,-19.5 746,-19.5 746,-.5 689,-.5"/>
<text text-anchor="middle" x="717.5" y="-7.5" font-family="Helvetica,sans-Serif" font-size="10.00" fill="#000000">barrier.h</text>
</a>
</g>
</g>
<!-- Node18&#45;&gt;Node20 -->
<g id="edge12" class="edge">
<title>Node18&#45;&gt;Node20</title>
<path fill="none" stroke="#191970" d="M633.0792,-51.8368C653.5058,-41.7139 680.4362,-28.3679 698.3281,-19.5011"/>
<polygon fill="#191970" stroke="#191970" points="631.3313,-48.7968 623.9254,-56.3733 634.4396,-55.0688 631.3313,-48.7968"/>
</g>
<!-- Node21 -->
<g id="node14" class="node">
<title>Node21</title>
<g id="a_node14"><a xlink:href="arch_2default-linux_2odp_2api_2abi_2barrier_8h_source.html" target="_top" xlink:title="barrier.h">
<polygon fill="#ffffff" stroke="#000000" points="539,-.5 539,-19.5 596,-19.5 596,-.5 539,-.5"/>
<text text-anchor="middle" x="567.5" y="-7.5" font-family="Helvetica,sans-Serif" font-size="10.00" fill="#000000">barrier.h</text>
</a>
</g>
</g>
<!-- Node18&#45;&gt;Node21 -->
<g id="edge13" class="edge">
<title>Node18&#45;&gt;Node21</title>
<path fill="none" stroke="#191970" d="M592.3624,-47.6296C586.1907,-38.2887 578.9434,-27.3197 573.8711,-19.6427"/>
<polygon fill="#191970" stroke="#191970" points="589.6223,-49.8316 598.0551,-56.2455 595.4627,-45.9728 589.6223,-49.8316"/>
</g>
<!-- Node26&#45;&gt;Node27 -->
<g id="edge24" class="edge">
<title>Node26&#45;&gt;Node27</title>
<path fill="none" stroke="#191970" d="M2656.7726,-56.2566C2514.7165,-34.6843 2138.8734,-16.5321 2026.575,-11.4241"/>
<polygon fill="#191970" stroke="#191970" points="2656.5647,-59.7675 2666.9905,-57.8825 2657.6647,-52.8545 2656.5647,-59.7675"/>
</g>
<!-- Node159&#45;&gt;Node27 -->
<g id="edge26" class="edge">
<title>Node159&#45;&gt;Node27</title>
<path fill="none" stroke="#191970" d="M1717.1422,-55.8127C1811.3127,-35.0782 1912.1367,-20.7067 1962.4705,-14.0613"/>
<polygon fill="#191970" stroke="#191970" points="1716.1693,-52.4436 1707.1718,-58.0379 1717.6941,-59.2755 1716.1693,-52.4436"/>
</g>
<!-- Node114&#45;&gt;Node27 -->
<g id="edge28" class="edge">
<title>Node114&#45;&gt;Node27</title>
<path fill="none" stroke="#191970" d="M1817.7619,-53.9881C1861.4709,-43.1095 1924.6374,-27.388 1962.4278,-17.9824"/>
<polygon fill="#191970" stroke="#191970" points="1816.7818,-50.6252 1807.9232,-56.4369 1818.4725,-57.418 1816.7818,-50.6252"/>
</g>
<!-- Node120&#45;&gt;Node27 -->
<g id="edge30" class="edge">
<title>Node120&#45;&gt;Node27</title>
<path fill="none" stroke="#191970" d="M2072.9778,-51.46C2054.0092,-41.4388 2029.3273,-28.3993 2012.7522,-19.6427"/>
<polygon fill="#191970" stroke="#191970" points="2071.5593,-54.669 2082.0362,-56.2455 2074.8292,-48.4796 2071.5593,-54.669"/>
</g>
<!-- Node116&#45;&gt;Node27 -->
<g id="edge33" class="edge">
<title>Node116&#45;&gt;Node27</title>
<path fill="none" stroke="#191970" d="M1607.0974,-56.799C1608.5814,-56.5183 1610.0527,-56.2507 1611.5,-56 1740.6723,-33.6266 1896.237,-18.5732 1962.3069,-12.7267"/>
<polygon fill="#191970" stroke="#191970" points="1606.3412,-53.381 1597.2377,-58.8011 1607.7342,-60.241 1606.3412,-53.381"/>
</g>
<!-- Node116&#45;&gt;Node132 -->
<g id="edge32" class="edge">
<title>Node116&#45;&gt;Node132</title>
<path fill="none" stroke="#191970" d="M1557.8353,-47.3372C1553.0313,-38.0605 1547.4277,-27.2398 1543.4935,-19.6427"/>
<polygon fill="#191970" stroke="#191970" points="1554.742,-48.9751 1562.4486,-56.2455 1560.958,-45.7561 1554.742,-48.9751"/>
</g>
<!-- Node128&#45;&gt;Node27 -->
<g id="edge36" class="edge">
<title>Node128&#45;&gt;Node27</title>
<path fill="none" stroke="#191970" d="M2731.6341,-56.1039C2453.2921,-18.1338 2128.5817,-11.4741 2026.683,-10.2659"/>
<polygon fill="#191970" stroke="#191970" points="2731.5467,-59.625 2741.9315,-57.526 2732.5044,-52.6908 2731.5467,-59.625"/>
</g>
<!-- Node128&#45;&gt;Node130 -->
<g id="edge35" class="edge">
<title>Node128&#45;&gt;Node130</title>
<path fill="none" stroke="#191970" d="M2825.424,-55.6115C2893.9184,-41.0539 2963.0185,-27.0752 3006.1568,-18.4336"/>
<polygon fill="#191970" stroke="#191970" points="2824.377,-52.256 2815.3258,-57.763 2825.8357,-59.1023 2824.377,-52.256"/>
</g>
<!-- Node160&#45;&gt;Node27 -->
<g id="edge38" class="edge">
<title>Node160&#45;&gt;Node27</title>
<path fill="none" stroke="#191970" d="M2143.4607,-53.4469C2108.1012,-43.1337 2058.7896,-28.7511 2026.7557,-19.4079"/>
<polygon fill="#191970" stroke="#191970" points="2142.914,-56.9332 2153.494,-56.3733 2144.874,-50.2132 2142.914,-56.9332"/>
</g>
<!-- Node124&#45;&gt;Node27 -->
<g id="edge40" class="edge">
<title>Node124&#45;&gt;Node27</title>
<path fill="none" stroke="#191970" d="M2234.5171,-55.8977C2154.3692,-37.681 2071.1654,-22.9119 2026.6271,-15.3385"/>
<polygon fill="#191970" stroke="#191970" points="2233.7439,-59.3112 2244.2733,-58.1361 2235.3093,-52.4884 2233.7439,-59.3112"/>
</g>
<!-- Node171&#45;&gt;Node169 -->
<g id="edge49" class="edge">
<title>Node171&#45;&gt;Node169</title>
<path fill="none" stroke="#191970" d="M3459.3465,-47.6296C3453.6753,-38.2887 3447.0155,-27.3197 3442.3545,-19.6427"/>
<polygon fill="#191970" stroke="#191970" points="3456.3961,-49.5141 3464.5777,-56.2455 3462.3796,-45.8812 3456.3961,-49.5141"/>
</g>
<!-- Node185&#45;&gt;Node27 -->
<g id="edge58" class="edge">
<title>Node185&#45;&gt;Node27</title>
<path fill="none" stroke="#191970" d="M1905.0144,-52.1109C1926.5938,-41.9559 1955.2976,-28.4482 1974.3101,-19.5011"/>
<polygon fill="#191970" stroke="#191970" points="1903.5147,-48.9484 1895.9568,-56.3733 1906.4953,-55.2821 1903.5147,-48.9484"/>
</g>
<!-- Node186&#45;&gt;Node27 -->
<g id="edge60" class="edge">
<title>Node186&#45;&gt;Node27</title>
<path fill="none" stroke="#191970" d="M1971.6535,-47.6296C1977.3247,-38.2887 1983.9845,-27.3197 1988.6455,-19.6427"/>
<polygon fill="#191970" stroke="#191970" points="1968.6204,-45.8812 1966.4223,-56.2455 1974.6039,-49.5141 1968.6204,-45.8812"/>
</g>
<!-- Node187&#45;&gt;Node27 -->
<g id="edge62" class="edge">
<title>Node187&#45;&gt;Node27</title>
<path fill="none" stroke="#191970" d="M2017.3465,-47.6296C2011.6753,-38.2887 2005.0155,-27.3197 2000.3545,-19.6427"/>
<polygon fill="#191970" stroke="#191970" points="2014.3961,-49.5141 2022.5777,-56.2455 2020.3796,-45.8812 2014.3961,-49.5141"/>
</g>
</g>
</svg>
