<?xml version="1.0" encoding="UTF-8" standalone="no"?>
<!DOCTYPE svg PUBLIC "-//W3C//DTD SVG 1.1//EN"
 "http://www.w3.org/Graphics/SVG/1.1/DTD/svg11.dtd">
<!-- Generated by graphviz version 2.40.1 (20161225.0304)
 -->
<!-- Title: ipsec.h Pages: 1 -->
<svg width="2089pt" height="800pt"
 viewBox="0.00 0.00 2089.48 800.00" xmlns="http://www.w3.org/2000/svg" xmlns:xlink="http://www.w3.org/1999/xlink">
<g id="graph0" class="graph" transform="scale(1 1) rotate(0) translate(4 796)">
<title>ipsec.h</title>
<polygon fill="#ffffff" stroke="transparent" points="-4,4 -4,-796 2085.4771,-796 2085.4771,4 -4,4"/>
<!-- Node0 -->
<g id="node1" class="node">
<title>Node0</title>
<polygon fill="#bfbfbf" stroke="#000000" points="1559.5,-772.5 1559.5,-791.5 1610.5,-791.5 1610.5,-772.5 1559.5,-772.5"/>
<text text-anchor="middle" x="1585" y="-779.5" font-family="Helvetica,sans-Serif" font-size="10.00" fill="#000000">ipsec.h</text>
</g>
<!-- Node1 -->
<g id="node2" class="node">
<title>Node1</title>
<polygon fill="#ffffff" stroke="#bfbfbf" points="1466,-716.5 1466,-735.5 1574,-735.5 1574,-716.5 1466,-716.5"/>
<text text-anchor="middle" x="1520" y="-723.5" font-family="Helvetica,sans-Serif" font-size="10.00" fill="#000000">odp/api/abi/ipsec.h</text>
</g>
<!-- Node0&#45;&gt;Node1 -->
<g id="edge1" class="edge">
<title>Node0&#45;&gt;Node1</title>
<path fill="none" stroke="#191970" d="M1573.6779,-772.2455C1564.0777,-763.9746 1550.1108,-751.9416 1538.8305,-742.2232"/>
<polygon fill="#191970" stroke="#191970" points="1541.053,-739.5182 1531.1924,-735.6427 1536.484,-744.8214 1541.053,-739.5182"/>
</g>
<!-- Node2 -->
<g id="node3" class="node">
<title>Node2</title>
<g id="a_node3"><a xlink:href="api_2spec_2ipsec_8h.html" target="_top" xlink:title="ODP IPSEC API. ">
<polygon fill="#ffffff" stroke="#000000" points="1592,-716.5 1592,-735.5 1708,-735.5 1708,-716.5 1592,-716.5"/>
<text text-anchor="middle" x="1650" y="-723.5" font-family="Helvetica,sans-Serif" font-size="10.00" fill="#000000">odp/api/spec/ipsec.h</text>
</a>
</g>
</g>
<!-- Node0&#45;&gt;Node2 -->
<g id="edge2" class="edge">
<title>Node0&#45;&gt;Node2</title>
<path fill="none" stroke="#191970" d="M1596.3221,-772.2455C1605.9223,-763.9746 1619.8892,-751.9416 1631.1695,-742.2232"/>
<polygon fill="#191970" stroke="#191970" points="1633.516,-744.8214 1638.8076,-735.6427 1628.947,-739.5182 1633.516,-744.8214"/>
</g>
<!-- Node3 -->
<g id="node4" class="node">
<title>Node3</title>
<g id="a_node4"><a xlink:href="visibility__begin_8h_source.html" target="_top" xlink:title="odp/visibility_begin.h">
<polygon fill="#ffffff" stroke="#000000" points="596.5,-.5 596.5,-19.5 717.5,-19.5 717.5,-.5 596.5,-.5"/>
<text text-anchor="middle" x="657" y="-7.5" font-family="Helvetica,sans-Serif" font-size="10.00" fill="#000000">odp/visibility_begin.h</text>
</a>
</g>
</g>
<!-- Node2&#45;&gt;Node3 -->
<g id="edge3" class="edge">
<title>Node2&#45;&gt;Node3</title>
<path fill="none" stroke="#191970" d="M1591.9416,-716.9492C1588.9211,-716.5991 1585.9269,-716.2791 1583,-716 1203.4968,-679.8111 1106.2892,-706.6926 726,-680 564.284,-668.6491 0,-770.6139 0,-608.5 0,-608.5 0,-608.5 0,-122 0,-87.4675 11.4655,-73.8943 41,-56 86.6708,-28.329 434.1517,-15.8707 586.1677,-11.7032"/>
<polygon fill="#191970" stroke="#191970" points="586.4287,-15.1975 596.3307,-11.4289 586.2399,-8.2 586.4287,-15.1975"/>
</g>
<!-- Node4 -->
<g id="node5" class="node">
<title>Node4</title>
<g id="a_node5"><a xlink:href="api_2crypto_8h.html" target="_top" xlink:title="ODP crypto. ">
<polygon fill="#ffffff" stroke="#000000" points="1314.5,-537.5 1314.5,-556.5 1409.5,-556.5 1409.5,-537.5 1314.5,-537.5"/>
<text text-anchor="middle" x="1362" y="-544.5" font-family="Helvetica,sans-Serif" font-size="10.00" fill="#000000">odp/api/crypto.h</text>
</a>
</g>
</g>
<!-- Node2&#45;&gt;Node4 -->
<g id="edge4" class="edge">
<title>Node2&#45;&gt;Node4</title>
<path fill="none" stroke="#191970" d="M1634.5159,-716.3762C1587.1467,-686.9349 1443.9198,-597.9154 1386.3481,-562.133"/>
<polygon fill="#191970" stroke="#191970" points="1387.9015,-558.9776 1377.5607,-556.6714 1384.2063,-564.9228 1387.9015,-558.9776"/>
</g>
<!-- Node12 -->
<g id="node13" class="node">
<title>Node12</title>
<g id="a_node13"><a xlink:href="visibility__end_8h_source.html" target="_top" xlink:title="odp/visibility_end.h">
<polygon fill="#ffffff" stroke="#000000" points="1596,-.5 1596,-19.5 1708,-19.5 1708,-.5 1596,-.5"/>
<text text-anchor="middle" x="1652" y="-7.5" font-family="Helvetica,sans-Serif" font-size="10.00" fill="#000000">odp/visibility_end.h</text>
</a>
</g>
</g>
<!-- Node2&#45;&gt;Node12 -->
<g id="edge107" class="edge">
<title>Node2&#45;&gt;Node12</title>
<path fill="none" stroke="#191970" d="M1708.0696,-723.0996C1815.0515,-717.238 2034.7903,-702.5855 2061,-680 2085.9084,-658.5359 2080,-641.3806 2080,-608.5 2080,-608.5 2080,-608.5 2080,-122 2080,-87.9282 2069.5483,-74.5979 2041,-56 2014.5652,-38.7789 1822.0515,-22.3534 1718.1255,-14.619"/>
<polygon fill="#191970" stroke="#191970" points="1718.2779,-11.1208 1708.0475,-13.8755 1717.7629,-18.1018 1718.2779,-11.1208"/>
</g>
<!-- Node21 -->
<g id="node22" class="node">
<title>Node21</title>
<g id="a_node22"><a xlink:href="support_8h.html" target="_top" xlink:title="ODP support API &#45; platform specific header. ">
<polygon fill="#ffffff" stroke="#000000" points="1670.5,-425.5 1670.5,-444.5 1771.5,-444.5 1771.5,-425.5 1670.5,-425.5"/>
<text text-anchor="middle" x="1721" y="-432.5" font-family="Helvetica,sans-Serif" font-size="10.00" fill="#000000">odp/api/support.h</text>
</a>
</g>
</g>
<!-- Node2&#45;&gt;Node21 -->
<g id="edge50" class="edge">
<title>Node2&#45;&gt;Node21</title>
<path fill="none" stroke="#191970" d="M1708.0591,-720.593C1767.0959,-711.5929 1855.3537,-687.6468 1895,-624 1941.3345,-549.6161 1814.0381,-478.0753 1752.3496,-448.8332"/>
<polygon fill="#191970" stroke="#191970" points="1753.5924,-445.5513 1743.0489,-444.5093 1750.6413,-451.8989 1753.5924,-445.5513"/>
</g>
<!-- Node41 -->
<g id="node33" class="node">
<title>Node41</title>
<g id="a_node33"><a xlink:href="api_2packet__io_8h.html" target="_top" xlink:title="ODP Packet IO. ">
<polygon fill="#ffffff" stroke="#000000" points="587,-537.5 587,-556.5 699,-556.5 699,-537.5 587,-537.5"/>
<text text-anchor="middle" x="643" y="-544.5" font-family="Helvetica,sans-Serif" font-size="10.00" fill="#000000">odp/api/packet_io.h</text>
</a>
</g>
</g>
<!-- Node2&#45;&gt;Node41 -->
<g id="edge51" class="edge">
<title>Node2&#45;&gt;Node41</title>
<path fill="none" stroke="#191970" d="M1591.941,-716.9558C1588.9207,-716.6039 1585.9267,-716.2818 1583,-716 1492.1105,-707.2486 847.1303,-713.0201 762,-680 707.7832,-658.9705 669.1006,-597.2872 652.3167,-565.8648"/>
<polygon fill="#191970" stroke="#191970" points="655.3425,-564.0959 647.6449,-556.8159 649.1225,-567.3072 655.3425,-564.0959"/>
</g>
<!-- Node53 -->
<g id="node42" class="node">
<title>Node53</title>
<g id="a_node42"><a xlink:href="protocols_8h.html" target="_top" xlink:title="ODP protocols. ">
<polygon fill="#ffffff" stroke="#000000" points="1942,-660.5 1942,-679.5 2052,-679.5 2052,-660.5 1942,-660.5"/>
<text text-anchor="middle" x="1997" y="-667.5" font-family="Helvetica,sans-Serif" font-size="10.00" fill="#000000">odp/api/protocols.h</text>
</a>
</g>
</g>
<!-- Node2&#45;&gt;Node53 -->
<g id="edge79" class="edge">
<title>Node2&#45;&gt;Node53</title>
<path fill="none" stroke="#191970" d="M1708.08,-716.6269C1769.8887,-706.652 1867.4637,-690.905 1931.848,-680.5144"/>
<polygon fill="#191970" stroke="#191970" points="1932.5712,-683.9431 1941.8858,-678.8945 1931.4559,-677.0325 1932.5712,-683.9431"/>
</g>
<!-- Node55 -->
<g id="node44" class="node">
<title>Node55</title>
<g id="a_node44"><a xlink:href="api_2classification_8h.html" target="_top" xlink:title="ODP classification descriptor. ">
<polygon fill="#ffffff" stroke="#000000" points="771,-660.5 771,-679.5 899,-679.5 899,-660.5 771,-660.5"/>
<text text-anchor="middle" x="835" y="-667.5" font-family="Helvetica,sans-Serif" font-size="10.00" fill="#000000">odp/api/classification.h</text>
</a>
</g>
</g>
<!-- Node2&#45;&gt;Node55 -->
<g id="edge83" class="edge">
<title>Node2&#45;&gt;Node55</title>
<path fill="none" stroke="#191970" d="M1591.9346,-717.0187C1588.916,-716.6504 1585.9241,-716.3075 1583,-716 1337.0906,-690.1364 1044.0549,-677.3222 909.391,-672.4363"/>
<polygon fill="#191970" stroke="#191970" points="909.3113,-668.9313 899.1922,-672.0705 909.0603,-675.9268 909.3113,-668.9313"/>
</g>
<!-- Node59 -->
<g id="node48" class="node">
<title>Node59</title>
<g id="a_node48"><a xlink:href="api_2traffic__mngr_8h.html" target="_top" xlink:title="ODP Traffic manager. ">
<polygon fill="#ffffff" stroke="#000000" points="1649.5,-660.5 1649.5,-679.5 1772.5,-679.5 1772.5,-660.5 1649.5,-660.5"/>
<text text-anchor="middle" x="1711" y="-667.5" font-family="Helvetica,sans-Serif" font-size="10.00" fill="#000000">odp/api/traffic_mngr.h</text>
</a>
</g>
</g>
<!-- Node2&#45;&gt;Node59 -->
<g id="edge100" class="edge">
<title>Node2&#45;&gt;Node59</title>
<path fill="none" stroke="#191970" d="M1660.6254,-716.2455C1669.5473,-708.0549 1682.488,-696.1749 1693.0192,-686.5069"/>
<polygon fill="#191970" stroke="#191970" points="1695.4968,-688.9837 1700.4964,-679.6427 1690.7629,-683.8271 1695.4968,-688.9837"/>
</g>
<!-- Node5 -->
<g id="node6" class="node">
<title>Node5</title>
<g id="a_node6"><a xlink:href="api_2std__types_8h.html" target="_top" xlink:title="Standard C language types and definitions for ODP. ">
<polygon fill="#ffffff" stroke="#000000" points="1531,-235.5 1531,-254.5 1643,-254.5 1643,-235.5 1531,-235.5"/>
<text text-anchor="middle" x="1587" y="-242.5" font-family="Helvetica,sans-Serif" font-size="10.00" fill="#000000">odp/api/std_types.h</text>
</a>
</g>
</g>
<!-- Node4&#45;&gt;Node5 -->
<g id="edge5" class="edge">
<title>Node4&#45;&gt;Node5</title>
<path fill="none" stroke="#191970" d="M1400.4606,-537.4561C1431.5984,-529.2334 1476.3178,-516.2923 1514,-501 1582.1504,-473.3431 1594.9273,-457.3075 1661,-425 1695.3,-408.2284 1718.4223,-421.1611 1739,-389 1746.4256,-377.3945 1746.1767,-369.761 1739,-358 1720.777,-328.1366 1697.5846,-342.1698 1669,-322 1643.769,-304.1966 1618.4223,-279.0093 1602.729,-262.3523"/>
<polygon fill="#191970" stroke="#191970" points="1605.2103,-259.8808 1595.8432,-254.9302 1600.0786,-264.6417 1605.2103,-259.8808"/>
</g>
<!-- Node13 -->
<g id="node14" class="node">
<title>Node13</title>
<polygon fill="#ffffff" stroke="#bfbfbf" points="1623.5,-358.5 1623.5,-388.5 1730.5,-388.5 1730.5,-358.5 1623.5,-358.5"/>
<text text-anchor="start" x="1631.5" y="-376.5" font-family="Helvetica,sans-Serif" font-size="10.00" fill="#000000">odp/api/abi/packet</text>
<text text-anchor="middle" x="1677" y="-365.5" font-family="Helvetica,sans-Serif" font-size="10.00" fill="#000000">_types.h</text>
</g>
<!-- Node4&#45;&gt;Node13 -->
<g id="edge16" class="edge">
<title>Node4&#45;&gt;Node13</title>
<path fill="none" stroke="#191970" d="M1405.297,-537.4512C1431.2079,-530.307 1463.8747,-518.6759 1489,-501 1524.8838,-475.7553 1516.6712,-451.0156 1552,-425 1570.848,-411.1206 1593.9806,-400.2395 1615.1993,-392.1269"/>
<polygon fill="#191970" stroke="#191970" points="1616.6177,-395.3344 1624.7915,-388.5935 1614.198,-388.7659 1616.6177,-395.3344"/>
</g>
<!-- Node14 -->
<g id="node15" class="node">
<title>Node14</title>
<polygon fill="#ffffff" stroke="#bfbfbf" points="1367.5,-481.5 1367.5,-500.5 1480.5,-500.5 1480.5,-481.5 1367.5,-481.5"/>
<text text-anchor="middle" x="1424" y="-488.5" font-family="Helvetica,sans-Serif" font-size="10.00" fill="#000000">odp/api/abi/crypto.h</text>
</g>
<!-- Node4&#45;&gt;Node14 -->
<g id="edge17" class="edge">
<title>Node4&#45;&gt;Node14</title>
<path fill="none" stroke="#191970" d="M1372.7996,-537.2455C1381.8678,-529.0549 1395.0206,-517.1749 1405.7245,-507.5069"/>
<polygon fill="#191970" stroke="#191970" points="1408.2491,-509.9429 1413.3242,-500.6427 1403.5571,-504.7482 1408.2491,-509.9429"/>
</g>
<!-- Node15 -->
<g id="node16" class="node">
<title>Node15</title>
<polygon fill="#ffffff" stroke="#bfbfbf" points="1457,-364 1457,-383 1567,-383 1567,-364 1457,-364"/>
<text text-anchor="middle" x="1512" y="-371" font-family="Helvetica,sans-Serif" font-size="10.00" fill="#000000">odp/api/abi/buffer.h</text>
</g>
<!-- Node4&#45;&gt;Node15 -->
<g id="edge18" class="edge">
<title>Node4&#45;&gt;Node15</title>
<path fill="none" stroke="#191970" d="M1358.4809,-537.3983C1354.1764,-523.9488 1348.5519,-499.1177 1358,-481 1382.6349,-433.7603 1438.561,-403.0295 1475.7973,-386.9783"/>
<polygon fill="#191970" stroke="#191970" points="1477.4085,-390.0989 1485.2964,-383.0256 1474.7192,-383.6361 1477.4085,-390.0989"/>
</g>
<!-- Node16 -->
<g id="node17" class="node">
<title>Node16</title>
<polygon fill="#ffffff" stroke="#bfbfbf" points="817,-364 817,-383 921,-383 921,-364 817,-364"/>
<text text-anchor="middle" x="869" y="-371" font-family="Helvetica,sans-Serif" font-size="10.00" fill="#000000">odp/api/abi/pool.h</text>
</g>
<!-- Node4&#45;&gt;Node16 -->
<g id="edge19" class="edge">
<title>Node4&#45;&gt;Node16</title>
<path fill="none" stroke="#191970" d="M1314.3134,-542.9998C1234.8262,-534.6711 1072.1263,-510.4478 952,-445 925.8313,-430.7426 900.6029,-407.1528 884.9671,-390.9957"/>
<polygon fill="#191970" stroke="#191970" points="887.1217,-388.1796 877.7108,-383.3128 882.0327,-392.9861 887.1217,-388.1796"/>
</g>
<!-- Node17 -->
<g id="node18" class="node">
<title>Node17</title>
<polygon fill="#ffffff" stroke="#bfbfbf" points="252.5,-364 252.5,-383 397.5,-383 397.5,-364 252.5,-364"/>
<text text-anchor="middle" x="325" y="-371" font-family="Helvetica,sans-Serif" font-size="10.00" fill="#000000">odp/api/abi/queue_types.h</text>
</g>
<!-- Node4&#45;&gt;Node17 -->
<g id="edge20" class="edge">
<title>Node4&#45;&gt;Node17</title>
<path fill="none" stroke="#191970" d="M1314.2384,-545.2196C1164.9014,-539.501 708.0163,-520.8143 561,-501 531.4981,-497.0239 317.7209,-468.1452 299,-445 286.2443,-429.2298 298.1471,-406.6518 309.7153,-391.1078"/>
<polygon fill="#191970" stroke="#191970" points="312.4549,-393.286 315.9489,-383.2839 306.9801,-388.924 312.4549,-393.286"/>
</g>
<!-- Node18 -->
<g id="node19" class="node">
<title>Node18</title>
<g id="a_node19"><a xlink:href="api_2spec_2crypto_8h.html" target="_top" xlink:title="ODP crypto. ">
<polygon fill="#ffffff" stroke="#000000" points="1151.5,-481.5 1151.5,-500.5 1272.5,-500.5 1272.5,-481.5 1151.5,-481.5"/>
<text text-anchor="middle" x="1212" y="-488.5" font-family="Helvetica,sans-Serif" font-size="10.00" fill="#000000">odp/api/spec/crypto.h</text>
</a>
</g>
</g>
<!-- Node4&#45;&gt;Node18 -->
<g id="edge21" class="edge">
<title>Node4&#45;&gt;Node18</title>
<path fill="none" stroke="#191970" d="M1336.2141,-537.3733C1311.5953,-528.1822 1274.31,-514.2624 1247.0125,-504.0713"/>
<polygon fill="#191970" stroke="#191970" points="1248.042,-500.7198 1237.4494,-500.5011 1245.5937,-507.2777 1248.042,-500.7198"/>
</g>
<!-- Node6 -->
<g id="node7" class="node">
<title>Node6</title>
<polygon fill="#ffffff" stroke="#bfbfbf" points="1321,-174 1321,-193 1451,-193 1451,-174 1321,-174"/>
<text text-anchor="middle" x="1386" y="-181" font-family="Helvetica,sans-Serif" font-size="10.00" fill="#000000">odp/api/abi/std_types.h</text>
</g>
<!-- Node5&#45;&gt;Node6 -->
<g id="edge6" class="edge">
<title>Node5&#45;&gt;Node6</title>
<path fill="none" stroke="#191970" d="M1555.5938,-235.3906C1520.9302,-224.7846 1465.0119,-207.6753 1426.9375,-196.0257"/>
<polygon fill="#191970" stroke="#191970" points="1427.7722,-192.6209 1417.1857,-193.0419 1425.7241,-199.3146 1427.7722,-192.6209"/>
</g>
<!-- Node7 -->
<g id="node8" class="node">
<title>Node7</title>
<g id="a_node8"><a xlink:href="api_2spec_2std__types_8h.html" target="_top" xlink:title="Standard C language types and definitions for ODP. ">
<polygon fill="#ffffff" stroke="#000000" points="1469.5,-174 1469.5,-193 1606.5,-193 1606.5,-174 1469.5,-174"/>
<text text-anchor="middle" x="1538" y="-181" font-family="Helvetica,sans-Serif" font-size="10.00" fill="#000000">odp/api/spec/std_types.h</text>
</a>
</g>
</g>
<!-- Node5&#45;&gt;Node7 -->
<g id="edge7" class="edge">
<title>Node5&#45;&gt;Node7</title>
<path fill="none" stroke="#191970" d="M1579.3438,-235.3906C1572.0511,-226.2376 1560.8993,-212.2409 1552.0148,-201.09"/>
<polygon fill="#191970" stroke="#191970" points="1554.733,-198.8849 1545.7642,-193.2449 1549.2583,-203.247 1554.733,-198.8849"/>
</g>
<!-- Node7&#45;&gt;Node3 -->
<g id="edge8" class="edge">
<title>Node7&#45;&gt;Node3</title>
<path fill="none" stroke="#191970" d="M1489.8426,-173.9586C1431.445,-162.2191 1336.5422,-142.5511 1302,-132 1237.5131,-112.3021 1222.4032,-103.8607 1161,-76 1143.261,-67.9512 1140.6871,-61.4998 1122,-56 1050.0235,-34.8167 839.2885,-20.2295 727.8961,-13.7659"/>
<polygon fill="#191970" stroke="#191970" points="727.9454,-10.2631 717.7613,-13.1844 727.5443,-17.2516 727.9454,-10.2631"/>
</g>
<!-- Node8 -->
<g id="node9" class="node">
<title>Node8</title>
<polygon fill="#ffffff" stroke="#bfbfbf" points="1504.5,-112.5 1504.5,-131.5 1557.5,-131.5 1557.5,-112.5 1504.5,-112.5"/>
<text text-anchor="middle" x="1531" y="-119.5" font-family="Helvetica,sans-Serif" font-size="10.00" fill="#000000">stdint.h</text>
</g>
<!-- Node7&#45;&gt;Node8 -->
<g id="edge9" class="edge">
<title>Node7&#45;&gt;Node8</title>
<path fill="none" stroke="#191970" d="M1536.9063,-173.8906C1535.9359,-165.3657 1534.4874,-152.6392 1533.2677,-141.9235"/>
<polygon fill="#191970" stroke="#191970" points="1536.7177,-141.2849 1532.1092,-131.7449 1529.7626,-142.0766 1536.7177,-141.2849"/>
</g>
<!-- Node9 -->
<g id="node10" class="node">
<title>Node9</title>
<g id="a_node10"><a xlink:href="api_2align_8h.html" target="_top" xlink:title="ODP alignments. ">
<polygon fill="#ffffff" stroke="#000000" points="1311.5,-112.5 1311.5,-131.5 1400.5,-131.5 1400.5,-112.5 1311.5,-112.5"/>
<text text-anchor="middle" x="1356" y="-119.5" font-family="Helvetica,sans-Serif" font-size="10.00" fill="#000000">odp/api/align.h</text>
</a>
</g>
</g>
<!-- Node7&#45;&gt;Node9 -->
<g id="edge10" class="edge">
<title>Node7&#45;&gt;Node9</title>
<path fill="none" stroke="#191970" d="M1509.5625,-173.8906C1478.4428,-163.3749 1428.4036,-146.466 1393.9515,-134.8243"/>
<polygon fill="#191970" stroke="#191970" points="1394.832,-131.4274 1384.2378,-131.5419 1392.5911,-138.0591 1394.832,-131.4274"/>
</g>
<!-- Node7&#45;&gt;Node12 -->
<g id="edge15" class="edge">
<title>Node7&#45;&gt;Node12</title>
<path fill="none" stroke="#191970" d="M1546.6099,-173.791C1557.7052,-160.0438 1574.6024,-134.1151 1566,-112 1555.5271,-85.0763 1516.6651,-79.8272 1533,-56 1541.608,-43.4438 1575.2821,-31.1091 1604.6217,-22.3782"/>
<polygon fill="#191970" stroke="#191970" points="1605.7294,-25.7013 1614.3629,-19.5603 1603.7842,-18.977 1605.7294,-25.7013"/>
</g>
<!-- Node10 -->
<g id="node11" class="node">
<title>Node10</title>
<polygon fill="#ffffff" stroke="#bfbfbf" points="1302.5,-56.5 1302.5,-75.5 1409.5,-75.5 1409.5,-56.5 1302.5,-56.5"/>
<text text-anchor="middle" x="1356" y="-63.5" font-family="Helvetica,sans-Serif" font-size="10.00" fill="#000000">odp/api/abi/align.h</text>
</g>
<!-- Node9&#45;&gt;Node10 -->
<g id="edge11" class="edge">
<title>Node9&#45;&gt;Node10</title>
<path fill="none" stroke="#191970" d="M1356,-112.2455C1356,-104.9382 1356,-94.6944 1356,-85.7046"/>
<polygon fill="#191970" stroke="#191970" points="1359.5001,-85.6426 1356,-75.6427 1352.5001,-85.6427 1359.5001,-85.6426"/>
</g>
<!-- Node11 -->
<g id="node12" class="node">
<title>Node11</title>
<g id="a_node12"><a xlink:href="api_2spec_2align_8h.html" target="_top" xlink:title="ODP alignments. ">
<polygon fill="#ffffff" stroke="#000000" points="1170,-56.5 1170,-75.5 1284,-75.5 1284,-56.5 1170,-56.5"/>
<text text-anchor="middle" x="1227" y="-63.5" font-family="Helvetica,sans-Serif" font-size="10.00" fill="#000000">odp/api/spec/align.h</text>
</a>
</g>
</g>
<!-- Node9&#45;&gt;Node11 -->
<g id="edge12" class="edge">
<title>Node9&#45;&gt;Node11</title>
<path fill="none" stroke="#191970" d="M1333.8241,-112.3733C1313.0234,-103.3435 1281.7083,-89.7494 1258.3542,-79.6111"/>
<polygon fill="#191970" stroke="#191970" points="1259.4532,-76.2727 1248.8865,-75.5011 1256.6657,-82.6938 1259.4532,-76.2727"/>
</g>
<!-- Node11&#45;&gt;Node3 -->
<g id="edge13" class="edge">
<title>Node11&#45;&gt;Node3</title>
<path fill="none" stroke="#191970" d="M1169.6793,-57.686C1165.0546,-57.0886 1160.4512,-56.5183 1156,-56 1003.8364,-38.2811 824.917,-23.1743 728.0383,-15.4693"/>
<polygon fill="#191970" stroke="#191970" points="728.0255,-11.9574 717.7803,-14.6568 727.4727,-18.9355 728.0255,-11.9574"/>
</g>
<!-- Node11&#45;&gt;Node12 -->
<g id="edge14" class="edge">
<title>Node11&#45;&gt;Node12</title>
<path fill="none" stroke="#191970" d="M1284.2257,-57.2474C1287.1923,-56.8193 1290.1306,-56.4012 1293,-56 1395.0195,-41.7371 1513.5978,-26.8775 1585.6901,-18.0345"/>
<polygon fill="#191970" stroke="#191970" points="1586.4814,-21.4639 1595.9818,-16.7743 1585.6305,-14.5158 1586.4814,-21.4639"/>
</g>
<!-- Node18&#45;&gt;Node3 -->
<g id="edge22" class="edge">
<title>Node18&#45;&gt;Node3</title>
<path fill="none" stroke="#191970" d="M1176.1418,-481.4988C1146.6076,-473.2121 1103.9031,-460.1617 1068,-445 1019.2774,-424.4246 1005.9818,-419.8188 963,-389 946.6464,-377.2741 947.5603,-367.8272 930,-358 876.9351,-328.3034 854.878,-343.5097 798,-322 716.011,-290.9941 700.3986,-272.1405 621,-235 585.3157,-218.3079 561.4671,-232.0328 540,-199 504.7999,-144.8355 521.4356,-102.7638 566,-56 579.9108,-41.4027 599.4584,-30.6885 616.8726,-23.2917"/>
<polygon fill="#191970" stroke="#191970" points="618.2994,-26.4906 626.2784,-19.5202 615.6941,-19.9935 618.2994,-26.4906"/>
</g>
<!-- Node18&#45;&gt;Node12 -->
<g id="edge49" class="edge">
<title>Node18&#45;&gt;Node12</title>
<path fill="none" stroke="#191970" d="M1272.8112,-484.4675C1393.9865,-470.6126 1660.6421,-435.6844 1739,-389 1811.2592,-345.9491 1861.5546,-318.1694 1849,-235 1836.4549,-151.8933 1849.2892,-113.5129 1788,-56 1768.9101,-38.0863 1742.5924,-27.1288 1718.191,-20.4348"/>
<polygon fill="#191970" stroke="#191970" points="1718.7922,-16.9763 1708.2381,-17.9037 1717.067,-23.7604 1718.7922,-16.9763"/>
</g>
<!-- Node19 -->
<g id="node20" class="node">
<title>Node19</title>
<g id="a_node20"><a xlink:href="deprecated_8h.html" target="_top" xlink:title="Control deprecated API definitions. ">
<polygon fill="#ffffff" stroke="#000000" points="626.5,-112.5 626.5,-131.5 745.5,-131.5 745.5,-112.5 626.5,-112.5"/>
<text text-anchor="middle" x="686" y="-119.5" font-family="Helvetica,sans-Serif" font-size="10.00" fill="#000000">odp/api/deprecated.h</text>
</a>
</g>
</g>
<!-- Node18&#45;&gt;Node19 -->
<g id="edge23" class="edge">
<title>Node18&#45;&gt;Node19</title>
<path fill="none" stroke="#191970" d="M1189.7208,-481.4278C1151.2387,-464.5767 1070.2663,-427.7152 1006,-389 985.8192,-376.8427 984.1884,-368.3012 963,-358 911.0055,-332.7218 885.6938,-354.676 838,-322 766.8414,-273.2479 714.9075,-180.4474 694.967,-140.7612"/>
<polygon fill="#191970" stroke="#191970" points="698.0493,-139.0976 690.4953,-131.6688 691.7678,-142.1869 698.0493,-139.0976"/>
</g>
<!-- Node18&#45;&gt;Node21 -->
<g id="edge27" class="edge">
<title>Node18&#45;&gt;Node21</title>
<path fill="none" stroke="#191970" d="M1272.7953,-485.6603C1358.425,-477.9213 1519.3769,-462.5759 1656,-445 1657.3058,-444.832 1658.6259,-444.6589 1659.9563,-444.4814"/>
<polygon fill="#191970" stroke="#191970" points="1660.8674,-447.8886 1670.2922,-443.0488 1659.9063,-440.9549 1660.8674,-447.8886"/>
</g>
<!-- Node23 -->
<g id="node24" class="node">
<title>Node23</title>
<g id="a_node24"><a xlink:href="api_2packet_8h.html" target="_top" xlink:title="ODP packet descriptor. ">
<polygon fill="#ffffff" stroke="#000000" points="1163,-425.5 1163,-444.5 1261,-444.5 1261,-425.5 1163,-425.5"/>
<text text-anchor="middle" x="1212" y="-432.5" font-family="Helvetica,sans-Serif" font-size="10.00" fill="#000000">odp/api/packet.h</text>
</a>
</g>
</g>
<!-- Node18&#45;&gt;Node23 -->
<g id="edge31" class="edge">
<title>Node18&#45;&gt;Node23</title>
<path fill="none" stroke="#191970" d="M1212,-481.2455C1212,-473.9382 1212,-463.6944 1212,-454.7046"/>
<polygon fill="#191970" stroke="#191970" points="1215.5001,-454.6426 1212,-444.6427 1208.5001,-454.6427 1215.5001,-454.6426"/>
</g>
<!-- Node20 -->
<g id="node21" class="node">
<title>Node20</title>
<g id="a_node21"><a xlink:href="spec_2deprecated_8h.html" target="_top" xlink:title="Macro for deprecated API definitions. ">
<polygon fill="#ffffff" stroke="#000000" points="798.5,-56.5 798.5,-75.5 943.5,-75.5 943.5,-56.5 798.5,-56.5"/>
<text text-anchor="middle" x="871" y="-63.5" font-family="Helvetica,sans-Serif" font-size="10.00" fill="#000000">odp/api/spec/deprecated.h</text>
</a>
</g>
</g>
<!-- Node19&#45;&gt;Node20 -->
<g id="edge24" class="edge">
<title>Node19&#45;&gt;Node20</title>
<path fill="none" stroke="#191970" d="M717.8026,-112.3733C748.8317,-102.9807 796.1754,-88.6496 830.0147,-78.4064"/>
<polygon fill="#191970" stroke="#191970" points="831.0553,-81.7483 839.6124,-75.5011 829.0272,-75.0485 831.0553,-81.7483"/>
</g>
<!-- Node20&#45;&gt;Node3 -->
<g id="edge25" class="edge">
<title>Node20&#45;&gt;Node3</title>
<path fill="none" stroke="#191970" d="M834.2121,-56.3733C797.9339,-46.8799 742.3764,-32.3415 703.1554,-22.0781"/>
<polygon fill="#191970" stroke="#191970" points="703.8682,-18.6468 693.3079,-19.5011 702.096,-25.4188 703.8682,-18.6468"/>
</g>
<!-- Node20&#45;&gt;Node12 -->
<g id="edge26" class="edge">
<title>Node20&#45;&gt;Node12</title>
<path fill="none" stroke="#191970" d="M943.6458,-59.7856C959.264,-58.4945 975.6791,-57.1714 991,-56 1208.6088,-39.3619 1466.7159,-22.1204 1585.7794,-14.3079"/>
<polygon fill="#191970" stroke="#191970" points="1586.0816,-17.7957 1595.8312,-13.649 1585.6237,-10.8107 1586.0816,-17.7957"/>
</g>
<!-- Node22 -->
<g id="node23" class="node">
<title>Node22</title>
<g id="a_node23"><a xlink:href="spec_2support_8h.html" target="_top" xlink:title="ODP support API. ">
<polygon fill="#ffffff" stroke="#000000" points="1542.5,-56.5 1542.5,-75.5 1669.5,-75.5 1669.5,-56.5 1542.5,-56.5"/>
<text text-anchor="middle" x="1606" y="-63.5" font-family="Helvetica,sans-Serif" font-size="10.00" fill="#000000">odp/api/spec/support.h</text>
</a>
</g>
</g>
<!-- Node21&#45;&gt;Node22 -->
<g id="edge28" class="edge">
<title>Node21&#45;&gt;Node22</title>
<path fill="none" stroke="#191970" d="M1739.3161,-425.3709C1771.5412,-406.9561 1835,-363.4617 1835,-306.5 1835,-306.5 1835,-306.5 1835,-245 1835,-152.6048 1717.852,-100.8086 1651.133,-78.8016"/>
<polygon fill="#191970" stroke="#191970" points="1651.8704,-75.3628 1641.2794,-75.6465 1649.7357,-82.0293 1651.8704,-75.3628"/>
</g>
<!-- Node22&#45;&gt;Node3 -->
<g id="edge29" class="edge">
<title>Node22&#45;&gt;Node3</title>
<path fill="none" stroke="#191970" d="M1542.2598,-62.2387C1371.753,-52.1772 906.0499,-24.6963 727.7445,-14.1746"/>
<polygon fill="#191970" stroke="#191970" points="727.8784,-10.6765 717.6896,-13.5813 727.466,-17.6643 727.8784,-10.6765"/>
</g>
<!-- Node22&#45;&gt;Node12 -->
<g id="edge30" class="edge">
<title>Node22&#45;&gt;Node12</title>
<path fill="none" stroke="#191970" d="M1614.0126,-56.2455C1620.4768,-48.3761 1629.7385,-37.101 1637.4983,-27.6542"/>
<polygon fill="#191970" stroke="#191970" points="1640.4364,-29.5916 1644.0792,-19.6427 1635.0273,-25.1484 1640.4364,-29.5916"/>
</g>
<!-- Node23&#45;&gt;Node5 -->
<g id="edge32" class="edge">
<title>Node23&#45;&gt;Node5</title>
<path fill="none" stroke="#191970" d="M1261.2862,-429.868C1302.6694,-424.1083 1362.4798,-412.3243 1410,-389 1429.5661,-379.3964 1431.0994,-371.7634 1448,-358 1490.4324,-323.4444 1540.2016,-283.0071 1567.1759,-261.0984"/>
<polygon fill="#191970" stroke="#191970" points="1569.5386,-263.6884 1575.0946,-254.6671 1565.1256,-258.2546 1569.5386,-263.6884"/>
</g>
<!-- Node23&#45;&gt;Node13 -->
<g id="edge35" class="edge">
<title>Node23&#45;&gt;Node13</title>
<path fill="none" stroke="#191970" d="M1261.2161,-429.2011C1331.2245,-420.8567 1463.555,-404.7304 1576,-389 1588.01,-387.3199 1600.8077,-385.4318 1613.1161,-383.5667"/>
<polygon fill="#191970" stroke="#191970" points="1613.9546,-386.9793 1623.312,-382.0104 1612.8984,-380.0594 1613.9546,-386.9793"/>
</g>
<!-- Node23&#45;&gt;Node15 -->
<g id="edge37" class="edge">
<title>Node23&#45;&gt;Node15</title>
<path fill="none" stroke="#191970" d="M1261.1895,-425.5656C1308.0039,-416.5013 1380.3942,-402.2632 1443,-389 1448.694,-387.7937 1454.6453,-386.5027 1460.5634,-385.1996"/>
<polygon fill="#191970" stroke="#191970" points="1461.4359,-388.5912 1470.4404,-383.0082 1459.9196,-381.7574 1461.4359,-388.5912"/>
</g>
<!-- Node23&#45;&gt;Node16 -->
<g id="edge38" class="edge">
<title>Node23&#45;&gt;Node16</title>
<path fill="none" stroke="#191970" d="M1162.8565,-426.1885C1101.8051,-415.242 997.5886,-396.556 931.0765,-384.6303"/>
<polygon fill="#191970" stroke="#191970" points="931.6032,-381.169 921.1424,-382.8491 930.3677,-388.0591 931.6032,-381.169"/>
</g>
<!-- Node24 -->
<g id="node25" class="node">
<title>Node24</title>
<polygon fill="#ffffff" stroke="#bfbfbf" points="1157,-364 1157,-383 1267,-383 1267,-364 1157,-364"/>
<text text-anchor="middle" x="1212" y="-371" font-family="Helvetica,sans-Serif" font-size="10.00" fill="#000000">odp/api/abi/event.h</text>
</g>
<!-- Node23&#45;&gt;Node24 -->
<g id="edge33" class="edge">
<title>Node23&#45;&gt;Node24</title>
<path fill="none" stroke="#191970" d="M1212,-425.3906C1212,-416.8657 1212,-404.1392 1212,-393.4235"/>
<polygon fill="#191970" stroke="#191970" points="1215.5001,-393.2448 1212,-383.2449 1208.5001,-393.2449 1215.5001,-393.2448"/>
</g>
<!-- Node25 -->
<g id="node26" class="node">
<title>Node25</title>
<polygon fill="#ffffff" stroke="#bfbfbf" points="104,-364 104,-383 234,-383 234,-364 104,-364"/>
<text text-anchor="middle" x="169" y="-371" font-family="Helvetica,sans-Serif" font-size="10.00" fill="#000000">odp/api/abi/packet_io.h</text>
</g>
<!-- Node23&#45;&gt;Node25 -->
<g id="edge34" class="edge">
<title>Node23&#45;&gt;Node25</title>
<path fill="none" stroke="#191970" d="M1162.8271,-433.7012C991.8501,-429.0233 423.8459,-412.0835 243,-389 235.1267,-387.995 226.8442,-386.6 218.785,-385.0553"/>
<polygon fill="#191970" stroke="#191970" points="219.2374,-381.5763 208.7437,-383.0367 217.8578,-388.439 219.2374,-381.5763"/>
</g>
<!-- Node26 -->
<g id="node27" class="node">
<title>Node26</title>
<polygon fill="#ffffff" stroke="#bfbfbf" points="1285,-364 1285,-383 1401,-383 1401,-364 1285,-364"/>
<text text-anchor="middle" x="1343" y="-371" font-family="Helvetica,sans-Serif" font-size="10.00" fill="#000000">odp/api/abi/packet.h</text>
</g>
<!-- Node23&#45;&gt;Node26 -->
<g id="edge36" class="edge">
<title>Node23&#45;&gt;Node26</title>
<path fill="none" stroke="#191970" d="M1232.4688,-425.3906C1254.1952,-415.1908 1288.7335,-398.9763 1313.4185,-387.3875"/>
<polygon fill="#191970" stroke="#191970" points="1315.1103,-390.4598 1322.675,-383.0419 1312.1355,-384.1234 1315.1103,-390.4598"/>
</g>
<!-- Node27 -->
<g id="node28" class="node">
<title>Node27</title>
<g id="a_node28"><a xlink:href="api_2spec_2packet_8h.html" target="_top" xlink:title="ODP packet descriptor. ">
<polygon fill="#ffffff" stroke="#ff0000" points="1015.5,-364 1015.5,-383 1138.5,-383 1138.5,-364 1015.5,-364"/>
<text text-anchor="middle" x="1077" y="-371" font-family="Helvetica,sans-Serif" font-size="10.00" fill="#000000">odp/api/spec/packet.h</text>
</a>
</g>
</g>
<!-- Node23&#45;&gt;Node27 -->
<g id="edge39" class="edge">
<title>Node23&#45;&gt;Node27</title>
<path fill="none" stroke="#191970" d="M1190.9063,-425.3906C1168.4173,-415.1457 1132.6082,-398.8326 1107.1476,-387.2339"/>
<polygon fill="#191970" stroke="#191970" points="1108.4968,-384.0025 1097.9456,-383.0419 1105.5948,-390.3727 1108.4968,-384.0025"/>
</g>
<!-- Node27&#45;&gt;Node3 -->
<g id="edge40" class="edge">
<title>Node27&#45;&gt;Node3</title>
<path fill="none" stroke="#191970" d="M1030.5838,-363.9741C963.6087,-350.1603 846.8645,-325.796 838,-322 774.7682,-294.9225 772.9535,-262.7185 710,-235 646.4618,-207.024 601.0637,-253.4543 558,-199 535.0235,-169.9461 531.9906,-126.6667 582,-56 591.9163,-41.9876 607.58,-31.413 622.0338,-23.9582"/>
<polygon fill="#191970" stroke="#191970" points="623.7924,-26.9961 631.2848,-19.5051 620.7563,-20.6888 623.7924,-26.9961"/>
</g>
<!-- Node27&#45;&gt;Node12 -->
<g id="edge48" class="edge">
<title>Node27&#45;&gt;Node12</title>
<path fill="none" stroke="#191970" d="M1120.1486,-363.9341C1129.3342,-361.9386 1138.9823,-359.8733 1148,-358 1275.0728,-331.6023 1721,-374.7858 1721,-245 1721,-245 1721,-245 1721,-183.5 1721,-125.483 1719.3828,-107.6713 1693,-56 1687.5271,-45.2812 1678.9465,-35.0998 1671.0465,-27.0534"/>
<polygon fill="#191970" stroke="#191970" points="1673.138,-24.2075 1663.5136,-19.7779 1668.275,-29.2426 1673.138,-24.2075"/>
</g>
<!-- Node28 -->
<g id="node29" class="node">
<title>Node28</title>
<g id="a_node29"><a xlink:href="api_2proto__stats__types_8h.html" target="_top" xlink:title="ODP proto stats types. ">
<polygon fill="#ffffff" stroke="#ff0000" points="1145,-291.5 1145,-321.5 1255,-321.5 1255,-291.5 1145,-291.5"/>
<text text-anchor="start" x="1153" y="-309.5" font-family="Helvetica,sans-Serif" font-size="10.00" fill="#000000">odp/api/proto_stats</text>
<text text-anchor="middle" x="1200" y="-298.5" font-family="Helvetica,sans-Serif" font-size="10.00" fill="#000000">_types.h</text>
</a>
</g>
</g>
<!-- Node27&#45;&gt;Node28 -->
<g id="edge41" class="edge">
<title>Node27&#45;&gt;Node28</title>
<path fill="none" stroke="#191970" d="M1094.6229,-363.9005C1112.4881,-354.1691 1140.6607,-338.823 1163.3826,-326.4461"/>
<polygon fill="#191970" stroke="#191970" points="1165.3153,-329.3789 1172.4227,-321.5218 1161.9668,-323.2317 1165.3153,-329.3789"/>
</g>
<!-- Node31 -->
<g id="node30" class="node">
<title>Node31</title>
<g id="a_node30"><a xlink:href="api_2time_8h.html" target="_top" xlink:title="ODP time. ">
<polygon fill="#ffffff" stroke="#000000" points="847.5,-297 847.5,-316 934.5,-316 934.5,-297 847.5,-297"/>
<text text-anchor="middle" x="891" y="-304" font-family="Helvetica,sans-Serif" font-size="10.00" fill="#000000">odp/api/time.h</text>
</a>
</g>
</g>
<!-- Node27&#45;&gt;Node31 -->
<g id="edge42" class="edge">
<title>Node27&#45;&gt;Node31</title>
<path fill="none" stroke="#191970" d="M1050.3507,-363.9005C1018.0308,-352.2584 963.4026,-332.5805 927.2675,-319.5641"/>
<polygon fill="#191970" stroke="#191970" points="928.1942,-316.1778 917.5998,-316.0817 925.8219,-322.7636 928.1942,-316.1778"/>
</g>
<!-- Node31&#45;&gt;Node5 -->
<g id="edge43" class="edge">
<title>Node31&#45;&gt;Node5</title>
<path fill="none" stroke="#191970" d="M919.6159,-296.9226C927.4427,-294.636 935.9799,-292.4426 944,-291 1053.2066,-271.3569 1379.004,-254.5459 1520.3482,-247.9645"/>
<polygon fill="#191970" stroke="#191970" points="1520.7793,-251.4484 1530.6068,-247.4897 1520.4556,-244.4559 1520.7793,-251.4484"/>
</g>
<!-- Node32 -->
<g id="node31" class="node">
<title>Node32</title>
<polygon fill="#ffffff" stroke="#bfbfbf" points="849.5,-235.5 849.5,-254.5 954.5,-254.5 954.5,-235.5 849.5,-235.5"/>
<text text-anchor="middle" x="902" y="-242.5" font-family="Helvetica,sans-Serif" font-size="10.00" fill="#000000">odp/api/abi/time.h</text>
</g>
<!-- Node31&#45;&gt;Node32 -->
<g id="edge44" class="edge">
<title>Node31&#45;&gt;Node32</title>
<path fill="none" stroke="#191970" d="M892.7188,-296.8906C894.2435,-288.3657 896.5198,-275.6392 898.4364,-264.9235"/>
<polygon fill="#191970" stroke="#191970" points="901.9416,-265.2049 900.257,-254.7449 895.0509,-263.9724 901.9416,-265.2049"/>
</g>
<!-- Node33 -->
<g id="node32" class="node">
<title>Node33</title>
<g id="a_node32"><a xlink:href="api_2spec_2time_8h.html" target="_top" xlink:title="ODP time. ">
<polygon fill="#ffffff" stroke="#000000" points="1000.5,-56.5 1000.5,-75.5 1113.5,-75.5 1113.5,-56.5 1000.5,-56.5"/>
<text text-anchor="middle" x="1057" y="-63.5" font-family="Helvetica,sans-Serif" font-size="10.00" fill="#000000">odp/api/spec/time.h</text>
</a>
</g>
</g>
<!-- Node31&#45;&gt;Node33 -->
<g id="edge45" class="edge">
<title>Node31&#45;&gt;Node33</title>
<path fill="none" stroke="#191970" d="M909.181,-296.8898C925.0103,-287.7974 947.7495,-272.8976 963,-255 1008.6645,-201.4092 1038.7315,-121.8059 1050.8928,-85.4184"/>
<polygon fill="#191970" stroke="#191970" points="1054.3248,-86.182 1054.0896,-75.5898 1047.6681,-84.0169 1054.3248,-86.182"/>
</g>
<!-- Node33&#45;&gt;Node3 -->
<g id="edge46" class="edge">
<title>Node33&#45;&gt;Node3</title>
<path fill="none" stroke="#191970" d="M1000.4195,-58.0257C995.5424,-57.3399 990.6844,-56.6574 986,-56 896.9066,-43.4974 794.2324,-29.1518 727.6086,-19.8514"/>
<polygon fill="#191970" stroke="#191970" points="728.0279,-16.376 717.64,-18.4599 727.0601,-23.3088 728.0279,-16.376"/>
</g>
<!-- Node33&#45;&gt;Node12 -->
<g id="edge47" class="edge">
<title>Node33&#45;&gt;Node12</title>
<path fill="none" stroke="#191970" d="M1113.672,-60.5254C1129.0292,-59.0488 1145.651,-57.4569 1161,-56 1312.9324,-41.5786 1491.3402,-24.9378 1585.6896,-16.1605"/>
<polygon fill="#191970" stroke="#191970" points="1586.0301,-19.6441 1595.663,-15.2329 1585.3818,-12.6741 1586.0301,-19.6441"/>
</g>
<!-- Node41&#45;&gt;Node5 -->
<g id="edge52" class="edge">
<title>Node41&#45;&gt;Node5</title>
<path fill="none" stroke="#191970" d="M663.2454,-537.3451C678.9038,-529.1893 700.4625,-516.392 716,-501 769.6886,-447.814 744.0232,-398.2267 808,-358 917.9498,-288.8669 978.5724,-373.0432 1098,-322 1118.0421,-313.434 1115.8655,-299.3464 1136,-291 1170.6261,-276.6464 1403.4591,-258.1826 1520.3365,-249.6741"/>
<polygon fill="#191970" stroke="#191970" points="1520.8724,-253.1445 1530.5934,-248.9313 1520.3667,-246.1628 1520.8724,-253.1445"/>
</g>
<!-- Node41&#45;&gt;Node13 -->
<g id="edge55" class="edge">
<title>Node41&#45;&gt;Node13</title>
<path fill="none" stroke="#191970" d="M699.158,-538.7887C704.5063,-538.1307 709.852,-537.5205 715,-537 965.7853,-511.6444 1033.3541,-547.9864 1281,-501 1315.2077,-494.5097 1522.5597,-425.4576 1622.81,-391.7739"/>
<polygon fill="#191970" stroke="#191970" points="1624.095,-395.0344 1632.4583,-388.5302 1621.8643,-388.3994 1624.095,-395.0344"/>
</g>
<!-- Node41&#45;&gt;Node16 -->
<g id="edge53" class="edge">
<title>Node41&#45;&gt;Node16</title>
<path fill="none" stroke="#191970" d="M673.3664,-537.4973C713.8038,-523.4073 785.1924,-493.3141 828,-445 842.0325,-429.1625 853.5338,-407.7647 860.7461,-392.5146"/>
<polygon fill="#191970" stroke="#191970" points="864.0813,-393.635 865.0323,-383.0829 857.7085,-390.7388 864.0813,-393.635"/>
</g>
<!-- Node41&#45;&gt;Node17 -->
<g id="edge57" class="edge">
<title>Node41&#45;&gt;Node17</title>
<path fill="none" stroke="#191970" d="M586.7355,-538.7335C540.332,-531.1724 473.0923,-518.4959 416,-501 393.9032,-494.2284 389.5717,-489.2936 368,-481 323.1281,-463.7484 293.7662,-484.2447 266,-445 251.5397,-424.5618 276.4412,-402.5601 298.2055,-388.4426"/>
<polygon fill="#191970" stroke="#191970" points="300.2321,-391.305 306.9116,-383.081 296.5614,-385.3446 300.2321,-391.305"/>
</g>
<!-- Node41&#45;&gt;Node25 -->
<g id="edge56" class="edge">
<title>Node41&#45;&gt;Node25</title>
<path fill="none" stroke="#191970" d="M586.8875,-543.8335C530.1605,-539.2109 440.7263,-527.9849 368,-501 351.9211,-495.034 350.1231,-489.0879 335,-481 301.687,-463.1841 290.0662,-464.973 258,-445 231.6871,-428.6105 204.3051,-405.5586 186.9824,-390.103"/>
<polygon fill="#191970" stroke="#191970" points="189.1001,-387.2993 179.3353,-383.1884 184.4053,-392.4915 189.1001,-387.2993"/>
</g>
<!-- Node42 -->
<g id="node34" class="node">
<title>Node42</title>
<polygon fill="#ffffff" stroke="#bfbfbf" points="180,-481.5 180,-500.5 326,-500.5 326,-481.5 180,-481.5"/>
<text text-anchor="middle" x="253" y="-488.5" font-family="Helvetica,sans-Serif" font-size="10.00" fill="#000000">odp/api/abi/classification.h</text>
</g>
<!-- Node41&#45;&gt;Node42 -->
<g id="edge54" class="edge">
<title>Node41&#45;&gt;Node42</title>
<path fill="none" stroke="#191970" d="M586.7072,-538.9169C518.9766,-529.1915 404.9571,-512.8195 329.3425,-501.962"/>
<polygon fill="#191970" stroke="#191970" points="329.7936,-498.491 319.3977,-500.534 328.7986,-505.4199 329.7936,-498.491"/>
</g>
<!-- Node43 -->
<g id="node35" class="node">
<title>Node43</title>
<g id="a_node35"><a xlink:href="api_2spec_2packet__io_8h.html" target="_top" xlink:title="ODP Packet IO. ">
<polygon fill="#ffffff" stroke="#000000" points="570.5,-481.5 570.5,-500.5 707.5,-500.5 707.5,-481.5 570.5,-481.5"/>
<text text-anchor="middle" x="639" y="-488.5" font-family="Helvetica,sans-Serif" font-size="10.00" fill="#000000">odp/api/spec/packet_io.h</text>
</a>
</g>
</g>
<!-- Node41&#45;&gt;Node43 -->
<g id="edge58" class="edge">
<title>Node41&#45;&gt;Node43</title>
<path fill="none" stroke="#191970" d="M642.3033,-537.2455C641.7813,-529.9382 641.0496,-519.6944 640.4075,-510.7046"/>
<polygon fill="#191970" stroke="#191970" points="643.8924,-510.3679 639.6888,-500.6427 636.9102,-510.8667 643.8924,-510.3679"/>
</g>
<!-- Node43&#45;&gt;Node3 -->
<g id="edge59" class="edge">
<title>Node43&#45;&gt;Node3</title>
<path fill="none" stroke="#191970" d="M593.9332,-481.4373C542.0819,-467.4818 464,-436.0775 464,-373.5 464,-373.5 464,-373.5 464,-306.5 464,-194.9672 379.1666,-142.9647 449,-56 466.1315,-34.6658 532.9452,-22.6263 586.2869,-16.264"/>
<polygon fill="#191970" stroke="#191970" points="586.879,-19.7192 596.4156,-15.1037 586.0822,-12.7647 586.879,-19.7192"/>
</g>
<!-- Node43&#45;&gt;Node12 -->
<g id="edge78" class="edge">
<title>Node43&#45;&gt;Node12</title>
<path fill="none" stroke="#191970" d="M707.8096,-489.1555C896.9846,-483.2022 1421.1293,-460.5241 1576,-389 1595.7876,-379.8615 1596.3603,-370.8025 1614,-358 1671.1563,-316.5174 1708.4687,-320.4503 1735,-255 1768.4475,-172.4883 1764.444,-127.9482 1712,-56 1703.0048,-43.6595 1689.7932,-33.0348 1678.0555,-25.1152"/>
<polygon fill="#191970" stroke="#191970" points="1679.7682,-22.0556 1669.4612,-19.6027 1675.9889,-27.9478 1679.7682,-22.0556"/>
</g>
<!-- Node43&#45;&gt;Node19 -->
<g id="edge60" class="edge">
<title>Node43&#45;&gt;Node19</title>
<path fill="none" stroke="#191970" d="M607.11,-481.4777C589.5823,-474.43 569.3495,-462.8893 559,-445 554.5488,-437.3059 556.7349,-433.5955 559,-425 588.4155,-313.3749 657.5845,-310.6251 687,-199 691.9893,-180.0668 690.9427,-157.5958 689.1334,-141.8314"/>
<polygon fill="#191970" stroke="#191970" points="692.5695,-141.1227 687.7566,-131.6841 685.633,-142.064 692.5695,-141.1227"/>
</g>
<!-- Node43&#45;&gt;Node23 -->
<g id="edge77" class="edge">
<title>Node43&#45;&gt;Node23</title>
<path fill="none" stroke="#191970" d="M707.548,-484.3007C820.9306,-473.2197 1045.6104,-451.2615 1152.6351,-440.8018"/>
<polygon fill="#191970" stroke="#191970" points="1153.0053,-444.2824 1162.6174,-439.8262 1152.3244,-437.3156 1153.0053,-444.2824"/>
</g>
<!-- Node43&#45;&gt;Node31 -->
<g id="edge76" class="edge">
<title>Node43&#45;&gt;Node31</title>
<path fill="none" stroke="#191970" d="M666.8116,-481.4942C684.1103,-474.1668 705.3899,-462.3219 718,-445 741.2936,-413.0027 710.5611,-387.4518 737,-358 750.7004,-342.7383 798.5732,-328.1889 837.3489,-318.472"/>
<polygon fill="#191970" stroke="#191970" points="838.6156,-321.7653 847.4953,-315.9858 836.9496,-314.9664 838.6156,-321.7653"/>
</g>
<!-- Node44 -->
<g id="node36" class="node">
<title>Node44</title>
<g id="a_node36"><a xlink:href="packet__io__stats_8h.html" target="_top" xlink:title="ODP packet IO stats. ">
<polygon fill="#ffffff" stroke="#000000" points="568.5,-425.5 568.5,-444.5 709.5,-444.5 709.5,-425.5 568.5,-425.5"/>
<text text-anchor="middle" x="639" y="-432.5" font-family="Helvetica,sans-Serif" font-size="10.00" fill="#000000">odp/api/packet_io_stats.h</text>
</a>
</g>
</g>
<!-- Node43&#45;&gt;Node44 -->
<g id="edge61" class="edge">
<title>Node43&#45;&gt;Node44</title>
<path fill="none" stroke="#191970" d="M639,-481.2455C639,-473.9382 639,-463.6944 639,-454.7046"/>
<polygon fill="#191970" stroke="#191970" points="642.5001,-454.6426 639,-444.6427 635.5001,-454.6427 642.5001,-454.6426"/>
</g>
<!-- Node36 -->
<g id="node38" class="node">
<title>Node36</title>
<g id="a_node38"><a xlink:href="api_2queue__types_8h.html" target="_top" xlink:title="ODP queue. ">
<polygon fill="#ffffff" stroke="#000000" points="308.5,-425.5 308.5,-444.5 435.5,-444.5 435.5,-425.5 308.5,-425.5"/>
<text text-anchor="middle" x="372" y="-432.5" font-family="Helvetica,sans-Serif" font-size="10.00" fill="#000000">odp/api/queue_types.h</text>
</a>
</g>
</g>
<!-- Node43&#45;&gt;Node36 -->
<g id="edge66" class="edge">
<title>Node43&#45;&gt;Node36</title>
<path fill="none" stroke="#191970" d="M593.4044,-481.4369C547.4215,-471.7925 476.3912,-456.8948 427.2394,-446.5858"/>
<polygon fill="#191970" stroke="#191970" points="427.913,-443.151 417.4075,-444.5237 426.4761,-450.0019 427.913,-443.151"/>
</g>
<!-- Node51 -->
<g id="node40" class="node">
<title>Node51</title>
<g id="a_node40"><a xlink:href="reassembly_8h.html" target="_top" xlink:title="ODP REASSEMBLY API &#45; platform specific header. ">
<polygon fill="#ffffff" stroke="#000000" points="492,-235.5 492,-254.5 612,-254.5 612,-235.5 492,-235.5"/>
<text text-anchor="middle" x="552" y="-242.5" font-family="Helvetica,sans-Serif" font-size="10.00" fill="#000000">odp/api/reassembly.h</text>
</a>
</g>
</g>
<!-- Node43&#45;&gt;Node51 -->
<g id="edge72" class="edge">
<title>Node43&#45;&gt;Node51</title>
<path fill="none" stroke="#191970" d="M581.2793,-481.4102C560.2613,-474.8232 538.5898,-463.718 526,-445 487.7906,-388.1917 523.1155,-301.4898 541.9367,-263.698"/>
<polygon fill="#191970" stroke="#191970" points="545.0551,-265.2872 546.5227,-254.7945 538.8321,-262.0818 545.0551,-265.2872"/>
</g>
<!-- Node45 -->
<g id="node37" class="node">
<title>Node45</title>
<g id="a_node37"><a xlink:href="spec_2packet__io__stats_8h.html" target="_top" xlink:title="ODP Packet IO statistics. ">
<polygon fill="#ffffff" stroke="#ff0000" points="773,-168.5 773,-198.5 887,-198.5 887,-168.5 773,-168.5"/>
<text text-anchor="start" x="781" y="-186.5" font-family="Helvetica,sans-Serif" font-size="10.00" fill="#000000">odp/api/spec/packet</text>
<text text-anchor="middle" x="830" y="-175.5" font-family="Helvetica,sans-Serif" font-size="10.00" fill="#000000">_io_stats.h</text>
</a>
</g>
</g>
<!-- Node44&#45;&gt;Node45 -->
<g id="edge62" class="edge">
<title>Node44&#45;&gt;Node45</title>
<path fill="none" stroke="#191970" d="M646.2542,-425.448C673.6871,-389.3256 771.5842,-260.4193 812.1717,-206.9754"/>
<polygon fill="#191970" stroke="#191970" points="815.1347,-208.861 818.3954,-198.7804 809.56,-204.6273 815.1347,-208.861"/>
</g>
<!-- Node45&#45;&gt;Node3 -->
<g id="edge63" class="edge">
<title>Node45&#45;&gt;Node3</title>
<path fill="none" stroke="#191970" d="M817.8871,-168.3855C804.0817,-152.1419 780.0356,-126.6839 754,-112 702.1534,-82.7589 660.9912,-123.4104 625,-76 613.5431,-60.9081 626.2154,-41.0629 638.8378,-27.0886"/>
<polygon fill="#191970" stroke="#191970" points="641.632,-29.2349 646.0812,-19.6195 636.6068,-24.3616 641.632,-29.2349"/>
</g>
<!-- Node45&#45;&gt;Node12 -->
<g id="edge65" class="edge">
<title>Node45&#45;&gt;Node12</title>
<path fill="none" stroke="#191970" d="M887.1858,-181.0505C1031.3296,-174.5538 1401.6504,-155.7448 1452,-132 1494.6407,-111.8907 1486.4209,-81.6147 1526,-56 1549.3686,-40.8764 1578.3844,-29.8472 1602.6791,-22.386"/>
<polygon fill="#191970" stroke="#191970" points="1603.8281,-25.6961 1612.425,-19.5039 1601.8429,-18.9835 1603.8281,-25.6961"/>
</g>
<!-- Node45&#45;&gt;Node19 -->
<g id="edge64" class="edge">
<title>Node45&#45;&gt;Node19</title>
<path fill="none" stroke="#191970" d="M794.7736,-168.4554C771.1684,-158.374 740.3546,-145.2139 717.5524,-135.4755"/>
<polygon fill="#191970" stroke="#191970" points="718.886,-132.2393 708.3149,-131.5303 716.1366,-138.6767 718.886,-132.2393"/>
</g>
<!-- Node36&#45;&gt;Node17 -->
<g id="edge67" class="edge">
<title>Node36&#45;&gt;Node17</title>
<path fill="none" stroke="#191970" d="M364.6563,-425.3906C357.7298,-416.3273 347.174,-402.5149 338.694,-391.4188"/>
<polygon fill="#191970" stroke="#191970" points="341.3003,-389.065 332.4473,-383.2449 335.7385,-393.3155 341.3003,-389.065"/>
</g>
<!-- Node37 -->
<g id="node39" class="node">
<title>Node37</title>
<g id="a_node39"><a xlink:href="api_2spec_2queue__types_8h.html" target="_top" xlink:title="ODP queue types. ">
<polygon fill="#ffffff" stroke="#ff0000" points="567.5,-168.5 567.5,-198.5 678.5,-198.5 678.5,-168.5 567.5,-168.5"/>
<text text-anchor="start" x="575.5" y="-186.5" font-family="Helvetica,sans-Serif" font-size="10.00" fill="#000000">odp/api/spec/queue</text>
<text text-anchor="middle" x="623" y="-175.5" font-family="Helvetica,sans-Serif" font-size="10.00" fill="#000000">_types.h</text>
</a>
</g>
</g>
<!-- Node36&#45;&gt;Node37 -->
<g id="edge68" class="edge">
<title>Node36&#45;&gt;Node37</title>
<path fill="none" stroke="#191970" d="M379.8036,-425.4721C387.0475,-416.3993 397.9015,-402.2067 406,-389 446.0028,-323.7652 425.9677,-286.0208 483,-235 503.8803,-216.3205 532.1136,-204.2317 557.7567,-196.499"/>
<polygon fill="#191970" stroke="#191970" points="558.7771,-199.8476 567.4372,-193.7439 556.861,-193.115 558.7771,-199.8476"/>
</g>
<!-- Node37&#45;&gt;Node3 -->
<g id="edge69" class="edge">
<title>Node37&#45;&gt;Node3</title>
<path fill="none" stroke="#191970" d="M612.7002,-168.1556C597.447,-143.3467 572.6339,-93.4304 592,-56 599.0546,-42.365 612.2195,-31.9036 624.8663,-24.4282"/>
<polygon fill="#191970" stroke="#191970" points="626.7837,-27.3692 633.8888,-19.5099 623.4334,-21.2231 626.7837,-27.3692"/>
</g>
<!-- Node37&#45;&gt;Node12 -->
<g id="edge71" class="edge">
<title>Node37&#45;&gt;Node12</title>
<path fill="none" stroke="#191970" d="M678.5172,-176.7005C704.456,-173.7025 735.776,-170.3373 764,-168 907.0667,-156.1525 1275.3201,-184.327 1409,-132 1458.3874,-112.668 1454.2814,-81.104 1501,-56 1529.9363,-40.4512 1564.8802,-29.3782 1593.8617,-21.9985"/>
<polygon fill="#191970" stroke="#191970" points="1594.9711,-25.33 1603.8446,-19.541 1593.2978,-18.5329 1594.9711,-25.33"/>
</g>
<!-- Node37&#45;&gt;Node19 -->
<g id="edge70" class="edge">
<title>Node37&#45;&gt;Node19</title>
<path fill="none" stroke="#191970" d="M638.573,-168.2977C647.6825,-159.4052 659.2034,-148.1586 668.6091,-138.9769"/>
<polygon fill="#191970" stroke="#191970" points="671.202,-141.3368 675.9129,-131.8469 666.3122,-136.3278 671.202,-141.3368"/>
</g>
<!-- Node52 -->
<g id="node41" class="node">
<title>Node52</title>
<g id="a_node41"><a xlink:href="spec_2reassembly_8h.html" target="_top" xlink:title="ODP REASSEMBLY API. ">
<polygon fill="#ffffff" stroke="#000000" points="634,-56.5 634,-75.5 780,-75.5 780,-56.5 634,-56.5"/>
<text text-anchor="middle" x="707" y="-63.5" font-family="Helvetica,sans-Serif" font-size="10.00" fill="#000000">odp/api/spec/reassembly.h</text>
</a>
</g>
</g>
<!-- Node51&#45;&gt;Node52 -->
<g id="edge73" class="edge">
<title>Node51&#45;&gt;Node52</title>
<path fill="none" stroke="#191970" d="M550.6386,-235.4391C548.9313,-220.3069 547.3883,-190.273 558,-168 579.5369,-122.7961 632.203,-94.2929 668.7692,-79.2476"/>
<polygon fill="#191970" stroke="#191970" points="670.1422,-82.4684 678.1527,-75.5342 667.5664,-75.9595 670.1422,-82.4684"/>
</g>
<!-- Node52&#45;&gt;Node3 -->
<g id="edge74" class="edge">
<title>Node52&#45;&gt;Node3</title>
<path fill="none" stroke="#191970" d="M698.2907,-56.2455C691.1927,-48.2958 680.9916,-36.8706 672.505,-27.3656"/>
<polygon fill="#191970" stroke="#191970" points="674.8805,-24.771 665.6095,-19.6427 669.6589,-29.4331 674.8805,-24.771"/>
</g>
<!-- Node52&#45;&gt;Node12 -->
<g id="edge75" class="edge">
<title>Node52&#45;&gt;Node12</title>
<path fill="none" stroke="#191970" d="M780.2916,-56.8112C783.2312,-56.5221 786.1426,-56.2501 789,-56 1085.6729,-30.0339 1441.0933,-16.6799 1585.8186,-11.9903"/>
<polygon fill="#191970" stroke="#191970" points="1585.9886,-15.4867 1595.8711,-11.6676 1585.7639,-8.4903 1585.9886,-15.4867"/>
</g>
<!-- Node54 -->
<g id="node43" class="node">
<title>Node54</title>
<g id="a_node43"><a xlink:href="spec_2protocols_8h.html" target="_top" xlink:title="ODP protocols. ">
<polygon fill="#ffffff" stroke="#000000" points="1840.5,-56.5 1840.5,-75.5 1975.5,-75.5 1975.5,-56.5 1840.5,-56.5"/>
<text text-anchor="middle" x="1908" y="-63.5" font-family="Helvetica,sans-Serif" font-size="10.00" fill="#000000">odp/api/spec/protocols.h</text>
</a>
</g>
</g>
<!-- Node53&#45;&gt;Node54 -->
<g id="edge80" class="edge">
<title>Node53&#45;&gt;Node54</title>
<path fill="none" stroke="#191970" d="M1997.9151,-660.4414C1999.8126,-639.769 2004,-589.3497 2004,-547 2004,-547 2004,-547 2004,-183.5 2004,-138.5753 1961.3952,-101.3602 1932.9508,-81.5203"/>
<polygon fill="#191970" stroke="#191970" points="1934.5383,-78.3705 1924.2851,-75.7016 1930.636,-84.1819 1934.5383,-78.3705"/>
</g>
<!-- Node54&#45;&gt;Node3 -->
<g id="edge81" class="edge">
<title>Node54&#45;&gt;Node3</title>
<path fill="none" stroke="#191970" d="M1840.2972,-62.9693C1623.7246,-53.2746 949.1472,-23.0777 727.9989,-13.1782"/>
<polygon fill="#191970" stroke="#191970" points="727.961,-9.6731 717.8145,-12.7223 727.6479,-16.6661 727.961,-9.6731"/>
</g>
<!-- Node54&#45;&gt;Node12 -->
<g id="edge82" class="edge">
<title>Node54&#45;&gt;Node12</title>
<path fill="none" stroke="#191970" d="M1864.2829,-56.4369C1820.3784,-46.8328 1752.6587,-32.0191 1705.555,-21.7152"/>
<polygon fill="#191970" stroke="#191970" points="1706.0537,-18.2416 1695.5368,-19.5237 1704.5578,-25.0799 1706.0537,-18.2416"/>
</g>
<!-- Node55&#45;&gt;Node5 -->
<g id="edge84" class="edge">
<title>Node55&#45;&gt;Node5</title>
<path fill="none" stroke="#191970" d="M899.2553,-665.2956C1094.8569,-649.4578 1676.0166,-590.6734 1780,-445 1835.7113,-366.9524 1688.6254,-289.5569 1620.0235,-258.8329"/>
<polygon fill="#191970" stroke="#191970" points="1621.0676,-255.4685 1610.5049,-254.644 1618.248,-261.8755 1621.0676,-255.4685"/>
</g>
<!-- Node55&#45;&gt;Node13 -->
<g id="edge87" class="edge">
<title>Node55&#45;&gt;Node13</title>
<path fill="none" stroke="#191970" d="M899.0229,-664.6759C1008.426,-654.0382 1237.0651,-625.0554 1418,-557 1516.8133,-519.8332 1612.7788,-435.53 1654.8215,-395.453"/>
<polygon fill="#191970" stroke="#191970" points="1657.2594,-397.9644 1662.0328,-388.5058 1652.4028,-392.9232 1657.2594,-397.9644"/>
</g>
<!-- Node55&#45;&gt;Node16 -->
<g id="edge85" class="edge">
<title>Node55&#45;&gt;Node16</title>
<path fill="none" stroke="#191970" d="M843.0947,-660.3393C850.2374,-651.4015 860.4965,-637.4966 867,-624 882.5043,-591.8244 890,-582.7163 890,-547 890,-547 890,-547 890,-491 890,-456.0955 880.9089,-416.2555 874.6898,-393.0853"/>
<polygon fill="#191970" stroke="#191970" points="877.9757,-391.8381 871.92,-383.1445 871.2326,-393.717 877.9757,-391.8381"/>
</g>
<!-- Node55&#45;&gt;Node17 -->
<g id="edge89" class="edge">
<title>Node55&#45;&gt;Node17</title>
<path fill="none" stroke="#191970" d="M770.9886,-663.7268C618.9458,-647.3485 243.4029,-597.7124 171,-501 133.0478,-450.3053 227.4089,-407.1101 284.7662,-386.4733"/>
<polygon fill="#191970" stroke="#191970" points="286.04,-389.7356 294.3164,-383.1211 283.7216,-383.1307 286.04,-389.7356"/>
</g>
<!-- Node55&#45;&gt;Node25 -->
<g id="edge88" class="edge">
<title>Node55&#45;&gt;Node25</title>
<path fill="none" stroke="#191970" d="M770.7041,-666.4451C659.2834,-659.8419 434.9543,-644.473 359,-624 258.2424,-596.8414 198.0564,-597.7692 159,-501 144.4574,-464.9681 154.4703,-418.6178 162.2624,-392.8939"/>
<polygon fill="#191970" stroke="#191970" points="165.6432,-393.8143 165.3879,-383.2225 158.9824,-391.6617 165.6432,-393.8143"/>
</g>
<!-- Node55&#45;&gt;Node42 -->
<g id="edge86" class="edge">
<title>Node55&#45;&gt;Node42</title>
<path fill="none" stroke="#191970" d="M803.7092,-660.3762C705.5996,-630.2016 404.0079,-537.444 293.8379,-503.5601"/>
<polygon fill="#191970" stroke="#191970" points="294.6786,-500.1569 284.0915,-500.5625 292.6207,-506.8476 294.6786,-500.1569"/>
</g>
<!-- Node56 -->
<g id="node45" class="node">
<title>Node56</title>
<g id="a_node45"><a xlink:href="api_2spec_2classification_8h.html" target="_top" xlink:title="ODP classification descriptor. ">
<polygon fill="#ffffff" stroke="#000000" points="704,-599 704,-618 858,-618 858,-599 704,-599"/>
<text text-anchor="middle" x="781" y="-606" font-family="Helvetica,sans-Serif" font-size="10.00" fill="#000000">odp/api/spec/classification.h</text>
</a>
</g>
</g>
<!-- Node55&#45;&gt;Node56 -->
<g id="edge90" class="edge">
<title>Node55&#45;&gt;Node56</title>
<path fill="none" stroke="#191970" d="M826.5625,-660.3906C818.4469,-651.1478 805.9945,-636.966 796.1576,-625.7628"/>
<polygon fill="#191970" stroke="#191970" points="798.7846,-623.45 789.5565,-618.2449 793.5245,-628.0686 798.7846,-623.45"/>
</g>
<!-- Node56&#45;&gt;Node3 -->
<g id="edge91" class="edge">
<title>Node56&#45;&gt;Node3</title>
<path fill="none" stroke="#191970" d="M703.9369,-606.7401C513.8683,-600.3187 38,-570.6921 38,-435 38,-435 38,-435 38,-122 38,-90.7875 37.1445,-74.8792 62,-56 102.8901,-24.9415 437.2545,-14.4006 586.0494,-11.2251"/>
<polygon fill="#191970" stroke="#191970" points="586.5103,-14.7164 596.4353,-11.009 586.3646,-7.7179 586.5103,-14.7164"/>
</g>
<!-- Node56&#45;&gt;Node12 -->
<g id="edge99" class="edge">
<title>Node56&#45;&gt;Node12</title>
<path fill="none" stroke="#191970" d="M858.0579,-605.2644C1011.4884,-598.3988 1350.1937,-581.0117 1464,-557 1609.7952,-526.239 1664.8811,-539.605 1780,-445 1855.4121,-383.0261 2048.1098,-129.6049 1984,-56 1966.8245,-36.2807 1810.0694,-21.5735 1718.227,-14.5625"/>
<polygon fill="#191970" stroke="#191970" points="1718.4171,-11.067 1708.1826,-13.8066 1717.8918,-18.0473 1718.4171,-11.067"/>
</g>
<!-- Node56&#45;&gt;Node21 -->
<g id="edge93" class="edge">
<title>Node56&#45;&gt;Node21</title>
<path fill="none" stroke="#191970" d="M858.2269,-605.0824C1003.7983,-598.1733 1313.5428,-581.1234 1418,-557 1484.5047,-541.6413 1497.6708,-526.4594 1561,-501 1605.4681,-483.1231 1656.6348,-461.9021 1688.891,-448.4437"/>
<polygon fill="#191970" stroke="#191970" points="1690.3872,-451.6118 1698.2661,-444.5284 1687.6896,-445.1525 1690.3872,-451.6118"/>
</g>
<!-- Node56&#45;&gt;Node41 -->
<g id="edge92" class="edge">
<title>Node56&#45;&gt;Node41</title>
<path fill="none" stroke="#191970" d="M759.4375,-598.8906C736.4488,-588.6457 699.844,-572.3326 673.8176,-560.7339"/>
<polygon fill="#191970" stroke="#191970" points="674.9698,-557.4156 664.4111,-556.5419 672.1204,-563.8095 674.9698,-557.4156"/>
</g>
<!-- Node57 -->
<g id="node46" class="node">
<title>Node57</title>
<g id="a_node46"><a xlink:href="threshold_8h.html" target="_top" xlink:title="ODP threshold API &#45; platform specific header. ">
<polygon fill="#ffffff" stroke="#000000" points="724,-537.5 724,-556.5 834,-556.5 834,-537.5 724,-537.5"/>
<text text-anchor="middle" x="779" y="-544.5" font-family="Helvetica,sans-Serif" font-size="10.00" fill="#000000">odp/api/threshold.h</text>
</a>
</g>
</g>
<!-- Node56&#45;&gt;Node57 -->
<g id="edge94" class="edge">
<title>Node56&#45;&gt;Node57</title>
<path fill="none" stroke="#191970" d="M780.6875,-598.8906C780.4103,-590.3657 779.9964,-577.6392 779.6479,-566.9235"/>
<polygon fill="#191970" stroke="#191970" points="783.1402,-566.6258 779.3169,-556.7449 776.1439,-566.8534 783.1402,-566.6258"/>
</g>
<!-- Node58 -->
<g id="node47" class="node">
<title>Node58</title>
<g id="a_node47"><a xlink:href="spec_2threshold_8h.html" target="_top" xlink:title="ODP threshold descriptor. ">
<polygon fill="#ffffff" stroke="#000000" points="953,-297 953,-316 1089,-316 1089,-297 953,-297"/>
<text text-anchor="middle" x="1021" y="-304" font-family="Helvetica,sans-Serif" font-size="10.00" fill="#000000">odp/api/spec/threshold.h</text>
</a>
</g>
</g>
<!-- Node57&#45;&gt;Node58 -->
<g id="edge95" class="edge">
<title>Node57&#45;&gt;Node58</title>
<path fill="none" stroke="#191970" d="M777.1314,-537.2021C771.8562,-506.3348 760.1704,-410.0772 808,-358 813.4469,-352.0694 904.8711,-331.454 966.1554,-318.1739"/>
<polygon fill="#191970" stroke="#191970" points="967.0546,-321.5605 976.0902,-316.028 965.5767,-314.7183 967.0546,-321.5605"/>
</g>
<!-- Node58&#45;&gt;Node3 -->
<g id="edge96" class="edge">
<title>Node58&#45;&gt;Node3</title>
<path fill="none" stroke="#191970" d="M1021.684,-296.951C1023.7878,-259.5795 1026.0605,-122.0582 952,-56 919.746,-27.2311 804.3322,-16.4234 727.7887,-12.3845"/>
<polygon fill="#191970" stroke="#191970" points="727.8875,-8.8851 717.7249,-11.8804 727.5372,-15.8763 727.8875,-8.8851"/>
</g>
<!-- Node58&#45;&gt;Node5 -->
<g id="edge97" class="edge">
<title>Node58&#45;&gt;Node5</title>
<path fill="none" stroke="#191970" d="M1066.8386,-296.9972C1078.5878,-294.7924 1091.2306,-292.6199 1103,-291 1285.9694,-265.8163 1333.5112,-276.0679 1517,-255 1518.2691,-254.8543 1519.5508,-254.7039 1520.8418,-254.5494"/>
<polygon fill="#191970" stroke="#191970" points="1521.3824,-258.0092 1530.8712,-253.2962 1520.5144,-251.0632 1521.3824,-258.0092"/>
</g>
<!-- Node58&#45;&gt;Node12 -->
<g id="edge98" class="edge">
<title>Node58&#45;&gt;Node12</title>
<path fill="none" stroke="#191970" d="M1071.2907,-296.9195C1081.7669,-294.9447 1092.7414,-292.8912 1103,-291 1159.8422,-280.521 1568.5567,-233.4072 1615,-199 1664.3522,-162.4377 1663.5985,-135.708 1678,-76 1680.0842,-67.3589 1680.2613,-64.5964 1678,-56 1675.3888,-46.0734 1670.0933,-36.0366 1664.9588,-27.8822"/>
<polygon fill="#191970" stroke="#191970" points="1667.864,-25.9303 1659.3819,-19.5817 1662.0537,-29.8342 1667.864,-25.9303"/>
</g>
<!-- Node60 -->
<g id="node49" class="node">
<title>Node60</title>
<polygon fill="#ffffff" stroke="#bfbfbf" points="1784,-593.5 1784,-623.5 1886,-623.5 1886,-593.5 1784,-593.5"/>
<text text-anchor="start" x="1792" y="-611.5" font-family="Helvetica,sans-Serif" font-size="10.00" fill="#000000">odp/api/abi/traffic</text>
<text text-anchor="middle" x="1835" y="-600.5" font-family="Helvetica,sans-Serif" font-size="10.00" fill="#000000">_mngr.h</text>
</g>
<!-- Node59&#45;&gt;Node60 -->
<g id="edge101" class="edge">
<title>Node59&#45;&gt;Node60</title>
<path fill="none" stroke="#191970" d="M1730.375,-660.3906C1747.7784,-651.7591 1773.8666,-638.8202 1795.6379,-628.0224"/>
<polygon fill="#191970" stroke="#191970" points="1797.2626,-631.1234 1804.6662,-623.5446 1794.1524,-624.8523 1797.2626,-631.1234"/>
</g>
<!-- Node61 -->
<g id="node50" class="node">
<title>Node61</title>
<g id="a_node50"><a xlink:href="api_2spec_2traffic__mngr_8h.html" target="_top" xlink:title="odp/api/spec/traffic\l_mngr.h">
<polygon fill="#ffffff" stroke="#000000" points="1656,-593.5 1656,-623.5 1766,-623.5 1766,-593.5 1656,-593.5"/>
<text text-anchor="start" x="1664" y="-611.5" font-family="Helvetica,sans-Serif" font-size="10.00" fill="#000000">odp/api/spec/traffic</text>
<text text-anchor="middle" x="1711" y="-600.5" font-family="Helvetica,sans-Serif" font-size="10.00" fill="#000000">_mngr.h</text>
</a>
</g>
</g>
<!-- Node59&#45;&gt;Node61 -->
<g id="edge102" class="edge">
<title>Node59&#45;&gt;Node61</title>
<path fill="none" stroke="#191970" d="M1711,-660.3906C1711,-653.2234 1711,-643.0862 1711,-633.671"/>
<polygon fill="#191970" stroke="#191970" points="1714.5001,-633.5446 1711,-623.5446 1707.5001,-633.5446 1714.5001,-633.5446"/>
</g>
<!-- Node61&#45;&gt;Node3 -->
<g id="edge103" class="edge">
<title>Node61&#45;&gt;Node3</title>
<path fill="none" stroke="#191970" d="M1655.6637,-607.6727C1395.2761,-603.377 299.2887,-580.658 171,-501 89.2693,-450.2511 76,-402.7048 76,-306.5 76,-306.5 76,-306.5 76,-122 76,-70.5986 431.1504,-31.1099 586.1093,-16.3265"/>
<polygon fill="#191970" stroke="#191970" points="586.8411,-19.773 596.467,-15.3468 586.1818,-12.8041 586.8411,-19.773"/>
</g>
<!-- Node61&#45;&gt;Node5 -->
<g id="edge104" class="edge">
<title>Node61&#45;&gt;Node5</title>
<path fill="none" stroke="#191970" d="M1766.0658,-593.9589C1784.568,-586.1608 1803.2265,-574.4319 1814,-557 1860.5033,-481.7561 1856.6369,-433.7725 1811,-358 1776.3043,-300.3936 1701.9855,-271.1709 1648.4553,-257.0484"/>
<polygon fill="#191970" stroke="#191970" points="1649.2694,-253.6441 1638.7163,-254.5837 1647.5519,-260.4302 1649.2694,-253.6441"/>
</g>
<!-- Node61&#45;&gt;Node12 -->
<g id="edge106" class="edge">
<title>Node61&#45;&gt;Node12</title>
<path fill="none" stroke="#191970" d="M1761.6321,-593.4113C1854.3551,-564.2559 2042,-497.5292 2042,-435 2042,-435 2042,-435 2042,-122 2042,-90.7875 2042.3966,-75.4687 2018,-56 1995.066,-37.6984 1817.4004,-22.0262 1718.2939,-14.5978"/>
<polygon fill="#191970" stroke="#191970" points="1718.3089,-11.0894 1708.0775,-13.8404 1717.7913,-18.0703 1718.3089,-11.0894"/>
</g>
<!-- Node61&#45;&gt;Node41 -->
<g id="edge105" class="edge">
<title>Node61&#45;&gt;Node41</title>
<path fill="none" stroke="#191970" d="M1655.8114,-607.3183C1504.8806,-603.7255 1072.667,-591.0208 715,-557 713.0684,-556.8163 711.1091,-556.6185 709.1324,-556.4091"/>
<polygon fill="#191970" stroke="#191970" points="709.4827,-552.9265 699.1517,-555.2759 708.693,-559.8818 709.4827,-552.9265"/>
</g>
</g>
</svg>
