<?xml version="1.0" encoding="UTF-8" standalone="no"?>
<!DOCTYPE svg PUBLIC "-//W3C//DTD SVG 1.1//EN"
 "http://www.w3.org/Graphics/SVG/1.1/DTD/svg11.dtd">
<!-- Generated by graphviz version 2.40.1 (20161225.0304)
 -->
<!-- Title: proto_stats_types.h Pages: 1 -->
<svg width="427pt" height="375pt"
 viewBox="0.00 0.00 427.00 375.00" xmlns="http://www.w3.org/2000/svg" xmlns:xlink="http://www.w3.org/1999/xlink">
<g id="graph0" class="graph" transform="scale(1 1) rotate(0) translate(4 371)">
<title>proto_stats_types.h</title>
<polygon fill="#ffffff" stroke="transparent" points="-4,4 -4,-371 423,-371 423,4 -4,4"/>
<!-- Node0 -->
<g id="node1" class="node">
<title>Node0</title>
<polygon fill="#bfbfbf" stroke="#000000" points="75.5,-347.5 75.5,-366.5 188.5,-366.5 188.5,-347.5 75.5,-347.5"/>
<text text-anchor="middle" x="132" y="-354.5" font-family="Helvetica,sans-Serif" font-size="10.00" fill="#000000">proto_stats_types.h</text>
</g>
<!-- Node1 -->
<g id="node2" class="node">
<title>Node1</title>
<polygon fill="#ffffff" stroke="#bfbfbf" points="0,-280.5 0,-310.5 128,-310.5 128,-280.5 0,-280.5"/>
<text text-anchor="start" x="8" y="-298.5" font-family="Helvetica,sans-Serif" font-size="10.00" fill="#000000">odp/api/abi/proto_stats</text>
<text text-anchor="middle" x="64" y="-287.5" font-family="Helvetica,sans-Serif" font-size="10.00" fill="#000000">_types.h</text>
</g>
<!-- Node0&#45;&gt;Node1 -->
<g id="edge1" class="edge">
<title>Node0&#45;&gt;Node1</title>
<path fill="none" stroke="#191970" d="M121.375,-347.3906C112.5129,-339.3756 99.5442,-327.6466 88.1777,-317.3666"/>
<polygon fill="#191970" stroke="#191970" points="90.3991,-314.6565 80.6347,-310.5446 85.7036,-319.8482 90.3991,-314.6565"/>
</g>
<!-- Node2 -->
<g id="node3" class="node">
<title>Node2</title>
<g id="a_node3"><a xlink:href="api_2spec_2proto__stats__types_8h.html" target="_top" xlink:title="ODP proto stats types. ">
<polygon fill="#ffffff" stroke="#000000" points="146.5,-280.5 146.5,-310.5 253.5,-310.5 253.5,-280.5 146.5,-280.5"/>
<text text-anchor="start" x="154.5" y="-298.5" font-family="Helvetica,sans-Serif" font-size="10.00" fill="#000000">odp/api/spec/proto</text>
<text text-anchor="middle" x="200" y="-287.5" font-family="Helvetica,sans-Serif" font-size="10.00" fill="#000000">_stats_types.h</text>
</a>
</g>
</g>
<!-- Node0&#45;&gt;Node2 -->
<g id="edge2" class="edge">
<title>Node0&#45;&gt;Node2</title>
<path fill="none" stroke="#191970" d="M142.625,-347.3906C151.4871,-339.3756 164.4558,-327.6466 175.8223,-317.3666"/>
<polygon fill="#191970" stroke="#191970" points="178.2964,-319.8482 183.3653,-310.5446 173.6009,-314.6565 178.2964,-319.8482"/>
</g>
<!-- Node3 -->
<g id="node4" class="node">
<title>Node3</title>
<g id="a_node4"><a xlink:href="visibility__begin_8h_source.html" target="_top" xlink:title="odp/visibility_begin.h">
<polygon fill="#ffffff" stroke="#000000" points="6.5,-.5 6.5,-19.5 127.5,-19.5 127.5,-.5 6.5,-.5"/>
<text text-anchor="middle" x="67" y="-7.5" font-family="Helvetica,sans-Serif" font-size="10.00" fill="#000000">odp/visibility_begin.h</text>
</a>
</g>
</g>
<!-- Node2&#45;&gt;Node3 -->
<g id="edge3" class="edge">
<title>Node2&#45;&gt;Node3</title>
<path fill="none" stroke="#191970" d="M146.3637,-282.7811C96.215,-267.3196 29,-235.813 29,-178 29,-178 29,-178 29,-122 29,-87.6118 45.2634,-50.2832 56.511,-28.5791"/>
<polygon fill="#191970" stroke="#191970" points="59.7317,-29.9804 61.393,-19.5166 53.569,-26.6605 59.7317,-29.9804"/>
</g>
<!-- Node4 -->
<g id="node5" class="node">
<title>Node4</title>
<g id="a_node5"><a xlink:href="api_2std__types_8h.html" target="_top" xlink:title="Standard C language types and definitions for ODP. ">
<polygon fill="#ffffff" stroke="#000000" points="144,-224.5 144,-243.5 256,-243.5 256,-224.5 144,-224.5"/>
<text text-anchor="middle" x="200" y="-231.5" font-family="Helvetica,sans-Serif" font-size="10.00" fill="#000000">odp/api/std_types.h</text>
</a>
</g>
</g>
<!-- Node2&#45;&gt;Node4 -->
<g id="edge4" class="edge">
<title>Node2&#45;&gt;Node4</title>
<path fill="none" stroke="#191970" d="M200,-280.2977C200,-272.3834 200,-262.6043 200,-254.0759"/>
<polygon fill="#191970" stroke="#191970" points="203.5001,-253.8469 200,-243.8469 196.5001,-253.847 203.5001,-253.8469"/>
</g>
<!-- Node11 -->
<g id="node12" class="node">
<title>Node11</title>
<g id="a_node12"><a xlink:href="visibility__end_8h_source.html" target="_top" xlink:title="odp/visibility_end.h">
<polygon fill="#ffffff" stroke="#000000" points="307,-.5 307,-19.5 419,-19.5 419,-.5 307,-.5"/>
<text text-anchor="middle" x="363" y="-7.5" font-family="Helvetica,sans-Serif" font-size="10.00" fill="#000000">odp/visibility_end.h</text>
</a>
</g>
</g>
<!-- Node2&#45;&gt;Node11 -->
<g id="edge15" class="edge">
<title>Node2&#45;&gt;Node11</title>
<path fill="none" stroke="#191970" d="M253.6003,-287.7341C313.1436,-275.7243 401,-246.4124 401,-178 401,-178 401,-178 401,-122 401,-87.6118 384.7366,-50.2832 373.489,-28.5791"/>
<polygon fill="#191970" stroke="#191970" points="376.431,-26.6605 368.607,-19.5166 370.2683,-29.9804 376.431,-26.6605"/>
</g>
<!-- Node5 -->
<g id="node6" class="node">
<title>Node5</title>
<polygon fill="#ffffff" stroke="#bfbfbf" points="59,-168.5 59,-187.5 189,-187.5 189,-168.5 59,-168.5"/>
<text text-anchor="middle" x="124" y="-175.5" font-family="Helvetica,sans-Serif" font-size="10.00" fill="#000000">odp/api/abi/std_types.h</text>
</g>
<!-- Node4&#45;&gt;Node5 -->
<g id="edge5" class="edge">
<title>Node4&#45;&gt;Node5</title>
<path fill="none" stroke="#191970" d="M186.7618,-224.2455C175.319,-215.814 158.5704,-203.4729 145.2525,-193.6598"/>
<polygon fill="#191970" stroke="#191970" points="147.2133,-190.757 137.0865,-187.6427 143.0609,-196.3924 147.2133,-190.757"/>
</g>
<!-- Node6 -->
<g id="node7" class="node">
<title>Node6</title>
<g id="a_node7"><a xlink:href="api_2spec_2std__types_8h.html" target="_top" xlink:title="Standard C language types and definitions for ODP. ">
<polygon fill="#ffffff" stroke="#000000" points="207.5,-168.5 207.5,-187.5 344.5,-187.5 344.5,-168.5 207.5,-168.5"/>
<text text-anchor="middle" x="276" y="-175.5" font-family="Helvetica,sans-Serif" font-size="10.00" fill="#000000">odp/api/spec/std_types.h</text>
</a>
</g>
</g>
<!-- Node4&#45;&gt;Node6 -->
<g id="edge6" class="edge">
<title>Node4&#45;&gt;Node6</title>
<path fill="none" stroke="#191970" d="M213.2382,-224.2455C224.681,-215.814 241.4296,-203.4729 254.7475,-193.6598"/>
<polygon fill="#191970" stroke="#191970" points="256.9391,-196.3924 262.9135,-187.6427 252.7867,-190.757 256.9391,-196.3924"/>
</g>
<!-- Node6&#45;&gt;Node3 -->
<g id="edge7" class="edge">
<title>Node6&#45;&gt;Node3</title>
<path fill="none" stroke="#191970" d="M234.5696,-168.3978C189.6079,-155.5891 119.7328,-128.1971 86,-76 76.91,-61.9344 72.0751,-43.4361 69.5625,-29.603"/>
<polygon fill="#191970" stroke="#191970" points="73.0141,-29.0208 68.0084,-19.683 66.0984,-30.1043 73.0141,-29.0208"/>
</g>
<!-- Node7 -->
<g id="node8" class="node">
<title>Node7</title>
<polygon fill="#ffffff" stroke="#bfbfbf" points="161.5,-112.5 161.5,-131.5 214.5,-131.5 214.5,-112.5 161.5,-112.5"/>
<text text-anchor="middle" x="188" y="-119.5" font-family="Helvetica,sans-Serif" font-size="10.00" fill="#000000">stdint.h</text>
</g>
<!-- Node6&#45;&gt;Node7 -->
<g id="edge8" class="edge">
<title>Node6&#45;&gt;Node7</title>
<path fill="none" stroke="#191970" d="M260.6716,-168.2455C247.1697,-159.6534 227.2878,-147.0014 211.7314,-137.1018"/>
<polygon fill="#191970" stroke="#191970" points="213.4685,-134.0587 203.1528,-131.6427 209.7103,-139.9643 213.4685,-134.0587"/>
</g>
<!-- Node8 -->
<g id="node9" class="node">
<title>Node8</title>
<g id="a_node9"><a xlink:href="api_2align_8h.html" target="_top" xlink:title="ODP alignments. ">
<polygon fill="#ffffff" stroke="#000000" points="232.5,-112.5 232.5,-131.5 321.5,-131.5 321.5,-112.5 232.5,-112.5"/>
<text text-anchor="middle" x="277" y="-119.5" font-family="Helvetica,sans-Serif" font-size="10.00" fill="#000000">odp/api/align.h</text>
</a>
</g>
</g>
<!-- Node6&#45;&gt;Node8 -->
<g id="edge9" class="edge">
<title>Node6&#45;&gt;Node8</title>
<path fill="none" stroke="#191970" d="M276.1742,-168.2455C276.3047,-160.9382 276.4876,-150.6944 276.6481,-141.7046"/>
<polygon fill="#191970" stroke="#191970" points="280.1486,-141.7036 276.8278,-131.6427 273.1497,-141.5786 280.1486,-141.7036"/>
</g>
<!-- Node6&#45;&gt;Node11 -->
<g id="edge14" class="edge">
<title>Node6&#45;&gt;Node11</title>
<path fill="none" stroke="#191970" d="M292.0901,-168.4868C304.5167,-160.3249 321.1965,-147.451 331,-132 351.3465,-99.9325 358.8117,-55.3187 361.5106,-29.8773"/>
<polygon fill="#191970" stroke="#191970" points="365.0204,-29.928 362.4443,-19.6511 358.0494,-29.2914 365.0204,-29.928"/>
</g>
<!-- Node9 -->
<g id="node10" class="node">
<title>Node9</title>
<polygon fill="#ffffff" stroke="#bfbfbf" points="95.5,-56.5 95.5,-75.5 202.5,-75.5 202.5,-56.5 95.5,-56.5"/>
<text text-anchor="middle" x="149" y="-63.5" font-family="Helvetica,sans-Serif" font-size="10.00" fill="#000000">odp/api/abi/align.h</text>
</g>
<!-- Node8&#45;&gt;Node9 -->
<g id="edge10" class="edge">
<title>Node8&#45;&gt;Node9</title>
<path fill="none" stroke="#191970" d="M254.996,-112.3733C234.3565,-103.3435 203.2842,-89.7494 180.1111,-79.6111"/>
<polygon fill="#191970" stroke="#191970" points="181.2813,-76.3028 170.7169,-75.5011 178.4755,-82.7159 181.2813,-76.3028"/>
</g>
<!-- Node10 -->
<g id="node11" class="node">
<title>Node10</title>
<g id="a_node11"><a xlink:href="api_2spec_2align_8h.html" target="_top" xlink:title="ODP alignments. ">
<polygon fill="#ffffff" stroke="#000000" points="221,-56.5 221,-75.5 335,-75.5 335,-56.5 221,-56.5"/>
<text text-anchor="middle" x="278" y="-63.5" font-family="Helvetica,sans-Serif" font-size="10.00" fill="#000000">odp/api/spec/align.h</text>
</a>
</g>
</g>
<!-- Node8&#45;&gt;Node10 -->
<g id="edge11" class="edge">
<title>Node8&#45;&gt;Node10</title>
<path fill="none" stroke="#191970" d="M277.1742,-112.2455C277.3047,-104.9382 277.4876,-94.6944 277.6481,-85.7046"/>
<polygon fill="#191970" stroke="#191970" points="281.1486,-85.7036 277.8278,-75.6427 274.1497,-85.5786 281.1486,-85.7036"/>
</g>
<!-- Node10&#45;&gt;Node3 -->
<g id="edge12" class="edge">
<title>Node10&#45;&gt;Node3</title>
<path fill="none" stroke="#191970" d="M241.7278,-56.3733C206.0342,-46.9001 151.4121,-32.4032 112.7549,-22.1435"/>
<polygon fill="#191970" stroke="#191970" points="113.3621,-18.6835 102.7989,-19.5011 111.5664,-25.4493 113.3621,-18.6835"/>
</g>
<!-- Node10&#45;&gt;Node11 -->
<g id="edge13" class="edge">
<title>Node10&#45;&gt;Node11</title>
<path fill="none" stroke="#191970" d="M292.8059,-56.2455C305.7256,-47.7337 324.6931,-35.2375 339.6552,-25.3801"/>
<polygon fill="#191970" stroke="#191970" points="341.9387,-28.067 348.3638,-19.6427 338.0876,-22.2216 341.9387,-28.067"/>
</g>
</g>
</svg>
