<?xml version="1.0" encoding="UTF-8" standalone="no"?>
<!DOCTYPE svg PUBLIC "-//W3C//DTD SVG 1.1//EN"
 "http://www.w3.org/Graphics/SVG/1.1/DTD/svg11.dtd">
<!-- Generated by graphviz version 2.40.1 (20161225.0304)
 -->
<!-- Title: comp.h Pages: 1 -->
<svg width="1239pt" height="688pt"
 viewBox="0.00 0.00 1239.00 688.00" xmlns="http://www.w3.org/2000/svg" xmlns:xlink="http://www.w3.org/1999/xlink">
<g id="graph0" class="graph" transform="scale(1 1) rotate(0) translate(4 684)">
<title>comp.h</title>
<polygon fill="#ffffff" stroke="transparent" points="-4,4 -4,-684 1235,-684 1235,4 -4,4"/>
<!-- Node0 -->
<g id="node1" class="node">
<title>Node0</title>
<polygon fill="#bfbfbf" stroke="#000000" points="934.5,-660.5 934.5,-679.5 987.5,-679.5 987.5,-660.5 934.5,-660.5"/>
<text text-anchor="middle" x="961" y="-667.5" font-family="Helvetica,sans-Serif" font-size="10.00" fill="#000000">comp.h</text>
</g>
<!-- Node1 -->
<g id="node2" class="node">
<title>Node1</title>
<g id="a_node2"><a xlink:href="visibility__begin_8h_source.html" target="_top" xlink:title="odp/visibility_begin.h">
<polygon fill="#ffffff" stroke="#000000" points="302.5,-.5 302.5,-19.5 423.5,-19.5 423.5,-.5 302.5,-.5"/>
<text text-anchor="middle" x="363" y="-7.5" font-family="Helvetica,sans-Serif" font-size="10.00" fill="#000000">odp/visibility_begin.h</text>
</a>
</g>
</g>
<!-- Node0&#45;&gt;Node1 -->
<g id="edge1" class="edge">
<title>Node0&#45;&gt;Node1</title>
<path fill="none" stroke="#191970" d="M934.2944,-669.7687C779.0858,-668.0816 0,-654.7924 0,-558 0,-558 0,-558 0,-122 0,-83.5305 22.3877,-74.7113 56,-56 95.3761,-34.0801 214.3267,-21.1682 292.077,-14.8496"/>
<polygon fill="#191970" stroke="#191970" points="292.5981,-18.3193 302.2894,-14.0382 292.0436,-11.3413 292.5981,-18.3193"/>
</g>
<!-- Node2 -->
<g id="node3" class="node">
<title>Node2</title>
<g id="a_node3"><a xlink:href="support_8h.html" target="_top" xlink:title="ODP support API &#45; platform specific header. ">
<polygon fill="#ffffff" stroke="#000000" points="911.5,-112.5 911.5,-131.5 1012.5,-131.5 1012.5,-112.5 911.5,-112.5"/>
<text text-anchor="middle" x="962" y="-119.5" font-family="Helvetica,sans-Serif" font-size="10.00" fill="#000000">odp/api/support.h</text>
</a>
</g>
</g>
<!-- Node0&#45;&gt;Node2 -->
<g id="edge2" class="edge">
<title>Node0&#45;&gt;Node2</title>
<path fill="none" stroke="#191970" d="M987.6133,-663.182C1048.5522,-646.7907 1193,-603.1729 1193,-558 1193,-558 1193,-558 1193,-306.5 1193,-211.5456 1072.3606,-157.4773 1005.4462,-134.7908"/>
<polygon fill="#191970" stroke="#191970" points="1006.1824,-131.3483 995.5894,-131.5438 1003.9922,-137.9969 1006.1824,-131.3483"/>
</g>
<!-- Node4 -->
<g id="node5" class="node">
<title>Node4</title>
<g id="a_node5"><a xlink:href="visibility__end_8h_source.html" target="_top" xlink:title="odp/visibility_end.h">
<polygon fill="#ffffff" stroke="#000000" points="947,-.5 947,-19.5 1059,-19.5 1059,-.5 947,-.5"/>
<text text-anchor="middle" x="1003" y="-7.5" font-family="Helvetica,sans-Serif" font-size="10.00" fill="#000000">odp/visibility_end.h</text>
</a>
</g>
</g>
<!-- Node0&#45;&gt;Node4 -->
<g id="edge60" class="edge">
<title>Node0&#45;&gt;Node4</title>
<path fill="none" stroke="#191970" d="M987.7367,-666.6185C1024.2477,-661.262 1091.0925,-648.7888 1143,-624 1187.1164,-602.9319 1231,-606.8889 1231,-558 1231,-558 1231,-558 1231,-122 1231,-81.73 1114.9686,-41.9177 1048.4546,-22.4038"/>
<polygon fill="#191970" stroke="#191970" points="1049.2037,-18.9771 1038.625,-19.5618 1047.2593,-25.7017 1049.2037,-18.9771"/>
</g>
<!-- Node5 -->
<g id="node6" class="node">
<title>Node5</title>
<g id="a_node6"><a xlink:href="api_2packet_8h.html" target="_top" xlink:title="ODP packet descriptor. ">
<polygon fill="#ffffff" stroke="#000000" points="680,-604.5 680,-623.5 778,-623.5 778,-604.5 680,-604.5"/>
<text text-anchor="middle" x="729" y="-611.5" font-family="Helvetica,sans-Serif" font-size="10.00" fill="#000000">odp/api/packet.h</text>
</a>
</g>
</g>
<!-- Node0&#45;&gt;Node5 -->
<g id="edge6" class="edge">
<title>Node0&#45;&gt;Node5</title>
<path fill="none" stroke="#191970" d="M934.3867,-663.5761C896.3845,-654.4031 825.9064,-637.3912 778.2358,-625.8845"/>
<polygon fill="#191970" stroke="#191970" points="778.9716,-622.4617 768.4295,-623.5175 777.3291,-629.2662 778.9716,-622.4617"/>
</g>
<!-- Node3 -->
<g id="node4" class="node">
<title>Node3</title>
<g id="a_node4"><a xlink:href="spec_2support_8h.html" target="_top" xlink:title="ODP support API. ">
<polygon fill="#ffffff" stroke="#000000" points="809.5,-56.5 809.5,-75.5 936.5,-75.5 936.5,-56.5 809.5,-56.5"/>
<text text-anchor="middle" x="873" y="-63.5" font-family="Helvetica,sans-Serif" font-size="10.00" fill="#000000">odp/api/spec/support.h</text>
</a>
</g>
</g>
<!-- Node2&#45;&gt;Node3 -->
<g id="edge3" class="edge">
<title>Node2&#45;&gt;Node3</title>
<path fill="none" stroke="#191970" d="M946.4974,-112.2455C932.842,-103.6534 912.7343,-91.0014 897.0011,-81.1018"/>
<polygon fill="#191970" stroke="#191970" points="898.6529,-78.006 888.325,-75.6427 894.9249,-83.9307 898.6529,-78.006"/>
</g>
<!-- Node3&#45;&gt;Node1 -->
<g id="edge4" class="edge">
<title>Node3&#45;&gt;Node1</title>
<path fill="none" stroke="#191970" d="M809.4118,-57.0511C806.57,-56.6881 803.756,-56.336 801,-56 671.5947,-40.2227 520.2756,-25.0568 433.6331,-16.6863"/>
<polygon fill="#191970" stroke="#191970" points="433.9408,-13.1998 423.6511,-15.7244 433.2693,-20.1675 433.9408,-13.1998"/>
</g>
<!-- Node3&#45;&gt;Node4 -->
<g id="edge5" class="edge">
<title>Node3&#45;&gt;Node4</title>
<path fill="none" stroke="#191970" d="M895.3478,-56.3733C916.4033,-47.3032 948.1495,-33.6279 971.7175,-23.4755"/>
<polygon fill="#191970" stroke="#191970" points="973.1444,-26.6719 980.9438,-19.5011 970.375,-20.243 973.1444,-26.6719"/>
</g>
<!-- Node6 -->
<g id="node7" class="node">
<title>Node6</title>
<g id="a_node7"><a xlink:href="api_2std__types_8h.html" target="_top" xlink:title="Standard C language types and definitions for ODP. ">
<polygon fill="#ffffff" stroke="#000000" points="85,-235.5 85,-254.5 197,-254.5 197,-235.5 85,-235.5"/>
<text text-anchor="middle" x="141" y="-242.5" font-family="Helvetica,sans-Serif" font-size="10.00" fill="#000000">odp/api/std_types.h</text>
</a>
</g>
</g>
<!-- Node5&#45;&gt;Node6 -->
<g id="edge7" class="edge">
<title>Node5&#45;&gt;Node6</title>
<path fill="none" stroke="#191970" d="M679.9189,-610.766C528.0562,-600.1111 76,-563.25 76,-502 76,-502 76,-502 76,-373.5 76,-335.8735 76.7671,-323.9138 95,-291 101.2852,-279.654 111.1887,-269.2304 120.1992,-261.1849"/>
<polygon fill="#191970" stroke="#191970" points="122.7195,-263.6372 128.0937,-254.5065 118.1985,-258.293 122.7195,-263.6372"/>
</g>
<!-- Node13 -->
<g id="node14" class="node">
<title>Node13</title>
<polygon fill="#ffffff" stroke="#bfbfbf" points="1055,-548.5 1055,-567.5 1165,-567.5 1165,-548.5 1055,-548.5"/>
<text text-anchor="middle" x="1110" y="-555.5" font-family="Helvetica,sans-Serif" font-size="10.00" fill="#000000">odp/api/abi/event.h</text>
</g>
<!-- Node5&#45;&gt;Node13 -->
<g id="edge18" class="edge">
<title>Node5&#45;&gt;Node13</title>
<path fill="none" stroke="#191970" d="M778.1705,-607.0341C838.5002,-598.4496 944.1899,-583.2891 1044.8143,-568.1669"/>
<polygon fill="#191970" stroke="#191970" points="1045.4803,-571.6061 1054.8479,-566.6565 1044.4383,-564.6841 1045.4803,-571.6061"/>
</g>
<!-- Node14 -->
<g id="node15" class="node">
<title>Node14</title>
<polygon fill="#ffffff" stroke="#bfbfbf" points="485,-548.5 485,-567.5 615,-567.5 615,-548.5 485,-548.5"/>
<text text-anchor="middle" x="550" y="-555.5" font-family="Helvetica,sans-Serif" font-size="10.00" fill="#000000">odp/api/abi/packet_io.h</text>
</g>
<!-- Node5&#45;&gt;Node14 -->
<g id="edge19" class="edge">
<title>Node5&#45;&gt;Node14</title>
<path fill="none" stroke="#191970" d="M698.2288,-604.3733C668.335,-595.021 622.7907,-580.7725 590.0783,-570.5385"/>
<polygon fill="#191970" stroke="#191970" points="590.9586,-567.1466 580.3697,-567.5011 588.8685,-573.8273 590.9586,-567.1466"/>
</g>
<!-- Node15 -->
<g id="node16" class="node">
<title>Node15</title>
<polygon fill="#ffffff" stroke="#bfbfbf" points="633.5,-425.5 633.5,-455.5 740.5,-455.5 740.5,-425.5 633.5,-425.5"/>
<text text-anchor="start" x="641.5" y="-443.5" font-family="Helvetica,sans-Serif" font-size="10.00" fill="#000000">odp/api/abi/packet</text>
<text text-anchor="middle" x="687" y="-432.5" font-family="Helvetica,sans-Serif" font-size="10.00" fill="#000000">_types.h</text>
</g>
<!-- Node5&#45;&gt;Node15 -->
<g id="edge20" class="edge">
<title>Node5&#45;&gt;Node15</title>
<path fill="none" stroke="#191970" d="M704.5288,-604.3462C689.2893,-596.9011 670.9388,-584.9799 662,-568 644.5934,-534.9349 660.1825,-491.274 673.3533,-464.5757"/>
<polygon fill="#191970" stroke="#191970" points="676.5333,-466.0465 678.0308,-455.558 670.3194,-462.8234 676.5333,-466.0465"/>
</g>
<!-- Node16 -->
<g id="node17" class="node">
<title>Node16</title>
<polygon fill="#ffffff" stroke="#bfbfbf" points="671,-548.5 671,-567.5 787,-567.5 787,-548.5 671,-548.5"/>
<text text-anchor="middle" x="729" y="-555.5" font-family="Helvetica,sans-Serif" font-size="10.00" fill="#000000">odp/api/abi/packet.h</text>
</g>
<!-- Node5&#45;&gt;Node16 -->
<g id="edge21" class="edge">
<title>Node5&#45;&gt;Node16</title>
<path fill="none" stroke="#191970" d="M729,-604.2455C729,-596.9382 729,-586.6944 729,-577.7046"/>
<polygon fill="#191970" stroke="#191970" points="732.5001,-577.6426 729,-567.6427 725.5001,-577.6427 732.5001,-577.6426"/>
</g>
<!-- Node17 -->
<g id="node18" class="node">
<title>Node17</title>
<polygon fill="#ffffff" stroke="#bfbfbf" points="805,-548.5 805,-567.5 915,-567.5 915,-548.5 805,-548.5"/>
<text text-anchor="middle" x="860" y="-555.5" font-family="Helvetica,sans-Serif" font-size="10.00" fill="#000000">odp/api/abi/buffer.h</text>
</g>
<!-- Node5&#45;&gt;Node17 -->
<g id="edge22" class="edge">
<title>Node5&#45;&gt;Node17</title>
<path fill="none" stroke="#191970" d="M751.5197,-604.3733C772.7372,-595.3032 804.7276,-581.6279 828.4769,-571.4755"/>
<polygon fill="#191970" stroke="#191970" points="829.9548,-574.6502 837.7742,-567.5011 827.2033,-568.2136 829.9548,-574.6502"/>
</g>
<!-- Node18 -->
<g id="node19" class="node">
<title>Node18</title>
<polygon fill="#ffffff" stroke="#bfbfbf" points="933,-548.5 933,-567.5 1037,-567.5 1037,-548.5 933,-548.5"/>
<text text-anchor="middle" x="985" y="-555.5" font-family="Helvetica,sans-Serif" font-size="10.00" fill="#000000">odp/api/abi/pool.h</text>
</g>
<!-- Node5&#45;&gt;Node18 -->
<g id="edge23" class="edge">
<title>Node5&#45;&gt;Node18</title>
<path fill="none" stroke="#191970" d="M772.7171,-604.4369C816.6216,-594.8328 884.3413,-580.0191 931.445,-569.7152"/>
<polygon fill="#191970" stroke="#191970" points="932.4422,-573.0799 941.4632,-567.5237 930.9463,-566.2416 932.4422,-573.0799"/>
</g>
<!-- Node19 -->
<g id="node20" class="node">
<title>Node19</title>
<g id="a_node20"><a xlink:href="api_2spec_2packet_8h.html" target="_top" xlink:title="ODP packet descriptor. ">
<polygon fill="#ffffff" stroke="#000000" points="343.5,-548.5 343.5,-567.5 466.5,-567.5 466.5,-548.5 343.5,-548.5"/>
<text text-anchor="middle" x="405" y="-555.5" font-family="Helvetica,sans-Serif" font-size="10.00" fill="#000000">odp/api/spec/packet.h</text>
</a>
</g>
</g>
<!-- Node5&#45;&gt;Node19 -->
<g id="edge24" class="edge">
<title>Node5&#45;&gt;Node19</title>
<path fill="none" stroke="#191970" d="M679.7914,-605.4948C623.7823,-595.8142 532.064,-579.9617 470.1563,-569.2616"/>
<polygon fill="#191970" stroke="#191970" points="470.5556,-565.7788 460.1055,-567.5244 469.3633,-572.6765 470.5556,-565.7788"/>
</g>
<!-- Node7 -->
<g id="node8" class="node">
<title>Node7</title>
<polygon fill="#ffffff" stroke="#bfbfbf" points="222,-174 222,-193 352,-193 352,-174 222,-174"/>
<text text-anchor="middle" x="287" y="-181" font-family="Helvetica,sans-Serif" font-size="10.00" fill="#000000">odp/api/abi/std_types.h</text>
</g>
<!-- Node6&#45;&gt;Node7 -->
<g id="edge8" class="edge">
<title>Node6&#45;&gt;Node7</title>
<path fill="none" stroke="#191970" d="M163.8125,-235.3906C188.3481,-225.0554 227.5442,-208.5447 255.1211,-196.9284"/>
<polygon fill="#191970" stroke="#191970" points="256.4906,-200.1495 264.3477,-193.0419 253.7732,-193.6984 256.4906,-200.1495"/>
</g>
<!-- Node8 -->
<g id="node9" class="node">
<title>Node8</title>
<g id="a_node9"><a xlink:href="api_2spec_2std__types_8h.html" target="_top" xlink:title="Standard C language types and definitions for ODP. ">
<polygon fill="#ffffff" stroke="#000000" points="66.5,-174 66.5,-193 203.5,-193 203.5,-174 66.5,-174"/>
<text text-anchor="middle" x="135" y="-181" font-family="Helvetica,sans-Serif" font-size="10.00" fill="#000000">odp/api/spec/std_types.h</text>
</a>
</g>
</g>
<!-- Node6&#45;&gt;Node8 -->
<g id="edge9" class="edge">
<title>Node6&#45;&gt;Node8</title>
<path fill="none" stroke="#191970" d="M140.0625,-235.3906C139.2308,-226.8657 137.9892,-214.1392 136.9438,-203.4235"/>
<polygon fill="#191970" stroke="#191970" points="140.4053,-202.8577 135.9507,-193.2449 133.4383,-203.5375 140.4053,-202.8577"/>
</g>
<!-- Node8&#45;&gt;Node1 -->
<g id="edge10" class="edge">
<title>Node8&#45;&gt;Node1</title>
<path fill="none" stroke="#191970" d="M124.9695,-173.9687C115.6757,-164.3855 102.4866,-148.6767 97,-132 91.3372,-114.7876 88.5968,-68.856 100,-56 124.8315,-28.0048 222.9598,-17.0248 292.0492,-12.7329"/>
<polygon fill="#191970" stroke="#191970" points="292.6679,-16.2028 302.4459,-12.1235 292.2581,-9.2148 292.6679,-16.2028"/>
</g>
<!-- Node8&#45;&gt;Node4 -->
<g id="edge17" class="edge">
<title>Node8&#45;&gt;Node4</title>
<path fill="none" stroke="#191970" d="M180.2709,-173.9362C190.9757,-171.8324 202.3694,-169.7211 213,-168 537.1133,-115.525 656.5555,-230.9998 946,-76 966.3372,-65.1093 982.6584,-43.8007 992.5393,-28.3343"/>
<polygon fill="#191970" stroke="#191970" points="995.6411,-29.9693 997.8376,-19.6047 989.657,-26.3374 995.6411,-29.9693"/>
</g>
<!-- Node9 -->
<g id="node10" class="node">
<title>Node9</title>
<polygon fill="#ffffff" stroke="#bfbfbf" points="106.5,-112.5 106.5,-131.5 159.5,-131.5 159.5,-112.5 106.5,-112.5"/>
<text text-anchor="middle" x="133" y="-119.5" font-family="Helvetica,sans-Serif" font-size="10.00" fill="#000000">stdint.h</text>
</g>
<!-- Node8&#45;&gt;Node9 -->
<g id="edge11" class="edge">
<title>Node8&#45;&gt;Node9</title>
<path fill="none" stroke="#191970" d="M134.6875,-173.8906C134.4103,-165.3657 133.9964,-152.6392 133.6479,-141.9235"/>
<polygon fill="#191970" stroke="#191970" points="137.1402,-141.6258 133.3169,-131.7449 130.1439,-141.8534 137.1402,-141.6258"/>
</g>
<!-- Node10 -->
<g id="node11" class="node">
<title>Node10</title>
<g id="a_node11"><a xlink:href="api_2align_8h.html" target="_top" xlink:title="ODP alignments. ">
<polygon fill="#ffffff" stroke="#000000" points="216.5,-112.5 216.5,-131.5 305.5,-131.5 305.5,-112.5 216.5,-112.5"/>
<text text-anchor="middle" x="261" y="-119.5" font-family="Helvetica,sans-Serif" font-size="10.00" fill="#000000">odp/api/align.h</text>
</a>
</g>
</g>
<!-- Node8&#45;&gt;Node10 -->
<g id="edge12" class="edge">
<title>Node8&#45;&gt;Node10</title>
<path fill="none" stroke="#191970" d="M154.6875,-173.8906C175.4922,-163.7359 208.511,-147.6196 232.2319,-136.0416"/>
<polygon fill="#191970" stroke="#191970" points="233.9993,-139.0736 241.4507,-131.5419 230.9288,-132.783 233.9993,-139.0736"/>
</g>
<!-- Node11 -->
<g id="node12" class="node">
<title>Node11</title>
<polygon fill="#ffffff" stroke="#bfbfbf" points="142.5,-56.5 142.5,-75.5 249.5,-75.5 249.5,-56.5 142.5,-56.5"/>
<text text-anchor="middle" x="196" y="-63.5" font-family="Helvetica,sans-Serif" font-size="10.00" fill="#000000">odp/api/abi/align.h</text>
</g>
<!-- Node10&#45;&gt;Node11 -->
<g id="edge13" class="edge">
<title>Node10&#45;&gt;Node11</title>
<path fill="none" stroke="#191970" d="M249.6779,-112.2455C240.0777,-103.9746 226.1108,-91.9416 214.8305,-82.2232"/>
<polygon fill="#191970" stroke="#191970" points="217.053,-79.5182 207.1924,-75.6427 212.484,-84.8214 217.053,-79.5182"/>
</g>
<!-- Node12 -->
<g id="node13" class="node">
<title>Node12</title>
<g id="a_node13"><a xlink:href="api_2spec_2align_8h.html" target="_top" xlink:title="ODP alignments. ">
<polygon fill="#ffffff" stroke="#000000" points="306,-56.5 306,-75.5 420,-75.5 420,-56.5 306,-56.5"/>
<text text-anchor="middle" x="363" y="-63.5" font-family="Helvetica,sans-Serif" font-size="10.00" fill="#000000">odp/api/spec/align.h</text>
</a>
</g>
</g>
<!-- Node10&#45;&gt;Node12 -->
<g id="edge14" class="edge">
<title>Node10&#45;&gt;Node12</title>
<path fill="none" stroke="#191970" d="M278.767,-112.2455C294.7095,-103.4928 318.3259,-90.527 336.4989,-80.5496"/>
<polygon fill="#191970" stroke="#191970" points="338.3552,-83.5233 345.4366,-75.6427 334.9863,-77.3873 338.3552,-83.5233"/>
</g>
<!-- Node12&#45;&gt;Node1 -->
<g id="edge15" class="edge">
<title>Node12&#45;&gt;Node1</title>
<path fill="none" stroke="#191970" d="M363,-56.2455C363,-48.9382 363,-38.6944 363,-29.7046"/>
<polygon fill="#191970" stroke="#191970" points="366.5001,-29.6426 363,-19.6427 359.5001,-29.6427 366.5001,-29.6426"/>
</g>
<!-- Node12&#45;&gt;Node4 -->
<g id="edge16" class="edge">
<title>Node12&#45;&gt;Node4</title>
<path fill="none" stroke="#191970" d="M420.2044,-57.0807C423.1765,-56.6962 426.1219,-56.3329 429,-56 612.2735,-34.7986 829.6029,-20.2596 936.6443,-13.7953"/>
<polygon fill="#191970" stroke="#191970" points="936.8815,-17.2875 946.654,-13.195 936.4624,-10.3 936.8815,-17.2875"/>
</g>
<!-- Node19&#45;&gt;Node1 -->
<g id="edge25" class="edge">
<title>Node19&#45;&gt;Node1</title>
<path fill="none" stroke="#191970" d="M374.0261,-548.4528C285.5473,-519.0528 38,-421.0648 38,-245 38,-245 38,-245 38,-122 38,-84.6561 57.8782,-75.0462 90,-56 123.3463,-36.2277 223.0694,-23.1085 292.2745,-16.1087"/>
<polygon fill="#191970" stroke="#191970" points="292.6459,-19.5892 302.2522,-15.1203 291.9558,-12.6233 292.6459,-19.5892"/>
</g>
<!-- Node19&#45;&gt;Node4 -->
<g id="edge59" class="edge">
<title>Node19&#45;&gt;Node4</title>
<path fill="none" stroke="#191970" d="M461.4989,-548.4391C505.6931,-540.0249 562.6301,-526.8278 581,-512 614.717,-484.7843 589.9858,-450.5252 625,-425 707.5445,-364.8255 752.0033,-409.8622 852,-389 967.973,-364.8046 1024.1751,-403.6655 1110,-322 1177.952,-257.3412 1151.8933,-203.4423 1131,-112 1124.8454,-85.0635 1123.7505,-75.3229 1104,-56 1088.5655,-40.8997 1067.2893,-30.2049 1048.2436,-22.9522"/>
<polygon fill="#191970" stroke="#191970" points="1049.4147,-19.6539 1038.8202,-19.5662 1047.0476,-26.2416 1049.4147,-19.6539"/>
</g>
<!-- Node20 -->
<g id="node21" class="node">
<title>Node20</title>
<g id="a_node21"><a xlink:href="api_2proto__stats__types_8h.html" target="_top" xlink:title="ODP proto stats types. ">
<polygon fill="#ffffff" stroke="#000000" points="353,-358.5 353,-388.5 463,-388.5 463,-358.5 353,-358.5"/>
<text text-anchor="start" x="361" y="-376.5" font-family="Helvetica,sans-Serif" font-size="10.00" fill="#000000">odp/api/proto_stats</text>
<text text-anchor="middle" x="408" y="-365.5" font-family="Helvetica,sans-Serif" font-size="10.00" fill="#000000">_types.h</text>
</a>
</g>
</g>
<!-- Node19&#45;&gt;Node20 -->
<g id="edge26" class="edge">
<title>Node19&#45;&gt;Node20</title>
<path fill="none" stroke="#191970" d="M405.1571,-548.3402C405.6075,-520.6387 406.9144,-440.2663 407.5879,-398.8429"/>
<polygon fill="#191970" stroke="#191970" points="411.0891,-398.7919 407.7523,-388.7363 404.09,-398.6781 411.0891,-398.7919"/>
</g>
<!-- Node23 -->
<g id="node24" class="node">
<title>Node23</title>
<g id="a_node24"><a xlink:href="api_2time_8h.html" target="_top" xlink:title="ODP time. ">
<polygon fill="#ffffff" stroke="#000000" points="104.5,-297 104.5,-316 191.5,-316 191.5,-297 104.5,-297"/>
<text text-anchor="middle" x="148" y="-304" font-family="Helvetica,sans-Serif" font-size="10.00" fill="#000000">odp/api/time.h</text>
</a>
</g>
</g>
<!-- Node19&#45;&gt;Node23 -->
<g id="edge32" class="edge">
<title>Node19&#45;&gt;Node23</title>
<path fill="none" stroke="#191970" d="M395.2391,-548.448C356.6765,-510.7107 214.6341,-371.7081 165.142,-323.2752"/>
<polygon fill="#191970" stroke="#191970" points="167.3658,-320.5542 157.7706,-316.0615 162.4698,-325.5572 167.3658,-320.5542"/>
</g>
<!-- Node26 -->
<g id="node27" class="node">
<title>Node26</title>
<g id="a_node27"><a xlink:href="api_2packet__types_8h.html" target="_top" xlink:title="ODP packet. ">
<polygon fill="#ffffff" stroke="#000000" points="442,-492.5 442,-511.5 572,-511.5 572,-492.5 442,-492.5"/>
<text text-anchor="middle" x="507" y="-499.5" font-family="Helvetica,sans-Serif" font-size="10.00" fill="#000000">odp/api/packet_types.h</text>
</a>
</g>
</g>
<!-- Node19&#45;&gt;Node26 -->
<g id="edge38" class="edge">
<title>Node19&#45;&gt;Node26</title>
<path fill="none" stroke="#191970" d="M422.767,-548.2455C438.7095,-539.4928 462.3259,-526.527 480.4989,-516.5496"/>
<polygon fill="#191970" stroke="#191970" points="482.3552,-519.5233 489.4366,-511.6427 478.9863,-513.3873 482.3552,-519.5233"/>
</g>
<!-- Node21 -->
<g id="node22" class="node">
<title>Node21</title>
<polygon fill="#ffffff" stroke="#bfbfbf" points="210,-291.5 210,-321.5 338,-321.5 338,-291.5 210,-291.5"/>
<text text-anchor="start" x="218" y="-309.5" font-family="Helvetica,sans-Serif" font-size="10.00" fill="#000000">odp/api/abi/proto_stats</text>
<text text-anchor="middle" x="274" y="-298.5" font-family="Helvetica,sans-Serif" font-size="10.00" fill="#000000">_types.h</text>
</g>
<!-- Node20&#45;&gt;Node21 -->
<g id="edge27" class="edge">
<title>Node20&#45;&gt;Node21</title>
<path fill="none" stroke="#191970" d="M377.9278,-358.4639C358.9239,-348.9619 334.1558,-336.5779 313.5659,-326.283"/>
<polygon fill="#191970" stroke="#191970" points="314.945,-323.0594 304.4355,-321.7177 311.8145,-329.3204 314.945,-323.0594"/>
</g>
<!-- Node22 -->
<g id="node23" class="node">
<title>Node22</title>
<g id="a_node23"><a xlink:href="api_2spec_2proto__stats__types_8h.html" target="_top" xlink:title="ODP proto stats types. ">
<polygon fill="#ffffff" stroke="#000000" points="356.5,-291.5 356.5,-321.5 463.5,-321.5 463.5,-291.5 356.5,-291.5"/>
<text text-anchor="start" x="364.5" y="-309.5" font-family="Helvetica,sans-Serif" font-size="10.00" fill="#000000">odp/api/spec/proto</text>
<text text-anchor="middle" x="410" y="-298.5" font-family="Helvetica,sans-Serif" font-size="10.00" fill="#000000">_stats_types.h</text>
</a>
</g>
</g>
<!-- Node20&#45;&gt;Node22 -->
<g id="edge28" class="edge">
<title>Node20&#45;&gt;Node22</title>
<path fill="none" stroke="#191970" d="M408.4538,-358.2967C408.6865,-350.5013 408.9761,-340.7991 409.2416,-331.9064"/>
<polygon fill="#191970" stroke="#191970" points="412.7479,-331.7432 409.548,-321.6432 405.7511,-331.5343 412.7479,-331.7432"/>
</g>
<!-- Node22&#45;&gt;Node1 -->
<g id="edge29" class="edge">
<title>Node22&#45;&gt;Node1</title>
<path fill="none" stroke="#191970" d="M409.2214,-291.4304C406.9015,-262.8806 397.6754,-200.8344 361,-168 308.6311,-121.1157 270.6328,-161.8582 207,-132 188.3307,-123.2399 142.1828,-94.4651 133,-76 129.0419,-68.041 127.3645,-62.8742 133,-56 152.8901,-31.738 232.1613,-20.0176 292.125,-14.5309"/>
<polygon fill="#191970" stroke="#191970" points="292.6654,-17.9971 302.3229,-13.64 292.0562,-11.0236 292.6654,-17.9971"/>
</g>
<!-- Node22&#45;&gt;Node4 -->
<g id="edge31" class="edge">
<title>Node22&#45;&gt;Node4</title>
<path fill="none" stroke="#191970" d="M463.9429,-301.9589C583.6494,-291.729 864.2544,-266.8511 906,-255 971.3148,-236.458 1041,-251.3957 1041,-183.5 1041,-183.5 1041,-183.5 1041,-122 1041,-87.6118 1024.7366,-50.2832 1013.489,-28.5791"/>
<polygon fill="#191970" stroke="#191970" points="1016.431,-26.6605 1008.607,-19.5166 1010.2683,-29.9804 1016.431,-26.6605"/>
</g>
<!-- Node22&#45;&gt;Node6 -->
<g id="edge30" class="edge">
<title>Node22&#45;&gt;Node6</title>
<path fill="none" stroke="#191970" d="M356.4027,-293.2301C353.2229,-292.4687 350.0704,-291.7204 347,-291 295.4203,-278.8975 236.3961,-265.793 194.7879,-256.6786"/>
<polygon fill="#191970" stroke="#191970" points="195.3818,-253.2258 184.8649,-254.5082 193.8861,-260.0642 195.3818,-253.2258"/>
</g>
<!-- Node23&#45;&gt;Node6 -->
<g id="edge33" class="edge">
<title>Node23&#45;&gt;Node6</title>
<path fill="none" stroke="#191970" d="M146.9063,-296.8906C145.9359,-288.3657 144.4874,-275.6392 143.2677,-264.9235"/>
<polygon fill="#191970" stroke="#191970" points="146.7177,-264.2849 142.1092,-254.7449 139.7626,-265.0766 146.7177,-264.2849"/>
</g>
<!-- Node24 -->
<g id="node25" class="node">
<title>Node24</title>
<polygon fill="#ffffff" stroke="#bfbfbf" points="215.5,-235.5 215.5,-254.5 320.5,-254.5 320.5,-235.5 215.5,-235.5"/>
<text text-anchor="middle" x="268" y="-242.5" font-family="Helvetica,sans-Serif" font-size="10.00" fill="#000000">odp/api/abi/time.h</text>
</g>
<!-- Node23&#45;&gt;Node24 -->
<g id="edge34" class="edge">
<title>Node23&#45;&gt;Node24</title>
<path fill="none" stroke="#191970" d="M166.75,-296.8906C186.476,-286.7811 217.7312,-270.7628 240.3,-259.1962"/>
<polygon fill="#191970" stroke="#191970" points="242.0787,-262.2176 249.3817,-254.5419 238.886,-255.9881 242.0787,-262.2176"/>
</g>
<!-- Node25 -->
<g id="node26" class="node">
<title>Node25</title>
<g id="a_node26"><a xlink:href="api_2spec_2time_8h.html" target="_top" xlink:title="ODP time. ">
<polygon fill="#ffffff" stroke="#000000" points="438.5,-56.5 438.5,-75.5 551.5,-75.5 551.5,-56.5 438.5,-56.5"/>
<text text-anchor="middle" x="495" y="-63.5" font-family="Helvetica,sans-Serif" font-size="10.00" fill="#000000">odp/api/spec/time.h</text>
</a>
</g>
</g>
<!-- Node23&#45;&gt;Node25 -->
<g id="edge35" class="edge">
<title>Node23&#45;&gt;Node25</title>
<path fill="none" stroke="#191970" d="M180.4982,-296.9381C187.2699,-294.9619 194.3651,-292.9032 201,-291 257.8053,-274.7058 278.9976,-286.4977 329,-255 401.5896,-209.2741 460.5227,-122.4327 484.014,-84.5026"/>
<polygon fill="#191970" stroke="#191970" points="487.2407,-85.9327 489.4471,-75.5701 481.2601,-82.295 487.2407,-85.9327"/>
</g>
<!-- Node25&#45;&gt;Node1 -->
<g id="edge36" class="edge">
<title>Node25&#45;&gt;Node1</title>
<path fill="none" stroke="#191970" d="M472.3084,-56.3733C450.9289,-47.3032 418.6943,-33.6279 394.7638,-23.4755"/>
<polygon fill="#191970" stroke="#191970" points="395.9683,-20.1846 385.3955,-19.5011 393.2344,-26.6287 395.9683,-20.1846"/>
</g>
<!-- Node25&#45;&gt;Node4 -->
<g id="edge37" class="edge">
<title>Node25&#45;&gt;Node4</title>
<path fill="none" stroke="#191970" d="M551.7954,-59.7391C646.5382,-49.295 836.3347,-28.3726 936.917,-17.2847"/>
<polygon fill="#191970" stroke="#191970" points="937.4006,-20.7527 946.9568,-16.178 936.6335,-13.7949 937.4006,-20.7527"/>
</g>
<!-- Node26&#45;&gt;Node15 -->
<g id="edge39" class="edge">
<title>Node26&#45;&gt;Node15</title>
<path fill="none" stroke="#191970" d="M535.125,-492.3906C561.2903,-483.4508 600.9791,-469.8905 633.2227,-458.8739"/>
<polygon fill="#191970" stroke="#191970" points="634.6358,-462.0898 642.967,-455.5446 632.3725,-455.4658 634.6358,-462.0898"/>
</g>
<!-- Node27 -->
<g id="node28" class="node">
<title>Node27</title>
<g id="a_node28"><a xlink:href="api_2spec_2packet__types_8h.html" target="_top" xlink:title="ODP packet types. ">
<polygon fill="#ffffff" stroke="#000000" points="450,-425.5 450,-455.5 564,-455.5 564,-425.5 450,-425.5"/>
<text text-anchor="start" x="458" y="-443.5" font-family="Helvetica,sans-Serif" font-size="10.00" fill="#000000">odp/api/spec/packet</text>
<text text-anchor="middle" x="507" y="-432.5" font-family="Helvetica,sans-Serif" font-size="10.00" fill="#000000">_types.h</text>
</a>
</g>
</g>
<!-- Node26&#45;&gt;Node27 -->
<g id="edge40" class="edge">
<title>Node26&#45;&gt;Node27</title>
<path fill="none" stroke="#191970" d="M507,-492.3906C507,-485.2234 507,-475.0862 507,-465.671"/>
<polygon fill="#191970" stroke="#191970" points="510.5001,-465.5446 507,-455.5446 503.5001,-465.5446 510.5001,-465.5446"/>
</g>
<!-- Node27&#45;&gt;Node1 -->
<g id="edge41" class="edge">
<title>Node27&#45;&gt;Node1</title>
<path fill="none" stroke="#191970" d="M505.3679,-425.4822C501.9626,-397.8559 492.6368,-337.5444 472,-291 445.0661,-230.2532 429.2751,-219.2682 387,-168 350.6094,-123.8681 318.599,-128.9659 297,-76 293.6435,-67.7692 292.887,-63.8801 297,-56 304.1245,-42.3502 317.3523,-31.926 330.1056,-24.4806"/>
<polygon fill="#191970" stroke="#191970" points="332.0647,-27.4012 339.2141,-19.5822 328.7492,-21.2362 332.0647,-27.4012"/>
</g>
<!-- Node27&#45;&gt;Node4 -->
<g id="edge58" class="edge">
<title>Node27&#45;&gt;Node4</title>
<path fill="none" stroke="#191970" d="M564.1132,-429.4611C715.7554,-399.9598 1117,-320.5702 1117,-306.5 1117,-306.5 1117,-306.5 1117,-122 1117,-75.4628 1068.0617,-41.828 1034.3136,-24.1659"/>
<polygon fill="#191970" stroke="#191970" points="1035.7576,-20.9746 1025.251,-19.6105 1032.6138,-27.2289 1035.7576,-20.9746"/>
</g>
<!-- Node27&#45;&gt;Node20 -->
<g id="edge42" class="edge">
<title>Node27&#45;&gt;Node20</title>
<path fill="none" stroke="#191970" d="M484.5354,-425.2967C470.9915,-416.1306 453.5525,-404.3285 438.7425,-394.3055"/>
<polygon fill="#191970" stroke="#191970" points="440.6191,-391.3494 430.3757,-388.6432 436.6958,-397.1466 440.6191,-391.3494"/>
</g>
<!-- Node28 -->
<g id="node29" class="node">
<title>Node28</title>
<g id="a_node29"><a xlink:href="api_2queue__types_8h.html" target="_top" xlink:title="ODP queue. ">
<polygon fill="#ffffff" stroke="#000000" points="615.5,-364 615.5,-383 742.5,-383 742.5,-364 615.5,-364"/>
<text text-anchor="middle" x="679" y="-371" font-family="Helvetica,sans-Serif" font-size="10.00" fill="#000000">odp/api/queue_types.h</text>
</a>
</g>
</g>
<!-- Node27&#45;&gt;Node28 -->
<g id="edge43" class="edge">
<title>Node27&#45;&gt;Node28</title>
<path fill="none" stroke="#191970" d="M545.6002,-425.4639C575.4581,-413.8332 616.4015,-397.8843 645.0258,-386.7342"/>
<polygon fill="#191970" stroke="#191970" points="646.5508,-389.8963 654.5984,-383.0053 644.0099,-383.3737 646.5508,-389.8963"/>
</g>
<!-- Node29 -->
<g id="node30" class="node">
<title>Node29</title>
<polygon fill="#ffffff" stroke="#bfbfbf" points="752.5,-297 752.5,-316 897.5,-316 897.5,-297 752.5,-297"/>
<text text-anchor="middle" x="825" y="-304" font-family="Helvetica,sans-Serif" font-size="10.00" fill="#000000">odp/api/abi/queue_types.h</text>
</g>
<!-- Node28&#45;&gt;Node29 -->
<g id="edge44" class="edge">
<title>Node28&#45;&gt;Node29</title>
<path fill="none" stroke="#191970" d="M699.9182,-363.9005C724.7456,-352.5072 766.3433,-333.4178 794.6942,-320.4075"/>
<polygon fill="#191970" stroke="#191970" points="796.4917,-323.4336 804.1206,-316.0817 793.5721,-317.0715 796.4917,-323.4336"/>
</g>
<!-- Node30 -->
<g id="node31" class="node">
<title>Node30</title>
<g id="a_node31"><a xlink:href="api_2spec_2queue__types_8h.html" target="_top" xlink:title="ODP queue types. ">
<polygon fill="#ffffff" stroke="#000000" points="623.5,-291.5 623.5,-321.5 734.5,-321.5 734.5,-291.5 623.5,-291.5"/>
<text text-anchor="start" x="631.5" y="-309.5" font-family="Helvetica,sans-Serif" font-size="10.00" fill="#000000">odp/api/spec/queue</text>
<text text-anchor="middle" x="679" y="-298.5" font-family="Helvetica,sans-Serif" font-size="10.00" fill="#000000">_types.h</text>
</a>
</g>
</g>
<!-- Node28&#45;&gt;Node30 -->
<g id="edge45" class="edge">
<title>Node28&#45;&gt;Node30</title>
<path fill="none" stroke="#191970" d="M679,-363.9005C679,-355.5099 679,-342.9451 679,-331.7085"/>
<polygon fill="#191970" stroke="#191970" points="682.5001,-331.5217 679,-321.5218 675.5001,-331.5218 682.5001,-331.5217"/>
</g>
<!-- Node30&#45;&gt;Node1 -->
<g id="edge46" class="edge">
<title>Node30&#45;&gt;Node1</title>
<path fill="none" stroke="#191970" d="M653.1204,-291.4984C639.1796,-282.3788 622.5266,-269.6737 611,-255 589.6042,-227.7626 580,-218.136 580,-183.5 580,-183.5 580,-183.5 580,-122 580,-91.3494 582.3644,-76.9593 560,-56 541.7192,-38.8677 482.6278,-26.5441 433.8918,-18.9905"/>
<polygon fill="#191970" stroke="#191970" points="434.3931,-15.5266 423.9832,-17.4972 433.3499,-22.4484 434.3931,-15.5266"/>
</g>
<!-- Node30&#45;&gt;Node4 -->
<g id="edge57" class="edge">
<title>Node30&#45;&gt;Node4</title>
<path fill="none" stroke="#191970" d="M734.5785,-292.7876C737.7583,-292.1463 740.9154,-291.5443 744,-291 812.514,-278.9097 1000.9502,-298.806 1055,-255 1081.0413,-233.8942 1079,-217.0202 1079,-183.5 1079,-183.5 1079,-183.5 1079,-122 1079,-90.7875 1072.5636,-81.802 1055,-56 1047.1578,-44.4793 1035.7918,-33.9817 1025.6849,-25.9331"/>
<polygon fill="#191970" stroke="#191970" points="1027.6741,-23.0487 1017.5962,-19.7796 1023.4358,-28.6198 1027.6741,-23.0487"/>
</g>
<!-- Node31 -->
<g id="node32" class="node">
<title>Node31</title>
<g id="a_node32"><a xlink:href="api_2schedule__types_8h.html" target="_top" xlink:title="ODP schedule. ">
<polygon fill="#ffffff" stroke="#000000" points="757,-235.5 757,-254.5 897,-254.5 897,-235.5 757,-235.5"/>
<text text-anchor="middle" x="827" y="-242.5" font-family="Helvetica,sans-Serif" font-size="10.00" fill="#000000">odp/api/schedule_types.h</text>
</a>
</g>
</g>
<!-- Node30&#45;&gt;Node31 -->
<g id="edge47" class="edge">
<title>Node30&#45;&gt;Node31</title>
<path fill="none" stroke="#191970" d="M715.2049,-291.4554C739.4658,-281.374 771.1356,-268.2139 794.5712,-258.4755"/>
<polygon fill="#191970" stroke="#191970" points="796.1739,-261.5997 804.0653,-254.5303 793.4877,-255.1356 796.1739,-261.5997"/>
</g>
<!-- Node34 -->
<g id="node35" class="node">
<title>Node34</title>
<g id="a_node35"><a xlink:href="deprecated_8h.html" target="_top" xlink:title="Control deprecated API definitions. ">
<polygon fill="#ffffff" stroke="#000000" points="619.5,-235.5 619.5,-254.5 738.5,-254.5 738.5,-235.5 619.5,-235.5"/>
<text text-anchor="middle" x="679" y="-242.5" font-family="Helvetica,sans-Serif" font-size="10.00" fill="#000000">odp/api/deprecated.h</text>
</a>
</g>
</g>
<!-- Node30&#45;&gt;Node34 -->
<g id="edge53" class="edge">
<title>Node30&#45;&gt;Node34</title>
<path fill="none" stroke="#191970" d="M679,-291.2977C679,-283.3834 679,-273.6043 679,-265.0759"/>
<polygon fill="#191970" stroke="#191970" points="682.5001,-264.8469 679,-254.8469 675.5001,-264.847 682.5001,-264.8469"/>
</g>
<!-- Node32 -->
<g id="node33" class="node">
<title>Node32</title>
<polygon fill="#ffffff" stroke="#bfbfbf" points="895.5,-168.5 895.5,-198.5 1012.5,-198.5 1012.5,-168.5 895.5,-168.5"/>
<text text-anchor="start" x="903.5" y="-186.5" font-family="Helvetica,sans-Serif" font-size="10.00" fill="#000000">odp/api/abi/schedule</text>
<text text-anchor="middle" x="954" y="-175.5" font-family="Helvetica,sans-Serif" font-size="10.00" fill="#000000">_types.h</text>
</g>
<!-- Node31&#45;&gt;Node32 -->
<g id="edge48" class="edge">
<title>Node31&#45;&gt;Node32</title>
<path fill="none" stroke="#191970" d="M846.8438,-235.3906C864.6682,-226.7591 891.3876,-213.8202 913.6855,-203.0224"/>
<polygon fill="#191970" stroke="#191970" points="915.4575,-206.0531 922.9323,-198.5446 912.4066,-199.7529 915.4575,-206.0531"/>
</g>
<!-- Node33 -->
<g id="node34" class="node">
<title>Node33</title>
<g id="a_node34"><a xlink:href="api_2spec_2schedule__types_8h.html" target="_top" xlink:title="ODP schedule types. ">
<polygon fill="#ffffff" stroke="#000000" points="752.5,-168.5 752.5,-198.5 877.5,-198.5 877.5,-168.5 752.5,-168.5"/>
<text text-anchor="start" x="760.5" y="-186.5" font-family="Helvetica,sans-Serif" font-size="10.00" fill="#000000">odp/api/spec/schedule</text>
<text text-anchor="middle" x="815" y="-175.5" font-family="Helvetica,sans-Serif" font-size="10.00" fill="#000000">_types.h</text>
</a>
</g>
</g>
<!-- Node31&#45;&gt;Node33 -->
<g id="edge49" class="edge">
<title>Node31&#45;&gt;Node33</title>
<path fill="none" stroke="#191970" d="M825.125,-235.3906C823.7115,-228.1463 821.7059,-217.8679 819.8522,-208.3676"/>
<polygon fill="#191970" stroke="#191970" points="823.2859,-207.6892 817.9355,-198.5446 816.4155,-209.0298 823.2859,-207.6892"/>
</g>
<!-- Node33&#45;&gt;Node1 -->
<g id="edge50" class="edge">
<title>Node33&#45;&gt;Node1</title>
<path fill="none" stroke="#191970" d="M790.9662,-168.2912C742.5905,-137.9048 634.628,-71.2888 594,-56 542.1216,-36.4775 480.416,-24.7323 433.8358,-18.0017"/>
<polygon fill="#191970" stroke="#191970" points="434.2255,-14.5222 423.8365,-16.6 433.2537,-21.4544 434.2255,-14.5222"/>
</g>
<!-- Node33&#45;&gt;Node2 -->
<g id="edge51" class="edge">
<title>Node33&#45;&gt;Node2</title>
<path fill="none" stroke="#191970" d="M850.9602,-168.4554C875.0573,-158.374 906.513,-145.2139 929.7903,-135.4755"/>
<polygon fill="#191970" stroke="#191970" points="931.3459,-138.6187 939.2202,-131.5303 928.6442,-132.1611 931.3459,-138.6187"/>
</g>
<!-- Node33&#45;&gt;Node4 -->
<g id="edge52" class="edge">
<title>Node33&#45;&gt;Node4</title>
<path fill="none" stroke="#191970" d="M831.2843,-168.2499C848.2942,-152.8212 876.1877,-128.8977 903,-112 934.62,-92.0724 953.8368,-103.6361 979,-76 990.7741,-63.0688 996.8886,-43.9084 999.9894,-29.5589"/>
<polygon fill="#191970" stroke="#191970" points="1003.4344,-30.1769 1001.8169,-19.7063 996.5518,-28.9003 1003.4344,-30.1769"/>
</g>
<!-- Node35 -->
<g id="node36" class="node">
<title>Node35</title>
<g id="a_node36"><a xlink:href="spec_2deprecated_8h.html" target="_top" xlink:title="Macro for deprecated API definitions. ">
<polygon fill="#ffffff" stroke="#000000" points="646.5,-56.5 646.5,-75.5 791.5,-75.5 791.5,-56.5 646.5,-56.5"/>
<text text-anchor="middle" x="719" y="-63.5" font-family="Helvetica,sans-Serif" font-size="10.00" fill="#000000">odp/api/spec/deprecated.h</text>
</a>
</g>
</g>
<!-- Node34&#45;&gt;Node35 -->
<g id="edge54" class="edge">
<title>Node34&#45;&gt;Node35</title>
<path fill="none" stroke="#191970" d="M681.1506,-235.3762C687.4719,-207.0883 706.0841,-123.7987 714.6253,-85.5767"/>
<polygon fill="#191970" stroke="#191970" points="718.0736,-86.194 716.8388,-75.6714 711.2421,-84.6674 718.0736,-86.194"/>
</g>
<!-- Node35&#45;&gt;Node1 -->
<g id="edge55" class="edge">
<title>Node35&#45;&gt;Node1</title>
<path fill="none" stroke="#191970" d="M658.2059,-56.4369C595.9993,-46.6516 499.4131,-31.4582 433.7982,-21.1368"/>
<polygon fill="#191970" stroke="#191970" points="433.9658,-17.6202 423.5433,-19.5237 432.878,-24.5352 433.9658,-17.6202"/>
</g>
<!-- Node35&#45;&gt;Node4 -->
<g id="edge56" class="edge">
<title>Node35&#45;&gt;Node4</title>
<path fill="none" stroke="#191970" d="M767.4986,-56.4369C816.5115,-46.7724 892.2777,-31.8326 944.5707,-21.5213"/>
<polygon fill="#191970" stroke="#191970" points="945.5674,-24.8922 954.7014,-19.5237 944.2132,-18.0244 945.5674,-24.8922"/>
</g>
</g>
</svg>
