<?xml version="1.0" encoding="UTF-8" standalone="no"?>
<!DOCTYPE svg PUBLIC "-//W3C//DTD SVG 1.1//EN"
 "http://www.w3.org/Graphics/SVG/1.1/DTD/svg11.dtd">
<!-- Generated by graphviz version 2.40.1 (20161225.0304)
 -->
<!-- Title: align.h Pages: 1 -->
<svg width="2757pt" height="532pt"
 viewBox="0.00 0.00 2756.50 532.00" xmlns="http://www.w3.org/2000/svg" xmlns:xlink="http://www.w3.org/1999/xlink">
<g id="graph0" class="graph" transform="scale(1 1) rotate(0) translate(4 528)">
<title>align.h</title>
<polygon fill="#ffffff" stroke="transparent" points="-4,4 -4,-528 2752.5,-528 2752.5,4 -4,4"/>
<!-- Node3 -->
<g id="node1" class="node">
<title>Node3</title>
<polygon fill="#bfbfbf" stroke="#000000" points="1706.5,-504.5 1706.5,-523.5 1756.5,-523.5 1756.5,-504.5 1706.5,-504.5"/>
<text text-anchor="middle" x="1731.5" y="-511.5" font-family="Helvetica,sans-Serif" font-size="10.00" fill="#000000">align.h</text>
</g>
<!-- Node4 -->
<g id="node2" class="node">
<title>Node4</title>
<g id="a_node2"><a xlink:href="api_2align_8h.html" target="_top" xlink:title="ODP alignments. ">
<polygon fill="#ffffff" stroke="#000000" points="1706.5,-448.5 1706.5,-467.5 1756.5,-467.5 1756.5,-448.5 1706.5,-448.5"/>
<text text-anchor="middle" x="1731.5" y="-455.5" font-family="Helvetica,sans-Serif" font-size="10.00" fill="#000000">align.h</text>
</a>
</g>
</g>
<!-- Node3&#45;&gt;Node4 -->
<g id="edge1" class="edge">
<title>Node3&#45;&gt;Node4</title>
<path fill="none" stroke="#191970" d="M1731.5,-494.1575C1731.5,-485.155 1731.5,-474.9199 1731.5,-467.6427"/>
<polygon fill="#191970" stroke="#191970" points="1728.0001,-494.2455 1731.5,-504.2455 1735.0001,-494.2456 1728.0001,-494.2455"/>
</g>
<!-- Node5 -->
<g id="node3" class="node">
<title>Node5</title>
<g id="a_node3"><a xlink:href="api_2abi-default_2atomic_8h.html" target="_top" xlink:title="ODP atomic operations. ">
<polygon fill="#ffffff" stroke="#000000" points="269,-280.5 269,-299.5 328,-299.5 328,-280.5 269,-280.5"/>
<text text-anchor="middle" x="298.5" y="-287.5" font-family="Helvetica,sans-Serif" font-size="10.00" fill="#000000">atomic.h</text>
</a>
</g>
</g>
<!-- Node4&#45;&gt;Node5 -->
<g id="edge2" class="edge">
<title>Node4&#45;&gt;Node5</title>
<path fill="none" stroke="#191970" d="M1696.1194,-455.42C1537.6529,-443.562 877.5342,-390.9449 342.5,-300 337.8663,-299.2124 332.9876,-298.2446 328.2333,-297.2244"/>
<polygon fill="#191970" stroke="#191970" points="1696.0085,-458.9214 1706.2406,-456.1728 1696.5277,-451.9406 1696.0085,-458.9214"/>
</g>
<!-- Node23 -->
<g id="node14" class="node">
<title>Node23</title>
<g id="a_node14"><a xlink:href="odp__api_8h.html" target="_top" xlink:title="The OpenDataPlane API. ">
<polygon fill="#ffffff" stroke="#000000" points="1774.5,-56.5 1774.5,-75.5 1838.5,-75.5 1838.5,-56.5 1774.5,-56.5"/>
<text text-anchor="middle" x="1806.5" y="-63.5" font-family="Helvetica,sans-Serif" font-size="10.00" fill="#000000">odp_api.h</text>
</a>
</g>
</g>
<!-- Node4&#45;&gt;Node23 -->
<g id="edge67" class="edge">
<title>Node4&#45;&gt;Node23</title>
<path fill="none" stroke="#191970" d="M1766.849,-456.0032C1946.3569,-445.6353 2748.5,-396.4814 2748.5,-346 2748.5,-346 2748.5,-346 2748.5,-178 2748.5,-84.2791 2003.7494,-68.6761 1838.6533,-66.3687"/>
<polygon fill="#191970" stroke="#191970" points="1766.4222,-452.5218 1756.6395,-456.5897 1766.8238,-459.5103 1766.4222,-452.5218"/>
</g>
<!-- Node52 -->
<g id="node16" class="node">
<title>Node52</title>
<g id="a_node16"><a xlink:href="api_2abi-default_2cpumask_8h.html" target="_top" xlink:title="ODP CPU masks and enumeration. ">
<polygon fill="#ffffff" stroke="#000000" points="2298.5,-280.5 2298.5,-299.5 2368.5,-299.5 2368.5,-280.5 2298.5,-280.5"/>
<text text-anchor="middle" x="2333.5" y="-287.5" font-family="Helvetica,sans-Serif" font-size="10.00" fill="#000000">cpumask.h</text>
</a>
</g>
</g>
<!-- Node4&#45;&gt;Node52 -->
<g id="edge16" class="edge">
<title>Node4&#45;&gt;Node52</title>
<path fill="none" stroke="#191970" d="M1766.5402,-448.2213C1873.3072,-418.4259 2193.7087,-329.0115 2299.3195,-299.5387"/>
<polygon fill="#191970" stroke="#191970" points="1765.2919,-444.9359 1756.6008,-450.9951 1767.1735,-451.6783 1765.2919,-444.9359"/>
</g>
<!-- Node76 -->
<g id="node26" class="node">
<title>Node76</title>
<g id="a_node26"><a xlink:href="api_2spec_2std__types_8h.html" target="_top" xlink:title="Standard C language types and definitions for ODP. ">
<polygon fill="#ffffff" stroke="#000000" points="1663,-392.5 1663,-411.5 1736,-411.5 1736,-392.5 1663,-392.5"/>
<text text-anchor="middle" x="1699.5" y="-399.5" font-family="Helvetica,sans-Serif" font-size="10.00" fill="#000000">std_types.h</text>
</a>
</g>
</g>
<!-- Node4&#45;&gt;Node76 -->
<g id="edge27" class="edge">
<title>Node4&#45;&gt;Node76</title>
<path fill="none" stroke="#191970" d="M1720.8355,-439.3372C1715.5346,-430.0605 1709.3513,-419.2398 1705.0101,-411.6427"/>
<polygon fill="#191970" stroke="#191970" points="1717.9257,-441.2996 1725.926,-448.2455 1724.0034,-437.8266 1717.9257,-441.2996"/>
</g>
<!-- Node6 -->
<g id="node4" class="node">
<title>Node6</title>
<g id="a_node4"><a xlink:href="arch_2arm32-linux_2odp_2api_2abi_2atomic_8h_source.html" target="_top" xlink:title="atomic.h">
<polygon fill="#ffffff" stroke="#000000" points="231,-224.5 231,-243.5 290,-243.5 290,-224.5 231,-224.5"/>
<text text-anchor="middle" x="260.5" y="-231.5" font-family="Helvetica,sans-Serif" font-size="10.00" fill="#000000">atomic.h</text>
</a>
</g>
</g>
<!-- Node5&#45;&gt;Node6 -->
<g id="edge3" class="edge">
<title>Node5&#45;&gt;Node6</title>
<path fill="none" stroke="#191970" d="M286.2321,-271.9209C279.8512,-262.5176 272.3069,-251.3997 267.0432,-243.6427"/>
<polygon fill="#191970" stroke="#191970" points="283.3697,-273.936 291.8809,-280.2455 289.162,-270.0055 283.3697,-273.936"/>
</g>
<!-- Node7 -->
<g id="node5" class="node">
<title>Node7</title>
<g id="a_node5"><a xlink:href="arch_2arm64-linux_2odp_2api_2abi_2atomic_8h_source.html" target="_top" xlink:title="atomic.h">
<polygon fill="#ffffff" stroke="#000000" points="308,-224.5 308,-243.5 367,-243.5 367,-224.5 308,-224.5"/>
<text text-anchor="middle" x="337.5" y="-231.5" font-family="Helvetica,sans-Serif" font-size="10.00" fill="#000000">atomic.h</text>
</a>
</g>
</g>
<!-- Node5&#45;&gt;Node7 -->
<g id="edge4" class="edge">
<title>Node5&#45;&gt;Node7</title>
<path fill="none" stroke="#191970" d="M311.0908,-271.9209C317.6395,-262.5176 325.3824,-251.3997 330.7846,-243.6427"/>
<polygon fill="#191970" stroke="#191970" points="308.1361,-270.0392 305.2933,-280.2455 313.8804,-274.0397 308.1361,-270.0392"/>
</g>
<!-- Node8 -->
<g id="node6" class="node">
<title>Node8</title>
<g id="a_node6"><a xlink:href="arch_2default-linux_2odp_2api_2abi_2atomic_8h_source.html" target="_top" xlink:title="atomic.h">
<polygon fill="#ffffff" stroke="#000000" points="385,-224.5 385,-243.5 444,-243.5 444,-224.5 385,-224.5"/>
<text text-anchor="middle" x="414.5" y="-231.5" font-family="Helvetica,sans-Serif" font-size="10.00" fill="#000000">atomic.h</text>
</a>
</g>
</g>
<!-- Node5&#45;&gt;Node8 -->
<g id="edge5" class="edge">
<title>Node5&#45;&gt;Node8</title>
<path fill="none" stroke="#191970" d="M327.5537,-275.9741C348.5565,-265.8348 376.3691,-252.408 394.8191,-243.5011"/>
<polygon fill="#191970" stroke="#191970" points="325.925,-272.8738 318.4411,-280.3733 328.9683,-279.1776 325.925,-272.8738"/>
</g>
<!-- Node9 -->
<g id="node7" class="node">
<title>Node9</title>
<g id="a_node7"><a xlink:href="arch_2mips64-linux_2odp_2api_2abi_2atomic_8h_source.html" target="_top" xlink:title="atomic.h">
<polygon fill="#ffffff" stroke="#000000" points="0,-224.5 0,-243.5 59,-243.5 59,-224.5 0,-224.5"/>
<text text-anchor="middle" x="29.5" y="-231.5" font-family="Helvetica,sans-Serif" font-size="10.00" fill="#000000">atomic.h</text>
</a>
</g>
</g>
<!-- Node5&#45;&gt;Node9 -->
<g id="edge6" class="edge">
<title>Node5&#45;&gt;Node9</title>
<path fill="none" stroke="#191970" d="M258.9489,-282.8807C212.8231,-274.4031 134.3601,-259.4394 67.5,-244 64.8412,-243.386 62.0856,-242.7198 59.3283,-242.0326"/>
<polygon fill="#191970" stroke="#191970" points="258.3739,-286.3335 268.8406,-284.6903 259.6337,-279.4478 258.3739,-286.3335"/>
</g>
<!-- Node10 -->
<g id="node8" class="node">
<title>Node10</title>
<g id="a_node8"><a xlink:href="arch_2power64-linux_2odp_2api_2abi_2atomic_8h_source.html" target="_top" xlink:title="atomic.h">
<polygon fill="#ffffff" stroke="#000000" points="77,-224.5 77,-243.5 136,-243.5 136,-224.5 77,-224.5"/>
<text text-anchor="middle" x="106.5" y="-231.5" font-family="Helvetica,sans-Serif" font-size="10.00" fill="#000000">atomic.h</text>
</a>
</g>
</g>
<!-- Node5&#45;&gt;Node10 -->
<g id="edge7" class="edge">
<title>Node5&#45;&gt;Node10</title>
<path fill="none" stroke="#191970" d="M259.106,-278.5101C222.6005,-267.8626 169.1065,-252.2602 136.1128,-242.6371"/>
<polygon fill="#191970" stroke="#191970" points="258.3407,-281.9327 268.9208,-281.3727 260.3008,-275.2127 258.3407,-281.9327"/>
</g>
<!-- Node11 -->
<g id="node9" class="node">
<title>Node11</title>
<g id="a_node9"><a xlink:href="arch_2x86__32-linux_2odp_2api_2abi_2atomic_8h_source.html" target="_top" xlink:title="atomic.h">
<polygon fill="#ffffff" stroke="#000000" points="154,-224.5 154,-243.5 213,-243.5 213,-224.5 154,-224.5"/>
<text text-anchor="middle" x="183.5" y="-231.5" font-family="Helvetica,sans-Serif" font-size="10.00" fill="#000000">atomic.h</text>
</a>
</g>
</g>
<!-- Node5&#45;&gt;Node11 -->
<g id="edge8" class="edge">
<title>Node5&#45;&gt;Node11</title>
<path fill="none" stroke="#191970" d="M269.6967,-275.9741C248.875,-265.8348 221.3022,-252.408 203.0112,-243.5011"/>
<polygon fill="#191970" stroke="#191970" points="268.2078,-279.1419 278.7308,-280.3733 271.2724,-272.8484 268.2078,-279.1419"/>
</g>
<!-- Node12 -->
<g id="node10" class="node">
<title>Node12</title>
<g id="a_node10"><a xlink:href="arch_2x86__64-linux_2odp_2api_2abi_2atomic_8h_source.html" target="_top" xlink:title="atomic.h">
<polygon fill="#ffffff" stroke="#000000" points="462,-224.5 462,-243.5 521,-243.5 521,-224.5 462,-224.5"/>
<text text-anchor="middle" x="491.5" y="-231.5" font-family="Helvetica,sans-Serif" font-size="10.00" fill="#000000">atomic.h</text>
</a>
</g>
</g>
<!-- Node5&#45;&gt;Node12 -->
<g id="edge9" class="edge">
<title>Node5&#45;&gt;Node12</title>
<path fill="none" stroke="#191970" d="M338.0992,-278.5101C374.7948,-267.8626 428.5675,-252.2602 461.7329,-242.6371"/>
<polygon fill="#191970" stroke="#191970" points="336.8618,-275.2247 328.2333,-281.3727 338.8125,-281.9474 336.8618,-275.2247"/>
</g>
<!-- Node13 -->
<g id="node11" class="node">
<title>Node13</title>
<g id="a_node11"><a xlink:href="api_2atomic_8h.html" target="_top" xlink:title="ODP atomic operations. ">
<polygon fill="#ffffff" stroke="#ff0000" points="462,-168.5 462,-187.5 521,-187.5 521,-168.5 462,-168.5"/>
<text text-anchor="middle" x="491.5" y="-175.5" font-family="Helvetica,sans-Serif" font-size="10.00" fill="#000000">atomic.h</text>
</a>
</g>
</g>
<!-- Node12&#45;&gt;Node13 -->
<g id="edge10" class="edge">
<title>Node12&#45;&gt;Node13</title>
<path fill="none" stroke="#191970" d="M491.5,-214.1575C491.5,-205.155 491.5,-194.9199 491.5,-187.6427"/>
<polygon fill="#191970" stroke="#191970" points="488.0001,-214.2455 491.5,-224.2455 495.0001,-214.2456 488.0001,-214.2455"/>
</g>
<!-- Node14 -->
<g id="node12" class="node">
<title>Node14</title>
<g id="a_node12"><a xlink:href="api_2abi-default_2barrier_8h.html" target="_top" xlink:title="ODP barrier. ">
<polygon fill="#ffffff" stroke="#ff0000" points="1027,-112.5 1027,-131.5 1084,-131.5 1084,-112.5 1027,-112.5"/>
<text text-anchor="middle" x="1055.5" y="-119.5" font-family="Helvetica,sans-Serif" font-size="10.00" fill="#000000">barrier.h</text>
</a>
</g>
</g>
<!-- Node13&#45;&gt;Node14 -->
<g id="edge11" class="edge">
<title>Node13&#45;&gt;Node14</title>
<path fill="none" stroke="#191970" d="M531.1267,-174.0654C638.5999,-163.3943 933.7782,-134.0859 1026.9368,-124.8361"/>
<polygon fill="#191970" stroke="#191970" points="530.6342,-170.597 521.029,-175.068 531.3259,-177.5628 530.6342,-170.597"/>
</g>
<!-- Node22 -->
<g id="node13" class="node">
<title>Node22</title>
<g id="a_node13"><a xlink:href="api_2barrier_8h.html" target="_top" xlink:title="ODP execution barriers. ">
<polygon fill="#ffffff" stroke="#000000" points="521,-112.5 521,-131.5 578,-131.5 578,-112.5 521,-112.5"/>
<text text-anchor="middle" x="549.5" y="-119.5" font-family="Helvetica,sans-Serif" font-size="10.00" fill="#000000">barrier.h</text>
</a>
</g>
</g>
<!-- Node13&#45;&gt;Node22 -->
<g id="edge12" class="edge">
<title>Node13&#45;&gt;Node22</title>
<path fill="none" stroke="#191970" d="M509.0293,-161.0751C519.0083,-151.4402 531.1476,-139.7196 539.5129,-131.6427"/>
<polygon fill="#191970" stroke="#191970" points="506.3658,-158.7817 501.6028,-168.2455 511.228,-163.8175 506.3658,-158.7817"/>
</g>
<!-- Node13&#45;&gt;Node23 -->
<g id="edge15" class="edge">
<title>Node13&#45;&gt;Node23</title>
<path fill="none" stroke="#191970" d="M491.6764,-158.4619C492.9641,-143.1962 497.4525,-122.8133 511.5,-112 563.0587,-72.3117 1579.2656,-66.7886 1774.2893,-66.0933"/>
<polygon fill="#191970" stroke="#191970" points="488.1797,-158.3123 491.2136,-168.4634 495.1722,-158.6359 488.1797,-158.3123"/>
</g>
<!-- Node22&#45;&gt;Node23 -->
<g id="edge13" class="edge">
<title>Node22&#45;&gt;Node23</title>
<path fill="none" stroke="#191970" d="M588.1356,-120.2788C776.9525,-111.8669 1600.5696,-75.1743 1774.2655,-67.4361"/>
<polygon fill="#191970" stroke="#191970" points="587.9502,-116.7835 578.116,-120.7251 588.2619,-123.7765 587.9502,-116.7835"/>
</g>
<!-- Node24 -->
<g id="node15" class="node">
<title>Node24</title>
<g id="a_node15"><a xlink:href="odp_8h.html" target="_top" xlink:title="WARNING: THIS FILE IS DEPRECATED AND WILL BE REMOVED!!! ODP APPLICATIONS SHOULD NOW INCLUDE odp_api...">
<polygon fill="#ffffff" stroke="#000000" points="1784.5,-.5 1784.5,-19.5 1828.5,-19.5 1828.5,-.5 1784.5,-.5"/>
<text text-anchor="middle" x="1806.5" y="-7.5" font-family="Helvetica,sans-Serif" font-size="10.00" fill="#000000">odp.h</text>
</a>
</g>
</g>
<!-- Node23&#45;&gt;Node24 -->
<g id="edge14" class="edge">
<title>Node23&#45;&gt;Node24</title>
<path fill="none" stroke="#191970" d="M1806.5,-46.1575C1806.5,-37.155 1806.5,-26.9199 1806.5,-19.6427"/>
<polygon fill="#191970" stroke="#191970" points="1803.0001,-46.2455 1806.5,-56.2455 1810.0001,-46.2456 1803.0001,-46.2455"/>
</g>
<!-- Node53 -->
<g id="node17" class="node">
<title>Node53</title>
<g id="a_node17"><a xlink:href="arch_2arm32-linux_2odp_2api_2abi_2cpumask_8h_source.html" target="_top" xlink:title="cpumask.h">
<polygon fill="#ffffff" stroke="#000000" points="2650.5,-224.5 2650.5,-243.5 2720.5,-243.5 2720.5,-224.5 2650.5,-224.5"/>
<text text-anchor="middle" x="2685.5" y="-231.5" font-family="Helvetica,sans-Serif" font-size="10.00" fill="#000000">cpumask.h</text>
</a>
</g>
</g>
<!-- Node52&#45;&gt;Node53 -->
<g id="edge17" class="edge">
<title>Node52&#45;&gt;Node53</title>
<path fill="none" stroke="#191970" d="M2378.6857,-284.3342C2438.8766,-276.54 2548.5776,-261.4728 2641.5,-244 2644.4255,-243.4499 2647.452,-242.8428 2650.4851,-242.2077"/>
<polygon fill="#191970" stroke="#191970" points="2378.2207,-280.8651 2368.7493,-285.613 2379.1143,-287.8079 2378.2207,-280.8651"/>
</g>
<!-- Node54 -->
<g id="node18" class="node">
<title>Node54</title>
<g id="a_node18"><a xlink:href="arch_2arm64-linux_2odp_2api_2abi_2cpumask_8h_source.html" target="_top" xlink:title="cpumask.h">
<polygon fill="#ffffff" stroke="#000000" points="2210.5,-224.5 2210.5,-243.5 2280.5,-243.5 2280.5,-224.5 2210.5,-224.5"/>
<text text-anchor="middle" x="2245.5" y="-231.5" font-family="Helvetica,sans-Serif" font-size="10.00" fill="#000000">cpumask.h</text>
</a>
</g>
</g>
<!-- Node52&#45;&gt;Node54 -->
<g id="edge18" class="edge">
<title>Node52&#45;&gt;Node54</title>
<path fill="none" stroke="#191970" d="M2309.5655,-274.769C2293.9717,-264.8456 2274.099,-252.1994 2260.6528,-243.6427"/>
<polygon fill="#191970" stroke="#191970" points="2307.8559,-277.8296 2318.1716,-280.2455 2311.614,-271.9239 2307.8559,-277.8296"/>
</g>
<!-- Node55 -->
<g id="node19" class="node">
<title>Node55</title>
<g id="a_node19"><a xlink:href="arch_2default-linux_2odp_2api_2abi_2cpumask_8h_source.html" target="_top" xlink:title="cpumask.h">
<polygon fill="#ffffff" stroke="#000000" points="2298.5,-224.5 2298.5,-243.5 2368.5,-243.5 2368.5,-224.5 2298.5,-224.5"/>
<text text-anchor="middle" x="2333.5" y="-231.5" font-family="Helvetica,sans-Serif" font-size="10.00" fill="#000000">cpumask.h</text>
</a>
</g>
</g>
<!-- Node52&#45;&gt;Node55 -->
<g id="edge19" class="edge">
<title>Node52&#45;&gt;Node55</title>
<path fill="none" stroke="#191970" d="M2333.5,-270.1575C2333.5,-261.155 2333.5,-250.9199 2333.5,-243.6427"/>
<polygon fill="#191970" stroke="#191970" points="2330.0001,-270.2455 2333.5,-280.2455 2337.0001,-270.2456 2330.0001,-270.2455"/>
</g>
<!-- Node56 -->
<g id="node20" class="node">
<title>Node56</title>
<g id="a_node20"><a xlink:href="arch_2mips64-linux_2odp_2api_2abi_2cpumask_8h_source.html" target="_top" xlink:title="cpumask.h">
<polygon fill="#ffffff" stroke="#000000" points="2386.5,-224.5 2386.5,-243.5 2456.5,-243.5 2456.5,-224.5 2386.5,-224.5"/>
<text text-anchor="middle" x="2421.5" y="-231.5" font-family="Helvetica,sans-Serif" font-size="10.00" fill="#000000">cpumask.h</text>
</a>
</g>
</g>
<!-- Node52&#45;&gt;Node56 -->
<g id="edge20" class="edge">
<title>Node52&#45;&gt;Node56</title>
<path fill="none" stroke="#191970" d="M2357.4345,-274.769C2373.0283,-264.8456 2392.901,-252.1994 2406.3472,-243.6427"/>
<polygon fill="#191970" stroke="#191970" points="2355.386,-271.9239 2348.8284,-280.2455 2359.1441,-277.8296 2355.386,-271.9239"/>
</g>
<!-- Node57 -->
<g id="node21" class="node">
<title>Node57</title>
<g id="a_node21"><a xlink:href="arch_2power64-linux_2odp_2api_2abi_2cpumask_8h_source.html" target="_top" xlink:title="cpumask.h">
<polygon fill="#ffffff" stroke="#000000" points="2474.5,-224.5 2474.5,-243.5 2544.5,-243.5 2544.5,-224.5 2474.5,-224.5"/>
<text text-anchor="middle" x="2509.5" y="-231.5" font-family="Helvetica,sans-Serif" font-size="10.00" fill="#000000">cpumask.h</text>
</a>
</g>
</g>
<!-- Node52&#45;&gt;Node57 -->
<g id="edge21" class="edge">
<title>Node52&#45;&gt;Node57</title>
<path fill="none" stroke="#191970" d="M2373.3404,-277.3235C2405.6173,-267.0536 2450.3852,-252.8093 2479.6393,-243.5011"/>
<polygon fill="#191970" stroke="#191970" points="2372.2235,-274.0059 2363.7555,-280.3733 2374.346,-280.6764 2372.2235,-274.0059"/>
</g>
<!-- Node58 -->
<g id="node22" class="node">
<title>Node58</title>
<g id="a_node22"><a xlink:href="arch_2x86__32-linux_2odp_2api_2abi_2cpumask_8h_source.html" target="_top" xlink:title="cpumask.h">
<polygon fill="#ffffff" stroke="#000000" points="2562.5,-224.5 2562.5,-243.5 2632.5,-243.5 2632.5,-224.5 2562.5,-224.5"/>
<text text-anchor="middle" x="2597.5" y="-231.5" font-family="Helvetica,sans-Serif" font-size="10.00" fill="#000000">cpumask.h</text>
</a>
</g>
</g>
<!-- Node52&#45;&gt;Node58 -->
<g id="edge22" class="edge">
<title>Node52&#45;&gt;Node58</title>
<path fill="none" stroke="#191970" d="M2378.5125,-280.8264C2423.0128,-271.7011 2493.0196,-257.1947 2553.5,-244 2556.4084,-243.3655 2559.4228,-242.699 2562.4478,-242.024"/>
<polygon fill="#191970" stroke="#191970" points="2377.6888,-277.4224 2368.5944,-282.8577 2379.0933,-284.28 2377.6888,-277.4224"/>
</g>
<!-- Node59 -->
<g id="node23" class="node">
<title>Node59</title>
<g id="a_node23"><a xlink:href="arch_2x86__64-linux_2odp_2api_2abi_2cpumask_8h_source.html" target="_top" xlink:title="cpumask.h">
<polygon fill="#ffffff" stroke="#000000" points="2122.5,-224.5 2122.5,-243.5 2192.5,-243.5 2192.5,-224.5 2122.5,-224.5"/>
<text text-anchor="middle" x="2157.5" y="-231.5" font-family="Helvetica,sans-Serif" font-size="10.00" fill="#000000">cpumask.h</text>
</a>
</g>
</g>
<!-- Node52&#45;&gt;Node59 -->
<g id="edge23" class="edge">
<title>Node52&#45;&gt;Node59</title>
<path fill="none" stroke="#191970" d="M2293.6596,-277.3235C2261.3827,-267.0536 2216.6148,-252.8093 2187.3607,-243.5011"/>
<polygon fill="#191970" stroke="#191970" points="2292.654,-280.6764 2303.2445,-280.3733 2294.7765,-274.0059 2292.654,-280.6764"/>
</g>
<!-- Node60 -->
<g id="node24" class="node">
<title>Node60</title>
<g id="a_node24"><a xlink:href="api_2cpumask_8h.html" target="_top" xlink:title="ODP CPU masks and enumeration. ">
<polygon fill="#ffffff" stroke="#ff0000" points="2122.5,-168.5 2122.5,-187.5 2192.5,-187.5 2192.5,-168.5 2122.5,-168.5"/>
<text text-anchor="middle" x="2157.5" y="-175.5" font-family="Helvetica,sans-Serif" font-size="10.00" fill="#000000">cpumask.h</text>
</a>
</g>
</g>
<!-- Node59&#45;&gt;Node60 -->
<g id="edge24" class="edge">
<title>Node59&#45;&gt;Node60</title>
<path fill="none" stroke="#191970" d="M2157.5,-214.1575C2157.5,-205.155 2157.5,-194.9199 2157.5,-187.6427"/>
<polygon fill="#191970" stroke="#191970" points="2154.0001,-214.2455 2157.5,-224.2455 2161.0001,-214.2456 2154.0001,-214.2455"/>
</g>
<!-- Node60&#45;&gt;Node23 -->
<g id="edge26" class="edge">
<title>Node60&#45;&gt;Node23</title>
<path fill="none" stroke="#191970" d="M2156.598,-157.885C2154.7974,-142.9299 2149.8312,-123.2429 2136.5,-112 2113.9204,-92.9574 1917.304,-75.0191 1838.7353,-68.5448"/>
<polygon fill="#191970" stroke="#191970" points="2153.1367,-158.5008 2157.4439,-168.1806 2160.1132,-157.9275 2153.1367,-158.5008"/>
</g>
<!-- Node72 -->
<g id="node25" class="node">
<title>Node72</title>
<g id="a_node25"><a xlink:href="api_2spec_2init_8h.html" target="_top" xlink:title="init.h">
<polygon fill="#ffffff" stroke="#ff0000" points="2087,-112.5 2087,-131.5 2128,-131.5 2128,-112.5 2087,-112.5"/>
<text text-anchor="middle" x="2107.5" y="-119.5" font-family="Helvetica,sans-Serif" font-size="10.00" fill="#000000">init.h</text>
</a>
</g>
</g>
<!-- Node60&#45;&gt;Node72 -->
<g id="edge25" class="edge">
<title>Node60&#45;&gt;Node72</title>
<path fill="none" stroke="#191970" d="M2141.8753,-160.5004C2133.3727,-150.9775 2123.1782,-139.5596 2116.1095,-131.6427"/>
<polygon fill="#191970" stroke="#191970" points="2139.5197,-163.1172 2148.7907,-168.2455 2144.7413,-158.4551 2139.5197,-163.1172"/>
</g>
<!-- Node77 -->
<g id="node27" class="node">
<title>Node77</title>
<g id="a_node27"><a xlink:href="api_2std__types_8h.html" target="_top" xlink:title="Standard C language types and definitions for ODP. ">
<polygon fill="#ffffff" stroke="#ff0000" points="1468,-336.5 1468,-355.5 1541,-355.5 1541,-336.5 1468,-336.5"/>
<text text-anchor="middle" x="1504.5" y="-343.5" font-family="Helvetica,sans-Serif" font-size="10.00" fill="#000000">std_types.h</text>
</a>
</g>
</g>
<!-- Node76&#45;&gt;Node77 -->
<g id="edge28" class="edge">
<title>Node76&#45;&gt;Node77</title>
<path fill="none" stroke="#191970" d="M1656.2804,-389.5882C1620.4538,-379.2996 1570.2759,-364.8895 1537.5843,-355.5011"/>
<polygon fill="#191970" stroke="#191970" points="1655.4007,-392.977 1665.9783,-392.3733 1657.3329,-386.2489 1655.4007,-392.977"/>
</g>
<!-- Node77&#45;&gt;Node5 -->
<g id="edge29" class="edge">
<title>Node77&#45;&gt;Node5</title>
<path fill="none" stroke="#191970" d="M1457.8615,-345.2991C1269.4113,-342.29 563.7369,-329.2663 342.5,-300 337.8404,-299.3836 332.948,-298.5068 328.1878,-297.5256"/>
<polygon fill="#191970" stroke="#191970" points="1457.9342,-348.8006 1467.9883,-345.4591 1458.0449,-341.8015 1457.9342,-348.8006"/>
</g>
<!-- Node77&#45;&gt;Node14 -->
<g id="edge30" class="edge">
<title>Node77&#45;&gt;Node14</title>
<path fill="none" stroke="#191970" d="M1497.149,-326.5209C1490.7625,-311.9445 1480.2138,-292.4552 1465.5,-280 1346.4328,-179.2098 1155.9623,-138.6237 1084.1463,-126.3732"/>
<polygon fill="#191970" stroke="#191970" points="1494.0395,-328.164 1501.0638,-336.0956 1500.5188,-325.5148 1494.0395,-328.164"/>
</g>
<!-- Node77&#45;&gt;Node22 -->
<g id="edge40" class="edge">
<title>Node77&#45;&gt;Node22</title>
<path fill="none" stroke="#191970" d="M1457.6849,-345.8804C1249.1694,-345.1228 413.5355,-339.6168 375.5,-300 369.3439,-293.5879 369.9761,-286.9641 375.5,-280 419.1807,-224.9306 481.4942,-295.3428 529.5,-244 559.1107,-212.3309 554.4444,-154.68 551.1583,-131.7676"/>
<polygon fill="#191970" stroke="#191970" points="1457.6902,-349.3804 1467.7022,-345.9149 1457.7143,-342.3804 1457.6902,-349.3804"/>
</g>
<!-- Node77&#45;&gt;Node23 -->
<g id="edge66" class="edge">
<title>Node77&#45;&gt;Node23</title>
<path fill="none" stroke="#191970" d="M1551.3158,-341.2056C1624.0812,-333.2773 1757.4728,-316.6506 1771.5,-300 1781.0821,-288.6259 1778.6784,-254.8989 1763.5,-224 1753.6611,-203.9708 1736.8943,-208.6763 1728.5,-188 1725.1563,-179.764 1725.6497,-176.4195 1728.5,-168 1741.8673,-128.514 1777.3254,-92.289 1795.4685,-75.6299"/>
<polygon fill="#191970" stroke="#191970" points="1550.6093,-337.7613 1541.0412,-342.3112 1551.3583,-344.7211 1550.6093,-337.7613"/>
</g>
<!-- Node77&#45;&gt;Node52 -->
<g id="edge32" class="edge">
<title>Node77&#45;&gt;Node52</title>
<path fill="none" stroke="#191970" d="M1551.4253,-342.8301C1701.2553,-332.7089 2166.0713,-301.31 2298.1627,-292.3871"/>
<polygon fill="#191970" stroke="#191970" points="1550.9321,-339.3554 1541.1908,-343.5215 1551.4039,-346.3395 1550.9321,-339.3554"/>
</g>
<!-- Node77&#45;&gt;Node72 -->
<g id="edge60" class="edge">
<title>Node77&#45;&gt;Node72</title>
<path fill="none" stroke="#191970" d="M1551.4446,-344.17C1690.6193,-338.5194 2092.5053,-320.4887 2111.5,-300 2117.2529,-293.7947 2110.2356,-167.9411 2108.087,-131.6912"/>
<polygon fill="#191970" stroke="#191970" points="1550.9645,-340.6864 1541.1136,-344.5862 1551.2464,-347.6807 1550.9645,-340.6864"/>
</g>
<!-- Node78 -->
<g id="node28" class="node">
<title>Node78</title>
<g id="a_node28"><a xlink:href="api_2abi-default_2byteorder_8h.html" target="_top" xlink:title="ODP byteorder. ">
<polygon fill="#ffffff" stroke="#ff0000" points="2030.5,-280.5 2030.5,-299.5 2102.5,-299.5 2102.5,-280.5 2030.5,-280.5"/>
<text text-anchor="middle" x="2066.5" y="-287.5" font-family="Helvetica,sans-Serif" font-size="10.00" fill="#000000">byteorder.h</text>
</a>
</g>
</g>
<!-- Node77&#45;&gt;Node78 -->
<g id="edge31" class="edge">
<title>Node77&#45;&gt;Node78</title>
<path fill="none" stroke="#191970" d="M1551.48,-343.4779C1641.8746,-338.2498 1846.1442,-324.6151 2016.5,-300 2020.9684,-299.3544 2025.6408,-298.5691 2030.2586,-297.7254"/>
<polygon fill="#191970" stroke="#191970" points="1551.0718,-339.9954 1541.2875,-344.0595 1551.4707,-346.9841 1551.0718,-339.9954"/>
</g>
<!-- Node87 -->
<g id="node29" class="node">
<title>Node87</title>
<g id="a_node29"><a xlink:href="api_2abi-default_2init_8h.html" target="_top" xlink:title="ODP initialization. ">
<polygon fill="#ffffff" stroke="#ff0000" points="385,-280.5 385,-299.5 426,-299.5 426,-280.5 385,-280.5"/>
<text text-anchor="middle" x="405.5" y="-287.5" font-family="Helvetica,sans-Serif" font-size="10.00" fill="#000000">init.h</text>
</a>
</g>
</g>
<!-- Node77&#45;&gt;Node87 -->
<g id="edge33" class="edge">
<title>Node77&#45;&gt;Node87</title>
<path fill="none" stroke="#191970" d="M1457.6808,-345.7813C1278.3188,-344.6656 634.9894,-338.041 434.5,-300 431.7792,-299.4838 428.9672,-298.7646 426.2133,-297.9464"/>
<polygon fill="#191970" stroke="#191970" points="1457.8195,-349.2821 1467.8402,-345.8416 1457.8612,-342.2822 1457.8195,-349.2821"/>
</g>
<!-- Node95 -->
<g id="node30" class="node">
<title>Node95</title>
<g id="a_node30"><a xlink:href="api_2abi-default_2ipsec_8h.html" target="_top" xlink:title="ODP IPSEC API &#45; platform specific types. ">
<polygon fill="#ffffff" stroke="#ff0000" points="444,-280.5 444,-299.5 495,-299.5 495,-280.5 444,-280.5"/>
<text text-anchor="middle" x="469.5" y="-287.5" font-family="Helvetica,sans-Serif" font-size="10.00" fill="#000000">ipsec.h</text>
</a>
</g>
</g>
<!-- Node77&#45;&gt;Node95 -->
<g id="edge34" class="edge">
<title>Node77&#45;&gt;Node95</title>
<path fill="none" stroke="#191970" d="M1457.6733,-345.3379C1285.8972,-342.6776 690.675,-331.3571 503.5,-300 500.83,-299.5527 498.0734,-298.9637 495.3388,-298.295"/>
<polygon fill="#191970" stroke="#191970" points="1457.8461,-348.8409 1467.8983,-345.4937 1457.9528,-341.8417 1457.8461,-348.8409"/>
</g>
<!-- Node104 -->
<g id="node31" class="node">
<title>Node104</title>
<g id="a_node31"><a xlink:href="api_2abi-default_2packet__io_8h.html" target="_top" xlink:title="ODP Packet IO. ">
<polygon fill="#ffffff" stroke="#ff0000" points="513,-280.5 513,-299.5 586,-299.5 586,-280.5 513,-280.5"/>
<text text-anchor="middle" x="549.5" y="-287.5" font-family="Helvetica,sans-Serif" font-size="10.00" fill="#000000">packet_io.h</text>
</a>
</g>
</g>
<!-- Node77&#45;&gt;Node104 -->
<g id="edge35" class="edge">
<title>Node77&#45;&gt;Node104</title>
<path fill="none" stroke="#191970" d="M1457.8124,-344.6477C1296.7325,-339.8239 764.8613,-322.5401 595.5,-300 592.4215,-299.5903 589.2434,-299.0819 586.0631,-298.5131"/>
<polygon fill="#191970" stroke="#191970" points="1457.7787,-348.1481 1467.8785,-344.9473 1457.9871,-341.1512 1457.7787,-348.1481"/>
</g>
<!-- Node34 -->
<g id="node32" class="node">
<title>Node34</title>
<g id="a_node32"><a xlink:href="api_2abi-default_2rwlock__recursive_8h.html" target="_top" xlink:title="ODP recursive read/write lock. ">
<polygon fill="#ffffff" stroke="#ff0000" points="604.5,-280.5 604.5,-299.5 712.5,-299.5 712.5,-280.5 604.5,-280.5"/>
<text text-anchor="middle" x="658.5" y="-287.5" font-family="Helvetica,sans-Serif" font-size="10.00" fill="#000000">rwlock_recursive.h</text>
</a>
</g>
</g>
<!-- Node77&#45;&gt;Node34 -->
<g id="edge36" class="edge">
<title>Node77&#45;&gt;Node34</title>
<path fill="none" stroke="#191970" d="M1457.6086,-344.8595C1335.8441,-341.5485 999.7152,-330.1784 721.5,-300 718.6374,-299.6895 715.7065,-299.3389 712.7506,-298.9596"/>
<polygon fill="#191970" stroke="#191970" points="1457.6125,-348.3608 1467.7023,-345.1287 1457.7992,-341.3633 1457.6125,-348.3608"/>
</g>
<!-- Node132 -->
<g id="node33" class="node">
<title>Node132</title>
<g id="a_node33"><a xlink:href="api_2abi-default_2schedule_8h.html" target="_top" xlink:title="ODP schedule. ">
<polygon fill="#ffffff" stroke="#ff0000" points="731,-280.5 731,-299.5 800,-299.5 800,-280.5 731,-280.5"/>
<text text-anchor="middle" x="765.5" y="-287.5" font-family="Helvetica,sans-Serif" font-size="10.00" fill="#000000">schedule.h</text>
</a>
</g>
</g>
<!-- Node77&#45;&gt;Node132 -->
<g id="edge37" class="edge">
<title>Node77&#45;&gt;Node132</title>
<path fill="none" stroke="#191970" d="M1457.4181,-345.4339C1344.8494,-343.5268 1051.4813,-335.2818 809.5,-300 806.5543,-299.5705 803.5137,-299.0482 800.4712,-298.4701"/>
<polygon fill="#191970" stroke="#191970" points="1457.6848,-348.9386 1467.7396,-345.5994 1457.7971,-341.9395 1457.6848,-348.9386"/>
</g>
<!-- Node140 -->
<g id="node34" class="node">
<title>Node140</title>
<g id="a_node34"><a xlink:href="api_2abi-default_2spinlock__recursive_8h.html" target="_top" xlink:title="ODP recursive spinlock. ">
<polygon fill="#ffffff" stroke="#ff0000" points="818.5,-280.5 818.5,-299.5 934.5,-299.5 934.5,-280.5 818.5,-280.5"/>
<text text-anchor="middle" x="876.5" y="-287.5" font-family="Helvetica,sans-Serif" font-size="10.00" fill="#000000">spinlock_recursive.h</text>
</a>
</g>
</g>
<!-- Node77&#45;&gt;Node140 -->
<g id="edge38" class="edge">
<title>Node77&#45;&gt;Node140</title>
<path fill="none" stroke="#191970" d="M1458.0051,-343.2349C1361.7806,-337.2817 1133.8731,-321.9874 943.5,-300 940.5792,-299.6627 937.5899,-299.2958 934.5734,-298.9085"/>
<polygon fill="#191970" stroke="#191970" points="1457.7951,-346.7285 1467.9909,-343.8483 1458.2243,-339.7417 1457.7951,-346.7285"/>
</g>
<!-- Node149 -->
<g id="node35" class="node">
<title>Node149</title>
<g id="a_node35"><a xlink:href="api_2abi-default_2traffic__mngr_8h.html" target="_top" xlink:title="ODP traffic mngr. ">
<polygon fill="#ffffff" stroke="#ff0000" points="952.5,-280.5 952.5,-299.5 1036.5,-299.5 1036.5,-280.5 952.5,-280.5"/>
<text text-anchor="middle" x="994.5" y="-287.5" font-family="Helvetica,sans-Serif" font-size="10.00" fill="#000000">traffic_mngr.h</text>
</a>
</g>
</g>
<!-- Node77&#45;&gt;Node149 -->
<g id="edge39" class="edge">
<title>Node77&#45;&gt;Node149</title>
<path fill="none" stroke="#191970" d="M1457.6174,-342.7603C1374.3622,-336.6827 1195.3633,-322.1522 1045.5,-300 1042.6437,-299.5778 1039.7047,-299.1049 1036.7481,-298.6006"/>
<polygon fill="#191970" stroke="#191970" points="1457.5383,-346.2637 1467.7646,-343.4937 1458.043,-339.2819 1457.5383,-346.2637"/>
</g>
<!-- Node157 -->
<g id="node36" class="node">
<title>Node157</title>
<g id="a_node36"><a xlink:href="api_2buffer_8h.html" target="_top" xlink:title="ODP buffer descriptor. ">
<polygon fill="#ffffff" stroke="#000000" points="1738,-168.5 1738,-187.5 1791,-187.5 1791,-168.5 1738,-168.5"/>
<text text-anchor="middle" x="1764.5" y="-175.5" font-family="Helvetica,sans-Serif" font-size="10.00" fill="#000000">buffer.h</text>
</a>
</g>
</g>
<!-- Node77&#45;&gt;Node157 -->
<g id="edge41" class="edge">
<title>Node77&#45;&gt;Node157</title>
<path fill="none" stroke="#191970" d="M1551.1745,-342.6756C1636.0783,-336.1514 1808.7188,-320.5019 1826.5,-300 1857.6335,-264.1027 1802.2791,-209.8321 1776.5718,-187.8064"/>
<polygon fill="#191970" stroke="#191970" points="1550.7334,-339.1989 1541.0262,-343.4441 1551.262,-346.179 1550.7334,-339.1989"/>
</g>
<!-- Node112 -->
<g id="node37" class="node">
<title>Node112</title>
<g id="a_node37"><a xlink:href="api_2classification_8h.html" target="_top" xlink:title="ODP classification descriptor. ">
<polygon fill="#ffffff" stroke="#ff0000" points="1809,-168.5 1809,-187.5 1898,-187.5 1898,-168.5 1809,-168.5"/>
<text text-anchor="middle" x="1853.5" y="-175.5" font-family="Helvetica,sans-Serif" font-size="10.00" fill="#000000">classification.h</text>
</a>
</g>
</g>
<!-- Node77&#45;&gt;Node112 -->
<g id="edge43" class="edge">
<title>Node77&#45;&gt;Node112</title>
<path fill="none" stroke="#191970" d="M1551.2458,-342.9454C1639.9668,-336.6852 1825.7211,-321.1846 1845.5,-300 1874.7607,-268.6597 1862.8253,-210.8187 1856.4881,-187.8115"/>
<polygon fill="#191970" stroke="#191970" points="1550.9131,-339.46 1541.18,-343.6453 1551.3987,-346.4431 1550.9131,-339.46"/>
</g>
<!-- Node118 -->
<g id="node38" class="node">
<title>Node118</title>
<g id="a_node38"><a xlink:href="api_2crypto_8h.html" target="_top" xlink:title="ODP crypto. ">
<polygon fill="#ffffff" stroke="#ff0000" points="1866.5,-112.5 1866.5,-131.5 1922.5,-131.5 1922.5,-112.5 1866.5,-112.5"/>
<text text-anchor="middle" x="1894.5" y="-119.5" font-family="Helvetica,sans-Serif" font-size="10.00" fill="#000000">crypto.h</text>
</a>
</g>
</g>
<!-- Node77&#45;&gt;Node118 -->
<g id="edge45" class="edge">
<title>Node77&#45;&gt;Node118</title>
<path fill="none" stroke="#191970" d="M1551.2604,-342.7788C1643.5555,-336.0314 1842.3413,-319.42 1866.5,-300 1914.2783,-261.5935 1914.3003,-228.8028 1906.5,-168 1904.8617,-155.2294 1900.764,-140.9414 1897.8127,-131.7276"/>
<polygon fill="#191970" stroke="#191970" points="1550.8017,-339.3027 1541.08,-343.5146 1551.3063,-346.2845 1550.8017,-339.3027"/>
</g>
<!-- Node114 -->
<g id="node39" class="node">
<title>Node114</title>
<g id="a_node39"><a xlink:href="api_2packet_8h.html" target="_top" xlink:title="ODP packet descriptor. ">
<polygon fill="#ffffff" stroke="#ff0000" points="1590,-280.5 1590,-299.5 1649,-299.5 1649,-280.5 1590,-280.5"/>
<text text-anchor="middle" x="1619.5" y="-287.5" font-family="Helvetica,sans-Serif" font-size="10.00" fill="#000000">packet.h</text>
</a>
</g>
</g>
<!-- Node77&#45;&gt;Node114 -->
<g id="edge47" class="edge">
<title>Node77&#45;&gt;Node114</title>
<path fill="none" stroke="#191970" d="M1533.3033,-331.9741C1554.125,-321.8348 1581.6978,-308.408 1599.9888,-299.5011"/>
<polygon fill="#191970" stroke="#191970" points="1531.7276,-328.8484 1524.2692,-336.3733 1534.7922,-335.1419 1531.7276,-328.8484"/>
</g>
<!-- Node130 -->
<g id="node40" class="node">
<title>Node130</title>
<g id="a_node40"><a xlink:href="api_2spec_2packet__flags_8h.html" target="_top" xlink:title="ODP packet flags. ">
<polygon fill="#ffffff" stroke="#ff0000" points="1554,-224.5 1554,-243.5 1641,-243.5 1641,-224.5 1554,-224.5"/>
<text text-anchor="middle" x="1597.5" y="-231.5" font-family="Helvetica,sans-Serif" font-size="10.00" fill="#000000">packet_flags.h</text>
</a>
</g>
</g>
<!-- Node77&#45;&gt;Node130 -->
<g id="edge61" class="edge">
<title>Node77&#45;&gt;Node130</title>
<path fill="none" stroke="#191970" d="M1519.0085,-328.5274C1538.9027,-304.5688 1573.959,-262.3505 1589.5909,-243.5249"/>
<polygon fill="#191970" stroke="#191970" points="1516.1248,-326.5215 1512.4291,-336.4509 1521.5102,-330.9934 1516.1248,-326.5215"/>
</g>
<!-- Node126 -->
<g id="node41" class="node">
<title>Node126</title>
<g id="a_node41"><a xlink:href="api_2packet__io_8h.html" target="_top" xlink:title="ODP Packet IO. ">
<polygon fill="#ffffff" stroke="#ff0000" points="1955,-168.5 1955,-187.5 2028,-187.5 2028,-168.5 1955,-168.5"/>
<text text-anchor="middle" x="1991.5" y="-175.5" font-family="Helvetica,sans-Serif" font-size="10.00" fill="#000000">packet_io.h</text>
</a>
</g>
</g>
<!-- Node77&#45;&gt;Node126 -->
<g id="edge50" class="edge">
<title>Node77&#45;&gt;Node126</title>
<path fill="none" stroke="#191970" d="M1551.1251,-343.7497C1657.1879,-338.2541 1909.7391,-322.9018 1940.5,-300 1978.0642,-272.0331 1988.1459,-211.1672 1990.6918,-187.5944"/>
<polygon fill="#191970" stroke="#191970" points="1550.8386,-340.2596 1541.0304,-344.2658 1551.1961,-347.2505 1550.8386,-340.2596"/>
</g>
<!-- Node158 -->
<g id="node42" class="node">
<title>Node158</title>
<g id="a_node42"><a xlink:href="api_2proto__stats_8h.html" target="_top" xlink:title="ODP proto stats. ">
<polygon fill="#ffffff" stroke="#000000" points="1987.5,-112.5 1987.5,-131.5 2067.5,-131.5 2067.5,-112.5 1987.5,-112.5"/>
<text text-anchor="middle" x="2027.5" y="-119.5" font-family="Helvetica,sans-Serif" font-size="10.00" fill="#000000">proto_stats.h</text>
</a>
</g>
</g>
<!-- Node77&#45;&gt;Node158 -->
<g id="edge52" class="edge">
<title>Node77&#45;&gt;Node158</title>
<path fill="none" stroke="#191970" d="M1551.4895,-343.6118C1661.6355,-337.687 1929.8154,-321.2445 1964.5,-300 2014.9627,-269.0913 2019.8242,-244.778 2036.5,-188 2042.2355,-168.4715 2035.8308,-144.5994 2031.2677,-131.5864"/>
<polygon fill="#191970" stroke="#191970" points="1551.1366,-340.1255 1541.3367,-344.1521 1551.5087,-347.1156 1551.1366,-340.1255"/>
</g>
<!-- Node122 -->
<g id="node43" class="node">
<title>Node122</title>
<g id="a_node43"><a xlink:href="api_2queue_8h.html" target="_top" xlink:title="ODP queue. ">
<polygon fill="#ffffff" stroke="#ff0000" points="1551.5,-168.5 1551.5,-187.5 1607.5,-187.5 1607.5,-168.5 1551.5,-168.5"/>
<text text-anchor="middle" x="1579.5" y="-175.5" font-family="Helvetica,sans-Serif" font-size="10.00" fill="#000000">queue.h</text>
</a>
</g>
</g>
<!-- Node77&#45;&gt;Node122 -->
<g id="edge54" class="edge">
<title>Node77&#45;&gt;Node122</title>
<path fill="none" stroke="#191970" d="M1508.777,-326.4238C1514.6653,-301.635 1526.6138,-258.0544 1544.5,-224 1551.6859,-210.3185 1562.892,-196.4512 1570.681,-187.5726"/>
<polygon fill="#191970" stroke="#191970" points="1505.3155,-325.8605 1506.4984,-336.3891 1512.1394,-327.4209 1505.3155,-325.8605"/>
</g>
<!-- Node159 -->
<g id="node44" class="node">
<title>Node159</title>
<g id="a_node44"><a xlink:href="spec_2chksum_8h.html" target="_top" xlink:title="ODP checksum functions. ">
<polygon fill="#ffffff" stroke="#ff0000" points="1054.5,-280.5 1054.5,-299.5 1118.5,-299.5 1118.5,-280.5 1054.5,-280.5"/>
<text text-anchor="middle" x="1086.5" y="-287.5" font-family="Helvetica,sans-Serif" font-size="10.00" fill="#000000">chksum.h</text>
</a>
</g>
</g>
<!-- Node77&#45;&gt;Node159 -->
<g id="edge56" class="edge">
<title>Node77&#45;&gt;Node159</title>
<path fill="none" stroke="#191970" d="M1457.8577,-342.0913C1386.3734,-335.7 1245.5896,-321.5282 1127.5,-300 1124.6168,-299.4744 1121.6337,-298.8689 1118.6522,-298.2213"/>
<polygon fill="#191970" stroke="#191970" points="1457.6215,-345.5839 1467.8908,-342.9777 1458.2377,-338.6111 1457.6215,-345.5839"/>
</g>
<!-- Node161 -->
<g id="node45" class="node">
<title>Node161</title>
<g id="a_node45"><a xlink:href="api_2spec_2cpu_8h.html" target="_top" xlink:title="ODP CPU API. ">
<polygon fill="#ffffff" stroke="#ff0000" points="1137,-280.5 1137,-299.5 1180,-299.5 1180,-280.5 1137,-280.5"/>
<text text-anchor="middle" x="1158.5" y="-287.5" font-family="Helvetica,sans-Serif" font-size="10.00" fill="#000000">cpu.h</text>
</a>
</g>
</g>
<!-- Node77&#45;&gt;Node161 -->
<g id="edge57" class="edge">
<title>Node77&#45;&gt;Node161</title>
<path fill="none" stroke="#191970" d="M1457.3332,-341.7685C1395.1389,-335.5913 1282.5756,-322.3402 1188.5,-300 1185.8292,-299.3658 1183.0573,-298.5978 1180.3257,-297.7726"/>
<polygon fill="#191970" stroke="#191970" points="1457.3159,-345.2833 1467.6082,-342.77 1457.995,-338.3164 1457.3159,-345.2833"/>
</g>
<!-- Node163 -->
<g id="node46" class="node">
<title>Node163</title>
<g id="a_node46"><a xlink:href="spec_2feature_8h.html" target="_top" xlink:title="ODP features. ">
<polygon fill="#ffffff" stroke="#ff0000" points="1198,-280.5 1198,-299.5 1259,-299.5 1259,-280.5 1198,-280.5"/>
<text text-anchor="middle" x="1228.5" y="-287.5" font-family="Helvetica,sans-Serif" font-size="10.00" fill="#000000">feature.h</text>
</a>
</g>
</g>
<!-- Node77&#45;&gt;Node163 -->
<g id="edge58" class="edge">
<title>Node77&#45;&gt;Node163</title>
<path fill="none" stroke="#191970" d="M1457.7483,-337.7713C1409.8221,-329.1379 1333.2152,-314.7888 1267.5,-300 1264.7723,-299.3861 1261.9448,-298.72 1259.1154,-298.0328"/>
<polygon fill="#191970" stroke="#191970" points="1457.3583,-341.2571 1467.8191,-339.5773 1458.594,-334.367 1457.3583,-341.2571"/>
</g>
<!-- Node165 -->
<g id="node47" class="node">
<title>Node165</title>
<g id="a_node47"><a xlink:href="api_2spec_2hash_8h.html" target="_top" xlink:title="ODP Hash functions. ">
<polygon fill="#ffffff" stroke="#ff0000" points="1277,-280.5 1277,-299.5 1326,-299.5 1326,-280.5 1277,-280.5"/>
<text text-anchor="middle" x="1301.5" y="-287.5" font-family="Helvetica,sans-Serif" font-size="10.00" fill="#000000">hash.h</text>
</a>
</g>
</g>
<!-- Node77&#45;&gt;Node165 -->
<g id="edge59" class="edge">
<title>Node77&#45;&gt;Node165</title>
<path fill="none" stroke="#191970" d="M1458.207,-333.8747C1423.9651,-324.8086 1376.2305,-311.9658 1334.5,-300 1331.8529,-299.241 1329.0916,-298.4318 1326.3427,-297.6151"/>
<polygon fill="#191970" stroke="#191970" points="1457.3718,-337.2741 1467.9341,-336.4447 1459.1599,-330.5063 1457.3718,-337.2741"/>
</g>
<!-- Node167 -->
<g id="node48" class="node">
<title>Node167</title>
<g id="a_node48"><a xlink:href="api_2spec_2pool_8h.html" target="_top" xlink:title="ODP pool. ">
<polygon fill="#ffffff" stroke="#ff0000" points="1708,-224.5 1708,-243.5 1755,-243.5 1755,-224.5 1708,-224.5"/>
<text text-anchor="middle" x="1731.5" y="-231.5" font-family="Helvetica,sans-Serif" font-size="10.00" fill="#000000">pool.h</text>
</a>
</g>
</g>
<!-- Node77&#45;&gt;Node167 -->
<g id="edge62" class="edge">
<title>Node77&#45;&gt;Node167</title>
<path fill="none" stroke="#191970" d="M1551.4474,-344.2798C1616.5636,-340.7944 1729.1672,-330.4193 1754.5,-300 1768.4772,-283.2164 1751.4281,-257.4053 1740.0733,-243.5592"/>
<polygon fill="#191970" stroke="#191970" points="1551.2372,-340.7858 1541.425,-344.782 1551.5876,-347.777 1551.2372,-340.7858"/>
</g>
<!-- Node169 -->
<g id="node49" class="node">
<title>Node169</title>
<g id="a_node49"><a xlink:href="pool__types_8h.html" target="_top" xlink:title="Type definitions for pools. ">
<polygon fill="#ffffff" stroke="#000000" points="1667,-280.5 1667,-299.5 1746,-299.5 1746,-280.5 1667,-280.5"/>
<text text-anchor="middle" x="1706.5" y="-287.5" font-family="Helvetica,sans-Serif" font-size="10.00" fill="#000000">pool_types.h</text>
</a>
</g>
</g>
<!-- Node77&#45;&gt;Node169 -->
<g id="edge63" class="edge">
<title>Node77&#45;&gt;Node169</title>
<path fill="none" stroke="#191970" d="M1549.2711,-333.5882C1586.3838,-323.2996 1638.3629,-308.8895 1672.2281,-299.5011"/>
<polygon fill="#191970" stroke="#191970" points="1547.9265,-330.3289 1539.225,-336.3733 1549.7966,-337.0745 1547.9265,-330.3289"/>
</g>
<!-- Node170 -->
<g id="node50" class="node">
<title>Node170</title>
<g id="a_node50"><a xlink:href="api_2spec_2proto__stats__types_8h.html" target="_top" xlink:title="ODP proto stats types. ">
<polygon fill="#ffffff" stroke="#ff0000" points="1344,-280.5 1344,-299.5 1457,-299.5 1457,-280.5 1344,-280.5"/>
<text text-anchor="middle" x="1400.5" y="-287.5" font-family="Helvetica,sans-Serif" font-size="10.00" fill="#000000">proto_stats_types.h</text>
</a>
</g>
</g>
<!-- Node77&#45;&gt;Node170 -->
<g id="edge65" class="edge">
<title>Node77&#45;&gt;Node170</title>
<path fill="none" stroke="#191970" d="M1477.4971,-331.46C1458.8864,-321.4388 1434.6701,-308.3993 1418.4078,-299.6427"/>
<polygon fill="#191970" stroke="#191970" points="1475.9205,-334.5861 1486.3846,-336.2455 1479.2392,-328.4228 1475.9205,-334.5861"/>
</g>
<!-- Node157&#45;&gt;Node23 -->
<g id="edge42" class="edge">
<title>Node157&#45;&gt;Node23</title>
<path fill="none" stroke="#191970" d="M1771.653,-158.9253C1780.7269,-134.7284 1796.0234,-93.9376 1802.9282,-75.5249"/>
<polygon fill="#191970" stroke="#191970" points="1768.315,-157.8587 1768.0809,-168.4509 1774.8693,-160.3166 1768.315,-157.8587"/>
</g>
<!-- Node112&#45;&gt;Node23 -->
<g id="edge44" class="edge">
<title>Node112&#45;&gt;Node23</title>
<path fill="none" stroke="#191970" d="M1845.4954,-158.9253C1835.3414,-134.7284 1818.2238,-93.9376 1810.4971,-75.5249"/>
<polygon fill="#191970" stroke="#191970" points="1842.3959,-160.5843 1849.4928,-168.4509 1848.8506,-157.8756 1842.3959,-160.5843"/>
</g>
<!-- Node118&#45;&gt;Node23 -->
<g id="edge46" class="edge">
<title>Node118&#45;&gt;Node23</title>
<path fill="none" stroke="#191970" d="M1870.5655,-106.769C1854.9717,-96.8456 1835.099,-84.1994 1821.6528,-75.6427"/>
<polygon fill="#191970" stroke="#191970" points="1868.8559,-109.8296 1879.1716,-112.2455 1872.614,-103.9239 1868.8559,-109.8296"/>
</g>
<!-- Node114&#45;&gt;Node23 -->
<g id="edge49" class="edge">
<title>Node114&#45;&gt;Node23</title>
<path fill="none" stroke="#191970" d="M1632.8452,-271.7837C1638.4734,-263.5677 1644.7963,-253.5752 1649.5,-244 1676.8924,-188.2379 1652.8517,-157.176 1695.5,-112 1716.4786,-89.7781 1749.7977,-77.9254 1774.463,-71.8514"/>
<polygon fill="#191970" stroke="#191970" points="1629.8196,-270.0006 1626.9093,-280.1879 1635.5373,-274.039 1629.8196,-270.0006"/>
</g>
<!-- Node114&#45;&gt;Node130 -->
<g id="edge48" class="edge">
<title>Node114&#45;&gt;Node130</title>
<path fill="none" stroke="#191970" d="M1611.9372,-270.7493C1608.3454,-261.6064 1604.2099,-251.0798 1601.2882,-243.6427"/>
<polygon fill="#191970" stroke="#191970" points="1608.7537,-272.2178 1615.6679,-280.2455 1615.2689,-269.6582 1608.7537,-272.2178"/>
</g>
<!-- Node126&#45;&gt;Node23 -->
<g id="edge51" class="edge">
<title>Node126&#45;&gt;Node23</title>
<path fill="none" stroke="#191970" d="M1978.8598,-159.8227C1967.837,-145.151 1950.6446,-124.8962 1931.5,-112 1902.8278,-92.6859 1865.0141,-80.2423 1838.5142,-73.2315"/>
<polygon fill="#191970" stroke="#191970" points="1976.1789,-162.0873 1984.888,-168.1206 1981.8422,-157.973 1976.1789,-162.0873"/>
</g>
<!-- Node158&#45;&gt;Node23 -->
<g id="edge53" class="edge">
<title>Node158&#45;&gt;Node23</title>
<path fill="none" stroke="#191970" d="M1979.8841,-109.9344C1937.2273,-99.1255 1875.8293,-83.5676 1838.6967,-74.1584"/>
<polygon fill="#191970" stroke="#191970" points="1979.2065,-113.3733 1989.7599,-112.4369 1980.9259,-106.5877 1979.2065,-113.3733"/>
</g>
<!-- Node122&#45;&gt;Node23 -->
<g id="edge55" class="edge">
<title>Node122&#45;&gt;Node23</title>
<path fill="none" stroke="#191970" d="M1595.7262,-160.5245C1610.3418,-145.7171 1633.073,-124.8925 1656.5,-112 1694.3239,-91.1845 1742.8115,-78.511 1774.2588,-71.8768"/>
<polygon fill="#191970" stroke="#191970" points="1592.9021,-158.4115 1588.4884,-168.0432 1597.9452,-163.2661 1592.9021,-158.4115"/>
</g>
<!-- Node169&#45;&gt;Node167 -->
<g id="edge64" class="edge">
<title>Node169&#45;&gt;Node167</title>
<path fill="none" stroke="#191970" d="M1714.9626,-271.0437C1719.0745,-261.8331 1723.8394,-251.1598 1727.1952,-243.6427"/>
<polygon fill="#191970" stroke="#191970" points="1711.7352,-269.6874 1710.8547,-280.2455 1718.1272,-272.541 1711.7352,-269.6874"/>
</g>
</g>
</svg>
