<?xml version="1.0" encoding="UTF-8" standalone="no"?>
<!DOCTYPE svg PUBLIC "-//W3C//DTD SVG 1.1//EN"
 "http://www.w3.org/Graphics/SVG/1.1/DTD/svg11.dtd">
<!-- Generated by graphviz version 2.40.1 (20161225.0304)
 -->
<!-- Title: std_types.h Pages: 1 -->
<svg width="3556pt" height="140pt"
 viewBox="0.00 0.00 3556.00 140.00" xmlns="http://www.w3.org/2000/svg" xmlns:xlink="http://www.w3.org/1999/xlink">
<g id="graph0" class="graph" transform="scale(1 1) rotate(0) translate(4 136)">
<title>std_types.h</title>
<polygon fill="#ffffff" stroke="transparent" points="-4,4 -4,-136 3552,-136 3552,4 -4,4"/>
<!-- Node9 -->
<g id="node1" class="node">
<title>Node9</title>
<polygon fill="#bfbfbf" stroke="#000000" points="2066,-112.5 2066,-131.5 2139,-131.5 2139,-112.5 2066,-112.5"/>
<text text-anchor="middle" x="2102.5" y="-119.5" font-family="Helvetica,sans-Serif" font-size="10.00" fill="#000000">std_types.h</text>
</g>
<!-- Node10 -->
<g id="node2" class="node">
<title>Node10</title>
<g id="a_node2"><a xlink:href="api_2abi-default_2atomic_8h.html" target="_top" xlink:title="ODP atomic operations. ">
<polygon fill="#ffffff" stroke="#000000" points="270,-56.5 270,-75.5 329,-75.5 329,-56.5 270,-56.5"/>
<text text-anchor="middle" x="299.5" y="-63.5" font-family="Helvetica,sans-Serif" font-size="10.00" fill="#000000">atomic.h</text>
</a>
</g>
</g>
<!-- Node9&#45;&gt;Node10 -->
<g id="edge1" class="edge">
<title>Node9&#45;&gt;Node10</title>
<path fill="none" stroke="#191970" d="M2055.5437,-120.5936C1870.8202,-115.0535 1176.2623,-94.1519 604.5,-76 503.6242,-72.7975 383.9877,-68.8238 329.3711,-67"/>
<polygon fill="#191970" stroke="#191970" points="2055.6202,-124.0974 2065.7206,-120.8988 2055.8301,-117.1005 2055.6202,-124.0974"/>
</g>
<!-- Node19 -->
<g id="node10" class="node">
<title>Node19</title>
<g id="a_node10"><a xlink:href="api_2abi-default_2barrier_8h.html" target="_top" xlink:title="ODP barrier. ">
<polygon fill="#ffffff" stroke="#ff0000" points="614,-56.5 614,-75.5 671,-75.5 671,-56.5 614,-56.5"/>
<text text-anchor="middle" x="642.5" y="-63.5" font-family="Helvetica,sans-Serif" font-size="10.00" fill="#000000">barrier.h</text>
</a>
</g>
</g>
<!-- Node9&#45;&gt;Node19 -->
<g id="edge9" class="edge">
<title>Node9&#45;&gt;Node19</title>
<path fill="none" stroke="#191970" d="M2055.5582,-121.8992C1841.2921,-121.222 954.8113,-116.0088 680.5,-76 677.5298,-75.5668 674.4581,-74.9871 671.4074,-74.324"/>
<polygon fill="#191970" stroke="#191970" points="2055.8185,-125.3999 2065.8289,-121.9298 2055.8394,-118.4 2055.8185,-125.3999"/>
</g>
<!-- Node57 -->
<g id="node15" class="node">
<title>Node57</title>
<g id="a_node15"><a xlink:href="api_2abi-default_2byteorder_8h.html" target="_top" xlink:title="ODP byteorder. ">
<polygon fill="#ffffff" stroke="#ff0000" points="689.5,-56.5 689.5,-75.5 761.5,-75.5 761.5,-56.5 689.5,-56.5"/>
<text text-anchor="middle" x="725.5" y="-63.5" font-family="Helvetica,sans-Serif" font-size="10.00" fill="#000000">byteorder.h</text>
</a>
</g>
</g>
<!-- Node9&#45;&gt;Node57 -->
<g id="edge14" class="edge">
<title>Node9&#45;&gt;Node57</title>
<path fill="none" stroke="#191970" d="M2055.5808,-121.5387C1849.9082,-119.3382 1026.8533,-108.6275 770.5,-76 767.6419,-75.6362 764.6978,-75.177 761.7484,-74.6564"/>
<polygon fill="#191970" stroke="#191970" points="2055.7064,-125.0401 2065.7427,-121.6458 2055.7802,-118.0405 2055.7064,-125.0401"/>
</g>
<!-- Node66 -->
<g id="node16" class="node">
<title>Node66</title>
<g id="a_node16"><a xlink:href="api_2abi-default_2cpumask_8h.html" target="_top" xlink:title="ODP CPU masks and enumeration. ">
<polygon fill="#ffffff" stroke="#ff0000" points="779.5,-56.5 779.5,-75.5 849.5,-75.5 849.5,-56.5 779.5,-56.5"/>
<text text-anchor="middle" x="814.5" y="-63.5" font-family="Helvetica,sans-Serif" font-size="10.00" fill="#000000">cpumask.h</text>
</a>
</g>
</g>
<!-- Node9&#45;&gt;Node66 -->
<g id="edge15" class="edge">
<title>Node9&#45;&gt;Node66</title>
<path fill="none" stroke="#191970" d="M2055.8137,-121.4391C1859.0594,-118.8957 1096.6544,-107.1886 858.5,-76 855.7037,-75.6338 852.8238,-75.1728 849.9391,-74.651"/>
<polygon fill="#191970" stroke="#191970" points="2055.7817,-124.9389 2065.8256,-121.5669 2055.8711,-117.9395 2055.7817,-124.9389"/>
</g>
<!-- Node90 -->
<g id="node17" class="node">
<title>Node90</title>
<g id="a_node17"><a xlink:href="api_2abi-default_2init_8h.html" target="_top" xlink:title="ODP initialization. ">
<polygon fill="#ffffff" stroke="#ff0000" points="868,-56.5 868,-75.5 909,-75.5 909,-56.5 868,-56.5"/>
<text text-anchor="middle" x="888.5" y="-63.5" font-family="Helvetica,sans-Serif" font-size="10.00" fill="#000000">init.h</text>
</a>
</g>
</g>
<!-- Node9&#45;&gt;Node90 -->
<g id="edge16" class="edge">
<title>Node9&#45;&gt;Node90</title>
<path fill="none" stroke="#191970" d="M2055.8294,-120.9964C1850.2493,-116.4662 1030.6224,-97.22 917.5,-76 914.7781,-75.4894 911.9655,-74.7737 909.2113,-73.9572"/>
<polygon fill="#191970" stroke="#191970" points="2055.9145,-124.499 2065.9888,-121.2193 2056.0681,-117.5007 2055.9145,-124.499"/>
</g>
<!-- Node98 -->
<g id="node18" class="node">
<title>Node98</title>
<g id="a_node18"><a xlink:href="api_2abi-default_2ipsec_8h.html" target="_top" xlink:title="ODP IPSEC API &#45; platform specific types. ">
<polygon fill="#ffffff" stroke="#ff0000" points="927,-56.5 927,-75.5 978,-75.5 978,-56.5 927,-56.5"/>
<text text-anchor="middle" x="952.5" y="-63.5" font-family="Helvetica,sans-Serif" font-size="10.00" fill="#000000">ipsec.h</text>
</a>
</g>
</g>
<!-- Node9&#45;&gt;Node98 -->
<g id="edge17" class="edge">
<title>Node9&#45;&gt;Node98</title>
<path fill="none" stroke="#191970" d="M2055.5506,-121.5938C1871.2614,-119.7629 1197.1721,-110.7818 986.5,-76 983.8289,-75.559 981.0716,-74.9742 978.3367,-74.308"/>
<polygon fill="#191970" stroke="#191970" points="2055.689,-125.0952 2065.7225,-121.6925 2055.757,-118.0956 2055.689,-125.0952"/>
</g>
<!-- Node107 -->
<g id="node19" class="node">
<title>Node107</title>
<g id="a_node19"><a xlink:href="api_2abi-default_2packet__io_8h.html" target="_top" xlink:title="ODP Packet IO. ">
<polygon fill="#ffffff" stroke="#ff0000" points="996,-56.5 996,-75.5 1069,-75.5 1069,-56.5 996,-56.5"/>
<text text-anchor="middle" x="1032.5" y="-63.5" font-family="Helvetica,sans-Serif" font-size="10.00" fill="#000000">packet_io.h</text>
</a>
</g>
</g>
<!-- Node9&#45;&gt;Node107 -->
<g id="edge18" class="edge">
<title>Node9&#45;&gt;Node107</title>
<path fill="none" stroke="#191970" d="M2055.808,-120.9528C1881.837,-116.8875 1271.4303,-101.1204 1078.5,-76 1075.4204,-75.599 1072.2415,-75.0967 1069.0606,-74.5321"/>
<polygon fill="#191970" stroke="#191970" points="2055.8377,-124.4543 2065.9162,-121.1872 2056.0001,-117.4562 2055.8377,-124.4543"/>
</g>
<!-- Node39 -->
<g id="node20" class="node">
<title>Node39</title>
<g id="a_node20"><a xlink:href="api_2abi-default_2rwlock__recursive_8h.html" target="_top" xlink:title="ODP recursive read/write lock. ">
<polygon fill="#ffffff" stroke="#ff0000" points="1087.5,-56.5 1087.5,-75.5 1195.5,-75.5 1195.5,-56.5 1087.5,-56.5"/>
<text text-anchor="middle" x="1141.5" y="-63.5" font-family="Helvetica,sans-Serif" font-size="10.00" fill="#000000">rwlock_recursive.h</text>
</a>
</g>
</g>
<!-- Node9&#45;&gt;Node39 -->
<g id="edge19" class="edge">
<title>Node9&#45;&gt;Node39</title>
<path fill="none" stroke="#191970" d="M2055.3222,-121.3476C1921.5972,-119.1185 1528.7492,-109.9419 1204.5,-76 1201.6363,-75.7002 1198.7044,-75.3582 1195.7478,-74.9856"/>
<polygon fill="#191970" stroke="#191970" points="2055.5547,-124.8517 2065.6099,-121.5138 2055.6678,-117.8526 2055.5547,-124.8517"/>
</g>
<!-- Node135 -->
<g id="node21" class="node">
<title>Node135</title>
<g id="a_node21"><a xlink:href="api_2abi-default_2schedule_8h.html" target="_top" xlink:title="ODP schedule. ">
<polygon fill="#ffffff" stroke="#ff0000" points="1214,-56.5 1214,-75.5 1283,-75.5 1283,-56.5 1214,-56.5"/>
<text text-anchor="middle" x="1248.5" y="-63.5" font-family="Helvetica,sans-Serif" font-size="10.00" fill="#000000">schedule.h</text>
</a>
</g>
</g>
<!-- Node9&#45;&gt;Node135 -->
<g id="edge20" class="edge">
<title>Node9&#45;&gt;Node135</title>
<path fill="none" stroke="#191970" d="M2055.5081,-120.3629C1905.8488,-114.9867 1441.4716,-97.009 1292.5,-76 1289.5524,-75.5843 1286.5103,-75.0717 1283.4669,-74.5001"/>
<polygon fill="#191970" stroke="#191970" points="2055.6124,-123.8688 2065.731,-120.7281 2055.8624,-116.8732 2055.6124,-123.8688"/>
</g>
<!-- Node143 -->
<g id="node22" class="node">
<title>Node143</title>
<g id="a_node22"><a xlink:href="api_2abi-default_2spinlock__recursive_8h.html" target="_top" xlink:title="ODP recursive spinlock. ">
<polygon fill="#ffffff" stroke="#ff0000" points="1301.5,-56.5 1301.5,-75.5 1417.5,-75.5 1417.5,-56.5 1301.5,-56.5"/>
<text text-anchor="middle" x="1359.5" y="-63.5" font-family="Helvetica,sans-Serif" font-size="10.00" fill="#000000">spinlock_recursive.h</text>
</a>
</g>
</g>
<!-- Node9&#45;&gt;Node143 -->
<g id="edge21" class="edge">
<title>Node9&#45;&gt;Node143</title>
<path fill="none" stroke="#191970" d="M2055.6715,-120.1087C1945.644,-115.3825 1662.1472,-101.5615 1426.5,-76 1423.5769,-75.6829 1420.5858,-75.3324 1417.5679,-74.958"/>
<polygon fill="#191970" stroke="#191970" points="2055.6308,-123.6101 2065.7704,-120.5378 2055.928,-116.6164 2055.6308,-123.6101"/>
</g>
<!-- Node152 -->
<g id="node23" class="node">
<title>Node152</title>
<g id="a_node23"><a xlink:href="api_2abi-default_2traffic__mngr_8h.html" target="_top" xlink:title="ODP traffic mngr. ">
<polygon fill="#ffffff" stroke="#ff0000" points="1435.5,-56.5 1435.5,-75.5 1519.5,-75.5 1519.5,-56.5 1435.5,-56.5"/>
<text text-anchor="middle" x="1477.5" y="-63.5" font-family="Helvetica,sans-Serif" font-size="10.00" fill="#000000">traffic_mngr.h</text>
</a>
</g>
</g>
<!-- Node9&#45;&gt;Node152 -->
<g id="edge22" class="edge">
<title>Node9&#45;&gt;Node152</title>
<path fill="none" stroke="#191970" d="M2055.6459,-119.7387C1958.1547,-114.6981 1726.4833,-100.9727 1533.5,-76 1528.9946,-75.417 1524.3002,-74.7206 1519.6302,-73.9705"/>
<polygon fill="#191970" stroke="#191970" points="2055.5945,-123.2406 2065.76,-120.2553 2055.9515,-116.2497 2055.5945,-123.2406"/>
</g>
<!-- Node27 -->
<g id="node24" class="node">
<title>Node27</title>
<g id="a_node24"><a xlink:href="api_2barrier_8h.html" target="_top" xlink:title="ODP execution barriers. ">
<polygon fill="#ffffff" stroke="#000000" points="2705,-56.5 2705,-75.5 2762,-75.5 2762,-56.5 2705,-56.5"/>
<text text-anchor="middle" x="2733.5" y="-63.5" font-family="Helvetica,sans-Serif" font-size="10.00" fill="#000000">barrier.h</text>
</a>
</g>
</g>
<!-- Node9&#45;&gt;Node27 -->
<g id="edge23" class="edge">
<title>Node9&#45;&gt;Node27</title>
<path fill="none" stroke="#191970" d="M2149.3583,-121.2227C2250.0276,-118.9287 2494.1537,-110.0176 2695.5,-76 2698.5942,-75.4772 2701.8033,-74.8195 2704.9862,-74.0921"/>
<polygon fill="#191970" stroke="#191970" points="2149.1396,-117.7265 2139.2177,-121.4422 2149.2912,-124.7249 2149.1396,-117.7265"/>
</g>
<!-- Node28 -->
<g id="node25" class="node">
<title>Node28</title>
<g id="a_node25"><a xlink:href="odp__api_8h.html" target="_top" xlink:title="The OpenDataPlane API. ">
<polygon fill="#ffffff" stroke="#ff0000" points="2000.5,-.5 2000.5,-19.5 2064.5,-19.5 2064.5,-.5 2000.5,-.5"/>
<text text-anchor="middle" x="2032.5" y="-7.5" font-family="Helvetica,sans-Serif" font-size="10.00" fill="#000000">odp_api.h</text>
</a>
</g>
</g>
<!-- Node9&#45;&gt;Node28 -->
<g id="edge63" class="edge">
<title>Node9&#45;&gt;Node28</title>
<path fill="none" stroke="#191970" d="M2055.4713,-120.3186C1951.041,-116.1015 1707.0564,-103.3927 1682.5,-76 1676.5666,-69.3813 1676.6384,-62.6824 1682.5,-56 1703.3385,-32.2435 1917.7824,-16.9082 2000.3438,-11.845"/>
<polygon fill="#191970" stroke="#191970" points="2055.5921,-123.826 2065.7224,-120.7233 2055.8683,-116.8315 2055.5921,-123.826"/>
</g>
<!-- Node160 -->
<g id="node26" class="node">
<title>Node160</title>
<g id="a_node26"><a xlink:href="api_2buffer_8h.html" target="_top" xlink:title="ODP buffer descriptor. ">
<polygon fill="#ffffff" stroke="#000000" points="1692,-56.5 1692,-75.5 1745,-75.5 1745,-56.5 1692,-56.5"/>
<text text-anchor="middle" x="1718.5" y="-63.5" font-family="Helvetica,sans-Serif" font-size="10.00" fill="#000000">buffer.h</text>
</a>
</g>
</g>
<!-- Node9&#45;&gt;Node160 -->
<g id="edge25" class="edge">
<title>Node9&#45;&gt;Node160</title>
<path fill="none" stroke="#191970" d="M2055.4934,-118.0211C1988.1201,-111.8179 1860.426,-98.1959 1753.5,-76 1750.7774,-75.4348 1747.9568,-74.7686 1745.1523,-74.0526"/>
<polygon fill="#191970" stroke="#191970" points="2055.501,-121.536 2065.7761,-118.9531 2056.1329,-114.5646 2055.501,-121.536"/>
</g>
<!-- Node115 -->
<g id="node27" class="node">
<title>Node115</title>
<g id="a_node27"><a xlink:href="api_2classification_8h.html" target="_top" xlink:title="ODP classification descriptor. ">
<polygon fill="#ffffff" stroke="#ff0000" points="1763,-56.5 1763,-75.5 1852,-75.5 1852,-56.5 1763,-56.5"/>
<text text-anchor="middle" x="1807.5" y="-63.5" font-family="Helvetica,sans-Serif" font-size="10.00" fill="#000000">classification.h</text>
</a>
</g>
</g>
<!-- Node9&#45;&gt;Node115 -->
<g id="edge27" class="edge">
<title>Node9&#45;&gt;Node115</title>
<path fill="none" stroke="#191970" d="M2055.7683,-113.1289C2000.0064,-102.5436 1907.4312,-84.97 1852.4621,-74.5352"/>
<polygon fill="#191970" stroke="#191970" points="2055.2572,-116.5943 2065.7345,-115.0208 2056.5627,-109.7171 2055.2572,-116.5943"/>
</g>
<!-- Node121 -->
<g id="node28" class="node">
<title>Node121</title>
<g id="a_node28"><a xlink:href="api_2crypto_8h.html" target="_top" xlink:title="ODP crypto. ">
<polygon fill="#ffffff" stroke="#ff0000" points="2110.5,-56.5 2110.5,-75.5 2166.5,-75.5 2166.5,-56.5 2110.5,-56.5"/>
<text text-anchor="middle" x="2138.5" y="-63.5" font-family="Helvetica,sans-Serif" font-size="10.00" fill="#000000">crypto.h</text>
</a>
</g>
</g>
<!-- Node9&#45;&gt;Node121 -->
<g id="edge29" class="edge">
<title>Node9&#45;&gt;Node121</title>
<path fill="none" stroke="#191970" d="M2114.3096,-103.6296C2120.3144,-94.2887 2127.3659,-83.3197 2132.3011,-75.6427"/>
<polygon fill="#191970" stroke="#191970" points="2111.2342,-101.9411 2108.7707,-112.2455 2117.1225,-105.7264 2111.2342,-101.9411"/>
</g>
<!-- Node117 -->
<g id="node29" class="node">
<title>Node117</title>
<g id="a_node29"><a xlink:href="api_2packet_8h.html" target="_top" xlink:title="ODP packet descriptor. ">
<polygon fill="#ffffff" stroke="#ff0000" points="1576,-56.5 1576,-75.5 1635,-75.5 1635,-56.5 1576,-56.5"/>
<text text-anchor="middle" x="1605.5" y="-63.5" font-family="Helvetica,sans-Serif" font-size="10.00" fill="#000000">packet.h</text>
</a>
</g>
</g>
<!-- Node9&#45;&gt;Node117 -->
<g id="edge31" class="edge">
<title>Node9&#45;&gt;Node117</title>
<path fill="none" stroke="#191970" d="M2055.8476,-119.1519C1973.4381,-113.701 1796.8782,-100.1374 1649.5,-76 1644.8616,-75.2403 1639.9804,-74.2874 1635.2251,-73.2736"/>
<polygon fill="#191970" stroke="#191970" points="2055.6886,-122.6489 2065.8952,-119.807 2056.1441,-115.6637 2055.6886,-122.6489"/>
</g>
<!-- Node133 -->
<g id="node30" class="node">
<title>Node133</title>
<g id="a_node30"><a xlink:href="api_2spec_2packet__flags_8h.html" target="_top" xlink:title="ODP packet flags. ">
<polygon fill="#ffffff" stroke="#ff0000" points="1533,-.5 1533,-19.5 1620,-19.5 1620,-.5 1533,-.5"/>
<text text-anchor="middle" x="1576.5" y="-7.5" font-family="Helvetica,sans-Serif" font-size="10.00" fill="#000000">packet_flags.h</text>
</a>
</g>
</g>
<!-- Node9&#45;&gt;Node133 -->
<g id="edge46" class="edge">
<title>Node9&#45;&gt;Node133</title>
<path fill="none" stroke="#191970" d="M2055.5186,-121.5147C1930.91,-119.7424 1599.2546,-111.686 1566.5,-76 1552.3942,-60.6318 1563.0685,-34.2457 1570.6496,-19.9335"/>
<polygon fill="#191970" stroke="#191970" points="2055.8276,-125.0191 2065.8738,-121.6542 2055.9219,-118.0197 2055.8276,-125.0191"/>
</g>
<!-- Node129 -->
<g id="node31" class="node">
<title>Node129</title>
<g id="a_node31"><a xlink:href="api_2packet__io_8h.html" target="_top" xlink:title="ODP Packet IO. ">
<polygon fill="#ffffff" stroke="#ff0000" points="2780,-56.5 2780,-75.5 2853,-75.5 2853,-56.5 2780,-56.5"/>
<text text-anchor="middle" x="2816.5" y="-63.5" font-family="Helvetica,sans-Serif" font-size="10.00" fill="#000000">packet_io.h</text>
</a>
</g>
</g>
<!-- Node9&#45;&gt;Node129 -->
<g id="edge34" class="edge">
<title>Node9&#45;&gt;Node129</title>
<path fill="none" stroke="#191970" d="M2149.2985,-121.1125C2258.5827,-118.5321 2538.8793,-108.9729 2770.5,-76 2773.5746,-75.5623 2776.75,-75.0342 2779.9285,-74.4522"/>
<polygon fill="#191970" stroke="#191970" points="2149.1815,-117.6142 2139.2638,-121.341 2149.3409,-124.6124 2149.1815,-117.6142"/>
</g>
<!-- Node131 -->
<g id="node32" class="node">
<title>Node131</title>
<g id="a_node32"><a xlink:href="api_2spec_2traffic__mngr_8h.html" target="_top" xlink:title="traffic_mngr.h">
<polygon fill="#ffffff" stroke="#ff0000" points="3044.5,-.5 3044.5,-19.5 3128.5,-19.5 3128.5,-.5 3044.5,-.5"/>
<text text-anchor="middle" x="3086.5" y="-7.5" font-family="Helvetica,sans-Serif" font-size="10.00" fill="#000000">traffic_mngr.h</text>
</a>
</g>
</g>
<!-- Node9&#45;&gt;Node131 -->
<g id="edge56" class="edge">
<title>Node9&#45;&gt;Node131</title>
<path fill="none" stroke="#191970" d="M2149.3931,-121.2C2377.5657,-117.199 3361.6482,-98.6506 3383.5,-76 3389.6716,-69.6028 3389.2844,-62.7493 3383.5,-56 3367.1171,-36.8843 3206.6293,-20.4463 3128.6314,-13.5134"/>
<polygon fill="#191970" stroke="#191970" points="2149.0433,-117.7055 2139.106,-121.3795 2149.1655,-124.7044 2149.0433,-117.7055"/>
</g>
<!-- Node161 -->
<g id="node33" class="node">
<title>Node161</title>
<g id="a_node33"><a xlink:href="api_2proto__stats_8h.html" target="_top" xlink:title="ODP proto stats. ">
<polygon fill="#ffffff" stroke="#000000" points="2184.5,-56.5 2184.5,-75.5 2264.5,-75.5 2264.5,-56.5 2184.5,-56.5"/>
<text text-anchor="middle" x="2224.5" y="-63.5" font-family="Helvetica,sans-Serif" font-size="10.00" fill="#000000">proto_stats.h</text>
</a>
</g>
</g>
<!-- Node9&#45;&gt;Node161 -->
<g id="edge37" class="edge">
<title>Node9&#45;&gt;Node161</title>
<path fill="none" stroke="#191970" d="M2132.7584,-108.1109C2154.8819,-97.9559 2184.3094,-84.4482 2203.8011,-75.5011"/>
<polygon fill="#191970" stroke="#191970" points="2131.1007,-105.0206 2123.4725,-112.3733 2134.021,-111.3824 2131.1007,-105.0206"/>
</g>
<!-- Node125 -->
<g id="node34" class="node">
<title>Node125</title>
<g id="a_node34"><a xlink:href="api_2queue_8h.html" target="_top" xlink:title="ODP queue. ">
<polygon fill="#ffffff" stroke="#ff0000" points="2282.5,-56.5 2282.5,-75.5 2338.5,-75.5 2338.5,-56.5 2282.5,-56.5"/>
<text text-anchor="middle" x="2310.5" y="-63.5" font-family="Helvetica,sans-Serif" font-size="10.00" fill="#000000">queue.h</text>
</a>
</g>
</g>
<!-- Node9&#45;&gt;Node125 -->
<g id="edge39" class="edge">
<title>Node9&#45;&gt;Node125</title>
<path fill="none" stroke="#191970" d="M2147.6487,-109.8703C2182.1265,-100.6037 2230.8148,-87.5096 2273.5,-76 2276.3268,-75.2378 2279.275,-74.4422 2282.2192,-73.6471"/>
<polygon fill="#191970" stroke="#191970" points="2146.6223,-106.5219 2137.8734,-112.4974 2148.4391,-113.282 2146.6223,-106.5219"/>
</g>
<!-- Node162 -->
<g id="node35" class="node">
<title>Node162</title>
<g id="a_node35"><a xlink:href="spec_2chksum_8h.html" target="_top" xlink:title="ODP checksum functions. ">
<polygon fill="#ffffff" stroke="#ff0000" points="2356.5,-56.5 2356.5,-75.5 2420.5,-75.5 2420.5,-56.5 2356.5,-56.5"/>
<text text-anchor="middle" x="2388.5" y="-63.5" font-family="Helvetica,sans-Serif" font-size="10.00" fill="#000000">chksum.h</text>
</a>
</g>
</g>
<!-- Node9&#45;&gt;Node162 -->
<g id="edge41" class="edge">
<title>Node9&#45;&gt;Node162</title>
<path fill="none" stroke="#191970" d="M2149.2115,-113.9982C2198.6199,-105.355 2278.7771,-90.8212 2347.5,-76 2350.3648,-75.3822 2353.3354,-74.7132 2356.3086,-74.0243"/>
<polygon fill="#191970" stroke="#191970" points="2148.4009,-110.5866 2139.1501,-115.7512 2149.6025,-117.4827 2148.4009,-110.5866"/>
</g>
<!-- Node164 -->
<g id="node36" class="node">
<title>Node164</title>
<g id="a_node36"><a xlink:href="api_2spec_2cpu_8h.html" target="_top" xlink:title="ODP CPU API. ">
<polygon fill="#ffffff" stroke="#ff0000" points="2439,-56.5 2439,-75.5 2482,-75.5 2482,-56.5 2439,-56.5"/>
<text text-anchor="middle" x="2460.5" y="-63.5" font-family="Helvetica,sans-Serif" font-size="10.00" fill="#000000">cpu.h</text>
</a>
</g>
</g>
<!-- Node9&#45;&gt;Node164 -->
<g id="edge42" class="edge">
<title>Node9&#45;&gt;Node164</title>
<path fill="none" stroke="#191970" d="M2149.3242,-117.972C2213.2249,-111.896 2331.0562,-98.6245 2429.5,-76 2432.5864,-75.2907 2435.8058,-74.4132 2438.9525,-73.475"/>
<polygon fill="#191970" stroke="#191970" points="2148.7976,-114.5058 2139.1662,-118.9202 2149.4483,-121.4755 2148.7976,-114.5058"/>
</g>
<!-- Node166 -->
<g id="node37" class="node">
<title>Node166</title>
<g id="a_node37"><a xlink:href="spec_2feature_8h.html" target="_top" xlink:title="ODP features. ">
<polygon fill="#ffffff" stroke="#ff0000" points="2500,-56.5 2500,-75.5 2561,-75.5 2561,-56.5 2500,-56.5"/>
<text text-anchor="middle" x="2530.5" y="-63.5" font-family="Helvetica,sans-Serif" font-size="10.00" fill="#000000">feature.h</text>
</a>
</g>
</g>
<!-- Node9&#45;&gt;Node166 -->
<g id="edge43" class="edge">
<title>Node9&#45;&gt;Node166</title>
<path fill="none" stroke="#191970" d="M2149.3721,-118.3776C2222.5989,-112.2844 2368.4047,-98.4059 2490.5,-76 2493.4571,-75.4573 2496.5205,-74.8236 2499.5758,-74.1432"/>
<polygon fill="#191970" stroke="#191970" points="2148.7864,-114.9138 2139.1063,-119.2202 2149.3591,-121.8904 2148.7864,-114.9138"/>
</g>
<!-- Node168 -->
<g id="node38" class="node">
<title>Node168</title>
<g id="a_node38"><a xlink:href="api_2spec_2hash_8h.html" target="_top" xlink:title="ODP Hash functions. ">
<polygon fill="#ffffff" stroke="#ff0000" points="2579,-56.5 2579,-75.5 2628,-75.5 2628,-56.5 2579,-56.5"/>
<text text-anchor="middle" x="2603.5" y="-63.5" font-family="Helvetica,sans-Serif" font-size="10.00" fill="#000000">hash.h</text>
</a>
</g>
</g>
<!-- Node9&#45;&gt;Node168 -->
<g id="edge44" class="edge">
<title>Node9&#45;&gt;Node168</title>
<path fill="none" stroke="#191970" d="M2149.2214,-120.3017C2233.7714,-116.5867 2417.4994,-105.5667 2569.5,-76 2572.5198,-75.4126 2575.657,-74.6732 2578.7505,-73.8635"/>
<polygon fill="#191970" stroke="#191970" points="2149.0112,-116.8074 2139.169,-120.7292 2149.3087,-123.801 2149.0112,-116.8074"/>
</g>
<!-- Node86 -->
<g id="node39" class="node">
<title>Node86</title>
<g id="a_node39"><a xlink:href="api_2spec_2init_8h.html" target="_top" xlink:title="init.h">
<polygon fill="#ffffff" stroke="#ff0000" points="2646,-56.5 2646,-75.5 2687,-75.5 2687,-56.5 2646,-56.5"/>
<text text-anchor="middle" x="2666.5" y="-63.5" font-family="Helvetica,sans-Serif" font-size="10.00" fill="#000000">init.h</text>
</a>
</g>
</g>
<!-- Node9&#45;&gt;Node86 -->
<g id="edge45" class="edge">
<title>Node9&#45;&gt;Node86</title>
<path fill="none" stroke="#191970" d="M2149.1304,-119.3983C2261.3128,-112.9112 2543.8256,-95.1568 2636.5,-76 2639.5108,-75.3776 2642.6399,-74.549 2645.6915,-73.6342"/>
<polygon fill="#191970" stroke="#191970" points="2148.9157,-115.9048 2139.1329,-119.9726 2149.3172,-122.8933 2148.9157,-115.9048"/>
</g>
<!-- Node170 -->
<g id="node40" class="node">
<title>Node170</title>
<g id="a_node40"><a xlink:href="api_2spec_2pool_8h.html" target="_top" xlink:title="ODP pool. ">
<polygon fill="#ffffff" stroke="#ff0000" points="3451,-.5 3451,-19.5 3498,-19.5 3498,-.5 3451,-.5"/>
<text text-anchor="middle" x="3474.5" y="-7.5" font-family="Helvetica,sans-Serif" font-size="10.00" fill="#000000">pool.h</text>
</a>
</g>
</g>
<!-- Node9&#45;&gt;Node170 -->
<g id="edge47" class="edge">
<title>Node9&#45;&gt;Node170</title>
<path fill="none" stroke="#191970" d="M2149.2517,-121.2328C2374.7216,-117.42 3341.3781,-99.7424 3400.5,-76 3429.8934,-64.1961 3455.2623,-35.2646 3467.2072,-19.9243"/>
<polygon fill="#191970" stroke="#191970" points="2149.0215,-117.7361 2139.0818,-121.4038 2149.1393,-124.7351 2149.0215,-117.7361"/>
</g>
<!-- Node172 -->
<g id="node41" class="node">
<title>Node172</title>
<g id="a_node41"><a xlink:href="pool__types_8h.html" target="_top" xlink:title="Type definitions for pools. ">
<polygon fill="#ffffff" stroke="#000000" points="3469,-56.5 3469,-75.5 3548,-75.5 3548,-56.5 3469,-56.5"/>
<text text-anchor="middle" x="3508.5" y="-63.5" font-family="Helvetica,sans-Serif" font-size="10.00" fill="#000000">pool_types.h</text>
</a>
</g>
</g>
<!-- Node9&#45;&gt;Node172 -->
<g id="edge48" class="edge">
<title>Node9&#45;&gt;Node172</title>
<path fill="none" stroke="#191970" d="M2149.4105,-121.3436C2356.9062,-118.2957 3193.4604,-104.4505 3454.5,-76 3459.1444,-75.4938 3463.9891,-74.815 3468.7875,-74.0483"/>
<polygon fill="#191970" stroke="#191970" points="2149.1122,-117.8475 2139.1642,-121.4928 2149.2141,-124.8467 2149.1122,-117.8475"/>
</g>
<!-- Node173 -->
<g id="node42" class="node">
<title>Node173</title>
<g id="a_node42"><a xlink:href="api_2spec_2proto__stats__types_8h.html" target="_top" xlink:title="ODP proto stats types. ">
<polygon fill="#ffffff" stroke="#ff0000" points="2871,-56.5 2871,-75.5 2984,-75.5 2984,-56.5 2871,-56.5"/>
<text text-anchor="middle" x="2927.5" y="-63.5" font-family="Helvetica,sans-Serif" font-size="10.00" fill="#000000">proto_stats_types.h</text>
</a>
</g>
</g>
<!-- Node9&#45;&gt;Node173 -->
<g id="edge50" class="edge">
<title>Node9&#45;&gt;Node173</title>
<path fill="none" stroke="#191970" d="M2149.5646,-120.6183C2268.9067,-116.7958 2592.9345,-104.4261 2861.5,-76 2864.4964,-75.6828 2867.565,-75.327 2870.6601,-74.9435"/>
<polygon fill="#191970" stroke="#191970" points="2149.2102,-117.1277 2139.3255,-120.9413 2149.4309,-124.1242 2149.2102,-117.1277"/>
</g>
<!-- Node84 -->
<g id="node43" class="node">
<title>Node84</title>
<g id="a_node43"><a xlink:href="api_2spec_2schedule_8h.html" target="_top" xlink:title="ODP schedule. ">
<polygon fill="#ffffff" stroke="#ff0000" points="3002,-56.5 3002,-75.5 3071,-75.5 3071,-56.5 3002,-56.5"/>
<text text-anchor="middle" x="3036.5" y="-63.5" font-family="Helvetica,sans-Serif" font-size="10.00" fill="#000000">schedule.h</text>
</a>
</g>
</g>
<!-- Node9&#45;&gt;Node84 -->
<g id="edge51" class="edge">
<title>Node9&#45;&gt;Node84</title>
<path fill="none" stroke="#191970" d="M2149.7729,-120.63C2309.3487,-115.8372 2827.3275,-98.8652 2992.5,-76 2995.4487,-75.5918 2998.4915,-75.0845 3001.5354,-74.5164"/>
<polygon fill="#191970" stroke="#191970" points="2149.2406,-117.1442 2139.3495,-120.941 2149.4495,-124.1411 2149.2406,-117.1442"/>
</g>
<!-- Node179 -->
<g id="node44" class="node">
<title>Node179</title>
<g id="a_node44"><a xlink:href="api_2spec_2stash_8h.html" target="_top" xlink:title="ODP stash. ">
<polygon fill="#ffffff" stroke="#ff0000" points="3089.5,-56.5 3089.5,-75.5 3141.5,-75.5 3141.5,-56.5 3089.5,-56.5"/>
<text text-anchor="middle" x="3115.5" y="-63.5" font-family="Helvetica,sans-Serif" font-size="10.00" fill="#000000">stash.h</text>
</a>
</g>
</g>
<!-- Node9&#45;&gt;Node179 -->
<g id="edge52" class="edge">
<title>Node9&#45;&gt;Node179</title>
<path fill="none" stroke="#191970" d="M2149.3246,-121.184C2318.4022,-118.0211 2897.0042,-105.2634 3079.5,-76 3082.7024,-75.4865 3086.0272,-74.7921 3089.3043,-74.0071"/>
<polygon fill="#191970" stroke="#191970" points="2149.1841,-117.6859 2139.2505,-121.3701 2149.3135,-124.6847 2149.1841,-117.6859"/>
</g>
<!-- Node181 -->
<g id="node45" class="node">
<title>Node181</title>
<g id="a_node45"><a xlink:href="api_2spec_2std_8h.html" target="_top" xlink:title="ODP standard types and optimized C library functions. ">
<polygon fill="#ffffff" stroke="#ff0000" points="3160,-56.5 3160,-75.5 3201,-75.5 3201,-56.5 3160,-56.5"/>
<text text-anchor="middle" x="3180.5" y="-63.5" font-family="Helvetica,sans-Serif" font-size="10.00" fill="#000000">std.h</text>
</a>
</g>
</g>
<!-- Node9&#45;&gt;Node181 -->
<g id="edge53" class="edge">
<title>Node9&#45;&gt;Node181</title>
<path fill="none" stroke="#191970" d="M2149.2319,-121.6697C2326.0884,-120.1531 2954.2813,-112.2753 3150.5,-76 3153.5232,-75.4411 3156.6593,-74.6482 3159.7142,-73.7504"/>
<polygon fill="#191970" stroke="#191970" points="2149.1776,-118.17 2139.2071,-121.753 2149.2358,-125.1697 2149.1776,-118.17"/>
</g>
<!-- Node183 -->
<g id="node46" class="node">
<title>Node183</title>
<g id="a_node46"><a xlink:href="spec_2threshold_8h.html" target="_top" xlink:title="ODP threshold descriptor. ">
<polygon fill="#ffffff" stroke="#ff0000" points="3219,-56.5 3219,-75.5 3290,-75.5 3290,-56.5 3219,-56.5"/>
<text text-anchor="middle" x="3254.5" y="-63.5" font-family="Helvetica,sans-Serif" font-size="10.00" fill="#000000">threshold.h</text>
</a>
</g>
</g>
<!-- Node9&#45;&gt;Node183 -->
<g id="edge54" class="edge">
<title>Node9&#45;&gt;Node183</title>
<path fill="none" stroke="#191970" d="M2149.3151,-121.1602C2332.3262,-117.7057 2999.602,-103.4627 3209.5,-76 3212.5155,-75.6055 3215.6272,-75.1077 3218.7403,-74.5461"/>
<polygon fill="#191970" stroke="#191970" points="2149.1441,-117.6627 2139.2113,-121.3492 2149.2751,-124.6614 2149.1441,-117.6627"/>
</g>
<!-- Node185 -->
<g id="node47" class="node">
<title>Node185</title>
<g id="a_node47"><a xlink:href="api_2spec_2thrmask_8h.html" target="_top" xlink:title="ODP thread masks. ">
<polygon fill="#ffffff" stroke="#ff0000" points="3308.5,-56.5 3308.5,-75.5 3374.5,-75.5 3374.5,-56.5 3308.5,-56.5"/>
<text text-anchor="middle" x="3341.5" y="-63.5" font-family="Helvetica,sans-Serif" font-size="10.00" fill="#000000">thrmask.h</text>
</a>
</g>
</g>
<!-- Node9&#45;&gt;Node185 -->
<g id="edge55" class="edge">
<title>Node9&#45;&gt;Node185</title>
<path fill="none" stroke="#191970" d="M2149.2557,-121.3892C2341.3414,-118.6965 3070.3664,-106.631 3298.5,-76 3301.6905,-75.5716 3304.9915,-75.0146 3308.2808,-74.3828"/>
<polygon fill="#191970" stroke="#191970" points="2149.1556,-117.8902 2139.205,-121.5284 2149.2526,-124.8895 2149.1556,-117.8902"/>
</g>
<!-- Node186 -->
<g id="node48" class="node">
<title>Node186</title>
<g id="a_node48"><a xlink:href="system__info_8h.html" target="_top" xlink:title="ODP system information. ">
<polygon fill="#ffffff" stroke="#000000" points="1870.5,-56.5 1870.5,-75.5 1956.5,-75.5 1956.5,-56.5 1870.5,-56.5"/>
<text text-anchor="middle" x="1913.5" y="-63.5" font-family="Helvetica,sans-Serif" font-size="10.00" fill="#000000">system_info.h</text>
</a>
</g>
</g>
<!-- Node9&#45;&gt;Node186 -->
<g id="edge57" class="edge">
<title>Node9&#45;&gt;Node186</title>
<path fill="none" stroke="#191970" d="M2060.1643,-109.4561C2025.4706,-99.1765 1977.1166,-84.8494 1945.5663,-75.5011"/>
<polygon fill="#191970" stroke="#191970" points="2059.4274,-112.8881 2070.0097,-112.3733 2061.4161,-106.1765 2059.4274,-112.8881"/>
</g>
<!-- Node187 -->
<g id="node49" class="node">
<title>Node187</title>
<g id="a_node49"><a xlink:href="api_2time_8h.html" target="_top" xlink:title="ODP time. ">
<polygon fill="#ffffff" stroke="#ff0000" points="1974.5,-56.5 1974.5,-75.5 2022.5,-75.5 2022.5,-56.5 1974.5,-56.5"/>
<text text-anchor="middle" x="1998.5" y="-63.5" font-family="Helvetica,sans-Serif" font-size="10.00" fill="#000000">time.h</text>
</a>
</g>
</g>
<!-- Node9&#45;&gt;Node187 -->
<g id="edge59" class="edge">
<title>Node9&#45;&gt;Node187</title>
<path fill="none" stroke="#191970" d="M2075.4971,-107.46C2056.8864,-97.4388 2032.6701,-84.3993 2016.4078,-75.6427"/>
<polygon fill="#191970" stroke="#191970" points="2073.9205,-110.5861 2084.3846,-112.2455 2077.2392,-104.4228 2073.9205,-110.5861"/>
</g>
<!-- Node188 -->
<g id="node50" class="node">
<title>Node188</title>
<g id="a_node50"><a xlink:href="api_2timer_8h.html" target="_top" xlink:title="ODP timer service. ">
<polygon fill="#ffffff" stroke="#000000" points="2041,-56.5 2041,-75.5 2092,-75.5 2092,-56.5 2041,-56.5"/>
<text text-anchor="middle" x="2066.5" y="-63.5" font-family="Helvetica,sans-Serif" font-size="10.00" fill="#000000">timer.h</text>
</a>
</g>
</g>
<!-- Node9&#45;&gt;Node188 -->
<g id="edge61" class="edge">
<title>Node9&#45;&gt;Node188</title>
<path fill="none" stroke="#191970" d="M2090.6904,-103.6296C2084.6856,-94.2887 2077.6341,-83.3197 2072.6989,-75.6427"/>
<polygon fill="#191970" stroke="#191970" points="2087.8775,-105.7264 2096.2293,-112.2455 2093.7658,-101.9411 2087.8775,-105.7264"/>
</g>
<!-- Node11 -->
<g id="node3" class="node">
<title>Node11</title>
<g id="a_node3"><a xlink:href="arch_2arm32-linux_2odp_2api_2abi_2atomic_8h_source.html" target="_top" xlink:title="atomic.h">
<polygon fill="#ffffff" stroke="#000000" points="462,-.5 462,-19.5 521,-19.5 521,-.5 462,-.5"/>
<text text-anchor="middle" x="491.5" y="-7.5" font-family="Helvetica,sans-Serif" font-size="10.00" fill="#000000">atomic.h</text>
</a>
</g>
</g>
<!-- Node10&#45;&gt;Node11 -->
<g id="edge2" class="edge">
<title>Node10&#45;&gt;Node11</title>
<path fill="none" stroke="#191970" d="M338.894,-54.5101C375.3995,-43.8626 428.8935,-28.2602 461.8872,-18.6371"/>
<polygon fill="#191970" stroke="#191970" points="337.6992,-51.2127 329.0792,-57.3727 339.6593,-57.9327 337.6992,-51.2127"/>
</g>
<!-- Node12 -->
<g id="node4" class="node">
<title>Node12</title>
<g id="a_node4"><a xlink:href="arch_2arm64-linux_2odp_2api_2abi_2atomic_8h_source.html" target="_top" xlink:title="atomic.h">
<polygon fill="#ffffff" stroke="#000000" points="0,-.5 0,-19.5 59,-19.5 59,-.5 0,-.5"/>
<text text-anchor="middle" x="29.5" y="-7.5" font-family="Helvetica,sans-Serif" font-size="10.00" fill="#000000">atomic.h</text>
</a>
</g>
</g>
<!-- Node10&#45;&gt;Node12 -->
<g id="edge3" class="edge">
<title>Node10&#45;&gt;Node12</title>
<path fill="none" stroke="#191970" d="M259.7761,-58.8937C213.4491,-50.4283 134.6449,-35.476 67.5,-20 64.841,-19.3871 62.0852,-18.7216 59.3277,-18.0349"/>
<polygon fill="#191970" stroke="#191970" points="259.246,-62.3547 269.7109,-60.7006 260.4985,-55.4676 259.246,-62.3547"/>
</g>
<!-- Node13 -->
<g id="node5" class="node">
<title>Node13</title>
<g id="a_node5"><a xlink:href="arch_2default-linux_2odp_2api_2abi_2atomic_8h_source.html" target="_top" xlink:title="atomic.h">
<polygon fill="#ffffff" stroke="#000000" points="77,-.5 77,-19.5 136,-19.5 136,-.5 77,-.5"/>
<text text-anchor="middle" x="106.5" y="-7.5" font-family="Helvetica,sans-Serif" font-size="10.00" fill="#000000">atomic.h</text>
</a>
</g>
</g>
<!-- Node10&#45;&gt;Node13 -->
<g id="edge4" class="edge">
<title>Node10&#45;&gt;Node13</title>
<path fill="none" stroke="#191970" d="M259.9008,-54.5101C223.2052,-43.8626 169.4325,-28.2602 136.2671,-18.6371"/>
<polygon fill="#191970" stroke="#191970" points="259.1875,-57.9474 269.7667,-57.3727 261.1382,-51.2247 259.1875,-57.9474"/>
</g>
<!-- Node14 -->
<g id="node6" class="node">
<title>Node14</title>
<g id="a_node6"><a xlink:href="arch_2mips64-linux_2odp_2api_2abi_2atomic_8h_source.html" target="_top" xlink:title="atomic.h">
<polygon fill="#ffffff" stroke="#000000" points="154,-.5 154,-19.5 213,-19.5 213,-.5 154,-.5"/>
<text text-anchor="middle" x="183.5" y="-7.5" font-family="Helvetica,sans-Serif" font-size="10.00" fill="#000000">atomic.h</text>
</a>
</g>
</g>
<!-- Node10&#45;&gt;Node14 -->
<g id="edge5" class="edge">
<title>Node10&#45;&gt;Node14</title>
<path fill="none" stroke="#191970" d="M270.4463,-51.9741C249.4435,-41.8348 221.6309,-28.408 203.1809,-19.5011"/>
<polygon fill="#191970" stroke="#191970" points="269.0317,-55.1776 279.5589,-56.3733 272.075,-48.8738 269.0317,-55.1776"/>
</g>
<!-- Node15 -->
<g id="node7" class="node">
<title>Node15</title>
<g id="a_node7"><a xlink:href="arch_2power64-linux_2odp_2api_2abi_2atomic_8h_source.html" target="_top" xlink:title="atomic.h">
<polygon fill="#ffffff" stroke="#000000" points="231,-.5 231,-19.5 290,-19.5 290,-.5 231,-.5"/>
<text text-anchor="middle" x="260.5" y="-7.5" font-family="Helvetica,sans-Serif" font-size="10.00" fill="#000000">atomic.h</text>
</a>
</g>
</g>
<!-- Node10&#45;&gt;Node15 -->
<g id="edge6" class="edge">
<title>Node10&#45;&gt;Node15</title>
<path fill="none" stroke="#191970" d="M286.9092,-47.9209C280.3605,-38.5176 272.6176,-27.3997 267.2154,-19.6427"/>
<polygon fill="#191970" stroke="#191970" points="284.1196,-50.0397 292.7067,-56.2455 289.8639,-46.0392 284.1196,-50.0397"/>
</g>
<!-- Node16 -->
<g id="node8" class="node">
<title>Node16</title>
<g id="a_node8"><a xlink:href="arch_2x86__32-linux_2odp_2api_2abi_2atomic_8h_source.html" target="_top" xlink:title="atomic.h">
<polygon fill="#ffffff" stroke="#000000" points="308,-.5 308,-19.5 367,-19.5 367,-.5 308,-.5"/>
<text text-anchor="middle" x="337.5" y="-7.5" font-family="Helvetica,sans-Serif" font-size="10.00" fill="#000000">atomic.h</text>
</a>
</g>
</g>
<!-- Node10&#45;&gt;Node16 -->
<g id="edge7" class="edge">
<title>Node10&#45;&gt;Node16</title>
<path fill="none" stroke="#191970" d="M311.7679,-47.9209C318.1488,-38.5176 325.6931,-27.3997 330.9568,-19.6427"/>
<polygon fill="#191970" stroke="#191970" points="308.838,-46.0055 306.1191,-56.2455 314.6303,-49.936 308.838,-46.0055"/>
</g>
<!-- Node17 -->
<g id="node9" class="node">
<title>Node17</title>
<g id="a_node9"><a xlink:href="arch_2x86__64-linux_2odp_2api_2abi_2atomic_8h_source.html" target="_top" xlink:title="atomic.h">
<polygon fill="#ffffff" stroke="#ff0000" points="385,-.5 385,-19.5 444,-19.5 444,-.5 385,-.5"/>
<text text-anchor="middle" x="414.5" y="-7.5" font-family="Helvetica,sans-Serif" font-size="10.00" fill="#000000">atomic.h</text>
</a>
</g>
</g>
<!-- Node10&#45;&gt;Node17 -->
<g id="edge8" class="edge">
<title>Node10&#45;&gt;Node17</title>
<path fill="none" stroke="#191970" d="M328.3033,-51.9741C349.125,-41.8348 376.6978,-28.408 394.9888,-19.5011"/>
<polygon fill="#191970" stroke="#191970" points="326.7276,-48.8484 319.2692,-56.3733 329.7922,-55.1419 326.7276,-48.8484"/>
</g>
<!-- Node20 -->
<g id="node11" class="node">
<title>Node20</title>
<g id="a_node11"><a xlink:href="arch_2arm32-linux_2odp_2api_2abi_2barrier_8h_source.html" target="_top" xlink:title="barrier.h">
<polygon fill="#ffffff" stroke="#000000" points="614,-.5 614,-19.5 671,-19.5 671,-.5 614,-.5"/>
<text text-anchor="middle" x="642.5" y="-7.5" font-family="Helvetica,sans-Serif" font-size="10.00" fill="#000000">barrier.h</text>
</a>
</g>
</g>
<!-- Node19&#45;&gt;Node20 -->
<g id="edge10" class="edge">
<title>Node19&#45;&gt;Node20</title>
<path fill="none" stroke="#191970" d="M642.5,-46.1575C642.5,-37.155 642.5,-26.9199 642.5,-19.6427"/>
<polygon fill="#191970" stroke="#191970" points="639.0001,-46.2455 642.5,-56.2455 646.0001,-46.2456 639.0001,-46.2455"/>
</g>
<!-- Node21 -->
<g id="node12" class="node">
<title>Node21</title>
<g id="a_node12"><a xlink:href="arch_2arm64-linux_2odp_2api_2abi_2barrier_8h_source.html" target="_top" xlink:title="barrier.h">
<polygon fill="#ffffff" stroke="#000000" points="689,-.5 689,-19.5 746,-19.5 746,-.5 689,-.5"/>
<text text-anchor="middle" x="717.5" y="-7.5" font-family="Helvetica,sans-Serif" font-size="10.00" fill="#000000">barrier.h</text>
</a>
</g>
</g>
<!-- Node19&#45;&gt;Node21 -->
<g id="edge11" class="edge">
<title>Node19&#45;&gt;Node21</title>
<path fill="none" stroke="#191970" d="M663.6477,-50.2097C676.8201,-40.3743 693.34,-28.0394 704.5857,-19.6427"/>
<polygon fill="#191970" stroke="#191970" points="661.4828,-47.4581 655.564,-56.2455 665.6709,-53.0671 661.4828,-47.4581"/>
</g>
<!-- Node22 -->
<g id="node13" class="node">
<title>Node22</title>
<g id="a_node13"><a xlink:href="arch_2default-linux_2odp_2api_2abi_2barrier_8h_source.html" target="_top" xlink:title="barrier.h">
<polygon fill="#ffffff" stroke="#000000" points="764,-.5 764,-19.5 821,-19.5 821,-.5 764,-.5"/>
<text text-anchor="middle" x="792.5" y="-7.5" font-family="Helvetica,sans-Serif" font-size="10.00" fill="#000000">barrier.h</text>
</a>
</g>
</g>
<!-- Node19&#45;&gt;Node22 -->
<g id="edge12" class="edge">
<title>Node19&#45;&gt;Node22</title>
<path fill="none" stroke="#191970" d="M677.8871,-52.7888C705.2753,-42.5639 742.5479,-28.6488 767.0506,-19.5011"/>
<polygon fill="#191970" stroke="#191970" points="676.4302,-49.5967 668.2859,-56.3733 678.8785,-56.1546 676.4302,-49.5967"/>
</g>
<!-- Node23 -->
<g id="node14" class="node">
<title>Node23</title>
<g id="a_node14"><a xlink:href="arch_2mips64-linux_2odp_2api_2abi_2barrier_8h_source.html" target="_top" xlink:title="barrier.h">
<polygon fill="#ffffff" stroke="#000000" points="539,-.5 539,-19.5 596,-19.5 596,-.5 539,-.5"/>
<text text-anchor="middle" x="567.5" y="-7.5" font-family="Helvetica,sans-Serif" font-size="10.00" fill="#000000">barrier.h</text>
</a>
</g>
</g>
<!-- Node19&#45;&gt;Node23 -->
<g id="edge13" class="edge">
<title>Node19&#45;&gt;Node23</title>
<path fill="none" stroke="#191970" d="M621.3523,-50.2097C608.1799,-40.3743 591.66,-28.0394 580.4143,-19.6427"/>
<polygon fill="#191970" stroke="#191970" points="619.3291,-53.0671 629.436,-56.2455 623.5172,-47.4581 619.3291,-53.0671"/>
</g>
<!-- Node27&#45;&gt;Node28 -->
<g id="edge24" class="edge">
<title>Node27&#45;&gt;Node28</title>
<path fill="none" stroke="#191970" d="M2694.7726,-56.2566C2552.7165,-34.6843 2176.8734,-16.5321 2064.575,-11.4241"/>
<polygon fill="#191970" stroke="#191970" points="2694.5647,-59.7675 2704.9905,-57.8825 2695.6647,-52.8545 2694.5647,-59.7675"/>
</g>
<!-- Node160&#45;&gt;Node28 -->
<g id="edge26" class="edge">
<title>Node160&#45;&gt;Node28</title>
<path fill="none" stroke="#191970" d="M1755.1422,-55.8127C1849.3127,-35.0782 1950.1367,-20.7067 2000.4705,-14.0613"/>
<polygon fill="#191970" stroke="#191970" points="1754.1693,-52.4436 1745.1718,-58.0379 1755.6941,-59.2755 1754.1693,-52.4436"/>
</g>
<!-- Node115&#45;&gt;Node28 -->
<g id="edge28" class="edge">
<title>Node115&#45;&gt;Node28</title>
<path fill="none" stroke="#191970" d="M1855.7619,-53.9881C1899.4709,-43.1095 1962.6374,-27.388 2000.4278,-17.9824"/>
<polygon fill="#191970" stroke="#191970" points="1854.7818,-50.6252 1845.9232,-56.4369 1856.4725,-57.418 1854.7818,-50.6252"/>
</g>
<!-- Node121&#45;&gt;Node28 -->
<g id="edge30" class="edge">
<title>Node121&#45;&gt;Node28</title>
<path fill="none" stroke="#191970" d="M2110.9778,-51.46C2092.0092,-41.4388 2067.3273,-28.3993 2050.7522,-19.6427"/>
<polygon fill="#191970" stroke="#191970" points="2109.5593,-54.669 2120.0362,-56.2455 2112.8292,-48.4796 2109.5593,-54.669"/>
</g>
<!-- Node117&#45;&gt;Node28 -->
<g id="edge33" class="edge">
<title>Node117&#45;&gt;Node28</title>
<path fill="none" stroke="#191970" d="M1645.0974,-56.799C1646.5814,-56.5183 1648.0527,-56.2507 1649.5,-56 1778.6723,-33.6266 1934.237,-18.5732 2000.3069,-12.7267"/>
<polygon fill="#191970" stroke="#191970" points="1644.3412,-53.381 1635.2377,-58.8011 1645.7342,-60.241 1644.3412,-53.381"/>
</g>
<!-- Node117&#45;&gt;Node133 -->
<g id="edge32" class="edge">
<title>Node117&#45;&gt;Node133</title>
<path fill="none" stroke="#191970" d="M1595.8353,-47.3372C1591.0313,-38.0605 1585.4277,-27.2398 1581.4935,-19.6427"/>
<polygon fill="#191970" stroke="#191970" points="1592.742,-48.9751 1600.4486,-56.2455 1598.958,-45.7561 1592.742,-48.9751"/>
</g>
<!-- Node129&#45;&gt;Node28 -->
<g id="edge36" class="edge">
<title>Node129&#45;&gt;Node28</title>
<path fill="none" stroke="#191970" d="M2769.6341,-56.1039C2491.2921,-18.1338 2166.5817,-11.4741 2064.683,-10.2659"/>
<polygon fill="#191970" stroke="#191970" points="2769.5467,-59.625 2779.9315,-57.526 2770.5044,-52.6908 2769.5467,-59.625"/>
</g>
<!-- Node129&#45;&gt;Node131 -->
<g id="edge35" class="edge">
<title>Node129&#45;&gt;Node131</title>
<path fill="none" stroke="#191970" d="M2863.424,-55.6115C2931.9184,-41.0539 3001.0185,-27.0752 3044.1568,-18.4336"/>
<polygon fill="#191970" stroke="#191970" points="2862.377,-52.256 2853.3258,-57.763 2863.8357,-59.1023 2862.377,-52.256"/>
</g>
<!-- Node161&#45;&gt;Node28 -->
<g id="edge38" class="edge">
<title>Node161&#45;&gt;Node28</title>
<path fill="none" stroke="#191970" d="M2181.4607,-53.4469C2146.1012,-43.1337 2096.7896,-28.7511 2064.7557,-19.4079"/>
<polygon fill="#191970" stroke="#191970" points="2180.914,-56.9332 2191.494,-56.3733 2182.874,-50.2132 2180.914,-56.9332"/>
</g>
<!-- Node125&#45;&gt;Node28 -->
<g id="edge40" class="edge">
<title>Node125&#45;&gt;Node28</title>
<path fill="none" stroke="#191970" d="M2272.5171,-55.8977C2192.3692,-37.681 2109.1654,-22.9119 2064.6271,-15.3385"/>
<polygon fill="#191970" stroke="#191970" points="2271.7439,-59.3112 2282.2733,-58.1361 2273.3093,-52.4884 2271.7439,-59.3112"/>
</g>
<!-- Node172&#45;&gt;Node170 -->
<g id="edge49" class="edge">
<title>Node172&#45;&gt;Node170</title>
<path fill="none" stroke="#191970" d="M3497.3465,-47.6296C3491.6753,-38.2887 3485.0155,-27.3197 3480.3545,-19.6427"/>
<polygon fill="#191970" stroke="#191970" points="3494.3961,-49.5141 3502.5777,-56.2455 3500.3796,-45.8812 3494.3961,-49.5141"/>
</g>
<!-- Node186&#45;&gt;Node28 -->
<g id="edge58" class="edge">
<title>Node186&#45;&gt;Node28</title>
<path fill="none" stroke="#191970" d="M1943.0144,-52.1109C1964.5938,-41.9559 1993.2976,-28.4482 2012.3101,-19.5011"/>
<polygon fill="#191970" stroke="#191970" points="1941.5147,-48.9484 1933.9568,-56.3733 1944.4953,-55.2821 1941.5147,-48.9484"/>
</g>
<!-- Node187&#45;&gt;Node28 -->
<g id="edge60" class="edge">
<title>Node187&#45;&gt;Node28</title>
<path fill="none" stroke="#191970" d="M2009.6535,-47.6296C2015.3247,-38.2887 2021.9845,-27.3197 2026.6455,-19.6427"/>
<polygon fill="#191970" stroke="#191970" points="2006.6204,-45.8812 2004.4223,-56.2455 2012.6039,-49.5141 2006.6204,-45.8812"/>
</g>
<!-- Node188&#45;&gt;Node28 -->
<g id="edge62" class="edge">
<title>Node188&#45;&gt;Node28</title>
<path fill="none" stroke="#191970" d="M2055.3465,-47.6296C2049.6753,-38.2887 2043.0155,-27.3197 2038.3545,-19.6427"/>
<polygon fill="#191970" stroke="#191970" points="2052.3961,-49.5141 2060.5777,-56.2455 2058.3796,-45.8812 2052.3961,-49.5141"/>
</g>
</g>
</svg>
