<?xml version="1.0" encoding="UTF-8" standalone="no"?>
<!DOCTYPE svg PUBLIC "-//W3C//DTD SVG 1.1//EN"
 "http://www.w3.org/Graphics/SVG/1.1/DTD/svg11.dtd">
<!-- Generated by graphviz version 2.40.1 (20161225.0304)
 -->
<!-- Title: packet_flags.h Pages: 1 -->
<svg width="1371pt" height="755pt"
 viewBox="0.00 0.00 1371.00 755.00" xmlns="http://www.w3.org/2000/svg" xmlns:xlink="http://www.w3.org/1999/xlink">
<g id="graph0" class="graph" transform="scale(1 1) rotate(0) translate(4 751)">
<title>packet_flags.h</title>
<polygon fill="#ffffff" stroke="transparent" points="-4,4 -4,-751 1367,-751 1367,4 -4,4"/>
<!-- Node0 -->
<g id="node1" class="node">
<title>Node0</title>
<polygon fill="#bfbfbf" stroke="#000000" points="140.5,-727.5 140.5,-746.5 227.5,-746.5 227.5,-727.5 140.5,-727.5"/>
<text text-anchor="middle" x="184" y="-734.5" font-family="Helvetica,sans-Serif" font-size="10.00" fill="#000000">packet_flags.h</text>
</g>
<!-- Node1 -->
<g id="node2" class="node">
<title>Node1</title>
<polygon fill="#ffffff" stroke="#bfbfbf" points="66.5,-660.5 66.5,-690.5 173.5,-690.5 173.5,-660.5 66.5,-660.5"/>
<text text-anchor="start" x="74.5" y="-678.5" font-family="Helvetica,sans-Serif" font-size="10.00" fill="#000000">odp/api/abi/packet</text>
<text text-anchor="middle" x="120" y="-667.5" font-family="Helvetica,sans-Serif" font-size="10.00" fill="#000000">_flags.h</text>
</g>
<!-- Node0&#45;&gt;Node1 -->
<g id="edge1" class="edge">
<title>Node0&#45;&gt;Node1</title>
<path fill="none" stroke="#191970" d="M174,-727.3906C165.7394,-719.4527 153.6878,-707.8718 143.0645,-697.6635"/>
<polygon fill="#191970" stroke="#191970" points="145.2918,-694.9498 135.6562,-690.5446 140.4416,-699.9971 145.2918,-694.9498"/>
</g>
<!-- Node2 -->
<g id="node3" class="node">
<title>Node2</title>
<g id="a_node3"><a xlink:href="api_2spec_2packet__flags_8h.html" target="_top" xlink:title="ODP packet flags. ">
<polygon fill="#ffffff" stroke="#000000" points="192,-660.5 192,-690.5 306,-690.5 306,-660.5 192,-660.5"/>
<text text-anchor="start" x="200" y="-678.5" font-family="Helvetica,sans-Serif" font-size="10.00" fill="#000000">odp/api/spec/packet</text>
<text text-anchor="middle" x="249" y="-667.5" font-family="Helvetica,sans-Serif" font-size="10.00" fill="#000000">_flags.h</text>
</a>
</g>
</g>
<!-- Node0&#45;&gt;Node2 -->
<g id="edge2" class="edge">
<title>Node0&#45;&gt;Node2</title>
<path fill="none" stroke="#191970" d="M194.1563,-727.3906C202.5459,-719.4527 214.7859,-707.8718 225.5751,-697.6635"/>
<polygon fill="#191970" stroke="#191970" points="228.2407,-699.9598 233.0992,-690.5446 223.4298,-694.875 228.2407,-699.9598"/>
</g>
<!-- Node3 -->
<g id="node4" class="node">
<title>Node3</title>
<g id="a_node4"><a xlink:href="visibility__begin_8h_source.html" target="_top" xlink:title="odp/visibility_begin.h">
<polygon fill="#ffffff" stroke="#000000" points="603.5,-.5 603.5,-19.5 724.5,-19.5 724.5,-.5 603.5,-.5"/>
<text text-anchor="middle" x="664" y="-7.5" font-family="Helvetica,sans-Serif" font-size="10.00" fill="#000000">odp/visibility_begin.h</text>
</a>
</g>
</g>
<!-- Node2&#45;&gt;Node3 -->
<g id="edge3" class="edge">
<title>Node2&#45;&gt;Node3</title>
<path fill="none" stroke="#191970" d="M191.8595,-660.668C150.8518,-649.5409 99.5239,-634.4841 80,-624 39.3907,-602.1934 0,-604.0938 0,-558 0,-558 0,-558 0,-122 0,-62.3542 421.9811,-26.6291 593.1441,-14.5916"/>
<polygon fill="#191970" stroke="#191970" points="593.5815,-18.0698 603.3142,-13.8836 593.0952,-11.0867 593.5815,-18.0698"/>
</g>
<!-- Node4 -->
<g id="node5" class="node">
<title>Node4</title>
<g id="a_node5"><a xlink:href="api_2std__types_8h.html" target="_top" xlink:title="Standard C language types and definitions for ODP. ">
<polygon fill="#ffffff" stroke="#000000" points="349,-235.5 349,-254.5 461,-254.5 461,-235.5 349,-235.5"/>
<text text-anchor="middle" x="405" y="-242.5" font-family="Helvetica,sans-Serif" font-size="10.00" fill="#000000">odp/api/std_types.h</text>
</a>
</g>
</g>
<!-- Node2&#45;&gt;Node4 -->
<g id="edge4" class="edge">
<title>Node2&#45;&gt;Node4</title>
<path fill="none" stroke="#191970" d="M203.994,-660.4668C142.0256,-638.3772 38,-595.6836 38,-558 38,-558 38,-558 38,-373.5 38,-310.4723 233.2533,-271.0243 338.9241,-254.2901"/>
<polygon fill="#191970" stroke="#191970" points="339.5193,-257.7397 348.8611,-252.7416 338.4414,-250.8232 339.5193,-257.7397"/>
</g>
<!-- Node11 -->
<g id="node12" class="node">
<title>Node11</title>
<g id="a_node12"><a xlink:href="visibility__end_8h_source.html" target="_top" xlink:title="odp/visibility_end.h">
<polygon fill="#ffffff" stroke="#000000" points="1117,-.5 1117,-19.5 1229,-19.5 1229,-.5 1117,-.5"/>
<text text-anchor="middle" x="1173" y="-7.5" font-family="Helvetica,sans-Serif" font-size="10.00" fill="#000000">odp/visibility_end.h</text>
</a>
</g>
</g>
<!-- Node2&#45;&gt;Node11 -->
<g id="edge62" class="edge">
<title>Node2&#45;&gt;Node11</title>
<path fill="none" stroke="#191970" d="M306.1607,-672.5034C533.7254,-660.2026 1363,-611.6935 1363,-558 1363,-558 1363,-558 1363,-122 1363,-62.973 1294.1046,-34.4224 1239.2871,-21.048"/>
<polygon fill="#191970" stroke="#191970" points="1239.7666,-17.5666 1229.2351,-18.7234 1238.1893,-24.3866 1239.7666,-17.5666"/>
</g>
<!-- Node12 -->
<g id="node13" class="node">
<title>Node12</title>
<g id="a_node13"><a xlink:href="api_2packet_8h.html" target="_top" xlink:title="ODP packet descriptor. ">
<polygon fill="#ffffff" stroke="#000000" points="411,-604.5 411,-623.5 509,-623.5 509,-604.5 411,-604.5"/>
<text text-anchor="middle" x="460" y="-611.5" font-family="Helvetica,sans-Serif" font-size="10.00" fill="#000000">odp/api/packet.h</text>
</a>
</g>
</g>
<!-- Node2&#45;&gt;Node12 -->
<g id="edge15" class="edge">
<title>Node2&#45;&gt;Node12</title>
<path fill="none" stroke="#191970" d="M300.6164,-660.4554C336.4399,-650.0139 383.594,-636.27 417.3009,-626.4455"/>
<polygon fill="#191970" stroke="#191970" points="418.6814,-629.6888 427.3025,-623.5303 416.7226,-622.9685 418.6814,-629.6888"/>
</g>
<!-- Node5 -->
<g id="node6" class="node">
<title>Node5</title>
<polygon fill="#ffffff" stroke="#bfbfbf" points="235,-174 235,-193 365,-193 365,-174 235,-174"/>
<text text-anchor="middle" x="300" y="-181" font-family="Helvetica,sans-Serif" font-size="10.00" fill="#000000">odp/api/abi/std_types.h</text>
</g>
<!-- Node4&#45;&gt;Node5 -->
<g id="edge5" class="edge">
<title>Node4&#45;&gt;Node5</title>
<path fill="none" stroke="#191970" d="M388.5938,-235.3906C371.5647,-225.4165 344.7159,-209.6908 325.0349,-198.1633"/>
<polygon fill="#191970" stroke="#191970" points="326.6888,-195.0759 316.291,-193.0419 323.151,-201.1161 326.6888,-195.0759"/>
</g>
<!-- Node6 -->
<g id="node7" class="node">
<title>Node6</title>
<g id="a_node7"><a xlink:href="api_2spec_2std__types_8h.html" target="_top" xlink:title="Standard C language types and definitions for ODP. ">
<polygon fill="#ffffff" stroke="#000000" points="383.5,-174 383.5,-193 520.5,-193 520.5,-174 383.5,-174"/>
<text text-anchor="middle" x="452" y="-181" font-family="Helvetica,sans-Serif" font-size="10.00" fill="#000000">odp/api/spec/std_types.h</text>
</a>
</g>
</g>
<!-- Node4&#45;&gt;Node6 -->
<g id="edge6" class="edge">
<title>Node4&#45;&gt;Node6</title>
<path fill="none" stroke="#191970" d="M412.3438,-235.3906C419.2702,-226.3273 429.826,-212.5149 438.306,-201.4188"/>
<polygon fill="#191970" stroke="#191970" points="441.2615,-203.3155 444.5527,-193.2449 435.6997,-199.065 441.2615,-203.3155"/>
</g>
<!-- Node6&#45;&gt;Node3 -->
<g id="edge7" class="edge">
<title>Node6&#45;&gt;Node3</title>
<path fill="none" stroke="#191970" d="M412.3698,-173.9607C343.5347,-155.6376 213.8067,-112.2964 264,-56 285.4624,-31.928 483.8517,-18.6572 592.926,-13.1244"/>
<polygon fill="#191970" stroke="#191970" points="593.3804,-16.6062 603.1939,-12.613 593.0321,-9.6149 593.3804,-16.6062"/>
</g>
<!-- Node7 -->
<g id="node8" class="node">
<title>Node7</title>
<polygon fill="#ffffff" stroke="#bfbfbf" points="322.5,-112.5 322.5,-131.5 375.5,-131.5 375.5,-112.5 322.5,-112.5"/>
<text text-anchor="middle" x="349" y="-119.5" font-family="Helvetica,sans-Serif" font-size="10.00" fill="#000000">stdint.h</text>
</g>
<!-- Node6&#45;&gt;Node7 -->
<g id="edge8" class="edge">
<title>Node6&#45;&gt;Node7</title>
<path fill="none" stroke="#191970" d="M435.9063,-173.8906C419.2772,-163.9616 393.1024,-148.333 373.8206,-136.8201"/>
<polygon fill="#191970" stroke="#191970" points="375.361,-133.6634 364.9807,-131.5419 371.7724,-139.6736 375.361,-133.6634"/>
</g>
<!-- Node8 -->
<g id="node9" class="node">
<title>Node8</title>
<g id="a_node9"><a xlink:href="api_2align_8h.html" target="_top" xlink:title="ODP alignments. ">
<polygon fill="#ffffff" stroke="#000000" points="393.5,-112.5 393.5,-131.5 482.5,-131.5 482.5,-112.5 393.5,-112.5"/>
<text text-anchor="middle" x="438" y="-119.5" font-family="Helvetica,sans-Serif" font-size="10.00" fill="#000000">odp/api/align.h</text>
</a>
</g>
</g>
<!-- Node6&#45;&gt;Node8 -->
<g id="edge9" class="edge">
<title>Node6&#45;&gt;Node8</title>
<path fill="none" stroke="#191970" d="M449.8125,-173.8906C447.8514,-165.276 444.9137,-152.3708 442.4585,-141.5858"/>
<polygon fill="#191970" stroke="#191970" points="445.8507,-140.7185 440.2183,-131.7449 439.0254,-142.2723 445.8507,-140.7185"/>
</g>
<!-- Node6&#45;&gt;Node11 -->
<g id="edge14" class="edge">
<title>Node6&#45;&gt;Node11</title>
<path fill="none" stroke="#191970" d="M459.2221,-173.8897C478.5079,-149.0754 534.118,-82.9219 598,-56 643.86,-36.6731 965.1708,-19.6262 1106.5262,-12.9707"/>
<polygon fill="#191970" stroke="#191970" points="1106.9677,-16.454 1116.7933,-12.4907 1106.6407,-9.4617 1106.9677,-16.454"/>
</g>
<!-- Node9 -->
<g id="node10" class="node">
<title>Node9</title>
<polygon fill="#ffffff" stroke="#bfbfbf" points="273.5,-56.5 273.5,-75.5 380.5,-75.5 380.5,-56.5 273.5,-56.5"/>
<text text-anchor="middle" x="327" y="-63.5" font-family="Helvetica,sans-Serif" font-size="10.00" fill="#000000">odp/api/abi/align.h</text>
</g>
<!-- Node8&#45;&gt;Node9 -->
<g id="edge10" class="edge">
<title>Node8&#45;&gt;Node9</title>
<path fill="none" stroke="#191970" d="M418.9184,-112.3733C401.2598,-103.4644 374.7947,-90.1127 354.7902,-80.0203"/>
<polygon fill="#191970" stroke="#191970" points="356.3372,-76.8806 345.8326,-75.5011 353.1842,-83.1303 356.3372,-76.8806"/>
</g>
<!-- Node10 -->
<g id="node11" class="node">
<title>Node10</title>
<g id="a_node11"><a xlink:href="api_2spec_2align_8h.html" target="_top" xlink:title="ODP alignments. ">
<polygon fill="#ffffff" stroke="#000000" points="399,-56.5 399,-75.5 513,-75.5 513,-56.5 399,-56.5"/>
<text text-anchor="middle" x="456" y="-63.5" font-family="Helvetica,sans-Serif" font-size="10.00" fill="#000000">odp/api/spec/align.h</text>
</a>
</g>
</g>
<!-- Node8&#45;&gt;Node10 -->
<g id="edge11" class="edge">
<title>Node8&#45;&gt;Node10</title>
<path fill="none" stroke="#191970" d="M441.1354,-112.2455C443.51,-104.8579 446.8493,-94.4689 449.7615,-85.4087"/>
<polygon fill="#191970" stroke="#191970" points="453.1725,-86.234 452.9006,-75.6427 446.5083,-84.0919 453.1725,-86.234"/>
</g>
<!-- Node10&#45;&gt;Node3 -->
<g id="edge12" class="edge">
<title>Node10&#45;&gt;Node3</title>
<path fill="none" stroke="#191970" d="M491.7565,-56.3733C526.9426,-46.9001 580.7881,-32.4032 618.8956,-22.1435"/>
<polygon fill="#191970" stroke="#191970" points="619.9639,-25.4806 628.7101,-19.5011 618.144,-18.7213 619.9639,-25.4806"/>
</g>
<!-- Node10&#45;&gt;Node11 -->
<g id="edge13" class="edge">
<title>Node10&#45;&gt;Node11</title>
<path fill="none" stroke="#191970" d="M513.1209,-60.5864C529.8368,-59.049 548.1462,-57.4106 565,-56 761.9177,-39.5189 994.9386,-22.6145 1106.7062,-14.6674"/>
<polygon fill="#191970" stroke="#191970" points="1107.0876,-18.1493 1116.8146,-13.9496 1106.5917,-11.1668 1107.0876,-18.1493"/>
</g>
<!-- Node12&#45;&gt;Node4 -->
<g id="edge16" class="edge">
<title>Node12&#45;&gt;Node4</title>
<path fill="none" stroke="#191970" d="M459.3502,-604.066C457.9902,-590.2216 453.8074,-564.9244 441,-548 422.692,-523.8068 401.8304,-535.7889 383,-512 362.1956,-485.7173 359,-474.0202 359,-440.5 359,-440.5 359,-440.5 359,-373.5 359,-335.8735 364.0937,-325.9624 378,-291 381.8294,-281.3724 387.4692,-271.3732 392.6054,-263.1664"/>
<polygon fill="#191970" stroke="#191970" points="395.5439,-265.0678 398.0669,-254.7777 389.6776,-261.2485 395.5439,-265.0678"/>
</g>
<!-- Node13 -->
<g id="node14" class="node">
<title>Node13</title>
<polygon fill="#ffffff" stroke="#bfbfbf" points="488,-548.5 488,-567.5 598,-567.5 598,-548.5 488,-548.5"/>
<text text-anchor="middle" x="543" y="-555.5" font-family="Helvetica,sans-Serif" font-size="10.00" fill="#000000">odp/api/abi/event.h</text>
</g>
<!-- Node12&#45;&gt;Node13 -->
<g id="edge17" class="edge">
<title>Node12&#45;&gt;Node13</title>
<path fill="none" stroke="#191970" d="M474.4575,-604.2455C487.0732,-595.7337 505.5944,-583.2375 520.2045,-573.3801"/>
<polygon fill="#191970" stroke="#191970" points="522.3761,-576.1371 528.7082,-567.6427 518.4609,-570.3343 522.3761,-576.1371"/>
</g>
<!-- Node14 -->
<g id="node15" class="node">
<title>Node14</title>
<polygon fill="#ffffff" stroke="#bfbfbf" points="758,-548.5 758,-567.5 888,-567.5 888,-548.5 758,-548.5"/>
<text text-anchor="middle" x="823" y="-555.5" font-family="Helvetica,sans-Serif" font-size="10.00" fill="#000000">odp/api/abi/packet_io.h</text>
</g>
<!-- Node12&#45;&gt;Node14 -->
<g id="edge18" class="edge">
<title>Node12&#45;&gt;Node14</title>
<path fill="none" stroke="#191970" d="M509.3336,-606.3893C571.691,-596.7694 679.5081,-580.1365 751.0473,-569.1001"/>
<polygon fill="#191970" stroke="#191970" points="751.9798,-572.4978 761.3293,-567.5139 750.9125,-565.5796 751.9798,-572.4978"/>
</g>
<!-- Node15 -->
<g id="node16" class="node">
<title>Node15</title>
<polygon fill="#ffffff" stroke="#bfbfbf" points="862.5,-425.5 862.5,-455.5 969.5,-455.5 969.5,-425.5 862.5,-425.5"/>
<text text-anchor="start" x="870.5" y="-443.5" font-family="Helvetica,sans-Serif" font-size="10.00" fill="#000000">odp/api/abi/packet</text>
<text text-anchor="middle" x="916" y="-432.5" font-family="Helvetica,sans-Serif" font-size="10.00" fill="#000000">_types.h</text>
</g>
<!-- Node12&#45;&gt;Node15 -->
<g id="edge19" class="edge">
<title>Node12&#45;&gt;Node15</title>
<path fill="none" stroke="#191970" d="M509.2239,-612.1641C617.5966,-607.6526 869.4196,-594.4178 897,-568 924.229,-541.9188 923.8477,-494.9446 920.4042,-465.8734"/>
<polygon fill="#191970" stroke="#191970" points="923.8318,-465.1105 918.9857,-455.689 916.8987,-466.0762 923.8318,-465.1105"/>
</g>
<!-- Node16 -->
<g id="node17" class="node">
<title>Node16</title>
<polygon fill="#ffffff" stroke="#bfbfbf" points="66,-548.5 66,-567.5 182,-567.5 182,-548.5 66,-548.5"/>
<text text-anchor="middle" x="124" y="-555.5" font-family="Helvetica,sans-Serif" font-size="10.00" fill="#000000">odp/api/abi/packet.h</text>
</g>
<!-- Node12&#45;&gt;Node16 -->
<g id="edge20" class="edge">
<title>Node12&#45;&gt;Node16</title>
<path fill="none" stroke="#191970" d="M410.7829,-605.7971C352.8201,-596.1367 256.2348,-580.0391 191.3596,-569.2266"/>
<polygon fill="#191970" stroke="#191970" points="191.6699,-565.7301 181.2305,-567.5384 190.5191,-572.6349 191.6699,-565.7301"/>
</g>
<!-- Node17 -->
<g id="node18" class="node">
<title>Node17</title>
<polygon fill="#ffffff" stroke="#bfbfbf" points="200,-548.5 200,-567.5 310,-567.5 310,-548.5 200,-548.5"/>
<text text-anchor="middle" x="255" y="-555.5" font-family="Helvetica,sans-Serif" font-size="10.00" fill="#000000">odp/api/abi/buffer.h</text>
</g>
<!-- Node12&#45;&gt;Node17 -->
<g id="edge21" class="edge">
<title>Node12&#45;&gt;Node17</title>
<path fill="none" stroke="#191970" d="M424.7592,-604.3733C390.0806,-594.9001 337.0117,-580.4032 299.4538,-570.1435"/>
<polygon fill="#191970" stroke="#191970" points="300.3498,-566.7601 289.7809,-567.5011 298.5051,-573.5126 300.3498,-566.7601"/>
</g>
<!-- Node18 -->
<g id="node19" class="node">
<title>Node18</title>
<polygon fill="#ffffff" stroke="#bfbfbf" points="328,-548.5 328,-567.5 432,-567.5 432,-548.5 328,-548.5"/>
<text text-anchor="middle" x="380" y="-555.5" font-family="Helvetica,sans-Serif" font-size="10.00" fill="#000000">odp/api/abi/pool.h</text>
</g>
<!-- Node12&#45;&gt;Node18 -->
<g id="edge22" class="edge">
<title>Node12&#45;&gt;Node18</title>
<path fill="none" stroke="#191970" d="M446.0651,-604.2455C433.9053,-595.7337 416.0536,-583.2375 401.9715,-573.3801"/>
<polygon fill="#191970" stroke="#191970" points="403.9747,-570.51 393.7752,-567.6427 399.9605,-576.2447 403.9747,-570.51"/>
</g>
<!-- Node19 -->
<g id="node20" class="node">
<title>Node19</title>
<g id="a_node20"><a xlink:href="api_2spec_2packet_8h.html" target="_top" xlink:title="ODP packet descriptor. ">
<polygon fill="#ffffff" stroke="#000000" points="616.5,-548.5 616.5,-567.5 739.5,-567.5 739.5,-548.5 616.5,-548.5"/>
<text text-anchor="middle" x="678" y="-555.5" font-family="Helvetica,sans-Serif" font-size="10.00" fill="#000000">odp/api/spec/packet.h</text>
</a>
</g>
</g>
<!-- Node12&#45;&gt;Node19 -->
<g id="edge23" class="edge">
<title>Node12&#45;&gt;Node19</title>
<path fill="none" stroke="#191970" d="M497.4755,-604.3733C534.5103,-594.8598 591.2682,-580.2797 631.2361,-570.0127"/>
<polygon fill="#191970" stroke="#191970" points="632.1988,-573.3792 641.0135,-567.5011 630.4571,-566.5993 632.1988,-573.3792"/>
</g>
<!-- Node19&#45;&gt;Node3 -->
<g id="edge24" class="edge">
<title>Node19&#45;&gt;Node3</title>
<path fill="none" stroke="#191970" d="M645.8744,-548.4826C538.8519,-514.6403 202.4693,-390.1123 226,-168 231.3632,-117.3755 212.2412,-90.1449 250,-56 274.902,-33.4814 481.5256,-19.4273 593.1252,-13.4069"/>
<polygon fill="#191970" stroke="#191970" points="593.4908,-16.8925 603.2909,-12.8665 593.1192,-9.9023 593.4908,-16.8925"/>
</g>
<!-- Node19&#45;&gt;Node11 -->
<g id="edge61" class="edge">
<title>Node19&#45;&gt;Node11</title>
<path fill="none" stroke="#191970" d="M739.1596,-548.4945C900.4419,-523.2239 1325,-455.2967 1325,-440.5 1325,-440.5 1325,-440.5 1325,-122 1325,-68.8635 1264.0521,-38.1127 1219.3436,-22.7035"/>
<polygon fill="#191970" stroke="#191970" points="1220.388,-19.3626 1209.795,-19.5566 1218.1969,-26.0108 1220.388,-19.3626"/>
</g>
<!-- Node20 -->
<g id="node21" class="node">
<title>Node20</title>
<g id="a_node21"><a xlink:href="api_2proto__stats__types_8h.html" target="_top" xlink:title="ODP proto stats types. ">
<polygon fill="#ffffff" stroke="#000000" points="538,-358.5 538,-388.5 648,-388.5 648,-358.5 538,-358.5"/>
<text text-anchor="start" x="546" y="-376.5" font-family="Helvetica,sans-Serif" font-size="10.00" fill="#000000">odp/api/proto_stats</text>
<text text-anchor="middle" x="593" y="-365.5" font-family="Helvetica,sans-Serif" font-size="10.00" fill="#000000">_types.h</text>
</a>
</g>
</g>
<!-- Node19&#45;&gt;Node20 -->
<g id="edge25" class="edge">
<title>Node19&#45;&gt;Node20</title>
<path fill="none" stroke="#191970" d="M673.5497,-548.3402C660.706,-520.4619 623.2859,-439.2381 604.3123,-398.0544"/>
<polygon fill="#191970" stroke="#191970" points="607.3827,-396.3543 600.0194,-388.7363 601.025,-399.2834 607.3827,-396.3543"/>
</g>
<!-- Node23 -->
<g id="node24" class="node">
<title>Node23</title>
<g id="a_node24"><a xlink:href="api_2time_8h.html" target="_top" xlink:title="ODP time. ">
<polygon fill="#ffffff" stroke="#000000" points="658.5,-297 658.5,-316 745.5,-316 745.5,-297 658.5,-297"/>
<text text-anchor="middle" x="702" y="-304" font-family="Helvetica,sans-Serif" font-size="10.00" fill="#000000">odp/api/time.h</text>
</a>
</g>
</g>
<!-- Node19&#45;&gt;Node23 -->
<g id="edge31" class="edge">
<title>Node19&#45;&gt;Node23</title>
<path fill="none" stroke="#191970" d="M678.9115,-548.448C682.4459,-511.411 695.2884,-376.8321 700.1331,-326.0638"/>
<polygon fill="#191970" stroke="#191970" points="703.6217,-326.3488 701.0876,-316.0615 696.6533,-325.6838 703.6217,-326.3488"/>
</g>
<!-- Node26 -->
<g id="node27" class="node">
<title>Node26</title>
<g id="a_node27"><a xlink:href="api_2packet__types_8h.html" target="_top" xlink:title="ODP packet. ">
<polygon fill="#ffffff" stroke="#000000" points="722,-492.5 722,-511.5 852,-511.5 852,-492.5 722,-492.5"/>
<text text-anchor="middle" x="787" y="-499.5" font-family="Helvetica,sans-Serif" font-size="10.00" fill="#000000">odp/api/packet_types.h</text>
</a>
</g>
</g>
<!-- Node19&#45;&gt;Node26 -->
<g id="edge37" class="edge">
<title>Node19&#45;&gt;Node26</title>
<path fill="none" stroke="#191970" d="M696.9864,-548.2455C714.1792,-539.4125 739.7238,-526.2887 759.2132,-516.2758"/>
<polygon fill="#191970" stroke="#191970" points="760.9359,-519.3257 768.2312,-511.6427 757.737,-513.0993 760.9359,-519.3257"/>
</g>
<!-- Node21 -->
<g id="node22" class="node">
<title>Node21</title>
<polygon fill="#ffffff" stroke="#bfbfbf" points="387,-291.5 387,-321.5 515,-321.5 515,-291.5 387,-291.5"/>
<text text-anchor="start" x="395" y="-309.5" font-family="Helvetica,sans-Serif" font-size="10.00" fill="#000000">odp/api/abi/proto_stats</text>
<text text-anchor="middle" x="451" y="-298.5" font-family="Helvetica,sans-Serif" font-size="10.00" fill="#000000">_types.h</text>
</g>
<!-- Node20&#45;&gt;Node21 -->
<g id="edge26" class="edge">
<title>Node20&#45;&gt;Node21</title>
<path fill="none" stroke="#191970" d="M561.1324,-358.4639C540.8125,-348.8763 514.2738,-336.3545 492.3395,-326.0052"/>
<polygon fill="#191970" stroke="#191970" points="493.7899,-322.8196 483.2525,-321.7177 490.8028,-329.1503 493.7899,-322.8196"/>
</g>
<!-- Node22 -->
<g id="node23" class="node">
<title>Node22</title>
<g id="a_node23"><a xlink:href="api_2spec_2proto__stats__types_8h.html" target="_top" xlink:title="ODP proto stats types. ">
<polygon fill="#ffffff" stroke="#000000" points="533.5,-291.5 533.5,-321.5 640.5,-321.5 640.5,-291.5 533.5,-291.5"/>
<text text-anchor="start" x="541.5" y="-309.5" font-family="Helvetica,sans-Serif" font-size="10.00" fill="#000000">odp/api/spec/proto</text>
<text text-anchor="middle" x="587" y="-298.5" font-family="Helvetica,sans-Serif" font-size="10.00" fill="#000000">_stats_types.h</text>
</a>
</g>
</g>
<!-- Node20&#45;&gt;Node22 -->
<g id="edge27" class="edge">
<title>Node20&#45;&gt;Node22</title>
<path fill="none" stroke="#191970" d="M591.6385,-358.2967C590.9327,-350.4156 590.0524,-340.5857 589.249,-331.6135"/>
<polygon fill="#191970" stroke="#191970" points="592.7342,-331.2911 588.3561,-321.6432 585.7621,-331.9155 592.7342,-331.2911"/>
</g>
<!-- Node22&#45;&gt;Node3 -->
<g id="edge28" class="edge">
<title>Node22&#45;&gt;Node3</title>
<path fill="none" stroke="#191970" d="M581.7545,-291.3942C578.5144,-281.2442 574.6674,-267.4902 573,-255 564.59,-192.0033 559.7549,-174.1601 573,-112 578.6803,-85.342 580.6294,-77.0042 598,-56 608.3858,-43.4418 623.0148,-32.7753 635.8617,-24.8849"/>
<polygon fill="#191970" stroke="#191970" points="637.9538,-27.7158 644.815,-19.6428 634.4169,-21.675 637.9538,-27.7158"/>
</g>
<!-- Node22&#45;&gt;Node4 -->
<g id="edge29" class="edge">
<title>Node22&#45;&gt;Node4</title>
<path fill="none" stroke="#191970" d="M542.4778,-291.4554C511.9774,-281.149 471.955,-267.6249 442.9642,-257.8286"/>
<polygon fill="#191970" stroke="#191970" points="443.7978,-254.4159 433.2035,-254.5303 441.5568,-261.0475 443.7978,-254.4159"/>
</g>
<!-- Node22&#45;&gt;Node11 -->
<g id="edge30" class="edge">
<title>Node22&#45;&gt;Node11</title>
<path fill="none" stroke="#191970" d="M593.16,-291.3924C600.5325,-275.1548 614.3882,-249.702 634,-235 637.0161,-232.739 1150.3386,-78.6695 1153,-76 1165.1251,-63.838 1169.9415,-44.5848 1171.8329,-30.005"/>
<polygon fill="#191970" stroke="#191970" points="1175.3255,-30.2464 1172.7816,-19.9615 1168.3566,-29.588 1175.3255,-30.2464"/>
</g>
<!-- Node23&#45;&gt;Node4 -->
<g id="edge32" class="edge">
<title>Node23&#45;&gt;Node4</title>
<path fill="none" stroke="#191970" d="M671.3087,-296.9698C664.0321,-294.8645 656.2714,-292.7442 649,-291 589.1949,-276.6542 520.265,-264.0112 470.956,-255.6287"/>
<polygon fill="#191970" stroke="#191970" points="471.4965,-252.1706 461.0535,-253.9578 470.3317,-259.073 471.4965,-252.1706"/>
</g>
<!-- Node24 -->
<g id="node25" class="node">
<title>Node24</title>
<polygon fill="#ffffff" stroke="#bfbfbf" points="653.5,-235.5 653.5,-254.5 758.5,-254.5 758.5,-235.5 653.5,-235.5"/>
<text text-anchor="middle" x="706" y="-242.5" font-family="Helvetica,sans-Serif" font-size="10.00" fill="#000000">odp/api/abi/time.h</text>
</g>
<!-- Node23&#45;&gt;Node24 -->
<g id="edge33" class="edge">
<title>Node23&#45;&gt;Node24</title>
<path fill="none" stroke="#191970" d="M702.625,-296.8906C703.1795,-288.3657 704.0072,-275.6392 704.7042,-264.9235"/>
<polygon fill="#191970" stroke="#191970" points="708.2097,-264.951 705.3662,-254.7449 701.2244,-264.4966 708.2097,-264.951"/>
</g>
<!-- Node25 -->
<g id="node26" class="node">
<title>Node25</title>
<g id="a_node26"><a xlink:href="api_2spec_2time_8h.html" target="_top" xlink:title="ODP time. ">
<polygon fill="#ffffff" stroke="#000000" points="607.5,-56.5 607.5,-75.5 720.5,-75.5 720.5,-56.5 607.5,-56.5"/>
<text text-anchor="middle" x="664" y="-63.5" font-family="Helvetica,sans-Serif" font-size="10.00" fill="#000000">odp/api/spec/time.h</text>
</a>
</g>
</g>
<!-- Node23&#45;&gt;Node25 -->
<g id="edge34" class="edge">
<title>Node23&#45;&gt;Node25</title>
<path fill="none" stroke="#191970" d="M684.9387,-296.9761C671.0163,-288.132 652.3348,-273.547 644,-255 618.1378,-197.4501 642.0697,-120.4247 655.8378,-85.1271"/>
<polygon fill="#191970" stroke="#191970" points="659.1951,-86.162 659.718,-75.5801 652.7103,-83.5263 659.1951,-86.162"/>
</g>
<!-- Node25&#45;&gt;Node3 -->
<g id="edge35" class="edge">
<title>Node25&#45;&gt;Node3</title>
<path fill="none" stroke="#191970" d="M664,-56.2455C664,-48.9382 664,-38.6944 664,-29.7046"/>
<polygon fill="#191970" stroke="#191970" points="667.5001,-29.6426 664,-19.6427 660.5001,-29.6427 667.5001,-29.6426"/>
</g>
<!-- Node25&#45;&gt;Node11 -->
<g id="edge36" class="edge">
<title>Node25&#45;&gt;Node11</title>
<path fill="none" stroke="#191970" d="M720.9072,-59.7391C815.8365,-49.295 1006.0066,-28.3726 1106.7869,-17.2847"/>
<polygon fill="#191970" stroke="#191970" points="1107.2893,-20.7507 1116.8465,-16.178 1106.5237,-13.7927 1107.2893,-20.7507"/>
</g>
<!-- Node26&#45;&gt;Node15 -->
<g id="edge38" class="edge">
<title>Node26&#45;&gt;Node15</title>
<path fill="none" stroke="#191970" d="M807.1563,-492.3906C825.3423,-483.7205 852.6441,-470.7046 875.3537,-459.8779"/>
<polygon fill="#191970" stroke="#191970" points="876.9226,-463.0074 884.443,-455.5446 873.9102,-456.6887 876.9226,-463.0074"/>
</g>
<!-- Node27 -->
<g id="node28" class="node">
<title>Node27</title>
<g id="a_node28"><a xlink:href="api_2spec_2packet__types_8h.html" target="_top" xlink:title="ODP packet types. ">
<polygon fill="#ffffff" stroke="#000000" points="730,-425.5 730,-455.5 844,-455.5 844,-425.5 730,-425.5"/>
<text text-anchor="start" x="738" y="-443.5" font-family="Helvetica,sans-Serif" font-size="10.00" fill="#000000">odp/api/spec/packet</text>
<text text-anchor="middle" x="787" y="-432.5" font-family="Helvetica,sans-Serif" font-size="10.00" fill="#000000">_types.h</text>
</a>
</g>
</g>
<!-- Node26&#45;&gt;Node27 -->
<g id="edge39" class="edge">
<title>Node26&#45;&gt;Node27</title>
<path fill="none" stroke="#191970" d="M787,-492.3906C787,-485.2234 787,-475.0862 787,-465.671"/>
<polygon fill="#191970" stroke="#191970" points="790.5001,-465.5446 787,-455.5446 783.5001,-465.5446 790.5001,-465.5446"/>
</g>
<!-- Node27&#45;&gt;Node3 -->
<g id="edge40" class="edge">
<title>Node27&#45;&gt;Node3</title>
<path fill="none" stroke="#191970" d="M788.9361,-425.3489C795.1454,-370.4378 809.7194,-178.6533 729,-56 720.3769,-42.8972 706.6294,-32.3731 693.9936,-24.7156"/>
<polygon fill="#191970" stroke="#191970" points="695.5021,-21.5472 685.0784,-19.6505 692.0442,-27.6335 695.5021,-21.5472"/>
</g>
<!-- Node27&#45;&gt;Node11 -->
<g id="edge60" class="edge">
<title>Node27&#45;&gt;Node11</title>
<path fill="none" stroke="#191970" d="M844.3564,-426.643C975.6902,-394.7176 1287,-317.8459 1287,-306.5 1287,-306.5 1287,-306.5 1287,-122 1287,-75.4628 1238.0617,-41.828 1204.3136,-24.1659"/>
<polygon fill="#191970" stroke="#191970" points="1205.7576,-20.9746 1195.251,-19.6105 1202.6138,-27.2289 1205.7576,-20.9746"/>
</g>
<!-- Node27&#45;&gt;Node20 -->
<g id="edge41" class="edge">
<title>Node27&#45;&gt;Node20</title>
<path fill="none" stroke="#191970" d="M743.4626,-425.4639C714.7333,-415.5419 676.9047,-402.4774 646.3656,-391.9304"/>
<polygon fill="#191970" stroke="#191970" points="647.322,-388.5579 636.7273,-388.6017 645.0369,-395.1744 647.322,-388.5579"/>
</g>
<!-- Node28 -->
<g id="node29" class="node">
<title>Node28</title>
<g id="a_node29"><a xlink:href="api_2queue__types_8h.html" target="_top" xlink:title="ODP queue. ">
<polygon fill="#ffffff" stroke="#000000" points="824.5,-364 824.5,-383 951.5,-383 951.5,-364 824.5,-364"/>
<text text-anchor="middle" x="888" y="-371" font-family="Helvetica,sans-Serif" font-size="10.00" fill="#000000">odp/api/queue_types.h</text>
</a>
</g>
</g>
<!-- Node27&#45;&gt;Node28 -->
<g id="edge42" class="edge">
<title>Node27&#45;&gt;Node28</title>
<path fill="none" stroke="#191970" d="M809.6664,-425.4639C826.1549,-414.526 848.4004,-399.769 864.9722,-388.7759"/>
<polygon fill="#191970" stroke="#191970" points="867.1241,-391.5485 873.5224,-383.1039 863.2545,-385.7153 867.1241,-391.5485"/>
</g>
<!-- Node29 -->
<g id="node30" class="node">
<title>Node29</title>
<polygon fill="#ffffff" stroke="#bfbfbf" points="815.5,-297 815.5,-316 960.5,-316 960.5,-297 815.5,-297"/>
<text text-anchor="middle" x="888" y="-304" font-family="Helvetica,sans-Serif" font-size="10.00" fill="#000000">odp/api/abi/queue_types.h</text>
</g>
<!-- Node28&#45;&gt;Node29 -->
<g id="edge43" class="edge">
<title>Node28&#45;&gt;Node29</title>
<path fill="none" stroke="#191970" d="M888,-363.9005C888,-354.149 888,-338.7597 888,-326.3695"/>
<polygon fill="#191970" stroke="#191970" points="891.5001,-326.0816 888,-316.0817 884.5001,-326.0817 891.5001,-326.0816"/>
</g>
<!-- Node30 -->
<g id="node31" class="node">
<title>Node30</title>
<g id="a_node31"><a xlink:href="api_2spec_2queue__types_8h.html" target="_top" xlink:title="ODP queue types. ">
<polygon fill="#ffffff" stroke="#000000" points="978.5,-291.5 978.5,-321.5 1089.5,-321.5 1089.5,-291.5 978.5,-291.5"/>
<text text-anchor="start" x="986.5" y="-309.5" font-family="Helvetica,sans-Serif" font-size="10.00" fill="#000000">odp/api/spec/queue</text>
<text text-anchor="middle" x="1034" y="-298.5" font-family="Helvetica,sans-Serif" font-size="10.00" fill="#000000">_types.h</text>
</a>
</g>
</g>
<!-- Node28&#45;&gt;Node30 -->
<g id="edge44" class="edge">
<title>Node28&#45;&gt;Node30</title>
<path fill="none" stroke="#191970" d="M908.9182,-363.9005C930.5011,-353.9961 964.7576,-338.2756 991.9677,-325.7888"/>
<polygon fill="#191970" stroke="#191970" points="993.6371,-328.8737 1001.266,-321.5218 990.7175,-322.5116 993.6371,-328.8737"/>
</g>
<!-- Node30&#45;&gt;Node3 -->
<g id="edge45" class="edge">
<title>Node30&#45;&gt;Node3</title>
<path fill="none" stroke="#191970" d="M978.0576,-292.6237C923.8918,-278.9915 849.1826,-259.5866 844,-255 772.4917,-191.7151 828.8679,-125.1364 763,-56 748.6391,-40.9265 728.3738,-30.3192 709.9155,-23.1206"/>
<polygon fill="#191970" stroke="#191970" points="711.0624,-19.8134 700.4687,-19.6614 708.6554,-26.3865 711.0624,-19.8134"/>
</g>
<!-- Node30&#45;&gt;Node11 -->
<g id="edge59" class="edge">
<title>Node30&#45;&gt;Node11</title>
<path fill="none" stroke="#191970" d="M1089.6474,-299.0926C1153.3511,-287.124 1249,-256.9277 1249,-183.5 1249,-183.5 1249,-183.5 1249,-122 1249,-82.2361 1215.7929,-46.1042 1193.2792,-26.177"/>
<polygon fill="#191970" stroke="#191970" points="1195.4317,-23.4128 1185.5499,-19.5918 1190.8921,-28.7412 1195.4317,-23.4128"/>
</g>
<!-- Node31 -->
<g id="node32" class="node">
<title>Node31</title>
<g id="a_node32"><a xlink:href="api_2schedule__types_8h.html" target="_top" xlink:title="ODP schedule. ">
<polygon fill="#ffffff" stroke="#000000" points="991,-235.5 991,-254.5 1131,-254.5 1131,-235.5 991,-235.5"/>
<text text-anchor="middle" x="1061" y="-242.5" font-family="Helvetica,sans-Serif" font-size="10.00" fill="#000000">odp/api/schedule_types.h</text>
</a>
</g>
</g>
<!-- Node30&#45;&gt;Node31 -->
<g id="edge46" class="edge">
<title>Node30&#45;&gt;Node31</title>
<path fill="none" stroke="#191970" d="M1040.6742,-291.2977C1044.2659,-283.1166 1048.7324,-272.943 1052.5629,-264.2179"/>
<polygon fill="#191970" stroke="#191970" points="1055.8618,-265.4104 1056.677,-254.8469 1049.4522,-262.5964 1055.8618,-265.4104"/>
</g>
<!-- Node36 -->
<g id="node37" class="node">
<title>Node36</title>
<g id="a_node37"><a xlink:href="deprecated_8h.html" target="_top" xlink:title="Control deprecated API definitions. ">
<polygon fill="#ffffff" stroke="#000000" points="853.5,-235.5 853.5,-254.5 972.5,-254.5 972.5,-235.5 853.5,-235.5"/>
<text text-anchor="middle" x="913" y="-242.5" font-family="Helvetica,sans-Serif" font-size="10.00" fill="#000000">odp/api/deprecated.h</text>
</a>
</g>
</g>
<!-- Node30&#45;&gt;Node36 -->
<g id="edge55" class="edge">
<title>Node30&#45;&gt;Node36</title>
<path fill="none" stroke="#191970" d="M1004.4001,-291.4554C985.0078,-281.599 959.8258,-268.7999 940.8057,-259.1327"/>
<polygon fill="#191970" stroke="#191970" points="942.2512,-255.9412 931.7507,-254.5303 939.0795,-262.1815 942.2512,-255.9412"/>
</g>
<!-- Node32 -->
<g id="node33" class="node">
<title>Node32</title>
<polygon fill="#ffffff" stroke="#bfbfbf" points="916.5,-168.5 916.5,-198.5 1033.5,-198.5 1033.5,-168.5 916.5,-168.5"/>
<text text-anchor="start" x="924.5" y="-186.5" font-family="Helvetica,sans-Serif" font-size="10.00" fill="#000000">odp/api/abi/schedule</text>
<text text-anchor="middle" x="975" y="-175.5" font-family="Helvetica,sans-Serif" font-size="10.00" fill="#000000">_types.h</text>
</g>
<!-- Node31&#45;&gt;Node32 -->
<g id="edge47" class="edge">
<title>Node31&#45;&gt;Node32</title>
<path fill="none" stroke="#191970" d="M1047.5625,-235.3906C1036.0312,-227.1444 1019.0024,-214.9669 1004.3389,-204.4807"/>
<polygon fill="#191970" stroke="#191970" points="1006.208,-201.5145 996.038,-198.5446 1002.1362,-207.2084 1006.208,-201.5145"/>
</g>
<!-- Node33 -->
<g id="node34" class="node">
<title>Node33</title>
<g id="a_node34"><a xlink:href="api_2spec_2schedule__types_8h.html" target="_top" xlink:title="ODP schedule types. ">
<polygon fill="#ffffff" stroke="#000000" points="1051.5,-168.5 1051.5,-198.5 1176.5,-198.5 1176.5,-168.5 1051.5,-168.5"/>
<text text-anchor="start" x="1059.5" y="-186.5" font-family="Helvetica,sans-Serif" font-size="10.00" fill="#000000">odp/api/spec/schedule</text>
<text text-anchor="middle" x="1114" y="-175.5" font-family="Helvetica,sans-Serif" font-size="10.00" fill="#000000">_types.h</text>
</a>
</g>
</g>
<!-- Node31&#45;&gt;Node33 -->
<g id="edge48" class="edge">
<title>Node31&#45;&gt;Node33</title>
<path fill="none" stroke="#191970" d="M1069.2813,-235.3906C1075.9892,-227.6068 1085.7159,-216.3202 1094.3859,-206.2597"/>
<polygon fill="#191970" stroke="#191970" points="1097.1578,-208.4046 1101.0347,-198.5446 1091.8552,-203.8349 1097.1578,-208.4046"/>
</g>
<!-- Node33&#45;&gt;Node3 -->
<g id="edge49" class="edge">
<title>Node33&#45;&gt;Node3</title>
<path fill="none" stroke="#191970" d="M1088.6163,-168.4416C1073.3028,-158.8474 1053.7714,-145.6825 1038,-132 1003.5389,-102.1032 1009.2182,-77.5379 969,-56 929.5816,-34.8904 811.796,-21.7467 734.6641,-15.1592"/>
<polygon fill="#191970" stroke="#191970" points="734.7885,-11.6575 724.5315,-14.3114 734.2048,-18.6331 734.7885,-11.6575"/>
</g>
<!-- Node33&#45;&gt;Node11 -->
<g id="edge54" class="edge">
<title>Node33&#45;&gt;Node11</title>
<path fill="none" stroke="#191970" d="M1129.6934,-168.191C1148.1925,-148.8114 1177.6091,-113.4164 1187,-76 1190.9149,-60.4018 1186.6037,-42.5508 1181.7638,-29.3501"/>
<polygon fill="#191970" stroke="#191970" points="1184.9265,-27.836 1177.9161,-19.8922 1178.4426,-30.4739 1184.9265,-27.836"/>
</g>
<!-- Node34 -->
<g id="node35" class="node">
<title>Node34</title>
<g id="a_node35"><a xlink:href="support_8h.html" target="_top" xlink:title="ODP support API &#45; platform specific header. ">
<polygon fill="#ffffff" stroke="#000000" points="1047.5,-112.5 1047.5,-131.5 1148.5,-131.5 1148.5,-112.5 1047.5,-112.5"/>
<text text-anchor="middle" x="1098" y="-119.5" font-family="Helvetica,sans-Serif" font-size="10.00" fill="#000000">odp/api/support.h</text>
</a>
</g>
</g>
<!-- Node33&#45;&gt;Node34 -->
<g id="edge50" class="edge">
<title>Node33&#45;&gt;Node34</title>
<path fill="none" stroke="#191970" d="M1110.0449,-168.2977C1107.9628,-160.2945 1105.3845,-150.3843 1103.1483,-141.7889"/>
<polygon fill="#191970" stroke="#191970" points="1106.4669,-140.6435 1100.5618,-131.8469 1099.6924,-142.406 1106.4669,-140.6435"/>
</g>
<!-- Node35 -->
<g id="node36" class="node">
<title>Node35</title>
<g id="a_node36"><a xlink:href="spec_2support_8h.html" target="_top" xlink:title="ODP support API. ">
<polygon fill="#ffffff" stroke="#000000" points="1017.5,-56.5 1017.5,-75.5 1144.5,-75.5 1144.5,-56.5 1017.5,-56.5"/>
<text text-anchor="middle" x="1081" y="-63.5" font-family="Helvetica,sans-Serif" font-size="10.00" fill="#000000">odp/api/spec/support.h</text>
</a>
</g>
</g>
<!-- Node34&#45;&gt;Node35 -->
<g id="edge51" class="edge">
<title>Node34&#45;&gt;Node35</title>
<path fill="none" stroke="#191970" d="M1095.0388,-112.2455C1092.7962,-104.8579 1089.6423,-94.4689 1086.8919,-85.4087"/>
<polygon fill="#191970" stroke="#191970" points="1090.1812,-84.1948 1083.9272,-75.6427 1083.483,-86.2282 1090.1812,-84.1948"/>
</g>
<!-- Node35&#45;&gt;Node3 -->
<g id="edge52" class="edge">
<title>Node35&#45;&gt;Node3</title>
<path fill="none" stroke="#191970" d="M1017.2127,-57.4338C941.1181,-47.2149 814.2784,-30.1813 735.0964,-19.5477"/>
<polygon fill="#191970" stroke="#191970" points="735.1051,-16.0175 724.7282,-18.1553 734.1733,-22.9553 735.1051,-16.0175"/>
</g>
<!-- Node35&#45;&gt;Node11 -->
<g id="edge53" class="edge">
<title>Node35&#45;&gt;Node11</title>
<path fill="none" stroke="#191970" d="M1097.0252,-56.2455C1111.1408,-47.6534 1131.9263,-35.0014 1148.1899,-25.1018"/>
<polygon fill="#191970" stroke="#191970" points="1150.4363,-27.8319 1157.1585,-19.6427 1146.7966,-21.8525 1150.4363,-27.8319"/>
</g>
<!-- Node37 -->
<g id="node38" class="node">
<title>Node37</title>
<g id="a_node38"><a xlink:href="spec_2deprecated_8h.html" target="_top" xlink:title="Macro for deprecated API definitions. ">
<polygon fill="#ffffff" stroke="#000000" points="815.5,-56.5 815.5,-75.5 960.5,-75.5 960.5,-56.5 815.5,-56.5"/>
<text text-anchor="middle" x="888" y="-63.5" font-family="Helvetica,sans-Serif" font-size="10.00" fill="#000000">odp/api/spec/deprecated.h</text>
</a>
</g>
</g>
<!-- Node36&#45;&gt;Node37 -->
<g id="edge56" class="edge">
<title>Node36&#45;&gt;Node37</title>
<path fill="none" stroke="#191970" d="M911.6559,-235.3762C907.7051,-207.0883 896.0724,-123.7987 890.7342,-85.5767"/>
<polygon fill="#191970" stroke="#191970" points="894.2004,-85.0911 889.3508,-75.6714 887.2677,-86.0594 894.2004,-85.0911"/>
</g>
<!-- Node37&#45;&gt;Node3 -->
<g id="edge57" class="edge">
<title>Node37&#45;&gt;Node3</title>
<path fill="none" stroke="#191970" d="M849.7475,-56.4369C811.6533,-46.9133 753.0687,-32.2672 711.9013,-21.9753"/>
<polygon fill="#191970" stroke="#191970" points="712.645,-18.5536 702.0947,-19.5237 710.9472,-25.3446 712.645,-18.5536"/>
</g>
<!-- Node37&#45;&gt;Node11 -->
<g id="edge58" class="edge">
<title>Node37&#45;&gt;Node11</title>
<path fill="none" stroke="#191970" d="M936.6694,-56.4369C985.9573,-46.7522 1062.2048,-31.7703 1114.6926,-21.4569"/>
<polygon fill="#191970" stroke="#191970" points="1115.3938,-24.8861 1124.5313,-19.5237 1114.0441,-18.0175 1115.3938,-24.8861"/>
</g>
</g>
</svg>
