<?xml version="1.0" encoding="UTF-8" standalone="no"?>
<!DOCTYPE svg PUBLIC "-//W3C//DTD SVG 1.1//EN"
 "http://www.w3.org/Graphics/SVG/1.1/DTD/svg11.dtd">
<!-- Generated by graphviz version 2.40.1 (20161225.0304)
 -->
<!-- Title: ipsec.h Pages: 1 -->
<svg width="2505pt" height="744pt"
 viewBox="0.00 0.00 2504.65 744.00" xmlns="http://www.w3.org/2000/svg" xmlns:xlink="http://www.w3.org/1999/xlink">
<g id="graph0" class="graph" transform="scale(1 1) rotate(0) translate(4 740)">
<title>ipsec.h</title>
<polygon fill="#ffffff" stroke="transparent" points="-4,4 -4,-740 2500.654,-740 2500.654,4 -4,4"/>
<!-- Node0 -->
<g id="node1" class="node">
<title>Node0</title>
<polygon fill="#bfbfbf" stroke="#000000" points="1035.154,-716.5 1035.154,-735.5 1086.154,-735.5 1086.154,-716.5 1035.154,-716.5"/>
<text text-anchor="middle" x="1060.654" y="-723.5" font-family="Helvetica,sans-Serif" font-size="10.00" fill="#000000">ipsec.h</text>
</g>
<!-- Node1 -->
<g id="node2" class="node">
<title>Node1</title>
<g id="a_node2"><a xlink:href="visibility__begin_8h_source.html" target="_top" xlink:title="odp/visibility_begin.h">
<polygon fill="#ffffff" stroke="#000000" points="465.154,-.5 465.154,-19.5 586.154,-19.5 586.154,-.5 465.154,-.5"/>
<text text-anchor="middle" x="525.654" y="-7.5" font-family="Helvetica,sans-Serif" font-size="10.00" fill="#000000">odp/visibility_begin.h</text>
</a>
</g>
</g>
<!-- Node0&#45;&gt;Node1 -->
<g id="edge1" class="edge">
<title>Node0&#45;&gt;Node1</title>
<path fill="none" stroke="#191970" d="M1035.0204,-725.7176C878.9156,-723.8927 61.3982,-712.7891 20.654,-680 -4.962,-659.3855 1.654,-641.3806 1.654,-608.5 1.654,-608.5 1.654,-608.5 1.654,-122 1.654,-59.5686 66.0445,-74.5576 125.654,-56 185.3613,-37.412 356.9939,-22.3371 454.9381,-14.9442"/>
<polygon fill="#191970" stroke="#191970" points="455.3403,-18.424 465.0516,-14.1884 454.8185,-11.4435 455.3403,-18.424"/>
</g>
<!-- Node2 -->
<g id="node3" class="node">
<title>Node2</title>
<g id="a_node3"><a xlink:href="api_2crypto_8h.html" target="_top" xlink:title="ODP crypto. ">
<polygon fill="#ffffff" stroke="#000000" points="1912.154,-537.5 1912.154,-556.5 2007.154,-556.5 2007.154,-537.5 1912.154,-537.5"/>
<text text-anchor="middle" x="1959.654" y="-544.5" font-family="Helvetica,sans-Serif" font-size="10.00" fill="#000000">odp/api/crypto.h</text>
</a>
</g>
</g>
<!-- Node0&#45;&gt;Node2 -->
<g id="edge2" class="edge">
<title>Node0&#45;&gt;Node2</title>
<path fill="none" stroke="#191970" d="M1086.3037,-725.0938C1271.0055,-718.4472 2392.1069,-676.0277 2439.654,-624 2448.9486,-613.8296 2448.92,-603.1965 2439.654,-593 2411.7535,-562.2979 2139.2753,-551.5621 2017.7037,-548.2801"/>
<polygon fill="#191970" stroke="#191970" points="2017.5565,-544.7751 2007.4682,-548.0118 2017.3731,-551.7727 2017.5565,-544.7751"/>
</g>
<!-- Node10 -->
<g id="node11" class="node">
<title>Node10</title>
<g id="a_node11"><a xlink:href="visibility__end_8h_source.html" target="_top" xlink:title="odp/visibility_end.h">
<polygon fill="#ffffff" stroke="#000000" points="1574.654,-.5 1574.654,-19.5 1686.654,-19.5 1686.654,-.5 1574.654,-.5"/>
<text text-anchor="middle" x="1630.654" y="-7.5" font-family="Helvetica,sans-Serif" font-size="10.00" fill="#000000">odp/visibility_end.h</text>
</a>
</g>
</g>
<!-- Node0&#45;&gt;Node10 -->
<g id="edge113" class="edge">
<title>Node0&#45;&gt;Node10</title>
<path fill="none" stroke="#191970" d="M1086.513,-725.3597C1229.5597,-721.7472 1925.197,-703.247 2138.654,-680 2299.9537,-662.4333 2496.654,-770.7534 2496.654,-608.5 2496.654,-608.5 2496.654,-608.5 2496.654,-122 2496.654,-41.4422 1899.6492,-17.4464 1697.0142,-11.6219"/>
<polygon fill="#191970" stroke="#191970" points="1696.902,-8.1174 1686.8074,-11.3343 1696.7048,-15.1146 1696.902,-8.1174"/>
</g>
<!-- Node19 -->
<g id="node20" class="node">
<title>Node19</title>
<g id="a_node20"><a xlink:href="support_8h.html" target="_top" xlink:title="ODP support API &#45; platform specific header. ">
<polygon fill="#ffffff" stroke="#000000" points="227.154,-425.5 227.154,-444.5 328.154,-444.5 328.154,-425.5 227.154,-425.5"/>
<text text-anchor="middle" x="277.654" y="-432.5" font-family="Helvetica,sans-Serif" font-size="10.00" fill="#000000">odp/api/support.h</text>
</a>
</g>
</g>
<!-- Node0&#45;&gt;Node19 -->
<g id="edge50" class="edge">
<title>Node0&#45;&gt;Node19</title>
<path fill="none" stroke="#191970" d="M1035.0783,-722.6176C911.5864,-705.728 378.9293,-626.3225 280.654,-501 270.5016,-488.0534 270.7842,-468.8949 272.9955,-454.55"/>
<polygon fill="#191970" stroke="#191970" points="276.4371,-455.1871 274.9216,-444.7012 269.5673,-453.8435 276.4371,-455.1871"/>
</g>
<!-- Node39 -->
<g id="node32" class="node">
<title>Node39</title>
<g id="a_node32"><a xlink:href="api_2packet__io_8h.html" target="_top" xlink:title="ODP Packet IO. ">
<polygon fill="#ffffff" stroke="#000000" points="962.654,-537.5 962.654,-556.5 1074.654,-556.5 1074.654,-537.5 962.654,-537.5"/>
<text text-anchor="middle" x="1018.654" y="-544.5" font-family="Helvetica,sans-Serif" font-size="10.00" fill="#000000">odp/api/packet_io.h</text>
</a>
</g>
</g>
<!-- Node0&#45;&gt;Node39 -->
<g id="edge51" class="edge">
<title>Node0&#45;&gt;Node39</title>
<path fill="none" stroke="#191970" d="M1053.3571,-716.3551C1047.016,-707.4279 1038.1608,-693.5298 1033.654,-680 1020.7964,-641.4001 1018.5098,-593.3858 1018.3489,-566.8912"/>
<polygon fill="#191970" stroke="#191970" points="1021.8497,-566.657 1018.3897,-556.6431 1014.8498,-566.629 1021.8497,-566.657"/>
</g>
<!-- Node51 -->
<g id="node42" class="node">
<title>Node51</title>
<g id="a_node42"><a xlink:href="protocols_8h.html" target="_top" xlink:title="ODP protocols. ">
<polygon fill="#ffffff" stroke="#000000" points="29.654,-660.5 29.654,-679.5 139.654,-679.5 139.654,-660.5 29.654,-660.5"/>
<text text-anchor="middle" x="84.654" y="-667.5" font-family="Helvetica,sans-Serif" font-size="10.00" fill="#000000">odp/api/protocols.h</text>
</a>
</g>
</g>
<!-- Node0&#45;&gt;Node51 -->
<g id="edge85" class="edge">
<title>Node0&#45;&gt;Node51</title>
<path fill="none" stroke="#191970" d="M1034.9792,-725.5741C927.3058,-723.6031 501.6283,-713.9649 153.654,-680 152.5396,-679.8912 151.4157,-679.7773 150.2844,-679.6586"/>
<polygon fill="#191970" stroke="#191970" points="150.2932,-676.1369 139.9604,-678.4785 149.4982,-683.0916 150.2932,-676.1369"/>
</g>
<!-- Node53 -->
<g id="node44" class="node">
<title>Node53</title>
<g id="a_node44"><a xlink:href="api_2classification_8h.html" target="_top" xlink:title="ODP classification descriptor. ">
<polygon fill="#ffffff" stroke="#000000" points="1042.654,-660.5 1042.654,-679.5 1170.654,-679.5 1170.654,-660.5 1042.654,-660.5"/>
<text text-anchor="middle" x="1106.654" y="-667.5" font-family="Helvetica,sans-Serif" font-size="10.00" fill="#000000">odp/api/classification.h</text>
</a>
</g>
</g>
<!-- Node0&#45;&gt;Node53 -->
<g id="edge89" class="edge">
<title>Node0&#45;&gt;Node53</title>
<path fill="none" stroke="#191970" d="M1068.6666,-716.2455C1075.1307,-708.3761 1084.3924,-697.101 1092.1523,-687.6542"/>
<polygon fill="#191970" stroke="#191970" points="1095.0903,-689.5916 1098.7332,-679.6427 1089.6812,-685.1484 1095.0903,-689.5916"/>
</g>
<!-- Node57 -->
<g id="node48" class="node">
<title>Node57</title>
<g id="a_node48"><a xlink:href="api_2traffic__mngr_8h.html" target="_top" xlink:title="ODP Traffic manager. ">
<polygon fill="#ffffff" stroke="#000000" points="1686.154,-660.5 1686.154,-679.5 1809.154,-679.5 1809.154,-660.5 1686.154,-660.5"/>
<text text-anchor="middle" x="1747.654" y="-667.5" font-family="Helvetica,sans-Serif" font-size="10.00" fill="#000000">odp/api/traffic_mngr.h</text>
</a>
</g>
</g>
<!-- Node0&#45;&gt;Node57 -->
<g id="edge106" class="edge">
<title>Node0&#45;&gt;Node57</title>
<path fill="none" stroke="#191970" d="M1086.3314,-723.9069C1182.7698,-716.0459 1525.4802,-688.1102 1675.9418,-675.8455"/>
<polygon fill="#191970" stroke="#191970" points="1676.3209,-679.3263 1686.0034,-675.0254 1675.7521,-672.3495 1676.3209,-679.3263"/>
</g>
<!-- Node3 -->
<g id="node4" class="node">
<title>Node3</title>
<g id="a_node4"><a xlink:href="api_2std__types_8h.html" target="_top" xlink:title="Standard C language types and definitions for ODP. ">
<polygon fill="#ffffff" stroke="#000000" points="1394.654,-230 1394.654,-249 1506.654,-249 1506.654,-230 1394.654,-230"/>
<text text-anchor="middle" x="1450.654" y="-237" font-family="Helvetica,sans-Serif" font-size="10.00" fill="#000000">odp/api/std_types.h</text>
</a>
</g>
</g>
<!-- Node2&#45;&gt;Node3 -->
<g id="edge3" class="edge">
<title>Node2&#45;&gt;Node3</title>
<path fill="none" stroke="#191970" d="M1952.8137,-537.3094C1925.0324,-498.7712 1816.0311,-355.3547 1688.654,-291 1634.4665,-263.6229 1566.1797,-250.7549 1516.6636,-244.7328"/>
<polygon fill="#191970" stroke="#191970" points="1517.0432,-241.2535 1506.7077,-243.5832 1516.2401,-248.2073 1517.0432,-241.2535"/>
</g>
<!-- Node11 -->
<g id="node12" class="node">
<title>Node11</title>
<polygon fill="#ffffff" stroke="#bfbfbf" points="1977.154,-224.5 1977.154,-254.5 2084.154,-254.5 2084.154,-224.5 1977.154,-224.5"/>
<text text-anchor="start" x="1985.154" y="-242.5" font-family="Helvetica,sans-Serif" font-size="10.00" fill="#000000">odp/api/abi/packet</text>
<text text-anchor="middle" x="2030.654" y="-231.5" font-family="Helvetica,sans-Serif" font-size="10.00" fill="#000000">_types.h</text>
</g>
<!-- Node2&#45;&gt;Node11 -->
<g id="edge14" class="edge">
<title>Node2&#45;&gt;Node11</title>
<path fill="none" stroke="#191970" d="M1969.9071,-537.2808C1978.6252,-528.52 1990.925,-514.9116 1998.654,-501 2041.7115,-423.4993 2037.9105,-313.4373 2033.526,-264.5576"/>
<polygon fill="#191970" stroke="#191970" points="2037.0045,-264.1665 2032.5412,-254.5577 2030.0382,-264.8526 2037.0045,-264.1665"/>
</g>
<!-- Node12 -->
<g id="node13" class="node">
<title>Node12</title>
<polygon fill="#ffffff" stroke="#bfbfbf" points="2045.154,-481.5 2045.154,-500.5 2158.154,-500.5 2158.154,-481.5 2045.154,-481.5"/>
<text text-anchor="middle" x="2101.654" y="-488.5" font-family="Helvetica,sans-Serif" font-size="10.00" fill="#000000">odp/api/abi/crypto.h</text>
</g>
<!-- Node2&#45;&gt;Node12 -->
<g id="edge15" class="edge">
<title>Node2&#45;&gt;Node12</title>
<path fill="none" stroke="#191970" d="M1984.0647,-537.3733C2007.2682,-528.2226 2042.3578,-514.3844 2068.1682,-504.2057"/>
<polygon fill="#191970" stroke="#191970" points="2069.5432,-507.4258 2077.5619,-500.5011 2066.9751,-500.9139 2069.5432,-507.4258"/>
</g>
<!-- Node13 -->
<g id="node14" class="node">
<title>Node13</title>
<polygon fill="#ffffff" stroke="#bfbfbf" points="1650.654,-230 1650.654,-249 1760.654,-249 1760.654,-230 1650.654,-230"/>
<text text-anchor="middle" x="1705.654" y="-237" font-family="Helvetica,sans-Serif" font-size="10.00" fill="#000000">odp/api/abi/buffer.h</text>
</g>
<!-- Node2&#45;&gt;Node13 -->
<g id="edge16" class="edge">
<title>Node2&#45;&gt;Node13</title>
<path fill="none" stroke="#191970" d="M1957.8358,-537.1086C1951.8041,-506.7721 1929.857,-413.7313 1878.654,-358 1835.8087,-311.3655 1771.3107,-273.3926 1734.3699,-253.8429"/>
<polygon fill="#191970" stroke="#191970" points="1735.6482,-250.5626 1725.1619,-249.0502 1732.4163,-256.7718 1735.6482,-250.5626"/>
</g>
<!-- Node14 -->
<g id="node15" class="node">
<title>Node14</title>
<polygon fill="#ffffff" stroke="#bfbfbf" points="1854.654,-230 1854.654,-249 1958.654,-249 1958.654,-230 1854.654,-230"/>
<text text-anchor="middle" x="1906.654" y="-237" font-family="Helvetica,sans-Serif" font-size="10.00" fill="#000000">odp/api/abi/pool.h</text>
</g>
<!-- Node2&#45;&gt;Node14 -->
<g id="edge17" class="edge">
<title>Node2&#45;&gt;Node14</title>
<path fill="none" stroke="#191970" d="M1964.8034,-537.3706C1983.0237,-501.8719 2040.8224,-375.9897 1992.654,-291 1982.735,-273.4987 1964.2394,-261.3022 1946.9348,-253.1882"/>
<polygon fill="#191970" stroke="#191970" points="1948.0723,-249.8664 1937.5057,-249.0927 1945.2835,-256.2869 1948.0723,-249.8664"/>
</g>
<!-- Node15 -->
<g id="node16" class="node">
<title>Node15</title>
<polygon fill="#ffffff" stroke="#bfbfbf" points="227.154,-230 227.154,-249 372.154,-249 372.154,-230 227.154,-230"/>
<text text-anchor="middle" x="299.654" y="-237" font-family="Helvetica,sans-Serif" font-size="10.00" fill="#000000">odp/api/abi/queue_types.h</text>
</g>
<!-- Node2&#45;&gt;Node15 -->
<g id="edge18" class="edge">
<title>Node2&#45;&gt;Node15</title>
<path fill="none" stroke="#191970" d="M1911.8833,-546.2456C1712.4909,-542.943 945.8843,-528.6719 705.654,-501 641.1003,-493.5641 471.5666,-482.7191 418.654,-445 401.3379,-432.6561 334.6359,-306.7245 309.4014,-258.3162"/>
<polygon fill="#191970" stroke="#191970" points="312.3968,-256.4901 304.6787,-249.2319 306.186,-259.719 312.3968,-256.4901"/>
</g>
<!-- Node16 -->
<g id="node17" class="node">
<title>Node16</title>
<g id="a_node17"><a xlink:href="api_2spec_2crypto_8h.html" target="_top" xlink:title="ODP crypto. ">
<polygon fill="#ffffff" stroke="#000000" points="1258.154,-481.5 1258.154,-500.5 1379.154,-500.5 1379.154,-481.5 1258.154,-481.5"/>
<text text-anchor="middle" x="1318.654" y="-488.5" font-family="Helvetica,sans-Serif" font-size="10.00" fill="#000000">odp/api/spec/crypto.h</text>
</a>
</g>
</g>
<!-- Node2&#45;&gt;Node16 -->
<g id="edge19" class="edge">
<title>Node2&#45;&gt;Node16</title>
<path fill="none" stroke="#191970" d="M1911.9985,-542.8366C1800.3019,-533.0784 1521.1279,-508.6888 1389.4751,-497.1872"/>
<polygon fill="#191970" stroke="#191970" points="1389.7582,-493.6987 1379.4915,-496.315 1389.1489,-500.6721 1389.7582,-493.6987"/>
</g>
<!-- Node4 -->
<g id="node5" class="node">
<title>Node4</title>
<polygon fill="#ffffff" stroke="#bfbfbf" points="1568.654,-168.5 1568.654,-187.5 1698.654,-187.5 1698.654,-168.5 1568.654,-168.5"/>
<text text-anchor="middle" x="1633.654" y="-175.5" font-family="Helvetica,sans-Serif" font-size="10.00" fill="#000000">odp/api/abi/std_types.h</text>
</g>
<!-- Node3&#45;&gt;Node4 -->
<g id="edge4" class="edge">
<title>Node3&#45;&gt;Node4</title>
<path fill="none" stroke="#191970" d="M1479.2477,-229.8906C1510.5385,-219.3749 1560.8526,-202.466 1595.4939,-190.8243"/>
<polygon fill="#191970" stroke="#191970" points="1596.897,-194.0452 1605.261,-187.5419 1594.667,-187.4099 1596.897,-194.0452"/>
</g>
<!-- Node5 -->
<g id="node6" class="node">
<title>Node5</title>
<g id="a_node6"><a xlink:href="api_2spec_2std__types_8h.html" target="_top" xlink:title="Standard C language types and definitions for ODP. ">
<polygon fill="#ffffff" stroke="#000000" points="1375.154,-168.5 1375.154,-187.5 1512.154,-187.5 1512.154,-168.5 1375.154,-168.5"/>
<text text-anchor="middle" x="1443.654" y="-175.5" font-family="Helvetica,sans-Serif" font-size="10.00" fill="#000000">odp/api/spec/std_types.h</text>
</a>
</g>
</g>
<!-- Node3&#45;&gt;Node5 -->
<g id="edge5" class="edge">
<title>Node3&#45;&gt;Node5</title>
<path fill="none" stroke="#191970" d="M1449.5602,-229.8906C1448.5899,-221.3657 1447.1414,-208.6392 1445.9217,-197.9235"/>
<polygon fill="#191970" stroke="#191970" points="1449.3717,-197.2849 1444.7632,-187.7449 1442.4166,-198.0766 1449.3717,-197.2849"/>
</g>
<!-- Node5&#45;&gt;Node1 -->
<g id="edge6" class="edge">
<title>Node5&#45;&gt;Node1</title>
<path fill="none" stroke="#191970" d="M1394.56,-168.4774C1321.0659,-153.4124 1178.773,-121.0958 1063.654,-76 1045.8836,-69.0388 1043.9526,-61.4229 1025.654,-56 947.1827,-32.7446 714.8152,-18.8558 596.5383,-13.1047"/>
<polygon fill="#191970" stroke="#191970" points="596.6503,-9.6062 586.4939,-12.6226 596.3146,-16.5981 596.6503,-9.6062"/>
</g>
<!-- Node6 -->
<g id="node7" class="node">
<title>Node6</title>
<polygon fill="#ffffff" stroke="#bfbfbf" points="1494.154,-112.5 1494.154,-131.5 1547.154,-131.5 1547.154,-112.5 1494.154,-112.5"/>
<text text-anchor="middle" x="1520.654" y="-119.5" font-family="Helvetica,sans-Serif" font-size="10.00" fill="#000000">stdint.h</text>
</g>
<!-- Node5&#45;&gt;Node6 -->
<g id="edge7" class="edge">
<title>Node5&#45;&gt;Node6</title>
<path fill="none" stroke="#191970" d="M1457.0664,-168.2455C1468.6597,-159.814 1485.6287,-147.4729 1499.1218,-137.6598"/>
<polygon fill="#191970" stroke="#191970" points="1501.3665,-140.355 1507.3953,-131.6427 1497.2493,-134.6938 1501.3665,-140.355"/>
</g>
<!-- Node7 -->
<g id="node8" class="node">
<title>Node7</title>
<g id="a_node8"><a xlink:href="api_2align_8h.html" target="_top" xlink:title="ODP alignments. ">
<polygon fill="#ffffff" stroke="#000000" points="1387.154,-112.5 1387.154,-131.5 1476.154,-131.5 1476.154,-112.5 1387.154,-112.5"/>
<text text-anchor="middle" x="1431.654" y="-119.5" font-family="Helvetica,sans-Serif" font-size="10.00" fill="#000000">odp/api/align.h</text>
</a>
</g>
</g>
<!-- Node5&#45;&gt;Node7 -->
<g id="edge8" class="edge">
<title>Node5&#45;&gt;Node7</title>
<path fill="none" stroke="#191970" d="M1441.5637,-168.2455C1439.9979,-160.9382 1437.8028,-150.6944 1435.8764,-141.7046"/>
<polygon fill="#191970" stroke="#191970" points="1439.2379,-140.6873 1433.7203,-131.6427 1432.3933,-142.1541 1439.2379,-140.6873"/>
</g>
<!-- Node5&#45;&gt;Node10 -->
<g id="edge13" class="edge">
<title>Node5&#45;&gt;Node10</title>
<path fill="none" stroke="#191970" d="M1480.2354,-168.4603C1543.4725,-151.1476 1668.8594,-112.9209 1693.654,-76 1706.9267,-56.2359 1682.9012,-36.9302 1660.797,-24.3567"/>
<polygon fill="#191970" stroke="#191970" points="1662.3379,-21.2114 1651.8726,-19.5594 1659.0235,-27.377 1662.3379,-21.2114"/>
</g>
<!-- Node8 -->
<g id="node9" class="node">
<title>Node8</title>
<polygon fill="#ffffff" stroke="#bfbfbf" points="1577.154,-56.5 1577.154,-75.5 1684.154,-75.5 1684.154,-56.5 1577.154,-56.5"/>
<text text-anchor="middle" x="1630.654" y="-63.5" font-family="Helvetica,sans-Serif" font-size="10.00" fill="#000000">odp/api/abi/align.h</text>
</g>
<!-- Node7&#45;&gt;Node8 -->
<g id="edge9" class="edge">
<title>Node7&#45;&gt;Node8</title>
<path fill="none" stroke="#191970" d="M1465.8633,-112.3733C1499.3837,-102.9404 1550.6045,-88.5265 1587.035,-78.2747"/>
<polygon fill="#191970" stroke="#191970" points="1588.2131,-81.5792 1596.8911,-75.5011 1586.3168,-74.8409 1588.2131,-81.5792"/>
</g>
<!-- Node9 -->
<g id="node10" class="node">
<title>Node9</title>
<g id="a_node10"><a xlink:href="api_2spec_2align_8h.html" target="_top" xlink:title="ODP alignments. ">
<polygon fill="#ffffff" stroke="#000000" points="1368.654,-56.5 1368.654,-75.5 1482.654,-75.5 1482.654,-56.5 1368.654,-56.5"/>
<text text-anchor="middle" x="1425.654" y="-63.5" font-family="Helvetica,sans-Serif" font-size="10.00" fill="#000000">odp/api/spec/align.h</text>
</a>
</g>
</g>
<!-- Node7&#45;&gt;Node9 -->
<g id="edge10" class="edge">
<title>Node7&#45;&gt;Node9</title>
<path fill="none" stroke="#191970" d="M1430.6089,-112.2455C1429.8259,-104.9382 1428.7284,-94.6944 1427.7652,-85.7046"/>
<polygon fill="#191970" stroke="#191970" points="1431.2326,-85.2129 1426.6871,-75.6427 1424.2725,-85.9587 1431.2326,-85.2129"/>
</g>
<!-- Node9&#45;&gt;Node1 -->
<g id="edge11" class="edge">
<title>Node9&#45;&gt;Node1</title>
<path fill="none" stroke="#191970" d="M1368.4591,-56.9933C1365.4845,-56.6316 1362.536,-56.2971 1359.654,-56 1077.7452,-26.9356 740.205,-15.4387 596.271,-11.6255"/>
<polygon fill="#191970" stroke="#191970" points="596.3336,-8.126 586.2457,-11.3641 596.1511,-15.1236 596.3336,-8.126"/>
</g>
<!-- Node9&#45;&gt;Node10 -->
<g id="edge12" class="edge">
<title>Node9&#45;&gt;Node10</title>
<path fill="none" stroke="#191970" d="M1460.8947,-56.3733C1495.5734,-46.9001 1548.6422,-32.4032 1586.2002,-22.1435"/>
<polygon fill="#191970" stroke="#191970" points="1587.1489,-25.5126 1595.8731,-19.5011 1585.3042,-18.7601 1587.1489,-25.5126"/>
</g>
<!-- Node16&#45;&gt;Node1 -->
<g id="edge20" class="edge">
<title>Node16&#45;&gt;Node1</title>
<path fill="none" stroke="#191970" d="M1270.1411,-481.4774C1116.0063,-450.9996 643.981,-355.8696 582.654,-322 565.0388,-312.2715 566.4176,-302.1319 549.654,-291 516.8355,-269.2068 497.0546,-282.3021 468.654,-255 404.2654,-193.1018 387.1059,-127.4835 440.654,-56 451.6703,-41.2939 468.8153,-30.7521 484.83,-23.5029"/>
<polygon fill="#191970" stroke="#191970" points="486.2171,-26.7165 494.0738,-19.6085 483.4993,-20.2656 486.2171,-26.7165"/>
</g>
<!-- Node16&#45;&gt;Node10 -->
<g id="edge49" class="edge">
<title>Node16&#45;&gt;Node10</title>
<path fill="none" stroke="#191970" d="M1379.2301,-486.7858C1476.5127,-479.579 1663.0912,-463.8268 1726.654,-445 1843.8593,-410.2848 1863.8049,-377.6247 1972.654,-322 2043.1955,-285.9514 2130.654,-318.7187 2130.654,-239.5 2130.654,-239.5 2130.654,-239.5 2130.654,-122 2130.654,-78.1091 1833.4865,-35.3264 1697.3429,-18.0291"/>
<polygon fill="#191970" stroke="#191970" points="1697.3978,-14.5084 1687.0384,-16.7296 1696.5218,-21.4534 1697.3978,-14.5084"/>
</g>
<!-- Node17 -->
<g id="node18" class="node">
<title>Node17</title>
<g id="a_node18"><a xlink:href="deprecated_8h.html" target="_top" xlink:title="Control deprecated API definitions. ">
<polygon fill="#ffffff" stroke="#000000" points="661.154,-168.5 661.154,-187.5 780.154,-187.5 780.154,-168.5 661.154,-168.5"/>
<text text-anchor="middle" x="720.654" y="-175.5" font-family="Helvetica,sans-Serif" font-size="10.00" fill="#000000">odp/api/deprecated.h</text>
</a>
</g>
</g>
<!-- Node16&#45;&gt;Node17 -->
<g id="edge21" class="edge">
<title>Node16&#45;&gt;Node17</title>
<path fill="none" stroke="#191970" d="M1312.5911,-481.4864C1294.5784,-453.5491 1240.9437,-372.7836 1213.654,-358 1057.8752,-273.6103 968.9205,-412.5735 816.654,-322 810.2562,-318.1944 756.2195,-233.9632 732.146,-196.1236"/>
<polygon fill="#191970" stroke="#191970" points="735.035,-194.144 726.7184,-187.58 729.1265,-197.8976 735.035,-194.144"/>
</g>
<!-- Node16&#45;&gt;Node19 -->
<g id="edge25" class="edge">
<title>Node16&#45;&gt;Node19</title>
<path fill="none" stroke="#191970" d="M1257.804,-487.7266C1073.4201,-477.8078 522.2822,-448.1596 338.2438,-438.2594"/>
<polygon fill="#191970" stroke="#191970" points="338.378,-434.7616 328.2044,-437.7193 338.0019,-441.7515 338.378,-434.7616"/>
</g>
<!-- Node21 -->
<g id="node22" class="node">
<title>Node21</title>
<g id="a_node22"><a xlink:href="api_2packet_8h.html" target="_top" xlink:title="ODP packet descriptor. ">
<polygon fill="#ffffff" stroke="#000000" points="1356.654,-425.5 1356.654,-444.5 1454.654,-444.5 1454.654,-425.5 1356.654,-425.5"/>
<text text-anchor="middle" x="1405.654" y="-432.5" font-family="Helvetica,sans-Serif" font-size="10.00" fill="#000000">odp/api/packet.h</text>
</a>
</g>
</g>
<!-- Node16&#45;&gt;Node21 -->
<g id="edge29" class="edge">
<title>Node16&#45;&gt;Node21</title>
<path fill="none" stroke="#191970" d="M1333.8082,-481.2455C1347.1567,-472.6534 1366.8126,-460.0014 1382.1922,-450.1018"/>
<polygon fill="#191970" stroke="#191970" points="1384.1591,-452.9982 1390.6734,-444.6427 1380.3704,-447.1121 1384.1591,-452.9982"/>
</g>
<!-- Node18 -->
<g id="node19" class="node">
<title>Node18</title>
<g id="a_node19"><a xlink:href="spec_2deprecated_8h.html" target="_top" xlink:title="Macro for deprecated API definitions. ">
<polygon fill="#ffffff" stroke="#000000" points="871.154,-56.5 871.154,-75.5 1016.154,-75.5 1016.154,-56.5 871.154,-56.5"/>
<text text-anchor="middle" x="943.654" y="-63.5" font-family="Helvetica,sans-Serif" font-size="10.00" fill="#000000">odp/api/spec/deprecated.h</text>
</a>
</g>
</g>
<!-- Node17&#45;&gt;Node18 -->
<g id="edge22" class="edge">
<title>Node17&#45;&gt;Node18</title>
<path fill="none" stroke="#191970" d="M735.4983,-168.3465C756.5997,-154.8354 796.7044,-129.9317 832.654,-112 857.2591,-99.727 885.954,-87.8972 908.0038,-79.3081"/>
<polygon fill="#191970" stroke="#191970" points="909.5556,-82.4611 917.6286,-75.5998 907.0389,-75.9291 909.5556,-82.4611"/>
</g>
<!-- Node18&#45;&gt;Node1 -->
<g id="edge23" class="edge">
<title>Node18&#45;&gt;Node1</title>
<path fill="none" stroke="#191970" d="M872.2722,-56.4369C795.1717,-46.1076 673.0918,-29.7524 596.2849,-19.4625"/>
<polygon fill="#191970" stroke="#191970" points="596.5977,-15.9732 586.2214,-18.1143 595.6681,-22.9112 596.5977,-15.9732"/>
</g>
<!-- Node18&#45;&gt;Node10 -->
<g id="edge24" class="edge">
<title>Node18&#45;&gt;Node10</title>
<path fill="none" stroke="#191970" d="M1016.3105,-59.9196C1031.9279,-58.6198 1048.3401,-57.2593 1063.654,-56 1244.6417,-41.1172 1458.155,-23.8822 1564.0961,-15.3523"/>
<polygon fill="#191970" stroke="#191970" points="1564.6296,-18.8207 1574.3165,-14.5295 1564.0679,-11.8433 1564.6296,-18.8207"/>
</g>
<!-- Node20 -->
<g id="node21" class="node">
<title>Node20</title>
<g id="a_node21"><a xlink:href="spec_2support_8h.html" target="_top" xlink:title="ODP support API. ">
<polygon fill="#ffffff" stroke="#000000" points="726.154,-56.5 726.154,-75.5 853.154,-75.5 853.154,-56.5 726.154,-56.5"/>
<text text-anchor="middle" x="789.654" y="-63.5" font-family="Helvetica,sans-Serif" font-size="10.00" fill="#000000">odp/api/spec/support.h</text>
</a>
</g>
</g>
<!-- Node19&#45;&gt;Node20 -->
<g id="edge26" class="edge">
<title>Node19&#45;&gt;Node20</title>
<path fill="none" stroke="#191970" d="M269.4308,-425.0563C243.7097,-392.7009 169.3649,-288.7799 218.654,-224 250.4779,-182.1743 595.448,-106.4233 733.2602,-77.5778"/>
<polygon fill="#191970" stroke="#191970" points="734.135,-80.9707 743.2091,-75.5016 732.705,-74.1183 734.135,-80.9707"/>
</g>
<!-- Node20&#45;&gt;Node1 -->
<g id="edge27" class="edge">
<title>Node20&#45;&gt;Node1</title>
<path fill="none" stroke="#191970" d="M744.5707,-56.4369C699.1993,-46.8127 629.1654,-31.957 580.5773,-21.6504"/>
<polygon fill="#191970" stroke="#191970" points="581.0599,-18.175 570.5513,-19.5237 579.6073,-25.0226 581.0599,-18.175"/>
</g>
<!-- Node20&#45;&gt;Node10 -->
<g id="edge28" class="edge">
<title>Node20&#45;&gt;Node10</title>
<path fill="none" stroke="#191970" d="M853.3215,-56.9872C856.4746,-56.6322 859.5986,-56.3003 862.654,-56 1121.7668,-30.5301 1431.5441,-17.1779 1564.6118,-12.2565"/>
<polygon fill="#191970" stroke="#191970" points="1564.7828,-15.7527 1574.648,-11.8889 1564.5266,-8.7573 1564.7828,-15.7527"/>
</g>
<!-- Node21&#45;&gt;Node3 -->
<g id="edge30" class="edge">
<title>Node21&#45;&gt;Node3</title>
<path fill="none" stroke="#191970" d="M1412.6283,-425.2971C1418.6993,-416.331 1427.2042,-402.4081 1431.654,-389 1446.4954,-344.2793 1449.8583,-288.4923 1450.5477,-259.3414"/>
<polygon fill="#191970" stroke="#191970" points="1454.049,-259.2809 1450.7016,-249.2288 1447.0498,-259.1744 1454.049,-259.2809"/>
</g>
<!-- Node21&#45;&gt;Node11 -->
<g id="edge33" class="edge">
<title>Node21&#45;&gt;Node11</title>
<path fill="none" stroke="#191970" d="M1454.7532,-431.3249C1513.6785,-425.9984 1615.0063,-413.9083 1698.654,-389 1811.0813,-355.5219 1934.9687,-292.0223 1994.6246,-259.6176"/>
<polygon fill="#191970" stroke="#191970" points="1996.5391,-262.5599 2003.636,-254.6932 1993.1823,-256.4173 1996.5391,-262.5599"/>
</g>
<!-- Node21&#45;&gt;Node13 -->
<g id="edge35" class="edge">
<title>Node21&#45;&gt;Node13</title>
<path fill="none" stroke="#191970" d="M1454.7369,-427.7797C1505.2303,-419.6255 1579.773,-405.3438 1603.654,-389 1652.3424,-355.6783 1684.4827,-290.8067 1698.1558,-258.5957"/>
<polygon fill="#191970" stroke="#191970" points="1701.5279,-259.5971 1702.0821,-249.0167 1695.0509,-256.9422 1701.5279,-259.5971"/>
</g>
<!-- Node21&#45;&gt;Node14 -->
<g id="edge36" class="edge">
<title>Node21&#45;&gt;Node14</title>
<path fill="none" stroke="#191970" d="M1454.7898,-428.9156C1532.925,-417.5687 1688.3363,-388.0675 1802.654,-322 1835.6529,-302.929 1869.4178,-274.0694 1889.1883,-256.0266"/>
<polygon fill="#191970" stroke="#191970" points="1891.8005,-258.3779 1896.7615,-249.0162 1887.0453,-253.2409 1891.8005,-258.3779"/>
</g>
<!-- Node22 -->
<g id="node23" class="node">
<title>Node22</title>
<polygon fill="#ffffff" stroke="#bfbfbf" points="1266.654,-230 1266.654,-249 1376.654,-249 1376.654,-230 1266.654,-230"/>
<text text-anchor="middle" x="1321.654" y="-237" font-family="Helvetica,sans-Serif" font-size="10.00" fill="#000000">odp/api/abi/event.h</text>
</g>
<!-- Node21&#45;&gt;Node22 -->
<g id="edge31" class="edge">
<title>Node21&#45;&gt;Node22</title>
<path fill="none" stroke="#191970" d="M1376.4564,-425.4506C1352.692,-417.1807 1318.6264,-404.1776 1290.654,-389 1269.628,-377.5915 1267.7636,-369.2531 1246.654,-358 1207.1761,-336.9552 1178.0074,-358.859 1152.654,-322 1144.8458,-310.6484 1144.4536,-302.0716 1152.654,-291 1159.9827,-281.1052 1224.611,-263.3608 1271.7721,-251.5073"/>
<polygon fill="#191970" stroke="#191970" points="1272.6868,-254.8865 1281.5437,-249.0723 1270.9941,-248.0942 1272.6868,-254.8865"/>
</g>
<!-- Node23 -->
<g id="node24" class="node">
<title>Node23</title>
<polygon fill="#ffffff" stroke="#bfbfbf" points="1074.654,-364 1074.654,-383 1204.654,-383 1204.654,-364 1074.654,-364"/>
<text text-anchor="middle" x="1139.654" y="-371" font-family="Helvetica,sans-Serif" font-size="10.00" fill="#000000">odp/api/abi/packet_io.h</text>
</g>
<!-- Node21&#45;&gt;Node23 -->
<g id="edge32" class="edge">
<title>Node21&#45;&gt;Node23</title>
<path fill="none" stroke="#191970" d="M1364.3833,-425.4581C1317.6931,-414.6632 1241.5965,-397.0694 1191.08,-385.3899"/>
<polygon fill="#191970" stroke="#191970" points="1191.5529,-381.9069 1181.0215,-383.0643 1189.976,-388.727 1191.5529,-381.9069"/>
</g>
<!-- Node24 -->
<g id="node25" class="node">
<title>Node24</title>
<polygon fill="#ffffff" stroke="#bfbfbf" points="1478.654,-364 1478.654,-383 1594.654,-383 1594.654,-364 1478.654,-364"/>
<text text-anchor="middle" x="1536.654" y="-371" font-family="Helvetica,sans-Serif" font-size="10.00" fill="#000000">odp/api/abi/packet.h</text>
</g>
<!-- Node21&#45;&gt;Node24 -->
<g id="edge34" class="edge">
<title>Node21&#45;&gt;Node24</title>
<path fill="none" stroke="#191970" d="M1426.1227,-425.3906C1447.8492,-415.1908 1482.3875,-398.9763 1507.0725,-387.3875"/>
<polygon fill="#191970" stroke="#191970" points="1508.7643,-390.4598 1516.329,-383.0419 1505.7895,-384.1234 1508.7643,-390.4598"/>
</g>
<!-- Node25 -->
<g id="node26" class="node">
<title>Node25</title>
<g id="a_node26"><a xlink:href="api_2spec_2packet_8h.html" target="_top" xlink:title="ODP packet descriptor. ">
<polygon fill="#ffffff" stroke="#000000" points="1299.154,-364 1299.154,-383 1422.154,-383 1422.154,-364 1299.154,-364"/>
<text text-anchor="middle" x="1360.654" y="-371" font-family="Helvetica,sans-Serif" font-size="10.00" fill="#000000">odp/api/spec/packet.h</text>
</a>
</g>
</g>
<!-- Node21&#45;&gt;Node25 -->
<g id="edge37" class="edge">
<title>Node21&#45;&gt;Node25</title>
<path fill="none" stroke="#191970" d="M1398.6227,-425.3906C1391.991,-416.3273 1381.8844,-402.5149 1373.7653,-391.4188"/>
<polygon fill="#191970" stroke="#191970" points="1376.5141,-389.2484 1367.7844,-383.2449 1370.8649,-393.382 1376.5141,-389.2484"/>
</g>
<!-- Node25&#45;&gt;Node1 -->
<g id="edge38" class="edge">
<title>Node25&#45;&gt;Node1</title>
<path fill="none" stroke="#191970" d="M1298.8061,-366.7757C1272.5567,-363.9744 1241.6201,-360.7422 1213.654,-358 1037.3312,-340.7105 991.507,-350.5494 816.654,-322 784.8693,-316.8103 555.4564,-279.5857 534.654,-255 479.1679,-189.4227 505.5743,-74.972 519.2368,-29.4647"/>
<polygon fill="#191970" stroke="#191970" points="522.5805,-30.4989 522.2283,-19.9099 515.9003,-28.4074 522.5805,-30.4989"/>
</g>
<!-- Node25&#45;&gt;Node10 -->
<g id="edge48" class="edge">
<title>Node25&#45;&gt;Node10</title>
<path fill="none" stroke="#191970" d="M1422.3536,-364.9967C1475.0142,-356.8288 1552.3599,-342.6616 1617.654,-322 1688.0413,-299.7268 1706.704,-293.5717 1769.654,-255 1778.9463,-249.3063 1788.654,-250.398 1788.654,-239.5 1788.654,-239.5 1788.654,-239.5 1788.654,-122 1788.654,-68.0084 1726.4884,-37.6835 1680.145,-22.5781"/>
<polygon fill="#191970" stroke="#191970" points="1681.1125,-19.2136 1670.5241,-19.5827 1679.0316,-25.8972 1681.1125,-19.2136"/>
</g>
<!-- Node26 -->
<g id="node27" class="node">
<title>Node26</title>
<g id="a_node27"><a xlink:href="api_2proto__stats__types_8h.html" target="_top" xlink:title="ODP proto stats types. ">
<polygon fill="#ffffff" stroke="#ff0000" points="1312.654,-291.5 1312.654,-321.5 1422.654,-321.5 1422.654,-291.5 1312.654,-291.5"/>
<text text-anchor="start" x="1320.654" y="-309.5" font-family="Helvetica,sans-Serif" font-size="10.00" fill="#000000">odp/api/proto_stats</text>
<text text-anchor="middle" x="1367.654" y="-298.5" font-family="Helvetica,sans-Serif" font-size="10.00" fill="#000000">_types.h</text>
</a>
</g>
</g>
<!-- Node25&#45;&gt;Node26 -->
<g id="edge39" class="edge">
<title>Node25&#45;&gt;Node26</title>
<path fill="none" stroke="#191970" d="M1361.6569,-363.9005C1362.5336,-355.5099 1363.8463,-342.9451 1365.0203,-331.7085"/>
<polygon fill="#191970" stroke="#191970" points="1368.5264,-331.8314 1366.0845,-321.5218 1361.5643,-331.1039 1368.5264,-331.8314"/>
</g>
<!-- Node29 -->
<g id="node28" class="node">
<title>Node29</title>
<g id="a_node28"><a xlink:href="api_2time_8h.html" target="_top" xlink:title="ODP time. ">
<polygon fill="#ffffff" stroke="#000000" points="825.154,-297 825.154,-316 912.154,-316 912.154,-297 825.154,-297"/>
<text text-anchor="middle" x="868.654" y="-304" font-family="Helvetica,sans-Serif" font-size="10.00" fill="#000000">odp/api/time.h</text>
</a>
</g>
</g>
<!-- Node25&#45;&gt;Node29 -->
<g id="edge40" class="edge">
<title>Node25&#45;&gt;Node29</title>
<path fill="none" stroke="#191970" d="M1299.1392,-365.0174C1282.1407,-362.7058 1263.6866,-360.2261 1246.654,-358 1119.183,-341.34 1086.8274,-340.7975 959.654,-322 947.6397,-320.2242 934.7642,-318.1415 922.5902,-316.0892"/>
<polygon fill="#191970" stroke="#191970" points="923.0092,-312.6102 912.5632,-314.3798 921.8328,-319.5107 923.0092,-312.6102"/>
</g>
<!-- Node32 -->
<g id="node31" class="node">
<title>Node32</title>
<g id="a_node31"><a xlink:href="api_2packet__types_8h.html" target="_top" xlink:title="ODP packet. ">
<polygon fill="#ffffff" stroke="#ff0000" points="1478.654,-297 1478.654,-316 1608.654,-316 1608.654,-297 1478.654,-297"/>
<text text-anchor="middle" x="1543.654" y="-304" font-family="Helvetica,sans-Serif" font-size="10.00" fill="#000000">odp/api/packet_types.h</text>
</a>
</g>
</g>
<!-- Node25&#45;&gt;Node32 -->
<g id="edge46" class="edge">
<title>Node25&#45;&gt;Node32</title>
<path fill="none" stroke="#191970" d="M1386.8734,-363.9005C1418.6721,-352.2584 1472.4191,-332.5805 1507.9714,-319.5641"/>
<polygon fill="#191970" stroke="#191970" points="1509.2961,-322.8064 1517.4832,-316.0817 1506.8894,-316.2331 1509.2961,-322.8064"/>
</g>
<!-- Node29&#45;&gt;Node3 -->
<g id="edge41" class="edge">
<title>Node29&#45;&gt;Node3</title>
<path fill="none" stroke="#191970" d="M912.5137,-298.2595C927.4332,-295.6617 944.2329,-292.9614 959.654,-291 1148.1437,-267.0264 1198.0485,-285.1214 1385.654,-255 1391.8931,-253.9983 1398.4198,-252.7211 1404.8293,-251.3311"/>
<polygon fill="#191970" stroke="#191970" points="1405.771,-254.7064 1414.7466,-249.0772 1404.2196,-247.8805 1405.771,-254.7064"/>
</g>
<!-- Node30 -->
<g id="node29" class="node">
<title>Node30</title>
<polygon fill="#ffffff" stroke="#bfbfbf" points="825.154,-230 825.154,-249 930.154,-249 930.154,-230 825.154,-230"/>
<text text-anchor="middle" x="877.654" y="-237" font-family="Helvetica,sans-Serif" font-size="10.00" fill="#000000">odp/api/abi/time.h</text>
</g>
<!-- Node29&#45;&gt;Node30 -->
<g id="edge42" class="edge">
<title>Node29&#45;&gt;Node30</title>
<path fill="none" stroke="#191970" d="M869.9435,-296.9005C871.2534,-287.149 873.3206,-271.7597 874.9849,-259.3695"/>
<polygon fill="#191970" stroke="#191970" points="878.5043,-259.4586 876.3669,-249.0817 871.5666,-258.5266 878.5043,-259.4586"/>
</g>
<!-- Node31 -->
<g id="node30" class="node">
<title>Node31</title>
<g id="a_node30"><a xlink:href="api_2spec_2time_8h.html" target="_top" xlink:title="ODP time. ">
<polygon fill="#ffffff" stroke="#000000" points="1237.154,-56.5 1237.154,-75.5 1350.154,-75.5 1350.154,-56.5 1237.154,-56.5"/>
<text text-anchor="middle" x="1293.654" y="-63.5" font-family="Helvetica,sans-Serif" font-size="10.00" fill="#000000">odp/api/spec/time.h</text>
</a>
</g>
</g>
<!-- Node29&#45;&gt;Node31 -->
<g id="edge43" class="edge">
<title>Node29&#45;&gt;Node31</title>
<path fill="none" stroke="#191970" d="M885.7438,-296.9947C901.2156,-287.7662 923.926,-272.599 939.654,-255 988.327,-200.5367 960.8336,-153.9145 1020.654,-112 1024.9007,-109.0244 1147.543,-89.1472 1226.9851,-76.5143"/>
<polygon fill="#191970" stroke="#191970" points="1227.6014,-79.9604 1236.9286,-74.935 1226.5033,-73.047 1227.6014,-79.9604"/>
</g>
<!-- Node31&#45;&gt;Node1 -->
<g id="edge44" class="edge">
<title>Node31&#45;&gt;Node1</title>
<path fill="none" stroke="#191970" d="M1236.8122,-57.0743C1233.7176,-56.6862 1230.6496,-56.3245 1227.654,-56 997.6429,-31.0845 723.6674,-17.8554 596.7234,-12.6598"/>
<polygon fill="#191970" stroke="#191970" points="596.5036,-9.1481 586.3702,-12.2406 596.2203,-16.1424 596.5036,-9.1481"/>
</g>
<!-- Node31&#45;&gt;Node10 -->
<g id="edge45" class="edge">
<title>Node31&#45;&gt;Node10</title>
<path fill="none" stroke="#191970" d="M1350.4404,-56.5637C1409.5225,-46.7459 1501.9554,-31.3861 1564.3479,-21.0182"/>
<polygon fill="#191970" stroke="#191970" points="1565.1869,-24.4269 1574.4779,-19.3349 1564.0394,-17.5216 1565.1869,-24.4269"/>
</g>
<!-- Node32&#45;&gt;Node11 -->
<g id="edge47" class="edge">
<title>Node32&#45;&gt;Node11</title>
<path fill="none" stroke="#191970" d="M1608.6697,-301.0542C1690.1584,-293.6822 1834.2183,-278.8468 1967.1729,-254.9444"/>
<polygon fill="#191970" stroke="#191970" points="1967.9202,-258.366 1977.1324,-253.1329 1966.6675,-251.479 1967.9202,-258.366"/>
</g>
<!-- Node39&#45;&gt;Node3 -->
<g id="edge52" class="edge">
<title>Node39&#45;&gt;Node3</title>
<path fill="none" stroke="#191970" d="M1017.7693,-537.4013C1015.4806,-506.3 1012.8382,-407.4579 1065.654,-358 1131.5793,-296.266 1183.6036,-359.7487 1265.654,-322 1285.4549,-312.8903 1284.6385,-301.6524 1303.654,-291 1334.7062,-273.6047 1372.6864,-260.4831 1402.2622,-251.8389"/>
<polygon fill="#191970" stroke="#191970" points="1403.2897,-255.1855 1411.9479,-249.0793 1401.3716,-248.4534 1403.2897,-255.1855"/>
</g>
<!-- Node39&#45;&gt;Node11 -->
<g id="edge55" class="edge">
<title>Node39&#45;&gt;Node11</title>
<path fill="none" stroke="#191970" d="M1074.7156,-544.987C1170.2997,-540.8969 1370.6807,-529.4604 1537.654,-501 1637.1153,-484.0469 1666.4605,-488.1707 1757.654,-445 1861.3459,-395.9126 1964.1669,-303.7169 2008.2593,-261.5556"/>
<polygon fill="#191970" stroke="#191970" points="2010.7841,-263.9832 2015.5537,-254.5226 2005.9255,-258.9439 2010.7841,-263.9832"/>
</g>
<!-- Node39&#45;&gt;Node14 -->
<g id="edge53" class="edge">
<title>Node39&#45;&gt;Node14</title>
<path fill="none" stroke="#191970" d="M1074.8453,-542.6077C1220.7711,-530.6166 1608.6059,-494.8554 1726.654,-445 1814.832,-407.7597 1875.8501,-301.5162 1897.7282,-258.2136"/>
<polygon fill="#191970" stroke="#191970" points="1900.948,-259.5977 1902.2292,-249.0806 1894.6691,-256.5032 1900.948,-259.5977"/>
</g>
<!-- Node39&#45;&gt;Node15 -->
<g id="edge57" class="edge">
<title>Node39&#45;&gt;Node15</title>
<path fill="none" stroke="#191970" d="M962.3177,-538.0773C959.3903,-537.6937 956.489,-537.3315 953.654,-537 755.2531,-513.7978 698.8073,-551.9218 505.654,-501 485.2732,-495.6269 481.8603,-489.6814 462.654,-481 426.385,-464.6062 408.2552,-473.677 380.654,-445 328.5036,-390.817 308.7198,-299.0579 302.317,-259.0862"/>
<polygon fill="#191970" stroke="#191970" points="305.7577,-258.4285 300.8218,-249.0537 298.8342,-259.4604 305.7577,-258.4285"/>
</g>
<!-- Node39&#45;&gt;Node23 -->
<g id="edge56" class="edge">
<title>Node39&#45;&gt;Node23</title>
<path fill="none" stroke="#191970" d="M1023.1415,-537.2991C1033.2471,-515.9378 1059.2176,-463.6643 1088.654,-425 1098.2772,-412.36 1110.8125,-399.6619 1121.0472,-390.0371"/>
<polygon fill="#191970" stroke="#191970" points="1123.6689,-392.3812 1128.6624,-383.0369 1118.9316,-387.2277 1123.6689,-392.3812"/>
</g>
<!-- Node40 -->
<g id="node33" class="node">
<title>Node40</title>
<polygon fill="#ffffff" stroke="#bfbfbf" points="307.654,-481.5 307.654,-500.5 453.654,-500.5 453.654,-481.5 307.654,-481.5"/>
<text text-anchor="middle" x="380.654" y="-488.5" font-family="Helvetica,sans-Serif" font-size="10.00" fill="#000000">odp/api/abi/classification.h</text>
</g>
<!-- Node39&#45;&gt;Node40 -->
<g id="edge54" class="edge">
<title>Node39&#45;&gt;Node40</title>
<path fill="none" stroke="#191970" d="M962.3202,-538.0557C959.3921,-537.6777 956.4901,-537.3227 953.654,-537 738.4508,-512.5139 683.2857,-521.3706 467.654,-501 466.3769,-500.8794 465.0894,-500.7558 463.7937,-500.6296"/>
<polygon fill="#191970" stroke="#191970" points="464.033,-497.1361 453.7328,-499.6172 463.3321,-504.101 464.033,-497.1361"/>
</g>
<!-- Node41 -->
<g id="node34" class="node">
<title>Node41</title>
<g id="a_node34"><a xlink:href="api_2spec_2packet__io_8h.html" target="_top" xlink:title="ODP Packet IO. ">
<polygon fill="#ffffff" stroke="#000000" points="714.154,-481.5 714.154,-500.5 851.154,-500.5 851.154,-481.5 714.154,-481.5"/>
<text text-anchor="middle" x="782.654" y="-488.5" font-family="Helvetica,sans-Serif" font-size="10.00" fill="#000000">odp/api/spec/packet_io.h</text>
</a>
</g>
</g>
<!-- Node39&#45;&gt;Node41 -->
<g id="edge58" class="edge">
<title>Node39&#45;&gt;Node41</title>
<path fill="none" stroke="#191970" d="M978.3523,-537.4369C938.0476,-527.8731 875.9719,-513.1432 832.5722,-502.845"/>
<polygon fill="#191970" stroke="#191970" points="833.3274,-499.4271 822.7895,-500.5237 831.7112,-506.238 833.3274,-499.4271"/>
</g>
<!-- Node41&#45;&gt;Node1 -->
<g id="edge59" class="edge">
<title>Node41&#45;&gt;Node1</title>
<path fill="none" stroke="#191970" d="M713.7034,-484.7244C669.0184,-478.7229 610.4523,-467.1416 562.654,-445 481.9048,-407.5945 451.2056,-397.8456 404.654,-322 388.7868,-296.1479 381.5562,-218.194 378.654,-188 373.0409,-129.6025 343.9127,-103.2739 378.654,-56 389.1844,-41.6709 428.4482,-29.8149 463.7484,-21.7298"/>
<polygon fill="#191970" stroke="#191970" points="464.5679,-25.1332 473.5725,-19.5505 463.0518,-18.2993 464.5679,-25.1332"/>
</g>
<!-- Node41&#45;&gt;Node10 -->
<g id="edge84" class="edge">
<title>Node41&#45;&gt;Node10</title>
<path fill="none" stroke="#191970" d="M851.4118,-488.5453C1000.1824,-482.8773 1347.8605,-467.6095 1463.654,-445 1541.7289,-429.7553 1563.4142,-426.3426 1633.654,-389 1729.4581,-338.0662 1826.654,-348.002 1826.654,-239.5 1826.654,-239.5 1826.654,-239.5 1826.654,-122 1826.654,-60.8118 1753.7542,-32.5999 1696.8729,-19.9002"/>
<polygon fill="#191970" stroke="#191970" points="1697.3272,-16.419 1686.8197,-17.7767 1695.8805,-23.2679 1697.3272,-16.419"/>
</g>
<!-- Node41&#45;&gt;Node17 -->
<g id="edge60" class="edge">
<title>Node41&#45;&gt;Node17</title>
<path fill="none" stroke="#191970" d="M724.5902,-481.4429C685.0582,-473.6152 637.7863,-461.197 625.654,-445 594.6231,-403.5727 678.7733,-249.8828 709.7334,-196.4501"/>
<polygon fill="#191970" stroke="#191970" points="712.8296,-198.0888 714.8556,-187.6894 706.7867,-194.5556 712.8296,-198.0888"/>
</g>
<!-- Node41&#45;&gt;Node21 -->
<g id="edge83" class="edge">
<title>Node41&#45;&gt;Node21</title>
<path fill="none" stroke="#191970" d="M851.4069,-484.82C974.4321,-473.7615 1230.1807,-450.7729 1346.166,-440.3472"/>
<polygon fill="#191970" stroke="#191970" points="1346.6318,-443.8196 1356.2783,-439.4383 1346.0051,-436.8477 1346.6318,-443.8196"/>
</g>
<!-- Node41&#45;&gt;Node29 -->
<g id="edge82" class="edge">
<title>Node41&#45;&gt;Node29</title>
<path fill="none" stroke="#191970" d="M784.892,-481.38C788.0795,-468.3289 794.4598,-444.4138 802.654,-425 815.8818,-393.6606 823.0863,-387.7094 839.654,-358 845.7261,-347.1115 852.5668,-334.9579 858.0788,-325.1929"/>
<polygon fill="#191970" stroke="#191970" points="861.1979,-326.7874 863.0702,-316.3593 855.1035,-323.3437 861.1979,-326.7874"/>
</g>
<!-- Node42 -->
<g id="node35" class="node">
<title>Node42</title>
<g id="a_node35"><a xlink:href="packet__io__stats_8h.html" target="_top" xlink:title="ODP packet IO stats. ">
<polygon fill="#ffffff" stroke="#000000" points="811.154,-425.5 811.154,-444.5 952.154,-444.5 952.154,-425.5 811.154,-425.5"/>
<text text-anchor="middle" x="881.654" y="-432.5" font-family="Helvetica,sans-Serif" font-size="10.00" fill="#000000">odp/api/packet_io_stats.h</text>
</a>
</g>
</g>
<!-- Node41&#45;&gt;Node42 -->
<g id="edge61" class="edge">
<title>Node41&#45;&gt;Node42</title>
<path fill="none" stroke="#191970" d="M799.8985,-481.2455C815.2301,-472.5731 837.8739,-459.7645 855.4455,-449.825"/>
<polygon fill="#191970" stroke="#191970" points="857.6263,-452.6126 864.6071,-444.6427 854.1799,-446.5198 857.6263,-452.6126"/>
</g>
<!-- Node34 -->
<g id="node38" class="node">
<title>Node34</title>
<g id="a_node38"><a xlink:href="api_2queue__types_8h.html" target="_top" xlink:title="ODP queue. ">
<polygon fill="#ffffff" stroke="#000000" points="413.154,-297 413.154,-316 540.154,-316 540.154,-297 413.154,-297"/>
<text text-anchor="middle" x="476.654" y="-304" font-family="Helvetica,sans-Serif" font-size="10.00" fill="#000000">odp/api/queue_types.h</text>
</a>
</g>
</g>
<!-- Node41&#45;&gt;Node34 -->
<g id="edge72" class="edge">
<title>Node41&#45;&gt;Node34</title>
<path fill="none" stroke="#191970" d="M713.9862,-484.9787C675.9508,-479.1409 629.1301,-467.6435 592.654,-445 543.0956,-414.2353 504.3225,-355.0752 486.8192,-325.0129"/>
<polygon fill="#191970" stroke="#191970" points="489.6935,-322.9862 481.7139,-316.0164 483.6054,-326.441 489.6935,-322.9862"/>
</g>
<!-- Node49 -->
<g id="node40" class="node">
<title>Node49</title>
<g id="a_node40"><a xlink:href="reassembly_8h.html" target="_top" xlink:title="ODP REASSEMBLY API &#45; platform specific header. ">
<polygon fill="#ffffff" stroke="#000000" points="634.654,-425.5 634.654,-444.5 754.654,-444.5 754.654,-425.5 634.654,-425.5"/>
<text text-anchor="middle" x="694.654" y="-432.5" font-family="Helvetica,sans-Serif" font-size="10.00" fill="#000000">odp/api/reassembly.h</text>
</a>
</g>
</g>
<!-- Node41&#45;&gt;Node49 -->
<g id="edge78" class="edge">
<title>Node41&#45;&gt;Node49</title>
<path fill="none" stroke="#191970" d="M767.3256,-481.2455C753.8236,-472.6534 733.9418,-460.0014 718.3854,-450.1018"/>
<polygon fill="#191970" stroke="#191970" points="720.1225,-447.0587 709.8068,-444.6427 716.3643,-452.9643 720.1225,-447.0587"/>
</g>
<!-- Node43 -->
<g id="node36" class="node">
<title>Node43</title>
<g id="a_node36"><a xlink:href="spec_2packet__io__stats_8h.html" target="_top" xlink:title="ODP Packet IO statistics. ">
<polygon fill="#ffffff" stroke="#000000" points="848.654,-358.5 848.654,-388.5 962.654,-388.5 962.654,-358.5 848.654,-358.5"/>
<text text-anchor="start" x="856.654" y="-376.5" font-family="Helvetica,sans-Serif" font-size="10.00" fill="#000000">odp/api/spec/packet</text>
<text text-anchor="middle" x="905.654" y="-365.5" font-family="Helvetica,sans-Serif" font-size="10.00" fill="#000000">_io_stats.h</text>
</a>
</g>
</g>
<!-- Node42&#45;&gt;Node43 -->
<g id="edge62" class="edge">
<title>Node42&#45;&gt;Node43</title>
<path fill="none" stroke="#191970" d="M885.404,-425.3906C888.2611,-418.0692 892.3276,-407.6488 896.0678,-398.0647"/>
<polygon fill="#191970" stroke="#191970" points="899.408,-399.1328 899.7829,-388.5446 892.8869,-396.588 899.408,-399.1328"/>
</g>
<!-- Node43&#45;&gt;Node1 -->
<g id="edge63" class="edge">
<title>Node43&#45;&gt;Node1</title>
<path fill="none" stroke="#191970" d="M848.3043,-360.9729C843.6861,-359.9663 839.0922,-358.9657 834.654,-358 760.8872,-341.9492 740.8522,-344.0585 668.654,-322 659.0443,-319.064 507.682,-262.1815 500.654,-255 437.1622,-190.1217 411.2964,-135.7529 454.654,-56 462.2917,-41.9511 476.2749,-31.5317 489.8248,-24.1958"/>
<polygon fill="#191970" stroke="#191970" points="491.6599,-27.1921 499.053,-19.603 488.541,-20.9253 491.6599,-27.1921"/>
</g>
<!-- Node43&#45;&gt;Node10 -->
<g id="edge71" class="edge">
<title>Node43&#45;&gt;Node10</title>
<path fill="none" stroke="#191970" d="M912.14,-358.4725C920.6612,-340.2953 937.2179,-309.8014 959.654,-291 1114.865,-160.9333 1186.5051,-175.9266 1378.654,-112 1442.8882,-90.6297 1464.3561,-102.4895 1526.654,-76 1557.8534,-62.7338 1590.2962,-40.5863 1610.4765,-25.6457"/>
<polygon fill="#191970" stroke="#191970" points="1612.7035,-28.3502 1618.5862,-19.5385 1608.4925,-22.7584 1612.7035,-28.3502"/>
</g>
<!-- Node43&#45;&gt;Node17 -->
<g id="edge64" class="edge">
<title>Node43&#45;&gt;Node17</title>
<path fill="none" stroke="#191970" d="M848.6127,-359.7283C825.7761,-351.8346 800.6687,-339.8347 782.654,-322 747.1656,-286.8663 730.6999,-228.1298 724.2183,-197.667"/>
<polygon fill="#191970" stroke="#191970" points="727.6438,-196.9473 722.2654,-187.8192 720.7776,-198.3091 727.6438,-196.9473"/>
</g>
<!-- Node44 -->
<g id="node37" class="node">
<title>Node44</title>
<g id="a_node37"><a xlink:href="api_2queue_8h.html" target="_top" xlink:title="ODP queue. ">
<polygon fill="#ffffff" stroke="#ff0000" points="1161.154,-297 1161.154,-316 1256.154,-316 1256.154,-297 1161.154,-297"/>
<text text-anchor="middle" x="1208.654" y="-304" font-family="Helvetica,sans-Serif" font-size="10.00" fill="#000000">odp/api/queue.h</text>
</a>
</g>
</g>
<!-- Node43&#45;&gt;Node44 -->
<g id="edge65" class="edge">
<title>Node43&#45;&gt;Node44</title>
<path fill="none" stroke="#191970" d="M963.0022,-360.819C1018.287,-348.5944 1101.2849,-330.2417 1155.215,-318.3166"/>
<polygon fill="#191970" stroke="#191970" points="1156.2563,-321.6709 1165.2648,-316.0943 1154.7449,-314.836 1156.2563,-321.6709"/>
</g>
<!-- Node44&#45;&gt;Node3 -->
<g id="edge66" class="edge">
<title>Node44&#45;&gt;Node3</title>
<path fill="none" stroke="#191970" d="M1243.0697,-296.9717C1285.8629,-285.124 1358.998,-264.8758 1406.0511,-251.8487"/>
<polygon fill="#191970" stroke="#191970" points="1407.2616,-255.1453 1415.9652,-249.1039 1405.3938,-248.3991 1407.2616,-255.1453"/>
</g>
<!-- Node44&#45;&gt;Node13 -->
<g id="edge69" class="edge">
<title>Node44&#45;&gt;Node13</title>
<path fill="none" stroke="#191970" d="M1256.4461,-298.3737C1271.532,-295.8969 1288.2748,-293.2391 1303.654,-291 1422.0998,-273.7555 1560.6387,-256.6885 1640.2658,-247.1777"/>
<polygon fill="#191970" stroke="#191970" points="1641.112,-250.6017 1650.6276,-245.943 1640.2837,-243.6509 1641.112,-250.6017"/>
</g>
<!-- Node44&#45;&gt;Node14 -->
<g id="edge70" class="edge">
<title>Node44&#45;&gt;Node14</title>
<path fill="none" stroke="#191970" d="M1256.3836,-297.9023C1271.4665,-295.4033 1288.2233,-292.8515 1303.654,-291 1509.9028,-266.2527 1562.8601,-274.6797 1769.654,-255 1794.0436,-252.6789 1820.8305,-249.7361 1844.1989,-247.0398"/>
<polygon fill="#191970" stroke="#191970" points="1844.801,-250.4935 1854.3298,-245.8618 1843.9924,-243.5403 1844.801,-250.4935"/>
</g>
<!-- Node44&#45;&gt;Node15 -->
<g id="edge68" class="edge">
<title>Node44&#45;&gt;Node15</title>
<path fill="none" stroke="#191970" d="M1160.9408,-297.7615C1145.8586,-295.2559 1129.0981,-292.7357 1113.654,-291 857.4367,-262.2052 791.9567,-271.4845 534.654,-255 484.0113,-251.7555 427.2372,-248.0137 382.1805,-245.0195"/>
<polygon fill="#191970" stroke="#191970" points="382.3766,-241.5249 372.1663,-244.3535 381.912,-248.5095 382.3766,-241.5249"/>
</g>
<!-- Node44&#45;&gt;Node22 -->
<g id="edge67" class="edge">
<title>Node44&#45;&gt;Node22</title>
<path fill="none" stroke="#191970" d="M1224.8441,-296.9005C1243.6403,-285.7559 1274.8556,-267.2477 1296.7464,-254.2682"/>
<polygon fill="#191970" stroke="#191970" points="1298.6772,-257.1924 1305.4939,-249.0817 1295.1071,-251.1712 1298.6772,-257.1924"/>
</g>
<!-- Node34&#45;&gt;Node15 -->
<g id="edge73" class="edge">
<title>Node34&#45;&gt;Node15</title>
<path fill="none" stroke="#191970" d="M451.2942,-296.9005C420.6696,-285.3082 368.9972,-265.7486 334.6084,-252.7313"/>
<polygon fill="#191970" stroke="#191970" points="335.5582,-249.3486 324.9667,-249.0817 333.08,-255.8952 335.5582,-249.3486"/>
</g>
<!-- Node35 -->
<g id="node39" class="node">
<title>Node35</title>
<g id="a_node39"><a xlink:href="api_2spec_2queue__types_8h.html" target="_top" xlink:title="ODP queue types. ">
<polygon fill="#ffffff" stroke="#ff0000" points="543.154,-224.5 543.154,-254.5 654.154,-254.5 654.154,-224.5 543.154,-224.5"/>
<text text-anchor="start" x="551.154" y="-242.5" font-family="Helvetica,sans-Serif" font-size="10.00" fill="#000000">odp/api/spec/queue</text>
<text text-anchor="middle" x="598.654" y="-231.5" font-family="Helvetica,sans-Serif" font-size="10.00" fill="#000000">_types.h</text>
</a>
</g>
</g>
<!-- Node34&#45;&gt;Node35 -->
<g id="edge74" class="edge">
<title>Node34&#45;&gt;Node35</title>
<path fill="none" stroke="#191970" d="M494.1336,-296.9005C511.8536,-287.1691 539.7971,-271.823 562.3343,-259.4461"/>
<polygon fill="#191970" stroke="#191970" points="564.2205,-262.4033 571.3009,-254.5218 560.8509,-256.2677 564.2205,-262.4033"/>
</g>
<!-- Node35&#45;&gt;Node1 -->
<g id="edge75" class="edge">
<title>Node35&#45;&gt;Node1</title>
<path fill="none" stroke="#191970" d="M590.3715,-224.2755C575.4459,-196.0124 544.3191,-133.106 530.654,-76 527.0137,-60.7871 525.831,-43.0916 525.5216,-29.855"/>
<polygon fill="#191970" stroke="#191970" points="529.019,-29.5153 525.4347,-19.5452 522.0192,-29.5743 529.019,-29.5153"/>
</g>
<!-- Node35&#45;&gt;Node10 -->
<g id="edge77" class="edge">
<title>Node35&#45;&gt;Node10</title>
<path fill="none" stroke="#191970" d="M605.6047,-224.4058C614.1582,-207.6747 630.3389,-181.3 652.654,-168 974.8859,24.0537 1129.118,-172.3621 1491.654,-76 1494.552,-75.2297 1561.7993,-43.0551 1601.6786,-23.9199"/>
<polygon fill="#191970" stroke="#191970" points="1603.1942,-27.0748 1610.6949,-19.5921 1600.1651,-20.7642 1603.1942,-27.0748"/>
</g>
<!-- Node35&#45;&gt;Node17 -->
<g id="edge76" class="edge">
<title>Node35&#45;&gt;Node17</title>
<path fill="none" stroke="#191970" d="M628.4985,-224.4554C648.051,-214.599 673.4412,-201.7999 692.6185,-192.1327"/>
<polygon fill="#191970" stroke="#191970" points="694.3942,-195.1571 701.7483,-187.5303 691.2432,-188.9064 694.3942,-195.1571"/>
</g>
<!-- Node50 -->
<g id="node41" class="node">
<title>Node50</title>
<g id="a_node41"><a xlink:href="spec_2reassembly_8h.html" target="_top" xlink:title="ODP REASSEMBLY API. ">
<polygon fill="#ffffff" stroke="#000000" points="1072.654,-56.5 1072.654,-75.5 1218.654,-75.5 1218.654,-56.5 1072.654,-56.5"/>
<text text-anchor="middle" x="1145.654" y="-63.5" font-family="Helvetica,sans-Serif" font-size="10.00" fill="#000000">odp/api/spec/reassembly.h</text>
</a>
</g>
</g>
<!-- Node49&#45;&gt;Node50 -->
<g id="edge79" class="edge">
<title>Node49&#45;&gt;Node50</title>
<path fill="none" stroke="#191970" d="M698.3617,-425.098C710.815,-392.8703 753.9144,-289.2962 816.654,-224 881.1533,-156.8724 908.9977,-150.7245 993.654,-112 1025.6407,-97.3682 1063.496,-85.8957 1093.4267,-78.0674"/>
<polygon fill="#191970" stroke="#191970" points="1094.4331,-81.4228 1103.2533,-75.553 1092.6978,-74.6412 1094.4331,-81.4228"/>
</g>
<!-- Node50&#45;&gt;Node1 -->
<g id="edge80" class="edge">
<title>Node50&#45;&gt;Node1</title>
<path fill="none" stroke="#191970" d="M1072.5688,-57.4473C1067.8615,-56.9434 1063.1922,-56.4566 1058.654,-56 893.3679,-39.3718 698.8675,-23.5246 596.6556,-15.4839"/>
<polygon fill="#191970" stroke="#191970" points="596.6993,-11.9767 586.4561,-14.6834 596.1515,-18.9552 596.6993,-11.9767"/>
</g>
<!-- Node50&#45;&gt;Node10 -->
<g id="edge81" class="edge">
<title>Node50&#45;&gt;Node10</title>
<path fill="none" stroke="#191970" d="M1218.9715,-57.1425C1222.2435,-56.7548 1225.4827,-56.3725 1228.654,-56 1346.6694,-42.1386 1484.2406,-26.5115 1563.9977,-17.504"/>
<polygon fill="#191970" stroke="#191970" points="1564.8397,-20.9313 1574.3839,-16.3316 1564.0544,-13.9755 1564.8397,-20.9313"/>
</g>
<!-- Node52 -->
<g id="node43" class="node">
<title>Node52</title>
<g id="a_node43"><a xlink:href="spec_2protocols_8h.html" target="_top" xlink:title="ODP protocols. ">
<polygon fill="#ffffff" stroke="#000000" points="573.154,-56.5 573.154,-75.5 708.154,-75.5 708.154,-56.5 573.154,-56.5"/>
<text text-anchor="middle" x="640.654" y="-63.5" font-family="Helvetica,sans-Serif" font-size="10.00" fill="#000000">odp/api/spec/protocols.h</text>
</a>
</g>
</g>
<!-- Node51&#45;&gt;Node52 -->
<g id="edge86" class="edge">
<title>Node51&#45;&gt;Node52</title>
<path fill="none" stroke="#191970" d="M84.654,-660.4309C84.654,-639.738 84.654,-589.2813 84.654,-547 84.654,-547 84.654,-547 84.654,-239.5 84.654,-140.5293 409.7474,-91.4704 562.7643,-73.8606"/>
<polygon fill="#191970" stroke="#191970" points="563.4913,-77.3007 573.0333,-72.6964 562.7027,-70.3453 563.4913,-77.3007"/>
</g>
<!-- Node52&#45;&gt;Node1 -->
<g id="edge87" class="edge">
<title>Node52&#45;&gt;Node1</title>
<path fill="none" stroke="#191970" d="M620.8848,-56.3733C602.5071,-47.4241 574.9227,-33.9917 554.1647,-23.8835"/>
<polygon fill="#191970" stroke="#191970" points="555.6883,-20.7325 545.1652,-19.5011 552.6236,-27.026 555.6883,-20.7325"/>
</g>
<!-- Node52&#45;&gt;Node10 -->
<g id="edge88" class="edge">
<title>Node52&#45;&gt;Node10</title>
<path fill="none" stroke="#191970" d="M708.2269,-56.9182C711.4113,-56.5865 714.566,-56.2779 717.654,-56 1034.0315,-27.5305 1413.789,-15.4596 1564.4271,-11.5478"/>
<polygon fill="#191970" stroke="#191970" points="1564.5373,-15.0462 1574.4443,-11.291 1564.3578,-8.0485 1564.5373,-15.0462"/>
</g>
<!-- Node53&#45;&gt;Node3 -->
<g id="edge90" class="edge">
<title>Node53&#45;&gt;Node3</title>
<path fill="none" stroke="#191970" d="M1170.746,-662.4649C1316.576,-644.4538 1660.654,-596.6923 1660.654,-547 1660.654,-547 1660.654,-547 1660.654,-435 1660.654,-368.2075 1664.6716,-338.4402 1617.654,-291 1602.1325,-275.339 1550.4026,-260.8602 1508.5835,-251.2696"/>
<polygon fill="#191970" stroke="#191970" points="1509.2645,-247.8354 1498.7405,-249.0591 1507.7306,-254.6653 1509.2645,-247.8354"/>
</g>
<!-- Node53&#45;&gt;Node11 -->
<g id="edge93" class="edge">
<title>Node53&#45;&gt;Node11</title>
<path fill="none" stroke="#191970" d="M1170.736,-668.8203C1353.9352,-665.1373 1877.5589,-652.3616 2046.654,-624 2162.9911,-604.4873 2300.654,-664.9621 2300.654,-547 2300.654,-547 2300.654,-547 2300.654,-435 2300.654,-333.5755 2174.1158,-279.3958 2094.2923,-255.3082"/>
<polygon fill="#191970" stroke="#191970" points="2094.9011,-251.8393 2084.3201,-252.3813 2092.9297,-258.556 2094.9011,-251.8393"/>
</g>
<!-- Node53&#45;&gt;Node14 -->
<g id="edge91" class="edge">
<title>Node53&#45;&gt;Node14</title>
<path fill="none" stroke="#191970" d="M1170.9802,-667.7522C1295.1455,-662.982 1576.3688,-650.081 1811.654,-624 2013.761,-601.5968 2262.654,-750.3449 2262.654,-547 2262.654,-547 2262.654,-547 2262.654,-491 2262.654,-411.5774 2023.302,-293.309 1937.1169,-253.2977"/>
<polygon fill="#191970" stroke="#191970" points="1938.4039,-250.037 1927.8573,-249.027 1935.4722,-256.3935 1938.4039,-250.037"/>
</g>
<!-- Node53&#45;&gt;Node15 -->
<g id="edge95" class="edge">
<title>Node53&#45;&gt;Node15</title>
<path fill="none" stroke="#191970" d="M1042.5163,-666.2298C961.6999,-660.689 818.8341,-648.2649 698.654,-624 508.8306,-585.6738 449.6277,-595.6029 280.654,-501 242.6177,-479.7047 209.7438,-467.6715 218.654,-425 232.1938,-360.1573 269.7106,-290.2314 288.5536,-257.8644"/>
<polygon fill="#191970" stroke="#191970" points="291.6754,-259.4614 293.7546,-249.0725 285.6507,-255.8972 291.6754,-259.4614"/>
</g>
<!-- Node53&#45;&gt;Node23 -->
<g id="edge94" class="edge">
<title>Node53&#45;&gt;Node23</title>
<path fill="none" stroke="#191970" d="M1106.1311,-660.4343C1105.0468,-639.7481 1102.654,-589.3036 1102.654,-547 1102.654,-547 1102.654,-547 1102.654,-491 1102.654,-454.8346 1118.7982,-415.1787 1129.7584,-392.4237"/>
<polygon fill="#191970" stroke="#191970" points="1133.0128,-393.741 1134.3528,-383.2312 1126.7513,-390.6115 1133.0128,-393.741"/>
</g>
<!-- Node53&#45;&gt;Node40 -->
<g id="edge92" class="edge">
<title>Node53&#45;&gt;Node40</title>
<path fill="none" stroke="#191970" d="M1042.5814,-662.4921C983.2876,-654.9267 892.9042,-641.823 815.654,-624 665.3595,-589.3244 491.1915,-530.1429 417.062,-504.0327"/>
<polygon fill="#191970" stroke="#191970" points="417.8737,-500.6074 407.2789,-500.574 415.5403,-507.2071 417.8737,-500.6074"/>
</g>
<!-- Node54 -->
<g id="node45" class="node">
<title>Node54</title>
<g id="a_node45"><a xlink:href="api_2spec_2classification_8h.html" target="_top" xlink:title="ODP classification descriptor. ">
<polygon fill="#ffffff" stroke="#000000" points="824.654,-599 824.654,-618 978.654,-618 978.654,-599 824.654,-599"/>
<text text-anchor="middle" x="901.654" y="-606" font-family="Helvetica,sans-Serif" font-size="10.00" fill="#000000">odp/api/spec/classification.h</text>
</a>
</g>
</g>
<!-- Node53&#45;&gt;Node54 -->
<g id="edge96" class="edge">
<title>Node53&#45;&gt;Node54</title>
<path fill="none" stroke="#191970" d="M1074.6227,-660.3906C1039.2694,-649.7846 982.2383,-632.6753 943.4062,-621.0257"/>
<polygon fill="#191970" stroke="#191970" points="944.0443,-617.5631 933.4603,-618.0419 942.0328,-624.2678 944.0443,-617.5631"/>
</g>
<!-- Node54&#45;&gt;Node1 -->
<g id="edge97" class="edge">
<title>Node54&#45;&gt;Node1</title>
<path fill="none" stroke="#191970" d="M824.5709,-606.0487C720.2636,-601.5998 528.792,-589.4221 368.654,-557 286.9538,-540.4587 253.6729,-554.3866 189.654,-501 140.491,-460.0021 122.654,-437.5143 122.654,-373.5 122.654,-373.5 122.654,-373.5 122.654,-239.5 122.654,-157.2499 88.2254,-113.8894 146.654,-56 168.1276,-34.7245 351.4522,-20.4121 455.0538,-13.9427"/>
<polygon fill="#191970" stroke="#191970" points="455.3634,-17.4304 465.1294,-13.3225 454.9333,-10.4436 455.3634,-17.4304"/>
</g>
<!-- Node54&#45;&gt;Node10 -->
<g id="edge105" class="edge">
<title>Node54&#45;&gt;Node10</title>
<path fill="none" stroke="#191970" d="M978.9638,-608.0241C1197.6629,-606.1871 1817.7389,-597.4559 2016.654,-557 2096.0779,-540.8465 2186.654,-572.0499 2186.654,-491 2186.654,-491 2186.654,-491 2186.654,-435 2186.654,-347.6576 2206.654,-326.8424 2206.654,-239.5 2206.654,-239.5 2206.654,-239.5 2206.654,-122 2206.654,-70.5583 1848.0819,-30.5692 1696.7644,-15.9841"/>
<polygon fill="#191970" stroke="#191970" points="1696.9568,-12.4866 1686.6691,-15.0191 1696.2907,-19.4549 1696.9568,-12.4866"/>
</g>
<!-- Node54&#45;&gt;Node19 -->
<g id="edge99" class="edge">
<title>Node54&#45;&gt;Node19</title>
<path fill="none" stroke="#191970" d="M824.374,-604.4784C679.7621,-595.4222 375.8797,-568.6752 298.654,-501 285.5384,-489.5064 280.5435,-469.8527 278.6775,-454.9737"/>
<polygon fill="#191970" stroke="#191970" points="282.1403,-454.3956 277.7779,-444.7406 275.1672,-455.0087 282.1403,-454.3956"/>
</g>
<!-- Node54&#45;&gt;Node39 -->
<g id="edge98" class="edge">
<title>Node54&#45;&gt;Node39</title>
<path fill="none" stroke="#191970" d="M919.9352,-598.8906C939.168,-588.7811 969.6419,-572.7628 991.6465,-561.1962"/>
<polygon fill="#191970" stroke="#191970" points="993.2779,-564.2928 1000.5011,-556.5419 990.021,-558.0967 993.2779,-564.2928"/>
</g>
<!-- Node55 -->
<g id="node46" class="node">
<title>Node55</title>
<g id="a_node46"><a xlink:href="threshold_8h.html" target="_top" xlink:title="ODP threshold API &#45; platform specific header. ">
<polygon fill="#ffffff" stroke="#000000" points="834.654,-537.5 834.654,-556.5 944.654,-556.5 944.654,-537.5 834.654,-537.5"/>
<text text-anchor="middle" x="889.654" y="-544.5" font-family="Helvetica,sans-Serif" font-size="10.00" fill="#000000">odp/api/threshold.h</text>
</a>
</g>
</g>
<!-- Node54&#45;&gt;Node55 -->
<g id="edge100" class="edge">
<title>Node54&#45;&gt;Node55</title>
<path fill="none" stroke="#191970" d="M899.779,-598.8906C898.0981,-590.276 895.58,-577.3708 893.4756,-566.5858"/>
<polygon fill="#191970" stroke="#191970" points="896.9058,-565.8895 891.5554,-556.7449 890.0354,-567.2301 896.9058,-565.8895"/>
</g>
<!-- Node56 -->
<g id="node47" class="node">
<title>Node56</title>
<g id="a_node47"><a xlink:href="spec_2threshold_8h.html" target="_top" xlink:title="ODP threshold descriptor. ">
<polygon fill="#ffffff" stroke="#000000" points="968.654,-297 968.654,-316 1104.654,-316 1104.654,-297 968.654,-297"/>
<text text-anchor="middle" x="1036.654" y="-304" font-family="Helvetica,sans-Serif" font-size="10.00" fill="#000000">odp/api/spec/threshold.h</text>
</a>
</g>
</g>
<!-- Node55&#45;&gt;Node56 -->
<g id="edge101" class="edge">
<title>Node55&#45;&gt;Node56</title>
<path fill="none" stroke="#191970" d="M896.9995,-537.4151C910.4878,-519.6416 939.8212,-480.1758 961.654,-445 987.483,-403.3858 1013.8841,-352.2023 1027.4123,-325.2124"/>
<polygon fill="#191970" stroke="#191970" points="1030.6138,-326.6349 1031.9387,-316.1232 1024.3478,-323.5144 1030.6138,-326.6349"/>
</g>
<!-- Node56&#45;&gt;Node1 -->
<g id="edge102" class="edge">
<title>Node56&#45;&gt;Node1</title>
<path fill="none" stroke="#191970" d="M1027.562,-296.9219C1011.2797,-280.2185 975.4843,-245.4946 939.654,-224 786.004,-131.8252 700.9438,-192.3167 564.654,-76 549.9906,-63.4855 539.4353,-44.004 533.0335,-29.4456"/>
<polygon fill="#191970" stroke="#191970" points="536.1436,-27.8053 529.1068,-19.8849 529.6685,-30.4648 536.1436,-27.8053"/>
</g>
<!-- Node56&#45;&gt;Node3 -->
<g id="edge103" class="edge">
<title>Node56&#45;&gt;Node3</title>
<path fill="none" stroke="#191970" d="M1104.6625,-297.1867C1190.4961,-285.3065 1333.2563,-265.0933 1385.654,-255 1391.3463,-253.9035 1397.2929,-252.6445 1403.1776,-251.3282"/>
<polygon fill="#191970" stroke="#191970" points="1404.0055,-254.7293 1412.967,-249.0776 1402.437,-247.9073 1404.0055,-254.7293"/>
</g>
<!-- Node56&#45;&gt;Node10 -->
<g id="edge104" class="edge">
<title>Node56&#45;&gt;Node10</title>
<path fill="none" stroke="#191970" d="M1057.4897,-296.9351C1096.1104,-279.6132 1181.794,-243.08 1257.654,-224 1372.4964,-195.1153 1408.8795,-224.1251 1521.654,-188 1539.8295,-182.1778 1542.698,-176.7602 1559.654,-168 1628.7996,-132.2765 1673.1249,-145.2457 1708.654,-76 1720.3942,-53.1185 1693.8207,-34.986 1668.564,-23.5622"/>
<polygon fill="#191970" stroke="#191970" points="1669.6038,-20.2014 1659.0312,-19.5164 1666.8691,-26.6451 1669.6038,-20.2014"/>
</g>
<!-- Node58 -->
<g id="node49" class="node">
<title>Node58</title>
<polygon fill="#ffffff" stroke="#bfbfbf" points="2328.654,-593.5 2328.654,-623.5 2430.654,-623.5 2430.654,-593.5 2328.654,-593.5"/>
<text text-anchor="start" x="2336.654" y="-611.5" font-family="Helvetica,sans-Serif" font-size="10.00" fill="#000000">odp/api/abi/traffic</text>
<text text-anchor="middle" x="2379.654" y="-600.5" font-family="Helvetica,sans-Serif" font-size="10.00" fill="#000000">_mngr.h</text>
</g>
<!-- Node57&#45;&gt;Node58 -->
<g id="edge107" class="edge">
<title>Node57&#45;&gt;Node58</title>
<path fill="none" stroke="#191970" d="M1809.2705,-668.0901C1913.7885,-664.1622 2132.2576,-652.9712 2314.654,-624 2315.9107,-623.8004 2317.1791,-623.5894 2318.4558,-623.3684"/>
<polygon fill="#191970" stroke="#191970" points="2319.1747,-626.7946 2328.352,-621.5005 2317.8763,-619.9161 2319.1747,-626.7946"/>
</g>
<!-- Node59 -->
<g id="node50" class="node">
<title>Node59</title>
<g id="a_node50"><a xlink:href="api_2spec_2traffic__mngr_8h.html" target="_top" xlink:title="odp/api/spec/traffic\l_mngr.h">
<polygon fill="#ffffff" stroke="#000000" points="1692.654,-593.5 1692.654,-623.5 1802.654,-623.5 1802.654,-593.5 1692.654,-593.5"/>
<text text-anchor="start" x="1700.654" y="-611.5" font-family="Helvetica,sans-Serif" font-size="10.00" fill="#000000">odp/api/spec/traffic</text>
<text text-anchor="middle" x="1747.654" y="-600.5" font-family="Helvetica,sans-Serif" font-size="10.00" fill="#000000">_mngr.h</text>
</a>
</g>
</g>
<!-- Node57&#45;&gt;Node59 -->
<g id="edge108" class="edge">
<title>Node57&#45;&gt;Node59</title>
<path fill="none" stroke="#191970" d="M1747.654,-660.3906C1747.654,-653.2234 1747.654,-643.0862 1747.654,-633.671"/>
<polygon fill="#191970" stroke="#191970" points="1751.1541,-633.5446 1747.654,-623.5446 1744.1541,-633.5446 1751.1541,-633.5446"/>
</g>
<!-- Node59&#45;&gt;Node1 -->
<g id="edge109" class="edge">
<title>Node59&#45;&gt;Node1</title>
<path fill="none" stroke="#191970" d="M1692.4292,-606.238C1443.3734,-595.7899 431.0931,-550.5929 298.654,-501 199.3924,-463.8307 160.654,-412.4925 160.654,-306.5 160.654,-306.5 160.654,-306.5 160.654,-122 160.654,-61.0781 348.8455,-29.8995 454.9673,-17.1608"/>
<polygon fill="#191970" stroke="#191970" points="455.4487,-20.6284 464.9719,-15.9853 454.6318,-13.6763 455.4487,-20.6284"/>
</g>
<!-- Node59&#45;&gt;Node3 -->
<g id="edge110" class="edge">
<title>Node59&#45;&gt;Node3</title>
<path fill="none" stroke="#191970" d="M1748.2902,-593.293C1749.1708,-570.8991 1750.654,-527.7307 1750.654,-491 1750.654,-491 1750.654,-491 1750.654,-435 1750.654,-396.0407 1682.6333,-313.2519 1650.654,-291 1628.7643,-275.7687 1564.7865,-260.8499 1515.0229,-251.0231"/>
<polygon fill="#191970" stroke="#191970" points="1515.4427,-247.5393 1504.9585,-249.0662 1514.1066,-254.4106 1515.4427,-247.5393"/>
</g>
<!-- Node59&#45;&gt;Node10 -->
<g id="edge112" class="edge">
<title>Node59&#45;&gt;Node10</title>
<path fill="none" stroke="#191970" d="M1802.8329,-593.8881C1804.4544,-593.5735 1806.064,-593.2763 1807.654,-593 1894.0578,-577.9834 2133.8444,-613.8119 2200.654,-557 2311.6806,-462.588 2282.654,-385.2414 2282.654,-239.5 2282.654,-239.5 2282.654,-239.5 2282.654,-122 2282.654,-81.7538 2256.942,-73.405 2220.654,-56 2174.3751,-33.803 1840.8529,-18.231 1696.7197,-12.4661"/>
<polygon fill="#191970" stroke="#191970" points="1696.8068,-8.9669 1686.676,-12.068 1696.5295,-15.9614 1696.8068,-8.9669"/>
</g>
<!-- Node59&#45;&gt;Node39 -->
<g id="edge111" class="edge">
<title>Node59&#45;&gt;Node39</title>
<path fill="none" stroke="#191970" d="M1692.5617,-603.8523C1560.7746,-592.7345 1227.7171,-564.637 1085.1144,-552.6067"/>
<polygon fill="#191970" stroke="#191970" points="1085.0313,-549.0874 1074.7725,-551.7343 1084.4428,-556.0626 1085.0313,-549.0874"/>
</g>
</g>
</svg>
