<?xml version="1.0" encoding="UTF-8" standalone="no"?>
<!DOCTYPE svg PUBLIC "-//W3C//DTD SVG 1.1//EN"
 "http://www.w3.org/Graphics/SVG/1.1/DTD/svg11.dtd">
<!-- Generated by graphviz version 2.40.1 (20161225.0304)
 -->
<!-- Title: classification.h Pages: 1 -->
<svg width="1894pt" height="867pt"
 viewBox="0.00 0.00 1893.89 867.00" xmlns="http://www.w3.org/2000/svg" xmlns:xlink="http://www.w3.org/1999/xlink">
<g id="graph0" class="graph" transform="scale(1 1) rotate(0) translate(4 863)">
<title>classification.h</title>
<polygon fill="#ffffff" stroke="transparent" points="-4,4 -4,-863 1889.8886,-863 1889.8886,4 -4,4"/>
<!-- Node0 -->
<g id="node1" class="node">
<title>Node0</title>
<polygon fill="#bfbfbf" stroke="#000000" points="91.3886,-839.5 91.3886,-858.5 180.3886,-858.5 180.3886,-839.5 91.3886,-839.5"/>
<text text-anchor="middle" x="135.8886" y="-846.5" font-family="Helvetica,sans-Serif" font-size="10.00" fill="#000000">classification.h</text>
</g>
<!-- Node1 -->
<g id="node2" class="node">
<title>Node1</title>
<g id="a_node2"><a xlink:href="api_2std__types_8h.html" target="_top" xlink:title="Standard C language types and definitions for ODP. ">
<polygon fill="#ffffff" stroke="#000000" points="603.8886,-235.5 603.8886,-254.5 715.8886,-254.5 715.8886,-235.5 603.8886,-235.5"/>
<text text-anchor="middle" x="659.8886" y="-242.5" font-family="Helvetica,sans-Serif" font-size="10.00" fill="#000000">odp/api/std_types.h</text>
</a>
</g>
</g>
<!-- Node0&#45;&gt;Node1 -->
<g id="edge1" class="edge">
<title>Node0&#45;&gt;Node1</title>
<path fill="none" stroke="#191970" d="M180.6904,-848.3179C370.1907,-845.2734 1106.6786,-831.7932 1336.8886,-803 1455.0426,-788.2221 1520.7523,-836.8526 1598.8886,-747 1692.9441,-638.8411 1690.7096,-547.8627 1616.8886,-425 1584.2231,-370.6338 1425.8968,-308.3411 1364.8886,-291 1304.5311,-273.8438 890.206,-254.7233 726.3626,-247.7407"/>
<polygon fill="#191970" stroke="#191970" points="726.0785,-244.2256 715.9391,-247.2985 725.7818,-251.2193 726.0785,-244.2256"/>
</g>
<!-- Node10 -->
<g id="node11" class="node">
<title>Node10</title>
<polygon fill="#ffffff" stroke="#bfbfbf" points="277.8886,-431 277.8886,-450 381.8886,-450 381.8886,-431 277.8886,-431"/>
<text text-anchor="middle" x="329.8886" y="-438" font-family="Helvetica,sans-Serif" font-size="10.00" fill="#000000">odp/api/abi/pool.h</text>
</g>
<!-- Node0&#45;&gt;Node10 -->
<g id="edge12" class="edge">
<title>Node0&#45;&gt;Node10</title>
<path fill="none" stroke="#191970" d="M117.7703,-839.4706C103.592,-831.2995 84.1244,-818.4211 70.8886,-803 31.7681,-757.4205 21.2388,-727.4047 41.8886,-671 84.5926,-554.3546 227.9123,-482.1461 294.8686,-453.9985"/>
<polygon fill="#191970" stroke="#191970" points="296.2597,-457.2109 304.1723,-450.1653 293.593,-450.7387 296.2597,-457.2109"/>
</g>
<!-- Node11 -->
<g id="node12" class="node">
<title>Node11</title>
<polygon fill="#ffffff" stroke="#bfbfbf" points="62.8886,-671.5 62.8886,-690.5 208.8886,-690.5 208.8886,-671.5 62.8886,-671.5"/>
<text text-anchor="middle" x="135.8886" y="-678.5" font-family="Helvetica,sans-Serif" font-size="10.00" fill="#000000">odp/api/abi/classification.h</text>
</g>
<!-- Node0&#45;&gt;Node11 -->
<g id="edge13" class="edge">
<title>Node0&#45;&gt;Node11</title>
<path fill="none" stroke="#191970" d="M135.8886,-839.4862C135.8886,-812.9293 135.8886,-737.5651 135.8886,-701.1655"/>
<polygon fill="#191970" stroke="#191970" points="139.3887,-700.8278 135.8886,-690.8279 132.3887,-700.8279 139.3887,-700.8278"/>
</g>
<!-- Node12 -->
<g id="node13" class="node">
<title>Node12</title>
<polygon fill="#ffffff" stroke="#bfbfbf" points="1500.3886,-425.5 1500.3886,-455.5 1607.3886,-455.5 1607.3886,-425.5 1500.3886,-425.5"/>
<text text-anchor="start" x="1508.3886" y="-443.5" font-family="Helvetica,sans-Serif" font-size="10.00" fill="#000000">odp/api/abi/packet</text>
<text text-anchor="middle" x="1553.8886" y="-432.5" font-family="Helvetica,sans-Serif" font-size="10.00" fill="#000000">_types.h</text>
</g>
<!-- Node0&#45;&gt;Node12 -->
<g id="edge14" class="edge">
<title>Node0&#45;&gt;Node12</title>
<path fill="none" stroke="#191970" d="M180.5665,-847.9519C424.9485,-841.933 1588.8886,-809.4623 1588.8886,-737 1588.8886,-737 1588.8886,-737 1588.8886,-563.5 1588.8886,-528.1808 1575.3731,-489.2602 1565.1396,-464.8528"/>
<polygon fill="#191970" stroke="#191970" points="1568.3325,-463.4182 1561.1406,-455.6383 1561.9111,-466.205 1568.3325,-463.4182"/>
</g>
<!-- Node13 -->
<g id="node14" class="node">
<title>Node13</title>
<polygon fill="#ffffff" stroke="#bfbfbf" points="154.8886,-554 154.8886,-573 284.8886,-573 284.8886,-554 154.8886,-554"/>
<text text-anchor="middle" x="219.8886" y="-561" font-family="Helvetica,sans-Serif" font-size="10.00" fill="#000000">odp/api/abi/packet_io.h</text>
</g>
<!-- Node0&#45;&gt;Node13 -->
<g id="edge15" class="edge">
<title>Node0&#45;&gt;Node13</title>
<path fill="none" stroke="#191970" d="M124.6532,-839.2068C94.1693,-811.4389 14.7428,-730.3661 53.8886,-671 76.2481,-637.0909 103.4967,-656.6097 137.8886,-635 162.6751,-619.4257 187.5042,-596.5029 203.2397,-580.8376"/>
<polygon fill="#191970" stroke="#191970" points="206.0605,-582.9619 210.591,-573.3845 201.0768,-578.0463 206.0605,-582.9619"/>
</g>
<!-- Node14 -->
<g id="node15" class="node">
<title>Node14</title>
<polygon fill="#ffffff" stroke="#bfbfbf" points="38.3886,-297 38.3886,-316 183.3886,-316 183.3886,-297 38.3886,-297"/>
<text text-anchor="middle" x="110.8886" y="-304" font-family="Helvetica,sans-Serif" font-size="10.00" fill="#000000">odp/api/abi/queue_types.h</text>
</g>
<!-- Node0&#45;&gt;Node14 -->
<g id="edge16" class="edge">
<title>Node0&#45;&gt;Node14</title>
<path fill="none" stroke="#191970" d="M108.2385,-839.3525C90.1833,-831.8507 67.2032,-819.8622 51.8886,-803 -.2387,-745.6049 12.727,-712.1363 4.8886,-635 .9795,-596.5314 -2.934,-585.8671 4.8886,-548 23.4956,-457.9287 49.2376,-441.9134 86.8886,-358 91.7438,-347.1792 97.3324,-335.1625 101.8945,-325.4602"/>
<polygon fill="#191970" stroke="#191970" points="105.0987,-326.8715 106.2034,-316.3344 98.7688,-323.8827 105.0987,-326.8715"/>
</g>
<!-- Node15 -->
<g id="node16" class="node">
<title>Node15</title>
<g id="a_node16"><a xlink:href="api_2spec_2classification_8h.html" target="_top" xlink:title="ODP classification descriptor. ">
<polygon fill="#ffffff" stroke="#000000" points="1654.8886,-783.5 1654.8886,-802.5 1808.8886,-802.5 1808.8886,-783.5 1654.8886,-783.5"/>
<text text-anchor="middle" x="1731.8886" y="-790.5" font-family="Helvetica,sans-Serif" font-size="10.00" fill="#000000">odp/api/spec/classification.h</text>
</a>
</g>
</g>
<!-- Node0&#45;&gt;Node15 -->
<g id="edge17" class="edge">
<title>Node0&#45;&gt;Node15</title>
<path fill="none" stroke="#191970" d="M180.5477,-848.1114C397.8444,-843.7151 1346.0595,-823.6727 1640.8886,-803 1641.9984,-802.9222 1643.1156,-802.8411 1644.2389,-802.7571"/>
<polygon fill="#191970" stroke="#191970" points="1644.796,-806.2235 1654.4803,-801.9266 1644.2301,-799.2464 1644.796,-806.2235"/>
</g>
<!-- Node2 -->
<g id="node3" class="node">
<title>Node2</title>
<polygon fill="#ffffff" stroke="#bfbfbf" points="536.8886,-174 536.8886,-193 666.8886,-193 666.8886,-174 536.8886,-174"/>
<text text-anchor="middle" x="601.8886" y="-181" font-family="Helvetica,sans-Serif" font-size="10.00" fill="#000000">odp/api/abi/std_types.h</text>
</g>
<!-- Node1&#45;&gt;Node2 -->
<g id="edge2" class="edge">
<title>Node1&#45;&gt;Node2</title>
<path fill="none" stroke="#191970" d="M650.8261,-235.3906C642.1093,-226.1478 628.7346,-211.966 618.169,-200.7628"/>
<polygon fill="#191970" stroke="#191970" points="620.4862,-198.1186 611.0789,-193.2449 615.3936,-202.9213 620.4862,-198.1186"/>
</g>
<!-- Node3 -->
<g id="node4" class="node">
<title>Node3</title>
<g id="a_node4"><a xlink:href="api_2spec_2std__types_8h.html" target="_top" xlink:title="Standard C language types and definitions for ODP. ">
<polygon fill="#ffffff" stroke="#000000" points="935.3886,-174 935.3886,-193 1072.3886,-193 1072.3886,-174 935.3886,-174"/>
<text text-anchor="middle" x="1003.8886" y="-181" font-family="Helvetica,sans-Serif" font-size="10.00" fill="#000000">odp/api/spec/std_types.h</text>
</a>
</g>
</g>
<!-- Node1&#45;&gt;Node3 -->
<g id="edge3" class="edge">
<title>Node1&#45;&gt;Node3</title>
<path fill="none" stroke="#191970" d="M713.2611,-235.4581C774.6145,-224.4894 875.2313,-206.5012 940.5116,-194.8305"/>
<polygon fill="#191970" stroke="#191970" points="941.4459,-198.219 950.6739,-193.0137 940.2139,-191.3283 941.4459,-198.219"/>
</g>
<!-- Node4 -->
<g id="node5" class="node">
<title>Node4</title>
<g id="a_node5"><a xlink:href="visibility__begin_8h_source.html" target="_top" xlink:title="odp/visibility_begin.h">
<polygon fill="#ffffff" stroke="#000000" points="1414.3886,-.5 1414.3886,-19.5 1535.3886,-19.5 1535.3886,-.5 1414.3886,-.5"/>
<text text-anchor="middle" x="1474.8886" y="-7.5" font-family="Helvetica,sans-Serif" font-size="10.00" fill="#000000">odp/visibility_begin.h</text>
</a>
</g>
</g>
<!-- Node3&#45;&gt;Node4 -->
<g id="edge4" class="edge">
<title>Node3&#45;&gt;Node4</title>
<path fill="none" stroke="#191970" d="M1006.1522,-173.7657C1012.4162,-149.2383 1032.4631,-84.8097 1075.8886,-56 1102.5909,-38.2849 1296.6678,-22.2931 1403.9857,-14.6836"/>
<polygon fill="#191970" stroke="#191970" points="1404.3618,-18.1659 1414.0919,-13.9736 1403.8712,-11.1831 1404.3618,-18.1659"/>
</g>
<!-- Node5 -->
<g id="node6" class="node">
<title>Node5</title>
<polygon fill="#ffffff" stroke="#bfbfbf" points="726.3886,-112.5 726.3886,-131.5 779.3886,-131.5 779.3886,-112.5 726.3886,-112.5"/>
<text text-anchor="middle" x="752.8886" y="-119.5" font-family="Helvetica,sans-Serif" font-size="10.00" fill="#000000">stdint.h</text>
</g>
<!-- Node3&#45;&gt;Node5 -->
<g id="edge5" class="edge">
<title>Node3&#45;&gt;Node5</title>
<path fill="none" stroke="#191970" d="M964.9452,-173.9581C916.9667,-162.2024 836.0811,-142.3838 789.2973,-130.9209"/>
<polygon fill="#191970" stroke="#191970" points="790.122,-127.5195 779.5763,-128.539 788.4561,-134.3184 790.122,-127.5195"/>
</g>
<!-- Node6 -->
<g id="node7" class="node">
<title>Node6</title>
<g id="a_node7"><a xlink:href="api_2align_8h.html" target="_top" xlink:title="ODP alignments. ">
<polygon fill="#ffffff" stroke="#000000" points="902.3886,-112.5 902.3886,-131.5 991.3886,-131.5 991.3886,-112.5 902.3886,-112.5"/>
<text text-anchor="middle" x="946.8886" y="-119.5" font-family="Helvetica,sans-Serif" font-size="10.00" fill="#000000">odp/api/align.h</text>
</a>
</g>
</g>
<!-- Node3&#45;&gt;Node6 -->
<g id="edge6" class="edge">
<title>Node3&#45;&gt;Node6</title>
<path fill="none" stroke="#191970" d="M994.9823,-173.8906C986.4158,-164.6478 973.2717,-150.466 962.8883,-139.2628"/>
<polygon fill="#191970" stroke="#191970" points="965.2851,-136.7 955.9204,-131.7449 960.1511,-141.4584 965.2851,-136.7"/>
</g>
<!-- Node9 -->
<g id="node10" class="node">
<title>Node9</title>
<g id="a_node10"><a xlink:href="visibility__end_8h_source.html" target="_top" xlink:title="odp/visibility_end.h">
<polygon fill="#ffffff" stroke="#000000" points="546.8886,-.5 546.8886,-19.5 658.8886,-19.5 658.8886,-.5 546.8886,-.5"/>
<text text-anchor="middle" x="602.8886" y="-7.5" font-family="Helvetica,sans-Serif" font-size="10.00" fill="#000000">odp/visibility_end.h</text>
</a>
</g>
</g>
<!-- Node3&#45;&gt;Node9 -->
<g id="edge11" class="edge">
<title>Node3&#45;&gt;Node9</title>
<path fill="none" stroke="#191970" d="M953.4273,-173.9935C942.6905,-171.994 931.4173,-169.9121 920.8886,-168 830.3026,-151.5492 792.0715,-185.1411 716.8886,-132 685.1966,-109.5993 700.4954,-84.2533 673.8886,-56 661.9439,-43.3162 645.8239,-32.5101 631.9629,-24.5649"/>
<polygon fill="#191970" stroke="#191970" points="633.2563,-21.2821 622.8068,-19.5336 629.8852,-27.4169 633.2563,-21.2821"/>
</g>
<!-- Node7 -->
<g id="node8" class="node">
<title>Node7</title>
<polygon fill="#ffffff" stroke="#bfbfbf" points="764.3886,-56.5 764.3886,-75.5 871.3886,-75.5 871.3886,-56.5 764.3886,-56.5"/>
<text text-anchor="middle" x="817.8886" y="-63.5" font-family="Helvetica,sans-Serif" font-size="10.00" fill="#000000">odp/api/abi/align.h</text>
</g>
<!-- Node6&#45;&gt;Node7 -->
<g id="edge7" class="edge">
<title>Node6&#45;&gt;Node7</title>
<path fill="none" stroke="#191970" d="M924.7127,-112.3733C903.912,-103.3435 872.5969,-89.7494 849.2428,-79.6111"/>
<polygon fill="#191970" stroke="#191970" points="850.3418,-76.2727 839.7751,-75.5011 847.5543,-82.6938 850.3418,-76.2727"/>
</g>
<!-- Node8 -->
<g id="node9" class="node">
<title>Node8</title>
<g id="a_node9"><a xlink:href="api_2spec_2align_8h.html" target="_top" xlink:title="ODP alignments. ">
<polygon fill="#ffffff" stroke="#000000" points="889.8886,-56.5 889.8886,-75.5 1003.8886,-75.5 1003.8886,-56.5 889.8886,-56.5"/>
<text text-anchor="middle" x="946.8886" y="-63.5" font-family="Helvetica,sans-Serif" font-size="10.00" fill="#000000">odp/api/spec/align.h</text>
</a>
</g>
</g>
<!-- Node6&#45;&gt;Node8 -->
<g id="edge8" class="edge">
<title>Node6&#45;&gt;Node8</title>
<path fill="none" stroke="#191970" d="M946.8886,-112.2455C946.8886,-104.9382 946.8886,-94.6944 946.8886,-85.7046"/>
<polygon fill="#191970" stroke="#191970" points="950.3887,-85.6426 946.8886,-75.6427 943.3887,-85.6427 950.3887,-85.6426"/>
</g>
<!-- Node8&#45;&gt;Node4 -->
<g id="edge9" class="edge">
<title>Node8&#45;&gt;Node4</title>
<path fill="none" stroke="#191970" d="M1004.2142,-57.7274C1008.8378,-57.1207 1013.4396,-56.537 1017.8886,-56 1154.3381,-39.5302 1314.2079,-24.3861 1404.1099,-16.2483"/>
<polygon fill="#191970" stroke="#191970" points="1404.5422,-19.7236 1414.1871,-15.339 1403.913,-12.752 1404.5422,-19.7236"/>
</g>
<!-- Node8&#45;&gt;Node9 -->
<g id="edge10" class="edge">
<title>Node8&#45;&gt;Node9</title>
<path fill="none" stroke="#191970" d="M889.6978,-56.6899C828.946,-46.8 733.0259,-31.1851 669.0553,-20.7713"/>
<polygon fill="#191970" stroke="#191970" points="669.5054,-17.2986 659.073,-19.1463 668.3806,-24.2077 669.5054,-17.2986"/>
</g>
<!-- Node15&#45;&gt;Node4 -->
<g id="edge18" class="edge">
<title>Node15&#45;&gt;Node4</title>
<path fill="none" stroke="#191970" d="M1769.5612,-783.4724C1815.1527,-769.413 1885.8886,-738.3576 1885.8886,-681 1885.8886,-681 1885.8886,-681 1885.8886,-122 1885.8886,-84.6561 1866.3802,-74.4083 1833.8886,-56 1786.0497,-28.8966 1635.8464,-17.3527 1545.5908,-12.761"/>
<polygon fill="#191970" stroke="#191970" points="1545.5921,-9.2569 1535.432,-12.2606 1545.2477,-16.2484 1545.5921,-9.2569"/>
</g>
<!-- Node15&#45;&gt;Node9 -->
<g id="edge107" class="edge">
<title>Node15&#45;&gt;Node9</title>
<path fill="none" stroke="#191970" d="M1654.6788,-791.5961C1372.2066,-786.3197 404.2896,-766.9574 266.8886,-747 170.0213,-732.9301 117.9757,-764.987 53.8886,-691 -2.4193,-625.994 9.8886,-392.5021 9.8886,-306.5 9.8886,-306.5 9.8886,-306.5 9.8886,-122 9.8886,-68.9025 381.7283,-29.6676 536.5149,-15.6354"/>
<polygon fill="#191970" stroke="#191970" points="537.1869,-19.0892 546.8335,-14.7082 536.5604,-12.1173 537.1869,-19.0892"/>
</g>
<!-- Node16 -->
<g id="node17" class="node">
<title>Node16</title>
<g id="a_node17"><a xlink:href="api_2packet__io_8h.html" target="_top" xlink:title="ODP Packet IO. ">
<polygon fill="#ffffff" stroke="#000000" points="275.8886,-727.5 275.8886,-746.5 387.8886,-746.5 387.8886,-727.5 275.8886,-727.5"/>
<text text-anchor="middle" x="331.8886" y="-734.5" font-family="Helvetica,sans-Serif" font-size="10.00" fill="#000000">odp/api/packet_io.h</text>
</a>
</g>
</g>
<!-- Node15&#45;&gt;Node16 -->
<g id="edge19" class="edge">
<title>Node15&#45;&gt;Node16</title>
<path fill="none" stroke="#191970" d="M1654.6243,-789.9094C1406.2202,-779.9733 630.7737,-748.9554 398.3683,-739.6592"/>
<polygon fill="#191970" stroke="#191970" points="398.1732,-736.1487 388.0412,-739.2461 397.8933,-743.1431 398.1732,-736.1487"/>
</g>
<!-- Node45 -->
<g id="node34" class="node">
<title>Node45</title>
<g id="a_node34"><a xlink:href="support_8h.html" target="_top" xlink:title="ODP support API &#45; platform specific header. ">
<polygon fill="#ffffff" stroke="#000000" points="1111.3886,-112.5 1111.3886,-131.5 1212.3886,-131.5 1212.3886,-112.5 1111.3886,-112.5"/>
<text text-anchor="middle" x="1161.8886" y="-119.5" font-family="Helvetica,sans-Serif" font-size="10.00" fill="#000000">odp/api/support.h</text>
</a>
</g>
</g>
<!-- Node15&#45;&gt;Node45 -->
<g id="edge101" class="edge">
<title>Node15&#45;&gt;Node45</title>
<path fill="none" stroke="#191970" d="M1743.0775,-783.4952C1752.5605,-774.8718 1765.8622,-761.3447 1773.8886,-747 1788.7937,-720.3618 1792.8886,-711.5246 1792.8886,-681 1792.8886,-681 1792.8886,-681 1792.8886,-440.5 1792.8886,-186.5383 1380.5009,-135.0386 1222.4921,-124.6271"/>
<polygon fill="#191970" stroke="#191970" points="1222.6585,-121.1308 1212.4593,-123.9991 1222.2211,-128.1171 1222.6585,-121.1308"/>
</g>
<!-- Node49 -->
<g id="node49" class="node">
<title>Node49</title>
<g id="a_node49"><a xlink:href="threshold_8h.html" target="_top" xlink:title="ODP threshold API &#45; platform specific header. ">
<polygon fill="#ffffff" stroke="#000000" points="1654.8886,-727.5 1654.8886,-746.5 1764.8886,-746.5 1764.8886,-727.5 1654.8886,-727.5"/>
<text text-anchor="middle" x="1709.8886" y="-734.5" font-family="Helvetica,sans-Serif" font-size="10.00" fill="#000000">odp/api/threshold.h</text>
</a>
</g>
</g>
<!-- Node15&#45;&gt;Node49 -->
<g id="edge102" class="edge">
<title>Node15&#45;&gt;Node49</title>
<path fill="none" stroke="#191970" d="M1728.0565,-783.2455C1725.1226,-775.7776 1720.9839,-765.2427 1717.3975,-756.1137"/>
<polygon fill="#191970" stroke="#191970" points="1720.591,-754.6704 1713.6768,-746.6427 1714.0757,-757.23 1720.591,-754.6704"/>
</g>
<!-- Node16&#45;&gt;Node1 -->
<g id="edge20" class="edge">
<title>Node16&#45;&gt;Node1</title>
<path fill="none" stroke="#191970" d="M331.1768,-727.2072C328.8389,-698.6331 319.9885,-613.2595 293.8886,-548 271.4448,-491.8821 209.6673,-479.4553 235.8886,-425 277.3246,-338.9475 316.8974,-330.4272 403.8886,-291 436.9266,-276.0261 529.3187,-261.73 593.5571,-253.1582"/>
<polygon fill="#191970" stroke="#191970" points="594.1552,-256.6097 603.6118,-251.8324 593.24,-249.6698 594.1552,-256.6097"/>
</g>
<!-- Node16&#45;&gt;Node10 -->
<g id="edge21" class="edge">
<title>Node16&#45;&gt;Node10</title>
<path fill="none" stroke="#191970" d="M334.6921,-727.2066C339.9773,-707.8521 350.8886,-663.2612 350.8886,-625 350.8886,-625 350.8886,-625 350.8886,-563.5 350.8886,-526.4915 341.5367,-484.1015 335.3145,-459.9932"/>
<polygon fill="#191970" stroke="#191970" points="338.6841,-459.0452 332.7207,-450.2879 331.9214,-460.8526 338.6841,-459.0452"/>
</g>
<!-- Node16&#45;&gt;Node11 -->
<g id="edge22" class="edge">
<title>Node16&#45;&gt;Node11</title>
<path fill="none" stroke="#191970" d="M298.195,-727.3733C265.1799,-717.9404 214.7313,-703.5265 178.85,-693.2747"/>
<polygon fill="#191970" stroke="#191970" points="179.7193,-689.8831 169.1425,-690.5011 177.7962,-696.6137 179.7193,-689.8831"/>
</g>
<!-- Node16&#45;&gt;Node12 -->
<g id="edge23" class="edge">
<title>Node16&#45;&gt;Node12</title>
<path fill="none" stroke="#191970" d="M388.2387,-734.8174C627.9789,-725.1671 1550.8886,-684.1745 1550.8886,-625 1550.8886,-625 1550.8886,-625 1550.8886,-563.5 1550.8886,-529.6352 1552.0392,-490.5414 1552.9152,-465.6832"/>
<polygon fill="#191970" stroke="#191970" points="1556.4144,-465.7668 1553.2815,-455.6457 1549.4191,-465.5114 1556.4144,-465.7668"/>
</g>
<!-- Node16&#45;&gt;Node13 -->
<g id="edge24" class="edge">
<title>Node16&#45;&gt;Node13</title>
<path fill="none" stroke="#191970" d="M324.6125,-727.2645C317.7923,-718.045 307.4,-703.7532 298.8886,-691 273.4934,-652.9489 245.749,-607.0783 230.8392,-582.0402"/>
<polygon fill="#191970" stroke="#191970" points="233.7289,-580.0512 225.6157,-573.2375 227.7089,-583.6235 233.7289,-580.0512"/>
</g>
<!-- Node16&#45;&gt;Node14 -->
<g id="edge25" class="edge">
<title>Node16&#45;&gt;Node14</title>
<path fill="none" stroke="#191970" d="M315.3658,-727.4609C260.2096,-695.3547 85.8886,-591.6561 85.8886,-563.5 85.8886,-563.5 85.8886,-563.5 85.8886,-440.5 85.8886,-399.0857 97.5711,-351.6743 104.9639,-325.8178"/>
<polygon fill="#191970" stroke="#191970" points="108.3474,-326.7184 107.8231,-316.1365 101.634,-324.7357 108.3474,-326.7184"/>
</g>
<!-- Node17 -->
<g id="node18" class="node">
<title>Node17</title>
<g id="a_node18"><a xlink:href="api_2spec_2packet__io_8h.html" target="_top" xlink:title="ODP Packet IO. ">
<polygon fill="#ffffff" stroke="#000000" points="612.3886,-671.5 612.3886,-690.5 749.3886,-690.5 749.3886,-671.5 612.3886,-671.5"/>
<text text-anchor="middle" x="680.8886" y="-678.5" font-family="Helvetica,sans-Serif" font-size="10.00" fill="#000000">odp/api/spec/packet_io.h</text>
</a>
</g>
</g>
<!-- Node16&#45;&gt;Node17 -->
<g id="edge26" class="edge">
<title>Node16&#45;&gt;Node17</title>
<path fill="none" stroke="#191970" d="M387.9615,-728.0026C448.684,-718.2592 545.6319,-702.7031 611.2062,-692.1811"/>
<polygon fill="#191970" stroke="#191970" points="612.1316,-695.5775 621.4507,-690.5373 611.0225,-688.6659 612.1316,-695.5775"/>
</g>
<!-- Node17&#45;&gt;Node4 -->
<g id="edge27" class="edge">
<title>Node17&#45;&gt;Node4</title>
<path fill="none" stroke="#191970" d="M749.5581,-679.978C939.1927,-676.779 1460.8162,-665.3011 1531.8886,-635 1737.1058,-547.5073 1847.8886,-468.0899 1847.8886,-245 1847.8886,-245 1847.8886,-245 1847.8886,-122 1847.8886,-87.6999 1836.5492,-74.8432 1807.8886,-56 1766.0065,-28.4643 1630.4119,-17.1706 1545.716,-12.7198"/>
<polygon fill="#191970" stroke="#191970" points="1545.8134,-9.2203 1535.6492,-12.2103 1545.4595,-16.2113 1545.8134,-9.2203"/>
</g>
<!-- Node17&#45;&gt;Node9 -->
<g id="edge100" class="edge">
<title>Node17&#45;&gt;Node9</title>
<path fill="none" stroke="#191970" d="M651.6447,-671.4823C626.9462,-663.0471 590.9068,-649.7976 560.8886,-635 398.9094,-555.1517 249.8886,-554.0907 249.8886,-373.5 249.8886,-373.5 249.8886,-373.5 249.8886,-122 249.8886,-84.3794 270.3003,-74.7966 302.8886,-56 341.5231,-33.7159 460.2484,-20.7885 536.2452,-14.5876"/>
<polygon fill="#191970" stroke="#191970" points="536.9818,-18.0401 546.6723,-13.757 536.4259,-11.0622 536.9818,-18.0401"/>
</g>
<!-- Node18 -->
<g id="node19" class="node">
<title>Node18</title>
<g id="a_node19"><a xlink:href="deprecated_8h.html" target="_top" xlink:title="Control deprecated API definitions. ">
<polygon fill="#ffffff" stroke="#000000" points="1353.3886,-235.5 1353.3886,-254.5 1472.3886,-254.5 1472.3886,-235.5 1353.3886,-235.5"/>
<text text-anchor="middle" x="1412.8886" y="-242.5" font-family="Helvetica,sans-Serif" font-size="10.00" fill="#000000">odp/api/deprecated.h</text>
</a>
</g>
</g>
<!-- Node17&#45;&gt;Node18 -->
<g id="edge28" class="edge">
<title>Node17&#45;&gt;Node18</title>
<path fill="none" stroke="#191970" d="M749.6422,-676.473C929.2236,-664.0206 1402.0212,-626.9719 1452.8886,-579 1478.5323,-554.816 1471.8886,-537.2487 1471.8886,-502 1471.8886,-502 1471.8886,-502 1471.8886,-440.5 1471.8886,-373.3499 1439.5917,-298.5466 1422.7888,-264.1731"/>
<polygon fill="#191970" stroke="#191970" points="1425.731,-262.2317 1418.1244,-254.8567 1419.4717,-265.3655 1425.731,-262.2317"/>
</g>
<!-- Node20 -->
<g id="node21" class="node">
<title>Node20</title>
<g id="a_node21"><a xlink:href="packet__io__stats_8h.html" target="_top" xlink:title="ODP packet IO stats. ">
<polygon fill="#ffffff" stroke="#000000" points="1000.3886,-615.5 1000.3886,-634.5 1141.3886,-634.5 1141.3886,-615.5 1000.3886,-615.5"/>
<text text-anchor="middle" x="1070.8886" y="-622.5" font-family="Helvetica,sans-Serif" font-size="10.00" fill="#000000">odp/api/packet_io_stats.h</text>
</a>
</g>
</g>
<!-- Node17&#45;&gt;Node20 -->
<g id="edge32" class="edge">
<title>Node17&#45;&gt;Node20</title>
<path fill="none" stroke="#191970" d="M747.4888,-671.4369C816.0572,-661.5912 922.755,-646.2705 994.656,-635.9462"/>
<polygon fill="#191970" stroke="#191970" points="995.162,-639.4095 1004.563,-634.5237 994.167,-632.4806 995.162,-639.4095"/>
</g>
<!-- Node40 -->
<g id="node29" class="node">
<title>Node40</title>
<g id="a_node29"><a xlink:href="api_2queue__types_8h.html" target="_top" xlink:title="ODP queue. ">
<polygon fill="#ffffff" stroke="#000000" points="780.3886,-364 780.3886,-383 907.3886,-383 907.3886,-364 780.3886,-364"/>
<text text-anchor="middle" x="843.8886" y="-371" font-family="Helvetica,sans-Serif" font-size="10.00" fill="#000000">odp/api/queue_types.h</text>
</a>
</g>
</g>
<!-- Node17&#45;&gt;Node40 -->
<g id="edge64" class="edge">
<title>Node17&#45;&gt;Node40</title>
<path fill="none" stroke="#191970" d="M660.7648,-671.451C622.8122,-651.9423 546.0806,-604.5466 564.8886,-548 586.4342,-483.2225 600.4943,-463.4712 656.8886,-425 677.8806,-410.6796 739.117,-395.3445 785.8491,-385.1685"/>
<polygon fill="#191970" stroke="#191970" points="786.838,-388.536 795.8802,-383.0142 785.3682,-381.692 786.838,-388.536"/>
</g>
<!-- Node47 -->
<g id="node36" class="node">
<title>Node47</title>
<g id="a_node36"><a xlink:href="reassembly_8h.html" target="_top" xlink:title="ODP REASSEMBLY API &#45; platform specific header. ">
<polygon fill="#ffffff" stroke="#000000" points="1402.8886,-615.5 1402.8886,-634.5 1522.8886,-634.5 1522.8886,-615.5 1402.8886,-615.5"/>
<text text-anchor="middle" x="1462.8886" y="-622.5" font-family="Helvetica,sans-Serif" font-size="10.00" fill="#000000">odp/api/reassembly.h</text>
</a>
</g>
</g>
<!-- Node17&#45;&gt;Node47 -->
<g id="edge65" class="edge">
<title>Node17&#45;&gt;Node47</title>
<path fill="none" stroke="#191970" d="M749.8626,-678.1116C876.6274,-672.449 1155.0952,-658.3634 1388.8886,-635 1390.1584,-634.8731 1391.44,-634.7412 1392.7305,-634.6048"/>
<polygon fill="#191970" stroke="#191970" points="1393.2062,-638.0735 1402.7543,-633.4816 1392.4267,-631.117 1393.2062,-638.0735"/>
</g>
<!-- Node35 -->
<g id="node38" class="node">
<title>Node35</title>
<g id="a_node38"><a xlink:href="api_2time_8h.html" target="_top" xlink:title="ODP time. ">
<polygon fill="#ffffff" stroke="#000000" points="413.3886,-297 413.3886,-316 500.3886,-316 500.3886,-297 413.3886,-297"/>
<text text-anchor="middle" x="456.8886" y="-304" font-family="Helvetica,sans-Serif" font-size="10.00" fill="#000000">odp/api/time.h</text>
</a>
</g>
</g>
<!-- Node17&#45;&gt;Node35 -->
<g id="edge69" class="edge">
<title>Node17&#45;&gt;Node35</title>
<path fill="none" stroke="#191970" d="M643.9739,-671.4999C623.0778,-664.4598 597.8179,-652.9194 580.8886,-635 493.3551,-542.3474 466.0888,-381.8976 459.0358,-326.2117"/>
<polygon fill="#191970" stroke="#191970" points="462.5078,-325.768 457.8528,-316.2506 455.5566,-326.5936 462.5078,-325.768"/>
</g>
<!-- Node29 -->
<g id="node41" class="node">
<title>Node29</title>
<g id="a_node41"><a xlink:href="api_2packet_8h.html" target="_top" xlink:title="ODP packet descriptor. ">
<polygon fill="#ffffff" stroke="#000000" points="631.8886,-615.5 631.8886,-634.5 729.8886,-634.5 729.8886,-615.5 631.8886,-615.5"/>
<text text-anchor="middle" x="680.8886" y="-622.5" font-family="Helvetica,sans-Serif" font-size="10.00" fill="#000000">odp/api/packet.h</text>
</a>
</g>
</g>
<!-- Node17&#45;&gt;Node29 -->
<g id="edge75" class="edge">
<title>Node17&#45;&gt;Node29</title>
<path fill="none" stroke="#191970" d="M680.8886,-671.2455C680.8886,-663.9382 680.8886,-653.6944 680.8886,-644.7046"/>
<polygon fill="#191970" stroke="#191970" points="684.3887,-644.6426 680.8886,-634.6427 677.3887,-644.6427 684.3887,-644.6426"/>
</g>
<!-- Node19 -->
<g id="node20" class="node">
<title>Node19</title>
<g id="a_node20"><a xlink:href="spec_2deprecated_8h.html" target="_top" xlink:title="Macro for deprecated API definitions. ">
<polygon fill="#ffffff" stroke="#000000" points="1320.3886,-56.5 1320.3886,-75.5 1465.3886,-75.5 1465.3886,-56.5 1320.3886,-56.5"/>
<text text-anchor="middle" x="1392.8886" y="-63.5" font-family="Helvetica,sans-Serif" font-size="10.00" fill="#000000">odp/api/spec/deprecated.h</text>
</a>
</g>
</g>
<!-- Node18&#45;&gt;Node19 -->
<g id="edge29" class="edge">
<title>Node18&#45;&gt;Node19</title>
<path fill="none" stroke="#191970" d="M1411.8133,-235.3762C1408.6662,-207.2097 1399.4263,-124.5126 1395.1312,-86.0713"/>
<polygon fill="#191970" stroke="#191970" points="1398.558,-85.2209 1393.9692,-75.6714 1391.6013,-85.9982 1398.558,-85.2209"/>
</g>
<!-- Node19&#45;&gt;Node4 -->
<g id="edge30" class="edge">
<title>Node19&#45;&gt;Node4</title>
<path fill="none" stroke="#191970" d="M1407.1719,-56.2455C1419.6356,-47.7337 1437.9337,-35.2375 1452.3677,-25.3801"/>
<polygon fill="#191970" stroke="#191970" points="1454.4848,-28.1726 1460.769,-19.6427 1450.537,-22.392 1454.4848,-28.1726"/>
</g>
<!-- Node19&#45;&gt;Node9 -->
<g id="edge31" class="edge">
<title>Node19&#45;&gt;Node9</title>
<path fill="none" stroke="#191970" d="M1320.3355,-60.857C1167.8905,-50.0508 816.2905,-25.1272 669.3353,-14.7101"/>
<polygon fill="#191970" stroke="#191970" points="669.3363,-11.2015 659.1138,-13.9856 668.8412,-18.184 669.3363,-11.2015"/>
</g>
<!-- Node21 -->
<g id="node22" class="node">
<title>Node21</title>
<g id="a_node22"><a xlink:href="spec_2packet__io__stats_8h.html" target="_top" xlink:title="ODP Packet IO statistics. ">
<polygon fill="#ffffff" stroke="#000000" points="1329.8886,-548.5 1329.8886,-578.5 1443.8886,-578.5 1443.8886,-548.5 1329.8886,-548.5"/>
<text text-anchor="start" x="1337.8886" y="-566.5" font-family="Helvetica,sans-Serif" font-size="10.00" fill="#000000">odp/api/spec/packet</text>
<text text-anchor="middle" x="1386.8886" y="-555.5" font-family="Helvetica,sans-Serif" font-size="10.00" fill="#000000">_io_stats.h</text>
</a>
</g>
</g>
<!-- Node20&#45;&gt;Node21 -->
<g id="edge33" class="edge">
<title>Node20&#45;&gt;Node21</title>
<path fill="none" stroke="#191970" d="M1124.0253,-615.4878C1173.7103,-606.4834 1249.9364,-592.3874 1315.8886,-579 1317.1405,-578.7459 1318.4044,-578.4876 1319.6775,-578.2259"/>
<polygon fill="#191970" stroke="#191970" points="1320.4923,-581.6314 1329.5679,-576.1648 1319.0641,-574.7786 1320.4923,-581.6314"/>
</g>
<!-- Node21&#45;&gt;Node4 -->
<g id="edge34" class="edge">
<title>Node21&#45;&gt;Node4</title>
<path fill="none" stroke="#191970" d="M1393.8699,-548.0829C1407.9207,-518.9393 1442.5404,-455.9221 1491.8886,-425 1561.0219,-381.6804 1601.5645,-430.3584 1671.8886,-389 1766.7204,-333.2283 1809.8886,-293.5162 1809.8886,-183.5 1809.8886,-183.5 1809.8886,-183.5 1809.8886,-122 1809.8886,-90.7875 1810.0713,-75.7337 1785.8886,-56 1750.1004,-26.796 1625.6824,-16.1009 1545.4791,-12.2061"/>
<polygon fill="#191970" stroke="#191970" points="1545.592,-8.7076 1535.4412,-11.7427 1545.2692,-15.7002 1545.592,-8.7076"/>
</g>
<!-- Node21&#45;&gt;Node9 -->
<g id="edge63" class="edge">
<title>Node21&#45;&gt;Node9</title>
<path fill="none" stroke="#191970" d="M1329.6816,-557.6883C1247.9268,-549.1284 1093.0464,-531.9683 961.8886,-512 652.0427,-464.827 337.8886,-496.9163 337.8886,-183.5 337.8886,-183.5 337.8886,-183.5 337.8886,-122 337.8886,-83.5305 360.9308,-75.8416 393.8886,-56 417.6119,-41.7178 484.5685,-28.4719 536.3678,-19.8978"/>
<polygon fill="#191970" stroke="#191970" points="537.2009,-23.3083 546.5083,-18.2463 536.0757,-16.3993 537.2009,-23.3083"/>
</g>
<!-- Node21&#45;&gt;Node18 -->
<g id="edge35" class="edge">
<title>Node21&#45;&gt;Node18</title>
<path fill="none" stroke="#191970" d="M1388.1426,-548.1381C1392.422,-495.7155 1406.4501,-323.8719 1411.2561,-264.9985"/>
<polygon fill="#191970" stroke="#191970" points="1414.7634,-265.0506 1412.0887,-254.799 1407.7866,-264.481 1414.7634,-265.0506"/>
</g>
<!-- Node22 -->
<g id="node23" class="node">
<title>Node22</title>
<g id="a_node23"><a xlink:href="api_2queue_8h.html" target="_top" xlink:title="ODP queue. ">
<polygon fill="#ffffff" stroke="#000000" points="970.3886,-492.5 970.3886,-511.5 1065.3886,-511.5 1065.3886,-492.5 970.3886,-492.5"/>
<text text-anchor="middle" x="1017.8886" y="-499.5" font-family="Helvetica,sans-Serif" font-size="10.00" fill="#000000">odp/api/queue.h</text>
</a>
</g>
</g>
<!-- Node21&#45;&gt;Node22 -->
<g id="edge36" class="edge">
<title>Node21&#45;&gt;Node22</title>
<path fill="none" stroke="#191970" d="M1329.6372,-553.9581C1260.4671,-542.4298 1144.7726,-523.1473 1075.4596,-511.5952"/>
<polygon fill="#191970" stroke="#191970" points="1076.02,-508.1404 1065.5807,-509.9487 1074.8692,-515.0451 1076.02,-508.1404"/>
</g>
<!-- Node22&#45;&gt;Node1 -->
<g id="edge37" class="edge">
<title>Node22&#45;&gt;Node1</title>
<path fill="none" stroke="#191970" d="M1012.3155,-492.2749C990.4857,-454.505 909.9797,-318.2928 868.8886,-291 856.6265,-282.8555 779.4456,-267.1652 722.4252,-256.3935"/>
<polygon fill="#191970" stroke="#191970" points="722.8651,-252.915 712.3909,-254.5092 721.5731,-259.7948 722.8651,-252.915"/>
</g>
<!-- Node22&#45;&gt;Node10 -->
<g id="edge42" class="edge">
<title>Node22&#45;&gt;Node10</title>
<path fill="none" stroke="#191970" d="M970.3281,-497.7486C849.0841,-486.9106 528.4366,-458.2481 392.3648,-446.0847"/>
<polygon fill="#191970" stroke="#191970" points="392.3845,-442.5726 382.1126,-445.1683 391.7612,-449.5448 392.3845,-442.5726"/>
</g>
<!-- Node22&#45;&gt;Node14 -->
<g id="edge39" class="edge">
<title>Node22&#45;&gt;Node14</title>
<path fill="none" stroke="#191970" d="M970.1609,-496.8524C929.3773,-491.0536 869.9989,-479.2222 822.8886,-456 803.3388,-446.3632 804.902,-433.6327 784.8886,-425 671.7041,-376.1785 631.4381,-409.4935 509.8886,-389 384.3132,-367.8277 238.0296,-335.6329 162.2688,-318.3898"/>
<polygon fill="#191970" stroke="#191970" points="162.5843,-314.8719 152.0561,-316.0587 161.0265,-321.6964 162.5843,-314.8719"/>
</g>
<!-- Node23 -->
<g id="node24" class="node">
<title>Node23</title>
<polygon fill="#ffffff" stroke="#bfbfbf" points="1245.8886,-297 1245.8886,-316 1355.8886,-316 1355.8886,-297 1245.8886,-297"/>
<text text-anchor="middle" x="1300.8886" y="-304" font-family="Helvetica,sans-Serif" font-size="10.00" fill="#000000">odp/api/abi/event.h</text>
</g>
<!-- Node22&#45;&gt;Node23 -->
<g id="edge38" class="edge">
<title>Node22&#45;&gt;Node23</title>
<path fill="none" stroke="#191970" d="M1065.5045,-499.0504C1128.5322,-494.1677 1234.962,-482.2121 1262.8886,-456 1299.0611,-422.0482 1302.7809,-358.9488 1302.0741,-326.6648"/>
<polygon fill="#191970" stroke="#191970" points="1305.5559,-326.1306 1301.6653,-316.276 1298.5613,-326.4059 1305.5559,-326.1306"/>
</g>
<!-- Node24 -->
<g id="node25" class="node">
<title>Node24</title>
<polygon fill="#ffffff" stroke="#bfbfbf" points="1140.3886,-431 1140.3886,-450 1253.3886,-450 1253.3886,-431 1140.3886,-431"/>
<text text-anchor="middle" x="1196.8886" y="-438" font-family="Helvetica,sans-Serif" font-size="10.00" fill="#000000">odp/api/abi/queue.h</text>
</g>
<!-- Node22&#45;&gt;Node24 -->
<g id="edge40" class="edge">
<title>Node22&#45;&gt;Node24</title>
<path fill="none" stroke="#191970" d="M1045.8573,-492.3906C1076.4641,-481.8749 1125.6785,-464.966 1159.5626,-453.3243"/>
<polygon fill="#191970" stroke="#191970" points="1160.7961,-456.6014 1169.1162,-450.0419 1158.5216,-449.9812 1160.7961,-456.6014"/>
</g>
<!-- Node25 -->
<g id="node26" class="node">
<title>Node25</title>
<polygon fill="#ffffff" stroke="#bfbfbf" points="665.8886,-431 665.8886,-450 775.8886,-450 775.8886,-431 665.8886,-431"/>
<text text-anchor="middle" x="720.8886" y="-438" font-family="Helvetica,sans-Serif" font-size="10.00" fill="#000000">odp/api/abi/buffer.h</text>
</g>
<!-- Node22&#45;&gt;Node25 -->
<g id="edge41" class="edge">
<title>Node22&#45;&gt;Node25</title>
<path fill="none" stroke="#191970" d="M970.2271,-492.6994C924.0563,-483.6153 852.0909,-469.2596 789.8886,-456 784.41,-454.8321 778.6925,-453.5882 772.9954,-452.3324"/>
<polygon fill="#191970" stroke="#191970" points="773.3393,-448.8237 762.8184,-450.0731 771.8222,-455.6573 773.3393,-448.8237"/>
</g>
<!-- Node26 -->
<g id="node27" class="node">
<title>Node26</title>
<g id="a_node27"><a xlink:href="api_2spec_2queue_8h.html" target="_top" xlink:title="ODP queue. ">
<polygon fill="#ffffff" stroke="#000000" points="1001.8886,-431 1001.8886,-450 1121.8886,-450 1121.8886,-431 1001.8886,-431"/>
<text text-anchor="middle" x="1061.8886" y="-438" font-family="Helvetica,sans-Serif" font-size="10.00" fill="#000000">odp/api/spec/queue.h</text>
</a>
</g>
</g>
<!-- Node22&#45;&gt;Node26 -->
<g id="edge43" class="edge">
<title>Node22&#45;&gt;Node26</title>
<path fill="none" stroke="#191970" d="M1024.7636,-492.3906C1031.2479,-483.3273 1041.13,-469.5149 1049.0687,-458.4188"/>
<polygon fill="#191970" stroke="#191970" points="1051.9445,-460.4143 1054.9167,-450.2449 1046.2515,-456.3412 1051.9445,-460.4143"/>
</g>
<!-- Node26&#45;&gt;Node4 -->
<g id="edge44" class="edge">
<title>Node26&#45;&gt;Node4</title>
<path fill="none" stroke="#191970" d="M1072.4123,-430.9079C1107.191,-399.2936 1217.3341,-299.8839 1236.8886,-291 1337.0905,-245.4768 1382.8228,-302.9454 1481.8886,-255 1586.3181,-204.4587 1625.8986,-182.5123 1671.8886,-76 1675.4122,-67.8393 1677.4133,-62.9634 1671.8886,-56 1656.1634,-36.18 1595.7419,-24.0993 1545.914,-17.3243"/>
<polygon fill="#191970" stroke="#191970" points="1546.1541,-13.826 1535.7845,-15.9988 1545.2458,-20.7668 1546.1541,-13.826"/>
</g>
<!-- Node26&#45;&gt;Node9 -->
<g id="edge62" class="edge">
<title>Node26&#45;&gt;Node9</title>
<path fill="none" stroke="#191970" d="M1053.0803,-430.7179C1029.7375,-405.2096 963.5662,-335.5569 897.8886,-291 820.5776,-238.5508 785.8046,-252.0267 708.8886,-199 692.3211,-187.5782 691.2289,-181.0235 675.8886,-168 655.8299,-150.9707 644.5593,-153.137 628.8886,-132 606.3062,-101.5403 602.4517,-55.6769 602.271,-29.7288"/>
<polygon fill="#191970" stroke="#191970" points="605.7718,-29.6704 602.3834,-19.6321 598.7722,-29.5925 605.7718,-29.6704"/>
</g>
<!-- Node27 -->
<g id="node28" class="node">
<title>Node27</title>
<g id="a_node28"><a xlink:href="api_2event_8h.html" target="_top" xlink:title="ODP event. ">
<polygon fill="#ffffff" stroke="#ff0000" points="1170.8886,-364 1170.8886,-383 1262.8886,-383 1262.8886,-364 1170.8886,-364"/>
<text text-anchor="middle" x="1216.8886" y="-371" font-family="Helvetica,sans-Serif" font-size="10.00" fill="#000000">odp/api/event.h</text>
</a>
</g>
</g>
<!-- Node26&#45;&gt;Node27 -->
<g id="edge45" class="edge">
<title>Node26&#45;&gt;Node27</title>
<path fill="none" stroke="#191970" d="M1084.0963,-430.9005C1110.6843,-419.4077 1155.3888,-400.0838 1185.5,-387.068"/>
<polygon fill="#191970" stroke="#191970" points="1186.9316,-390.2622 1194.7221,-383.0817 1184.1542,-383.8368 1186.9316,-390.2622"/>
</g>
<!-- Node26&#45;&gt;Node40 -->
<g id="edge47" class="edge">
<title>Node26&#45;&gt;Node40</title>
<path fill="none" stroke="#191970" d="M1030.6545,-430.9005C992.2885,-419.1091 927.1016,-399.0746 884.7775,-386.0668"/>
<polygon fill="#191970" stroke="#191970" points="885.6517,-382.6739 875.0647,-383.0817 883.5952,-389.3651 885.6517,-382.6739"/>
</g>
<!-- Node27&#45;&gt;Node23 -->
<g id="edge46" class="edge">
<title>Node27&#45;&gt;Node23</title>
<path fill="none" stroke="#191970" d="M1228.9237,-363.9005C1242.5218,-353.0544 1264.8639,-335.2339 1281.051,-322.3229"/>
<polygon fill="#191970" stroke="#191970" points="1283.2404,-325.0535 1288.8758,-316.0817 1278.8755,-319.5811 1283.2404,-325.0535"/>
</g>
<!-- Node40&#45;&gt;Node14 -->
<g id="edge48" class="edge">
<title>Node40&#45;&gt;Node14</title>
<path fill="none" stroke="#191970" d="M789.6713,-363.9754C776.0602,-361.7968 761.4645,-359.6421 747.8886,-358 549.6863,-334.0256 315.3971,-318.31 193.6762,-311.0879"/>
<polygon fill="#191970" stroke="#191970" points="193.8693,-307.5933 183.6807,-310.4989 193.4575,-314.5812 193.8693,-307.5933"/>
</g>
<!-- Node41 -->
<g id="node30" class="node">
<title>Node41</title>
<g id="a_node30"><a xlink:href="api_2spec_2queue__types_8h.html" target="_top" xlink:title="ODP queue types. ">
<polygon fill="#ffffff" stroke="#000000" points="1040.3886,-291.5 1040.3886,-321.5 1151.3886,-321.5 1151.3886,-291.5 1040.3886,-291.5"/>
<text text-anchor="start" x="1048.3886" y="-309.5" font-family="Helvetica,sans-Serif" font-size="10.00" fill="#000000">odp/api/spec/queue</text>
<text text-anchor="middle" x="1095.8886" y="-298.5" font-family="Helvetica,sans-Serif" font-size="10.00" fill="#000000">_types.h</text>
</a>
</g>
</g>
<!-- Node40&#45;&gt;Node41 -->
<g id="edge49" class="edge">
<title>Node40&#45;&gt;Node41</title>
<path fill="none" stroke="#191970" d="M879.7264,-363.9717C918.8812,-353.5615 982.4298,-336.6656 1030.5133,-323.8815"/>
<polygon fill="#191970" stroke="#191970" points="1031.4531,-327.2533 1040.218,-321.3013 1029.6544,-320.4883 1031.4531,-327.2533"/>
</g>
<!-- Node41&#45;&gt;Node4 -->
<g id="edge50" class="edge">
<title>Node41&#45;&gt;Node4</title>
<path fill="none" stroke="#191970" d="M1151.4018,-291.6757C1195.2039,-279.5167 1250.1813,-263.0446 1257.8886,-255 1321.2877,-188.8262 1247.4147,-121.1271 1311.8886,-56 1325.9054,-41.8412 1370.7582,-29.7824 1409.8727,-21.5679"/>
<polygon fill="#191970" stroke="#191970" points="1410.5756,-24.9967 1419.6711,-19.5634 1409.1725,-18.1387 1410.5756,-24.9967"/>
</g>
<!-- Node41&#45;&gt;Node9 -->
<g id="edge61" class="edge">
<title>Node41&#45;&gt;Node9</title>
<path fill="none" stroke="#191970" d="M1040.0735,-291.4145C956.4559,-268.4182 803.0234,-224.5746 751.8886,-199 730.8173,-188.4614 728.6995,-180.7511 708.8886,-168 681.771,-150.5461 666.5468,-156.7637 645.8886,-132 620.7002,-101.8058 609.8522,-55.8447 605.5111,-29.8084"/>
<polygon fill="#191970" stroke="#191970" points="608.9353,-29.042 603.986,-19.6743 602.0132,-30.0838 608.9353,-29.042"/>
</g>
<!-- Node41&#45;&gt;Node18 -->
<g id="edge60" class="edge">
<title>Node41&#45;&gt;Node18</title>
<path fill="none" stroke="#191970" d="M1151.4685,-295.7171C1208.1704,-284.7166 1295.8322,-267.7097 1353.7793,-256.4676"/>
<polygon fill="#191970" stroke="#191970" points="1354.7321,-259.8481 1363.8824,-254.5075 1353.3989,-252.9762 1354.7321,-259.8481"/>
</g>
<!-- Node42 -->
<g id="node31" class="node">
<title>Node42</title>
<g id="a_node31"><a xlink:href="api_2schedule__types_8h.html" target="_top" xlink:title="ODP schedule. ">
<polygon fill="#ffffff" stroke="#000000" points="1025.8886,-235.5 1025.8886,-254.5 1165.8886,-254.5 1165.8886,-235.5 1025.8886,-235.5"/>
<text text-anchor="middle" x="1095.8886" y="-242.5" font-family="Helvetica,sans-Serif" font-size="10.00" fill="#000000">odp/api/schedule_types.h</text>
</a>
</g>
</g>
<!-- Node41&#45;&gt;Node42 -->
<g id="edge51" class="edge">
<title>Node41&#45;&gt;Node42</title>
<path fill="none" stroke="#191970" d="M1095.8886,-291.2977C1095.8886,-283.3834 1095.8886,-273.6043 1095.8886,-265.0759"/>
<polygon fill="#191970" stroke="#191970" points="1099.3887,-264.8469 1095.8886,-254.8469 1092.3887,-264.847 1099.3887,-264.8469"/>
</g>
<!-- Node43 -->
<g id="node32" class="node">
<title>Node43</title>
<polygon fill="#ffffff" stroke="#bfbfbf" points="761.3886,-168.5 761.3886,-198.5 878.3886,-198.5 878.3886,-168.5 761.3886,-168.5"/>
<text text-anchor="start" x="769.3886" y="-186.5" font-family="Helvetica,sans-Serif" font-size="10.00" fill="#000000">odp/api/abi/schedule</text>
<text text-anchor="middle" x="819.8886" y="-175.5" font-family="Helvetica,sans-Serif" font-size="10.00" fill="#000000">_types.h</text>
</g>
<!-- Node42&#45;&gt;Node43 -->
<g id="edge52" class="edge">
<title>Node42&#45;&gt;Node43</title>
<path fill="none" stroke="#191970" d="M1053.0664,-235.4581C1009.1331,-225.6686 940.107,-210.2878 888.5385,-198.797"/>
<polygon fill="#191970" stroke="#191970" points="888.9921,-195.3123 878.4702,-196.5535 887.4696,-202.1447 888.9921,-195.3123"/>
</g>
<!-- Node44 -->
<g id="node33" class="node">
<title>Node44</title>
<g id="a_node33"><a xlink:href="api_2spec_2schedule__types_8h.html" target="_top" xlink:title="ODP schedule types. ">
<polygon fill="#ffffff" stroke="#000000" points="1090.3886,-168.5 1090.3886,-198.5 1215.3886,-198.5 1215.3886,-168.5 1090.3886,-168.5"/>
<text text-anchor="start" x="1098.3886" y="-186.5" font-family="Helvetica,sans-Serif" font-size="10.00" fill="#000000">odp/api/spec/schedule</text>
<text text-anchor="middle" x="1152.8886" y="-175.5" font-family="Helvetica,sans-Serif" font-size="10.00" fill="#000000">_types.h</text>
</a>
</g>
</g>
<!-- Node42&#45;&gt;Node44 -->
<g id="edge53" class="edge">
<title>Node42&#45;&gt;Node44</title>
<path fill="none" stroke="#191970" d="M1104.7948,-235.3906C1112.0805,-227.5298 1122.6773,-216.0964 1132.0708,-205.9612"/>
<polygon fill="#191970" stroke="#191970" points="1134.7141,-208.2581 1138.9448,-198.5446 1129.5801,-203.4997 1134.7141,-208.2581"/>
</g>
<!-- Node44&#45;&gt;Node4 -->
<g id="edge54" class="edge">
<title>Node44&#45;&gt;Node4</title>
<path fill="none" stroke="#191970" d="M1134.9456,-168.2311C1106.9822,-142.6458 1059.2387,-90.5299 1089.8886,-56 1110.3496,-32.9487 1298.5943,-19.3359 1404.0734,-13.455"/>
<polygon fill="#191970" stroke="#191970" points="1404.5327,-16.9352 1414.3261,-12.8932 1404.1496,-9.9457 1404.5327,-16.9352"/>
</g>
<!-- Node44&#45;&gt;Node9 -->
<g id="edge59" class="edge">
<title>Node44&#45;&gt;Node9</title>
<path fill="none" stroke="#191970" d="M1090.1873,-169.72C1087.384,-169.1329 1084.6078,-168.5571 1081.8886,-168 998.5458,-150.9261 975.5044,-156.0082 893.8886,-132 829.9928,-113.2043 816.3291,-101.7102 754.8886,-76 712.7409,-58.363 664.3899,-37.2087 633.7526,-23.6886"/>
<polygon fill="#191970" stroke="#191970" points="635.0196,-20.422 624.4582,-19.5813 632.1902,-26.8247 635.0196,-20.422"/>
</g>
<!-- Node44&#45;&gt;Node45 -->
<g id="edge55" class="edge">
<title>Node44&#45;&gt;Node45</title>
<path fill="none" stroke="#191970" d="M1155.1133,-168.2977C1156.2845,-160.2945 1157.7348,-150.3843 1158.9926,-141.7889"/>
<polygon fill="#191970" stroke="#191970" points="1162.4626,-142.2484 1160.4476,-131.8469 1155.5364,-141.2347 1162.4626,-142.2484"/>
</g>
<!-- Node46 -->
<g id="node35" class="node">
<title>Node46</title>
<g id="a_node35"><a xlink:href="spec_2support_8h.html" target="_top" xlink:title="ODP support API. ">
<polygon fill="#ffffff" stroke="#000000" points="1098.3886,-56.5 1098.3886,-75.5 1225.3886,-75.5 1225.3886,-56.5 1098.3886,-56.5"/>
<text text-anchor="middle" x="1161.8886" y="-63.5" font-family="Helvetica,sans-Serif" font-size="10.00" fill="#000000">odp/api/spec/support.h</text>
</a>
</g>
</g>
<!-- Node45&#45;&gt;Node46 -->
<g id="edge56" class="edge">
<title>Node45&#45;&gt;Node46</title>
<path fill="none" stroke="#191970" d="M1161.8886,-112.2455C1161.8886,-104.9382 1161.8886,-94.6944 1161.8886,-85.7046"/>
<polygon fill="#191970" stroke="#191970" points="1165.3887,-85.6426 1161.8886,-75.6427 1158.3887,-85.6427 1165.3887,-85.6426"/>
</g>
<!-- Node46&#45;&gt;Node4 -->
<g id="edge57" class="edge">
<title>Node46&#45;&gt;Node4</title>
<path fill="none" stroke="#191970" d="M1215.3396,-56.4369C1269.6948,-46.712 1353.9051,-31.6456 1411.5704,-21.3285"/>
<polygon fill="#191970" stroke="#191970" points="1412.4308,-24.7302 1421.6581,-19.5237 1411.1979,-17.8396 1412.4308,-24.7302"/>
</g>
<!-- Node46&#45;&gt;Node9 -->
<g id="edge58" class="edge">
<title>Node46&#45;&gt;Node9</title>
<path fill="none" stroke="#191970" d="M1098.3084,-59.6306C991.7186,-48.9526 778.0086,-27.5433 669.4548,-16.6685"/>
<polygon fill="#191970" stroke="#191970" points="669.584,-13.164 659.2849,-15.6497 668.8862,-20.1292 669.584,-13.164"/>
</g>
<!-- Node48 -->
<g id="node37" class="node">
<title>Node48</title>
<g id="a_node37"><a xlink:href="spec_2reassembly_8h.html" target="_top" xlink:title="ODP REASSEMBLY API. ">
<polygon fill="#ffffff" stroke="#000000" points="1483.8886,-56.5 1483.8886,-75.5 1629.8886,-75.5 1629.8886,-56.5 1483.8886,-56.5"/>
<text text-anchor="middle" x="1556.8886" y="-63.5" font-family="Helvetica,sans-Serif" font-size="10.00" fill="#000000">odp/api/spec/reassembly.h</text>
</a>
</g>
</g>
<!-- Node47&#45;&gt;Node48 -->
<g id="edge66" class="edge">
<title>Node47&#45;&gt;Node48</title>
<path fill="none" stroke="#191970" d="M1481.3154,-615.4324C1521.1515,-593.5604 1614.5431,-535.5844 1649.8886,-456 1709.848,-320.9945 1606.4827,-141.8061 1569.3773,-84.4697"/>
<polygon fill="#191970" stroke="#191970" points="1572.0723,-82.1985 1563.6473,-75.7744 1566.2273,-86.0503 1572.0723,-82.1985"/>
</g>
<!-- Node48&#45;&gt;Node4 -->
<g id="edge67" class="edge">
<title>Node48&#45;&gt;Node4</title>
<path fill="none" stroke="#191970" d="M1542.6053,-56.2455C1530.1415,-47.7337 1511.8435,-35.2375 1497.4094,-25.3801"/>
<polygon fill="#191970" stroke="#191970" points="1499.2401,-22.392 1489.0082,-19.6427 1495.2924,-28.1726 1499.2401,-22.392"/>
</g>
<!-- Node48&#45;&gt;Node9 -->
<g id="edge68" class="edge">
<title>Node48&#45;&gt;Node9</title>
<path fill="none" stroke="#191970" d="M1483.5971,-56.8092C1480.6575,-56.5207 1477.746,-56.2493 1474.8886,-56 1174.7546,-29.8139 815.1119,-16.563 669.2217,-11.9448"/>
<polygon fill="#191970" stroke="#191970" points="669.1956,-8.4424 659.0908,-11.6271 668.9761,-15.4389 669.1956,-8.4424"/>
</g>
<!-- Node35&#45;&gt;Node1 -->
<g id="edge70" class="edge">
<title>Node35&#45;&gt;Node1</title>
<path fill="none" stroke="#191970" d="M488.6073,-296.8906C523.6158,-286.2846 580.0905,-269.1753 618.5437,-257.5257"/>
<polygon fill="#191970" stroke="#191970" points="619.8369,-260.791 628.3926,-254.5419 617.8073,-254.0917 619.8369,-260.791"/>
</g>
<!-- Node36 -->
<g id="node39" class="node">
<title>Node36</title>
<polygon fill="#ffffff" stroke="#bfbfbf" points="404.3886,-235.5 404.3886,-254.5 509.3886,-254.5 509.3886,-235.5 404.3886,-235.5"/>
<text text-anchor="middle" x="456.8886" y="-242.5" font-family="Helvetica,sans-Serif" font-size="10.00" fill="#000000">odp/api/abi/time.h</text>
</g>
<!-- Node35&#45;&gt;Node36 -->
<g id="edge71" class="edge">
<title>Node35&#45;&gt;Node36</title>
<path fill="none" stroke="#191970" d="M456.8886,-296.8906C456.8886,-288.3657 456.8886,-275.6392 456.8886,-264.9235"/>
<polygon fill="#191970" stroke="#191970" points="460.3887,-264.7448 456.8886,-254.7449 453.3887,-264.7449 460.3887,-264.7448"/>
</g>
<!-- Node37 -->
<g id="node40" class="node">
<title>Node37</title>
<g id="a_node40"><a xlink:href="api_2spec_2time_8h.html" target="_top" xlink:title="ODP time. ">
<polygon fill="#ffffff" stroke="#000000" points="442.3886,-56.5 442.3886,-75.5 555.3886,-75.5 555.3886,-56.5 442.3886,-56.5"/>
<text text-anchor="middle" x="498.8886" y="-63.5" font-family="Helvetica,sans-Serif" font-size="10.00" fill="#000000">odp/api/spec/time.h</text>
</a>
</g>
</g>
<!-- Node35&#45;&gt;Node37 -->
<g id="edge72" class="edge">
<title>Node35&#45;&gt;Node37</title>
<path fill="none" stroke="#191970" d="M475.3908,-296.8461C489.9522,-288.1028 509.1893,-273.7295 517.8886,-255 531.7248,-225.2106 512.5245,-127.3462 503.3231,-85.3848"/>
<polygon fill="#191970" stroke="#191970" points="506.7248,-84.5584 501.1266,-75.5633 499.8935,-86.0862 506.7248,-84.5584"/>
</g>
<!-- Node37&#45;&gt;Node4 -->
<g id="edge73" class="edge">
<title>Node37&#45;&gt;Node4</title>
<path fill="none" stroke="#191970" d="M555.5811,-62.7472C723.6829,-53.102 1219.1765,-24.672 1404.1673,-14.0578"/>
<polygon fill="#191970" stroke="#191970" points="1404.539,-17.5423 1414.3221,-13.4751 1404.138,-10.5538 1404.539,-17.5423"/>
</g>
<!-- Node37&#45;&gt;Node9 -->
<g id="edge74" class="edge">
<title>Node37&#45;&gt;Node9</title>
<path fill="none" stroke="#191970" d="M517.004,-56.2455C533.3336,-47.4527 557.5596,-34.4079 576.1225,-24.4125"/>
<polygon fill="#191970" stroke="#191970" points="577.8354,-27.4654 584.9808,-19.6427 574.5167,-21.3021 577.8354,-27.4654"/>
</g>
<!-- Node29&#45;&gt;Node1 -->
<g id="edge76" class="edge">
<title>Node29&#45;&gt;Node1</title>
<path fill="none" stroke="#191970" d="M631.6154,-618.5026C607.2242,-612.5238 579.8607,-601.0436 564.8886,-579 545.526,-550.4923 457.3114,-528.1338 596.8886,-291 604.6829,-277.7578 617.9435,-267.2178 630.2939,-259.5859"/>
<polygon fill="#191970" stroke="#191970" points="632.1203,-262.573 639.0348,-254.5456 628.6235,-256.509 632.1203,-262.573"/>
</g>
<!-- Node29&#45;&gt;Node10 -->
<g id="edge82" class="edge">
<title>Node29&#45;&gt;Node10</title>
<path fill="none" stroke="#191970" d="M638.1803,-615.4668C607.6715,-607.7922 566.1352,-595.5529 531.8886,-579 459.5386,-544.0301 383.9253,-485.213 349.2953,-456.8151"/>
<polygon fill="#191970" stroke="#191970" points="351.337,-453.9617 341.401,-450.2838 346.8747,-459.3551 351.337,-453.9617"/>
</g>
<!-- Node29&#45;&gt;Node12 -->
<g id="edge79" class="edge">
<title>Node29&#45;&gt;Node12</title>
<path fill="none" stroke="#191970" d="M730.0699,-623.2233C895.1806,-617.1082 1421.132,-596.3534 1452.8886,-579 1499.0385,-553.7813 1529.6021,-497.3813 1544.1066,-464.8667"/>
<polygon fill="#191970" stroke="#191970" points="1547.3547,-466.1729 1548.0918,-455.6037 1540.9246,-463.4063 1547.3547,-466.1729"/>
</g>
<!-- Node29&#45;&gt;Node13 -->
<g id="edge78" class="edge">
<title>Node29&#45;&gt;Node13</title>
<path fill="none" stroke="#191970" d="M631.5535,-618.4184C550.8738,-607.6553 390.1989,-586.2204 295.1988,-573.5468"/>
<polygon fill="#191970" stroke="#191970" points="295.4578,-570.0504 285.0828,-572.1973 294.5321,-576.989 295.4578,-570.0504"/>
</g>
<!-- Node29&#45;&gt;Node23 -->
<g id="edge77" class="edge">
<title>Node29&#45;&gt;Node23</title>
<path fill="none" stroke="#191970" d="M730.0427,-620.1916C876.0321,-605.4205 1299.3898,-558.8603 1338.8886,-512 1385.2354,-457.0155 1337.0374,-363.9888 1312.9119,-324.7864"/>
<polygon fill="#191970" stroke="#191970" points="1315.6767,-322.6105 1307.3691,-316.0352 1309.7631,-326.356 1315.6767,-322.6105"/>
</g>
<!-- Node29&#45;&gt;Node25 -->
<g id="edge81" class="edge">
<title>Node29&#45;&gt;Node25</title>
<path fill="none" stroke="#191970" d="M687.6441,-615.2745C693.5149,-606.293 701.7139,-592.3605 705.8886,-579 718.638,-538.1972 720.9327,-487.7153 721.1316,-460.3702"/>
<polygon fill="#191970" stroke="#191970" points="724.6313,-460.1567 721.1129,-450.1631 717.6313,-460.1695 724.6313,-460.1567"/>
</g>
<!-- Node30 -->
<g id="node42" class="node">
<title>Node30</title>
<polygon fill="#ffffff" stroke="#bfbfbf" points="753.8886,-554 753.8886,-573 869.8886,-573 869.8886,-554 753.8886,-554"/>
<text text-anchor="middle" x="811.8886" y="-561" font-family="Helvetica,sans-Serif" font-size="10.00" fill="#000000">odp/api/abi/packet.h</text>
</g>
<!-- Node29&#45;&gt;Node30 -->
<g id="edge80" class="edge">
<title>Node29&#45;&gt;Node30</title>
<path fill="none" stroke="#191970" d="M701.3573,-615.3906C723.0838,-605.1908 757.6221,-588.9763 782.3071,-577.3875"/>
<polygon fill="#191970" stroke="#191970" points="783.9989,-580.4598 791.5636,-573.0419 781.0241,-574.1234 783.9989,-580.4598"/>
</g>
<!-- Node31 -->
<g id="node43" class="node">
<title>Node31</title>
<g id="a_node43"><a xlink:href="api_2spec_2packet_8h.html" target="_top" xlink:title="ODP packet descriptor. ">
<polygon fill="#ffffff" stroke="#000000" points="574.3886,-554 574.3886,-573 697.3886,-573 697.3886,-554 574.3886,-554"/>
<text text-anchor="middle" x="635.8886" y="-561" font-family="Helvetica,sans-Serif" font-size="10.00" fill="#000000">odp/api/spec/packet.h</text>
</a>
</g>
</g>
<!-- Node29&#45;&gt;Node31 -->
<g id="edge83" class="edge">
<title>Node29&#45;&gt;Node31</title>
<path fill="none" stroke="#191970" d="M673.8573,-615.3906C667.2256,-606.3273 657.119,-592.5149 648.9999,-581.4188"/>
<polygon fill="#191970" stroke="#191970" points="651.7487,-579.2484 643.019,-573.2449 646.0995,-583.382 651.7487,-579.2484"/>
</g>
<!-- Node31&#45;&gt;Node4 -->
<g id="edge84" class="edge">
<title>Node31&#45;&gt;Node4</title>
<path fill="none" stroke="#191970" d="M697.5216,-554.3784C712.9741,-552.1899 729.527,-549.9296 744.8886,-548 891.275,-529.612 929.8276,-538.915 1074.8886,-512 1243.2447,-480.7627 1771.8886,-354.7296 1771.8886,-183.5 1771.8886,-183.5 1771.8886,-183.5 1771.8886,-122 1771.8886,-87.2309 1758.755,-75.3808 1729.8886,-56 1700.4193,-36.2144 1610.3836,-23.3422 1545.6502,-16.3785"/>
<polygon fill="#191970" stroke="#191970" points="1545.8022,-12.8753 1535.4913,-15.3114 1545.0709,-19.837 1545.8022,-12.8753"/>
</g>
<!-- Node31&#45;&gt;Node9 -->
<g id="edge99" class="edge">
<title>Node31&#45;&gt;Node9</title>
<path fill="none" stroke="#191970" d="M615.5103,-553.8078C559.8466,-526.2089 404.4224,-441.4163 329.8886,-322 296.5403,-268.5701 299.8886,-246.483 299.8886,-183.5 299.8886,-183.5 299.8886,-183.5 299.8886,-122 299.8886,-90.7875 299.8701,-75.9332 323.8886,-56 355.3937,-29.8536 464.2849,-18.2508 536.3459,-13.3394"/>
<polygon fill="#191970" stroke="#191970" points="536.9468,-16.8077 546.697,-12.6624 536.4899,-9.8226 536.9468,-16.8077"/>
</g>
<!-- Node31&#45;&gt;Node35 -->
<g id="edge91" class="edge">
<title>Node31&#45;&gt;Node35</title>
<path fill="none" stroke="#191970" d="M629.0901,-553.7391C602.3975,-515.4151 504.5203,-374.8874 469.475,-324.571"/>
<polygon fill="#191970" stroke="#191970" points="472.2812,-322.4761 463.6938,-316.2706 466.5371,-326.4768 472.2812,-322.4761"/>
</g>
<!-- Node32 -->
<g id="node44" class="node">
<title>Node32</title>
<g id="a_node44"><a xlink:href="api_2proto__stats__types_8h.html" target="_top" xlink:title="ODP proto stats types. ">
<polygon fill="#ffffff" stroke="#000000" points="628.8886,-358.5 628.8886,-388.5 738.8886,-388.5 738.8886,-358.5 628.8886,-358.5"/>
<text text-anchor="start" x="636.8886" y="-376.5" font-family="Helvetica,sans-Serif" font-size="10.00" fill="#000000">odp/api/proto_stats</text>
<text text-anchor="middle" x="683.8886" y="-365.5" font-family="Helvetica,sans-Serif" font-size="10.00" fill="#000000">_types.h</text>
</a>
</g>
</g>
<!-- Node31&#45;&gt;Node32 -->
<g id="edge85" class="edge">
<title>Node31&#45;&gt;Node32</title>
<path fill="none" stroke="#191970" d="M636.2554,-553.8438C637.3595,-530.9274 641.5901,-471.6835 656.8886,-425 659.9493,-415.6601 664.5872,-405.9755 669.1599,-397.5594"/>
<polygon fill="#191970" stroke="#191970" points="672.3071,-399.1053 674.2073,-388.6822 666.2219,-395.6453 672.3071,-399.1053"/>
</g>
<!-- Node38 -->
<g id="node47" class="node">
<title>Node38</title>
<g id="a_node47"><a xlink:href="api_2packet__types_8h.html" target="_top" xlink:title="ODP packet. ">
<polygon fill="#ffffff" stroke="#000000" points="1199.8886,-492.5 1199.8886,-511.5 1329.8886,-511.5 1329.8886,-492.5 1199.8886,-492.5"/>
<text text-anchor="middle" x="1264.8886" y="-499.5" font-family="Helvetica,sans-Serif" font-size="10.00" fill="#000000">odp/api/packet_types.h</text>
</a>
</g>
</g>
<!-- Node31&#45;&gt;Node38 -->
<g id="edge92" class="edge">
<title>Node31&#45;&gt;Node38</title>
<path fill="none" stroke="#191970" d="M697.4868,-554.0852C712.9401,-551.9039 729.5021,-549.7204 744.8886,-548 940.3226,-526.1474 990.2927,-532.3528 1185.8886,-512 1187.1648,-511.8672 1188.4523,-511.7309 1189.7486,-511.5915"/>
<polygon fill="#191970" stroke="#191970" points="1190.2671,-515.0555 1199.8179,-510.4695 1189.4918,-508.0985 1190.2671,-515.0555"/>
</g>
<!-- Node33 -->
<g id="node45" class="node">
<title>Node33</title>
<polygon fill="#ffffff" stroke="#bfbfbf" points="731.8886,-291.5 731.8886,-321.5 859.8886,-321.5 859.8886,-291.5 731.8886,-291.5"/>
<text text-anchor="start" x="739.8886" y="-309.5" font-family="Helvetica,sans-Serif" font-size="10.00" fill="#000000">odp/api/abi/proto_stats</text>
<text text-anchor="middle" x="795.8886" y="-298.5" font-family="Helvetica,sans-Serif" font-size="10.00" fill="#000000">_types.h</text>
</g>
<!-- Node32&#45;&gt;Node33 -->
<g id="edge86" class="edge">
<title>Node32&#45;&gt;Node33</title>
<path fill="none" stroke="#191970" d="M709.0236,-358.4639C724.4781,-349.2188 744.4936,-337.2452 761.4157,-327.1222"/>
<polygon fill="#191970" stroke="#191970" points="763.6651,-329.8551 770.45,-321.7177 760.0715,-323.8479 763.6651,-329.8551"/>
</g>
<!-- Node34 -->
<g id="node46" class="node">
<title>Node34</title>
<g id="a_node46"><a xlink:href="api_2spec_2proto__stats__types_8h.html" target="_top" xlink:title="ODP proto stats types. ">
<polygon fill="#ffffff" stroke="#000000" points="606.3886,-291.5 606.3886,-321.5 713.3886,-321.5 713.3886,-291.5 606.3886,-291.5"/>
<text text-anchor="start" x="614.3886" y="-309.5" font-family="Helvetica,sans-Serif" font-size="10.00" fill="#000000">odp/api/spec/proto</text>
<text text-anchor="middle" x="659.8886" y="-298.5" font-family="Helvetica,sans-Serif" font-size="10.00" fill="#000000">_stats_types.h</text>
</a>
</g>
</g>
<!-- Node32&#45;&gt;Node34 -->
<g id="edge87" class="edge">
<title>Node32&#45;&gt;Node34</title>
<path fill="none" stroke="#191970" d="M678.4426,-358.2967C675.5889,-350.3299 672.0217,-340.3718 668.7798,-331.3213"/>
<polygon fill="#191970" stroke="#191970" points="671.9803,-329.8771 665.313,-321.6432 665.3903,-332.2377 671.9803,-329.8771"/>
</g>
<!-- Node34&#45;&gt;Node1 -->
<g id="edge89" class="edge">
<title>Node34&#45;&gt;Node1</title>
<path fill="none" stroke="#191970" d="M659.8886,-291.2977C659.8886,-283.3834 659.8886,-273.6043 659.8886,-265.0759"/>
<polygon fill="#191970" stroke="#191970" points="663.3887,-264.8469 659.8886,-254.8469 656.3887,-264.847 663.3887,-264.8469"/>
</g>
<!-- Node34&#45;&gt;Node4 -->
<g id="edge88" class="edge">
<title>Node34&#45;&gt;Node4</title>
<path fill="none" stroke="#191970" d="M713.7271,-292.6466C716.8167,-292.0412 719.8864,-291.4856 722.8886,-291 822.3583,-274.911 1084.6318,-299.7974 1174.8886,-255 1266.7897,-209.3864 1212.7242,-121.2642 1291.8886,-56 1309.1831,-41.7422 1360.2766,-29.5835 1404.0942,-21.3537"/>
<polygon fill="#191970" stroke="#191970" points="1404.9776,-24.7501 1414.1818,-19.5029 1403.7144,-17.865 1404.9776,-24.7501"/>
</g>
<!-- Node34&#45;&gt;Node9 -->
<g id="edge90" class="edge">
<title>Node34&#45;&gt;Node9</title>
<path fill="none" stroke="#191970" d="M633.7878,-291.3759C582.0337,-259.5446 468.3477,-179.9196 432.8886,-76 430.0181,-67.5874 427.486,-63.0587 432.8886,-56 445.7916,-39.1416 494.7189,-27.0373 536.7911,-19.49"/>
<polygon fill="#191970" stroke="#191970" points="537.5003,-22.9193 546.7555,-17.7626 536.3046,-16.0222 537.5003,-22.9193"/>
</g>
<!-- Node38&#45;&gt;Node12 -->
<g id="edge93" class="edge">
<title>Node38&#45;&gt;Node12</title>
<path fill="none" stroke="#191970" d="M1309.7277,-492.4581C1358.1609,-482.1514 1435.7185,-465.6469 1490.4042,-454.0097"/>
<polygon fill="#191970" stroke="#191970" points="1491.2844,-457.4008 1500.3368,-451.896 1489.8273,-450.5541 1491.2844,-457.4008"/>
</g>
<!-- Node39 -->
<g id="node48" class="node">
<title>Node39</title>
<g id="a_node48"><a xlink:href="api_2spec_2packet__types_8h.html" target="_top" xlink:title="ODP packet types. ">
<polygon fill="#ffffff" stroke="#000000" points="831.8886,-425.5 831.8886,-455.5 945.8886,-455.5 945.8886,-425.5 831.8886,-425.5"/>
<text text-anchor="start" x="839.8886" y="-443.5" font-family="Helvetica,sans-Serif" font-size="10.00" fill="#000000">odp/api/spec/packet</text>
<text text-anchor="middle" x="888.8886" y="-432.5" font-family="Helvetica,sans-Serif" font-size="10.00" fill="#000000">_types.h</text>
</a>
</g>
</g>
<!-- Node38&#45;&gt;Node39 -->
<g id="edge94" class="edge">
<title>Node38&#45;&gt;Node39</title>
<path fill="none" stroke="#191970" d="M1206.5511,-492.4581C1138.9196,-481.396 1027.6385,-463.1945 956.3473,-451.5338"/>
<polygon fill="#191970" stroke="#191970" points="956.5629,-448.0226 946.1291,-449.8625 955.4329,-454.9308 956.5629,-448.0226"/>
</g>
<!-- Node39&#45;&gt;Node4 -->
<g id="edge95" class="edge">
<title>Node39&#45;&gt;Node4</title>
<path fill="none" stroke="#191970" d="M936.5924,-425.3366C992.9399,-406.1922 1088.1943,-369.8884 1160.8886,-322 1177.693,-310.9298 1177.0277,-301.984 1193.8886,-291 1228.2641,-268.6062 1241.6146,-272.1408 1278.8886,-255 1441.2327,-180.3443 1544.7782,-227.8958 1638.8886,-76 1643.5702,-68.4439 1644.2586,-63.0835 1638.8886,-56 1627.2042,-40.5874 1584.6405,-28.9152 1545.8056,-21.1852"/>
<polygon fill="#191970" stroke="#191970" points="1545.9892,-17.6565 1535.5085,-19.2074 1544.6688,-24.5309 1545.9892,-17.6565"/>
</g>
<!-- Node39&#45;&gt;Node9 -->
<g id="edge98" class="edge">
<title>Node39&#45;&gt;Node9</title>
<path fill="none" stroke="#191970" d="M831.5736,-427.8069C826.9476,-426.8375 822.3424,-425.8908 817.8886,-425 730.1828,-407.4588 706.761,-410.2881 619.8886,-389 595.4826,-383.0193 420.7345,-340.645 403.8886,-322 361.7868,-275.4018 375.8886,-246.3009 375.8886,-183.5 375.8886,-183.5 375.8886,-183.5 375.8886,-122 375.8886,-85.1996 395.2761,-76.4242 425.8886,-56 458.7009,-34.108 501.3517,-22.6307 536.5641,-16.6154"/>
<polygon fill="#191970" stroke="#191970" points="537.4341,-20.0209 546.7577,-14.989 536.3311,-13.1084 537.4341,-20.0209"/>
</g>
<!-- Node39&#45;&gt;Node40 -->
<g id="edge97" class="edge">
<title>Node39&#45;&gt;Node40</title>
<path fill="none" stroke="#191970" d="M878.6774,-425.2967C871.9385,-415.2631 863.078,-402.0709 855.9857,-391.5113"/>
<polygon fill="#191970" stroke="#191970" points="858.7872,-389.4049 850.3061,-383.055 852.9762,-393.3078 858.7872,-389.4049"/>
</g>
<!-- Node39&#45;&gt;Node32 -->
<g id="edge96" class="edge">
<title>Node39&#45;&gt;Node32</title>
<path fill="none" stroke="#191970" d="M842.8826,-425.4639C812.3929,-415.499 772.2045,-402.3642 739.8614,-391.7936"/>
<polygon fill="#191970" stroke="#191970" points="740.6878,-388.3815 730.0952,-388.6017 738.5131,-395.0352 740.6878,-388.3815"/>
</g>
<!-- Node50 -->
<g id="node50" class="node">
<title>Node50</title>
<g id="a_node50"><a xlink:href="spec_2threshold_8h.html" target="_top" xlink:title="ODP threshold descriptor. ">
<polygon fill="#ffffff" stroke="#000000" points="1493.8886,-297 1493.8886,-316 1629.8886,-316 1629.8886,-297 1493.8886,-297"/>
<text text-anchor="middle" x="1561.8886" y="-304" font-family="Helvetica,sans-Serif" font-size="10.00" fill="#000000">odp/api/spec/threshold.h</text>
</a>
</g>
</g>
<!-- Node49&#45;&gt;Node50 -->
<g id="edge103" class="edge">
<title>Node49&#45;&gt;Node50</title>
<path fill="none" stroke="#191970" d="M1710.8915,-727.4242C1712.8271,-708.0891 1716.8886,-662.9907 1716.8886,-625 1716.8886,-625 1716.8886,-625 1716.8886,-563.5 1716.8886,-459.2091 1622.1362,-360.8945 1580.7977,-322.9645"/>
<polygon fill="#191970" stroke="#191970" points="1583.0592,-320.291 1573.2861,-316.1998 1578.3747,-325.4926 1583.0592,-320.291"/>
</g>
<!-- Node50&#45;&gt;Node1 -->
<g id="edge105" class="edge">
<title>Node50&#45;&gt;Node1</title>
<path fill="none" stroke="#191970" d="M1493.8873,-299.2875C1466.0148,-296.4723 1433.4238,-293.361 1403.8886,-291 1153.9438,-271.0198 856.1626,-254.9339 726.1275,-248.2925"/>
<polygon fill="#191970" stroke="#191970" points="726.1014,-244.7868 715.9363,-247.7739 725.7455,-251.7777 726.1014,-244.7868"/>
</g>
<!-- Node50&#45;&gt;Node4 -->
<g id="edge104" class="edge">
<title>Node50&#45;&gt;Node4</title>
<path fill="none" stroke="#191970" d="M1575.6618,-296.9625C1624.0596,-262.3324 1779.7159,-140.8208 1709.8886,-56 1689.3334,-31.0312 1606.9592,-19.4213 1545.5019,-14.1551"/>
<polygon fill="#191970" stroke="#191970" points="1545.6985,-10.6596 1535.4466,-13.3334 1545.1283,-17.6363 1545.6985,-10.6596"/>
</g>
<!-- Node50&#45;&gt;Node9 -->
<g id="edge106" class="edge">
<title>Node50&#45;&gt;Node9</title>
<path fill="none" stroke="#191970" d="M1554.7898,-296.9118C1542.1905,-280.7539 1514.1848,-248.5407 1481.8886,-235 1253.5198,-139.2525 1156.9263,-288.1149 925.8886,-199 905.23,-191.0317 907.0246,-177.2093 886.8886,-168 808.3311,-132.0716 769.4022,-177.3638 695.8886,-132 674.527,-118.8182 634.201,-58.9028 614.4205,-28.2232"/>
<polygon fill="#191970" stroke="#191970" points="617.3216,-26.2632 608.9851,-19.7247 611.4246,-30.0349 617.3216,-26.2632"/>
</g>
</g>
</svg>
