<?xml version="1.0" encoding="UTF-8" standalone="no"?>
<!DOCTYPE svg PUBLIC "-//W3C//DTD SVG 1.1//EN"
 "http://www.w3.org/Graphics/SVG/1.1/DTD/svg11.dtd">
<!-- Generated by graphviz version 2.40.1 (20161225.0304)
 -->
<!-- Title: schedule.h Pages: 1 -->
<svg width="1530pt" height="856pt"
 viewBox="0.00 0.00 1530.00 856.00" xmlns="http://www.w3.org/2000/svg" xmlns:xlink="http://www.w3.org/1999/xlink">
<g id="graph0" class="graph" transform="scale(1 1) rotate(0) translate(4 852)">
<title>schedule.h</title>
<polygon fill="#ffffff" stroke="transparent" points="-4,4 -4,-852 1526,-852 1526,4 -4,4"/>
<!-- Node0 -->
<g id="node1" class="node">
<title>Node0</title>
<polygon fill="#bfbfbf" stroke="#000000" points="1320.5,-828.5 1320.5,-847.5 1389.5,-847.5 1389.5,-828.5 1320.5,-828.5"/>
<text text-anchor="middle" x="1355" y="-835.5" font-family="Helvetica,sans-Serif" font-size="10.00" fill="#000000">schedule.h</text>
</g>
<!-- Node1 -->
<g id="node2" class="node">
<title>Node1</title>
<polygon fill="#ffffff" stroke="#bfbfbf" points="1338.5,-168.5 1338.5,-198.5 1455.5,-198.5 1455.5,-168.5 1338.5,-168.5"/>
<text text-anchor="start" x="1346.5" y="-186.5" font-family="Helvetica,sans-Serif" font-size="10.00" fill="#000000">odp/api/abi/schedule</text>
<text text-anchor="middle" x="1397" y="-175.5" font-family="Helvetica,sans-Serif" font-size="10.00" fill="#000000">_types.h</text>
</g>
<!-- Node0&#45;&gt;Node1 -->
<g id="edge1" class="edge">
<title>Node0&#45;&gt;Node1</title>
<path fill="none" stroke="#191970" d="M1378.3001,-828.4751C1394.2083,-820.8381 1414.5768,-808.6409 1427,-792 1445.2606,-767.5398 1446,-756.5246 1446,-726 1446,-726 1446,-726 1446,-306.5 1446,-269.9734 1427.1202,-231.4007 1412.799,-207.3958"/>
<polygon fill="#191970" stroke="#191970" points="1415.6259,-205.3123 1407.3916,-198.6453 1409.671,-208.9921 1415.6259,-205.3123"/>
</g>
<!-- Node2 -->
<g id="node3" class="node">
<title>Node2</title>
<polygon fill="#ffffff" stroke="#bfbfbf" points="1292,-772.5 1292,-791.5 1418,-791.5 1418,-772.5 1292,-772.5"/>
<text text-anchor="middle" x="1355" y="-779.5" font-family="Helvetica,sans-Serif" font-size="10.00" fill="#000000">odp/api/abi/schedule.h</text>
</g>
<!-- Node0&#45;&gt;Node2 -->
<g id="edge2" class="edge">
<title>Node0&#45;&gt;Node2</title>
<path fill="none" stroke="#191970" d="M1355,-828.2455C1355,-820.9382 1355,-810.6944 1355,-801.7046"/>
<polygon fill="#191970" stroke="#191970" points="1358.5001,-801.6426 1355,-791.6427 1351.5001,-801.6427 1358.5001,-801.6426"/>
</g>
<!-- Node3 -->
<g id="node4" class="node">
<title>Node3</title>
<g id="a_node4"><a xlink:href="api_2spec_2schedule_8h.html" target="_top" xlink:title="ODP schedule. ">
<polygon fill="#ffffff" stroke="#000000" points="1140,-772.5 1140,-791.5 1274,-791.5 1274,-772.5 1140,-772.5"/>
<text text-anchor="middle" x="1207" y="-779.5" font-family="Helvetica,sans-Serif" font-size="10.00" fill="#000000">odp/api/spec/schedule.h</text>
</a>
</g>
</g>
<!-- Node0&#45;&gt;Node3 -->
<g id="edge3" class="edge">
<title>Node0&#45;&gt;Node3</title>
<path fill="none" stroke="#191970" d="M1329.5579,-828.3733C1305.2674,-819.1822 1268.4792,-805.2624 1241.5457,-795.0713"/>
<polygon fill="#191970" stroke="#191970" points="1242.7016,-791.7666 1232.1101,-791.5011 1240.2243,-798.3136 1242.7016,-791.7666"/>
</g>
<!-- Node4 -->
<g id="node5" class="node">
<title>Node4</title>
<g id="a_node5"><a xlink:href="visibility__begin_8h_source.html" target="_top" xlink:title="odp/visibility_begin.h">
<polygon fill="#ffffff" stroke="#000000" points="1097.5,-.5 1097.5,-19.5 1218.5,-19.5 1218.5,-.5 1097.5,-.5"/>
<text text-anchor="middle" x="1158" y="-7.5" font-family="Helvetica,sans-Serif" font-size="10.00" fill="#000000">odp/visibility_begin.h</text>
</a>
</g>
</g>
<!-- Node3&#45;&gt;Node4 -->
<g id="edge4" class="edge">
<title>Node3&#45;&gt;Node4</title>
<path fill="none" stroke="#191970" d="M1274.2095,-772.7857C1332.6417,-760.5439 1408,-732.6178 1408,-670 1408,-670 1408,-670 1408,-614 1408,-495.7108 1522,-491.7892 1522,-373.5 1522,-373.5 1522,-373.5 1522,-122 1522,-71.6776 1476.449,-75.3607 1430,-56 1394.5747,-41.2342 1296.8942,-26.9271 1228.7953,-18.2919"/>
<polygon fill="#191970" stroke="#191970" points="1228.9119,-14.7792 1218.5541,-17.0076 1228.0408,-21.7247 1228.9119,-14.7792"/>
</g>
<!-- Node5 -->
<g id="node6" class="node">
<title>Node5</title>
<g id="a_node6"><a xlink:href="api_2std__types_8h.html" target="_top" xlink:title="Standard C language types and definitions for ODP. ">
<polygon fill="#ffffff" stroke="#000000" points="421,-235.5 421,-254.5 533,-254.5 533,-235.5 421,-235.5"/>
<text text-anchor="middle" x="477" y="-242.5" font-family="Helvetica,sans-Serif" font-size="10.00" fill="#000000">odp/api/std_types.h</text>
</a>
</g>
</g>
<!-- Node3&#45;&gt;Node5 -->
<g id="edge5" class="edge">
<title>Node3&#45;&gt;Node5</title>
<path fill="none" stroke="#191970" d="M1201.393,-772.4834C1190.8226,-753.6141 1169,-709.8343 1169,-670 1169,-670 1169,-670 1169,-614 1169,-575.2415 1141.6283,-572.9878 1112,-548 1027.4845,-476.7217 788.6837,-331.9819 686,-291 659.7966,-280.542 591.1247,-266.3026 539.5966,-256.4492"/>
<polygon fill="#191970" stroke="#191970" points="540.0146,-252.9661 529.5372,-254.5394 538.7089,-259.8433 540.0146,-252.9661"/>
</g>
<!-- Node12 -->
<g id="node13" class="node">
<title>Node12</title>
<g id="a_node13"><a xlink:href="visibility__end_8h_source.html" target="_top" xlink:title="odp/visibility_end.h">
<polygon fill="#ffffff" stroke="#000000" points="213,-.5 213,-19.5 325,-19.5 325,-.5 213,-.5"/>
<text text-anchor="middle" x="269" y="-7.5" font-family="Helvetica,sans-Serif" font-size="10.00" fill="#000000">odp/visibility_end.h</text>
</a>
</g>
</g>
<!-- Node3&#45;&gt;Node12 -->
<g id="edge76" class="edge">
<title>Node3&#45;&gt;Node12</title>
<path fill="none" stroke="#191970" d="M1139.9543,-779.3223C886.3426,-768.758 0,-727.709 0,-670 0,-670 0,-670 0,-122 0,-76.4587 133.0624,-39.5759 212.0169,-21.6996"/>
<polygon fill="#191970" stroke="#191970" points="212.8369,-25.1028 221.836,-19.511 211.314,-18.2705 212.8369,-25.1028"/>
</g>
<!-- Node13 -->
<g id="node14" class="node">
<title>Node13</title>
<g id="a_node14"><a xlink:href="api_2event_8h.html" target="_top" xlink:title="ODP event. ">
<polygon fill="#ffffff" stroke="#000000" points="617,-716.5 617,-735.5 709,-735.5 709,-716.5 617,-716.5"/>
<text text-anchor="middle" x="663" y="-723.5" font-family="Helvetica,sans-Serif" font-size="10.00" fill="#000000">odp/api/event.h</text>
</a>
</g>
</g>
<!-- Node3&#45;&gt;Node13 -->
<g id="edge16" class="edge">
<title>Node3&#45;&gt;Node13</title>
<path fill="none" stroke="#191970" d="M1139.7493,-775.0771C1031.3273,-763.916 819.8835,-742.1498 719.0696,-731.7719"/>
<polygon fill="#191970" stroke="#191970" points="719.3887,-728.2863 709.0828,-730.7438 718.6718,-735.2495 719.3887,-728.2863"/>
</g>
<!-- Node31 -->
<g id="node32" class="node">
<title>Node31</title>
<g id="a_node32"><a xlink:href="api_2queue__types_8h.html" target="_top" xlink:title="ODP queue. ">
<polygon fill="#ffffff" stroke="#000000" points="889.5,-364 889.5,-383 1016.5,-383 1016.5,-364 889.5,-364"/>
<text text-anchor="middle" x="953" y="-371" font-family="Helvetica,sans-Serif" font-size="10.00" fill="#000000">odp/api/queue_types.h</text>
</a>
</g>
</g>
<!-- Node3&#45;&gt;Node31 -->
<g id="edge68" class="edge">
<title>Node3&#45;&gt;Node31</title>
<path fill="none" stroke="#191970" d="M1207,-772.4116C1207,-753.0538 1207,-707.9167 1207,-670 1207,-670 1207,-670 1207,-502 1207,-420.6994 1102.1061,-390.8241 1027.1334,-379.8543"/>
<polygon fill="#191970" stroke="#191970" points="1027.1507,-376.3238 1016.7671,-378.4285 1026.1969,-383.2585 1027.1507,-376.3238"/>
</g>
<!-- Node34 -->
<g id="node35" class="node">
<title>Node34</title>
<g id="a_node35"><a xlink:href="api_2schedule__types_8h.html" target="_top" xlink:title="ODP schedule. ">
<polygon fill="#ffffff" stroke="#000000" points="1104,-235.5 1104,-254.5 1244,-254.5 1244,-235.5 1104,-235.5"/>
<text text-anchor="middle" x="1174" y="-242.5" font-family="Helvetica,sans-Serif" font-size="10.00" fill="#000000">odp/api/schedule_types.h</text>
</a>
</g>
</g>
<!-- Node3&#45;&gt;Node34 -->
<g id="edge69" class="edge">
<title>Node3&#45;&gt;Node34</title>
<path fill="none" stroke="#191970" d="M1216.2188,-772.4119C1232.8125,-754.0983 1266,-712.1966 1266,-670 1266,-670 1266,-670 1266,-373.5 1266,-325.4697 1222.9815,-283.0407 1195.7772,-261.0112"/>
<polygon fill="#191970" stroke="#191970" points="1197.6077,-257.9994 1187.5749,-254.5943 1193.2944,-263.5127 1197.6077,-257.9994"/>
</g>
<!-- Node40 -->
<g id="node41" class="node">
<title>Node40</title>
<g id="a_node41"><a xlink:href="api_2thrmask_8h.html" target="_top" xlink:title="ODP thread masks. ">
<polygon fill="#ffffff" stroke="#000000" points="1294.5,-364 1294.5,-383 1399.5,-383 1399.5,-364 1294.5,-364"/>
<text text-anchor="middle" x="1347" y="-371" font-family="Helvetica,sans-Serif" font-size="10.00" fill="#000000">odp/api/thrmask.h</text>
</a>
</g>
</g>
<!-- Node3&#45;&gt;Node40 -->
<g id="edge70" class="edge">
<title>Node3&#45;&gt;Node40</title>
<path fill="none" stroke="#191970" d="M1230.313,-772.4813C1264.7018,-756.7105 1325,-721.6879 1325,-670 1325,-670 1325,-670 1325,-502 1325,-462.7651 1335.0874,-417.7457 1341.601,-392.7655"/>
<polygon fill="#191970" stroke="#191970" points="1344.9896,-393.6422 1344.2137,-383.0758 1338.2309,-391.8198 1344.9896,-393.6422"/>
</g>
<!-- Node6 -->
<g id="node7" class="node">
<title>Node6</title>
<polygon fill="#ffffff" stroke="#bfbfbf" points="522,-174 522,-193 652,-193 652,-174 522,-174"/>
<text text-anchor="middle" x="587" y="-181" font-family="Helvetica,sans-Serif" font-size="10.00" fill="#000000">odp/api/abi/std_types.h</text>
</g>
<!-- Node5&#45;&gt;Node6 -->
<g id="edge6" class="edge">
<title>Node5&#45;&gt;Node6</title>
<path fill="none" stroke="#191970" d="M494.1875,-235.3906C512.1082,-225.3713 540.4095,-209.5483 561.0523,-198.0071"/>
<polygon fill="#191970" stroke="#191970" points="562.9128,-200.9769 569.9332,-193.0419 559.4967,-194.867 562.9128,-200.9769"/>
</g>
<!-- Node7 -->
<g id="node8" class="node">
<title>Node7</title>
<g id="a_node8"><a xlink:href="api_2spec_2std__types_8h.html" target="_top" xlink:title="Standard C language types and definitions for ODP. ">
<polygon fill="#ffffff" stroke="#000000" points="328.5,-174 328.5,-193 465.5,-193 465.5,-174 328.5,-174"/>
<text text-anchor="middle" x="397" y="-181" font-family="Helvetica,sans-Serif" font-size="10.00" fill="#000000">odp/api/spec/std_types.h</text>
</a>
</g>
</g>
<!-- Node5&#45;&gt;Node7 -->
<g id="edge7" class="edge">
<title>Node5&#45;&gt;Node7</title>
<path fill="none" stroke="#191970" d="M464.5,-235.3906C451.9364,-225.7324 432.3577,-210.6812 417.5151,-199.271"/>
<polygon fill="#191970" stroke="#191970" points="419.4735,-196.3618 409.4122,-193.0419 415.2072,-201.9115 419.4735,-196.3618"/>
</g>
<!-- Node7&#45;&gt;Node4 -->
<g id="edge8" class="edge">
<title>Node7&#45;&gt;Node4</title>
<path fill="none" stroke="#191970" d="M441.1655,-173.9288C525.9586,-155.4867 717.396,-113.5291 878,-76 914.5287,-67.4642 923.5074,-64.6891 960,-56 1009.6884,-44.1689 1066.4813,-31.0122 1106.4629,-21.8104"/>
<polygon fill="#191970" stroke="#191970" points="1107.2898,-25.2117 1116.251,-19.5594 1105.7209,-18.3898 1107.2898,-25.2117"/>
</g>
<!-- Node8 -->
<g id="node9" class="node">
<title>Node8</title>
<polygon fill="#ffffff" stroke="#bfbfbf" points="335.5,-112.5 335.5,-131.5 388.5,-131.5 388.5,-112.5 335.5,-112.5"/>
<text text-anchor="middle" x="362" y="-119.5" font-family="Helvetica,sans-Serif" font-size="10.00" fill="#000000">stdint.h</text>
</g>
<!-- Node7&#45;&gt;Node8 -->
<g id="edge9" class="edge">
<title>Node7&#45;&gt;Node8</title>
<path fill="none" stroke="#191970" d="M391.5313,-173.8906C386.4754,-165.0068 378.8228,-151.5601 372.5746,-140.5811"/>
<polygon fill="#191970" stroke="#191970" points="375.534,-138.7048 367.5459,-131.7449 369.4502,-142.1672 375.534,-138.7048"/>
</g>
<!-- Node9 -->
<g id="node10" class="node">
<title>Node9</title>
<g id="a_node10"><a xlink:href="api_2align_8h.html" target="_top" xlink:title="ODP alignments. ">
<polygon fill="#ffffff" stroke="#000000" points="406.5,-112.5 406.5,-131.5 495.5,-131.5 495.5,-112.5 406.5,-112.5"/>
<text text-anchor="middle" x="451" y="-119.5" font-family="Helvetica,sans-Serif" font-size="10.00" fill="#000000">odp/api/align.h</text>
</a>
</g>
</g>
<!-- Node7&#45;&gt;Node9 -->
<g id="edge10" class="edge">
<title>Node7&#45;&gt;Node9</title>
<path fill="none" stroke="#191970" d="M405.4375,-173.8906C413.5531,-164.6478 426.0055,-150.466 435.8424,-139.2628"/>
<polygon fill="#191970" stroke="#191970" points="438.4755,-141.5686 442.4435,-131.7449 433.2154,-136.95 438.4755,-141.5686"/>
</g>
<!-- Node7&#45;&gt;Node12 -->
<g id="edge15" class="edge">
<title>Node7&#45;&gt;Node12</title>
<path fill="none" stroke="#191970" d="M378.9718,-173.9232C363.2968,-164.8526 340.8332,-149.9662 326,-132 299.9528,-100.4511 282.8809,-55.0248 274.6852,-29.437"/>
<polygon fill="#191970" stroke="#191970" points="278.0013,-28.3127 271.7159,-19.7836 271.3106,-30.3707 278.0013,-28.3127"/>
</g>
<!-- Node10 -->
<g id="node11" class="node">
<title>Node10</title>
<polygon fill="#ffffff" stroke="#bfbfbf" points="335.5,-56.5 335.5,-75.5 442.5,-75.5 442.5,-56.5 335.5,-56.5"/>
<text text-anchor="middle" x="389" y="-63.5" font-family="Helvetica,sans-Serif" font-size="10.00" fill="#000000">odp/api/abi/align.h</text>
</g>
<!-- Node9&#45;&gt;Node10 -->
<g id="edge11" class="edge">
<title>Node9&#45;&gt;Node10</title>
<path fill="none" stroke="#191970" d="M440.2004,-112.2455C431.1322,-104.0549 417.9794,-92.1749 407.2755,-82.5069"/>
<polygon fill="#191970" stroke="#191970" points="409.4429,-79.7482 399.6758,-75.6427 404.7509,-84.9429 409.4429,-79.7482"/>
</g>
<!-- Node11 -->
<g id="node12" class="node">
<title>Node11</title>
<g id="a_node12"><a xlink:href="api_2spec_2align_8h.html" target="_top" xlink:title="ODP alignments. ">
<polygon fill="#ffffff" stroke="#000000" points="461,-56.5 461,-75.5 575,-75.5 575,-56.5 461,-56.5"/>
<text text-anchor="middle" x="518" y="-63.5" font-family="Helvetica,sans-Serif" font-size="10.00" fill="#000000">odp/api/spec/align.h</text>
</a>
</g>
</g>
<!-- Node9&#45;&gt;Node11 -->
<g id="edge12" class="edge">
<title>Node9&#45;&gt;Node11</title>
<path fill="none" stroke="#191970" d="M462.6705,-112.2455C472.5661,-103.9746 486.9627,-91.9416 498.5901,-82.2232"/>
<polygon fill="#191970" stroke="#191970" points="501.035,-84.7413 506.4632,-75.6427 496.5458,-79.3703 501.035,-84.7413"/>
</g>
<!-- Node11&#45;&gt;Node4 -->
<g id="edge13" class="edge">
<title>Node11&#45;&gt;Node4</title>
<path fill="none" stroke="#191970" d="M575.2044,-57.0807C578.1765,-56.6962 581.1219,-56.3329 584,-56 764.6278,-35.1046 978.3354,-20.6808 1086.9401,-14.0803"/>
<polygon fill="#191970" stroke="#191970" points="1087.3466,-17.5622 1097.1175,-13.466 1086.9248,-10.5749 1087.3466,-17.5622"/>
</g>
<!-- Node11&#45;&gt;Node12 -->
<g id="edge14" class="edge">
<title>Node11&#45;&gt;Node12</title>
<path fill="none" stroke="#191970" d="M475.4783,-56.4369C432.8639,-46.8529 367.1824,-32.0812 321.379,-21.78"/>
<polygon fill="#191970" stroke="#191970" points="321.8706,-18.3032 311.3463,-19.5237 320.3346,-25.1326 321.8706,-18.3032"/>
</g>
<!-- Node14 -->
<g id="node15" class="node">
<title>Node14</title>
<polygon fill="#ffffff" stroke="#bfbfbf" points="28,-548.5 28,-567.5 138,-567.5 138,-548.5 28,-548.5"/>
<text text-anchor="middle" x="83" y="-555.5" font-family="Helvetica,sans-Serif" font-size="10.00" fill="#000000">odp/api/abi/event.h</text>
</g>
<!-- Node13&#45;&gt;Node14 -->
<g id="edge17" class="edge">
<title>Node13&#45;&gt;Node14</title>
<path fill="none" stroke="#191970" d="M616.8339,-720.1478C507.0385,-705.6978 233.4418,-666.4098 152,-624 129.631,-612.3516 109.4795,-591.2378 96.8104,-576.0233"/>
<polygon fill="#191970" stroke="#191970" points="99.2467,-573.4674 90.2554,-567.8631 93.7893,-577.8512 99.2467,-573.4674"/>
</g>
<!-- Node15 -->
<g id="node16" class="node">
<title>Node15</title>
<g id="a_node16"><a xlink:href="api_2spec_2event_8h.html" target="_top" xlink:title="ODP event. ">
<polygon fill="#ffffff" stroke="#000000" points="604,-660.5 604,-679.5 722,-679.5 722,-660.5 604,-660.5"/>
<text text-anchor="middle" x="663" y="-667.5" font-family="Helvetica,sans-Serif" font-size="10.00" fill="#000000">odp/api/spec/event.h</text>
</a>
</g>
</g>
<!-- Node13&#45;&gt;Node15 -->
<g id="edge18" class="edge">
<title>Node13&#45;&gt;Node15</title>
<path fill="none" stroke="#191970" d="M663,-716.2455C663,-708.9382 663,-698.6944 663,-689.7046"/>
<polygon fill="#191970" stroke="#191970" points="666.5001,-689.6426 663,-679.6427 659.5001,-689.6427 666.5001,-689.6426"/>
</g>
<!-- Node15&#45;&gt;Node4 -->
<g id="edge19" class="edge">
<title>Node15&#45;&gt;Node4</title>
<path fill="none" stroke="#191970" d="M722.0443,-661.7702C910.2922,-633.8982 1484,-535.6532 1484,-373.5 1484,-373.5 1484,-373.5 1484,-122 1484,-68.3916 1324.3319,-34.9628 1228.4807,-19.7248"/>
<polygon fill="#191970" stroke="#191970" points="1228.9743,-16.2595 1218.5541,-18.1752 1227.8946,-23.1758 1228.9743,-16.2595"/>
</g>
<!-- Node15&#45;&gt;Node12 -->
<g id="edge67" class="edge">
<title>Node15&#45;&gt;Node12</title>
<path fill="none" stroke="#191970" d="M603.8783,-666.1356C526.4912,-658.458 389.7064,-635.6303 296,-568 155.7646,-466.7885 79,-417.9443 79,-245 79,-245 79,-245 79,-122 79,-62.973 147.8954,-34.4224 202.7129,-21.048"/>
<polygon fill="#191970" stroke="#191970" points="203.8107,-24.3866 212.7649,-18.7234 202.2334,-17.5666 203.8107,-24.3866"/>
</g>
<!-- Node16 -->
<g id="node17" class="node">
<title>Node16</title>
<g id="a_node17"><a xlink:href="api_2packet_8h.html" target="_top" xlink:title="ODP packet descriptor. ">
<polygon fill="#ffffff" stroke="#000000" points="614,-604.5 614,-623.5 712,-623.5 712,-604.5 614,-604.5"/>
<text text-anchor="middle" x="663" y="-611.5" font-family="Helvetica,sans-Serif" font-size="10.00" fill="#000000">odp/api/packet.h</text>
</a>
</g>
</g>
<!-- Node15&#45;&gt;Node16 -->
<g id="edge20" class="edge">
<title>Node15&#45;&gt;Node16</title>
<path fill="none" stroke="#191970" d="M663,-660.2455C663,-652.9382 663,-642.6944 663,-633.7046"/>
<polygon fill="#191970" stroke="#191970" points="666.5001,-633.6426 663,-623.6427 659.5001,-633.6427 666.5001,-633.6426"/>
</g>
<!-- Node16&#45;&gt;Node5 -->
<g id="edge21" class="edge">
<title>Node16&#45;&gt;Node5</title>
<path fill="none" stroke="#191970" d="M613.7496,-612.6644C545.2969,-609.6511 426.763,-599.8503 400,-568 380.7943,-545.1436 176.4165,-728.7318 414,-291 421.2779,-277.591 434.3506,-267.0754 446.7086,-259.5035"/>
<polygon fill="#191970" stroke="#191970" points="448.5253,-262.4968 455.4877,-254.5109 445.0648,-256.4119 448.5253,-262.4968"/>
</g>
<!-- Node16&#45;&gt;Node14 -->
<g id="edge22" class="edge">
<title>Node16&#45;&gt;Node14</title>
<path fill="none" stroke="#191970" d="M613.5495,-609.2255C509.043,-599.1352 265.7303,-575.6429 148.4756,-564.3218"/>
<polygon fill="#191970" stroke="#191970" points="148.5008,-560.808 138.2107,-563.3307 147.8281,-567.7756 148.5008,-560.808"/>
</g>
<!-- Node17 -->
<g id="node18" class="node">
<title>Node17</title>
<polygon fill="#ffffff" stroke="#bfbfbf" points="551,-548.5 551,-567.5 681,-567.5 681,-548.5 551,-548.5"/>
<text text-anchor="middle" x="616" y="-555.5" font-family="Helvetica,sans-Serif" font-size="10.00" fill="#000000">odp/api/abi/packet_io.h</text>
</g>
<!-- Node16&#45;&gt;Node17 -->
<g id="edge23" class="edge">
<title>Node16&#45;&gt;Node17</title>
<path fill="none" stroke="#191970" d="M654.8132,-604.2455C648.1411,-596.2958 638.5521,-584.8706 630.5747,-575.3656"/>
<polygon fill="#191970" stroke="#191970" points="633.2026,-573.0524 624.093,-567.6427 627.8408,-577.5525 633.2026,-573.0524"/>
</g>
<!-- Node18 -->
<g id="node19" class="node">
<title>Node18</title>
<polygon fill="#ffffff" stroke="#bfbfbf" points="669.5,-425.5 669.5,-455.5 776.5,-455.5 776.5,-425.5 669.5,-425.5"/>
<text text-anchor="start" x="677.5" y="-443.5" font-family="Helvetica,sans-Serif" font-size="10.00" fill="#000000">odp/api/abi/packet</text>
<text text-anchor="middle" x="723" y="-432.5" font-family="Helvetica,sans-Serif" font-size="10.00" fill="#000000">_types.h</text>
</g>
<!-- Node16&#45;&gt;Node18 -->
<g id="edge24" class="edge">
<title>Node16&#45;&gt;Node18</title>
<path fill="none" stroke="#191970" d="M669.8485,-604.1879C675.8876,-595.1482 684.5516,-581.1788 690,-568 704.1272,-533.8284 713.5747,-491.9497 718.6174,-465.7378"/>
<polygon fill="#191970" stroke="#191970" points="722.0676,-466.3278 720.4516,-455.8569 715.1852,-465.0502 722.0676,-466.3278"/>
</g>
<!-- Node19 -->
<g id="node20" class="node">
<title>Node19</title>
<polygon fill="#ffffff" stroke="#bfbfbf" points="737,-548.5 737,-567.5 853,-567.5 853,-548.5 737,-548.5"/>
<text text-anchor="middle" x="795" y="-555.5" font-family="Helvetica,sans-Serif" font-size="10.00" fill="#000000">odp/api/abi/packet.h</text>
</g>
<!-- Node16&#45;&gt;Node19 -->
<g id="edge25" class="edge">
<title>Node16&#45;&gt;Node19</title>
<path fill="none" stroke="#191970" d="M685.6916,-604.3733C707.0711,-595.3032 739.3057,-581.6279 763.2362,-571.4755"/>
<polygon fill="#191970" stroke="#191970" points="764.7656,-574.6287 772.6045,-567.5011 762.0317,-568.1846 764.7656,-574.6287"/>
</g>
<!-- Node20 -->
<g id="node21" class="node">
<title>Node20</title>
<polygon fill="#ffffff" stroke="#bfbfbf" points="871,-548.5 871,-567.5 981,-567.5 981,-548.5 871,-548.5"/>
<text text-anchor="middle" x="926" y="-555.5" font-family="Helvetica,sans-Serif" font-size="10.00" fill="#000000">odp/api/abi/buffer.h</text>
</g>
<!-- Node16&#45;&gt;Node20 -->
<g id="edge26" class="edge">
<title>Node16&#45;&gt;Node20</title>
<path fill="none" stroke="#191970" d="M707.9125,-604.4369C753.112,-594.8127 822.8807,-579.957 871.2847,-569.6504"/>
<polygon fill="#191970" stroke="#191970" points="872.221,-573.0296 881.2728,-567.5237 870.7631,-566.1831 872.221,-573.0296"/>
</g>
<!-- Node21 -->
<g id="node22" class="node">
<title>Node21</title>
<polygon fill="#ffffff" stroke="#bfbfbf" points="999,-548.5 999,-567.5 1103,-567.5 1103,-548.5 999,-548.5"/>
<text text-anchor="middle" x="1051" y="-555.5" font-family="Helvetica,sans-Serif" font-size="10.00" fill="#000000">odp/api/abi/pool.h</text>
</g>
<!-- Node16&#45;&gt;Node21 -->
<g id="edge27" class="edge">
<title>Node16&#45;&gt;Node21</title>
<path fill="none" stroke="#191970" d="M712.0792,-607.45C774.0896,-599.0955 884.3603,-583.9785 988.6926,-568.174"/>
<polygon fill="#191970" stroke="#191970" points="989.4084,-571.6055 998.7689,-566.6426 988.3565,-564.685 989.4084,-571.6055"/>
</g>
<!-- Node22 -->
<g id="node23" class="node">
<title>Node22</title>
<g id="a_node23"><a xlink:href="api_2spec_2packet_8h.html" target="_top" xlink:title="ODP packet descriptor. ">
<polygon fill="#ffffff" stroke="#000000" points="409.5,-548.5 409.5,-567.5 532.5,-567.5 532.5,-548.5 409.5,-548.5"/>
<text text-anchor="middle" x="471" y="-555.5" font-family="Helvetica,sans-Serif" font-size="10.00" fill="#000000">odp/api/spec/packet.h</text>
</a>
</g>
</g>
<!-- Node16&#45;&gt;Node22 -->
<g id="edge28" class="edge">
<title>Node16&#45;&gt;Node22</title>
<path fill="none" stroke="#191970" d="M629.994,-604.3733C597.7909,-594.9807 548.6558,-580.6496 513.5361,-570.4064"/>
<polygon fill="#191970" stroke="#191970" points="514.1553,-566.9412 503.5753,-567.5011 512.1953,-573.6612 514.1553,-566.9412"/>
</g>
<!-- Node22&#45;&gt;Node4 -->
<g id="edge29" class="edge">
<title>Node22&#45;&gt;Node4</title>
<path fill="none" stroke="#191970" d="M479.3835,-548.4319C491.9119,-534.5748 516.7591,-508.7502 542,-492 574.4871,-470.4411 588.8334,-476.4981 622,-456 640.5407,-444.5412 639.8505,-433.3101 660,-425 811.1051,-362.6807 866.6502,-425.3881 1026,-389 1110.4395,-369.7179 1136.5338,-369.4392 1209,-322 1272.7411,-280.2726 1310,-259.6846 1310,-183.5 1310,-183.5 1310,-183.5 1310,-122 1310,-68.8635 1249.0521,-38.1127 1204.3436,-22.7035"/>
<polygon fill="#191970" stroke="#191970" points="1205.388,-19.3626 1194.795,-19.5566 1203.1969,-26.0108 1205.388,-19.3626"/>
</g>
<!-- Node22&#45;&gt;Node12 -->
<g id="edge66" class="edge">
<title>Node22&#45;&gt;Node12</title>
<path fill="none" stroke="#191970" d="M450.1822,-548.3183C393.9994,-521.1074 238.1324,-438.2785 158,-322 121.5721,-269.1403 117,-247.6961 117,-183.5 117,-183.5 117,-183.5 117,-122 117,-68.8635 177.9479,-38.1127 222.6564,-22.7035"/>
<polygon fill="#191970" stroke="#191970" points="223.8031,-26.0108 232.205,-19.5566 221.612,-19.3626 223.8031,-26.0108"/>
</g>
<!-- Node23 -->
<g id="node24" class="node">
<title>Node23</title>
<g id="a_node24"><a xlink:href="api_2proto__stats__types_8h.html" target="_top" xlink:title="ODP proto stats types. ">
<polygon fill="#ffffff" stroke="#000000" points="461,-358.5 461,-388.5 571,-388.5 571,-358.5 461,-358.5"/>
<text text-anchor="start" x="469" y="-376.5" font-family="Helvetica,sans-Serif" font-size="10.00" fill="#000000">odp/api/proto_stats</text>
<text text-anchor="middle" x="516" y="-365.5" font-family="Helvetica,sans-Serif" font-size="10.00" fill="#000000">_types.h</text>
</a>
</g>
</g>
<!-- Node22&#45;&gt;Node23 -->
<g id="edge30" class="edge">
<title>Node22&#45;&gt;Node23</title>
<path fill="none" stroke="#191970" d="M471.3065,-548.4138C472.2433,-526.2074 475.9344,-469.723 490,-425 492.9256,-415.6979 497.3864,-406.0224 501.7916,-397.603"/>
<polygon fill="#191970" stroke="#191970" points="504.924,-399.1699 506.6568,-388.7177 498.7841,-395.8079 504.924,-399.1699"/>
</g>
<!-- Node26 -->
<g id="node27" class="node">
<title>Node26</title>
<g id="a_node27"><a xlink:href="api_2time_8h.html" target="_top" xlink:title="ODP time. ">
<polygon fill="#ffffff" stroke="#000000" points="192.5,-297 192.5,-316 279.5,-316 279.5,-297 192.5,-297"/>
<text text-anchor="middle" x="236" y="-304" font-family="Helvetica,sans-Serif" font-size="10.00" fill="#000000">odp/api/time.h</text>
</a>
</g>
</g>
<!-- Node22&#45;&gt;Node26 -->
<g id="edge36" class="edge">
<title>Node22&#45;&gt;Node26</title>
<path fill="none" stroke="#191970" d="M462.0747,-548.448C426.8859,-510.7885 297.4652,-372.2809 251.9556,-323.5759"/>
<polygon fill="#191970" stroke="#191970" points="254.3189,-320.9787 244.9342,-316.0615 249.2042,-325.7578 254.3189,-320.9787"/>
</g>
<!-- Node29 -->
<g id="node30" class="node">
<title>Node29</title>
<g id="a_node30"><a xlink:href="api_2packet__types_8h.html" target="_top" xlink:title="ODP packet. ">
<polygon fill="#ffffff" stroke="#000000" points="551,-492.5 551,-511.5 681,-511.5 681,-492.5 551,-492.5"/>
<text text-anchor="middle" x="616" y="-499.5" font-family="Helvetica,sans-Serif" font-size="10.00" fill="#000000">odp/api/packet_types.h</text>
</a>
</g>
</g>
<!-- Node22&#45;&gt;Node29 -->
<g id="edge42" class="edge">
<title>Node22&#45;&gt;Node29</title>
<path fill="none" stroke="#191970" d="M495.9264,-548.3733C519.6202,-539.2226 555.4511,-525.3844 581.8068,-515.2057"/>
<polygon fill="#191970" stroke="#191970" points="583.3314,-518.3689 591.3989,-511.5011 580.8094,-511.8389 583.3314,-518.3689"/>
</g>
<!-- Node24 -->
<g id="node25" class="node">
<title>Node24</title>
<polygon fill="#ffffff" stroke="#bfbfbf" points="549,-291.5 549,-321.5 677,-321.5 677,-291.5 549,-291.5"/>
<text text-anchor="start" x="557" y="-309.5" font-family="Helvetica,sans-Serif" font-size="10.00" fill="#000000">odp/api/abi/proto_stats</text>
<text text-anchor="middle" x="613" y="-298.5" font-family="Helvetica,sans-Serif" font-size="10.00" fill="#000000">_types.h</text>
</g>
<!-- Node23&#45;&gt;Node24 -->
<g id="edge31" class="edge">
<title>Node23&#45;&gt;Node24</title>
<path fill="none" stroke="#191970" d="M538.0108,-358.2967C551.157,-349.2163 568.0487,-337.5488 582.471,-327.587"/>
<polygon fill="#191970" stroke="#191970" points="584.8374,-330.2063 591.0763,-321.6432 580.8591,-324.4467 584.8374,-330.2063"/>
</g>
<!-- Node25 -->
<g id="node26" class="node">
<title>Node25</title>
<g id="a_node26"><a xlink:href="api_2spec_2proto__stats__types_8h.html" target="_top" xlink:title="ODP proto stats types. ">
<polygon fill="#ffffff" stroke="#000000" points="423.5,-291.5 423.5,-321.5 530.5,-321.5 530.5,-291.5 423.5,-291.5"/>
<text text-anchor="start" x="431.5" y="-309.5" font-family="Helvetica,sans-Serif" font-size="10.00" fill="#000000">odp/api/spec/proto</text>
<text text-anchor="middle" x="477" y="-298.5" font-family="Helvetica,sans-Serif" font-size="10.00" fill="#000000">_stats_types.h</text>
</a>
</g>
</g>
<!-- Node23&#45;&gt;Node25 -->
<g id="edge32" class="edge">
<title>Node23&#45;&gt;Node25</title>
<path fill="none" stroke="#191970" d="M507.1503,-358.2967C502.3634,-350.0729 496.3412,-339.7272 490.9401,-330.4483"/>
<polygon fill="#191970" stroke="#191970" points="493.8703,-328.5249 485.8147,-321.6432 487.8206,-332.0464 493.8703,-328.5249"/>
</g>
<!-- Node25&#45;&gt;Node4 -->
<g id="edge33" class="edge">
<title>Node25&#45;&gt;Node4</title>
<path fill="none" stroke="#191970" d="M503.7086,-291.4409C578.8964,-249.5182 799.5479,-129.7093 994,-56 1030.8365,-42.0367 1073.746,-30.1492 1106.4326,-21.9582"/>
<polygon fill="#191970" stroke="#191970" points="1107.3623,-25.3339 1116.2304,-19.5367 1105.6828,-18.5383 1107.3623,-25.3339"/>
</g>
<!-- Node25&#45;&gt;Node5 -->
<g id="edge34" class="edge">
<title>Node25&#45;&gt;Node5</title>
<path fill="none" stroke="#191970" d="M477,-291.2977C477,-283.3834 477,-273.6043 477,-265.0759"/>
<polygon fill="#191970" stroke="#191970" points="480.5001,-264.8469 477,-254.8469 473.5001,-264.847 480.5001,-264.8469"/>
</g>
<!-- Node25&#45;&gt;Node12 -->
<g id="edge35" class="edge">
<title>Node25&#45;&gt;Node12</title>
<path fill="none" stroke="#191970" d="M438.5187,-291.4239C374.119,-265.8903 250.1347,-215.3197 236,-199 194.025,-150.5365 190.6653,-114.456 217,-56 222.5697,-43.6369 233.2863,-33.2563 243.5506,-25.5033"/>
<polygon fill="#191970" stroke="#191970" points="245.7618,-28.2277 251.9433,-19.623 241.7451,-22.4948 245.7618,-28.2277"/>
</g>
<!-- Node26&#45;&gt;Node5 -->
<g id="edge37" class="edge">
<title>Node26&#45;&gt;Node5</title>
<path fill="none" stroke="#191970" d="M271.2503,-296.9899C278.754,-294.9906 286.6349,-292.9097 294,-291 339.5071,-279.2005 391.5009,-266.1747 428.4084,-257.0055"/>
<polygon fill="#191970" stroke="#191970" points="429.5376,-260.3314 438.4002,-254.5257 427.8515,-253.5375 429.5376,-260.3314"/>
</g>
<!-- Node27 -->
<g id="node28" class="node">
<title>Node27</title>
<polygon fill="#ffffff" stroke="#bfbfbf" points="183.5,-235.5 183.5,-254.5 288.5,-254.5 288.5,-235.5 183.5,-235.5"/>
<text text-anchor="middle" x="236" y="-242.5" font-family="Helvetica,sans-Serif" font-size="10.00" fill="#000000">odp/api/abi/time.h</text>
</g>
<!-- Node26&#45;&gt;Node27 -->
<g id="edge38" class="edge">
<title>Node26&#45;&gt;Node27</title>
<path fill="none" stroke="#191970" d="M236,-296.8906C236,-288.3657 236,-275.6392 236,-264.9235"/>
<polygon fill="#191970" stroke="#191970" points="239.5001,-264.7448 236,-254.7449 232.5001,-264.7449 239.5001,-264.7448"/>
</g>
<!-- Node28 -->
<g id="node29" class="node">
<title>Node28</title>
<g id="a_node29"><a xlink:href="api_2spec_2time_8h.html" target="_top" xlink:title="ODP time. ">
<polygon fill="#ffffff" stroke="#000000" points="593.5,-56.5 593.5,-75.5 706.5,-75.5 706.5,-56.5 593.5,-56.5"/>
<text text-anchor="middle" x="650" y="-63.5" font-family="Helvetica,sans-Serif" font-size="10.00" fill="#000000">odp/api/spec/time.h</text>
</a>
</g>
</g>
<!-- Node26&#45;&gt;Node28 -->
<g id="edge39" class="edge">
<title>Node26&#45;&gt;Node28</title>
<path fill="none" stroke="#191970" d="M262.7768,-296.9066C307.9939,-280.1683 401.6282,-243.1655 474,-199 492.9006,-187.4657 495.451,-181.502 513,-168 553.3295,-136.9708 601.1496,-101.7091 628.2969,-81.8315"/>
<polygon fill="#191970" stroke="#191970" points="630.6641,-84.4364 636.6702,-75.7085 626.5322,-78.786 630.6641,-84.4364"/>
</g>
<!-- Node28&#45;&gt;Node4 -->
<g id="edge40" class="edge">
<title>Node28&#45;&gt;Node4</title>
<path fill="none" stroke="#191970" d="M706.6971,-57.1094C709.5028,-56.7222 712.2822,-56.3499 715,-56 846.1249,-39.116 999.7084,-24.2657 1087.2586,-16.2642"/>
<polygon fill="#191970" stroke="#191970" points="1087.7005,-19.7385 1097.3419,-15.3462 1087.0658,-12.7673 1087.7005,-19.7385"/>
</g>
<!-- Node28&#45;&gt;Node12 -->
<g id="edge41" class="edge">
<title>Node28&#45;&gt;Node12</title>
<path fill="none" stroke="#191970" d="M593.4773,-57.4156C590.2713,-56.935 587.095,-56.4604 584,-56 497.9925,-43.2045 398.7234,-28.762 334.9793,-19.53"/>
<polygon fill="#191970" stroke="#191970" points="335.4596,-16.0631 325.0612,-18.0941 334.4565,-22.9909 335.4596,-16.0631"/>
</g>
<!-- Node29&#45;&gt;Node18 -->
<g id="edge43" class="edge">
<title>Node29&#45;&gt;Node18</title>
<path fill="none" stroke="#191970" d="M632.7188,-492.3906C647.4681,-483.9132 669.4462,-471.2809 688.0244,-460.6028"/>
<polygon fill="#191970" stroke="#191970" points="689.899,-463.5623 696.8249,-455.5446 686.4108,-457.4933 689.899,-463.5623"/>
</g>
<!-- Node30 -->
<g id="node31" class="node">
<title>Node30</title>
<g id="a_node31"><a xlink:href="api_2spec_2packet__types_8h.html" target="_top" xlink:title="ODP packet types. ">
<polygon fill="#ffffff" stroke="#000000" points="499,-425.5 499,-455.5 613,-455.5 613,-425.5 499,-425.5"/>
<text text-anchor="start" x="507" y="-443.5" font-family="Helvetica,sans-Serif" font-size="10.00" fill="#000000">odp/api/spec/packet</text>
<text text-anchor="middle" x="556" y="-432.5" font-family="Helvetica,sans-Serif" font-size="10.00" fill="#000000">_types.h</text>
</a>
</g>
</g>
<!-- Node29&#45;&gt;Node30 -->
<g id="edge44" class="edge">
<title>Node29&#45;&gt;Node30</title>
<path fill="none" stroke="#191970" d="M606.625,-492.3906C598.9559,-484.5298 587.8013,-473.0964 577.9134,-462.9612"/>
<polygon fill="#191970" stroke="#191970" points="580.1662,-460.2583 570.6777,-455.5446 575.1557,-465.1466 580.1662,-460.2583"/>
</g>
<!-- Node30&#45;&gt;Node4 -->
<g id="edge45" class="edge">
<title>Node30&#45;&gt;Node4</title>
<path fill="none" stroke="#191970" d="M572.3906,-425.4716C606.1651,-395.3225 687.0671,-327.2524 767,-291 786.9784,-281.9391 1136.3954,-215.3689 1151,-199 1193.3783,-151.5022 1175.5866,-67.5566 1164.453,-29.604"/>
<polygon fill="#191970" stroke="#191970" points="1167.7153,-28.3066 1161.4149,-19.7886 1161.0283,-30.3764 1167.7153,-28.3066"/>
</g>
<!-- Node30&#45;&gt;Node12 -->
<g id="edge65" class="edge">
<title>Node30&#45;&gt;Node12</title>
<path fill="none" stroke="#191970" d="M498.9373,-429.6955C405.3791,-410.8298 225.4859,-369.3476 183,-322 141.0577,-275.2582 155,-246.3009 155,-183.5 155,-183.5 155,-183.5 155,-122 155,-75.4628 203.9383,-41.828 237.6864,-24.1659"/>
<polygon fill="#191970" stroke="#191970" points="239.3862,-27.2289 246.749,-19.6105 236.2424,-20.9746 239.3862,-27.2289"/>
</g>
<!-- Node30&#45;&gt;Node23 -->
<g id="edge46" class="edge">
<title>Node30&#45;&gt;Node23</title>
<path fill="none" stroke="#191970" d="M546.9234,-425.2967C542.0137,-417.0729 535.8371,-406.7272 530.2975,-397.4483"/>
<polygon fill="#191970" stroke="#191970" points="533.172,-395.4352 525.0407,-388.6432 527.1617,-399.0236 533.172,-395.4352"/>
</g>
<!-- Node30&#45;&gt;Node31 -->
<g id="edge47" class="edge">
<title>Node30&#45;&gt;Node31</title>
<path fill="none" stroke="#191970" d="M613.2928,-427.6924C617.9237,-426.7487 622.5362,-425.8391 627,-425 713.3706,-408.7643 813.266,-393.497 879.477,-383.8656"/>
<polygon fill="#191970" stroke="#191970" points="880.0065,-387.3255 889.4011,-382.4275 879.0025,-380.3979 880.0065,-387.3255"/>
</g>
<!-- Node32 -->
<g id="node33" class="node">
<title>Node32</title>
<polygon fill="#ffffff" stroke="#bfbfbf" points="905.5,-297 905.5,-316 1050.5,-316 1050.5,-297 905.5,-297"/>
<text text-anchor="middle" x="978" y="-304" font-family="Helvetica,sans-Serif" font-size="10.00" fill="#000000">odp/api/abi/queue_types.h</text>
</g>
<!-- Node31&#45;&gt;Node32 -->
<g id="edge48" class="edge">
<title>Node31&#45;&gt;Node32</title>
<path fill="none" stroke="#191970" d="M956.5819,-363.9005C960.2948,-353.95 966.198,-338.1292 970.8676,-325.6147"/>
<polygon fill="#191970" stroke="#191970" points="974.2079,-326.6743 974.4248,-316.0817 967.6496,-324.2271 974.2079,-326.6743"/>
</g>
<!-- Node33 -->
<g id="node34" class="node">
<title>Node33</title>
<g id="a_node34"><a xlink:href="api_2spec_2queue__types_8h.html" target="_top" xlink:title="ODP queue types. ">
<polygon fill="#ffffff" stroke="#000000" points="776.5,-291.5 776.5,-321.5 887.5,-321.5 887.5,-291.5 776.5,-291.5"/>
<text text-anchor="start" x="784.5" y="-309.5" font-family="Helvetica,sans-Serif" font-size="10.00" fill="#000000">odp/api/spec/queue</text>
<text text-anchor="middle" x="832" y="-298.5" font-family="Helvetica,sans-Serif" font-size="10.00" fill="#000000">_types.h</text>
</a>
</g>
</g>
<!-- Node31&#45;&gt;Node33 -->
<g id="edge49" class="edge">
<title>Node31&#45;&gt;Node33</title>
<path fill="none" stroke="#191970" d="M935.6637,-363.9005C918.0889,-354.1691 890.3744,-338.823 868.022,-326.4461"/>
<polygon fill="#191970" stroke="#191970" points="869.5727,-323.304 859.1289,-321.5218 866.1818,-329.4279 869.5727,-323.304"/>
</g>
<!-- Node33&#45;&gt;Node4 -->
<g id="edge50" class="edge">
<title>Node33&#45;&gt;Node4</title>
<path fill="none" stroke="#191970" d="M887.8918,-292.7311C926.8049,-282.8844 979.7984,-268.9552 1026,-255 1044.5335,-249.402 1177.6627,-213.0336 1191,-199 1235.1679,-152.5262 1236.3347,-114.456 1210,-56 1204.4303,-43.6369 1193.7137,-33.2563 1183.4494,-25.5033"/>
<polygon fill="#191970" stroke="#191970" points="1185.2549,-22.4948 1175.0567,-19.623 1181.2382,-28.2277 1185.2549,-22.4948"/>
</g>
<!-- Node33&#45;&gt;Node12 -->
<g id="edge64" class="edge">
<title>Node33&#45;&gt;Node12</title>
<path fill="none" stroke="#191970" d="M778.3938,-291.468C720.4735,-275.6536 625.2789,-250.8978 542,-235 483.8406,-223.8975 323.7471,-236.5896 278,-199 228.1211,-158.0154 249.5194,-68.5752 262.1547,-29.2281"/>
<polygon fill="#191970" stroke="#191970" points="265.5425,-30.1346 265.4196,-19.5405 258.9091,-27.899 265.5425,-30.1346"/>
</g>
<!-- Node33&#45;&gt;Node34 -->
<g id="edge51" class="edge">
<title>Node33&#45;&gt;Node34</title>
<path fill="none" stroke="#191970" d="M887.7935,-292.7315C890.5644,-292.1281 893.3114,-291.5472 896,-291 963.9183,-277.1759 1041.8101,-264.5637 1097.8325,-256.0563"/>
<polygon fill="#191970" stroke="#191970" points="1098.666,-259.4702 1108.0312,-254.5162 1097.6207,-252.5487 1098.666,-259.4702"/>
</g>
<!-- Node38 -->
<g id="node39" class="node">
<title>Node38</title>
<g id="a_node39"><a xlink:href="deprecated_8h.html" target="_top" xlink:title="Control deprecated API definitions. ">
<polygon fill="#ffffff" stroke="#000000" points="786.5,-235.5 786.5,-254.5 905.5,-254.5 905.5,-235.5 786.5,-235.5"/>
<text text-anchor="middle" x="846" y="-242.5" font-family="Helvetica,sans-Serif" font-size="10.00" fill="#000000">odp/api/deprecated.h</text>
</a>
</g>
</g>
<!-- Node33&#45;&gt;Node38 -->
<g id="edge60" class="edge">
<title>Node33&#45;&gt;Node38</title>
<path fill="none" stroke="#191970" d="M835.4607,-291.2977C837.2826,-283.2945 839.5385,-273.3843 841.4952,-264.7889"/>
<polygon fill="#191970" stroke="#191970" points="844.9514,-265.3744 843.7584,-254.8469 838.126,-263.8206 844.9514,-265.3744"/>
</g>
<!-- Node34&#45;&gt;Node1 -->
<g id="edge52" class="edge">
<title>Node34&#45;&gt;Node1</title>
<path fill="none" stroke="#191970" d="M1208.8438,-235.3906C1241.8884,-226.2774 1292.3434,-212.3627 1332.6897,-201.2358"/>
<polygon fill="#191970" stroke="#191970" points="1333.7385,-204.5773 1342.4481,-198.5446 1331.8774,-197.8292 1333.7385,-204.5773"/>
</g>
<!-- Node35 -->
<g id="node36" class="node">
<title>Node35</title>
<g id="a_node36"><a xlink:href="api_2spec_2schedule__types_8h.html" target="_top" xlink:title="ODP schedule types. ">
<polygon fill="#ffffff" stroke="#000000" points="1016.5,-168.5 1016.5,-198.5 1141.5,-198.5 1141.5,-168.5 1016.5,-168.5"/>
<text text-anchor="start" x="1024.5" y="-186.5" font-family="Helvetica,sans-Serif" font-size="10.00" fill="#000000">odp/api/spec/schedule</text>
<text text-anchor="middle" x="1079" y="-175.5" font-family="Helvetica,sans-Serif" font-size="10.00" fill="#000000">_types.h</text>
</a>
</g>
</g>
<!-- Node34&#45;&gt;Node35 -->
<g id="edge53" class="edge">
<title>Node34&#45;&gt;Node35</title>
<path fill="none" stroke="#191970" d="M1159.1563,-235.3906C1146.2992,-227.0673 1127.2552,-214.7389 1110.9558,-204.1872"/>
<polygon fill="#191970" stroke="#191970" points="1112.5362,-201.0409 1102.2396,-198.5446 1108.7321,-206.9171 1112.5362,-201.0409"/>
</g>
<!-- Node35&#45;&gt;Node4 -->
<g id="edge54" class="edge">
<title>Node35&#45;&gt;Node4</title>
<path fill="none" stroke="#191970" d="M1099.8069,-168.3119C1111.0135,-159.0472 1124.1188,-146.2612 1132,-132 1150.1673,-99.126 1155.6521,-54.7985 1157.3002,-29.6257"/>
<polygon fill="#191970" stroke="#191970" points="1160.8018,-29.684 1157.8193,-19.5176 1153.811,-29.3249 1160.8018,-29.684"/>
</g>
<!-- Node35&#45;&gt;Node12 -->
<g id="edge59" class="edge">
<title>Node35&#45;&gt;Node12</title>
<path fill="none" stroke="#191970" d="M1058.0484,-168.3472C1014.8356,-137.4107 916.6338,-68.8172 878,-56 778.9378,-23.135 472.074,-13.6136 335.6047,-10.9686"/>
<polygon fill="#191970" stroke="#191970" points="335.3561,-7.4634 325.2923,-10.7756 335.2251,-14.4622 335.3561,-7.4634"/>
</g>
<!-- Node36 -->
<g id="node37" class="node">
<title>Node36</title>
<g id="a_node37"><a xlink:href="support_8h.html" target="_top" xlink:title="ODP support API &#45; platform specific header. ">
<polygon fill="#ffffff" stroke="#000000" points="1021.5,-112.5 1021.5,-131.5 1122.5,-131.5 1122.5,-112.5 1021.5,-112.5"/>
<text text-anchor="middle" x="1072" y="-119.5" font-family="Helvetica,sans-Serif" font-size="10.00" fill="#000000">odp/api/support.h</text>
</a>
</g>
</g>
<!-- Node35&#45;&gt;Node36 -->
<g id="edge55" class="edge">
<title>Node35&#45;&gt;Node36</title>
<path fill="none" stroke="#191970" d="M1077.2697,-168.2977C1076.3587,-160.2945 1075.2307,-150.3843 1074.2524,-141.7889"/>
<polygon fill="#191970" stroke="#191970" points="1077.7293,-141.3869 1073.1208,-131.8469 1070.7742,-142.1786 1077.7293,-141.3869"/>
</g>
<!-- Node37 -->
<g id="node38" class="node">
<title>Node37</title>
<g id="a_node38"><a xlink:href="spec_2support_8h.html" target="_top" xlink:title="ODP support API. ">
<polygon fill="#ffffff" stroke="#000000" points="1002.5,-56.5 1002.5,-75.5 1129.5,-75.5 1129.5,-56.5 1002.5,-56.5"/>
<text text-anchor="middle" x="1066" y="-63.5" font-family="Helvetica,sans-Serif" font-size="10.00" fill="#000000">odp/api/spec/support.h</text>
</a>
</g>
</g>
<!-- Node36&#45;&gt;Node37 -->
<g id="edge56" class="edge">
<title>Node36&#45;&gt;Node37</title>
<path fill="none" stroke="#191970" d="M1070.9549,-112.2455C1070.172,-104.9382 1069.0744,-94.6944 1068.1112,-85.7046"/>
<polygon fill="#191970" stroke="#191970" points="1071.5786,-85.2129 1067.0331,-75.6427 1064.6185,-85.9587 1071.5786,-85.2129"/>
</g>
<!-- Node37&#45;&gt;Node4 -->
<g id="edge57" class="edge">
<title>Node37&#45;&gt;Node4</title>
<path fill="none" stroke="#191970" d="M1082.0252,-56.2455C1096.1408,-47.6534 1116.9263,-35.0014 1133.1899,-25.1018"/>
<polygon fill="#191970" stroke="#191970" points="1135.4363,-27.8319 1142.1585,-19.6427 1131.7966,-21.8525 1135.4363,-27.8319"/>
</g>
<!-- Node37&#45;&gt;Node12 -->
<g id="edge58" class="edge">
<title>Node37&#45;&gt;Node12</title>
<path fill="none" stroke="#191970" d="M1002.1984,-60.2858C985.2382,-58.8254 966.9295,-57.3014 950,-56 724.6972,-38.6808 457.1849,-21.6398 335.3583,-14.0722"/>
<polygon fill="#191970" stroke="#191970" points="335.2795,-10.5607 325.082,-13.4349 334.8462,-17.5473 335.2795,-10.5607"/>
</g>
<!-- Node39 -->
<g id="node40" class="node">
<title>Node39</title>
<g id="a_node40"><a xlink:href="spec_2deprecated_8h.html" target="_top" xlink:title="Macro for deprecated API definitions. ">
<polygon fill="#ffffff" stroke="#000000" points="724.5,-56.5 724.5,-75.5 869.5,-75.5 869.5,-56.5 724.5,-56.5"/>
<text text-anchor="middle" x="797" y="-63.5" font-family="Helvetica,sans-Serif" font-size="10.00" fill="#000000">odp/api/spec/deprecated.h</text>
</a>
</g>
</g>
<!-- Node38&#45;&gt;Node39 -->
<g id="edge61" class="edge">
<title>Node38&#45;&gt;Node39</title>
<path fill="none" stroke="#191970" d="M843.3655,-235.3762C835.6219,-207.0883 812.822,-123.7987 802.359,-85.5767"/>
<polygon fill="#191970" stroke="#191970" points="805.6636,-84.3924 799.6475,-75.6714 798.912,-86.2407 805.6636,-84.3924"/>
</g>
<!-- Node39&#45;&gt;Node4 -->
<g id="edge62" class="edge">
<title>Node39&#45;&gt;Node4</title>
<path fill="none" stroke="#191970" d="M858.6479,-56.4369C922.0496,-46.6017 1020.6698,-31.3033 1087.2218,-20.9794"/>
<polygon fill="#191970" stroke="#191970" points="1087.8632,-24.4219 1097.2085,-19.4303 1086.7901,-17.5046 1087.8632,-24.4219"/>
</g>
<!-- Node39&#45;&gt;Node12 -->
<g id="edge63" class="edge">
<title>Node39&#45;&gt;Node12</title>
<path fill="none" stroke="#191970" d="M724.1307,-57.0423C721.0465,-56.6856 717.9928,-56.3368 715,-56 580.1374,-40.8232 422.1058,-24.9828 335.0153,-16.422"/>
<polygon fill="#191970" stroke="#191970" points="335.3041,-12.9336 325.01,-15.4399 334.6202,-19.9001 335.3041,-12.9336"/>
</g>
<!-- Node41 -->
<g id="node42" class="node">
<title>Node41</title>
<polygon fill="#ffffff" stroke="#bfbfbf" points="1294.5,-297 1294.5,-316 1417.5,-316 1417.5,-297 1294.5,-297"/>
<text text-anchor="middle" x="1356" y="-304" font-family="Helvetica,sans-Serif" font-size="10.00" fill="#000000">odp/api/abi/thrmask.h</text>
</g>
<!-- Node40&#45;&gt;Node41 -->
<g id="edge71" class="edge">
<title>Node40&#45;&gt;Node41</title>
<path fill="none" stroke="#191970" d="M1348.2895,-363.9005C1349.5994,-354.149 1351.6666,-338.7597 1353.331,-326.3695"/>
<polygon fill="#191970" stroke="#191970" points="1356.8503,-326.4586 1354.7129,-316.0817 1349.9127,-325.5266 1356.8503,-326.4586"/>
</g>
<!-- Node42 -->
<g id="node43" class="node">
<title>Node42</title>
<g id="a_node43"><a xlink:href="api_2spec_2thrmask_8h.html" target="_top" xlink:title="ODP thread masks. ">
<polygon fill="#ffffff" stroke="#000000" points="1068.5,-297 1068.5,-316 1199.5,-316 1199.5,-297 1068.5,-297"/>
<text text-anchor="middle" x="1134" y="-304" font-family="Helvetica,sans-Serif" font-size="10.00" fill="#000000">odp/api/spec/thrmask.h</text>
</a>
</g>
</g>
<!-- Node40&#45;&gt;Node42 -->
<g id="edge72" class="edge">
<title>Node40&#45;&gt;Node42</title>
<path fill="none" stroke="#191970" d="M1316.4823,-363.9005C1279.0753,-352.134 1215.5731,-332.1591 1174.2131,-319.1492"/>
<polygon fill="#191970" stroke="#191970" points="1175.0505,-315.7436 1164.4611,-316.0817 1172.9501,-322.421 1175.0505,-315.7436"/>
</g>
<!-- Node42&#45;&gt;Node4 -->
<g id="edge73" class="edge">
<title>Node42&#45;&gt;Node4</title>
<path fill="none" stroke="#191970" d="M1179.984,-296.9494C1204.909,-289.5056 1234.3417,-276.6617 1253,-255 1274.4588,-230.087 1272,-216.3806 1272,-183.5 1272,-183.5 1272,-183.5 1272,-122 1272,-90.7875 1268.6639,-79.3929 1248,-56 1235.084,-41.3783 1216.4116,-30.7807 1199.4189,-23.4697"/>
<polygon fill="#191970" stroke="#191970" points="1200.2476,-20.0303 1189.6641,-19.5394 1197.6315,-26.5231 1200.2476,-20.0303"/>
</g>
<!-- Node42&#45;&gt;Node5 -->
<g id="edge74" class="edge">
<title>Node42&#45;&gt;Node5</title>
<path fill="none" stroke="#191970" d="M1093.0667,-296.9528C1082.354,-294.7221 1070.784,-292.5484 1060,-291 873.8017,-264.2654 651.7539,-252.134 543.2733,-247.4714"/>
<polygon fill="#191970" stroke="#191970" points="543.2735,-243.9684 533.1347,-247.0433 542.9781,-250.9622 543.2735,-243.9684"/>
</g>
<!-- Node42&#45;&gt;Node12 -->
<g id="edge75" class="edge">
<title>Node42&#45;&gt;Node12</title>
<path fill="none" stroke="#191970" d="M1111.0663,-296.8941C1071.6104,-280.8606 987.9844,-249.024 914,-235 848.9267,-222.6651 370.7802,-240.2976 319,-199 267.2053,-157.6909 265.3263,-69.4993 267.356,-29.9331"/>
<polygon fill="#191970" stroke="#191970" points="270.8497,-30.1426 268.0105,-19.9353 263.8646,-29.6853 270.8497,-30.1426"/>
</g>
</g>
</svg>
