<?xml version="1.0" encoding="UTF-8" standalone="no"?>
<!DOCTYPE svg PUBLIC "-//W3C//DTD SVG 1.1//EN"
 "http://www.w3.org/Graphics/SVG/1.1/DTD/svg11.dtd">
<!-- Generated by graphviz version 2.40.1 (20161225.0304)
 -->
<!-- Title: queue.h Pages: 1 -->
<svg width="1704pt" height="856pt"
 viewBox="0.00 0.00 1703.50 856.00" xmlns="http://www.w3.org/2000/svg" xmlns:xlink="http://www.w3.org/1999/xlink">
<g id="graph0" class="graph" transform="scale(1 1) rotate(0) translate(4 852)">
<title>queue.h</title>
<polygon fill="#ffffff" stroke="transparent" points="-4,4 -4,-852 1699.5,-852 1699.5,4 -4,4"/>
<!-- Node0 -->
<g id="node1" class="node">
<title>Node0</title>
<polygon fill="#bfbfbf" stroke="#000000" points="1409,-828.5 1409,-847.5 1465,-847.5 1465,-828.5 1409,-828.5"/>
<text text-anchor="middle" x="1437" y="-835.5" font-family="Helvetica,sans-Serif" font-size="10.00" fill="#000000">queue.h</text>
</g>
<!-- Node1 -->
<g id="node2" class="node">
<title>Node1</title>
<g id="a_node2"><a xlink:href="api_2std__types_8h.html" target="_top" xlink:title="Standard C language types and definitions for ODP. ">
<polygon fill="#ffffff" stroke="#000000" points="1004,-235.5 1004,-254.5 1116,-254.5 1116,-235.5 1004,-235.5"/>
<text text-anchor="middle" x="1060" y="-242.5" font-family="Helvetica,sans-Serif" font-size="10.00" fill="#000000">odp/api/std_types.h</text>
</a>
</g>
</g>
<!-- Node0&#45;&gt;Node1 -->
<g id="edge1" class="edge">
<title>Node0&#45;&gt;Node1</title>
<path fill="none" stroke="#191970" d="M1460.1154,-828.4252C1494.2128,-812.5793 1554,-777.458 1554,-726 1554,-726 1554,-726 1554,-614 1554,-432.4261 1362.15,-492.5537 1213,-389 1157.0941,-350.1849 1101.4068,-291.4564 1075.3167,-262.4604"/>
<polygon fill="#191970" stroke="#191970" points="1077.7492,-259.9291 1068.4839,-254.7905 1072.5224,-264.5854 1077.7492,-259.9291"/>
</g>
<!-- Node10 -->
<g id="node11" class="node">
<title>Node10</title>
<polygon fill="#ffffff" stroke="#bfbfbf" points="1166,-548.5 1166,-567.5 1276,-567.5 1276,-548.5 1166,-548.5"/>
<text text-anchor="middle" x="1221" y="-555.5" font-family="Helvetica,sans-Serif" font-size="10.00" fill="#000000">odp/api/abi/event.h</text>
</g>
<!-- Node0&#45;&gt;Node10 -->
<g id="edge12" class="edge">
<title>Node0&#45;&gt;Node10</title>
<path fill="none" stroke="#191970" d="M1431.393,-828.4834C1420.8226,-809.6141 1399,-765.8343 1399,-726 1399,-726 1399,-726 1399,-670 1399,-613.4041 1333.7383,-584.2831 1282.2478,-570.1147"/>
<polygon fill="#191970" stroke="#191970" points="1283.0454,-566.7057 1272.485,-567.5583 1281.2722,-573.4774 1283.0454,-566.7057"/>
</g>
<!-- Node11 -->
<g id="node12" class="node">
<title>Node11</title>
<polygon fill="#ffffff" stroke="#bfbfbf" points="104.5,-297 104.5,-316 249.5,-316 249.5,-297 104.5,-297"/>
<text text-anchor="middle" x="177" y="-304" font-family="Helvetica,sans-Serif" font-size="10.00" fill="#000000">odp/api/abi/queue_types.h</text>
</g>
<!-- Node0&#45;&gt;Node11 -->
<g id="edge13" class="edge">
<title>Node0&#45;&gt;Node11</title>
<path fill="none" stroke="#191970" d="M1408.886,-837.2063C1214.3447,-831.5348 76,-795.3839 76,-726 76,-726 76,-726 76,-502 76,-433.1685 97.4952,-416.9677 133,-358 140.4877,-345.5642 150.9844,-333.1474 159.8475,-323.6226"/>
<polygon fill="#191970" stroke="#191970" points="162.4117,-326.0054 166.8063,-316.365 157.359,-321.1607 162.4117,-326.0054"/>
</g>
<!-- Node12 -->
<g id="node13" class="node">
<title>Node12</title>
<polygon fill="#ffffff" stroke="#bfbfbf" points="1582.5,-772.5 1582.5,-791.5 1695.5,-791.5 1695.5,-772.5 1582.5,-772.5"/>
<text text-anchor="middle" x="1639" y="-779.5" font-family="Helvetica,sans-Serif" font-size="10.00" fill="#000000">odp/api/abi/queue.h</text>
</g>
<!-- Node0&#45;&gt;Node12 -->
<g id="edge14" class="edge">
<title>Node0&#45;&gt;Node12</title>
<path fill="none" stroke="#191970" d="M1465.0872,-830.2134C1498.6661,-820.9044 1555.2682,-805.2128 1594.7463,-794.2683"/>
<polygon fill="#191970" stroke="#191970" points="1595.6883,-797.6393 1604.3898,-791.5949 1593.8182,-790.8937 1595.6883,-797.6393"/>
</g>
<!-- Node13 -->
<g id="node14" class="node">
<title>Node13</title>
<polygon fill="#ffffff" stroke="#bfbfbf" points="1294,-548.5 1294,-567.5 1404,-567.5 1404,-548.5 1294,-548.5"/>
<text text-anchor="middle" x="1349" y="-555.5" font-family="Helvetica,sans-Serif" font-size="10.00" fill="#000000">odp/api/abi/buffer.h</text>
</g>
<!-- Node0&#45;&gt;Node13 -->
<g id="edge15" class="edge">
<title>Node0&#45;&gt;Node13</title>
<path fill="none" stroke="#191970" d="M1437,-828.4116C1437,-809.0538 1437,-763.9167 1437,-726 1437,-726 1437,-726 1437,-670 1437,-638.7875 1431.8442,-628.8821 1413,-604 1403.3609,-591.2724 1389.2133,-580.591 1376.6694,-572.7344"/>
<polygon fill="#191970" stroke="#191970" points="1378.2905,-569.6264 1367.9063,-567.5241 1374.713,-575.6432 1378.2905,-569.6264"/>
</g>
<!-- Node14 -->
<g id="node15" class="node">
<title>Node14</title>
<polygon fill="#ffffff" stroke="#bfbfbf" points="1422,-548.5 1422,-567.5 1526,-567.5 1526,-548.5 1422,-548.5"/>
<text text-anchor="middle" x="1474" y="-555.5" font-family="Helvetica,sans-Serif" font-size="10.00" fill="#000000">odp/api/abi/pool.h</text>
</g>
<!-- Node0&#45;&gt;Node14 -->
<g id="edge16" class="edge">
<title>Node0&#45;&gt;Node14</title>
<path fill="none" stroke="#191970" d="M1442.607,-828.4834C1453.1774,-809.6141 1475,-765.8343 1475,-726 1475,-726 1475,-726 1475,-670 1475,-637.7103 1474.5793,-600.1863 1474.2836,-577.8043"/>
<polygon fill="#191970" stroke="#191970" points="1477.7804,-577.5391 1474.1433,-567.5881 1470.781,-577.6353 1477.7804,-577.5391"/>
</g>
<!-- Node15 -->
<g id="node16" class="node">
<title>Node15</title>
<g id="a_node16"><a xlink:href="api_2spec_2queue_8h.html" target="_top" xlink:title="ODP queue. ">
<polygon fill="#ffffff" stroke="#000000" points="1070,-772.5 1070,-791.5 1190,-791.5 1190,-772.5 1070,-772.5"/>
<text text-anchor="middle" x="1130" y="-779.5" font-family="Helvetica,sans-Serif" font-size="10.00" fill="#000000">odp/api/spec/queue.h</text>
</a>
</g>
</g>
<!-- Node0&#45;&gt;Node15 -->
<g id="edge17" class="edge">
<title>Node0&#45;&gt;Node15</title>
<path fill="none" stroke="#191970" d="M1408.9419,-832.8819C1360.0868,-823.9702 1258.3018,-805.4036 1192.131,-793.3333"/>
<polygon fill="#191970" stroke="#191970" points="1192.6997,-789.8794 1182.2339,-791.528 1191.4435,-796.7658 1192.6997,-789.8794"/>
</g>
<!-- Node2 -->
<g id="node3" class="node">
<title>Node2</title>
<polygon fill="#ffffff" stroke="#bfbfbf" points="804,-174 804,-193 934,-193 934,-174 804,-174"/>
<text text-anchor="middle" x="869" y="-181" font-family="Helvetica,sans-Serif" font-size="10.00" fill="#000000">odp/api/abi/std_types.h</text>
</g>
<!-- Node1&#45;&gt;Node2 -->
<g id="edge2" class="edge">
<title>Node1&#45;&gt;Node2</title>
<path fill="none" stroke="#191970" d="M1030.1563,-235.3906C997.3575,-224.8298 944.5328,-207.8208 908.3636,-196.1747"/>
<polygon fill="#191970" stroke="#191970" points="909.2257,-192.7753 898.6342,-193.0419 907.0802,-199.4385 909.2257,-192.7753"/>
</g>
<!-- Node3 -->
<g id="node4" class="node">
<title>Node3</title>
<g id="a_node4"><a xlink:href="api_2spec_2std__types_8h.html" target="_top" xlink:title="Standard C language types and definitions for ODP. ">
<polygon fill="#ffffff" stroke="#000000" points="952.5,-174 952.5,-193 1089.5,-193 1089.5,-174 952.5,-174"/>
<text text-anchor="middle" x="1021" y="-181" font-family="Helvetica,sans-Serif" font-size="10.00" fill="#000000">odp/api/spec/std_types.h</text>
</a>
</g>
</g>
<!-- Node1&#45;&gt;Node3 -->
<g id="edge3" class="edge">
<title>Node1&#45;&gt;Node3</title>
<path fill="none" stroke="#191970" d="M1053.9063,-235.3906C1048.2157,-226.417 1039.5728,-212.7879 1032.5726,-201.7491"/>
<polygon fill="#191970" stroke="#191970" points="1035.4909,-199.8155 1027.1797,-193.2449 1029.5793,-203.5644 1035.4909,-199.8155"/>
</g>
<!-- Node4 -->
<g id="node5" class="node">
<title>Node4</title>
<g id="a_node5"><a xlink:href="visibility__begin_8h_source.html" target="_top" xlink:title="odp/visibility_begin.h">
<polygon fill="#ffffff" stroke="#000000" points="1000.5,-.5 1000.5,-19.5 1121.5,-19.5 1121.5,-.5 1000.5,-.5"/>
<text text-anchor="middle" x="1061" y="-7.5" font-family="Helvetica,sans-Serif" font-size="10.00" fill="#000000">odp/visibility_begin.h</text>
</a>
</g>
</g>
<!-- Node3&#45;&gt;Node4 -->
<g id="edge4" class="edge">
<title>Node3&#45;&gt;Node4</title>
<path fill="none" stroke="#191970" d="M1030.9705,-173.9487C1040.2198,-164.3507 1053.3769,-148.6312 1059,-132 1070.656,-97.5256 1067.5688,-54.3802 1064.2766,-29.7262"/>
<polygon fill="#191970" stroke="#191970" points="1067.6903,-28.8871 1062.7548,-19.5121 1060.7668,-29.9187 1067.6903,-28.8871"/>
</g>
<!-- Node5 -->
<g id="node6" class="node">
<title>Node5</title>
<polygon fill="#ffffff" stroke="#bfbfbf" points="996.5,-112.5 996.5,-131.5 1049.5,-131.5 1049.5,-112.5 996.5,-112.5"/>
<text text-anchor="middle" x="1023" y="-119.5" font-family="Helvetica,sans-Serif" font-size="10.00" fill="#000000">stdint.h</text>
</g>
<!-- Node3&#45;&gt;Node5 -->
<g id="edge5" class="edge">
<title>Node3&#45;&gt;Node5</title>
<path fill="none" stroke="#191970" d="M1021.3125,-173.8906C1021.5897,-165.3657 1022.0036,-152.6392 1022.3521,-141.9235"/>
<polygon fill="#191970" stroke="#191970" points="1025.8561,-141.8534 1022.6831,-131.7449 1018.8598,-141.6258 1025.8561,-141.8534"/>
</g>
<!-- Node6 -->
<g id="node7" class="node">
<title>Node6</title>
<g id="a_node7"><a xlink:href="api_2align_8h.html" target="_top" xlink:title="ODP alignments. ">
<polygon fill="#ffffff" stroke="#000000" points="850.5,-112.5 850.5,-131.5 939.5,-131.5 939.5,-112.5 850.5,-112.5"/>
<text text-anchor="middle" x="895" y="-119.5" font-family="Helvetica,sans-Serif" font-size="10.00" fill="#000000">odp/api/align.h</text>
</a>
</g>
</g>
<!-- Node3&#45;&gt;Node6 -->
<g id="edge6" class="edge">
<title>Node3&#45;&gt;Node6</title>
<path fill="none" stroke="#191970" d="M1001.3125,-173.8906C980.5078,-163.7359 947.489,-147.6196 923.7681,-136.0416"/>
<polygon fill="#191970" stroke="#191970" points="925.0712,-132.783 914.5493,-131.5419 922.0007,-139.0736 925.0712,-132.783"/>
</g>
<!-- Node9 -->
<g id="node10" class="node">
<title>Node9</title>
<g id="a_node10"><a xlink:href="visibility__end_8h_source.html" target="_top" xlink:title="odp/visibility_end.h">
<polygon fill="#ffffff" stroke="#000000" points="184,-.5 184,-19.5 296,-19.5 296,-.5 184,-.5"/>
<text text-anchor="middle" x="240" y="-7.5" font-family="Helvetica,sans-Serif" font-size="10.00" fill="#000000">odp/visibility_end.h</text>
</a>
</g>
</g>
<!-- Node3&#45;&gt;Node9 -->
<g id="edge11" class="edge">
<title>Node3&#45;&gt;Node9</title>
<path fill="none" stroke="#191970" d="M986.8039,-173.9996C883.0757,-145.198 577.7391,-60.5446 556,-56 470.3638,-38.0975 370.2282,-24.7868 306.0102,-17.2096"/>
<polygon fill="#191970" stroke="#191970" points="306.3583,-13.7266 296.0198,-16.0429 305.5463,-20.6793 306.3583,-13.7266"/>
</g>
<!-- Node7 -->
<g id="node8" class="node">
<title>Node7</title>
<polygon fill="#ffffff" stroke="#bfbfbf" points="906.5,-56.5 906.5,-75.5 1013.5,-75.5 1013.5,-56.5 906.5,-56.5"/>
<text text-anchor="middle" x="960" y="-63.5" font-family="Helvetica,sans-Serif" font-size="10.00" fill="#000000">odp/api/abi/align.h</text>
</g>
<!-- Node6&#45;&gt;Node7 -->
<g id="edge7" class="edge">
<title>Node6&#45;&gt;Node7</title>
<path fill="none" stroke="#191970" d="M906.3221,-112.2455C915.9223,-103.9746 929.8892,-91.9416 941.1695,-82.2232"/>
<polygon fill="#191970" stroke="#191970" points="943.516,-84.8214 948.8076,-75.6427 938.947,-79.5182 943.516,-84.8214"/>
</g>
<!-- Node8 -->
<g id="node9" class="node">
<title>Node8</title>
<g id="a_node9"><a xlink:href="api_2spec_2align_8h.html" target="_top" xlink:title="ODP alignments. ">
<polygon fill="#ffffff" stroke="#000000" points="774,-56.5 774,-75.5 888,-75.5 888,-56.5 774,-56.5"/>
<text text-anchor="middle" x="831" y="-63.5" font-family="Helvetica,sans-Serif" font-size="10.00" fill="#000000">odp/api/spec/align.h</text>
</a>
</g>
</g>
<!-- Node6&#45;&gt;Node8 -->
<g id="edge8" class="edge">
<title>Node6&#45;&gt;Node8</title>
<path fill="none" stroke="#191970" d="M883.8521,-112.2455C874.4913,-104.0549 860.9142,-92.1749 849.8651,-82.5069"/>
<polygon fill="#191970" stroke="#191970" points="851.8508,-79.5937 842.0202,-75.6427 847.2412,-84.8618 851.8508,-79.5937"/>
</g>
<!-- Node8&#45;&gt;Node4 -->
<g id="edge9" class="edge">
<title>Node8&#45;&gt;Node4</title>
<path fill="none" stroke="#191970" d="M870.2771,-56.4369C909.4744,-46.8932 969.8,-32.2052 1012.0835,-21.9101"/>
<polygon fill="#191970" stroke="#191970" points="1012.9968,-25.2901 1021.8849,-19.5237 1011.3408,-18.4888 1012.9968,-25.2901"/>
</g>
<!-- Node8&#45;&gt;Node9 -->
<g id="edge10" class="edge">
<title>Node8&#45;&gt;Node9</title>
<path fill="none" stroke="#191970" d="M773.6485,-57.2066C770.3869,-56.7793 767.1534,-56.3734 764,-56 599.9899,-36.5796 406.1983,-21.6411 306.5548,-14.5441"/>
<polygon fill="#191970" stroke="#191970" points="306.5574,-11.0356 296.3351,-13.8203 306.0627,-18.0182 306.5574,-11.0356"/>
</g>
<!-- Node15&#45;&gt;Node4 -->
<g id="edge18" class="edge">
<title>Node15&#45;&gt;Node4</title>
<path fill="none" stroke="#191970" d="M1190.3984,-773.9916C1315.629,-753.6441 1592,-687.7026 1592,-502 1592,-502 1592,-502 1592,-122 1592,-75.5074 1276.3144,-34.1253 1131.7593,-17.6133"/>
<polygon fill="#191970" stroke="#191970" points="1131.9844,-14.1165 1121.6537,-16.4677 1131.1958,-21.0719 1131.9844,-14.1165"/>
</g>
<!-- Node15&#45;&gt;Node9 -->
<g id="edge72" class="edge">
<title>Node15&#45;&gt;Node9</title>
<path fill="none" stroke="#191970" d="M1069.8476,-780.7676C881.5123,-776.6523 311.0105,-762.1474 232,-736 73.4808,-683.5403 0,-607.4741 0,-440.5 0,-440.5 0,-440.5 0,-122 0,-84.6561 20.595,-76.2063 52,-56 72.2054,-42.9997 128.5032,-30.1692 174.2642,-21.3757"/>
<polygon fill="#191970" stroke="#191970" points="174.9732,-24.8038 184.1488,-19.5068 173.6726,-17.9256 174.9732,-24.8038"/>
</g>
<!-- Node16 -->
<g id="node17" class="node">
<title>Node16</title>
<g id="a_node17"><a xlink:href="api_2event_8h.html" target="_top" xlink:title="ODP event. ">
<polygon fill="#ffffff" stroke="#000000" points="1084,-716.5 1084,-735.5 1176,-735.5 1176,-716.5 1084,-716.5"/>
<text text-anchor="middle" x="1130" y="-723.5" font-family="Helvetica,sans-Serif" font-size="10.00" fill="#000000">odp/api/event.h</text>
</a>
</g>
</g>
<!-- Node15&#45;&gt;Node16 -->
<g id="edge19" class="edge">
<title>Node15&#45;&gt;Node16</title>
<path fill="none" stroke="#191970" d="M1130,-772.2455C1130,-764.9382 1130,-754.6944 1130,-745.7046"/>
<polygon fill="#191970" stroke="#191970" points="1133.5001,-745.6426 1130,-735.6427 1126.5001,-745.6427 1133.5001,-745.6426"/>
</g>
<!-- Node31 -->
<g id="node32" class="node">
<title>Node31</title>
<g id="a_node32"><a xlink:href="api_2queue__types_8h.html" target="_top" xlink:title="ODP queue. ">
<polygon fill="#ffffff" stroke="#000000" points="142.5,-364 142.5,-383 269.5,-383 269.5,-364 142.5,-364"/>
<text text-anchor="middle" x="206" y="-371" font-family="Helvetica,sans-Serif" font-size="10.00" fill="#000000">odp/api/queue_types.h</text>
</a>
</g>
</g>
<!-- Node15&#45;&gt;Node31 -->
<g id="edge71" class="edge">
<title>Node15&#45;&gt;Node31</title>
<path fill="none" stroke="#191970" d="M1069.9273,-781.4632C857.1445,-778.7783 152,-762.8742 152,-670 152,-670 152,-670 152,-502 152,-459.9148 176.922,-415.7058 192.9044,-391.6816"/>
<polygon fill="#191970" stroke="#191970" points="195.9321,-393.4559 198.7173,-383.2337 190.1653,-389.4879 195.9321,-393.4559"/>
</g>
<!-- Node16&#45;&gt;Node10 -->
<g id="edge20" class="edge">
<title>Node16&#45;&gt;Node10</title>
<path fill="none" stroke="#191970" d="M1135.1533,-716.4862C1149.7251,-689.5845 1191.4253,-612.5994 1210.8344,-576.7673"/>
<polygon fill="#191970" stroke="#191970" points="1213.9912,-578.2878 1215.6766,-567.8279 1207.8362,-574.9538 1213.9912,-578.2878"/>
</g>
<!-- Node17 -->
<g id="node18" class="node">
<title>Node17</title>
<g id="a_node18"><a xlink:href="api_2spec_2event_8h.html" target="_top" xlink:title="ODP event. ">
<polygon fill="#ffffff" stroke="#000000" points="1027,-660.5 1027,-679.5 1145,-679.5 1145,-660.5 1027,-660.5"/>
<text text-anchor="middle" x="1086" y="-667.5" font-family="Helvetica,sans-Serif" font-size="10.00" fill="#000000">odp/api/spec/event.h</text>
</a>
</g>
</g>
<!-- Node16&#45;&gt;Node17 -->
<g id="edge21" class="edge">
<title>Node16&#45;&gt;Node17</title>
<path fill="none" stroke="#191970" d="M1122.3358,-716.2455C1116.1527,-708.3761 1107.2937,-697.101 1099.8711,-687.6542"/>
<polygon fill="#191970" stroke="#191970" points="1102.5068,-685.3435 1093.5764,-679.6427 1097.0025,-689.6683 1102.5068,-685.3435"/>
</g>
<!-- Node17&#45;&gt;Node4 -->
<g id="edge22" class="edge">
<title>Node17&#45;&gt;Node4</title>
<path fill="none" stroke="#191970" d="M1094.1473,-660.2708C1101.3783,-651.2869 1111.8725,-637.3529 1119,-624 1171.5175,-525.6118 1177.7791,-496.6311 1207,-389 1224.0193,-326.3119 1232,-309.9573 1232,-245 1232,-245 1232,-245 1232,-122 1232,-66.272 1167.6589,-36.7699 1117.9108,-22.2881"/>
<polygon fill="#191970" stroke="#191970" points="1118.7509,-18.889 1108.1792,-19.5887 1116.8798,-25.6343 1118.7509,-18.889"/>
</g>
<!-- Node17&#45;&gt;Node9 -->
<g id="edge70" class="edge">
<title>Node17&#45;&gt;Node9</title>
<path fill="none" stroke="#191970" d="M1026.6522,-663.3941C804.9545,-637.9314 38,-542.4752 38,-440.5 38,-440.5 38,-440.5 38,-122 38,-58.6016 115.0468,-30.7929 173.9734,-18.7954"/>
<polygon fill="#191970" stroke="#191970" points="174.8405,-22.1929 184,-16.8681 173.5191,-15.3188 174.8405,-22.1929"/>
</g>
<!-- Node18 -->
<g id="node19" class="node">
<title>Node18</title>
<g id="a_node19"><a xlink:href="api_2packet_8h.html" target="_top" xlink:title="ODP packet descriptor. ">
<polygon fill="#ffffff" stroke="#000000" points="1012,-604.5 1012,-623.5 1110,-623.5 1110,-604.5 1012,-604.5"/>
<text text-anchor="middle" x="1061" y="-611.5" font-family="Helvetica,sans-Serif" font-size="10.00" fill="#000000">odp/api/packet.h</text>
</a>
</g>
</g>
<!-- Node17&#45;&gt;Node18 -->
<g id="edge23" class="edge">
<title>Node17&#45;&gt;Node18</title>
<path fill="none" stroke="#191970" d="M1081.6453,-660.2455C1078.2756,-652.6973 1073.507,-642.0158 1069.4017,-632.8197"/>
<polygon fill="#191970" stroke="#191970" points="1072.5773,-631.3473 1065.3048,-623.6427 1066.1853,-634.2009 1072.5773,-631.3473"/>
</g>
<!-- Node18&#45;&gt;Node1 -->
<g id="edge24" class="edge">
<title>Node18&#45;&gt;Node1</title>
<path fill="none" stroke="#191970" d="M1011.9668,-607.1242C988.1382,-601.0416 961.5648,-589.5828 947,-568 911.5695,-515.4973 997.692,-562.0332 1043,-512 1065.0708,-487.6275 1062,-473.3806 1062,-440.5 1062,-440.5 1062,-440.5 1062,-373.5 1062,-334.9966 1061.0912,-290.0114 1060.4988,-264.7797"/>
<polygon fill="#191970" stroke="#191970" points="1063.9952,-264.5831 1060.2533,-254.6711 1056.9972,-264.7531 1063.9952,-264.5831"/>
</g>
<!-- Node18&#45;&gt;Node10 -->
<g id="edge25" class="edge">
<title>Node18&#45;&gt;Node10</title>
<path fill="none" stroke="#191970" d="M1088.505,-604.3733C1114.8802,-595.1419 1154.8851,-581.1402 1184.0358,-570.9375"/>
<polygon fill="#191970" stroke="#191970" points="1185.5716,-574.1082 1193.8539,-567.5011 1183.2591,-567.5012 1185.5716,-574.1082"/>
</g>
<!-- Node18&#45;&gt;Node13 -->
<g id="edge29" class="edge">
<title>Node18&#45;&gt;Node13</title>
<path fill="none" stroke="#191970" d="M1110.1817,-604.4369C1159.9884,-594.7522 1237.0385,-579.7703 1290.0788,-569.4569"/>
<polygon fill="#191970" stroke="#191970" points="1290.873,-572.8681 1300.0211,-567.5237 1289.5369,-565.9968 1290.873,-572.8681"/>
</g>
<!-- Node18&#45;&gt;Node14 -->
<g id="edge30" class="edge">
<title>Node18&#45;&gt;Node14</title>
<path fill="none" stroke="#191970" d="M1110.0419,-608.1025C1176.1927,-600.0344 1297.934,-584.7884 1411.8362,-568.1358"/>
<polygon fill="#191970" stroke="#191970" points="1412.3887,-571.5923 1421.774,-566.6763 1411.3715,-564.6666 1412.3887,-571.5923"/>
</g>
<!-- Node19 -->
<g id="node20" class="node">
<title>Node19</title>
<polygon fill="#ffffff" stroke="#bfbfbf" points="770,-548.5 770,-567.5 900,-567.5 900,-548.5 770,-548.5"/>
<text text-anchor="middle" x="835" y="-555.5" font-family="Helvetica,sans-Serif" font-size="10.00" fill="#000000">odp/api/abi/packet_io.h</text>
</g>
<!-- Node18&#45;&gt;Node19 -->
<g id="edge26" class="edge">
<title>Node18&#45;&gt;Node19</title>
<path fill="none" stroke="#191970" d="M1022.406,-604.4369C983.9716,-594.9133 924.864,-580.2672 883.329,-569.9753"/>
<polygon fill="#191970" stroke="#191970" points="883.9831,-566.5316 873.4348,-567.5237 882.2994,-573.3261 883.9831,-566.5316"/>
</g>
<!-- Node20 -->
<g id="node21" class="node">
<title>Node20</title>
<polygon fill="#ffffff" stroke="#bfbfbf" points="921.5,-425.5 921.5,-455.5 1028.5,-455.5 1028.5,-425.5 921.5,-425.5"/>
<text text-anchor="start" x="929.5" y="-443.5" font-family="Helvetica,sans-Serif" font-size="10.00" fill="#000000">odp/api/abi/packet</text>
<text text-anchor="middle" x="975" y="-432.5" font-family="Helvetica,sans-Serif" font-size="10.00" fill="#000000">_types.h</text>
</g>
<!-- Node18&#45;&gt;Node20 -->
<g id="edge27" class="edge">
<title>Node18&#45;&gt;Node20</title>
<path fill="none" stroke="#191970" d="M1067.7248,-604.1528C1075.6803,-591.2478 1087.1187,-567.914 1081,-548 1069.4692,-510.4714 1035.1421,-480.0563 1008.6432,-461.2785"/>
<polygon fill="#191970" stroke="#191970" points="1010.5808,-458.3634 1000.3536,-455.5965 1006.6231,-464.1372 1010.5808,-458.3634"/>
</g>
<!-- Node21 -->
<g id="node22" class="node">
<title>Node21</title>
<polygon fill="#ffffff" stroke="#bfbfbf" points="956,-548.5 956,-567.5 1072,-567.5 1072,-548.5 956,-548.5"/>
<text text-anchor="middle" x="1014" y="-555.5" font-family="Helvetica,sans-Serif" font-size="10.00" fill="#000000">odp/api/abi/packet.h</text>
</g>
<!-- Node18&#45;&gt;Node21 -->
<g id="edge28" class="edge">
<title>Node18&#45;&gt;Node21</title>
<path fill="none" stroke="#191970" d="M1052.8132,-604.2455C1046.1411,-596.2958 1036.5521,-584.8706 1028.5747,-575.3656"/>
<polygon fill="#191970" stroke="#191970" points="1031.2026,-573.0524 1022.093,-567.6427 1025.8408,-577.5525 1031.2026,-573.0524"/>
</g>
<!-- Node22 -->
<g id="node23" class="node">
<title>Node22</title>
<g id="a_node23"><a xlink:href="api_2spec_2packet_8h.html" target="_top" xlink:title="ODP packet descriptor. ">
<polygon fill="#ffffff" stroke="#000000" points="628.5,-548.5 628.5,-567.5 751.5,-567.5 751.5,-548.5 628.5,-548.5"/>
<text text-anchor="middle" x="690" y="-555.5" font-family="Helvetica,sans-Serif" font-size="10.00" fill="#000000">odp/api/spec/packet.h</text>
</a>
</g>
</g>
<!-- Node18&#45;&gt;Node22 -->
<g id="edge31" class="edge">
<title>Node18&#45;&gt;Node22</title>
<path fill="none" stroke="#191970" d="M1011.7341,-606.5636C947.6338,-596.8881 835.1636,-579.9115 761.6293,-568.812"/>
<polygon fill="#191970" stroke="#191970" points="761.9312,-565.318 751.5208,-567.2862 760.8864,-572.2396 761.9312,-565.318"/>
</g>
<!-- Node22&#45;&gt;Node4 -->
<g id="edge32" class="edge">
<title>Node22&#45;&gt;Node4</title>
<path fill="none" stroke="#191970" d="M710.5949,-548.4233C729.275,-539.542 757.4151,-525.673 781,-512 841.7866,-476.7598 851.2784,-458.5757 913,-425 947.9635,-405.9803 960.1534,-408.233 995,-389 1041.5147,-363.327 1050.9319,-353.1104 1094,-322 1139.4709,-289.1539 1194,-301.0934 1194,-245 1194,-245 1194,-245 1194,-122 1194,-72.0478 1138.4295,-39.8768 1099.1292,-23.371"/>
<polygon fill="#191970" stroke="#191970" points="1100.1156,-19.9953 1089.5318,-19.5108 1097.5034,-26.4897 1100.1156,-19.9953"/>
</g>
<!-- Node22&#45;&gt;Node9 -->
<g id="edge69" class="edge">
<title>Node22&#45;&gt;Node9</title>
<path fill="none" stroke="#191970" d="M628.0857,-552.5641C518.5737,-540.248 287.6918,-501.8806 133,-389 96.9989,-362.7295 76,-351.0671 76,-306.5 76,-306.5 76,-306.5 76,-122 76,-67.1647 139.2984,-37.2353 187.2455,-22.4303"/>
<polygon fill="#191970" stroke="#191970" points="188.3078,-25.7661 196.9109,-19.5825 186.3294,-19.0515 188.3078,-25.7661"/>
</g>
<!-- Node23 -->
<g id="node24" class="node">
<title>Node23</title>
<g id="a_node24"><a xlink:href="api_2proto__stats__types_8h.html" target="_top" xlink:title="ODP proto stats types. ">
<polygon fill="#ffffff" stroke="#000000" points="657,-358.5 657,-388.5 767,-388.5 767,-358.5 657,-358.5"/>
<text text-anchor="start" x="665" y="-376.5" font-family="Helvetica,sans-Serif" font-size="10.00" fill="#000000">odp/api/proto_stats</text>
<text text-anchor="middle" x="712" y="-365.5" font-family="Helvetica,sans-Serif" font-size="10.00" fill="#000000">_types.h</text>
</a>
</g>
</g>
<!-- Node22&#45;&gt;Node23 -->
<g id="edge33" class="edge">
<title>Node22&#45;&gt;Node23</title>
<path fill="none" stroke="#191970" d="M688.2038,-548.4858C684.3802,-526.431 676.599,-470.2431 687,-425 689.1679,-415.5697 693.3028,-405.8635 697.5949,-397.4553"/>
<polygon fill="#191970" stroke="#191970" points="700.7092,-399.0547 702.4113,-388.5975 694.5595,-395.7108 700.7092,-399.0547"/>
</g>
<!-- Node26 -->
<g id="node27" class="node">
<title>Node26</title>
<g id="a_node27"><a xlink:href="api_2time_8h.html" target="_top" xlink:title="ODP time. ">
<polygon fill="#ffffff" stroke="#000000" points="889.5,-297 889.5,-316 976.5,-316 976.5,-297 889.5,-297"/>
<text text-anchor="middle" x="933" y="-304" font-family="Helvetica,sans-Serif" font-size="10.00" fill="#000000">odp/api/time.h</text>
</a>
</g>
</g>
<!-- Node22&#45;&gt;Node26 -->
<g id="edge39" class="edge">
<title>Node22&#45;&gt;Node26</title>
<path fill="none" stroke="#191970" d="M704.5071,-548.337C729.4439,-531.3489 781.3802,-494.2864 819,-456 861.3168,-412.9334 902.0009,-354.0477 921.3173,-324.6901"/>
<polygon fill="#191970" stroke="#191970" points="924.2875,-326.5428 926.8131,-316.2534 918.4222,-322.7221 924.2875,-326.5428"/>
</g>
<!-- Node29 -->
<g id="node30" class="node">
<title>Node29</title>
<g id="a_node30"><a xlink:href="api_2packet__types_8h.html" target="_top" xlink:title="ODP packet. ">
<polygon fill="#ffffff" stroke="#000000" points="904,-492.5 904,-511.5 1034,-511.5 1034,-492.5 904,-492.5"/>
<text text-anchor="middle" x="969" y="-499.5" font-family="Helvetica,sans-Serif" font-size="10.00" fill="#000000">odp/api/packet_types.h</text>
</a>
</g>
</g>
<!-- Node22&#45;&gt;Node29 -->
<g id="edge45" class="edge">
<title>Node22&#45;&gt;Node29</title>
<path fill="none" stroke="#191970" d="M737.6448,-548.4369C785.7947,-538.7724 860.2271,-523.8326 911.5993,-513.5213"/>
<polygon fill="#191970" stroke="#191970" points="912.4361,-516.9232 921.5517,-511.5237 911.0585,-510.0601 912.4361,-516.9232"/>
</g>
<!-- Node24 -->
<g id="node25" class="node">
<title>Node24</title>
<polygon fill="#ffffff" stroke="#bfbfbf" points="743,-291.5 743,-321.5 871,-321.5 871,-291.5 743,-291.5"/>
<text text-anchor="start" x="751" y="-309.5" font-family="Helvetica,sans-Serif" font-size="10.00" fill="#000000">odp/api/abi/proto_stats</text>
<text text-anchor="middle" x="807" y="-298.5" font-family="Helvetica,sans-Serif" font-size="10.00" fill="#000000">_types.h</text>
</g>
<!-- Node23&#45;&gt;Node24 -->
<g id="edge34" class="edge">
<title>Node23&#45;&gt;Node24</title>
<path fill="none" stroke="#191970" d="M733.557,-358.2967C746.4321,-349.2163 762.9755,-337.5488 777.1005,-327.587"/>
<polygon fill="#191970" stroke="#191970" points="779.3735,-330.2669 785.5283,-321.6432 775.339,-324.5464 779.3735,-330.2669"/>
</g>
<!-- Node25 -->
<g id="node26" class="node">
<title>Node25</title>
<g id="a_node26"><a xlink:href="api_2spec_2proto__stats__types_8h.html" target="_top" xlink:title="ODP proto stats types. ">
<polygon fill="#ffffff" stroke="#000000" points="617.5,-291.5 617.5,-321.5 724.5,-321.5 724.5,-291.5 617.5,-291.5"/>
<text text-anchor="start" x="625.5" y="-309.5" font-family="Helvetica,sans-Serif" font-size="10.00" fill="#000000">odp/api/spec/proto</text>
<text text-anchor="middle" x="671" y="-298.5" font-family="Helvetica,sans-Serif" font-size="10.00" fill="#000000">_stats_types.h</text>
</a>
</g>
</g>
<!-- Node23&#45;&gt;Node25 -->
<g id="edge35" class="edge">
<title>Node23&#45;&gt;Node25</title>
<path fill="none" stroke="#191970" d="M702.6965,-358.2967C697.664,-350.0729 691.3331,-339.7272 685.655,-330.4483"/>
<polygon fill="#191970" stroke="#191970" points="688.4718,-328.346 680.2667,-321.6432 682.501,-331.9997 688.4718,-328.346"/>
</g>
<!-- Node25&#45;&gt;Node1 -->
<g id="edge37" class="edge">
<title>Node25&#45;&gt;Node1</title>
<path fill="none" stroke="#191970" d="M724.5328,-292.9269C727.7288,-292.2417 730.9024,-291.593 734,-291 845.8649,-269.5844 877.4176,-271.7622 993.9549,-255.1227"/>
<polygon fill="#191970" stroke="#191970" points="994.5914,-258.5672 1003.9885,-253.6738 993.5909,-251.6391 994.5914,-258.5672"/>
</g>
<!-- Node25&#45;&gt;Node4 -->
<g id="edge36" class="edge">
<title>Node25&#45;&gt;Node4</title>
<path fill="none" stroke="#191970" d="M707.0505,-291.3932C746.801,-275.278 812.9595,-250.0454 872,-235 921.4931,-222.3876 1065.8334,-237.841 1099,-199 1141.4957,-149.2338 1096.9092,-65.2337 1073.4733,-28.3254"/>
<polygon fill="#191970" stroke="#191970" points="1076.179,-26.068 1067.7745,-19.6171 1070.3217,-29.9012 1076.179,-26.068"/>
</g>
<!-- Node25&#45;&gt;Node9 -->
<g id="edge38" class="edge">
<title>Node25&#45;&gt;Node9</title>
<path fill="none" stroke="#191970" d="M617.317,-301.3307C538.1665,-293.1436 394.4057,-275.9536 347,-255 310.5593,-238.893 302.6832,-229.4587 277,-199 236.7334,-151.2462 224.606,-136.4837 209,-76 206.7792,-67.393 206.4029,-64.501 209,-56 212.1409,-45.7192 218.4366,-35.6582 224.5388,-27.5799"/>
<polygon fill="#191970" stroke="#191970" points="227.363,-29.6535 230.9259,-19.6757 221.9184,-25.2539 227.363,-29.6535"/>
</g>
<!-- Node26&#45;&gt;Node1 -->
<g id="edge40" class="edge">
<title>Node26&#45;&gt;Node1</title>
<path fill="none" stroke="#191970" d="M952.8438,-296.8906C973.8136,-286.7359 1007.0944,-270.6196 1031.0036,-259.0416"/>
<polygon fill="#191970" stroke="#191970" points="1032.8208,-262.0504 1040.2956,-254.5419 1029.7699,-255.7502 1032.8208,-262.0504"/>
</g>
<!-- Node27 -->
<g id="node28" class="node">
<title>Node27</title>
<polygon fill="#ffffff" stroke="#bfbfbf" points="880.5,-235.5 880.5,-254.5 985.5,-254.5 985.5,-235.5 880.5,-235.5"/>
<text text-anchor="middle" x="933" y="-242.5" font-family="Helvetica,sans-Serif" font-size="10.00" fill="#000000">odp/api/abi/time.h</text>
</g>
<!-- Node26&#45;&gt;Node27 -->
<g id="edge41" class="edge">
<title>Node26&#45;&gt;Node27</title>
<path fill="none" stroke="#191970" d="M933,-296.8906C933,-288.3657 933,-275.6392 933,-264.9235"/>
<polygon fill="#191970" stroke="#191970" points="936.5001,-264.7448 933,-254.7449 929.5001,-264.7449 936.5001,-264.7448"/>
</g>
<!-- Node28 -->
<g id="node29" class="node">
<title>Node28</title>
<g id="a_node29"><a xlink:href="api_2spec_2time_8h.html" target="_top" xlink:title="ODP time. ">
<polygon fill="#ffffff" stroke="#000000" points="642.5,-56.5 642.5,-75.5 755.5,-75.5 755.5,-56.5 642.5,-56.5"/>
<text text-anchor="middle" x="699" y="-63.5" font-family="Helvetica,sans-Serif" font-size="10.00" fill="#000000">odp/api/spec/time.h</text>
</a>
</g>
</g>
<!-- Node26&#45;&gt;Node28 -->
<g id="edge42" class="edge">
<title>Node26&#45;&gt;Node28</title>
<path fill="none" stroke="#191970" d="M917.7765,-296.7555C891.0708,-279.2237 834.8378,-240.3226 795,-199 759.4423,-162.117 726.4501,-111.389 709.9784,-84.4908"/>
<polygon fill="#191970" stroke="#191970" points="712.8509,-82.4771 704.6831,-75.7289 706.86,-86.0977 712.8509,-82.4771"/>
</g>
<!-- Node28&#45;&gt;Node4 -->
<g id="edge43" class="edge">
<title>Node28&#45;&gt;Node4</title>
<path fill="none" stroke="#191970" d="M755.5625,-57.25C818.8308,-47.4626 921.4153,-31.5932 990.0204,-20.9803"/>
<polygon fill="#191970" stroke="#191970" points="990.96,-24.3766 1000.3073,-19.3889 989.8898,-17.4589 990.96,-24.3766"/>
</g>
<!-- Node28&#45;&gt;Node9 -->
<g id="edge44" class="edge">
<title>Node28&#45;&gt;Node9</title>
<path fill="none" stroke="#191970" d="M642.4339,-57.919C637.5537,-57.2564 632.691,-56.6083 628,-56 515.1757,-41.3684 383.6457,-26.1642 306.3476,-17.418"/>
<polygon fill="#191970" stroke="#191970" points="306.6003,-13.9244 296.2706,-16.2797 305.8145,-20.8802 306.6003,-13.9244"/>
</g>
<!-- Node29&#45;&gt;Node20 -->
<g id="edge46" class="edge">
<title>Node29&#45;&gt;Node20</title>
<path fill="none" stroke="#191970" d="M969.9375,-492.3906C970.6367,-485.2234 971.6257,-475.0862 972.5443,-465.671"/>
<polygon fill="#191970" stroke="#191970" points="976.0446,-465.8372 973.5322,-455.5446 969.0777,-465.1575 976.0446,-465.8372"/>
</g>
<!-- Node30 -->
<g id="node31" class="node">
<title>Node30</title>
<g id="a_node31"><a xlink:href="api_2spec_2packet__types_8h.html" target="_top" xlink:title="ODP packet types. ">
<polygon fill="#ffffff" stroke="#000000" points="696,-425.5 696,-455.5 810,-455.5 810,-425.5 696,-425.5"/>
<text text-anchor="start" x="704" y="-443.5" font-family="Helvetica,sans-Serif" font-size="10.00" fill="#000000">odp/api/spec/packet</text>
<text text-anchor="middle" x="753" y="-432.5" font-family="Helvetica,sans-Serif" font-size="10.00" fill="#000000">_types.h</text>
</a>
</g>
</g>
<!-- Node29&#45;&gt;Node30 -->
<g id="edge47" class="edge">
<title>Node29&#45;&gt;Node30</title>
<path fill="none" stroke="#191970" d="M935.25,-492.3906C903.3103,-483.2967 854.578,-469.4215 815.5396,-458.3064"/>
<polygon fill="#191970" stroke="#191970" points="816.4158,-454.9168 805.8395,-455.5446 814.4988,-461.6493 816.4158,-454.9168"/>
</g>
<!-- Node30&#45;&gt;Node4 -->
<g id="edge48" class="edge">
<title>Node30&#45;&gt;Node4</title>
<path fill="none" stroke="#191970" d="M810.023,-430.9636C895.6287,-413.2595 1054.7897,-366.4313 1125,-255 1172.3201,-179.8979 1155.2737,-131.1313 1108,-56 1100.9457,-44.7886 1090.6324,-34.2916 1081.4629,-26.164"/>
<polygon fill="#191970" stroke="#191970" points="1083.7001,-23.4721 1073.8099,-19.673 1079.1723,-28.8106 1083.7001,-23.4721"/>
</g>
<!-- Node30&#45;&gt;Node9 -->
<g id="edge68" class="edge">
<title>Node30&#45;&gt;Node9</title>
<path fill="none" stroke="#191970" d="M695.9458,-433.4466C606.8795,-420.7633 431.1153,-388.9366 297,-322 277.1884,-312.1121 277.4214,-301.634 258,-291 214.7285,-267.3071 190.7044,-286.8144 153,-255 125.3349,-231.6566 114,-219.6977 114,-183.5 114,-183.5 114,-183.5 114,-122 114,-73.3709 167.0767,-40.6863 204.333,-23.7339"/>
<polygon fill="#191970" stroke="#191970" points="206.1249,-26.7709 213.8927,-19.5659 203.3272,-20.3542 206.1249,-26.7709"/>
</g>
<!-- Node30&#45;&gt;Node23 -->
<g id="edge49" class="edge">
<title>Node30&#45;&gt;Node23</title>
<path fill="none" stroke="#191970" d="M743.6965,-425.2967C738.664,-417.0729 732.3331,-406.7272 726.655,-397.4483"/>
<polygon fill="#191970" stroke="#191970" points="729.4718,-395.346 721.2667,-388.6432 723.501,-398.9997 729.4718,-395.346"/>
</g>
<!-- Node30&#45;&gt;Node31 -->
<g id="edge50" class="edge">
<title>Node30&#45;&gt;Node31</title>
<path fill="none" stroke="#191970" d="M695.756,-435.8276C607.1929,-428.2356 431.7503,-411.7485 284,-389 276.3243,-387.8182 268.2559,-386.4074 260.338,-384.9253"/>
<polygon fill="#191970" stroke="#191970" points="260.9107,-381.4714 250.4299,-383.0217 259.5899,-388.3457 260.9107,-381.4714"/>
</g>
<!-- Node31&#45;&gt;Node11 -->
<g id="edge51" class="edge">
<title>Node31&#45;&gt;Node11</title>
<path fill="none" stroke="#191970" d="M201.845,-363.9005C197.5381,-353.95 190.6903,-338.1292 185.2735,-325.6147"/>
<polygon fill="#191970" stroke="#191970" points="188.3316,-323.8686 181.1473,-316.0817 181.9075,-326.6492 188.3316,-323.8686"/>
</g>
<!-- Node32 -->
<g id="node33" class="node">
<title>Node32</title>
<g id="a_node33"><a xlink:href="api_2spec_2queue__types_8h.html" target="_top" xlink:title="ODP queue types. ">
<polygon fill="#ffffff" stroke="#000000" points="306.5,-291.5 306.5,-321.5 417.5,-321.5 417.5,-291.5 306.5,-291.5"/>
<text text-anchor="start" x="314.5" y="-309.5" font-family="Helvetica,sans-Serif" font-size="10.00" fill="#000000">odp/api/spec/queue</text>
<text text-anchor="middle" x="362" y="-298.5" font-family="Helvetica,sans-Serif" font-size="10.00" fill="#000000">_types.h</text>
</a>
</g>
</g>
<!-- Node31&#45;&gt;Node32 -->
<g id="edge52" class="edge">
<title>Node31&#45;&gt;Node32</title>
<path fill="none" stroke="#191970" d="M228.351,-363.9005C251.5128,-353.9528 288.3349,-338.1382 317.4692,-325.6254"/>
<polygon fill="#191970" stroke="#191970" points="319.2168,-328.6841 327.024,-321.5218 316.4543,-322.2522 319.2168,-328.6841"/>
</g>
<!-- Node32&#45;&gt;Node4 -->
<g id="edge53" class="edge">
<title>Node32&#45;&gt;Node4</title>
<path fill="none" stroke="#191970" d="M404.9849,-291.4885C482.3996,-264.7371 650.6489,-207.8897 795,-168 862.7505,-149.278 885.3672,-161.8582 949,-132 986.3387,-114.4797 995.7204,-106.9347 1023,-76 1035.5259,-61.7958 1045.931,-42.8251 1052.6673,-28.8682"/>
<polygon fill="#191970" stroke="#191970" points="1055.8723,-30.2762 1056.9018,-19.7315 1049.5213,-27.3327 1055.8723,-30.2762"/>
</g>
<!-- Node32&#45;&gt;Node9 -->
<g id="edge67" class="edge">
<title>Node32&#45;&gt;Node9</title>
<path fill="none" stroke="#191970" d="M306.3977,-292.9486C251.7888,-279.4204 175.9315,-259.9494 171,-255 147.7922,-231.7076 152,-216.3806 152,-183.5 152,-183.5 152,-183.5 152,-122 152,-90.7875 157.1558,-80.8821 176,-56 185.6391,-43.2724 199.7867,-32.591 212.3306,-24.7344"/>
<polygon fill="#191970" stroke="#191970" points="214.287,-27.6432 221.0937,-19.5241 210.7095,-21.6264 214.287,-27.6432"/>
</g>
<!-- Node33 -->
<g id="node34" class="node">
<title>Node33</title>
<g id="a_node34"><a xlink:href="api_2schedule__types_8h.html" target="_top" xlink:title="ODP schedule. ">
<polygon fill="#ffffff" stroke="#000000" points="356,-235.5 356,-254.5 496,-254.5 496,-235.5 356,-235.5"/>
<text text-anchor="middle" x="426" y="-242.5" font-family="Helvetica,sans-Serif" font-size="10.00" fill="#000000">odp/api/schedule_types.h</text>
</a>
</g>
</g>
<!-- Node32&#45;&gt;Node33 -->
<g id="edge54" class="edge">
<title>Node32&#45;&gt;Node33</title>
<path fill="none" stroke="#191970" d="M377.8202,-291.2977C387.0742,-282.4052 398.7781,-271.1586 408.333,-261.9769"/>
<polygon fill="#191970" stroke="#191970" points="410.9674,-264.2995 415.7528,-254.8469 406.1172,-259.2521 410.9674,-264.2995"/>
</g>
<!-- Node38 -->
<g id="node39" class="node">
<title>Node38</title>
<g id="a_node39"><a xlink:href="deprecated_8h.html" target="_top" xlink:title="Control deprecated API definitions. ">
<polygon fill="#ffffff" stroke="#000000" points="180.5,-235.5 180.5,-254.5 299.5,-254.5 299.5,-235.5 180.5,-235.5"/>
<text text-anchor="middle" x="240" y="-242.5" font-family="Helvetica,sans-Serif" font-size="10.00" fill="#000000">odp/api/deprecated.h</text>
</a>
</g>
</g>
<!-- Node32&#45;&gt;Node38 -->
<g id="edge63" class="edge">
<title>Node32&#45;&gt;Node38</title>
<path fill="none" stroke="#191970" d="M332.1554,-291.4554C312.603,-281.599 287.2128,-268.7999 268.0355,-259.1327"/>
<polygon fill="#191970" stroke="#191970" points="269.4108,-255.9064 258.9057,-254.5303 266.2598,-262.1571 269.4108,-255.9064"/>
</g>
<!-- Node34 -->
<g id="node35" class="node">
<title>Node34</title>
<polygon fill="#ffffff" stroke="#bfbfbf" points="286.5,-168.5 286.5,-198.5 403.5,-198.5 403.5,-168.5 286.5,-168.5"/>
<text text-anchor="start" x="294.5" y="-186.5" font-family="Helvetica,sans-Serif" font-size="10.00" fill="#000000">odp/api/abi/schedule</text>
<text text-anchor="middle" x="345" y="-175.5" font-family="Helvetica,sans-Serif" font-size="10.00" fill="#000000">_types.h</text>
</g>
<!-- Node33&#45;&gt;Node34 -->
<g id="edge55" class="edge">
<title>Node33&#45;&gt;Node34</title>
<path fill="none" stroke="#191970" d="M413.3438,-235.3906C402.5844,-227.2215 386.7435,-215.1941 373.0209,-204.7752"/>
<polygon fill="#191970" stroke="#191970" points="374.8958,-201.8042 364.8148,-198.5446 370.6628,-207.3793 374.8958,-201.8042"/>
</g>
<!-- Node35 -->
<g id="node36" class="node">
<title>Node35</title>
<g id="a_node36"><a xlink:href="api_2spec_2schedule__types_8h.html" target="_top" xlink:title="ODP schedule types. ">
<polygon fill="#ffffff" stroke="#000000" points="421.5,-168.5 421.5,-198.5 546.5,-198.5 546.5,-168.5 421.5,-168.5"/>
<text text-anchor="start" x="429.5" y="-186.5" font-family="Helvetica,sans-Serif" font-size="10.00" fill="#000000">odp/api/spec/schedule</text>
<text text-anchor="middle" x="484" y="-175.5" font-family="Helvetica,sans-Serif" font-size="10.00" fill="#000000">_types.h</text>
</a>
</g>
</g>
<!-- Node33&#45;&gt;Node35 -->
<g id="edge56" class="edge">
<title>Node33&#45;&gt;Node35</title>
<path fill="none" stroke="#191970" d="M435.0625,-235.3906C442.476,-227.5298 453.2587,-216.0964 462.817,-205.9612"/>
<polygon fill="#191970" stroke="#191970" points="465.4968,-208.221 469.8116,-198.5446 460.4043,-203.4183 465.4968,-208.221"/>
</g>
<!-- Node35&#45;&gt;Node4 -->
<g id="edge57" class="edge">
<title>Node35&#45;&gt;Node4</title>
<path fill="none" stroke="#191970" d="M501.4206,-168.3589C539.9039,-134.9424 629.0828,-57.6906 633,-56 695.4204,-29.0606 885.3011,-17.1784 989.9388,-12.5581"/>
<polygon fill="#191970" stroke="#191970" points="990.2605,-16.0476 1000.1006,-12.1204 989.9592,-9.0541 990.2605,-16.0476"/>
</g>
<!-- Node35&#45;&gt;Node9 -->
<g id="edge62" class="edge">
<title>Node35&#45;&gt;Node9</title>
<path fill="none" stroke="#191970" d="M463.9185,-168.4542C451.6686,-158.7642 436.0944,-145.4936 424,-132 396.6833,-101.5228 404.5064,-80.8676 372,-56 351.078,-39.9946 324.1672,-29.292 300.1074,-22.2729"/>
<polygon fill="#191970" stroke="#191970" points="300.9192,-18.8661 290.3482,-19.5772 299.0554,-25.6135 300.9192,-18.8661"/>
</g>
<!-- Node36 -->
<g id="node37" class="node">
<title>Node36</title>
<g id="a_node37"><a xlink:href="support_8h.html" target="_top" xlink:title="ODP support API &#45; platform specific header. ">
<polygon fill="#ffffff" stroke="#000000" points="433.5,-112.5 433.5,-131.5 534.5,-131.5 534.5,-112.5 433.5,-112.5"/>
<text text-anchor="middle" x="484" y="-119.5" font-family="Helvetica,sans-Serif" font-size="10.00" fill="#000000">odp/api/support.h</text>
</a>
</g>
</g>
<!-- Node35&#45;&gt;Node36 -->
<g id="edge58" class="edge">
<title>Node35&#45;&gt;Node36</title>
<path fill="none" stroke="#191970" d="M484,-168.2977C484,-160.3834 484,-150.6043 484,-142.0759"/>
<polygon fill="#191970" stroke="#191970" points="487.5001,-141.8469 484,-131.8469 480.5001,-141.847 487.5001,-141.8469"/>
</g>
<!-- Node37 -->
<g id="node38" class="node">
<title>Node37</title>
<g id="a_node38"><a xlink:href="spec_2support_8h.html" target="_top" xlink:title="ODP support API. ">
<polygon fill="#ffffff" stroke="#000000" points="420.5,-56.5 420.5,-75.5 547.5,-75.5 547.5,-56.5 420.5,-56.5"/>
<text text-anchor="middle" x="484" y="-63.5" font-family="Helvetica,sans-Serif" font-size="10.00" fill="#000000">odp/api/spec/support.h</text>
</a>
</g>
</g>
<!-- Node36&#45;&gt;Node37 -->
<g id="edge59" class="edge">
<title>Node36&#45;&gt;Node37</title>
<path fill="none" stroke="#191970" d="M484,-112.2455C484,-104.9382 484,-94.6944 484,-85.7046"/>
<polygon fill="#191970" stroke="#191970" points="487.5001,-85.6426 484,-75.6427 480.5001,-85.6427 487.5001,-85.6426"/>
</g>
<!-- Node37&#45;&gt;Node4 -->
<g id="edge60" class="edge">
<title>Node37&#45;&gt;Node4</title>
<path fill="none" stroke="#191970" d="M547.8287,-57.629C552.6218,-57.0579 557.3861,-56.5083 562,-56 714.2706,-39.226 893.1499,-23.7643 989.993,-15.7455"/>
<polygon fill="#191970" stroke="#191970" points="990.569,-19.21 1000.2471,-14.8989 989.993,-12.2337 990.569,-19.21"/>
</g>
<!-- Node37&#45;&gt;Node9 -->
<g id="edge61" class="edge">
<title>Node37&#45;&gt;Node9</title>
<path fill="none" stroke="#191970" d="M442.3321,-56.4369C400.5734,-46.8529 336.2109,-32.0812 291.3272,-21.78"/>
<polygon fill="#191970" stroke="#191970" points="292.0255,-18.3494 281.496,-19.5237 290.4596,-25.172 292.0255,-18.3494"/>
</g>
<!-- Node39 -->
<g id="node40" class="node">
<title>Node39</title>
<g id="a_node40"><a xlink:href="spec_2deprecated_8h.html" target="_top" xlink:title="Macro for deprecated API definitions. ">
<polygon fill="#ffffff" stroke="#000000" points="218.5,-56.5 218.5,-75.5 363.5,-75.5 363.5,-56.5 218.5,-56.5"/>
<text text-anchor="middle" x="291" y="-63.5" font-family="Helvetica,sans-Serif" font-size="10.00" fill="#000000">odp/api/spec/deprecated.h</text>
</a>
</g>
</g>
<!-- Node38&#45;&gt;Node39 -->
<g id="edge64" class="edge">
<title>Node38&#45;&gt;Node39</title>
<path fill="none" stroke="#191970" d="M242.742,-235.3762C250.8017,-207.0883 274.5322,-123.7987 285.4223,-85.5767"/>
<polygon fill="#191970" stroke="#191970" points="288.8703,-86.2477 288.2445,-75.6714 282.1382,-84.3296 288.8703,-86.2477"/>
</g>
<!-- Node39&#45;&gt;Node4 -->
<g id="edge65" class="edge">
<title>Node39&#45;&gt;Node4</title>
<path fill="none" stroke="#191970" d="M363.6469,-59.7993C379.265,-58.5073 395.6798,-57.1804 411,-56 621.7075,-39.7654 871.0134,-22.73 990.3901,-14.707"/>
<polygon fill="#191970" stroke="#191970" points="990.7497,-18.1909 1000.4928,-14.0287 990.2807,-11.2066 990.7497,-18.1909"/>
</g>
<!-- Node39&#45;&gt;Node9 -->
<g id="edge66" class="edge">
<title>Node39&#45;&gt;Node9</title>
<path fill="none" stroke="#191970" d="M282.1165,-56.2455C274.8034,-48.2155 264.2609,-36.6394 255.5533,-27.0781"/>
<polygon fill="#191970" stroke="#191970" points="258.1028,-24.6795 248.7817,-19.6427 252.9273,-29.3928 258.1028,-24.6795"/>
</g>
</g>
</svg>
