<?xml version="1.0" encoding="UTF-8" standalone="no"?>
<!DOCTYPE svg PUBLIC "-//W3C//DTD SVG 1.1//EN"
 "http://www.w3.org/Graphics/SVG/1.1/DTD/svg11.dtd">
<!-- Generated by graphviz version 2.40.1 (20161225.0304)
 -->
<!-- Title: odp.h Pages: 1 -->
<svg width="5479pt" height="196pt"
 viewBox="0.00 0.00 5478.50 196.00" xmlns="http://www.w3.org/2000/svg" xmlns:xlink="http://www.w3.org/1999/xlink">
<g id="graph0" class="graph" transform="scale(1 1) rotate(0) translate(4 192)">
<title>odp.h</title>
<polygon fill="#ffffff" stroke="transparent" points="-4,4 -4,-192 5474.5,-192 5474.5,4 -4,4"/>
<!-- Node0 -->
<g id="node1" class="node">
<title>Node0</title>
<polygon fill="#bfbfbf" stroke="#000000" points="2565.5,-168.5 2565.5,-187.5 2609.5,-187.5 2609.5,-168.5 2565.5,-168.5"/>
<text text-anchor="middle" x="2587.5" y="-175.5" font-family="Helvetica,sans-Serif" font-size="10.00" fill="#000000">odp.h</text>
</g>
<!-- Node1 -->
<g id="node2" class="node">
<title>Node1</title>
<g id="a_node2"><a xlink:href="odp__api_8h.html" target="_top" xlink:title="The OpenDataPlane API. ">
<polygon fill="#ffffff" stroke="#000000" points="2555.5,-112.5 2555.5,-131.5 2619.5,-131.5 2619.5,-112.5 2555.5,-112.5"/>
<text text-anchor="middle" x="2587.5" y="-119.5" font-family="Helvetica,sans-Serif" font-size="10.00" fill="#000000">odp_api.h</text>
</a>
</g>
</g>
<!-- Node0&#45;&gt;Node1 -->
<g id="edge1" class="edge">
<title>Node0&#45;&gt;Node1</title>
<path fill="none" stroke="#191970" d="M2587.5,-168.2455C2587.5,-160.9382 2587.5,-150.6944 2587.5,-141.7046"/>
<polygon fill="#191970" stroke="#191970" points="2591.0001,-141.6426 2587.5,-131.6427 2584.0001,-141.6427 2591.0001,-141.6426"/>
</g>
<!-- Node2 -->
<g id="node3" class="node">
<title>Node2</title>
<g id="a_node3"><a xlink:href="deprecated_8h.html" target="_top" xlink:title="Control deprecated API definitions. ">
<polygon fill="#ffffff" stroke="#000000" points="13,-56.5 13,-75.5 132,-75.5 132,-56.5 13,-56.5"/>
<text text-anchor="middle" x="72.5" y="-63.5" font-family="Helvetica,sans-Serif" font-size="10.00" fill="#000000">odp/api/deprecated.h</text>
</a>
</g>
</g>
<!-- Node1&#45;&gt;Node2 -->
<g id="edge2" class="edge">
<title>Node1&#45;&gt;Node2</title>
<path fill="none" stroke="#191970" d="M2555.3869,-121.9592C2305.0997,-121.5578 662.8323,-117.3905 142.3664,-76.039"/>
<polygon fill="#191970" stroke="#191970" points="142.4049,-72.5307 132.1546,-75.2109 141.839,-79.5078 142.4049,-72.5307"/>
</g>
<!-- Node6 -->
<g id="node5" class="node">
<title>Node6</title>
<g id="a_node5"><a xlink:href="api_2version_8h.html" target="_top" xlink:title="ODP version. ">
<polygon fill="#ffffff" stroke="#ff0000" points="150,-56.5 150,-75.5 251,-75.5 251,-56.5 150,-56.5"/>
<text text-anchor="middle" x="200.5" y="-63.5" font-family="Helvetica,sans-Serif" font-size="10.00" fill="#000000">odp/api/version.h</text>
</a>
</g>
</g>
<!-- Node1&#45;&gt;Node6 -->
<g id="edge4" class="edge">
<title>Node1&#45;&gt;Node6</title>
<path fill="none" stroke="#191970" d="M2555.3052,-121.6474C2295.5206,-118.7651 544.2988,-98.636 261.3518,-75.8571"/>
<polygon fill="#191970" stroke="#191970" points="261.4359,-72.3514 251.1716,-74.9771 260.833,-79.3254 261.4359,-72.3514"/>
</g>
<!-- Node9 -->
<g id="node6" class="node">
<title>Node9</title>
<g id="a_node6"><a xlink:href="api_2std__types_8h.html" target="_top" xlink:title="Standard C language types and definitions for ODP. ">
<polygon fill="#ffffff" stroke="#ff0000" points="2729.5,-.5 2729.5,-19.5 2841.5,-19.5 2841.5,-.5 2729.5,-.5"/>
<text text-anchor="middle" x="2785.5" y="-7.5" font-family="Helvetica,sans-Serif" font-size="10.00" fill="#000000">odp/api/std_types.h</text>
</a>
</g>
</g>
<!-- Node1&#45;&gt;Node9 -->
<g id="edge5" class="edge">
<title>Node1&#45;&gt;Node9</title>
<path fill="none" stroke="#191970" d="M2619.6262,-121.7053C2783.8846,-120.0452 3523.4465,-110.6598 3556.5,-76 3562.6346,-69.5673 3562.5954,-62.4699 3556.5,-56 3532.4865,-30.5111 3034.1501,-15.988 2851.6879,-11.5086"/>
<polygon fill="#191970" stroke="#191970" points="2851.7655,-8.0096 2841.6834,-11.2654 2851.5953,-15.0075 2851.7655,-8.0096"/>
</g>
<!-- Node13 -->
<g id="node7" class="node">
<title>Node13</title>
<g id="a_node7"><a xlink:href="api_2align_8h.html" target="_top" xlink:title="ODP alignments. ">
<polygon fill="#ffffff" stroke="#ff0000" points="370,-56.5 370,-75.5 459,-75.5 459,-56.5 370,-56.5"/>
<text text-anchor="middle" x="414.5" y="-63.5" font-family="Helvetica,sans-Serif" font-size="10.00" fill="#000000">odp/api/align.h</text>
</a>
</g>
</g>
<!-- Node1&#45;&gt;Node13 -->
<g id="edge6" class="edge">
<title>Node1&#45;&gt;Node13</title>
<path fill="none" stroke="#191970" d="M2555.4544,-121.6243C2309.7818,-118.7025 727.8689,-99.1376 469.2286,-75.9451"/>
<polygon fill="#191970" stroke="#191970" points="469.5338,-72.4583 459.2431,-74.9786 468.8593,-79.4258 469.5338,-72.4583"/>
</g>
<!-- Node16 -->
<g id="node8" class="node">
<title>Node16</title>
<g id="a_node8"><a xlink:href="api_2hash_8h.html" target="_top" xlink:title="ODP Hash function. ">
<polygon fill="#ffffff" stroke="#ff0000" points="476.5,-56.5 476.5,-75.5 564.5,-75.5 564.5,-56.5 476.5,-56.5"/>
<text text-anchor="middle" x="520.5" y="-63.5" font-family="Helvetica,sans-Serif" font-size="10.00" fill="#000000">odp/api/hash.h</text>
</a>
</g>
</g>
<!-- Node1&#45;&gt;Node16 -->
<g id="edge7" class="edge">
<title>Node1&#45;&gt;Node16</title>
<path fill="none" stroke="#191970" d="M2555.1512,-121.5812C2315.8424,-118.4418 823.0549,-98.1308 574.9005,-75.8861"/>
<polygon fill="#191970" stroke="#191970" points="574.9579,-72.3754 564.6666,-74.8928 574.2816,-79.3426 574.9579,-72.3754"/>
</g>
<!-- Node19 -->
<g id="node9" class="node">
<title>Node19</title>
<g id="a_node9"><a xlink:href="chksum_8h.html" target="_top" xlink:title="ODP checksum functions. ">
<polygon fill="#ffffff" stroke="#ff0000" points="583,-56.5 583,-75.5 686,-75.5 686,-56.5 583,-56.5"/>
<text text-anchor="middle" x="634.5" y="-63.5" font-family="Helvetica,sans-Serif" font-size="10.00" fill="#000000">odp/api/chksum.h</text>
</a>
</g>
</g>
<!-- Node1&#45;&gt;Node19 -->
<g id="edge8" class="edge">
<title>Node1&#45;&gt;Node19</title>
<path fill="none" stroke="#191970" d="M2555.4242,-121.8276C2339.8799,-120.5783 1099.1008,-111.9446 696.2481,-75.8976"/>
<polygon fill="#191970" stroke="#191970" points="696.2979,-72.3876 686.0199,-74.9594 695.6584,-79.3583 696.2979,-72.3876"/>
</g>
<!-- Node21 -->
<g id="node10" class="node">
<title>Node21</title>
<g id="a_node10"><a xlink:href="api_2comp_8h.html" target="_top" xlink:title="ODP crypto. ">
<polygon fill="#ffffff" stroke="#ff0000" points="704.5,-56.5 704.5,-75.5 796.5,-75.5 796.5,-56.5 704.5,-56.5"/>
<text text-anchor="middle" x="750.5" y="-63.5" font-family="Helvetica,sans-Serif" font-size="10.00" fill="#000000">odp/api/comp.h</text>
</a>
</g>
</g>
<!-- Node1&#45;&gt;Node21 -->
<g id="edge9" class="edge">
<title>Node1&#45;&gt;Node21</title>
<path fill="none" stroke="#191970" d="M2555.2984,-121.833C2345.0022,-120.6425 1164.8014,-112.4082 806.5,-76 806.3987,-75.9897 806.2973,-75.9793 806.1958,-75.9689"/>
<polygon fill="#191970" stroke="#191970" points="806.9175,-72.5311 796.5673,-74.7943 806.0698,-79.4796 806.9175,-72.5311"/>
</g>
<!-- Node48 -->
<g id="node11" class="node">
<title>Node48</title>
<g id="a_node11"><a xlink:href="hints_8h.html" target="_top" xlink:title="ODP compiler hints. ">
<polygon fill="#ffffff" stroke="#ff0000" points="815,-56.5 815,-75.5 904,-75.5 904,-56.5 815,-56.5"/>
<text text-anchor="middle" x="859.5" y="-63.5" font-family="Helvetica,sans-Serif" font-size="10.00" fill="#000000">odp/api/hints.h</text>
</a>
</g>
</g>
<!-- Node1&#45;&gt;Node48 -->
<g id="edge10" class="edge">
<title>Node1&#45;&gt;Node48</title>
<path fill="none" stroke="#191970" d="M2555.2917,-121.7997C2354.3423,-120.4478 1269.9946,-111.6335 914.2662,-75.8726"/>
<polygon fill="#191970" stroke="#191970" points="914.5175,-72.38 904.2107,-74.8338 913.7981,-79.343 914.5175,-72.38"/>
</g>
<!-- Node50 -->
<g id="node12" class="node">
<title>Node50</title>
<g id="a_node12"><a xlink:href="api_2debug_8h.html" target="_top" xlink:title="ODP debug. ">
<polygon fill="#ffffff" stroke="#ff0000" points="922,-56.5 922,-75.5 1017,-75.5 1017,-56.5 922,-56.5"/>
<text text-anchor="middle" x="969.5" y="-63.5" font-family="Helvetica,sans-Serif" font-size="10.00" fill="#000000">odp/api/debug.h</text>
</a>
</g>
</g>
<!-- Node1&#45;&gt;Node50 -->
<g id="edge11" class="edge">
<title>Node1&#45;&gt;Node50</title>
<path fill="none" stroke="#191970" d="M2555.2946,-121.6845C2362.5568,-119.7019 1359.2481,-108.0278 1027.1193,-75.8699"/>
<polygon fill="#191970" stroke="#191970" points="1027.312,-72.3718 1017.0144,-74.8638 1026.6184,-79.3374 1027.312,-72.3718"/>
</g>
<!-- Node53 -->
<g id="node13" class="node">
<title>Node53</title>
<g id="a_node13"><a xlink:href="api_2byteorder_8h.html" target="_top" xlink:title="ODP byteorder. ">
<polygon fill="#ffffff" stroke="#ff0000" points="1035,-56.5 1035,-75.5 1146,-75.5 1146,-56.5 1035,-56.5"/>
<text text-anchor="middle" x="1090.5" y="-63.5" font-family="Helvetica,sans-Serif" font-size="10.00" fill="#000000">odp/api/byteorder.h</text>
</a>
</g>
</g>
<!-- Node1&#45;&gt;Node53 -->
<g id="edge12" class="edge">
<title>Node1&#45;&gt;Node53</title>
<path fill="none" stroke="#191970" d="M2555.4202,-121.4452C2371.0483,-118.1842 1444.6272,-100.799 1160.5,-76 1159.193,-75.8859 1157.873,-75.7639 1156.5436,-75.6349"/>
<polygon fill="#191970" stroke="#191970" points="1156.5384,-72.1141 1146.2208,-74.522 1155.788,-79.0738 1156.5384,-72.1141"/>
</g>
<!-- Node56 -->
<g id="node14" class="node">
<title>Node56</title>
<g id="a_node14"><a xlink:href="api_2cpu_8h.html" target="_top" xlink:title="ODP CPU. ">
<polygon fill="#ffffff" stroke="#ff0000" points="269.5,-56.5 269.5,-75.5 351.5,-75.5 351.5,-56.5 269.5,-56.5"/>
<text text-anchor="middle" x="310.5" y="-63.5" font-family="Helvetica,sans-Serif" font-size="10.00" fill="#000000">odp/api/cpu.h</text>
</a>
</g>
</g>
<!-- Node1&#45;&gt;Node56 -->
<g id="edge13" class="edge">
<title>Node1&#45;&gt;Node56</title>
<path fill="none" stroke="#191970" d="M2555.4767,-121.6813C2302.7664,-119.1218 632.8985,-101.3815 361.7239,-75.8483"/>
<polygon fill="#191970" stroke="#191970" points="361.9137,-72.3496 351.611,-74.8207 361.206,-79.3137 361.9137,-72.3496"/>
</g>
<!-- Node58 -->
<g id="node15" class="node">
<title>Node58</title>
<g id="a_node15"><a xlink:href="api_2thread_8h.html" target="_top" xlink:title="ODP thread API. ">
<polygon fill="#ffffff" stroke="#ff0000" points="655.5,-.5 655.5,-19.5 751.5,-19.5 751.5,-.5 655.5,-.5"/>
<text text-anchor="middle" x="703.5" y="-7.5" font-family="Helvetica,sans-Serif" font-size="10.00" fill="#000000">odp/api/thread.h</text>
</a>
</g>
</g>
<!-- Node1&#45;&gt;Node58 -->
<g id="edge25" class="edge">
<title>Node1&#45;&gt;Node58</title>
<path fill="none" stroke="#191970" d="M2555.4848,-121.4128C2362.4825,-117.8077 1357.789,-98.0949 1222.5,-76 1191.8302,-70.9911 1185.9827,-62.0445 1155.5,-56 1015.9102,-28.3203 848.5762,-16.8082 761.9339,-12.4232"/>
<polygon fill="#191970" stroke="#191970" points="761.9351,-8.9191 751.7751,-11.9232 761.5909,-15.9107 761.9351,-8.9191"/>
</g>
<!-- Node63 -->
<g id="node16" class="node">
<title>Node63</title>
<g id="a_node16"><a xlink:href="api_2cpumask_8h.html" target="_top" xlink:title="ODP CPU masks and enumeration. ">
<polygon fill="#ffffff" stroke="#ff0000" points="1241,-56.5 1241,-75.5 1350,-75.5 1350,-56.5 1241,-56.5"/>
<text text-anchor="middle" x="1295.5" y="-63.5" font-family="Helvetica,sans-Serif" font-size="10.00" fill="#000000">odp/api/cpumask.h</text>
</a>
</g>
</g>
<!-- Node1&#45;&gt;Node63 -->
<g id="edge15" class="edge">
<title>Node1&#45;&gt;Node63</title>
<path fill="none" stroke="#191970" d="M2555.3304,-121.3081C2388.7475,-117.6479 1622.1766,-99.8438 1360.4749,-75.9504"/>
<polygon fill="#191970" stroke="#191970" points="1360.5429,-72.4414 1350.2591,-74.9895 1359.8874,-79.4106 1360.5429,-72.4414"/>
</g>
<!-- Node66 -->
<g id="node17" class="node">
<title>Node66</title>
<g id="a_node17"><a xlink:href="api_2barrier_8h.html" target="_top" xlink:title="ODP execution barriers. ">
<polygon fill="#ffffff" stroke="#ff0000" points="1368.5,-56.5 1368.5,-75.5 1464.5,-75.5 1464.5,-56.5 1368.5,-56.5"/>
<text text-anchor="middle" x="1416.5" y="-63.5" font-family="Helvetica,sans-Serif" font-size="10.00" fill="#000000">odp/api/barrier.h</text>
</a>
</g>
</g>
<!-- Node1&#45;&gt;Node66 -->
<g id="edge16" class="edge">
<title>Node1&#45;&gt;Node66</title>
<path fill="none" stroke="#191970" d="M2555.2438,-121.2316C2395.9613,-117.3509 1692.2891,-99.1771 1474.5,-76 1474.3984,-75.9892 1474.2967,-75.9783 1474.1949,-75.9674"/>
<polygon fill="#191970" stroke="#191970" points="1474.8932,-72.5271 1464.5397,-74.7756 1474.0356,-79.4744 1474.8932,-72.5271"/>
</g>
<!-- Node67 -->
<g id="node18" class="node">
<title>Node67</title>
<g id="a_node18"><a xlink:href="api_2atomic_8h.html" target="_top" xlink:title="ODP atomic operations. ">
<polygon fill="#ffffff" stroke="#ff0000" points="1265.5,-.5 1265.5,-19.5 1363.5,-19.5 1363.5,-.5 1265.5,-.5"/>
<text text-anchor="middle" x="1314.5" y="-7.5" font-family="Helvetica,sans-Serif" font-size="10.00" fill="#000000">odp/api/atomic.h</text>
</a>
</g>
</g>
<!-- Node1&#45;&gt;Node67 -->
<g id="edge20" class="edge">
<title>Node1&#45;&gt;Node67</title>
<path fill="none" stroke="#191970" d="M2555.29,-121.52C2352.1524,-118.4189 1256.2461,-100.5659 1232.5,-76 1212.9023,-55.7257 1246.7191,-35.9143 1276.6803,-23.3732"/>
<polygon fill="#191970" stroke="#191970" points="1278.2149,-26.5291 1286.1999,-19.5655 1275.6152,-20.0297 1278.2149,-26.5291"/>
</g>
<!-- Node73 -->
<g id="node19" class="node">
<title>Node73</title>
<g id="a_node19"><a xlink:href="api_2spinlock_8h.html" target="_top" xlink:title="ODP spinlock. ">
<polygon fill="#ffffff" stroke="#ff0000" points="1596,-56.5 1596,-75.5 1701,-75.5 1701,-56.5 1596,-56.5"/>
<text text-anchor="middle" x="1648.5" y="-63.5" font-family="Helvetica,sans-Serif" font-size="10.00" fill="#000000">odp/api/spinlock.h</text>
</a>
</g>
</g>
<!-- Node1&#45;&gt;Node73 -->
<g id="edge19" class="edge">
<title>Node1&#45;&gt;Node73</title>
<path fill="none" stroke="#191970" d="M2555.1484,-121.557C2441.1383,-119.7322 2047.3007,-111.194 1711.6272,-76"/>
<polygon fill="#191970" stroke="#191970" points="1711.5263,-72.4698 1701.2134,-74.8975 1710.7893,-79.4309 1711.5263,-72.4698"/>
</g>
<!-- Node76 -->
<g id="node20" class="node">
<title>Node76</title>
<g id="a_node20"><a xlink:href="feature_8h.html" target="_top" xlink:title="ODP features. ">
<polygon fill="#ffffff" stroke="#ff0000" points="1719.5,-56.5 1719.5,-75.5 1819.5,-75.5 1819.5,-56.5 1719.5,-56.5"/>
<text text-anchor="middle" x="1769.5" y="-63.5" font-family="Helvetica,sans-Serif" font-size="10.00" fill="#000000">odp/api/feature.h</text>
</a>
</g>
</g>
<!-- Node1&#45;&gt;Node76 -->
<g id="edge21" class="edge">
<title>Node1&#45;&gt;Node76</title>
<path fill="none" stroke="#191970" d="M2555.2107,-121.2825C2451.4087,-118.7146 2116.8062,-108.4041 1829.8473,-76.039"/>
<polygon fill="#191970" stroke="#191970" points="1829.9917,-72.5329 1819.6598,-74.8784 1829.1993,-79.4879 1829.9917,-72.5329"/>
</g>
<!-- Node78 -->
<g id="node21" class="node">
<title>Node78</title>
<g id="a_node21"><a xlink:href="api_2init_8h.html" target="_top" xlink:title="ODP initialization. ">
<polygon fill="#ffffff" stroke="#ff0000" points="1837.5,-56.5 1837.5,-75.5 1917.5,-75.5 1917.5,-56.5 1837.5,-56.5"/>
<text text-anchor="middle" x="1877.5" y="-63.5" font-family="Helvetica,sans-Serif" font-size="10.00" fill="#000000">odp/api/init.h</text>
</a>
</g>
</g>
<!-- Node1&#45;&gt;Node78 -->
<g id="edge22" class="edge">
<title>Node1&#45;&gt;Node78</title>
<path fill="none" stroke="#191970" d="M2555.4153,-121.2163C2459.6145,-118.5651 2167.4166,-108.2181 1927.5,-76 1927.3986,-75.9864 1927.297,-75.9727 1927.1954,-75.9589"/>
<polygon fill="#191970" stroke="#191970" points="1927.9568,-72.5349 1917.5414,-74.4766 1926.8944,-79.4538 1927.9568,-72.5349"/>
</g>
<!-- Node81 -->
<g id="node22" class="node">
<title>Node81</title>
<g id="a_node22"><a xlink:href="system__info_8h.html" target="_top" xlink:title="ODP system information. ">
<polygon fill="#ffffff" stroke="#ff0000" points="3604,-56.5 3604,-75.5 3729,-75.5 3729,-56.5 3604,-56.5"/>
<text text-anchor="middle" x="3666.5" y="-63.5" font-family="Helvetica,sans-Serif" font-size="10.00" fill="#000000">odp/api/system_info.h</text>
</a>
</g>
</g>
<!-- Node1&#45;&gt;Node81 -->
<g id="edge23" class="edge">
<title>Node1&#45;&gt;Node81</title>
<path fill="none" stroke="#191970" d="M2619.5772,-121.4987C2744.2762,-119.3444 3208.722,-109.4078 3589.5,-76 3590.9688,-75.8711 3592.4526,-75.735 3593.9475,-75.5925"/>
<polygon fill="#191970" stroke="#191970" points="3594.3418,-79.0705 3603.9325,-74.5684 3593.6276,-72.1071 3594.3418,-79.0705"/>
</g>
<!-- Node83 -->
<g id="node23" class="node">
<title>Node83</title>
<g id="a_node23"><a xlink:href="api_2shared__memory_8h.html" target="_top" xlink:title="ODP shared memory. ">
<polygon fill="#ffffff" stroke="#ff0000" points="2041,-56.5 2041,-75.5 2184,-75.5 2184,-56.5 2041,-56.5"/>
<text text-anchor="middle" x="2112.5" y="-63.5" font-family="Helvetica,sans-Serif" font-size="10.00" fill="#000000">odp/api/shared_memory.h</text>
</a>
</g>
</g>
<!-- Node1&#45;&gt;Node83 -->
<g id="edge26" class="edge">
<title>Node1&#45;&gt;Node83</title>
<path fill="none" stroke="#191970" d="M2555.3163,-118.3155C2489.6669,-110.784 2335.3187,-92.9966 2194.1877,-76.076"/>
<polygon fill="#191970" stroke="#191970" points="2194.3963,-72.576 2184.0505,-74.8594 2193.5622,-79.5262 2194.3963,-72.576"/>
</g>
<!-- Node85 -->
<g id="node24" class="node">
<title>Node85</title>
<g id="a_node24"><a xlink:href="api_2buffer_8h.html" target="_top" xlink:title="ODP buffer descriptor. ">
<polygon fill="#ffffff" stroke="#ff0000" points="3747.5,-56.5 3747.5,-75.5 3839.5,-75.5 3839.5,-56.5 3747.5,-56.5"/>
<text text-anchor="middle" x="3793.5" y="-63.5" font-family="Helvetica,sans-Serif" font-size="10.00" fill="#000000">odp/api/buffer.h</text>
</a>
</g>
</g>
<!-- Node1&#45;&gt;Node85 -->
<g id="edge27" class="edge">
<title>Node1&#45;&gt;Node85</title>
<path fill="none" stroke="#191970" d="M2619.5109,-121.327C2779.2876,-117.8769 3492.168,-101.3852 3737.0939,-75.9741"/>
<polygon fill="#191970" stroke="#191970" points="3737.7855,-79.4201 3747.3552,-74.8736 3737.039,-72.46 3737.7855,-79.4201"/>
</g>
<!-- Node87 -->
<g id="node25" class="node">
<title>Node87</title>
<g id="a_node25"><a xlink:href="api_2pool_8h.html" target="_top" xlink:title="ODP pool. ">
<polygon fill="#ffffff" stroke="#ff0000" points="2310.5,-56.5 2310.5,-75.5 2396.5,-75.5 2396.5,-56.5 2310.5,-56.5"/>
<text text-anchor="middle" x="2353.5" y="-63.5" font-family="Helvetica,sans-Serif" font-size="10.00" fill="#000000">odp/api/pool.h</text>
</a>
</g>
</g>
<!-- Node1&#45;&gt;Node87 -->
<g id="edge29" class="edge">
<title>Node1&#45;&gt;Node87</title>
<path fill="none" stroke="#191970" d="M2555.4539,-114.3309C2516.1554,-104.9261 2449.1136,-88.8819 2403.1305,-77.8774"/>
<polygon fill="#191970" stroke="#191970" points="2403.9079,-74.4647 2393.3679,-75.541 2402.2786,-81.2724 2403.9079,-74.4647"/>
</g>
<!-- Node90 -->
<g id="node26" class="node">
<title>Node90</title>
<g id="a_node26"><a xlink:href="api_2queue_8h.html" target="_top" xlink:title="ODP queue. ">
<polygon fill="#ffffff" stroke="#ff0000" points="1483,-56.5 1483,-75.5 1578,-75.5 1578,-56.5 1483,-56.5"/>
<text text-anchor="middle" x="1530.5" y="-63.5" font-family="Helvetica,sans-Serif" font-size="10.00" fill="#000000">odp/api/queue.h</text>
</a>
</g>
</g>
<!-- Node1&#45;&gt;Node90 -->
<g id="edge30" class="edge">
<title>Node1&#45;&gt;Node90</title>
<path fill="none" stroke="#191970" d="M2555.3615,-121.0752C2408.7498,-116.7727 1801.739,-98.0344 1588.1922,-75.895"/>
<polygon fill="#191970" stroke="#191970" points="1588.3368,-72.3905 1578.0206,-74.8045 1587.5906,-79.3506 1588.3368,-72.3905"/>
</g>
<!-- Node95 -->
<g id="node27" class="node">
<title>Node95</title>
<g id="a_node27"><a xlink:href="api_2ticketlock_8h.html" target="_top" xlink:title="ODP ticketlock. ">
<polygon fill="#ffffff" stroke="#ff0000" points="2531,-56.5 2531,-75.5 2644,-75.5 2644,-56.5 2531,-56.5"/>
<text text-anchor="middle" x="2587.5" y="-63.5" font-family="Helvetica,sans-Serif" font-size="10.00" fill="#000000">odp/api/ticketlock.h</text>
</a>
</g>
</g>
<!-- Node1&#45;&gt;Node95 -->
<g id="edge32" class="edge">
<title>Node1&#45;&gt;Node95</title>
<path fill="none" stroke="#191970" d="M2587.5,-112.2455C2587.5,-104.9382 2587.5,-94.6944 2587.5,-85.7046"/>
<polygon fill="#191970" stroke="#191970" points="2591.0001,-85.6426 2587.5,-75.6427 2584.0001,-85.6427 2591.0001,-85.6426"/>
</g>
<!-- Node38 -->
<g id="node28" class="node">
<title>Node38</title>
<g id="a_node28"><a xlink:href="api_2time_8h.html" target="_top" xlink:title="ODP time. ">
<polygon fill="#ffffff" stroke="#ff0000" points="1936,-56.5 1936,-75.5 2023,-75.5 2023,-56.5 1936,-56.5"/>
<text text-anchor="middle" x="1979.5" y="-63.5" font-family="Helvetica,sans-Serif" font-size="10.00" fill="#000000">odp/api/time.h</text>
</a>
</g>
</g>
<!-- Node1&#45;&gt;Node38 -->
<g id="edge33" class="edge">
<title>Node1&#45;&gt;Node38</title>
<path fill="none" stroke="#191970" d="M2555.4651,-120.5105C2471.5079,-116.3591 2238.0354,-103.2231 2033.1566,-75.9517"/>
<polygon fill="#191970" stroke="#191970" points="2033.4919,-72.4654 2023.1144,-74.6005 2032.5583,-79.4029 2033.4919,-72.4654"/>
</g>
<!-- Node98 -->
<g id="node29" class="node">
<title>Node98</title>
<g id="a_node29"><a xlink:href="api_2timer_8h.html" target="_top" xlink:title="ODP timer service. ">
<polygon fill="#ffffff" stroke="#ff0000" points="2202.5,-56.5 2202.5,-75.5 2292.5,-75.5 2292.5,-56.5 2202.5,-56.5"/>
<text text-anchor="middle" x="2247.5" y="-63.5" font-family="Helvetica,sans-Serif" font-size="10.00" fill="#000000">odp/api/timer.h</text>
</a>
</g>
</g>
<!-- Node1&#45;&gt;Node98 -->
<g id="edge35" class="edge">
<title>Node1&#45;&gt;Node98</title>
<path fill="none" stroke="#191970" d="M2555.2905,-117.0735C2504.0566,-109.1821 2400.5926,-93.0215 2302.6375,-76.1668"/>
<polygon fill="#191970" stroke="#191970" points="2303.0167,-72.6805 2292.567,-74.4281 2301.8257,-79.5785 2303.0167,-72.6805"/>
</g>
<!-- Node101 -->
<g id="node30" class="node">
<title>Node101</title>
<g id="a_node30"><a xlink:href="api_2schedule_8h.html" target="_top" xlink:title="ODP schedule. ">
<polygon fill="#ffffff" stroke="#ff0000" points="2930.5,-56.5 2930.5,-75.5 3038.5,-75.5 3038.5,-56.5 2930.5,-56.5"/>
<text text-anchor="middle" x="2984.5" y="-63.5" font-family="Helvetica,sans-Serif" font-size="10.00" fill="#000000">odp/api/schedule.h</text>
</a>
</g>
</g>
<!-- Node1&#45;&gt;Node101 -->
<g id="edge37" class="edge">
<title>Node1&#45;&gt;Node101</title>
<path fill="none" stroke="#191970" d="M2619.774,-117.7794C2677.7284,-110.1519 2803.519,-93.3765 2920.051,-76.1926"/>
<polygon fill="#191970" stroke="#191970" points="2920.8345,-79.6149 2930.2147,-74.6893 2919.8102,-72.6902 2920.8345,-79.6149"/>
</g>
<!-- Node107 -->
<g id="node31" class="node">
<title>Node107</title>
<g id="a_node31"><a xlink:href="api_2sync_8h.html" target="_top" xlink:title="ODP synchronisation. ">
<polygon fill="#ffffff" stroke="#ff0000" points="3057,-56.5 3057,-75.5 3144,-75.5 3144,-56.5 3057,-56.5"/>
<text text-anchor="middle" x="3100.5" y="-63.5" font-family="Helvetica,sans-Serif" font-size="10.00" fill="#000000">odp/api/sync.h</text>
</a>
</g>
</g>
<!-- Node1&#45;&gt;Node107 -->
<g id="edge38" class="edge">
<title>Node1&#45;&gt;Node107</title>
<path fill="none" stroke="#191970" d="M2619.6833,-119.7483C2693.3674,-114.3864 2880.1423,-99.6234 3046.9345,-75.9657"/>
<polygon fill="#191970" stroke="#191970" points="3047.4748,-79.4241 3056.8773,-74.5413 3046.482,-72.4949 3047.4748,-79.4241"/>
</g>
<!-- Node28 -->
<g id="node32" class="node">
<title>Node28</title>
<g id="a_node32"><a xlink:href="api_2packet_8h.html" target="_top" xlink:title="ODP packet descriptor. ">
<polygon fill="#ffffff" stroke="#ff0000" points="2414.5,-56.5 2414.5,-75.5 2512.5,-75.5 2512.5,-56.5 2414.5,-56.5"/>
<text text-anchor="middle" x="2463.5" y="-63.5" font-family="Helvetica,sans-Serif" font-size="10.00" fill="#000000">odp/api/packet.h</text>
</a>
</g>
</g>
<!-- Node1&#45;&gt;Node28 -->
<g id="edge39" class="edge">
<title>Node1&#45;&gt;Node28</title>
<path fill="none" stroke="#191970" d="M2566.1836,-112.3733C2546.2784,-103.3838 2516.3564,-89.8706 2493.94,-79.7471"/>
<polygon fill="#191970" stroke="#191970" points="2495.0925,-76.4272 2484.5382,-75.5011 2492.2113,-82.8068 2495.0925,-76.4272"/>
</g>
<!-- Node110 -->
<g id="node33" class="node">
<title>Node110</title>
<g id="a_node33"><a xlink:href="api_2packet__flags_8h.html" target="_top" xlink:title="ODP packet flags. ">
<polygon fill="#ffffff" stroke="#ff0000" points="3275.5,-56.5 3275.5,-75.5 3401.5,-75.5 3401.5,-56.5 3275.5,-56.5"/>
<text text-anchor="middle" x="3338.5" y="-63.5" font-family="Helvetica,sans-Serif" font-size="10.00" fill="#000000">odp/api/packet_flags.h</text>
</a>
</g>
</g>
<!-- Node1&#45;&gt;Node110 -->
<g id="edge41" class="edge">
<title>Node1&#45;&gt;Node110</title>
<path fill="none" stroke="#191970" d="M2619.7306,-120.6231C2716.0496,-116.3376 3010.3237,-102.0042 3265.1239,-76.0773"/>
<polygon fill="#191970" stroke="#191970" points="3265.7238,-79.5342 3275.3144,-75.0319 3265.0094,-72.5707 3265.7238,-79.5342"/>
</g>
<!-- Node113 -->
<g id="node34" class="node">
<title>Node113</title>
<g id="a_node34"><a xlink:href="api_2packet__io_8h.html" target="_top" xlink:title="ODP Packet IO. ">
<polygon fill="#ffffff" stroke="#ff0000" points="2662.5,-56.5 2662.5,-75.5 2774.5,-75.5 2774.5,-56.5 2662.5,-56.5"/>
<text text-anchor="middle" x="2718.5" y="-63.5" font-family="Helvetica,sans-Serif" font-size="10.00" fill="#000000">odp/api/packet_io.h</text>
</a>
</g>
</g>
<!-- Node1&#45;&gt;Node113 -->
<g id="edge42" class="edge">
<title>Node1&#45;&gt;Node113</title>
<path fill="none" stroke="#191970" d="M2610.0197,-112.3733C2631.2372,-103.3032 2663.2276,-89.6279 2686.9769,-79.4755"/>
<polygon fill="#191970" stroke="#191970" points="2688.4548,-82.6502 2696.2742,-75.5011 2685.7033,-76.2136 2688.4548,-82.6502"/>
</g>
<!-- Node120 -->
<g id="node35" class="node">
<title>Node120</title>
<g id="a_node35"><a xlink:href="api_2proto__stats_8h.html" target="_top" xlink:title="ODP proto stats. ">
<polygon fill="#ffffff" stroke="#ff0000" points="2793,-56.5 2793,-75.5 2912,-75.5 2912,-56.5 2793,-56.5"/>
<text text-anchor="middle" x="2852.5" y="-63.5" font-family="Helvetica,sans-Serif" font-size="10.00" fill="#000000">odp/api/proto_stats.h</text>
</a>
</g>
</g>
<!-- Node1&#45;&gt;Node120 -->
<g id="edge44" class="edge">
<title>Node1&#45;&gt;Node120</title>
<path fill="none" stroke="#191970" d="M2619.7293,-115.1893C2663.7878,-105.8788 2743.4674,-89.0409 2797.1759,-77.6911"/>
<polygon fill="#191970" stroke="#191970" points="2798.1599,-81.0606 2807.2201,-75.5686 2796.7125,-74.2118 2798.1599,-81.0606"/>
</g>
<!-- Node123 -->
<g id="node36" class="node">
<title>Node123</title>
<g id="a_node36"><a xlink:href="api_2crypto_8h.html" target="_top" xlink:title="ODP crypto. ">
<polygon fill="#ffffff" stroke="#ff0000" points="3162,-56.5 3162,-75.5 3257,-75.5 3257,-56.5 3162,-56.5"/>
<text text-anchor="middle" x="3209.5" y="-63.5" font-family="Helvetica,sans-Serif" font-size="10.00" fill="#000000">odp/api/crypto.h</text>
</a>
</g>
</g>
<!-- Node1&#45;&gt;Node123 -->
<g id="edge46" class="edge">
<title>Node1&#45;&gt;Node123</title>
<path fill="none" stroke="#191970" d="M2619.5266,-120.4726C2704.5679,-116.1884 2943.2569,-102.678 3151.6743,-76.136"/>
<polygon fill="#191970" stroke="#191970" points="3152.4176,-79.5693 3161.889,-74.8214 3151.524,-72.6265 3152.4176,-79.5693"/>
</g>
<!-- Node126 -->
<g id="node37" class="node">
<title>Node126</title>
<g id="a_node37"><a xlink:href="api_2classification_8h.html" target="_top" xlink:title="ODP classification descriptor. ">
<polygon fill="#ffffff" stroke="#ff0000" points="3419.5,-56.5 3419.5,-75.5 3547.5,-75.5 3547.5,-56.5 3419.5,-56.5"/>
<text text-anchor="middle" x="3483.5" y="-63.5" font-family="Helvetica,sans-Serif" font-size="10.00" fill="#000000">odp/api/classification.h</text>
</a>
</g>
</g>
<!-- Node1&#45;&gt;Node126 -->
<g id="edge48" class="edge">
<title>Node1&#45;&gt;Node126</title>
<path fill="none" stroke="#191970" d="M2619.7284,-121.1296C2728.9899,-117.9825 3095.5375,-105.8213 3409.2397,-76.0478"/>
<polygon fill="#191970" stroke="#191970" points="3409.8188,-79.5084 3419.4399,-75.0716 3409.1519,-72.5402 3409.8188,-79.5084"/>
</g>
<!-- Node130 -->
<g id="node38" class="node">
<title>Node130</title>
<g id="a_node38"><a xlink:href="api_2rwlock_8h.html" target="_top" xlink:title="ODP RW Locks. ">
<polygon fill="#ffffff" stroke="#ff0000" points="3858,-56.5 3858,-75.5 3955,-75.5 3955,-56.5 3858,-56.5"/>
<text text-anchor="middle" x="3906.5" y="-63.5" font-family="Helvetica,sans-Serif" font-size="10.00" fill="#000000">odp/api/rwlock.h</text>
</a>
</g>
</g>
<!-- Node1&#45;&gt;Node130 -->
<g id="edge50" class="edge">
<title>Node1&#45;&gt;Node130</title>
<path fill="none" stroke="#191970" d="M2619.6906,-121.4123C2789.0894,-118.2319 3579.2678,-102.2812 3847.7364,-75.9018"/>
<polygon fill="#191970" stroke="#191970" points="3848.2353,-79.3693 3857.8316,-74.879 3847.5297,-72.4049 3848.2353,-79.3693"/>
</g>
<!-- Node93 -->
<g id="node39" class="node">
<title>Node93</title>
<g id="a_node39"><a xlink:href="api_2event_8h.html" target="_top" xlink:title="ODP event. ">
<polygon fill="#ffffff" stroke="#ff0000" points="3973.5,-56.5 3973.5,-75.5 4065.5,-75.5 4065.5,-56.5 3973.5,-56.5"/>
<text text-anchor="middle" x="4019.5" y="-63.5" font-family="Helvetica,sans-Serif" font-size="10.00" fill="#000000">odp/api/event.h</text>
</a>
</g>
</g>
<!-- Node1&#45;&gt;Node93 -->
<g id="edge51" class="edge">
<title>Node1&#45;&gt;Node93</title>
<path fill="none" stroke="#191970" d="M2619.6418,-121.5665C2798.2365,-119.0617 3670.6457,-105.5482 3963.1974,-75.9552"/>
<polygon fill="#191970" stroke="#191970" points="3963.7746,-79.4141 3973.3577,-74.8957 3963.0485,-72.4519 3963.7746,-79.4141"/>
</g>
<!-- Node133 -->
<g id="node40" class="node">
<title>Node133</title>
<g id="a_node40"><a xlink:href="random_8h.html" target="_top" xlink:title="ODP random number API. ">
<polygon fill="#ffffff" stroke="#ff0000" points="4083.5,-56.5 4083.5,-75.5 4185.5,-75.5 4185.5,-56.5 4083.5,-56.5"/>
<text text-anchor="middle" x="4134.5" y="-63.5" font-family="Helvetica,sans-Serif" font-size="10.00" fill="#000000">odp/api/random.h</text>
</a>
</g>
</g>
<!-- Node1&#45;&gt;Node133 -->
<g id="edge52" class="edge">
<title>Node1&#45;&gt;Node133</title>
<path fill="none" stroke="#191970" d="M2619.6966,-121.593C2806.8842,-119.1386 3757.3651,-105.4504 4073.4288,-75.9453"/>
<polygon fill="#191970" stroke="#191970" points="4073.8791,-79.4183 4083.4989,-74.9786 4073.2101,-72.4503 4073.8791,-79.4183"/>
</g>
<!-- Node135 -->
<g id="node41" class="node">
<title>Node135</title>
<g id="a_node41"><a xlink:href="api_2errno_8h.html" target="_top" xlink:title="ODP errno API. ">
<polygon fill="#ffffff" stroke="#ff0000" points="4203.5,-56.5 4203.5,-75.5 4293.5,-75.5 4293.5,-56.5 4203.5,-56.5"/>
<text text-anchor="middle" x="4248.5" y="-63.5" font-family="Helvetica,sans-Serif" font-size="10.00" fill="#000000">odp/api/errno.h</text>
</a>
</g>
</g>
<!-- Node1&#45;&gt;Node135 -->
<g id="edge53" class="edge">
<title>Node1&#45;&gt;Node135</title>
<path fill="none" stroke="#191970" d="M2619.69,-121.7573C2815.7591,-120.1775 3852.0272,-110.3552 4193.3562,-75.9238"/>
<polygon fill="#191970" stroke="#191970" points="4193.9096,-79.3853 4203.4949,-74.8718 4193.1871,-72.4226 4193.9096,-79.3853"/>
</g>
<!-- Node104 -->
<g id="node42" class="node">
<title>Node104</title>
<g id="a_node42"><a xlink:href="api_2thrmask_8h.html" target="_top" xlink:title="ODP thread masks. ">
<polygon fill="#ffffff" stroke="#ff0000" points="4312,-56.5 4312,-75.5 4417,-75.5 4417,-56.5 4312,-56.5"/>
<text text-anchor="middle" x="4364.5" y="-63.5" font-family="Helvetica,sans-Serif" font-size="10.00" fill="#000000">odp/api/thrmask.h</text>
</a>
</g>
</g>
<!-- Node1&#45;&gt;Node104 -->
<g id="edge54" class="edge">
<title>Node1&#45;&gt;Node104</title>
<path fill="none" stroke="#191970" d="M2619.8185,-121.7213C2823.9258,-119.8737 3937.0164,-108.4775 4301.7478,-75.9105"/>
<polygon fill="#191970" stroke="#191970" points="4302.1569,-79.3878 4311.7959,-74.99 4301.5182,-72.4169 4302.1569,-79.3878"/>
</g>
<!-- Node138 -->
<g id="node43" class="node">
<title>Node138</title>
<g id="a_node43"><a xlink:href="api_2traffic__mngr_8h.html" target="_top" xlink:title="ODP Traffic manager. ">
<polygon fill="#ffffff" stroke="#ff0000" points="4435,-56.5 4435,-75.5 4558,-75.5 4558,-56.5 4435,-56.5"/>
<text text-anchor="middle" x="4496.5" y="-63.5" font-family="Helvetica,sans-Serif" font-size="10.00" fill="#000000">odp/api/traffic_mngr.h</text>
</a>
</g>
</g>
<!-- Node1&#45;&gt;Node138 -->
<g id="edge55" class="edge">
<title>Node1&#45;&gt;Node138</title>
<path fill="none" stroke="#191970" d="M2619.6947,-121.7103C2831.9783,-119.7233 4033.9368,-107.2689 4424.511,-76.0614"/>
<polygon fill="#191970" stroke="#191970" points="4425.0269,-79.531 4434.708,-75.2269 4424.4558,-72.5543 4425.0269,-79.531"/>
</g>
<!-- Node141 -->
<g id="node44" class="node">
<title>Node141</title>
<g id="a_node44"><a xlink:href="api_2spinlock__recursive_8h.html" target="_top" xlink:title="ODP resursive spinlock. ">
<polygon fill="#ffffff" stroke="#ff0000" points="4576,-56.5 4576,-75.5 4731,-75.5 4731,-56.5 4576,-56.5"/>
<text text-anchor="middle" x="4653.5" y="-63.5" font-family="Helvetica,sans-Serif" font-size="10.00" fill="#000000">odp/api/spinlock_recursive.h</text>
</a>
</g>
</g>
<!-- Node1&#45;&gt;Node141 -->
<g id="edge56" class="edge">
<title>Node1&#45;&gt;Node141</title>
<path fill="none" stroke="#191970" d="M2619.605,-121.662C2841.0012,-119.2705 4144.7115,-104.1952 4565.6338,-76.0596"/>
<polygon fill="#191970" stroke="#191970" points="4565.9759,-79.5445 4575.7143,-75.3715 4565.4991,-72.5608 4565.9759,-79.5445"/>
</g>
<!-- Node144 -->
<g id="node45" class="node">
<title>Node144</title>
<g id="a_node45"><a xlink:href="api_2rwlock__recursive_8h.html" target="_top" xlink:title="ODP resursive read/write lock. ">
<polygon fill="#ffffff" stroke="#ff0000" points="4749,-56.5 4749,-75.5 4896,-75.5 4896,-56.5 4749,-56.5"/>
<text text-anchor="middle" x="4822.5" y="-63.5" font-family="Helvetica,sans-Serif" font-size="10.00" fill="#000000">odp/api/rwlock_recursive.h</text>
</a>
</g>
</g>
<!-- Node1&#45;&gt;Node144 -->
<g id="edge57" class="edge">
<title>Node1&#45;&gt;Node144</title>
<path fill="none" stroke="#191970" d="M2619.7408,-121.7544C2852.5744,-119.9152 4280.4726,-107.5102 4738.4685,-76.0661"/>
<polygon fill="#191970" stroke="#191970" points="4739.0458,-79.5343 4748.7765,-75.3434 4738.5562,-72.5515 4739.0458,-79.5343"/>
</g>
<!-- Node147 -->
<g id="node46" class="node">
<title>Node147</title>
<g id="a_node46"><a xlink:href="api_2std_8h_source.html" target="_top" xlink:title="odp/api/std.h">
<polygon fill="#ffffff" stroke="#ff0000" points="4914.5,-56.5 4914.5,-75.5 4994.5,-75.5 4994.5,-56.5 4914.5,-56.5"/>
<text text-anchor="middle" x="4954.5" y="-63.5" font-family="Helvetica,sans-Serif" font-size="10.00" fill="#000000">odp/api/std.h</text>
</a>
</g>
</g>
<!-- Node1&#45;&gt;Node147 -->
<g id="edge58" class="edge">
<title>Node1&#45;&gt;Node147</title>
<path fill="none" stroke="#191970" d="M2619.5774,-121.7161C2878.414,-119.3798 4623.2273,-102.7617 4904.3695,-75.8269"/>
<polygon fill="#191970" stroke="#191970" points="4904.8948,-79.2913 4914.4825,-74.7827 4904.1759,-72.3284 4904.8948,-79.2913"/>
</g>
<!-- Node26 -->
<g id="node47" class="node">
<title>Node26</title>
<g id="a_node47"><a xlink:href="support_8h.html" target="_top" xlink:title="ODP support API &#45; platform specific header. ">
<polygon fill="#ffffff" stroke="#ff0000" points="5013,-56.5 5013,-75.5 5114,-75.5 5114,-56.5 5013,-56.5"/>
<text text-anchor="middle" x="5063.5" y="-63.5" font-family="Helvetica,sans-Serif" font-size="10.00" fill="#000000">odp/api/support.h</text>
</a>
</g>
</g>
<!-- Node1&#45;&gt;Node26 -->
<g id="edge59" class="edge">
<title>Node1&#45;&gt;Node26</title>
<path fill="none" stroke="#191970" d="M2619.6419,-121.6729C2884.943,-118.9364 4710.1165,-99.3927 5002.6899,-75.8542"/>
<polygon fill="#191970" stroke="#191970" points="5003.1665,-79.3262 5012.8287,-74.9798 5002.5649,-72.3521 5003.1665,-79.3262"/>
</g>
<!-- Node150 -->
<g id="node48" class="node">
<title>Node150</title>
<g id="a_node48"><a xlink:href="api_2ipsec_8h.html" target="_top" xlink:title="ODP IPSEC API &#45; platform specific header. ">
<polygon fill="#ffffff" stroke="#ff0000" points="5132.5,-56.5 5132.5,-75.5 5222.5,-75.5 5222.5,-56.5 5132.5,-56.5"/>
<text text-anchor="middle" x="5177.5" y="-63.5" font-family="Helvetica,sans-Serif" font-size="10.00" fill="#000000">odp/api/ipsec.h</text>
</a>
</g>
</g>
<!-- Node1&#45;&gt;Node150 -->
<g id="edge60" class="edge">
<title>Node1&#45;&gt;Node150</title>
<path fill="none" stroke="#191970" d="M2619.9188,-121.7365C2893.7485,-119.4688 4817.1086,-102.7056 5122.329,-75.8665"/>
<polygon fill="#191970" stroke="#191970" points="5122.8714,-79.331 5132.4986,-74.9075 5122.2142,-72.3619 5122.8714,-79.331"/>
</g>
<!-- Node155 -->
<g id="node49" class="node">
<title>Node155</title>
<g id="a_node49"><a xlink:href="api_2stash_8h.html" target="_top" xlink:title="ODP stash. ">
<polygon fill="#ffffff" stroke="#ff0000" points="5241,-56.5 5241,-75.5 5332,-75.5 5332,-56.5 5241,-56.5"/>
<text text-anchor="middle" x="5286.5" y="-63.5" font-family="Helvetica,sans-Serif" font-size="10.00" fill="#000000">odp/api/stash.h</text>
</a>
</g>
</g>
<!-- Node1&#45;&gt;Node155 -->
<g id="edge61" class="edge">
<title>Node1&#45;&gt;Node155</title>
<path fill="none" stroke="#191970" d="M2619.5004,-121.759C2898.3769,-119.6178 4913.2425,-103.3116 5230.8032,-75.8094"/>
<polygon fill="#191970" stroke="#191970" points="5231.3276,-79.2759 5240.9619,-74.8679 5230.6816,-72.3057 5231.3276,-79.2759"/>
</g>
<!-- Node118 -->
<g id="node50" class="node">
<title>Node118</title>
<g id="a_node50"><a xlink:href="reassembly_8h.html" target="_top" xlink:title="ODP REASSEMBLY API &#45; platform specific header. ">
<polygon fill="#ffffff" stroke="#ff0000" points="5350.5,-56.5 5350.5,-75.5 5470.5,-75.5 5470.5,-56.5 5350.5,-56.5"/>
<text text-anchor="middle" x="5410.5" y="-63.5" font-family="Helvetica,sans-Serif" font-size="10.00" fill="#000000">odp/api/reassembly.h</text>
</a>
</g>
</g>
<!-- Node1&#45;&gt;Node118 -->
<g id="edge62" class="edge">
<title>Node1&#45;&gt;Node118</title>
<path fill="none" stroke="#191970" d="M2619.9071,-121.7093C2906.9324,-119.1027 5011.2335,-99.3182 5340.2544,-75.9414"/>
<polygon fill="#191970" stroke="#191970" points="5340.6326,-79.4228 5350.3402,-75.1786 5340.1047,-72.4428 5340.6326,-79.4228"/>
</g>
<!-- Node3 -->
<g id="node4" class="node">
<title>Node3</title>
<g id="a_node4"><a xlink:href="spec_2deprecated_8h.html" target="_top" xlink:title="Macro for deprecated API definitions. ">
<polygon fill="#ffffff" stroke="#ff0000" points="0,-.5 0,-19.5 145,-19.5 145,-.5 0,-.5"/>
<text text-anchor="middle" x="72.5" y="-7.5" font-family="Helvetica,sans-Serif" font-size="10.00" fill="#000000">odp/api/spec/deprecated.h</text>
</a>
</g>
</g>
<!-- Node2&#45;&gt;Node3 -->
<g id="edge3" class="edge">
<title>Node2&#45;&gt;Node3</title>
<path fill="none" stroke="#191970" d="M72.5,-56.2455C72.5,-48.9382 72.5,-38.6944 72.5,-29.7046"/>
<polygon fill="#191970" stroke="#191970" points="76.0001,-29.6426 72.5,-19.6427 69.0001,-29.6427 76.0001,-29.6426"/>
</g>
<!-- Node56&#45;&gt;Node58 -->
<g id="edge14" class="edge">
<title>Node56&#45;&gt;Node58</title>
<path fill="none" stroke="#191970" d="M351.6623,-57.5503C354.6491,-57.0039 357.6185,-56.4809 360.5,-56 460.1314,-39.3736 576.8317,-24.7461 645.2132,-16.6627"/>
<polygon fill="#191970" stroke="#191970" points="645.8307,-20.1143 655.3534,-15.4702 645.013,-13.1622 645.8307,-20.1143"/>
</g>
<!-- Node66&#45;&gt;Node9 -->
<g id="edge17" class="edge">
<title>Node66&#45;&gt;Node9</title>
<path fill="none" stroke="#191970" d="M1464.5373,-57.2012C1467.9019,-56.744 1471.2475,-56.3359 1474.5,-56 1719.782,-30.67 2488.1536,-15.2785 2719.1615,-11.136"/>
<polygon fill="#191970" stroke="#191970" points="2719.4922,-14.6308 2729.4282,-10.953 2719.3674,-7.6319 2719.4922,-14.6308"/>
</g>
<!-- Node66&#45;&gt;Node67 -->
<g id="edge18" class="edge">
<title>Node66&#45;&gt;Node67</title>
<path fill="none" stroke="#191970" d="M1398.733,-56.2455C1382.7905,-47.4928 1359.1741,-34.527 1341.0011,-24.5496"/>
<polygon fill="#191970" stroke="#191970" points="1342.5137,-21.3873 1332.0634,-19.6427 1339.1448,-27.5233 1342.5137,-21.3873"/>
</g>
<!-- Node81&#45;&gt;Node9 -->
<g id="edge24" class="edge">
<title>Node81&#45;&gt;Node9</title>
<path fill="none" stroke="#191970" d="M3603.9272,-57.4908C3599.0501,-56.9446 3594.1977,-56.4389 3589.5,-56 3316.4622,-30.4929 2989.8482,-17.0685 2852.034,-12.1852"/>
<polygon fill="#191970" stroke="#191970" points="2851.7683,-8.6738 2841.6516,-11.8208 2851.5227,-15.6695 2851.7683,-8.6738"/>
</g>
<!-- Node85&#45;&gt;Node9 -->
<g id="edge28" class="edge">
<title>Node85&#45;&gt;Node9</title>
<path fill="none" stroke="#191970" d="M3747.3521,-57.1545C3744.3626,-56.7223 3741.3926,-56.3313 3738.5,-56 3566.2851,-36.2746 3038.6831,-18.0563 2851.8954,-12.0651"/>
<polygon fill="#191970" stroke="#191970" points="2851.7783,-8.5597 2841.6716,-11.7385 2851.5547,-15.5561 2851.7783,-8.5597"/>
</g>
<!-- Node90&#45;&gt;Node9 -->
<g id="edge31" class="edge">
<title>Node90&#45;&gt;Node9</title>
<path fill="none" stroke="#191970" d="M1578.0177,-57.1682C1581.2201,-56.726 1584.4029,-56.3296 1587.5,-56 1809.5901,-32.3643 2501.2483,-16.0292 2719.0954,-11.365"/>
<polygon fill="#191970" stroke="#191970" points="2719.49,-14.8575 2729.4132,-11.1452 2719.3409,-7.8591 2719.49,-14.8575"/>
</g>
<!-- Node38&#45;&gt;Node9 -->
<g id="edge34" class="edge">
<title>Node38&#45;&gt;Node9</title>
<path fill="none" stroke="#191970" d="M2023.1046,-57.3239C2026.2771,-56.8307 2029.4336,-56.3814 2032.5,-56 2284.6395,-24.6375 2587.0537,-14.392 2718.7532,-11.2688"/>
<polygon fill="#191970" stroke="#191970" points="2719.1565,-14.7606 2729.073,-11.0305 2718.9948,-7.7624 2719.1565,-14.7606"/>
</g>
<!-- Node98&#45;&gt;Node9 -->
<g id="edge36" class="edge">
<title>Node98&#45;&gt;Node9</title>
<path fill="none" stroke="#191970" d="M2292.5327,-57.353C2295.5627,-56.8661 2298.5728,-56.4093 2301.5,-56 2450.1565,-35.2127 2625.8378,-21.1081 2719.2626,-14.4329"/>
<polygon fill="#191970" stroke="#191970" points="2719.6892,-17.9115 2729.4168,-13.7135 2719.1945,-10.929 2719.6892,-17.9115"/>
</g>
<!-- Node28&#45;&gt;Node9 -->
<g id="edge40" class="edge">
<title>Node28&#45;&gt;Node9</title>
<path fill="none" stroke="#191970" d="M2512.7554,-57.4338C2568.4949,-47.74 2659.4952,-31.9139 2720.8937,-21.2359"/>
<polygon fill="#191970" stroke="#191970" points="2721.609,-24.6641 2730.8614,-19.5024 2720.4096,-17.7676 2721.609,-24.6641"/>
</g>
<!-- Node113&#45;&gt;Node9 -->
<g id="edge43" class="edge">
<title>Node113&#45;&gt;Node9</title>
<path fill="none" stroke="#191970" d="M2730.1705,-56.2455C2740.0661,-47.9746 2754.4627,-35.9416 2766.0901,-26.2232"/>
<polygon fill="#191970" stroke="#191970" points="2768.535,-28.7413 2773.9632,-19.6427 2764.0458,-23.3703 2768.535,-28.7413"/>
</g>
<!-- Node120&#45;&gt;Node9 -->
<g id="edge45" class="edge">
<title>Node120&#45;&gt;Node9</title>
<path fill="none" stroke="#191970" d="M2840.8295,-56.2455C2830.9339,-47.9746 2816.5373,-35.9416 2804.9099,-26.2232"/>
<polygon fill="#191970" stroke="#191970" points="2806.9542,-23.3703 2797.0368,-19.6427 2802.465,-28.7413 2806.9542,-23.3703"/>
</g>
<!-- Node123&#45;&gt;Node9 -->
<g id="edge47" class="edge">
<title>Node123&#45;&gt;Node9</title>
<path fill="none" stroke="#191970" d="M3161.8692,-57.3195C3159.0399,-56.8583 3156.234,-56.4147 3153.5,-56 3048.3189,-40.0462 2925.6121,-25.524 2851.8181,-17.2314"/>
<polygon fill="#191970" stroke="#191970" points="2852.0643,-13.7371 2841.737,-16.1031 2851.2856,-20.6937 2852.0643,-13.7371"/>
</g>
<!-- Node126&#45;&gt;Node9 -->
<g id="edge49" class="edge">
<title>Node126&#45;&gt;Node9</title>
<path fill="none" stroke="#191970" d="M3419.4334,-56.9925C3416.4155,-56.641 3413.426,-56.3078 3410.5,-56 3207.2603,-34.6215 2965.7995,-19.8509 2851.6161,-13.5004"/>
<polygon fill="#191970" stroke="#191970" points="2851.8078,-10.0058 2841.6299,-12.9485 2851.4215,-16.9951 2851.8078,-10.0058"/>
</g>
</g>
</svg>
