<?xml version="1.0" encoding="UTF-8" standalone="no"?>
<!DOCTYPE svg PUBLIC "-//W3C//DTD SVG 1.1//EN"
 "http://www.w3.org/Graphics/SVG/1.1/DTD/svg11.dtd">
<!-- Generated by graphviz version 2.40.1 (20161225.0304)
 -->
<!-- Title: odp_api.h Pages: 1 -->
<svg width="5495pt" height="140pt"
 viewBox="0.00 0.00 5494.50 140.00" xmlns="http://www.w3.org/2000/svg" xmlns:xlink="http://www.w3.org/1999/xlink">
<g id="graph0" class="graph" transform="scale(1 1) rotate(0) translate(4 136)">
<title>odp_api.h</title>
<polygon fill="#ffffff" stroke="transparent" points="-4,4 -4,-136 5490.5,-136 5490.5,4 -4,4"/>
<!-- Node0 -->
<g id="node1" class="node">
<title>Node0</title>
<polygon fill="#bfbfbf" stroke="#000000" points="2571.5,-112.5 2571.5,-131.5 2635.5,-131.5 2635.5,-112.5 2571.5,-112.5"/>
<text text-anchor="middle" x="2603.5" y="-119.5" font-family="Helvetica,sans-Serif" font-size="10.00" fill="#000000">odp_api.h</text>
</g>
<!-- Node1 -->
<g id="node2" class="node">
<title>Node1</title>
<g id="a_node2"><a xlink:href="deprecated_8h.html" target="_top" xlink:title="Control deprecated API definitions. ">
<polygon fill="#ffffff" stroke="#000000" points="24,-56.5 24,-75.5 143,-75.5 143,-56.5 24,-56.5"/>
<text text-anchor="middle" x="83.5" y="-63.5" font-family="Helvetica,sans-Serif" font-size="10.00" fill="#000000">odp/api/deprecated.h</text>
</a>
</g>
</g>
<!-- Node0&#45;&gt;Node1 -->
<g id="edge1" class="edge">
<title>Node0&#45;&gt;Node1</title>
<path fill="none" stroke="#191970" d="M2571.3904,-121.9156C2319.4692,-121.1762 657.1743,-114.8638 156.5,-76 155.4159,-75.9159 154.3234,-75.8263 153.2241,-75.7317"/>
<polygon fill="#191970" stroke="#191970" points="153.4878,-72.2409 143.1963,-74.7583 152.8114,-79.2082 153.4878,-72.2409"/>
</g>
<!-- Node5 -->
<g id="node4" class="node">
<title>Node5</title>
<g id="a_node4"><a xlink:href="api_2version_8h.html" target="_top" xlink:title="ODP version. ">
<polygon fill="#ffffff" stroke="#ff0000" points="166,-56.5 166,-75.5 267,-75.5 267,-56.5 166,-56.5"/>
<text text-anchor="middle" x="216.5" y="-63.5" font-family="Helvetica,sans-Serif" font-size="10.00" fill="#000000">odp/api/version.h</text>
</a>
</g>
</g>
<!-- Node0&#45;&gt;Node5 -->
<g id="edge3" class="edge">
<title>Node0&#45;&gt;Node5</title>
<path fill="none" stroke="#191970" d="M2571.3052,-121.6474C2311.5206,-118.7651 560.2988,-98.636 277.3518,-75.8571"/>
<polygon fill="#191970" stroke="#191970" points="277.4359,-72.3514 267.1716,-74.9771 276.833,-79.3254 277.4359,-72.3514"/>
</g>
<!-- Node8 -->
<g id="node6" class="node">
<title>Node8</title>
<g id="a_node6"><a xlink:href="api_2std__types_8h.html" target="_top" xlink:title="Standard C language types and definitions for ODP. ">
<polygon fill="#ffffff" stroke="#ff0000" points="2745.5,-.5 2745.5,-19.5 2857.5,-19.5 2857.5,-.5 2745.5,-.5"/>
<text text-anchor="middle" x="2801.5" y="-7.5" font-family="Helvetica,sans-Serif" font-size="10.00" fill="#000000">odp/api/std_types.h</text>
</a>
</g>
</g>
<!-- Node0&#45;&gt;Node8 -->
<g id="edge5" class="edge">
<title>Node0&#45;&gt;Node8</title>
<path fill="none" stroke="#191970" d="M2635.6262,-121.7053C2799.8846,-120.0452 3539.4465,-110.6598 3572.5,-76 3578.6346,-69.5673 3578.5954,-62.4699 3572.5,-56 3548.4865,-30.5111 3050.1501,-15.988 2867.6879,-11.5086"/>
<polygon fill="#191970" stroke="#191970" points="2867.7655,-8.0096 2857.6834,-11.2654 2867.5953,-15.0075 2867.7655,-8.0096"/>
</g>
<!-- Node12 -->
<g id="node7" class="node">
<title>Node12</title>
<g id="a_node7"><a xlink:href="api_2align_8h.html" target="_top" xlink:title="ODP alignments. ">
<polygon fill="#ffffff" stroke="#ff0000" points="386,-56.5 386,-75.5 475,-75.5 475,-56.5 386,-56.5"/>
<text text-anchor="middle" x="430.5" y="-63.5" font-family="Helvetica,sans-Serif" font-size="10.00" fill="#000000">odp/api/align.h</text>
</a>
</g>
</g>
<!-- Node0&#45;&gt;Node12 -->
<g id="edge6" class="edge">
<title>Node0&#45;&gt;Node12</title>
<path fill="none" stroke="#191970" d="M2571.4544,-121.6243C2325.7818,-118.7025 743.8689,-99.1376 485.2286,-75.9451"/>
<polygon fill="#191970" stroke="#191970" points="485.5338,-72.4583 475.2431,-74.9786 484.8593,-79.4258 485.5338,-72.4583"/>
</g>
<!-- Node15 -->
<g id="node8" class="node">
<title>Node15</title>
<g id="a_node8"><a xlink:href="api_2hash_8h.html" target="_top" xlink:title="ODP Hash function. ">
<polygon fill="#ffffff" stroke="#ff0000" points="492.5,-56.5 492.5,-75.5 580.5,-75.5 580.5,-56.5 492.5,-56.5"/>
<text text-anchor="middle" x="536.5" y="-63.5" font-family="Helvetica,sans-Serif" font-size="10.00" fill="#000000">odp/api/hash.h</text>
</a>
</g>
</g>
<!-- Node0&#45;&gt;Node15 -->
<g id="edge7" class="edge">
<title>Node0&#45;&gt;Node15</title>
<path fill="none" stroke="#191970" d="M2571.1512,-121.5812C2331.8424,-118.4418 839.0549,-98.1308 590.9005,-75.8861"/>
<polygon fill="#191970" stroke="#191970" points="590.9579,-72.3754 580.6666,-74.8928 590.2816,-79.3426 590.9579,-72.3754"/>
</g>
<!-- Node18 -->
<g id="node9" class="node">
<title>Node18</title>
<g id="a_node9"><a xlink:href="chksum_8h.html" target="_top" xlink:title="ODP checksum functions. ">
<polygon fill="#ffffff" stroke="#ff0000" points="599,-56.5 599,-75.5 702,-75.5 702,-56.5 599,-56.5"/>
<text text-anchor="middle" x="650.5" y="-63.5" font-family="Helvetica,sans-Serif" font-size="10.00" fill="#000000">odp/api/chksum.h</text>
</a>
</g>
</g>
<!-- Node0&#45;&gt;Node18 -->
<g id="edge8" class="edge">
<title>Node0&#45;&gt;Node18</title>
<path fill="none" stroke="#191970" d="M2571.4242,-121.8276C2355.8799,-120.5783 1115.1008,-111.9446 712.2481,-75.8976"/>
<polygon fill="#191970" stroke="#191970" points="712.2979,-72.3876 702.0199,-74.9594 711.6584,-79.3583 712.2979,-72.3876"/>
</g>
<!-- Node20 -->
<g id="node10" class="node">
<title>Node20</title>
<g id="a_node10"><a xlink:href="api_2comp_8h.html" target="_top" xlink:title="ODP crypto. ">
<polygon fill="#ffffff" stroke="#ff0000" points="720.5,-56.5 720.5,-75.5 812.5,-75.5 812.5,-56.5 720.5,-56.5"/>
<text text-anchor="middle" x="766.5" y="-63.5" font-family="Helvetica,sans-Serif" font-size="10.00" fill="#000000">odp/api/comp.h</text>
</a>
</g>
</g>
<!-- Node0&#45;&gt;Node20 -->
<g id="edge9" class="edge">
<title>Node0&#45;&gt;Node20</title>
<path fill="none" stroke="#191970" d="M2571.2984,-121.833C2361.0022,-120.6425 1180.8014,-112.4082 822.5,-76 822.3987,-75.9897 822.2973,-75.9793 822.1958,-75.9689"/>
<polygon fill="#191970" stroke="#191970" points="822.9175,-72.5311 812.5673,-74.7943 822.0698,-79.4796 822.9175,-72.5311"/>
</g>
<!-- Node47 -->
<g id="node11" class="node">
<title>Node47</title>
<g id="a_node11"><a xlink:href="hints_8h.html" target="_top" xlink:title="ODP compiler hints. ">
<polygon fill="#ffffff" stroke="#ff0000" points="831,-56.5 831,-75.5 920,-75.5 920,-56.5 831,-56.5"/>
<text text-anchor="middle" x="875.5" y="-63.5" font-family="Helvetica,sans-Serif" font-size="10.00" fill="#000000">odp/api/hints.h</text>
</a>
</g>
</g>
<!-- Node0&#45;&gt;Node47 -->
<g id="edge10" class="edge">
<title>Node0&#45;&gt;Node47</title>
<path fill="none" stroke="#191970" d="M2571.2917,-121.7997C2370.3423,-120.4478 1285.9946,-111.6335 930.2662,-75.8726"/>
<polygon fill="#191970" stroke="#191970" points="930.5175,-72.38 920.2107,-74.8338 929.7981,-79.343 930.5175,-72.38"/>
</g>
<!-- Node49 -->
<g id="node12" class="node">
<title>Node49</title>
<g id="a_node12"><a xlink:href="api_2debug_8h.html" target="_top" xlink:title="ODP debug. ">
<polygon fill="#ffffff" stroke="#ff0000" points="938,-56.5 938,-75.5 1033,-75.5 1033,-56.5 938,-56.5"/>
<text text-anchor="middle" x="985.5" y="-63.5" font-family="Helvetica,sans-Serif" font-size="10.00" fill="#000000">odp/api/debug.h</text>
</a>
</g>
</g>
<!-- Node0&#45;&gt;Node49 -->
<g id="edge11" class="edge">
<title>Node0&#45;&gt;Node49</title>
<path fill="none" stroke="#191970" d="M2571.2946,-121.6845C2378.5568,-119.7019 1375.2481,-108.0278 1043.1193,-75.8699"/>
<polygon fill="#191970" stroke="#191970" points="1043.312,-72.3718 1033.0144,-74.8638 1042.6184,-79.3374 1043.312,-72.3718"/>
</g>
<!-- Node52 -->
<g id="node13" class="node">
<title>Node52</title>
<g id="a_node13"><a xlink:href="api_2byteorder_8h.html" target="_top" xlink:title="ODP byteorder. ">
<polygon fill="#ffffff" stroke="#ff0000" points="1051,-56.5 1051,-75.5 1162,-75.5 1162,-56.5 1051,-56.5"/>
<text text-anchor="middle" x="1106.5" y="-63.5" font-family="Helvetica,sans-Serif" font-size="10.00" fill="#000000">odp/api/byteorder.h</text>
</a>
</g>
</g>
<!-- Node0&#45;&gt;Node52 -->
<g id="edge12" class="edge">
<title>Node0&#45;&gt;Node52</title>
<path fill="none" stroke="#191970" d="M2571.4202,-121.4452C2387.0483,-118.1842 1460.6272,-100.799 1176.5,-76 1175.193,-75.8859 1173.873,-75.7639 1172.5436,-75.6349"/>
<polygon fill="#191970" stroke="#191970" points="1172.5384,-72.1141 1162.2208,-74.522 1171.788,-79.0738 1172.5384,-72.1141"/>
</g>
<!-- Node55 -->
<g id="node14" class="node">
<title>Node55</title>
<g id="a_node14"><a xlink:href="api_2cpu_8h.html" target="_top" xlink:title="ODP CPU. ">
<polygon fill="#ffffff" stroke="#ff0000" points="285.5,-56.5 285.5,-75.5 367.5,-75.5 367.5,-56.5 285.5,-56.5"/>
<text text-anchor="middle" x="326.5" y="-63.5" font-family="Helvetica,sans-Serif" font-size="10.00" fill="#000000">odp/api/cpu.h</text>
</a>
</g>
</g>
<!-- Node0&#45;&gt;Node55 -->
<g id="edge13" class="edge">
<title>Node0&#45;&gt;Node55</title>
<path fill="none" stroke="#191970" d="M2571.4767,-121.6813C2318.7664,-119.1218 648.8985,-101.3815 377.7239,-75.8483"/>
<polygon fill="#191970" stroke="#191970" points="377.9137,-72.3496 367.611,-74.8207 377.206,-79.3137 377.9137,-72.3496"/>
</g>
<!-- Node57 -->
<g id="node15" class="node">
<title>Node57</title>
<g id="a_node15"><a xlink:href="api_2thread_8h.html" target="_top" xlink:title="ODP thread API. ">
<polygon fill="#ffffff" stroke="#ff0000" points="785.5,-.5 785.5,-19.5 881.5,-19.5 881.5,-.5 785.5,-.5"/>
<text text-anchor="middle" x="833.5" y="-7.5" font-family="Helvetica,sans-Serif" font-size="10.00" fill="#000000">odp/api/thread.h</text>
</a>
</g>
</g>
<!-- Node0&#45;&gt;Node57 -->
<g id="edge25" class="edge">
<title>Node0&#45;&gt;Node57</title>
<path fill="none" stroke="#191970" d="M2571.4848,-121.4128C2378.4825,-117.8077 1373.789,-98.0949 1238.5,-76 1207.8302,-70.9911 1201.876,-62.5594 1171.5,-56 1074.4555,-35.0441 959.5638,-21.8079 891.8163,-15.1674"/>
<polygon fill="#191970" stroke="#191970" points="892.0546,-11.6743 881.7645,-14.1968 891.3817,-18.6419 892.0546,-11.6743"/>
</g>
<!-- Node62 -->
<g id="node16" class="node">
<title>Node62</title>
<g id="a_node16"><a xlink:href="api_2cpumask_8h.html" target="_top" xlink:title="ODP CPU masks and enumeration. ">
<polygon fill="#ffffff" stroke="#ff0000" points="1257,-56.5 1257,-75.5 1366,-75.5 1366,-56.5 1257,-56.5"/>
<text text-anchor="middle" x="1311.5" y="-63.5" font-family="Helvetica,sans-Serif" font-size="10.00" fill="#000000">odp/api/cpumask.h</text>
</a>
</g>
</g>
<!-- Node0&#45;&gt;Node62 -->
<g id="edge15" class="edge">
<title>Node0&#45;&gt;Node62</title>
<path fill="none" stroke="#191970" d="M2571.3304,-121.3081C2404.7475,-117.6479 1638.1766,-99.8438 1376.4749,-75.9504"/>
<polygon fill="#191970" stroke="#191970" points="1376.5429,-72.4414 1366.2591,-74.9895 1375.8874,-79.4106 1376.5429,-72.4414"/>
</g>
<!-- Node65 -->
<g id="node17" class="node">
<title>Node65</title>
<g id="a_node17"><a xlink:href="api_2barrier_8h.html" target="_top" xlink:title="ODP execution barriers. ">
<polygon fill="#ffffff" stroke="#ff0000" points="1384.5,-56.5 1384.5,-75.5 1480.5,-75.5 1480.5,-56.5 1384.5,-56.5"/>
<text text-anchor="middle" x="1432.5" y="-63.5" font-family="Helvetica,sans-Serif" font-size="10.00" fill="#000000">odp/api/barrier.h</text>
</a>
</g>
</g>
<!-- Node0&#45;&gt;Node65 -->
<g id="edge16" class="edge">
<title>Node0&#45;&gt;Node65</title>
<path fill="none" stroke="#191970" d="M2571.2438,-121.2316C2411.9613,-117.3509 1708.2891,-99.1771 1490.5,-76 1490.3984,-75.9892 1490.2967,-75.9783 1490.1949,-75.9674"/>
<polygon fill="#191970" stroke="#191970" points="1490.8932,-72.5271 1480.5397,-74.7756 1490.0356,-79.4744 1490.8932,-72.5271"/>
</g>
<!-- Node66 -->
<g id="node18" class="node">
<title>Node66</title>
<g id="a_node18"><a xlink:href="api_2atomic_8h.html" target="_top" xlink:title="ODP atomic operations. ">
<polygon fill="#ffffff" stroke="#ff0000" points="1281.5,-.5 1281.5,-19.5 1379.5,-19.5 1379.5,-.5 1281.5,-.5"/>
<text text-anchor="middle" x="1330.5" y="-7.5" font-family="Helvetica,sans-Serif" font-size="10.00" fill="#000000">odp/api/atomic.h</text>
</a>
</g>
</g>
<!-- Node0&#45;&gt;Node66 -->
<g id="edge20" class="edge">
<title>Node0&#45;&gt;Node66</title>
<path fill="none" stroke="#191970" d="M2571.29,-121.52C2368.1524,-118.4189 1272.2461,-100.5659 1248.5,-76 1228.9023,-55.7257 1262.7191,-35.9143 1292.6803,-23.3732"/>
<polygon fill="#191970" stroke="#191970" points="1294.2149,-26.5291 1302.1999,-19.5655 1291.6152,-20.0297 1294.2149,-26.5291"/>
</g>
<!-- Node72 -->
<g id="node19" class="node">
<title>Node72</title>
<g id="a_node19"><a xlink:href="api_2spinlock_8h.html" target="_top" xlink:title="ODP spinlock. ">
<polygon fill="#ffffff" stroke="#ff0000" points="1612,-56.5 1612,-75.5 1717,-75.5 1717,-56.5 1612,-56.5"/>
<text text-anchor="middle" x="1664.5" y="-63.5" font-family="Helvetica,sans-Serif" font-size="10.00" fill="#000000">odp/api/spinlock.h</text>
</a>
</g>
</g>
<!-- Node0&#45;&gt;Node72 -->
<g id="edge19" class="edge">
<title>Node0&#45;&gt;Node72</title>
<path fill="none" stroke="#191970" d="M2571.1484,-121.557C2457.1383,-119.7322 2063.3007,-111.194 1727.6272,-76"/>
<polygon fill="#191970" stroke="#191970" points="1727.5263,-72.4698 1717.2134,-74.8975 1726.7893,-79.4309 1727.5263,-72.4698"/>
</g>
<!-- Node75 -->
<g id="node20" class="node">
<title>Node75</title>
<g id="a_node20"><a xlink:href="feature_8h.html" target="_top" xlink:title="ODP features. ">
<polygon fill="#ffffff" stroke="#ff0000" points="1735.5,-56.5 1735.5,-75.5 1835.5,-75.5 1835.5,-56.5 1735.5,-56.5"/>
<text text-anchor="middle" x="1785.5" y="-63.5" font-family="Helvetica,sans-Serif" font-size="10.00" fill="#000000">odp/api/feature.h</text>
</a>
</g>
</g>
<!-- Node0&#45;&gt;Node75 -->
<g id="edge21" class="edge">
<title>Node0&#45;&gt;Node75</title>
<path fill="none" stroke="#191970" d="M2571.2107,-121.2825C2467.4087,-118.7146 2132.8062,-108.4041 1845.8473,-76.039"/>
<polygon fill="#191970" stroke="#191970" points="1845.9917,-72.5329 1835.6598,-74.8784 1845.1993,-79.4879 1845.9917,-72.5329"/>
</g>
<!-- Node77 -->
<g id="node21" class="node">
<title>Node77</title>
<g id="a_node21"><a xlink:href="api_2init_8h.html" target="_top" xlink:title="ODP initialization. ">
<polygon fill="#ffffff" stroke="#ff0000" points="1853.5,-56.5 1853.5,-75.5 1933.5,-75.5 1933.5,-56.5 1853.5,-56.5"/>
<text text-anchor="middle" x="1893.5" y="-63.5" font-family="Helvetica,sans-Serif" font-size="10.00" fill="#000000">odp/api/init.h</text>
</a>
</g>
</g>
<!-- Node0&#45;&gt;Node77 -->
<g id="edge22" class="edge">
<title>Node0&#45;&gt;Node77</title>
<path fill="none" stroke="#191970" d="M2571.4153,-121.2163C2475.6145,-118.5651 2183.4166,-108.2181 1943.5,-76 1943.3986,-75.9864 1943.297,-75.9727 1943.1954,-75.9589"/>
<polygon fill="#191970" stroke="#191970" points="1943.9568,-72.5349 1933.5414,-74.4766 1942.8944,-79.4538 1943.9568,-72.5349"/>
</g>
<!-- Node80 -->
<g id="node22" class="node">
<title>Node80</title>
<g id="a_node22"><a xlink:href="system__info_8h.html" target="_top" xlink:title="ODP system information. ">
<polygon fill="#ffffff" stroke="#ff0000" points="3620,-56.5 3620,-75.5 3745,-75.5 3745,-56.5 3620,-56.5"/>
<text text-anchor="middle" x="3682.5" y="-63.5" font-family="Helvetica,sans-Serif" font-size="10.00" fill="#000000">odp/api/system_info.h</text>
</a>
</g>
</g>
<!-- Node0&#45;&gt;Node80 -->
<g id="edge23" class="edge">
<title>Node0&#45;&gt;Node80</title>
<path fill="none" stroke="#191970" d="M2635.5772,-121.4987C2760.2762,-119.3444 3224.722,-109.4078 3605.5,-76 3606.9688,-75.8711 3608.4526,-75.735 3609.9475,-75.5925"/>
<polygon fill="#191970" stroke="#191970" points="3610.3418,-79.0705 3619.9325,-74.5684 3609.6276,-72.1071 3610.3418,-79.0705"/>
</g>
<!-- Node82 -->
<g id="node23" class="node">
<title>Node82</title>
<g id="a_node23"><a xlink:href="api_2shared__memory_8h.html" target="_top" xlink:title="ODP shared memory. ">
<polygon fill="#ffffff" stroke="#ff0000" points="2057,-56.5 2057,-75.5 2200,-75.5 2200,-56.5 2057,-56.5"/>
<text text-anchor="middle" x="2128.5" y="-63.5" font-family="Helvetica,sans-Serif" font-size="10.00" fill="#000000">odp/api/shared_memory.h</text>
</a>
</g>
</g>
<!-- Node0&#45;&gt;Node82 -->
<g id="edge26" class="edge">
<title>Node0&#45;&gt;Node82</title>
<path fill="none" stroke="#191970" d="M2571.3163,-118.3155C2505.6669,-110.784 2351.3187,-92.9966 2210.1877,-76.076"/>
<polygon fill="#191970" stroke="#191970" points="2210.3963,-72.576 2200.0505,-74.8594 2209.5622,-79.5262 2210.3963,-72.576"/>
</g>
<!-- Node84 -->
<g id="node24" class="node">
<title>Node84</title>
<g id="a_node24"><a xlink:href="api_2buffer_8h.html" target="_top" xlink:title="ODP buffer descriptor. ">
<polygon fill="#ffffff" stroke="#ff0000" points="3763.5,-56.5 3763.5,-75.5 3855.5,-75.5 3855.5,-56.5 3763.5,-56.5"/>
<text text-anchor="middle" x="3809.5" y="-63.5" font-family="Helvetica,sans-Serif" font-size="10.00" fill="#000000">odp/api/buffer.h</text>
</a>
</g>
</g>
<!-- Node0&#45;&gt;Node84 -->
<g id="edge27" class="edge">
<title>Node0&#45;&gt;Node84</title>
<path fill="none" stroke="#191970" d="M2635.5109,-121.327C2795.2876,-117.8769 3508.168,-101.3852 3753.0939,-75.9741"/>
<polygon fill="#191970" stroke="#191970" points="3753.7855,-79.4201 3763.3552,-74.8736 3753.039,-72.46 3753.7855,-79.4201"/>
</g>
<!-- Node86 -->
<g id="node25" class="node">
<title>Node86</title>
<g id="a_node25"><a xlink:href="api_2pool_8h.html" target="_top" xlink:title="ODP pool. ">
<polygon fill="#ffffff" stroke="#ff0000" points="2326.5,-56.5 2326.5,-75.5 2412.5,-75.5 2412.5,-56.5 2326.5,-56.5"/>
<text text-anchor="middle" x="2369.5" y="-63.5" font-family="Helvetica,sans-Serif" font-size="10.00" fill="#000000">odp/api/pool.h</text>
</a>
</g>
</g>
<!-- Node0&#45;&gt;Node86 -->
<g id="edge29" class="edge">
<title>Node0&#45;&gt;Node86</title>
<path fill="none" stroke="#191970" d="M2571.4539,-114.3309C2532.1554,-104.9261 2465.1136,-88.8819 2419.1305,-77.8774"/>
<polygon fill="#191970" stroke="#191970" points="2419.9079,-74.4647 2409.3679,-75.541 2418.2786,-81.2724 2419.9079,-74.4647"/>
</g>
<!-- Node89 -->
<g id="node26" class="node">
<title>Node89</title>
<g id="a_node26"><a xlink:href="api_2queue_8h.html" target="_top" xlink:title="ODP queue. ">
<polygon fill="#ffffff" stroke="#ff0000" points="1499,-56.5 1499,-75.5 1594,-75.5 1594,-56.5 1499,-56.5"/>
<text text-anchor="middle" x="1546.5" y="-63.5" font-family="Helvetica,sans-Serif" font-size="10.00" fill="#000000">odp/api/queue.h</text>
</a>
</g>
</g>
<!-- Node0&#45;&gt;Node89 -->
<g id="edge30" class="edge">
<title>Node0&#45;&gt;Node89</title>
<path fill="none" stroke="#191970" d="M2571.3615,-121.0752C2424.7498,-116.7727 1817.739,-98.0344 1604.1922,-75.895"/>
<polygon fill="#191970" stroke="#191970" points="1604.3368,-72.3905 1594.0206,-74.8045 1603.5906,-79.3506 1604.3368,-72.3905"/>
</g>
<!-- Node94 -->
<g id="node27" class="node">
<title>Node94</title>
<g id="a_node27"><a xlink:href="api_2ticketlock_8h.html" target="_top" xlink:title="ODP ticketlock. ">
<polygon fill="#ffffff" stroke="#ff0000" points="2547,-56.5 2547,-75.5 2660,-75.5 2660,-56.5 2547,-56.5"/>
<text text-anchor="middle" x="2603.5" y="-63.5" font-family="Helvetica,sans-Serif" font-size="10.00" fill="#000000">odp/api/ticketlock.h</text>
</a>
</g>
</g>
<!-- Node0&#45;&gt;Node94 -->
<g id="edge32" class="edge">
<title>Node0&#45;&gt;Node94</title>
<path fill="none" stroke="#191970" d="M2603.5,-112.2455C2603.5,-104.9382 2603.5,-94.6944 2603.5,-85.7046"/>
<polygon fill="#191970" stroke="#191970" points="2607.0001,-85.6426 2603.5,-75.6427 2600.0001,-85.6427 2607.0001,-85.6426"/>
</g>
<!-- Node37 -->
<g id="node28" class="node">
<title>Node37</title>
<g id="a_node28"><a xlink:href="api_2time_8h.html" target="_top" xlink:title="ODP time. ">
<polygon fill="#ffffff" stroke="#ff0000" points="1952,-56.5 1952,-75.5 2039,-75.5 2039,-56.5 1952,-56.5"/>
<text text-anchor="middle" x="1995.5" y="-63.5" font-family="Helvetica,sans-Serif" font-size="10.00" fill="#000000">odp/api/time.h</text>
</a>
</g>
</g>
<!-- Node0&#45;&gt;Node37 -->
<g id="edge33" class="edge">
<title>Node0&#45;&gt;Node37</title>
<path fill="none" stroke="#191970" d="M2571.4651,-120.5105C2487.5079,-116.3591 2254.0354,-103.2231 2049.1566,-75.9517"/>
<polygon fill="#191970" stroke="#191970" points="2049.4919,-72.4654 2039.1144,-74.6005 2048.5583,-79.4029 2049.4919,-72.4654"/>
</g>
<!-- Node97 -->
<g id="node29" class="node">
<title>Node97</title>
<g id="a_node29"><a xlink:href="api_2timer_8h.html" target="_top" xlink:title="ODP timer service. ">
<polygon fill="#ffffff" stroke="#ff0000" points="2218.5,-56.5 2218.5,-75.5 2308.5,-75.5 2308.5,-56.5 2218.5,-56.5"/>
<text text-anchor="middle" x="2263.5" y="-63.5" font-family="Helvetica,sans-Serif" font-size="10.00" fill="#000000">odp/api/timer.h</text>
</a>
</g>
</g>
<!-- Node0&#45;&gt;Node97 -->
<g id="edge35" class="edge">
<title>Node0&#45;&gt;Node97</title>
<path fill="none" stroke="#191970" d="M2571.2905,-117.0735C2520.0566,-109.1821 2416.5926,-93.0215 2318.6375,-76.1668"/>
<polygon fill="#191970" stroke="#191970" points="2319.0167,-72.6805 2308.567,-74.4281 2317.8257,-79.5785 2319.0167,-72.6805"/>
</g>
<!-- Node100 -->
<g id="node30" class="node">
<title>Node100</title>
<g id="a_node30"><a xlink:href="api_2schedule_8h.html" target="_top" xlink:title="ODP schedule. ">
<polygon fill="#ffffff" stroke="#ff0000" points="2946.5,-56.5 2946.5,-75.5 3054.5,-75.5 3054.5,-56.5 2946.5,-56.5"/>
<text text-anchor="middle" x="3000.5" y="-63.5" font-family="Helvetica,sans-Serif" font-size="10.00" fill="#000000">odp/api/schedule.h</text>
</a>
</g>
</g>
<!-- Node0&#45;&gt;Node100 -->
<g id="edge37" class="edge">
<title>Node0&#45;&gt;Node100</title>
<path fill="none" stroke="#191970" d="M2635.774,-117.7794C2693.7284,-110.1519 2819.519,-93.3765 2936.051,-76.1926"/>
<polygon fill="#191970" stroke="#191970" points="2936.8345,-79.6149 2946.2147,-74.6893 2935.8102,-72.6902 2936.8345,-79.6149"/>
</g>
<!-- Node106 -->
<g id="node31" class="node">
<title>Node106</title>
<g id="a_node31"><a xlink:href="api_2sync_8h.html" target="_top" xlink:title="ODP synchronisation. ">
<polygon fill="#ffffff" stroke="#ff0000" points="3073,-56.5 3073,-75.5 3160,-75.5 3160,-56.5 3073,-56.5"/>
<text text-anchor="middle" x="3116.5" y="-63.5" font-family="Helvetica,sans-Serif" font-size="10.00" fill="#000000">odp/api/sync.h</text>
</a>
</g>
</g>
<!-- Node0&#45;&gt;Node106 -->
<g id="edge38" class="edge">
<title>Node0&#45;&gt;Node106</title>
<path fill="none" stroke="#191970" d="M2635.6833,-119.7483C2709.3674,-114.3864 2896.1423,-99.6234 3062.9345,-75.9657"/>
<polygon fill="#191970" stroke="#191970" points="3063.4748,-79.4241 3072.8773,-74.5413 3062.482,-72.4949 3063.4748,-79.4241"/>
</g>
<!-- Node27 -->
<g id="node32" class="node">
<title>Node27</title>
<g id="a_node32"><a xlink:href="api_2packet_8h.html" target="_top" xlink:title="ODP packet descriptor. ">
<polygon fill="#ffffff" stroke="#ff0000" points="2430.5,-56.5 2430.5,-75.5 2528.5,-75.5 2528.5,-56.5 2430.5,-56.5"/>
<text text-anchor="middle" x="2479.5" y="-63.5" font-family="Helvetica,sans-Serif" font-size="10.00" fill="#000000">odp/api/packet.h</text>
</a>
</g>
</g>
<!-- Node0&#45;&gt;Node27 -->
<g id="edge39" class="edge">
<title>Node0&#45;&gt;Node27</title>
<path fill="none" stroke="#191970" d="M2582.1836,-112.3733C2562.2784,-103.3838 2532.3564,-89.8706 2509.94,-79.7471"/>
<polygon fill="#191970" stroke="#191970" points="2511.0925,-76.4272 2500.5382,-75.5011 2508.2113,-82.8068 2511.0925,-76.4272"/>
</g>
<!-- Node109 -->
<g id="node33" class="node">
<title>Node109</title>
<g id="a_node33"><a xlink:href="api_2packet__flags_8h.html" target="_top" xlink:title="ODP packet flags. ">
<polygon fill="#ffffff" stroke="#ff0000" points="3291.5,-56.5 3291.5,-75.5 3417.5,-75.5 3417.5,-56.5 3291.5,-56.5"/>
<text text-anchor="middle" x="3354.5" y="-63.5" font-family="Helvetica,sans-Serif" font-size="10.00" fill="#000000">odp/api/packet_flags.h</text>
</a>
</g>
</g>
<!-- Node0&#45;&gt;Node109 -->
<g id="edge41" class="edge">
<title>Node0&#45;&gt;Node109</title>
<path fill="none" stroke="#191970" d="M2635.7306,-120.6231C2732.0496,-116.3376 3026.3237,-102.0042 3281.1239,-76.0773"/>
<polygon fill="#191970" stroke="#191970" points="3281.7238,-79.5342 3291.3144,-75.0319 3281.0094,-72.5707 3281.7238,-79.5342"/>
</g>
<!-- Node112 -->
<g id="node34" class="node">
<title>Node112</title>
<g id="a_node34"><a xlink:href="api_2packet__io_8h.html" target="_top" xlink:title="ODP Packet IO. ">
<polygon fill="#ffffff" stroke="#ff0000" points="2678.5,-56.5 2678.5,-75.5 2790.5,-75.5 2790.5,-56.5 2678.5,-56.5"/>
<text text-anchor="middle" x="2734.5" y="-63.5" font-family="Helvetica,sans-Serif" font-size="10.00" fill="#000000">odp/api/packet_io.h</text>
</a>
</g>
</g>
<!-- Node0&#45;&gt;Node112 -->
<g id="edge42" class="edge">
<title>Node0&#45;&gt;Node112</title>
<path fill="none" stroke="#191970" d="M2626.0197,-112.3733C2647.2372,-103.3032 2679.2276,-89.6279 2702.9769,-79.4755"/>
<polygon fill="#191970" stroke="#191970" points="2704.4548,-82.6502 2712.2742,-75.5011 2701.7033,-76.2136 2704.4548,-82.6502"/>
</g>
<!-- Node119 -->
<g id="node35" class="node">
<title>Node119</title>
<g id="a_node35"><a xlink:href="api_2proto__stats_8h.html" target="_top" xlink:title="ODP proto stats. ">
<polygon fill="#ffffff" stroke="#ff0000" points="2809,-56.5 2809,-75.5 2928,-75.5 2928,-56.5 2809,-56.5"/>
<text text-anchor="middle" x="2868.5" y="-63.5" font-family="Helvetica,sans-Serif" font-size="10.00" fill="#000000">odp/api/proto_stats.h</text>
</a>
</g>
</g>
<!-- Node0&#45;&gt;Node119 -->
<g id="edge44" class="edge">
<title>Node0&#45;&gt;Node119</title>
<path fill="none" stroke="#191970" d="M2635.7293,-115.1893C2679.7878,-105.8788 2759.4674,-89.0409 2813.1759,-77.6911"/>
<polygon fill="#191970" stroke="#191970" points="2814.1599,-81.0606 2823.2201,-75.5686 2812.7125,-74.2118 2814.1599,-81.0606"/>
</g>
<!-- Node122 -->
<g id="node36" class="node">
<title>Node122</title>
<g id="a_node36"><a xlink:href="api_2crypto_8h.html" target="_top" xlink:title="ODP crypto. ">
<polygon fill="#ffffff" stroke="#ff0000" points="3178,-56.5 3178,-75.5 3273,-75.5 3273,-56.5 3178,-56.5"/>
<text text-anchor="middle" x="3225.5" y="-63.5" font-family="Helvetica,sans-Serif" font-size="10.00" fill="#000000">odp/api/crypto.h</text>
</a>
</g>
</g>
<!-- Node0&#45;&gt;Node122 -->
<g id="edge46" class="edge">
<title>Node0&#45;&gt;Node122</title>
<path fill="none" stroke="#191970" d="M2635.5266,-120.4726C2720.5679,-116.1884 2959.2569,-102.678 3167.6743,-76.136"/>
<polygon fill="#191970" stroke="#191970" points="3168.4176,-79.5693 3177.889,-74.8214 3167.524,-72.6265 3168.4176,-79.5693"/>
</g>
<!-- Node125 -->
<g id="node37" class="node">
<title>Node125</title>
<g id="a_node37"><a xlink:href="api_2classification_8h.html" target="_top" xlink:title="ODP classification descriptor. ">
<polygon fill="#ffffff" stroke="#ff0000" points="3435.5,-56.5 3435.5,-75.5 3563.5,-75.5 3563.5,-56.5 3435.5,-56.5"/>
<text text-anchor="middle" x="3499.5" y="-63.5" font-family="Helvetica,sans-Serif" font-size="10.00" fill="#000000">odp/api/classification.h</text>
</a>
</g>
</g>
<!-- Node0&#45;&gt;Node125 -->
<g id="edge48" class="edge">
<title>Node0&#45;&gt;Node125</title>
<path fill="none" stroke="#191970" d="M2635.7284,-121.1296C2744.9899,-117.9825 3111.5375,-105.8213 3425.2397,-76.0478"/>
<polygon fill="#191970" stroke="#191970" points="3425.8188,-79.5084 3435.4399,-75.0716 3425.1519,-72.5402 3425.8188,-79.5084"/>
</g>
<!-- Node129 -->
<g id="node38" class="node">
<title>Node129</title>
<g id="a_node38"><a xlink:href="api_2rwlock_8h.html" target="_top" xlink:title="ODP RW Locks. ">
<polygon fill="#ffffff" stroke="#ff0000" points="3874,-56.5 3874,-75.5 3971,-75.5 3971,-56.5 3874,-56.5"/>
<text text-anchor="middle" x="3922.5" y="-63.5" font-family="Helvetica,sans-Serif" font-size="10.00" fill="#000000">odp/api/rwlock.h</text>
</a>
</g>
</g>
<!-- Node0&#45;&gt;Node129 -->
<g id="edge50" class="edge">
<title>Node0&#45;&gt;Node129</title>
<path fill="none" stroke="#191970" d="M2635.6906,-121.4123C2805.0894,-118.2319 3595.2678,-102.2812 3863.7364,-75.9018"/>
<polygon fill="#191970" stroke="#191970" points="3864.2353,-79.3693 3873.8316,-74.879 3863.5297,-72.4049 3864.2353,-79.3693"/>
</g>
<!-- Node92 -->
<g id="node39" class="node">
<title>Node92</title>
<g id="a_node39"><a xlink:href="api_2event_8h.html" target="_top" xlink:title="ODP event. ">
<polygon fill="#ffffff" stroke="#ff0000" points="3989.5,-56.5 3989.5,-75.5 4081.5,-75.5 4081.5,-56.5 3989.5,-56.5"/>
<text text-anchor="middle" x="4035.5" y="-63.5" font-family="Helvetica,sans-Serif" font-size="10.00" fill="#000000">odp/api/event.h</text>
</a>
</g>
</g>
<!-- Node0&#45;&gt;Node92 -->
<g id="edge51" class="edge">
<title>Node0&#45;&gt;Node92</title>
<path fill="none" stroke="#191970" d="M2635.6418,-121.5665C2814.2365,-119.0617 3686.6457,-105.5482 3979.1974,-75.9552"/>
<polygon fill="#191970" stroke="#191970" points="3979.7746,-79.4141 3989.3577,-74.8957 3979.0485,-72.4519 3979.7746,-79.4141"/>
</g>
<!-- Node132 -->
<g id="node40" class="node">
<title>Node132</title>
<g id="a_node40"><a xlink:href="random_8h.html" target="_top" xlink:title="ODP random number API. ">
<polygon fill="#ffffff" stroke="#ff0000" points="4099.5,-56.5 4099.5,-75.5 4201.5,-75.5 4201.5,-56.5 4099.5,-56.5"/>
<text text-anchor="middle" x="4150.5" y="-63.5" font-family="Helvetica,sans-Serif" font-size="10.00" fill="#000000">odp/api/random.h</text>
</a>
</g>
</g>
<!-- Node0&#45;&gt;Node132 -->
<g id="edge52" class="edge">
<title>Node0&#45;&gt;Node132</title>
<path fill="none" stroke="#191970" d="M2635.6966,-121.593C2822.8842,-119.1386 3773.3651,-105.4504 4089.4288,-75.9453"/>
<polygon fill="#191970" stroke="#191970" points="4089.8791,-79.4183 4099.4989,-74.9786 4089.2101,-72.4503 4089.8791,-79.4183"/>
</g>
<!-- Node134 -->
<g id="node41" class="node">
<title>Node134</title>
<g id="a_node41"><a xlink:href="api_2errno_8h.html" target="_top" xlink:title="ODP errno API. ">
<polygon fill="#ffffff" stroke="#ff0000" points="4219.5,-56.5 4219.5,-75.5 4309.5,-75.5 4309.5,-56.5 4219.5,-56.5"/>
<text text-anchor="middle" x="4264.5" y="-63.5" font-family="Helvetica,sans-Serif" font-size="10.00" fill="#000000">odp/api/errno.h</text>
</a>
</g>
</g>
<!-- Node0&#45;&gt;Node134 -->
<g id="edge53" class="edge">
<title>Node0&#45;&gt;Node134</title>
<path fill="none" stroke="#191970" d="M2635.69,-121.7573C2831.7591,-120.1775 3868.0272,-110.3552 4209.3562,-75.9238"/>
<polygon fill="#191970" stroke="#191970" points="4209.9096,-79.3853 4219.4949,-74.8718 4209.1871,-72.4226 4209.9096,-79.3853"/>
</g>
<!-- Node103 -->
<g id="node42" class="node">
<title>Node103</title>
<g id="a_node42"><a xlink:href="api_2thrmask_8h.html" target="_top" xlink:title="ODP thread masks. ">
<polygon fill="#ffffff" stroke="#ff0000" points="4328,-56.5 4328,-75.5 4433,-75.5 4433,-56.5 4328,-56.5"/>
<text text-anchor="middle" x="4380.5" y="-63.5" font-family="Helvetica,sans-Serif" font-size="10.00" fill="#000000">odp/api/thrmask.h</text>
</a>
</g>
</g>
<!-- Node0&#45;&gt;Node103 -->
<g id="edge54" class="edge">
<title>Node0&#45;&gt;Node103</title>
<path fill="none" stroke="#191970" d="M2635.8185,-121.7213C2839.9258,-119.8737 3953.0164,-108.4775 4317.7478,-75.9105"/>
<polygon fill="#191970" stroke="#191970" points="4318.1569,-79.3878 4327.7959,-74.99 4317.5182,-72.4169 4318.1569,-79.3878"/>
</g>
<!-- Node137 -->
<g id="node43" class="node">
<title>Node137</title>
<g id="a_node43"><a xlink:href="api_2traffic__mngr_8h.html" target="_top" xlink:title="ODP Traffic manager. ">
<polygon fill="#ffffff" stroke="#ff0000" points="4451,-56.5 4451,-75.5 4574,-75.5 4574,-56.5 4451,-56.5"/>
<text text-anchor="middle" x="4512.5" y="-63.5" font-family="Helvetica,sans-Serif" font-size="10.00" fill="#000000">odp/api/traffic_mngr.h</text>
</a>
</g>
</g>
<!-- Node0&#45;&gt;Node137 -->
<g id="edge55" class="edge">
<title>Node0&#45;&gt;Node137</title>
<path fill="none" stroke="#191970" d="M2635.6947,-121.7103C2847.9783,-119.7233 4049.9368,-107.2689 4440.511,-76.0614"/>
<polygon fill="#191970" stroke="#191970" points="4441.0269,-79.531 4450.708,-75.2269 4440.4558,-72.5543 4441.0269,-79.531"/>
</g>
<!-- Node140 -->
<g id="node44" class="node">
<title>Node140</title>
<g id="a_node44"><a xlink:href="api_2spinlock__recursive_8h.html" target="_top" xlink:title="ODP resursive spinlock. ">
<polygon fill="#ffffff" stroke="#ff0000" points="4592,-56.5 4592,-75.5 4747,-75.5 4747,-56.5 4592,-56.5"/>
<text text-anchor="middle" x="4669.5" y="-63.5" font-family="Helvetica,sans-Serif" font-size="10.00" fill="#000000">odp/api/spinlock_recursive.h</text>
</a>
</g>
</g>
<!-- Node0&#45;&gt;Node140 -->
<g id="edge56" class="edge">
<title>Node0&#45;&gt;Node140</title>
<path fill="none" stroke="#191970" d="M2635.605,-121.662C2857.0012,-119.2705 4160.7115,-104.1952 4581.6338,-76.0596"/>
<polygon fill="#191970" stroke="#191970" points="4581.9759,-79.5445 4591.7143,-75.3715 4581.4991,-72.5608 4581.9759,-79.5445"/>
</g>
<!-- Node143 -->
<g id="node45" class="node">
<title>Node143</title>
<g id="a_node45"><a xlink:href="api_2rwlock__recursive_8h.html" target="_top" xlink:title="ODP resursive read/write lock. ">
<polygon fill="#ffffff" stroke="#ff0000" points="4765,-56.5 4765,-75.5 4912,-75.5 4912,-56.5 4765,-56.5"/>
<text text-anchor="middle" x="4838.5" y="-63.5" font-family="Helvetica,sans-Serif" font-size="10.00" fill="#000000">odp/api/rwlock_recursive.h</text>
</a>
</g>
</g>
<!-- Node0&#45;&gt;Node143 -->
<g id="edge57" class="edge">
<title>Node0&#45;&gt;Node143</title>
<path fill="none" stroke="#191970" d="M2635.7408,-121.7544C2868.5744,-119.9152 4296.4726,-107.5102 4754.4685,-76.0661"/>
<polygon fill="#191970" stroke="#191970" points="4755.0458,-79.5343 4764.7765,-75.3434 4754.5562,-72.5515 4755.0458,-79.5343"/>
</g>
<!-- Node146 -->
<g id="node46" class="node">
<title>Node146</title>
<g id="a_node46"><a xlink:href="api_2std_8h_source.html" target="_top" xlink:title="odp/api/std.h">
<polygon fill="#ffffff" stroke="#ff0000" points="4930.5,-56.5 4930.5,-75.5 5010.5,-75.5 5010.5,-56.5 4930.5,-56.5"/>
<text text-anchor="middle" x="4970.5" y="-63.5" font-family="Helvetica,sans-Serif" font-size="10.00" fill="#000000">odp/api/std.h</text>
</a>
</g>
</g>
<!-- Node0&#45;&gt;Node146 -->
<g id="edge58" class="edge">
<title>Node0&#45;&gt;Node146</title>
<path fill="none" stroke="#191970" d="M2635.5774,-121.7161C2894.414,-119.3798 4639.2273,-102.7617 4920.3695,-75.8269"/>
<polygon fill="#191970" stroke="#191970" points="4920.8948,-79.2913 4930.4825,-74.7827 4920.1759,-72.3284 4920.8948,-79.2913"/>
</g>
<!-- Node25 -->
<g id="node47" class="node">
<title>Node25</title>
<g id="a_node47"><a xlink:href="support_8h.html" target="_top" xlink:title="ODP support API &#45; platform specific header. ">
<polygon fill="#ffffff" stroke="#ff0000" points="5029,-56.5 5029,-75.5 5130,-75.5 5130,-56.5 5029,-56.5"/>
<text text-anchor="middle" x="5079.5" y="-63.5" font-family="Helvetica,sans-Serif" font-size="10.00" fill="#000000">odp/api/support.h</text>
</a>
</g>
</g>
<!-- Node0&#45;&gt;Node25 -->
<g id="edge59" class="edge">
<title>Node0&#45;&gt;Node25</title>
<path fill="none" stroke="#191970" d="M2635.6419,-121.6729C2900.943,-118.9364 4726.1165,-99.3927 5018.6899,-75.8542"/>
<polygon fill="#191970" stroke="#191970" points="5019.1665,-79.3262 5028.8287,-74.9798 5018.5649,-72.3521 5019.1665,-79.3262"/>
</g>
<!-- Node149 -->
<g id="node48" class="node">
<title>Node149</title>
<g id="a_node48"><a xlink:href="api_2ipsec_8h.html" target="_top" xlink:title="ODP IPSEC API &#45; platform specific header. ">
<polygon fill="#ffffff" stroke="#ff0000" points="5148.5,-56.5 5148.5,-75.5 5238.5,-75.5 5238.5,-56.5 5148.5,-56.5"/>
<text text-anchor="middle" x="5193.5" y="-63.5" font-family="Helvetica,sans-Serif" font-size="10.00" fill="#000000">odp/api/ipsec.h</text>
</a>
</g>
</g>
<!-- Node0&#45;&gt;Node149 -->
<g id="edge60" class="edge">
<title>Node0&#45;&gt;Node149</title>
<path fill="none" stroke="#191970" d="M2635.9188,-121.7365C2909.7485,-119.4688 4833.1086,-102.7056 5138.329,-75.8665"/>
<polygon fill="#191970" stroke="#191970" points="5138.8714,-79.331 5148.4986,-74.9075 5138.2142,-72.3619 5138.8714,-79.331"/>
</g>
<!-- Node154 -->
<g id="node49" class="node">
<title>Node154</title>
<g id="a_node49"><a xlink:href="api_2stash_8h.html" target="_top" xlink:title="ODP stash. ">
<polygon fill="#ffffff" stroke="#ff0000" points="5257,-56.5 5257,-75.5 5348,-75.5 5348,-56.5 5257,-56.5"/>
<text text-anchor="middle" x="5302.5" y="-63.5" font-family="Helvetica,sans-Serif" font-size="10.00" fill="#000000">odp/api/stash.h</text>
</a>
</g>
</g>
<!-- Node0&#45;&gt;Node154 -->
<g id="edge61" class="edge">
<title>Node0&#45;&gt;Node154</title>
<path fill="none" stroke="#191970" d="M2635.5004,-121.759C2914.3769,-119.6178 4929.2425,-103.3116 5246.8032,-75.8094"/>
<polygon fill="#191970" stroke="#191970" points="5247.3276,-79.2759 5256.9619,-74.8679 5246.6816,-72.3057 5247.3276,-79.2759"/>
</g>
<!-- Node117 -->
<g id="node50" class="node">
<title>Node117</title>
<g id="a_node50"><a xlink:href="reassembly_8h.html" target="_top" xlink:title="ODP REASSEMBLY API &#45; platform specific header. ">
<polygon fill="#ffffff" stroke="#ff0000" points="5366.5,-56.5 5366.5,-75.5 5486.5,-75.5 5486.5,-56.5 5366.5,-56.5"/>
<text text-anchor="middle" x="5426.5" y="-63.5" font-family="Helvetica,sans-Serif" font-size="10.00" fill="#000000">odp/api/reassembly.h</text>
</a>
</g>
</g>
<!-- Node0&#45;&gt;Node117 -->
<g id="edge62" class="edge">
<title>Node0&#45;&gt;Node117</title>
<path fill="none" stroke="#191970" d="M2635.9071,-121.7093C2922.9324,-119.1027 5027.2335,-99.3182 5356.2544,-75.9414"/>
<polygon fill="#191970" stroke="#191970" points="5356.6326,-79.4228 5366.3402,-75.1786 5356.1047,-72.4428 5356.6326,-79.4228"/>
</g>
<!-- Node2 -->
<g id="node3" class="node">
<title>Node2</title>
<g id="a_node3"><a xlink:href="spec_2deprecated_8h.html" target="_top" xlink:title="Macro for deprecated API definitions. ">
<polygon fill="#ffffff" stroke="#ff0000" points="0,-.5 0,-19.5 145,-19.5 145,-.5 0,-.5"/>
<text text-anchor="middle" x="72.5" y="-7.5" font-family="Helvetica,sans-Serif" font-size="10.00" fill="#000000">odp/api/spec/deprecated.h</text>
</a>
</g>
</g>
<!-- Node1&#45;&gt;Node2 -->
<g id="edge2" class="edge">
<title>Node1&#45;&gt;Node2</title>
<path fill="none" stroke="#191970" d="M81.5839,-56.2455C80.1486,-48.9382 78.1364,-38.6944 76.3705,-29.7046"/>
<polygon fill="#191970" stroke="#191970" points="79.756,-28.7805 74.3941,-19.6427 72.8873,-30.1298 79.756,-28.7805"/>
</g>
<!-- Node6 -->
<g id="node5" class="node">
<title>Node6</title>
<polygon fill="#ffffff" stroke="#bfbfbf" points="163,-.5 163,-19.5 282,-19.5 282,-.5 163,-.5"/>
<text text-anchor="middle" x="222.5" y="-7.5" font-family="Helvetica,sans-Serif" font-size="10.00" fill="#000000">odp/api/abi/version.h</text>
</g>
<!-- Node5&#45;&gt;Node6 -->
<g id="edge4" class="edge">
<title>Node5&#45;&gt;Node6</title>
<path fill="none" stroke="#191970" d="M217.5451,-56.2455C218.328,-48.9382 219.4256,-38.6944 220.3888,-29.7046"/>
<polygon fill="#191970" stroke="#191970" points="223.8815,-29.9587 221.4669,-19.6427 216.9214,-29.2129 223.8815,-29.9587"/>
</g>
<!-- Node55&#45;&gt;Node57 -->
<g id="edge14" class="edge">
<title>Node55&#45;&gt;Node57</title>
<path fill="none" stroke="#191970" d="M367.6451,-57.4419C370.636,-56.921 373.611,-56.4333 376.5,-56 518.9643,-34.6351 687.9421,-20.5163 775.0661,-14.0563"/>
<polygon fill="#191970" stroke="#191970" points="775.5611,-17.5294 785.2779,-13.3065 775.0484,-10.5482 775.5611,-17.5294"/>
</g>
<!-- Node65&#45;&gt;Node8 -->
<g id="edge17" class="edge">
<title>Node65&#45;&gt;Node8</title>
<path fill="none" stroke="#191970" d="M1480.5373,-57.2012C1483.9019,-56.744 1487.2475,-56.3359 1490.5,-56 1735.782,-30.67 2504.1536,-15.2785 2735.1615,-11.136"/>
<polygon fill="#191970" stroke="#191970" points="2735.4922,-14.6308 2745.4282,-10.953 2735.3674,-7.6319 2735.4922,-14.6308"/>
</g>
<!-- Node65&#45;&gt;Node66 -->
<g id="edge18" class="edge">
<title>Node65&#45;&gt;Node66</title>
<path fill="none" stroke="#191970" d="M1414.733,-56.2455C1398.7905,-47.4928 1375.1741,-34.527 1357.0011,-24.5496"/>
<polygon fill="#191970" stroke="#191970" points="1358.5137,-21.3873 1348.0634,-19.6427 1355.1448,-27.5233 1358.5137,-21.3873"/>
</g>
<!-- Node80&#45;&gt;Node8 -->
<g id="edge24" class="edge">
<title>Node80&#45;&gt;Node8</title>
<path fill="none" stroke="#191970" d="M3619.9272,-57.4908C3615.0501,-56.9446 3610.1977,-56.4389 3605.5,-56 3332.4622,-30.4929 3005.8482,-17.0685 2868.034,-12.1852"/>
<polygon fill="#191970" stroke="#191970" points="2867.7683,-8.6738 2857.6516,-11.8208 2867.5227,-15.6695 2867.7683,-8.6738"/>
</g>
<!-- Node84&#45;&gt;Node8 -->
<g id="edge28" class="edge">
<title>Node84&#45;&gt;Node8</title>
<path fill="none" stroke="#191970" d="M3763.3521,-57.1545C3760.3626,-56.7223 3757.3926,-56.3313 3754.5,-56 3582.2851,-36.2746 3054.6831,-18.0563 2867.8954,-12.0651"/>
<polygon fill="#191970" stroke="#191970" points="2867.7783,-8.5597 2857.6716,-11.7385 2867.5547,-15.5561 2867.7783,-8.5597"/>
</g>
<!-- Node89&#45;&gt;Node8 -->
<g id="edge31" class="edge">
<title>Node89&#45;&gt;Node8</title>
<path fill="none" stroke="#191970" d="M1594.0177,-57.1682C1597.2201,-56.726 1600.4029,-56.3296 1603.5,-56 1825.5901,-32.3643 2517.2483,-16.0292 2735.0954,-11.365"/>
<polygon fill="#191970" stroke="#191970" points="2735.49,-14.8575 2745.4132,-11.1452 2735.3409,-7.8591 2735.49,-14.8575"/>
</g>
<!-- Node37&#45;&gt;Node8 -->
<g id="edge34" class="edge">
<title>Node37&#45;&gt;Node8</title>
<path fill="none" stroke="#191970" d="M2039.1046,-57.3239C2042.2771,-56.8307 2045.4336,-56.3814 2048.5,-56 2300.6395,-24.6375 2603.0537,-14.392 2734.7532,-11.2688"/>
<polygon fill="#191970" stroke="#191970" points="2735.1565,-14.7606 2745.073,-11.0305 2734.9948,-7.7624 2735.1565,-14.7606"/>
</g>
<!-- Node97&#45;&gt;Node8 -->
<g id="edge36" class="edge">
<title>Node97&#45;&gt;Node8</title>
<path fill="none" stroke="#191970" d="M2308.5327,-57.353C2311.5627,-56.8661 2314.5728,-56.4093 2317.5,-56 2466.1565,-35.2127 2641.8378,-21.1081 2735.2626,-14.4329"/>
<polygon fill="#191970" stroke="#191970" points="2735.6892,-17.9115 2745.4168,-13.7135 2735.1945,-10.929 2735.6892,-17.9115"/>
</g>
<!-- Node27&#45;&gt;Node8 -->
<g id="edge40" class="edge">
<title>Node27&#45;&gt;Node8</title>
<path fill="none" stroke="#191970" d="M2528.7554,-57.4338C2584.4949,-47.74 2675.4952,-31.9139 2736.8937,-21.2359"/>
<polygon fill="#191970" stroke="#191970" points="2737.609,-24.6641 2746.8614,-19.5024 2736.4096,-17.7676 2737.609,-24.6641"/>
</g>
<!-- Node112&#45;&gt;Node8 -->
<g id="edge43" class="edge">
<title>Node112&#45;&gt;Node8</title>
<path fill="none" stroke="#191970" d="M2746.1705,-56.2455C2756.0661,-47.9746 2770.4627,-35.9416 2782.0901,-26.2232"/>
<polygon fill="#191970" stroke="#191970" points="2784.535,-28.7413 2789.9632,-19.6427 2780.0458,-23.3703 2784.535,-28.7413"/>
</g>
<!-- Node119&#45;&gt;Node8 -->
<g id="edge45" class="edge">
<title>Node119&#45;&gt;Node8</title>
<path fill="none" stroke="#191970" d="M2856.8295,-56.2455C2846.9339,-47.9746 2832.5373,-35.9416 2820.9099,-26.2232"/>
<polygon fill="#191970" stroke="#191970" points="2822.9542,-23.3703 2813.0368,-19.6427 2818.465,-28.7413 2822.9542,-23.3703"/>
</g>
<!-- Node122&#45;&gt;Node8 -->
<g id="edge47" class="edge">
<title>Node122&#45;&gt;Node8</title>
<path fill="none" stroke="#191970" d="M3177.8692,-57.3195C3175.0399,-56.8583 3172.234,-56.4147 3169.5,-56 3064.3189,-40.0462 2941.6121,-25.524 2867.8181,-17.2314"/>
<polygon fill="#191970" stroke="#191970" points="2868.0643,-13.7371 2857.737,-16.1031 2867.2856,-20.6937 2868.0643,-13.7371"/>
</g>
<!-- Node125&#45;&gt;Node8 -->
<g id="edge49" class="edge">
<title>Node125&#45;&gt;Node8</title>
<path fill="none" stroke="#191970" d="M3435.4334,-56.9925C3432.4155,-56.641 3429.426,-56.3078 3426.5,-56 3223.2603,-34.6215 2981.7995,-19.8509 2867.6161,-13.5004"/>
<polygon fill="#191970" stroke="#191970" points="2867.8078,-10.0058 2857.6299,-12.9485 2867.4215,-16.9951 2867.8078,-10.0058"/>
</g>
</g>
</svg>
