<?xml version="1.0" encoding="UTF-8" standalone="no"?>
<!DOCTYPE svg PUBLIC "-//W3C//DTD SVG 1.1//EN"
 "http://www.w3.org/Graphics/SVG/1.1/DTD/svg11.dtd">
<!-- Generated by graphviz version 2.40.1 (20161225.0304)
 -->
<!-- Title: packet_io_stats.h Pages: 1 -->
<svg width="1354pt" height="979pt"
 viewBox="0.00 0.00 1354.00 979.00" xmlns="http://www.w3.org/2000/svg" xmlns:xlink="http://www.w3.org/1999/xlink">
<g id="graph0" class="graph" transform="scale(1 1) rotate(0) translate(4 975)">
<title>packet_io_stats.h</title>
<polygon fill="#ffffff" stroke="transparent" points="-4,4 -4,-975 1350,-975 1350,4 -4,4"/>
<!-- Node0 -->
<g id="node1" class="node">
<title>Node0</title>
<polygon fill="#bfbfbf" stroke="#000000" points="870,-951.5 870,-970.5 972,-970.5 972,-951.5 870,-951.5"/>
<text text-anchor="middle" x="921" y="-958.5" font-family="Helvetica,sans-Serif" font-size="10.00" fill="#000000">packet_io_stats.h</text>
</g>
<!-- Node1 -->
<g id="node2" class="node">
<title>Node1</title>
<g id="a_node2"><a xlink:href="spec_2packet__io__stats_8h.html" target="_top" xlink:title="ODP Packet IO statistics. ">
<polygon fill="#ffffff" stroke="#000000" points="864,-884.5 864,-914.5 978,-914.5 978,-884.5 864,-884.5"/>
<text text-anchor="start" x="872" y="-902.5" font-family="Helvetica,sans-Serif" font-size="10.00" fill="#000000">odp/api/spec/packet</text>
<text text-anchor="middle" x="921" y="-891.5" font-family="Helvetica,sans-Serif" font-size="10.00" fill="#000000">_io_stats.h</text>
</a>
</g>
</g>
<!-- Node0&#45;&gt;Node1 -->
<g id="edge1" class="edge">
<title>Node0&#45;&gt;Node1</title>
<path fill="none" stroke="#191970" d="M921,-951.3906C921,-944.2234 921,-934.0862 921,-924.671"/>
<polygon fill="#191970" stroke="#191970" points="924.5001,-924.5446 921,-914.5446 917.5001,-924.5446 924.5001,-924.5446"/>
</g>
<!-- Node2 -->
<g id="node3" class="node">
<title>Node2</title>
<g id="a_node3"><a xlink:href="visibility__begin_8h_source.html" target="_top" xlink:title="odp/visibility_begin.h">
<polygon fill="#ffffff" stroke="#000000" points="994.5,-.5 994.5,-19.5 1115.5,-19.5 1115.5,-.5 994.5,-.5"/>
<text text-anchor="middle" x="1055" y="-7.5" font-family="Helvetica,sans-Serif" font-size="10.00" fill="#000000">odp/visibility_begin.h</text>
</a>
</g>
</g>
<!-- Node1&#45;&gt;Node2 -->
<g id="edge2" class="edge">
<title>Node1&#45;&gt;Node2</title>
<path fill="none" stroke="#191970" d="M978.3174,-895.6689C1094.3242,-886.3377 1346,-857.4044 1346,-782 1346,-782 1346,-782 1346,-122 1346,-81.7538 1319.1749,-75.5572 1284,-56 1257.2946,-41.1519 1182.6728,-27.8443 1125.8039,-19.4091"/>
<polygon fill="#191970" stroke="#191970" points="1126.1675,-15.9251 1115.7666,-17.9431 1125.1558,-22.8516 1126.1675,-15.9251"/>
</g>
<!-- Node3 -->
<g id="node4" class="node">
<title>Node3</title>
<g id="a_node4"><a xlink:href="deprecated_8h.html" target="_top" xlink:title="Control deprecated API definitions. ">
<polygon fill="#ffffff" stroke="#000000" points="1046.5,-235.5 1046.5,-254.5 1165.5,-254.5 1165.5,-235.5 1046.5,-235.5"/>
<text text-anchor="middle" x="1106" y="-242.5" font-family="Helvetica,sans-Serif" font-size="10.00" fill="#000000">odp/api/deprecated.h</text>
</a>
</g>
</g>
<!-- Node1&#45;&gt;Node3 -->
<g id="edge3" class="edge">
<title>Node1&#45;&gt;Node3</title>
<path fill="none" stroke="#191970" d="M978.0422,-889.9889C1067.8253,-873.3825 1232,-835.6779 1232,-782 1232,-782 1232,-782 1232,-373.5 1232,-335.8735 1237.1118,-319.8855 1213,-291 1199.8693,-275.2697 1180.368,-264.785 1161.597,-257.8579"/>
<polygon fill="#191970" stroke="#191970" points="1162.4796,-254.4612 1151.8852,-254.5508 1160.2232,-261.0875 1162.4796,-254.4612"/>
</g>
<!-- Node5 -->
<g id="node6" class="node">
<title>Node5</title>
<g id="a_node6"><a xlink:href="visibility__end_8h_source.html" target="_top" xlink:title="odp/visibility_end.h">
<polygon fill="#ffffff" stroke="#000000" points="172,-.5 172,-19.5 284,-19.5 284,-.5 172,-.5"/>
<text text-anchor="middle" x="228" y="-7.5" font-family="Helvetica,sans-Serif" font-size="10.00" fill="#000000">odp/visibility_end.h</text>
</a>
</g>
</g>
<!-- Node1&#45;&gt;Node5 -->
<g id="edge77" class="edge">
<title>Node1&#45;&gt;Node5</title>
<path fill="none" stroke="#191970" d="M863.7353,-898.2473C662.5206,-893.0973 0,-869.4969 0,-782 0,-782 0,-782 0,-122 0,-84.0995 22.1276,-76.5085 54,-56 86.2861,-35.2253 127.6636,-23.796 161.9677,-17.527"/>
<polygon fill="#191970" stroke="#191970" points="162.6425,-20.9624 171.9041,-15.8173 161.4554,-14.0638 162.6425,-20.9624"/>
</g>
<!-- Node6 -->
<g id="node7" class="node">
<title>Node6</title>
<g id="a_node7"><a xlink:href="api_2queue_8h.html" target="_top" xlink:title="ODP queue. ">
<polygon fill="#ffffff" stroke="#000000" points="511.5,-828.5 511.5,-847.5 606.5,-847.5 606.5,-828.5 511.5,-828.5"/>
<text text-anchor="middle" x="559" y="-835.5" font-family="Helvetica,sans-Serif" font-size="10.00" fill="#000000">odp/api/queue.h</text>
</a>
</g>
</g>
<!-- Node1&#45;&gt;Node6 -->
<g id="edge7" class="edge">
<title>Node1&#45;&gt;Node6</title>
<path fill="none" stroke="#191970" d="M863.64,-889.7551C796.0373,-878.2701 684.3559,-859.2967 616.6342,-847.7915"/>
<polygon fill="#191970" stroke="#191970" points="617.0092,-844.3051 606.5642,-846.0807 615.8367,-851.2062 617.0092,-844.3051"/>
</g>
<!-- Node4 -->
<g id="node5" class="node">
<title>Node4</title>
<g id="a_node5"><a xlink:href="spec_2deprecated_8h.html" target="_top" xlink:title="Macro for deprecated API definitions. ">
<polygon fill="#ffffff" stroke="#000000" points="982.5,-56.5 982.5,-75.5 1127.5,-75.5 1127.5,-56.5 982.5,-56.5"/>
<text text-anchor="middle" x="1055" y="-63.5" font-family="Helvetica,sans-Serif" font-size="10.00" fill="#000000">odp/api/spec/deprecated.h</text>
</a>
</g>
</g>
<!-- Node3&#45;&gt;Node4 -->
<g id="edge4" class="edge">
<title>Node3&#45;&gt;Node4</title>
<path fill="none" stroke="#191970" d="M1103.258,-235.3762C1095.1983,-207.0883 1071.4678,-123.7987 1060.5777,-85.5767"/>
<polygon fill="#191970" stroke="#191970" points="1063.8618,-84.3296 1057.7555,-75.6714 1057.1297,-86.2477 1063.8618,-84.3296"/>
</g>
<!-- Node4&#45;&gt;Node2 -->
<g id="edge5" class="edge">
<title>Node4&#45;&gt;Node2</title>
<path fill="none" stroke="#191970" d="M1055,-56.2455C1055,-48.9382 1055,-38.6944 1055,-29.7046"/>
<polygon fill="#191970" stroke="#191970" points="1058.5001,-29.6426 1055,-19.6427 1051.5001,-29.6427 1058.5001,-29.6426"/>
</g>
<!-- Node4&#45;&gt;Node5 -->
<g id="edge6" class="edge">
<title>Node4&#45;&gt;Node5</title>
<path fill="none" stroke="#191970" d="M982.3341,-61.0795C823.4966,-50.3238 447.3792,-24.8552 294.4217,-14.4977"/>
<polygon fill="#191970" stroke="#191970" points="294.4506,-10.9917 284.2369,-13.8081 293.9776,-17.9758 294.4506,-10.9917"/>
</g>
<!-- Node7 -->
<g id="node8" class="node">
<title>Node7</title>
<g id="a_node8"><a xlink:href="api_2std__types_8h.html" target="_top" xlink:title="Standard C language types and definitions for ODP. ">
<polygon fill="#ffffff" stroke="#000000" points="365,-235.5 365,-254.5 477,-254.5 477,-235.5 365,-235.5"/>
<text text-anchor="middle" x="421" y="-242.5" font-family="Helvetica,sans-Serif" font-size="10.00" fill="#000000">odp/api/std_types.h</text>
</a>
</g>
</g>
<!-- Node6&#45;&gt;Node7 -->
<g id="edge8" class="edge">
<title>Node6&#45;&gt;Node7</title>
<path fill="none" stroke="#191970" d="M511.1419,-833.1093C468.7473,-827.4141 406.0034,-815.5908 356,-792 245.6903,-739.9576 193.6856,-733.0235 139,-624 89.1386,-524.5943 133.532,-363.1204 210,-291 230.6911,-271.4853 300.9701,-258.9444 354.7915,-251.9656"/>
<polygon fill="#191970" stroke="#191970" points="355.4897,-255.4055 364.9749,-250.6852 354.6164,-248.4601 355.4897,-255.4055"/>
</g>
<!-- Node14 -->
<g id="node15" class="node">
<title>Node14</title>
<polygon fill="#ffffff" stroke="#bfbfbf" points="936,-548.5 936,-567.5 1046,-567.5 1046,-548.5 936,-548.5"/>
<text text-anchor="middle" x="991" y="-555.5" font-family="Helvetica,sans-Serif" font-size="10.00" fill="#000000">odp/api/abi/event.h</text>
</g>
<!-- Node6&#45;&gt;Node14 -->
<g id="edge19" class="edge">
<title>Node6&#45;&gt;Node14</title>
<path fill="none" stroke="#191970" d="M573.8704,-828.3618C637.7416,-786.9638 889.1062,-624.0423 967.5121,-573.2237"/>
<polygon fill="#191970" stroke="#191970" points="969.7042,-575.9737 976.1921,-567.5977 965.8969,-570.0997 969.7042,-575.9737"/>
</g>
<!-- Node15 -->
<g id="node16" class="node">
<title>Node15</title>
<polygon fill="#ffffff" stroke="#bfbfbf" points="1058.5,-297 1058.5,-316 1203.5,-316 1203.5,-297 1058.5,-297"/>
<text text-anchor="middle" x="1131" y="-304" font-family="Helvetica,sans-Serif" font-size="10.00" fill="#000000">odp/api/abi/queue_types.h</text>
</g>
<!-- Node6&#45;&gt;Node15 -->
<g id="edge20" class="edge">
<title>Node6&#45;&gt;Node15</title>
<path fill="none" stroke="#191970" d="M606.7282,-834.6273C754.4047,-823.5603 1194,-785.6106 1194,-726 1194,-726 1194,-726 1194,-440.5 1194,-395.1677 1164.1062,-348.7055 1145.5029,-324.1804"/>
<polygon fill="#191970" stroke="#191970" points="1148.158,-321.8942 1139.2361,-316.1801 1142.6474,-326.2108 1148.158,-321.8942"/>
</g>
<!-- Node16 -->
<g id="node17" class="node">
<title>Node16</title>
<polygon fill="#ffffff" stroke="#bfbfbf" points="364.5,-772.5 364.5,-791.5 477.5,-791.5 477.5,-772.5 364.5,-772.5"/>
<text text-anchor="middle" x="421" y="-779.5" font-family="Helvetica,sans-Serif" font-size="10.00" fill="#000000">odp/api/abi/queue.h</text>
</g>
<!-- Node6&#45;&gt;Node16 -->
<g id="edge21" class="edge">
<title>Node6&#45;&gt;Node16</title>
<path fill="none" stroke="#191970" d="M535.277,-828.3733C512.8263,-819.2629 478.9261,-805.5062 453.8745,-795.3404"/>
<polygon fill="#191970" stroke="#191970" points="454.9957,-792.0182 444.4135,-791.5011 452.3635,-798.5045 454.9957,-792.0182"/>
</g>
<!-- Node17 -->
<g id="node18" class="node">
<title>Node17</title>
<polygon fill="#ffffff" stroke="#bfbfbf" points="147,-548.5 147,-567.5 257,-567.5 257,-548.5 147,-548.5"/>
<text text-anchor="middle" x="202" y="-555.5" font-family="Helvetica,sans-Serif" font-size="10.00" fill="#000000">odp/api/abi/buffer.h</text>
</g>
<!-- Node6&#45;&gt;Node17 -->
<g id="edge22" class="edge">
<title>Node6&#45;&gt;Node17</title>
<path fill="none" stroke="#191970" d="M511.2677,-833.579C411.6959,-823.035 191,-792.198 191,-726 191,-726 191,-726 191,-670 191,-637.5562 195.6282,-600.078 198.8805,-577.7472"/>
<polygon fill="#191970" stroke="#191970" points="202.3868,-577.9687 200.424,-567.5573 195.4657,-576.9203 202.3868,-577.9687"/>
</g>
<!-- Node18 -->
<g id="node19" class="node">
<title>Node18</title>
<polygon fill="#ffffff" stroke="#bfbfbf" points="276,-548.5 276,-567.5 380,-567.5 380,-548.5 276,-548.5"/>
<text text-anchor="middle" x="328" y="-555.5" font-family="Helvetica,sans-Serif" font-size="10.00" fill="#000000">odp/api/abi/pool.h</text>
</g>
<!-- Node6&#45;&gt;Node18 -->
<g id="edge23" class="edge">
<title>Node6&#45;&gt;Node18</title>
<path fill="none" stroke="#191970" d="M550.7188,-828.2442C535.8125,-809.6512 506,-767.3024 506,-726 506,-726 506,-726 506,-670 506,-613.4041 440.7383,-584.2831 389.2478,-570.1147"/>
<polygon fill="#191970" stroke="#191970" points="390.0454,-566.7057 379.485,-567.5583 388.2722,-573.4774 390.0454,-566.7057"/>
</g>
<!-- Node19 -->
<g id="node20" class="node">
<title>Node19</title>
<g id="a_node20"><a xlink:href="api_2spec_2queue_8h.html" target="_top" xlink:title="ODP queue. ">
<polygon fill="#ffffff" stroke="#000000" points="823,-772.5 823,-791.5 943,-791.5 943,-772.5 823,-772.5"/>
<text text-anchor="middle" x="883" y="-779.5" font-family="Helvetica,sans-Serif" font-size="10.00" fill="#000000">odp/api/spec/queue.h</text>
</a>
</g>
</g>
<!-- Node6&#45;&gt;Node19 -->
<g id="edge24" class="edge">
<title>Node6&#45;&gt;Node19</title>
<path fill="none" stroke="#191970" d="M606.8073,-829.737C662.6668,-820.0823 755.3812,-804.0576 817.8077,-793.2678"/>
<polygon fill="#191970" stroke="#191970" points="818.6826,-796.6686 827.9403,-791.5165 817.4903,-789.7708 818.6826,-796.6686"/>
</g>
<!-- Node8 -->
<g id="node9" class="node">
<title>Node8</title>
<polygon fill="#ffffff" stroke="#bfbfbf" points="227,-174 227,-193 357,-193 357,-174 227,-174"/>
<text text-anchor="middle" x="292" y="-181" font-family="Helvetica,sans-Serif" font-size="10.00" fill="#000000">odp/api/abi/std_types.h</text>
</g>
<!-- Node7&#45;&gt;Node8 -->
<g id="edge9" class="edge">
<title>Node7&#45;&gt;Node8</title>
<path fill="none" stroke="#191970" d="M400.8438,-235.3906C379.449,-225.1908 345.438,-208.9763 321.1298,-197.3875"/>
<polygon fill="#191970" stroke="#191970" points="322.5476,-194.186 312.0147,-193.0419 319.5352,-200.5047 322.5476,-194.186"/>
</g>
<!-- Node9 -->
<g id="node10" class="node">
<title>Node9</title>
<g id="a_node10"><a xlink:href="api_2spec_2std__types_8h.html" target="_top" xlink:title="Standard C language types and definitions for ODP. ">
<polygon fill="#ffffff" stroke="#000000" points="375.5,-174 375.5,-193 512.5,-193 512.5,-174 375.5,-174"/>
<text text-anchor="middle" x="444" y="-181" font-family="Helvetica,sans-Serif" font-size="10.00" fill="#000000">odp/api/spec/std_types.h</text>
</a>
</g>
</g>
<!-- Node7&#45;&gt;Node9 -->
<g id="edge10" class="edge">
<title>Node7&#45;&gt;Node9</title>
<path fill="none" stroke="#191970" d="M424.5938,-235.3906C427.8491,-226.6862 432.7425,-213.6015 436.801,-202.7494"/>
<polygon fill="#191970" stroke="#191970" points="440.1309,-203.8373 440.3556,-193.2449 433.5744,-201.3852 440.1309,-203.8373"/>
</g>
<!-- Node9&#45;&gt;Node2 -->
<g id="edge11" class="edge">
<title>Node9&#45;&gt;Node2</title>
<path fill="none" stroke="#191970" d="M454.2047,-173.9919C485.8003,-144.5635 580.0188,-56.8881 582,-56 652.0671,-24.5915 870.2943,-14.5383 984.1927,-11.3903"/>
<polygon fill="#191970" stroke="#191970" points="984.3101,-14.8886 994.2134,-11.1238 984.1239,-7.891 984.3101,-14.8886"/>
</g>
<!-- Node9&#45;&gt;Node5 -->
<g id="edge18" class="edge">
<title>Node9&#45;&gt;Node5</title>
<path fill="none" stroke="#191970" d="M406.4132,-173.9846C360.9668,-160.3774 285.8743,-130.7323 248,-76 238.431,-62.1717 233.3417,-43.6503 230.697,-29.748"/>
<polygon fill="#191970" stroke="#191970" points="234.1325,-29.0691 229.0612,-19.7668 227.2247,-30.2012 234.1325,-29.0691"/>
</g>
<!-- Node10 -->
<g id="node11" class="node">
<title>Node10</title>
<polygon fill="#ffffff" stroke="#bfbfbf" points="329.5,-112.5 329.5,-131.5 382.5,-131.5 382.5,-112.5 329.5,-112.5"/>
<text text-anchor="middle" x="356" y="-119.5" font-family="Helvetica,sans-Serif" font-size="10.00" fill="#000000">stdint.h</text>
</g>
<!-- Node9&#45;&gt;Node10 -->
<g id="edge12" class="edge">
<title>Node9&#45;&gt;Node10</title>
<path fill="none" stroke="#191970" d="M430.25,-173.8906C416.3009,-164.1421 394.4902,-148.8994 378.1103,-137.4521"/>
<polygon fill="#191970" stroke="#191970" points="379.8551,-134.4015 369.6534,-131.5419 375.8452,-140.1392 379.8551,-134.4015"/>
</g>
<!-- Node11 -->
<g id="node12" class="node">
<title>Node11</title>
<g id="a_node12"><a xlink:href="api_2align_8h.html" target="_top" xlink:title="ODP alignments. ">
<polygon fill="#ffffff" stroke="#000000" points="400.5,-112.5 400.5,-131.5 489.5,-131.5 489.5,-112.5 400.5,-112.5"/>
<text text-anchor="middle" x="445" y="-119.5" font-family="Helvetica,sans-Serif" font-size="10.00" fill="#000000">odp/api/align.h</text>
</a>
</g>
</g>
<!-- Node9&#45;&gt;Node11 -->
<g id="edge13" class="edge">
<title>Node9&#45;&gt;Node11</title>
<path fill="none" stroke="#191970" d="M444.1563,-173.8906C444.2949,-165.3657 444.5018,-152.6392 444.676,-141.9235"/>
<polygon fill="#191970" stroke="#191970" points="448.1784,-141.8005 444.8415,-131.7449 441.1793,-141.6866 448.1784,-141.8005"/>
</g>
<!-- Node12 -->
<g id="node13" class="node">
<title>Node12</title>
<polygon fill="#ffffff" stroke="#bfbfbf" points="256.5,-56.5 256.5,-75.5 363.5,-75.5 363.5,-56.5 256.5,-56.5"/>
<text text-anchor="middle" x="310" y="-63.5" font-family="Helvetica,sans-Serif" font-size="10.00" fill="#000000">odp/api/abi/align.h</text>
</g>
<!-- Node11&#45;&gt;Node12 -->
<g id="edge14" class="edge">
<title>Node11&#45;&gt;Node12</title>
<path fill="none" stroke="#191970" d="M421.7927,-112.3733C399.8301,-103.2629 366.6668,-89.5062 342.1599,-79.3404"/>
<polygon fill="#191970" stroke="#191970" points="343.4824,-76.0999 332.9045,-75.5011 340.8003,-82.5657 343.4824,-76.0999"/>
</g>
<!-- Node13 -->
<g id="node14" class="node">
<title>Node13</title>
<g id="a_node14"><a xlink:href="api_2spec_2align_8h.html" target="_top" xlink:title="ODP alignments. ">
<polygon fill="#ffffff" stroke="#000000" points="420,-56.5 420,-75.5 534,-75.5 534,-56.5 420,-56.5"/>
<text text-anchor="middle" x="477" y="-63.5" font-family="Helvetica,sans-Serif" font-size="10.00" fill="#000000">odp/api/spec/align.h</text>
</a>
</g>
</g>
<!-- Node11&#45;&gt;Node13 -->
<g id="edge15" class="edge">
<title>Node11&#45;&gt;Node13</title>
<path fill="none" stroke="#191970" d="M450.574,-112.2455C454.9331,-104.617 461.1211,-93.7881 466.4133,-84.5267"/>
<polygon fill="#191970" stroke="#191970" points="469.5673,-86.0616 471.4899,-75.6427 463.4896,-82.5886 469.5673,-86.0616"/>
</g>
<!-- Node13&#45;&gt;Node2 -->
<g id="edge16" class="edge">
<title>Node13&#45;&gt;Node2</title>
<path fill="none" stroke="#191970" d="M534.3199,-57.6789C538.9448,-57.0831 543.5484,-56.5151 548,-56 703.3881,-38.0192 886.2507,-22.9139 984.3278,-15.3025"/>
<polygon fill="#191970" stroke="#191970" points="984.7163,-18.783 994.4169,-14.5228 984.1769,-11.8038 984.7163,-18.783"/>
</g>
<!-- Node13&#45;&gt;Node5 -->
<g id="edge17" class="edge">
<title>Node13&#45;&gt;Node5</title>
<path fill="none" stroke="#191970" d="M434.4783,-56.4369C391.8639,-46.8529 326.1824,-32.0812 280.379,-21.78"/>
<polygon fill="#191970" stroke="#191970" points="280.8706,-18.3032 270.3463,-19.5237 279.3346,-25.1326 280.8706,-18.3032"/>
</g>
<!-- Node19&#45;&gt;Node2 -->
<g id="edge25" class="edge">
<title>Node19&#45;&gt;Node2</title>
<path fill="none" stroke="#191970" d="M931.4924,-772.4833C1009.9417,-755.683 1156,-717.9635 1156,-670 1156,-670 1156,-670 1156,-502 1156,-369.2956 1308,-377.7044 1308,-245 1308,-245 1308,-245 1308,-122 1308,-84.6561 1287.5555,-75.9704 1256,-56 1234.4216,-42.3438 1174.4657,-29.6217 1125.6107,-21.0342"/>
<polygon fill="#191970" stroke="#191970" points="1126.1375,-17.5734 1115.6875,-19.3192 1124.9454,-24.4711 1126.1375,-17.5734"/>
</g>
<!-- Node19&#45;&gt;Node5 -->
<g id="edge76" class="edge">
<title>Node19&#45;&gt;Node5</title>
<path fill="none" stroke="#191970" d="M822.9071,-775.2975C629.8593,-752.1191 38,-667.557 38,-502 38,-502 38,-502 38,-122 38,-62.973 106.8954,-34.4224 161.7129,-21.048"/>
<polygon fill="#191970" stroke="#191970" points="162.8107,-24.3866 171.7649,-18.7234 161.2334,-17.5666 162.8107,-24.3866"/>
</g>
<!-- Node20 -->
<g id="node21" class="node">
<title>Node20</title>
<g id="a_node21"><a xlink:href="api_2event_8h.html" target="_top" xlink:title="ODP event. ">
<polygon fill="#ffffff" stroke="#000000" points="837,-716.5 837,-735.5 929,-735.5 929,-716.5 837,-716.5"/>
<text text-anchor="middle" x="883" y="-723.5" font-family="Helvetica,sans-Serif" font-size="10.00" fill="#000000">odp/api/event.h</text>
</a>
</g>
</g>
<!-- Node19&#45;&gt;Node20 -->
<g id="edge26" class="edge">
<title>Node19&#45;&gt;Node20</title>
<path fill="none" stroke="#191970" d="M883,-772.2455C883,-764.9382 883,-754.6944 883,-745.7046"/>
<polygon fill="#191970" stroke="#191970" points="886.5001,-745.6426 883,-735.6427 879.5001,-745.6427 886.5001,-745.6426"/>
</g>
<!-- Node35 -->
<g id="node36" class="node">
<title>Node35</title>
<g id="a_node36"><a xlink:href="api_2queue__types_8h.html" target="_top" xlink:title="ODP queue. ">
<polygon fill="#ffffff" stroke="#000000" points="1000.5,-364 1000.5,-383 1127.5,-383 1127.5,-364 1000.5,-364"/>
<text text-anchor="middle" x="1064" y="-371" font-family="Helvetica,sans-Serif" font-size="10.00" fill="#000000">odp/api/queue_types.h</text>
</a>
</g>
</g>
<!-- Node19&#45;&gt;Node35 -->
<g id="edge75" class="edge">
<title>Node19&#45;&gt;Node35</title>
<path fill="none" stroke="#191970" d="M918.7813,-772.4663C983.1875,-754.2435 1112,-712.4869 1112,-670 1112,-670 1112,-670 1112,-502 1112,-460.5569 1089.8192,-416.0783 1075.6137,-391.842"/>
<polygon fill="#191970" stroke="#191970" points="1078.453,-389.774 1070.2752,-383.038 1072.4674,-393.4035 1078.453,-389.774"/>
</g>
<!-- Node20&#45;&gt;Node14 -->
<g id="edge27" class="edge">
<title>Node20&#45;&gt;Node14</title>
<path fill="none" stroke="#191970" d="M889.116,-716.4862C906.4839,-689.4695 956.324,-611.9405 979.2292,-576.3102"/>
<polygon fill="#191970" stroke="#191970" points="982.2186,-578.1324 984.6821,-567.8279 976.3303,-574.347 982.2186,-578.1324"/>
</g>
<!-- Node21 -->
<g id="node22" class="node">
<title>Node21</title>
<g id="a_node22"><a xlink:href="api_2spec_2event_8h.html" target="_top" xlink:title="ODP event. ">
<polygon fill="#ffffff" stroke="#000000" points="534,-660.5 534,-679.5 652,-679.5 652,-660.5 534,-660.5"/>
<text text-anchor="middle" x="593" y="-667.5" font-family="Helvetica,sans-Serif" font-size="10.00" fill="#000000">odp/api/spec/event.h</text>
</a>
</g>
</g>
<!-- Node20&#45;&gt;Node21 -->
<g id="edge28" class="edge">
<title>Node20&#45;&gt;Node21</title>
<path fill="none" stroke="#191970" d="M836.728,-717.0647C786.748,-707.4134 706.9649,-692.007 652.3895,-681.4683"/>
<polygon fill="#191970" stroke="#191970" points="652.9875,-678.0192 642.5053,-679.5596 651.6603,-684.8922 652.9875,-678.0192"/>
</g>
<!-- Node21&#45;&gt;Node2 -->
<g id="edge29" class="edge">
<title>Node21&#45;&gt;Node2</title>
<path fill="none" stroke="#191970" d="M652.3046,-662.7741C761.866,-648.4873 990.6901,-613.9854 1055,-568 1115.5145,-524.7286 1101.084,-487.1313 1142,-425 1195.99,-343.0157 1270,-343.1649 1270,-245 1270,-245 1270,-245 1270,-122 1270,-55.5829 1188.3014,-28.4904 1125.6282,-17.4783"/>
<polygon fill="#191970" stroke="#191970" points="1126.1852,-14.0229 1115.7483,-15.8454 1125.0437,-20.9292 1126.1852,-14.0229"/>
</g>
<!-- Node21&#45;&gt;Node5 -->
<g id="edge74" class="edge">
<title>Node21&#45;&gt;Node5</title>
<path fill="none" stroke="#191970" d="M533.9378,-664.0459C424.375,-651.8585 195.5424,-620.6863 138,-568 71.0826,-506.73 76,-464.2301 76,-373.5 76,-373.5 76,-373.5 76,-122 76,-68.8635 136.9479,-38.1127 181.6564,-22.7035"/>
<polygon fill="#191970" stroke="#191970" points="182.8031,-26.0108 191.205,-19.5566 180.612,-19.3626 182.8031,-26.0108"/>
</g>
<!-- Node22 -->
<g id="node23" class="node">
<title>Node22</title>
<g id="a_node23"><a xlink:href="api_2packet_8h.html" target="_top" xlink:title="ODP packet descriptor. ">
<polygon fill="#ffffff" stroke="#000000" points="549,-604.5 549,-623.5 647,-623.5 647,-604.5 549,-604.5"/>
<text text-anchor="middle" x="598" y="-611.5" font-family="Helvetica,sans-Serif" font-size="10.00" fill="#000000">odp/api/packet.h</text>
</a>
</g>
</g>
<!-- Node21&#45;&gt;Node22 -->
<g id="edge30" class="edge">
<title>Node21&#45;&gt;Node22</title>
<path fill="none" stroke="#191970" d="M593.8709,-660.2455C594.5234,-652.9382 595.438,-642.6944 596.2407,-633.7046"/>
<polygon fill="#191970" stroke="#191970" points="599.7358,-633.9143 597.139,-623.6427 592.7635,-633.2918 599.7358,-633.9143"/>
</g>
<!-- Node22&#45;&gt;Node7 -->
<g id="edge31" class="edge">
<title>Node22&#45;&gt;Node7</title>
<path fill="none" stroke="#191970" d="M619.0545,-604.4265C633.949,-596.6271 653.2818,-584.2514 665,-568 682.853,-543.2407 684,-532.5246 684,-502 684,-502 684,-502 684,-373.5 684,-316.9048 637.0006,-317.5132 587,-291 556.0071,-274.5658 518.5629,-263.5341 487.0872,-256.4045"/>
<polygon fill="#191970" stroke="#191970" points="487.6094,-252.9362 477.0932,-254.2249 486.1177,-259.7754 487.6094,-252.9362"/>
</g>
<!-- Node22&#45;&gt;Node14 -->
<g id="edge32" class="edge">
<title>Node22&#45;&gt;Node14</title>
<path fill="none" stroke="#191970" d="M647.0227,-606.7531C653.406,-605.8206 659.8583,-604.8834 666,-604 779.7268,-587.6415 808.2562,-584.2398 922,-568 923.1084,-567.8417 924.2268,-567.6819 925.353,-567.5207"/>
<polygon fill="#191970" stroke="#191970" points="926.2402,-570.9293 935.6414,-566.0439 925.2455,-564.0003 926.2402,-570.9293"/>
</g>
<!-- Node22&#45;&gt;Node17 -->
<g id="edge36" class="edge">
<title>Node22&#45;&gt;Node17</title>
<path fill="none" stroke="#191970" d="M548.8976,-607.4034C486.1968,-598.9295 374.0778,-583.6078 267.2938,-568.0252"/>
<polygon fill="#191970" stroke="#191970" points="267.7113,-564.5492 257.3101,-566.5653 266.6984,-571.4755 267.7113,-564.5492"/>
</g>
<!-- Node22&#45;&gt;Node18 -->
<g id="edge37" class="edge">
<title>Node22&#45;&gt;Node18</title>
<path fill="none" stroke="#191970" d="M551.8921,-604.4369C505.3925,-594.7925 433.5641,-579.8948 383.86,-569.5858"/>
<polygon fill="#191970" stroke="#191970" points="384.4201,-566.1275 373.9177,-567.5237 382.9985,-572.9817 384.4201,-566.1275"/>
</g>
<!-- Node23 -->
<g id="node24" class="node">
<title>Node23</title>
<polygon fill="#ffffff" stroke="#bfbfbf" points="712,-548.5 712,-567.5 842,-567.5 842,-548.5 712,-548.5"/>
<text text-anchor="middle" x="777" y="-555.5" font-family="Helvetica,sans-Serif" font-size="10.00" fill="#000000">odp/api/abi/packet_io.h</text>
</g>
<!-- Node22&#45;&gt;Node23 -->
<g id="edge33" class="edge">
<title>Node22&#45;&gt;Node23</title>
<path fill="none" stroke="#191970" d="M628.7712,-604.3733C658.665,-595.021 704.2093,-580.7725 736.9217,-570.5385"/>
<polygon fill="#191970" stroke="#191970" points="738.1315,-573.8273 746.6303,-567.5011 736.0414,-567.1466 738.1315,-573.8273"/>
</g>
<!-- Node24 -->
<g id="node25" class="node">
<title>Node24</title>
<polygon fill="#ffffff" stroke="#bfbfbf" points="898.5,-425.5 898.5,-455.5 1005.5,-455.5 1005.5,-425.5 898.5,-425.5"/>
<text text-anchor="start" x="906.5" y="-443.5" font-family="Helvetica,sans-Serif" font-size="10.00" fill="#000000">odp/api/abi/packet</text>
<text text-anchor="middle" x="952" y="-432.5" font-family="Helvetica,sans-Serif" font-size="10.00" fill="#000000">_types.h</text>
</g>
<!-- Node22&#45;&gt;Node24 -->
<g id="edge34" class="edge">
<title>Node22&#45;&gt;Node24</title>
<path fill="none" stroke="#191970" d="M647.0151,-606.0009C718.0905,-594.2705 842.2906,-573.2249 851,-568 892.5545,-543.0709 923.7815,-494.2735 939.8549,-464.8078"/>
<polygon fill="#191970" stroke="#191970" points="943.1339,-466.0944 944.718,-455.6186 936.9469,-462.8201 943.1339,-466.0944"/>
</g>
<!-- Node25 -->
<g id="node26" class="node">
<title>Node25</title>
<polygon fill="#ffffff" stroke="#bfbfbf" points="540,-548.5 540,-567.5 656,-567.5 656,-548.5 540,-548.5"/>
<text text-anchor="middle" x="598" y="-555.5" font-family="Helvetica,sans-Serif" font-size="10.00" fill="#000000">odp/api/abi/packet.h</text>
</g>
<!-- Node22&#45;&gt;Node25 -->
<g id="edge35" class="edge">
<title>Node22&#45;&gt;Node25</title>
<path fill="none" stroke="#191970" d="M598,-604.2455C598,-596.9382 598,-586.6944 598,-577.7046"/>
<polygon fill="#191970" stroke="#191970" points="601.5001,-577.6426 598,-567.6427 594.5001,-577.6427 601.5001,-577.6426"/>
</g>
<!-- Node26 -->
<g id="node27" class="node">
<title>Node26</title>
<g id="a_node27"><a xlink:href="api_2spec_2packet_8h.html" target="_top" xlink:title="ODP packet descriptor. ">
<polygon fill="#ffffff" stroke="#000000" points="398.5,-548.5 398.5,-567.5 521.5,-567.5 521.5,-548.5 398.5,-548.5"/>
<text text-anchor="middle" x="460" y="-555.5" font-family="Helvetica,sans-Serif" font-size="10.00" fill="#000000">odp/api/spec/packet.h</text>
</a>
</g>
</g>
<!-- Node22&#45;&gt;Node26 -->
<g id="edge38" class="edge">
<title>Node22&#45;&gt;Node26</title>
<path fill="none" stroke="#191970" d="M574.277,-604.3733C551.8263,-595.2629 517.9261,-581.5062 492.8745,-571.3404"/>
<polygon fill="#191970" stroke="#191970" points="493.9957,-568.0182 483.4135,-567.5011 491.3635,-574.5045 493.9957,-568.0182"/>
</g>
<!-- Node26&#45;&gt;Node2 -->
<g id="edge39" class="edge">
<title>Node26&#45;&gt;Node2</title>
<path fill="none" stroke="#191970" d="M521.5595,-549.2226C524.7512,-548.801 527.9126,-548.391 531,-548 601.9926,-539.009 793.2075,-554.1997 851,-512 885.2218,-487.0115 864.4399,-458.797 890,-425 896.9938,-415.7524 1039.66,-296.2455 1050,-291 1109.6016,-260.764 1143.7423,-296.6618 1196,-255 1223.8196,-232.8212 1232,-219.0785 1232,-183.5 1232,-183.5 1232,-183.5 1232,-122 1232,-65.4608 1166.7111,-36.2861 1115.4386,-22.0919"/>
<polygon fill="#191970" stroke="#191970" points="1116.2829,-18.695 1105.7211,-19.5309 1114.4989,-25.4639 1116.2829,-18.695"/>
</g>
<!-- Node26&#45;&gt;Node5 -->
<g id="edge73" class="edge">
<title>Node26&#45;&gt;Node5</title>
<path fill="none" stroke="#191970" d="M432.2702,-548.4447C350.1657,-518.2009 114,-416.3177 114,-245 114,-245 114,-245 114,-122 114,-75.4628 162.9383,-41.828 196.6864,-24.1659"/>
<polygon fill="#191970" stroke="#191970" points="198.3862,-27.2289 205.749,-19.6105 195.2424,-20.9746 198.3862,-27.2289"/>
</g>
<!-- Node27 -->
<g id="node28" class="node">
<title>Node27</title>
<g id="a_node28"><a xlink:href="api_2proto__stats__types_8h.html" target="_top" xlink:title="ODP proto stats types. ">
<polygon fill="#ffffff" stroke="#000000" points="453,-358.5 453,-388.5 563,-388.5 563,-358.5 453,-358.5"/>
<text text-anchor="start" x="461" y="-376.5" font-family="Helvetica,sans-Serif" font-size="10.00" fill="#000000">odp/api/proto_stats</text>
<text text-anchor="middle" x="508" y="-365.5" font-family="Helvetica,sans-Serif" font-size="10.00" fill="#000000">_types.h</text>
</a>
</g>
</g>
<!-- Node26&#45;&gt;Node27 -->
<g id="edge40" class="edge">
<title>Node26&#45;&gt;Node27</title>
<path fill="none" stroke="#191970" d="M462.5131,-548.3402C469.7354,-520.5797 490.7189,-439.924 501.4754,-398.579"/>
<polygon fill="#191970" stroke="#191970" points="504.9054,-399.2954 504.0361,-388.7363 498.1309,-397.5329 504.9054,-399.2954"/>
</g>
<!-- Node30 -->
<g id="node31" class="node">
<title>Node30</title>
<g id="a_node31"><a xlink:href="api_2time_8h.html" target="_top" xlink:title="ODP time. ">
<polygon fill="#ffffff" stroke="#000000" points="218.5,-297 218.5,-316 305.5,-316 305.5,-297 218.5,-297"/>
<text text-anchor="middle" x="262" y="-304" font-family="Helvetica,sans-Serif" font-size="10.00" fill="#000000">odp/api/time.h</text>
</a>
</g>
</g>
<!-- Node26&#45;&gt;Node30 -->
<g id="edge46" class="edge">
<title>Node26&#45;&gt;Node30</title>
<path fill="none" stroke="#191970" d="M452.4799,-548.448C422.954,-510.9441 314.6875,-373.4238 275.9224,-324.1843"/>
<polygon fill="#191970" stroke="#191970" points="278.4634,-321.7537 269.5276,-316.0615 272.9634,-326.0838 278.4634,-321.7537"/>
</g>
<!-- Node33 -->
<g id="node34" class="node">
<title>Node33</title>
<g id="a_node34"><a xlink:href="api_2packet__types_8h.html" target="_top" xlink:title="ODP packet. ">
<polygon fill="#ffffff" stroke="#000000" points="712,-492.5 712,-511.5 842,-511.5 842,-492.5 712,-492.5"/>
<text text-anchor="middle" x="777" y="-499.5" font-family="Helvetica,sans-Serif" font-size="10.00" fill="#000000">odp/api/packet_types.h</text>
</a>
</g>
</g>
<!-- Node26&#45;&gt;Node33 -->
<g id="edge52" class="edge">
<title>Node26&#45;&gt;Node33</title>
<path fill="none" stroke="#191970" d="M514.1341,-548.4369C569.298,-538.6918 654.8237,-523.5832 713.2351,-513.2645"/>
<polygon fill="#191970" stroke="#191970" points="713.8506,-516.71 723.0892,-511.5237 712.6328,-509.8167 713.8506,-516.71"/>
</g>
<!-- Node28 -->
<g id="node29" class="node">
<title>Node28</title>
<polygon fill="#ffffff" stroke="#bfbfbf" points="324,-291.5 324,-321.5 452,-321.5 452,-291.5 324,-291.5"/>
<text text-anchor="start" x="332" y="-309.5" font-family="Helvetica,sans-Serif" font-size="10.00" fill="#000000">odp/api/abi/proto_stats</text>
<text text-anchor="middle" x="388" y="-298.5" font-family="Helvetica,sans-Serif" font-size="10.00" fill="#000000">_types.h</text>
</g>
<!-- Node27&#45;&gt;Node28 -->
<g id="edge41" class="edge">
<title>Node27&#45;&gt;Node28</title>
<path fill="none" stroke="#191970" d="M481.0697,-358.4639C464.2812,-349.0903 442.4694,-336.9121 424.1817,-326.7015"/>
<polygon fill="#191970" stroke="#191970" points="425.6932,-323.5368 415.2556,-321.7177 422.2807,-329.6487 425.6932,-323.5368"/>
</g>
<!-- Node29 -->
<g id="node30" class="node">
<title>Node29</title>
<g id="a_node30"><a xlink:href="api_2spec_2proto__stats__types_8h.html" target="_top" xlink:title="ODP proto stats types. ">
<polygon fill="#ffffff" stroke="#000000" points="470.5,-291.5 470.5,-321.5 577.5,-321.5 577.5,-291.5 470.5,-291.5"/>
<text text-anchor="start" x="478.5" y="-309.5" font-family="Helvetica,sans-Serif" font-size="10.00" fill="#000000">odp/api/spec/proto</text>
<text text-anchor="middle" x="524" y="-298.5" font-family="Helvetica,sans-Serif" font-size="10.00" fill="#000000">_stats_types.h</text>
</a>
</g>
</g>
<!-- Node27&#45;&gt;Node29 -->
<g id="edge42" class="edge">
<title>Node27&#45;&gt;Node29</title>
<path fill="none" stroke="#191970" d="M511.6306,-358.2967C513.5127,-350.4156 515.8601,-340.5857 518.0027,-331.6135"/>
<polygon fill="#191970" stroke="#191970" points="521.4652,-332.1827 520.3837,-321.6432 514.6566,-330.5567 521.4652,-332.1827"/>
</g>
<!-- Node29&#45;&gt;Node2 -->
<g id="edge43" class="edge">
<title>Node29&#45;&gt;Node2</title>
<path fill="none" stroke="#191970" d="M538.216,-291.3311C573.2206,-254.8752 667.8196,-161.6875 765,-112 819.1428,-84.3173 839.4909,-95.7607 897,-76 903.3056,-73.8333 978.3907,-42.2809 1022.7428,-23.5999"/>
<polygon fill="#191970" stroke="#191970" points="1024.3789,-26.7086 1032.2355,-19.6006 1021.6611,-20.2578 1024.3789,-26.7086"/>
</g>
<!-- Node29&#45;&gt;Node5 -->
<g id="edge45" class="edge">
<title>Node29&#45;&gt;Node5</title>
<path fill="none" stroke="#191970" d="M470.6429,-291.4481C437.4236,-281.7557 393.9433,-268.4849 356,-255 340.4077,-249.4586 227.2429,-212.7257 218,-199 182.5864,-146.411 206.2379,-65.7265 220.0354,-29.1746"/>
<polygon fill="#191970" stroke="#191970" points="223.3552,-30.2967 223.7671,-19.7099 216.8431,-27.7291 223.3552,-30.2967"/>
</g>
<!-- Node29&#45;&gt;Node7 -->
<g id="edge44" class="edge">
<title>Node29&#45;&gt;Node7</title>
<path fill="none" stroke="#191970" d="M498.8034,-291.4554C482.6728,-281.8241 461.8362,-269.3828 445.7864,-259.7996"/>
<polygon fill="#191970" stroke="#191970" points="447.3416,-256.6518 436.9613,-254.5303 443.753,-262.662 447.3416,-256.6518"/>
</g>
<!-- Node30&#45;&gt;Node7 -->
<g id="edge47" class="edge">
<title>Node30&#45;&gt;Node7</title>
<path fill="none" stroke="#191970" d="M286.8438,-296.8906C313.6807,-286.5103 356.6233,-269.9004 386.6753,-258.2766"/>
<polygon fill="#191970" stroke="#191970" points="388.2667,-261.4138 396.3307,-254.5419 385.7414,-254.8851 388.2667,-261.4138"/>
</g>
<!-- Node31 -->
<g id="node32" class="node">
<title>Node31</title>
<polygon fill="#ffffff" stroke="#bfbfbf" points="180.5,-235.5 180.5,-254.5 285.5,-254.5 285.5,-235.5 180.5,-235.5"/>
<text text-anchor="middle" x="233" y="-242.5" font-family="Helvetica,sans-Serif" font-size="10.00" fill="#000000">odp/api/abi/time.h</text>
</g>
<!-- Node30&#45;&gt;Node31 -->
<g id="edge48" class="edge">
<title>Node30&#45;&gt;Node31</title>
<path fill="none" stroke="#191970" d="M257.4688,-296.8906C253.3219,-288.0965 247.0668,-274.8312 241.919,-263.9145"/>
<polygon fill="#191970" stroke="#191970" points="245.0259,-262.2969 237.5951,-254.7449 238.6945,-265.2825 245.0259,-262.2969"/>
</g>
<!-- Node32 -->
<g id="node33" class="node">
<title>Node32</title>
<g id="a_node33"><a xlink:href="api_2spec_2time_8h.html" target="_top" xlink:title="ODP time. ">
<polygon fill="#ffffff" stroke="#000000" points="590.5,-56.5 590.5,-75.5 703.5,-75.5 703.5,-56.5 590.5,-56.5"/>
<text text-anchor="middle" x="647" y="-63.5" font-family="Helvetica,sans-Serif" font-size="10.00" fill="#000000">odp/api/spec/time.h</text>
</a>
</g>
</g>
<!-- Node30&#45;&gt;Node32 -->
<g id="edge49" class="edge">
<title>Node30&#45;&gt;Node32</title>
<path fill="none" stroke="#191970" d="M293.2792,-296.9188C300.3914,-294.8613 307.9334,-292.7744 315,-291 390.3276,-272.0857 419.2404,-294.6883 486,-255 558.7848,-211.7298 614.6692,-123.5753 636.7316,-84.9013"/>
<polygon fill="#191970" stroke="#191970" points="640.0022,-86.2232 641.8238,-75.7861 633.8912,-82.8092 640.0022,-86.2232"/>
</g>
<!-- Node32&#45;&gt;Node2 -->
<g id="edge50" class="edge">
<title>Node32&#45;&gt;Node2</title>
<path fill="none" stroke="#191970" d="M703.7307,-58.2134C777.1182,-48.1406 904.9521,-30.5948 984.5006,-19.6764"/>
<polygon fill="#191970" stroke="#191970" points="985.0033,-23.1403 994.4344,-18.3129 984.0514,-16.2053 985.0033,-23.1403"/>
</g>
<!-- Node32&#45;&gt;Node5 -->
<g id="edge51" class="edge">
<title>Node32&#45;&gt;Node5</title>
<path fill="none" stroke="#191970" d="M590.4918,-58.4476C513.5102,-48.1589 375.9302,-29.7711 294.2064,-18.8486"/>
<polygon fill="#191970" stroke="#191970" points="294.656,-15.3776 284.2805,-17.522 293.7286,-22.3159 294.656,-15.3776"/>
</g>
<!-- Node33&#45;&gt;Node24 -->
<g id="edge53" class="edge">
<title>Node33&#45;&gt;Node24</title>
<path fill="none" stroke="#191970" d="M804.3438,-492.3906C829.7822,-483.4508 868.3685,-469.8905 899.7165,-458.8739"/>
<polygon fill="#191970" stroke="#191970" points="900.9163,-462.1622 909.1902,-455.5446 898.5954,-455.5581 900.9163,-462.1622"/>
</g>
<!-- Node34 -->
<g id="node35" class="node">
<title>Node34</title>
<g id="a_node35"><a xlink:href="api_2spec_2packet__types_8h.html" target="_top" xlink:title="ODP packet types. ">
<polygon fill="#ffffff" stroke="#000000" points="720,-425.5 720,-455.5 834,-455.5 834,-425.5 720,-425.5"/>
<text text-anchor="start" x="728" y="-443.5" font-family="Helvetica,sans-Serif" font-size="10.00" fill="#000000">odp/api/spec/packet</text>
<text text-anchor="middle" x="777" y="-432.5" font-family="Helvetica,sans-Serif" font-size="10.00" fill="#000000">_types.h</text>
</a>
</g>
</g>
<!-- Node33&#45;&gt;Node34 -->
<g id="edge54" class="edge">
<title>Node33&#45;&gt;Node34</title>
<path fill="none" stroke="#191970" d="M777,-492.3906C777,-485.2234 777,-475.0862 777,-465.671"/>
<polygon fill="#191970" stroke="#191970" points="780.5001,-465.5446 777,-455.5446 773.5001,-465.5446 780.5001,-465.5446"/>
</g>
<!-- Node34&#45;&gt;Node2 -->
<g id="edge55" class="edge">
<title>Node34&#45;&gt;Node2</title>
<path fill="none" stroke="#191970" d="M803.4151,-425.4419C841.4584,-403.551 913.6282,-361.2569 973,-322 992.6523,-309.0058 994.523,-300.6851 1016,-291 1082.05,-261.2144 1122.8256,-305.2753 1175,-255 1198.677,-232.1848 1194,-216.3806 1194,-183.5 1194,-183.5 1194,-183.5 1194,-122 1194,-71.0738 1136.7272,-39.3787 1095.7083,-23.2092"/>
<polygon fill="#191970" stroke="#191970" points="1096.786,-19.875 1086.1943,-19.6178 1094.3138,-26.4239 1096.786,-19.875"/>
</g>
<!-- Node34&#45;&gt;Node5 -->
<g id="edge72" class="edge">
<title>Node34&#45;&gt;Node5</title>
<path fill="none" stroke="#191970" d="M719.8485,-434.2011C593.0797,-419.344 292.9868,-379.0235 210,-322 174.6884,-297.736 152,-287.8445 152,-245 152,-245 152,-245 152,-122 152,-82.2361 185.2071,-46.1042 207.7208,-26.177"/>
<polygon fill="#191970" stroke="#191970" points="210.1079,-28.7412 215.4501,-19.5918 205.5683,-23.4128 210.1079,-28.7412"/>
</g>
<!-- Node34&#45;&gt;Node27 -->
<g id="edge56" class="edge">
<title>Node34&#45;&gt;Node27</title>
<path fill="none" stroke="#191970" d="M719.952,-426.291C676.9381,-415.5775 617.8921,-400.8709 573.0447,-389.7007"/>
<polygon fill="#191970" stroke="#191970" points="573.6754,-386.251 563.1259,-387.2303 571.9836,-393.0434 573.6754,-386.251"/>
</g>
<!-- Node34&#45;&gt;Node35 -->
<g id="edge57" class="edge">
<title>Node34&#45;&gt;Node35</title>
<path fill="none" stroke="#191970" d="M834.0451,-427.1828C886.3492,-414.9725 963.084,-397.0588 1013.2894,-385.3384"/>
<polygon fill="#191970" stroke="#191970" points="1014.329,-388.6899 1023.2714,-383.0081 1012.7376,-381.8731 1014.329,-388.6899"/>
</g>
<!-- Node35&#45;&gt;Node15 -->
<g id="edge58" class="edge">
<title>Node35&#45;&gt;Node15</title>
<path fill="none" stroke="#191970" d="M1073.5995,-363.9005C1084.147,-353.353 1101.2904,-336.2096 1114.1002,-323.3998"/>
<polygon fill="#191970" stroke="#191970" points="1116.8221,-325.6276 1121.4183,-316.0817 1111.8724,-320.6779 1116.8221,-325.6276"/>
</g>
<!-- Node36 -->
<g id="node37" class="node">
<title>Node36</title>
<g id="a_node37"><a xlink:href="api_2spec_2queue__types_8h.html" target="_top" xlink:title="ODP queue types. ">
<polygon fill="#ffffff" stroke="#000000" points="852.5,-291.5 852.5,-321.5 963.5,-321.5 963.5,-291.5 852.5,-291.5"/>
<text text-anchor="start" x="860.5" y="-309.5" font-family="Helvetica,sans-Serif" font-size="10.00" fill="#000000">odp/api/spec/queue</text>
<text text-anchor="middle" x="908" y="-298.5" font-family="Helvetica,sans-Serif" font-size="10.00" fill="#000000">_types.h</text>
</a>
</g>
</g>
<!-- Node35&#45;&gt;Node36 -->
<g id="edge59" class="edge">
<title>Node35&#45;&gt;Node36</title>
<path fill="none" stroke="#191970" d="M1041.649,-363.9005C1018.4872,-353.9528 981.6651,-338.1382 952.5308,-325.6254"/>
<polygon fill="#191970" stroke="#191970" points="953.5457,-322.2522 942.976,-321.5218 950.7832,-328.6841 953.5457,-322.2522"/>
</g>
<!-- Node36&#45;&gt;Node2 -->
<g id="edge60" class="edge">
<title>Node36&#45;&gt;Node2</title>
<path fill="none" stroke="#191970" d="M934.0103,-291.3293C985.6367,-259.4133 1099.3158,-179.6417 1137,-76 1140.0375,-67.6462 1141.492,-63.6704 1137,-56 1128.3245,-41.186 1112.9374,-30.7802 1097.8175,-23.6608"/>
<polygon fill="#191970" stroke="#191970" points="1099.0687,-20.3888 1088.5002,-19.6426 1096.2967,-26.8166 1099.0687,-20.3888"/>
</g>
<!-- Node36&#45;&gt;Node3 -->
<g id="edge70" class="edge">
<title>Node36&#45;&gt;Node3</title>
<path fill="none" stroke="#191970" d="M956.4362,-291.4554C989.9078,-281.059 1033.9202,-267.3884 1065.5219,-257.5727"/>
<polygon fill="#191970" stroke="#191970" points="1066.8053,-260.8391 1075.317,-254.5303 1064.7289,-254.1542 1066.8053,-260.8391"/>
</g>
<!-- Node36&#45;&gt;Node5 -->
<g id="edge71" class="edge">
<title>Node36&#45;&gt;Node5</title>
<path fill="none" stroke="#191970" d="M877.7395,-291.399C810.2967,-257.9001 642.2962,-175.3243 499,-112 460.3486,-94.9195 449.2969,-93.8612 411,-76 393.7034,-67.9331 390.6095,-63.3589 373,-56 340.6303,-42.4728 302.8117,-30.5984 273.9149,-22.3037"/>
<polygon fill="#191970" stroke="#191970" points="274.6646,-18.8785 264.0893,-19.5222 272.7578,-25.6138 274.6646,-18.8785"/>
</g>
<!-- Node37 -->
<g id="node38" class="node">
<title>Node37</title>
<g id="a_node38"><a xlink:href="api_2schedule__types_8h.html" target="_top" xlink:title="ODP schedule. ">
<polygon fill="#ffffff" stroke="#000000" points="838,-235.5 838,-254.5 978,-254.5 978,-235.5 838,-235.5"/>
<text text-anchor="middle" x="908" y="-242.5" font-family="Helvetica,sans-Serif" font-size="10.00" fill="#000000">odp/api/schedule_types.h</text>
</a>
</g>
</g>
<!-- Node36&#45;&gt;Node37 -->
<g id="edge61" class="edge">
<title>Node36&#45;&gt;Node37</title>
<path fill="none" stroke="#191970" d="M908,-291.2977C908,-283.3834 908,-273.6043 908,-265.0759"/>
<polygon fill="#191970" stroke="#191970" points="911.5001,-264.8469 908,-254.8469 904.5001,-264.847 911.5001,-264.8469"/>
</g>
<!-- Node38 -->
<g id="node39" class="node">
<title>Node38</title>
<polygon fill="#ffffff" stroke="#bfbfbf" points="904.5,-168.5 904.5,-198.5 1021.5,-198.5 1021.5,-168.5 904.5,-168.5"/>
<text text-anchor="start" x="912.5" y="-186.5" font-family="Helvetica,sans-Serif" font-size="10.00" fill="#000000">odp/api/abi/schedule</text>
<text text-anchor="middle" x="963" y="-175.5" font-family="Helvetica,sans-Serif" font-size="10.00" fill="#000000">_types.h</text>
</g>
<!-- Node37&#45;&gt;Node38 -->
<g id="edge62" class="edge">
<title>Node37&#45;&gt;Node38</title>
<path fill="none" stroke="#191970" d="M916.5938,-235.3906C923.5549,-227.6068 933.6486,-216.3202 942.6458,-206.2597"/>
<polygon fill="#191970" stroke="#191970" points="945.4882,-208.3318 949.5455,-198.5446 940.2704,-203.6654 945.4882,-208.3318"/>
</g>
<!-- Node39 -->
<g id="node40" class="node">
<title>Node39</title>
<g id="a_node40"><a xlink:href="api_2spec_2schedule__types_8h.html" target="_top" xlink:title="ODP schedule types. ">
<polygon fill="#ffffff" stroke="#000000" points="761.5,-168.5 761.5,-198.5 886.5,-198.5 886.5,-168.5 761.5,-168.5"/>
<text text-anchor="start" x="769.5" y="-186.5" font-family="Helvetica,sans-Serif" font-size="10.00" fill="#000000">odp/api/spec/schedule</text>
<text text-anchor="middle" x="824" y="-175.5" font-family="Helvetica,sans-Serif" font-size="10.00" fill="#000000">_types.h</text>
</a>
</g>
</g>
<!-- Node37&#45;&gt;Node39 -->
<g id="edge63" class="edge">
<title>Node37&#45;&gt;Node39</title>
<path fill="none" stroke="#191970" d="M894.875,-235.3906C883.6119,-227.1444 866.9791,-214.9669 852.6566,-204.4807"/>
<polygon fill="#191970" stroke="#191970" points="854.685,-201.628 844.5487,-198.5446 850.5498,-207.276 854.685,-201.628"/>
</g>
<!-- Node39&#45;&gt;Node2 -->
<g id="edge64" class="edge">
<title>Node39&#45;&gt;Node2</title>
<path fill="none" stroke="#191970" d="M841.6738,-168.3238C879.8218,-135.5879 967.0164,-60.8861 974,-56 990.8368,-44.2202 1010.9145,-32.8018 1026.8683,-24.288"/>
<polygon fill="#191970" stroke="#191970" points="1028.5064,-27.381 1035.7294,-19.63 1025.2493,-21.1849 1028.5064,-27.381"/>
</g>
<!-- Node39&#45;&gt;Node5 -->
<g id="edge69" class="edge">
<title>Node39&#45;&gt;Node5</title>
<path fill="none" stroke="#191970" d="M804.2745,-168.3984C792.2367,-158.6874 776.923,-145.4143 765,-132 737.8103,-101.4095 748.2575,-76.7839 713,-56 677.7424,-35.2161 418.5408,-19.5643 294.1938,-13.1655"/>
<polygon fill="#191970" stroke="#191970" points="294.1996,-9.6614 284.0344,-12.6479 293.8433,-16.6523 294.1996,-9.6614"/>
</g>
<!-- Node40 -->
<g id="node41" class="node">
<title>Node40</title>
<g id="a_node41"><a xlink:href="support_8h.html" target="_top" xlink:title="ODP support API &#45; platform specific header. ">
<polygon fill="#ffffff" stroke="#000000" points="773.5,-112.5 773.5,-131.5 874.5,-131.5 874.5,-112.5 773.5,-112.5"/>
<text text-anchor="middle" x="824" y="-119.5" font-family="Helvetica,sans-Serif" font-size="10.00" fill="#000000">odp/api/support.h</text>
</a>
</g>
</g>
<!-- Node39&#45;&gt;Node40 -->
<g id="edge65" class="edge">
<title>Node39&#45;&gt;Node40</title>
<path fill="none" stroke="#191970" d="M824,-168.2977C824,-160.3834 824,-150.6043 824,-142.0759"/>
<polygon fill="#191970" stroke="#191970" points="827.5001,-141.8469 824,-131.8469 820.5001,-141.847 827.5001,-141.8469"/>
</g>
<!-- Node41 -->
<g id="node42" class="node">
<title>Node41</title>
<g id="a_node42"><a xlink:href="spec_2support_8h.html" target="_top" xlink:title="ODP support API. ">
<polygon fill="#ffffff" stroke="#000000" points="760.5,-56.5 760.5,-75.5 887.5,-75.5 887.5,-56.5 760.5,-56.5"/>
<text text-anchor="middle" x="824" y="-63.5" font-family="Helvetica,sans-Serif" font-size="10.00" fill="#000000">odp/api/spec/support.h</text>
</a>
</g>
</g>
<!-- Node40&#45;&gt;Node41 -->
<g id="edge66" class="edge">
<title>Node40&#45;&gt;Node41</title>
<path fill="none" stroke="#191970" d="M824,-112.2455C824,-104.9382 824,-94.6944 824,-85.7046"/>
<polygon fill="#191970" stroke="#191970" points="827.5001,-85.6426 824,-75.6427 820.5001,-85.6427 827.5001,-85.6426"/>
</g>
<!-- Node41&#45;&gt;Node2 -->
<g id="edge67" class="edge">
<title>Node41&#45;&gt;Node2</title>
<path fill="none" stroke="#191970" d="M863.4478,-56.4369C902.8156,-46.8932 963.4034,-32.2052 1005.8708,-21.9101"/>
<polygon fill="#191970" stroke="#191970" points="1006.821,-25.2812 1015.7149,-19.5237 1005.1717,-18.4783 1006.821,-25.2812"/>
</g>
<!-- Node41&#45;&gt;Node5 -->
<g id="edge68" class="edge">
<title>Node41&#45;&gt;Node5</title>
<path fill="none" stroke="#191970" d="M760.1733,-57.6115C755.3796,-57.0445 750.6148,-56.5005 746,-56 583.8894,-38.4171 392.692,-22.748 294.137,-15.044"/>
<polygon fill="#191970" stroke="#191970" points="294.2688,-11.5437 284.0271,-14.2562 293.725,-18.5225 294.2688,-11.5437"/>
</g>
</g>
</svg>
