<?xml version="1.0" encoding="UTF-8" standalone="no"?>
<!DOCTYPE svg PUBLIC "-//W3C//DTD SVG 1.1//EN"
 "http://www.w3.org/Graphics/SVG/1.1/DTD/svg11.dtd">
<!-- Generated by graphviz version 2.40.1 (20161225.0304)
 -->
<!-- Title: align.h Pages: 1 -->
<svg width="2931pt" height="476pt"
 viewBox="0.00 0.00 2930.50 476.00" xmlns="http://www.w3.org/2000/svg" xmlns:xlink="http://www.w3.org/1999/xlink">
<g id="graph0" class="graph" transform="scale(1 1) rotate(0) translate(4 472)">
<title>align.h</title>
<polygon fill="#ffffff" stroke="transparent" points="-4,4 -4,-472 2926.5,-472 2926.5,4 -4,4"/>
<!-- Node5 -->
<g id="node1" class="node">
<title>Node5</title>
<polygon fill="#bfbfbf" stroke="#000000" points="119.5,-448.5 119.5,-467.5 169.5,-467.5 169.5,-448.5 119.5,-448.5"/>
<text text-anchor="middle" x="144.5" y="-455.5" font-family="Helvetica,sans-Serif" font-size="10.00" fill="#000000">align.h</text>
</g>
<!-- Node6 -->
<g id="node2" class="node">
<title>Node6</title>
<g id="a_node2"><a xlink:href="abi-default_2atomic_8h.html" target="_top" xlink:title="ODP atomic operations. ">
<polygon fill="#ffffff" stroke="#000000" points="0,-280.5 0,-299.5 59,-299.5 59,-280.5 0,-280.5"/>
<text text-anchor="middle" x="29.5" y="-287.5" font-family="Helvetica,sans-Serif" font-size="10.00" fill="#000000">atomic.h</text>
</a>
</g>
</g>
<!-- Node5&#45;&gt;Node6 -->
<g id="edge1" class="edge">
<title>Node5&#45;&gt;Node6</title>
<path fill="none" stroke="#191970" d="M132.2465,-440.0993C108.0784,-404.7928 54.9862,-327.232 36.2274,-299.8279"/>
<polygon fill="#191970" stroke="#191970" points="129.4508,-442.2114 137.9876,-448.4862 135.2271,-438.2573 129.4508,-442.2114"/>
</g>
<!-- Node7 -->
<g id="node3" class="node">
<title>Node7</title>
<g id="a_node3"><a xlink:href="abi-default_2cpumask_8h.html" target="_top" xlink:title="ODP CPU masks and enumeration. ">
<polygon fill="#ffffff" stroke="#000000" points="77.5,-280.5 77.5,-299.5 147.5,-299.5 147.5,-280.5 77.5,-280.5"/>
<text text-anchor="middle" x="112.5" y="-287.5" font-family="Helvetica,sans-Serif" font-size="10.00" fill="#000000">cpumask.h</text>
</a>
</g>
</g>
<!-- Node5&#45;&gt;Node7 -->
<g id="edge2" class="edge">
<title>Node5&#45;&gt;Node7</title>
<path fill="none" stroke="#191970" d="M138.4369,-438.539C136.047,-430.3947 133.4202,-420.7945 131.5,-412 122.4465,-370.5338 116.0317,-320.2296 113.5898,-299.5639"/>
<polygon fill="#191970" stroke="#191970" points="135.1185,-439.6574 141.3629,-448.2164 141.819,-437.6314 135.1185,-439.6574"/>
</g>
<!-- Node8 -->
<g id="node4" class="node">
<title>Node8</title>
<g id="a_node4"><a xlink:href="spec_2std__types_8h.html" target="_top" xlink:title="Standard C language types and definitions for ODP. ">
<polygon fill="#ffffff" stroke="#000000" points="141,-392.5 141,-411.5 214,-411.5 214,-392.5 141,-392.5"/>
<text text-anchor="middle" x="177.5" y="-399.5" font-family="Helvetica,sans-Serif" font-size="10.00" fill="#000000">std_types.h</text>
</a>
</g>
</g>
<!-- Node5&#45;&gt;Node8 -->
<g id="edge3" class="edge">
<title>Node5&#45;&gt;Node8</title>
<path fill="none" stroke="#191970" d="M155.3254,-439.6296C160.8299,-430.2887 167.2937,-419.3197 171.8177,-411.6427"/>
<polygon fill="#191970" stroke="#191970" points="152.3097,-437.8532 150.2482,-448.2455 158.3405,-441.4071 152.3097,-437.8532"/>
</g>
<!-- Node81 -->
<g id="node50" class="node">
<title>Node81</title>
<g id="a_node50"><a xlink:href="time__inlines_8h_source.html" target="_top" xlink:title="time_inlines.h">
<polygon fill="#ffffff" stroke="#000000" points="232.5,-392.5 232.5,-411.5 318.5,-411.5 318.5,-392.5 232.5,-392.5"/>
<text text-anchor="middle" x="275.5" y="-399.5" font-family="Helvetica,sans-Serif" font-size="10.00" fill="#000000">time_inlines.h</text>
</a>
</g>
</g>
<!-- Node5&#45;&gt;Node81 -->
<g id="edge60" class="edge">
<title>Node5&#45;&gt;Node81</title>
<path fill="none" stroke="#191970" d="M176.3534,-444.3833C200.1785,-434.1985 232.1568,-420.5284 253.2742,-411.5011"/>
<polygon fill="#191970" stroke="#191970" points="174.839,-441.2242 167.0197,-448.3733 177.5906,-447.6608 174.839,-441.2242"/>
</g>
<!-- Node9 -->
<g id="node5" class="node">
<title>Node9</title>
<g id="a_node5"><a xlink:href="std__types_8h.html" target="_top" xlink:title="Standard C language types and definitions for ODP. ">
<polygon fill="#ffffff" stroke="#000000" points="1280,-336.5 1280,-355.5 1353,-355.5 1353,-336.5 1280,-336.5"/>
<text text-anchor="middle" x="1316.5" y="-343.5" font-family="Helvetica,sans-Serif" font-size="10.00" fill="#000000">std_types.h</text>
</a>
</g>
</g>
<!-- Node8&#45;&gt;Node9 -->
<g id="edge4" class="edge">
<title>Node8&#45;&gt;Node9</title>
<path fill="none" stroke="#191970" d="M224.0485,-392.2081C454.5174,-364.371 1117.0097,-349.9088 1279.9796,-346.6922"/>
<polygon fill="#191970" stroke="#191970" points="223.5472,-388.7434 214.0594,-393.4584 224.4167,-395.6892 223.5472,-388.7434"/>
</g>
<!-- Node9&#45;&gt;Node6 -->
<g id="edge5" class="edge">
<title>Node9&#45;&gt;Node6</title>
<path fill="none" stroke="#191970" d="M1269.9669,-345.6177C1073.0031,-343.7942 307.0997,-334.5789 68.5,-300 65.4563,-299.5589 62.3067,-298.974 59.1776,-298.3078"/>
<polygon fill="#191970" stroke="#191970" points="1269.9554,-349.1176 1279.9868,-345.7086 1270.019,-342.1179 1269.9554,-349.1176"/>
</g>
<!-- Node9&#45;&gt;Node7 -->
<g id="edge8" class="edge">
<title>Node9&#45;&gt;Node7</title>
<path fill="none" stroke="#191970" d="M1269.628,-345.2917C1081.0341,-342.2638 377.2331,-329.2073 156.5,-300 153.7042,-299.6301 150.8247,-299.1664 147.9401,-298.6427"/>
<polygon fill="#191970" stroke="#191970" points="1269.7109,-348.7934 1279.7652,-345.4527 1269.8221,-341.7942 1269.7109,-348.7934"/>
</g>
<!-- Node10 -->
<g id="node6" class="node">
<title>Node10</title>
<g id="a_node6"><a xlink:href="abi-default_2barrier_8h.html" target="_top" xlink:title="ODP barrier. ">
<polygon fill="#ffffff" stroke="#000000" points="2429,-280.5 2429,-299.5 2486,-299.5 2486,-280.5 2429,-280.5"/>
<text text-anchor="middle" x="2457.5" y="-287.5" font-family="Helvetica,sans-Serif" font-size="10.00" fill="#000000">barrier.h</text>
</a>
</g>
</g>
<!-- Node9&#45;&gt;Node10 -->
<g id="edge6" class="edge">
<title>Node9&#45;&gt;Node10</title>
<path fill="none" stroke="#191970" d="M1363.2281,-345.4357C1545.8926,-343.0156 2211.8455,-332.1335 2420.5,-300 2423.2622,-299.5746 2426.1139,-299.0197 2428.9515,-298.3891"/>
<polygon fill="#191970" stroke="#191970" points="1363.0968,-341.937 1353.1433,-345.5672 1363.1881,-348.9364 1363.0968,-341.937"/>
</g>
<!-- Node11 -->
<g id="node7" class="node">
<title>Node11</title>
<g id="a_node7"><a xlink:href="abi-default_2byteorder_8h.html" target="_top" xlink:title="ODP byteorder. ">
<polygon fill="#ffffff" stroke="#000000" points="2504.5,-280.5 2504.5,-299.5 2576.5,-299.5 2576.5,-280.5 2504.5,-280.5"/>
<text text-anchor="middle" x="2540.5" y="-287.5" font-family="Helvetica,sans-Serif" font-size="10.00" fill="#000000">byteorder.h</text>
</a>
</g>
</g>
<!-- Node9&#45;&gt;Node11 -->
<g id="edge7" class="edge">
<title>Node9&#45;&gt;Node11</title>
<path fill="none" stroke="#191970" d="M1363.4989,-345.2943C1554.2131,-342.2565 2270.8278,-329.1063 2495.5,-300 2498.3572,-299.6298 2501.3008,-299.166 2504.2498,-298.6423"/>
<polygon fill="#191970" stroke="#191970" points="1363.1966,-341.7986 1353.2531,-345.4558 1363.307,-348.7977 1363.1966,-341.7986"/>
</g>
<!-- Node12 -->
<g id="node8" class="node">
<title>Node12</title>
<g id="a_node8"><a xlink:href="abi-default_2init_8h.html" target="_top" xlink:title="ODP initialization. ">
<polygon fill="#ffffff" stroke="#000000" points="2595,-280.5 2595,-299.5 2636,-299.5 2636,-280.5 2595,-280.5"/>
<text text-anchor="middle" x="2615.5" y="-287.5" font-family="Helvetica,sans-Serif" font-size="10.00" fill="#000000">init.h</text>
</a>
</g>
</g>
<!-- Node9&#45;&gt;Node12 -->
<g id="edge9" class="edge">
<title>Node9&#45;&gt;Node12</title>
<path fill="none" stroke="#191970" d="M1363.3204,-345.0937C1578.079,-340.8299 2463.6393,-322.048 2585.5,-300 2588.5253,-299.4526 2591.6626,-298.6662 2594.7181,-297.7715"/>
<polygon fill="#191970" stroke="#191970" points="1363.2439,-341.5945 1353.315,-345.2915 1363.3823,-348.5931 1363.2439,-341.5945"/>
</g>
<!-- Node13 -->
<g id="node9" class="node">
<title>Node13</title>
<g id="a_node9"><a xlink:href="abi-default_2ipsec_8h.html" target="_top" xlink:title="ODP IPSEC API &#45; platform specific types. ">
<polygon fill="#ffffff" stroke="#000000" points="2654,-280.5 2654,-299.5 2705,-299.5 2705,-280.5 2654,-280.5"/>
<text text-anchor="middle" x="2679.5" y="-287.5" font-family="Helvetica,sans-Serif" font-size="10.00" fill="#000000">ipsec.h</text>
</a>
</g>
</g>
<!-- Node9&#45;&gt;Node13 -->
<g id="edge10" class="edge">
<title>Node9&#45;&gt;Node13</title>
<path fill="none" stroke="#191970" d="M1363.3238,-345.0776C1584.2506,-340.631 2517.0558,-320.7711 2645.5,-300 2648.1725,-299.5678 2650.9307,-298.9888 2653.6663,-298.3262"/>
<polygon fill="#191970" stroke="#191970" points="1362.9766,-341.5837 1353.0488,-345.2836 1363.117,-348.5823 1362.9766,-341.5837"/>
</g>
<!-- Node14 -->
<g id="node10" class="node">
<title>Node14</title>
<g id="a_node10"><a xlink:href="abi-default_2packet__io_8h.html" target="_top" xlink:title="ODP Packet IO. ">
<polygon fill="#ffffff" stroke="#000000" points="2723,-280.5 2723,-299.5 2796,-299.5 2796,-280.5 2723,-280.5"/>
<text text-anchor="middle" x="2759.5" y="-287.5" font-family="Helvetica,sans-Serif" font-size="10.00" fill="#000000">packet_io.h</text>
</a>
</g>
</g>
<!-- Node9&#45;&gt;Node14 -->
<g id="edge11" class="edge">
<title>Node9&#45;&gt;Node14</title>
<path fill="none" stroke="#191970" d="M1363.3115,-345.6282C1575.0328,-343.7671 2444.4094,-334.1525 2714.5,-300 2717.1995,-299.6586 2719.9758,-299.2316 2722.7607,-298.7476"/>
<polygon fill="#191970" stroke="#191970" points="1363.1265,-342.1295 1353.1571,-345.7159 1363.187,-349.1293 1363.1265,-342.1295"/>
</g>
<!-- Node15 -->
<g id="node11" class="node">
<title>Node15</title>
<g id="a_node11"><a xlink:href="abi-default_2rwlock__recursive_8h.html" target="_top" xlink:title="ODP recursive read/write lock. ">
<polygon fill="#ffffff" stroke="#000000" points="2814.5,-280.5 2814.5,-299.5 2922.5,-299.5 2922.5,-280.5 2814.5,-280.5"/>
<text text-anchor="middle" x="2868.5" y="-287.5" font-family="Helvetica,sans-Serif" font-size="10.00" fill="#000000">rwlock_recursive.h</text>
</a>
</g>
</g>
<!-- Node9&#45;&gt;Node15 -->
<g id="edge12" class="edge">
<title>Node9&#45;&gt;Node15</title>
<path fill="none" stroke="#191970" d="M1363.4217,-345.351C1583.5803,-342.1832 2515.5887,-327.3761 2805.5,-300 2808.3666,-299.7293 2811.3008,-299.4105 2814.2592,-299.056"/>
<polygon fill="#191970" stroke="#191970" points="1363.1326,-341.8547 1353.1837,-345.4973 1363.2327,-348.854 1363.1326,-341.8547"/>
</g>
<!-- Node16 -->
<g id="node12" class="node">
<title>Node16</title>
<g id="a_node12"><a xlink:href="abi-default_2schedule_8h.html" target="_top" xlink:title="ODP schedule. ">
<polygon fill="#ffffff" stroke="#000000" points="166,-280.5 166,-299.5 235,-299.5 235,-280.5 166,-280.5"/>
<text text-anchor="middle" x="200.5" y="-287.5" font-family="Helvetica,sans-Serif" font-size="10.00" fill="#000000">schedule.h</text>
</a>
</g>
</g>
<!-- Node9&#45;&gt;Node16 -->
<g id="edge13" class="edge">
<title>Node9&#45;&gt;Node16</title>
<path fill="none" stroke="#191970" d="M1269.7014,-345.117C1090.4015,-341.5596 447.1367,-327.1479 244.5,-300 241.5496,-299.6047 238.5055,-299.1065 235.4608,-298.5445"/>
<polygon fill="#191970" stroke="#191970" points="1269.7902,-348.6194 1279.8571,-345.3167 1269.9278,-341.6207 1269.7902,-348.6194"/>
</g>
<!-- Node17 -->
<g id="node13" class="node">
<title>Node17</title>
<g id="a_node13"><a xlink:href="abi-default_2spinlock__recursive_8h.html" target="_top" xlink:title="ODP recursive spinlock. ">
<polygon fill="#ffffff" stroke="#000000" points="253.5,-280.5 253.5,-299.5 369.5,-299.5 369.5,-280.5 253.5,-280.5"/>
<text text-anchor="middle" x="311.5" y="-287.5" font-family="Helvetica,sans-Serif" font-size="10.00" fill="#000000">spinlock_recursive.h</text>
</a>
</g>
</g>
<!-- Node9&#45;&gt;Node17 -->
<g id="edge14" class="edge">
<title>Node9&#45;&gt;Node17</title>
<path fill="none" stroke="#191970" d="M1269.5861,-345.3431C1132.2524,-343.0669 719.2737,-333.7029 378.5,-300 375.5741,-299.7106 372.5807,-299.3824 369.5608,-299.0257"/>
<polygon fill="#191970" stroke="#191970" points="1269.697,-348.8453 1279.7522,-345.5069 1269.8099,-341.8462 1269.697,-348.8453"/>
</g>
<!-- Node18 -->
<g id="node14" class="node">
<title>Node18</title>
<g id="a_node14"><a xlink:href="abi-default_2traffic__mngr_8h.html" target="_top" xlink:title="ODP traffic mngr. ">
<polygon fill="#ffffff" stroke="#000000" points="387.5,-280.5 387.5,-299.5 471.5,-299.5 471.5,-280.5 387.5,-280.5"/>
<text text-anchor="middle" x="429.5" y="-287.5" font-family="Helvetica,sans-Serif" font-size="10.00" fill="#000000">traffic_mngr.h</text>
</a>
</g>
</g>
<!-- Node9&#45;&gt;Node18 -->
<g id="edge15" class="edge">
<title>Node9&#45;&gt;Node18</title>
<path fill="none" stroke="#191970" d="M1269.5374,-344.2751C1116.7926,-338.5298 635.0683,-319.3117 480.5,-300 477.635,-299.642 474.6894,-299.2173 471.728,-298.7481"/>
<polygon fill="#191970" stroke="#191970" points="1269.4132,-347.7728 1279.5372,-344.6496 1269.6753,-340.7777 1269.4132,-347.7728"/>
</g>
<!-- Node19 -->
<g id="node15" class="node">
<title>Node19</title>
<g id="a_node15"><a xlink:href="barrier_8h.html" target="_top" xlink:title="ODP execution barriers. ">
<polygon fill="#ffffff" stroke="#000000" points="490,-280.5 490,-299.5 547,-299.5 547,-280.5 490,-280.5"/>
<text text-anchor="middle" x="518.5" y="-287.5" font-family="Helvetica,sans-Serif" font-size="10.00" fill="#000000">barrier.h</text>
</a>
</g>
</g>
<!-- Node9&#45;&gt;Node19 -->
<g id="edge16" class="edge">
<title>Node9&#45;&gt;Node19</title>
<path fill="none" stroke="#191970" d="M1269.4429,-344.4116C1125.7552,-339.3632 694.084,-322.6731 555.5,-300 552.742,-299.5488 549.893,-298.9764 547.0571,-298.3349"/>
<polygon fill="#191970" stroke="#191970" points="1269.5642,-347.9179 1279.6801,-344.7687 1269.8082,-340.9221 1269.5642,-347.9179"/>
</g>
<!-- Node20 -->
<g id="node16" class="node">
<title>Node20</title>
<g id="a_node16"><a xlink:href="buffer_8h.html" target="_top" xlink:title="ODP buffer descriptor. ">
<polygon fill="#ffffff" stroke="#000000" points="565,-280.5 565,-299.5 618,-299.5 618,-280.5 565,-280.5"/>
<text text-anchor="middle" x="591.5" y="-287.5" font-family="Helvetica,sans-Serif" font-size="10.00" fill="#000000">buffer.h</text>
</a>
</g>
</g>
<!-- Node9&#45;&gt;Node20 -->
<g id="edge17" class="edge">
<title>Node9&#45;&gt;Node20</title>
<path fill="none" stroke="#191970" d="M1269.3341,-343.8878C1135.6134,-337.7311 755.7554,-319.0307 632.5,-300 627.8658,-299.2845 622.9862,-298.3017 618.2736,-297.2301"/>
<polygon fill="#191970" stroke="#191970" points="1269.4969,-347.3989 1279.6466,-344.3602 1269.8172,-340.4062 1269.4969,-347.3989"/>
</g>
<!-- Node21 -->
<g id="node17" class="node">
<title>Node21</title>
<g id="a_node17"><a xlink:href="classification_8h.html" target="_top" xlink:title="ODP classification descriptor. ">
<polygon fill="#ffffff" stroke="#000000" points="649,-56.5 649,-75.5 738,-75.5 738,-56.5 649,-56.5"/>
<text text-anchor="middle" x="693.5" y="-63.5" font-family="Helvetica,sans-Serif" font-size="10.00" fill="#000000">classification.h</text>
</a>
</g>
</g>
<!-- Node9&#45;&gt;Node21 -->
<g id="edge18" class="edge">
<title>Node9&#45;&gt;Node21</title>
<path fill="none" stroke="#191970" d="M1269.3044,-344.1217C1125.4562,-338.1977 700.9144,-319.1622 678.5,-300 613.6376,-244.5488 603.7239,-189.4729 639.5,-112 646.8833,-96.0115 662.8676,-83.5319 675.5401,-75.6299"/>
<polygon fill="#191970" stroke="#191970" points="1269.431,-347.6297 1279.5658,-344.5416 1269.7173,-340.6355 1269.431,-347.6297"/>
</g>
<!-- Node24 -->
<g id="node19" class="node">
<title>Node24</title>
<g id="a_node19"><a xlink:href="crypto_8h.html" target="_top" xlink:title="ODP crypto. ">
<polygon fill="#ffffff" stroke="#000000" points="878.5,-168.5 878.5,-187.5 934.5,-187.5 934.5,-168.5 878.5,-168.5"/>
<text text-anchor="middle" x="906.5" y="-175.5" font-family="Helvetica,sans-Serif" font-size="10.00" fill="#000000">crypto.h</text>
</a>
</g>
</g>
<!-- Node9&#45;&gt;Node24 -->
<g id="edge20" class="edge">
<title>Node9&#45;&gt;Node24</title>
<path fill="none" stroke="#191970" d="M1269.792,-344.9245C1156.3793,-341.8321 873.6697,-331.0549 845.5,-300 822.806,-274.9816 830.4337,-254.2315 845.5,-224 853.7828,-207.3801 871.2497,-195.1809 885.3784,-187.5378"/>
<polygon fill="#191970" stroke="#191970" points="1269.8168,-348.4263 1279.9059,-345.1921 1270.0019,-341.4288 1269.8168,-348.4263"/>
</g>
<!-- Node25 -->
<g id="node20" class="node">
<title>Node25</title>
<g id="a_node20"><a xlink:href="packet_8h.html" target="_top" xlink:title="ODP packet descriptor. ">
<polygon fill="#ffffff" stroke="#000000" points="855,-280.5 855,-299.5 914,-299.5 914,-280.5 855,-280.5"/>
<text text-anchor="middle" x="884.5" y="-287.5" font-family="Helvetica,sans-Serif" font-size="10.00" fill="#000000">packet.h</text>
</a>
</g>
</g>
<!-- Node9&#45;&gt;Node25 -->
<g id="edge22" class="edge">
<title>Node9&#45;&gt;Node25</title>
<path fill="none" stroke="#191970" d="M1269.6849,-342.0571C1196.5344,-335.5351 1050.8291,-321.092 928.5,-300 923.8681,-299.2014 918.9905,-298.2278 914.2366,-297.2051"/>
<polygon fill="#191970" stroke="#191970" points="1269.6708,-345.5694 1279.9397,-342.9617 1270.286,-338.5964 1269.6708,-345.5694"/>
</g>
<!-- Node42 -->
<g id="node24" class="node">
<title>Node42</title>
<g id="a_node24"><a xlink:href="spec_2packet__flags_8h.html" target="_top" xlink:title="ODP packet flags. ">
<polygon fill="#ffffff" stroke="#ff0000" points="1072,-224.5 1072,-243.5 1159,-243.5 1159,-224.5 1072,-224.5"/>
<text text-anchor="middle" x="1115.5" y="-231.5" font-family="Helvetica,sans-Serif" font-size="10.00" fill="#000000">packet_flags.h</text>
</a>
</g>
</g>
<!-- Node9&#45;&gt;Node42 -->
<g id="edge44" class="edge">
<title>Node9&#45;&gt;Node42</title>
<path fill="none" stroke="#191970" d="M1269.7029,-343.3269C1177.9444,-337.6062 981.5471,-322.8124 961.5,-300 955.6323,-293.323 956.1897,-287.1283 961.5,-280 968.4388,-270.6857 1031.4949,-254.0289 1074.7369,-243.5206"/>
<polygon fill="#191970" stroke="#191970" points="1269.634,-346.8292 1279.8295,-343.9478 1270.0625,-339.8423 1269.634,-346.8292"/>
</g>
<!-- Node36 -->
<g id="node26" class="node">
<title>Node36</title>
<g id="a_node26"><a xlink:href="packet__io_8h.html" target="_top" xlink:title="ODP Packet IO. ">
<polygon fill="#ffffff" stroke="#000000" points="687,-168.5 687,-187.5 760,-187.5 760,-168.5 687,-168.5"/>
<text text-anchor="middle" x="723.5" y="-175.5" font-family="Helvetica,sans-Serif" font-size="10.00" fill="#000000">packet_io.h</text>
</a>
</g>
</g>
<!-- Node9&#45;&gt;Node36 -->
<g id="edge34" class="edge">
<title>Node9&#45;&gt;Node36</title>
<path fill="none" stroke="#191970" d="M1269.6966,-345.1873C1134.4339,-342.4664 749.6811,-331.9694 703.5,-300 674.1473,-279.6803 663.8383,-256.9822 677.5,-224 683.8102,-208.7658 697.8846,-195.9464 708.8148,-187.7423"/>
<polygon fill="#191970" stroke="#191970" points="1269.6832,-348.6876 1279.7499,-345.3843 1269.8204,-341.6889 1269.6832,-348.6876"/>
</g>
<!-- Node38 -->
<g id="node28" class="node">
<title>Node38</title>
<g id="a_node28"><a xlink:href="spec_2traffic__mngr_8h.html" target="_top" xlink:title="traffic_mngr.h">
<polygon fill="#ffffff" stroke="#ff0000" points="794.5,-112.5 794.5,-131.5 878.5,-131.5 878.5,-112.5 794.5,-112.5"/>
<text text-anchor="middle" x="836.5" y="-119.5" font-family="Helvetica,sans-Serif" font-size="10.00" fill="#000000">traffic_mngr.h</text>
</a>
</g>
</g>
<!-- Node9&#45;&gt;Node38 -->
<g id="edge54" class="edge">
<title>Node9&#45;&gt;Node38</title>
<path fill="none" stroke="#191970" d="M1269.8083,-345.0857C1153.6361,-342.3295 858.8021,-332.2003 829.5,-300 785.3725,-251.508 819.1317,-161.2601 832.04,-131.6699"/>
<polygon fill="#191970" stroke="#191970" points="1269.7488,-348.5851 1279.8265,-345.3155 1269.9094,-341.587 1269.7488,-348.5851"/>
</g>
<!-- Node44 -->
<g id="node29" class="node">
<title>Node44</title>
<g id="a_node29"><a xlink:href="proto__stats_8h.html" target="_top" xlink:title="ODP proto stats. ">
<polygon fill="#ffffff" stroke="#000000" points="970.5,-280.5 970.5,-299.5 1050.5,-299.5 1050.5,-280.5 970.5,-280.5"/>
<text text-anchor="middle" x="1010.5" y="-287.5" font-family="Helvetica,sans-Serif" font-size="10.00" fill="#000000">proto_stats.h</text>
</a>
</g>
</g>
<!-- Node9&#45;&gt;Node44 -->
<g id="edge35" class="edge">
<title>Node9&#45;&gt;Node44</title>
<path fill="none" stroke="#191970" d="M1269.6873,-337.9715C1218.1286,-329.0475 1132.8019,-314.0377 1059.5,-300 1056.6007,-299.4448 1053.6072,-298.8606 1050.5957,-298.2651"/>
<polygon fill="#191970" stroke="#191970" points="1269.3978,-341.4733 1279.8477,-339.727 1270.5896,-334.5755 1269.3978,-341.4733"/>
</g>
<!-- Node32 -->
<g id="node30" class="node">
<title>Node32</title>
<g id="a_node30"><a xlink:href="queue_8h.html" target="_top" xlink:title="ODP queue. ">
<polygon fill="#ffffff" stroke="#000000" points="1068.5,-280.5 1068.5,-299.5 1124.5,-299.5 1124.5,-280.5 1068.5,-280.5"/>
<text text-anchor="middle" x="1096.5" y="-287.5" font-family="Helvetica,sans-Serif" font-size="10.00" fill="#000000">queue.h</text>
</a>
</g>
</g>
<!-- Node9&#45;&gt;Node32 -->
<g id="edge36" class="edge">
<title>Node9&#45;&gt;Node32</title>
<path fill="none" stroke="#191970" d="M1269.998,-334.552C1232.9757,-325.3797 1179.8597,-312.0904 1133.5,-300 1130.667,-299.2612 1127.7148,-298.4809 1124.7681,-297.6952"/>
<polygon fill="#191970" stroke="#191970" points="1269.4465,-338.021 1279.9944,-337.0255 1271.1279,-331.226 1269.4465,-338.021"/>
</g>
<!-- Node45 -->
<g id="node32" class="node">
<title>Node45</title>
<g id="a_node32"><a xlink:href="spec_2chksum_8h.html" target="_top" xlink:title="ODP checksum functions. ">
<polygon fill="#ffffff" stroke="#000000" points="1142.5,-280.5 1142.5,-299.5 1206.5,-299.5 1206.5,-280.5 1142.5,-280.5"/>
<text text-anchor="middle" x="1174.5" y="-287.5" font-family="Helvetica,sans-Serif" font-size="10.00" fill="#000000">chksum.h</text>
</a>
</g>
</g>
<!-- Node9&#45;&gt;Node45 -->
<g id="edge38" class="edge">
<title>Node9&#45;&gt;Node45</title>
<path fill="none" stroke="#191970" d="M1282.6585,-332.6541C1256.7634,-322.4419 1221.6862,-308.6086 1198.5921,-299.5011"/>
<polygon fill="#191970" stroke="#191970" points="1281.5025,-335.9605 1292.0893,-336.3733 1284.0707,-329.4486 1281.5025,-335.9605"/>
</g>
<!-- Node47 -->
<g id="node34" class="node">
<title>Node47</title>
<g id="a_node34"><a xlink:href="spec_2cpu_8h.html" target="_top" xlink:title="ODP CPU API. ">
<polygon fill="#ffffff" stroke="#ff0000" points="1225,-280.5 1225,-299.5 1268,-299.5 1268,-280.5 1225,-280.5"/>
<text text-anchor="middle" x="1246.5" y="-287.5" font-family="Helvetica,sans-Serif" font-size="10.00" fill="#000000">cpu.h</text>
</a>
</g>
</g>
<!-- Node9&#45;&gt;Node47 -->
<g id="edge40" class="edge">
<title>Node9&#45;&gt;Node47</title>
<path fill="none" stroke="#191970" d="M1296.41,-329.928C1284.1747,-320.1397 1268.9493,-307.9595 1258.5533,-299.6427"/>
<polygon fill="#191970" stroke="#191970" points="1294.3118,-332.7316 1304.3069,-336.2455 1298.6847,-327.2655 1294.3118,-332.7316"/>
</g>
<!-- Node50 -->
<g id="node35" class="node">
<title>Node50</title>
<g id="a_node35"><a xlink:href="spec_2feature_8h.html" target="_top" xlink:title="ODP features. ">
<polygon fill="#ffffff" stroke="#ff0000" points="1286,-280.5 1286,-299.5 1347,-299.5 1347,-280.5 1286,-280.5"/>
<text text-anchor="middle" x="1316.5" y="-287.5" font-family="Helvetica,sans-Serif" font-size="10.00" fill="#000000">feature.h</text>
</a>
</g>
</g>
<!-- Node9&#45;&gt;Node50 -->
<g id="edge41" class="edge">
<title>Node9&#45;&gt;Node50</title>
<path fill="none" stroke="#191970" d="M1316.5,-326.1575C1316.5,-317.155 1316.5,-306.9199 1316.5,-299.6427"/>
<polygon fill="#191970" stroke="#191970" points="1313.0001,-326.2455 1316.5,-336.2455 1320.0001,-326.2456 1313.0001,-326.2455"/>
</g>
<!-- Node57 -->
<g id="node36" class="node">
<title>Node57</title>
<g id="a_node36"><a xlink:href="spec_2hash_8h.html" target="_top" xlink:title="ODP Hash functions. ">
<polygon fill="#ffffff" stroke="#ff0000" points="1365,-280.5 1365,-299.5 1414,-299.5 1414,-280.5 1365,-280.5"/>
<text text-anchor="middle" x="1389.5" y="-287.5" font-family="Helvetica,sans-Serif" font-size="10.00" fill="#000000">hash.h</text>
</a>
</g>
</g>
<!-- Node9&#45;&gt;Node57 -->
<g id="edge42" class="edge">
<title>Node9&#45;&gt;Node57</title>
<path fill="none" stroke="#191970" d="M1337.451,-329.928C1350.2107,-320.1397 1366.0885,-307.9595 1376.9301,-299.6427"/>
<polygon fill="#191970" stroke="#191970" points="1335.0196,-327.3819 1329.2156,-336.2455 1339.2803,-332.9359 1335.0196,-327.3819"/>
</g>
<!-- Node52 -->
<g id="node37" class="node">
<title>Node52</title>
<g id="a_node37"><a xlink:href="spec_2init_8h.html" target="_top" xlink:title="init.h">
<polygon fill="#ffffff" stroke="#ff0000" points="1432,-280.5 1432,-299.5 1473,-299.5 1473,-280.5 1432,-280.5"/>
<text text-anchor="middle" x="1452.5" y="-287.5" font-family="Helvetica,sans-Serif" font-size="10.00" fill="#000000">init.h</text>
</a>
</g>
</g>
<!-- Node9&#45;&gt;Node52 -->
<g id="edge43" class="edge">
<title>Node9&#45;&gt;Node52</title>
<path fill="none" stroke="#191970" d="M1349.2,-332.5353C1374.8223,-321.9849 1409.6965,-307.625 1431.6525,-298.5843"/>
<polygon fill="#191970" stroke="#191970" points="1347.7934,-329.3293 1339.8792,-336.3733 1350.4587,-335.8021 1347.7934,-329.3293"/>
</g>
<!-- Node59 -->
<g id="node38" class="node">
<title>Node59</title>
<g id="a_node38"><a xlink:href="spec_2pool_8h.html" target="_top" xlink:title="ODP pool. ">
<polygon fill="#ffffff" stroke="#ff0000" points="1512,-224.5 1512,-243.5 1559,-243.5 1559,-224.5 1512,-224.5"/>
<text text-anchor="middle" x="1535.5" y="-231.5" font-family="Helvetica,sans-Serif" font-size="10.00" fill="#000000">pool.h</text>
</a>
</g>
</g>
<!-- Node9&#45;&gt;Node59 -->
<g id="edge45" class="edge">
<title>Node9&#45;&gt;Node59</title>
<path fill="none" stroke="#191970" d="M1363.1752,-340.9188C1398.3315,-335.318 1446.4674,-323.7244 1482.5,-300 1504.8386,-285.2919 1522.2024,-258.1384 1530.3743,-243.6692"/>
<polygon fill="#191970" stroke="#191970" points="1362.5435,-337.4742 1353.1676,-342.4082 1363.5739,-344.3979 1362.5435,-337.4742"/>
</g>
<!-- Node62 -->
<g id="node39" class="node">
<title>Node62</title>
<g id="a_node39"><a xlink:href="pool__types_8h.html" target="_top" xlink:title="Type definitions for pools. ">
<polygon fill="#ffffff" stroke="#000000" points="1530,-280.5 1530,-299.5 1609,-299.5 1609,-280.5 1530,-280.5"/>
<text text-anchor="middle" x="1569.5" y="-287.5" font-family="Helvetica,sans-Serif" font-size="10.00" fill="#000000">pool_types.h</text>
</a>
</g>
</g>
<!-- Node9&#45;&gt;Node62 -->
<g id="edge46" class="edge">
<title>Node9&#45;&gt;Node62</title>
<path fill="none" stroke="#191970" d="M1362.8026,-335.7512C1410.596,-325.1724 1484.3803,-308.8407 1529.654,-298.8197"/>
<polygon fill="#191970" stroke="#191970" points="1362.0254,-332.3384 1353.0182,-337.9169 1363.5383,-339.173 1362.0254,-332.3384"/>
</g>
<!-- Node63 -->
<g id="node40" class="node">
<title>Node63</title>
<g id="a_node40"><a xlink:href="spec_2proto__stats__types_8h.html" target="_top" xlink:title="ODP proto stats types. ">
<polygon fill="#ffffff" stroke="#ff0000" points="1627,-280.5 1627,-299.5 1740,-299.5 1740,-280.5 1627,-280.5"/>
<text text-anchor="middle" x="1683.5" y="-287.5" font-family="Helvetica,sans-Serif" font-size="10.00" fill="#000000">proto_stats_types.h</text>
</a>
</g>
</g>
<!-- Node9&#45;&gt;Node63 -->
<g id="edge48" class="edge">
<title>Node9&#45;&gt;Node63</title>
<path fill="none" stroke="#191970" d="M1363.4136,-338.8764C1422.7984,-329.854 1528.2442,-313.8165 1618.5,-300 1621.2086,-299.5854 1623.9807,-299.1606 1626.7805,-298.7312"/>
<polygon fill="#191970" stroke="#191970" points="1362.5893,-335.4614 1353.2284,-340.4237 1363.6407,-342.382 1362.5893,-335.4614"/>
</g>
<!-- Node40 -->
<g id="node41" class="node">
<title>Node40</title>
<g id="a_node41"><a xlink:href="spec_2schedule_8h.html" target="_top" xlink:title="ODP schedule. ">
<polygon fill="#ffffff" stroke="#ff0000" points="1758,-280.5 1758,-299.5 1827,-299.5 1827,-280.5 1758,-280.5"/>
<text text-anchor="middle" x="1792.5" y="-287.5" font-family="Helvetica,sans-Serif" font-size="10.00" fill="#000000">schedule.h</text>
</a>
</g>
</g>
<!-- Node9&#45;&gt;Node40 -->
<g id="edge49" class="edge">
<title>Node9&#45;&gt;Node40</title>
<path fill="none" stroke="#191970" d="M1363.4044,-342.9116C1443.1375,-337.2392 1610.0307,-323.5344 1749.5,-300 1752.2208,-299.5409 1755.0266,-299.0132 1757.8399,-298.4452"/>
<polygon fill="#191970" stroke="#191970" points="1362.9328,-339.436 1353.2023,-343.6272 1363.4227,-346.4188 1362.9328,-339.436"/>
</g>
<!-- Node69 -->
<g id="node42" class="node">
<title>Node69</title>
<g id="a_node42"><a xlink:href="spec_2stash_8h.html" target="_top" xlink:title="ODP stash. ">
<polygon fill="#ffffff" stroke="#ff0000" points="1845.5,-280.5 1845.5,-299.5 1897.5,-299.5 1897.5,-280.5 1845.5,-280.5"/>
<text text-anchor="middle" x="1871.5" y="-287.5" font-family="Helvetica,sans-Serif" font-size="10.00" fill="#000000">stash.h</text>
</a>
</g>
</g>
<!-- Node9&#45;&gt;Node69 -->
<g id="edge50" class="edge">
<title>Node9&#45;&gt;Node69</title>
<path fill="none" stroke="#191970" d="M1363.116,-344.841C1454.6078,-341.915 1663.816,-332.0062 1836.5,-300 1839.3583,-299.4702 1842.3195,-298.808 1845.2543,-298.0779"/>
<polygon fill="#191970" stroke="#191970" points="1362.9592,-341.344 1353.0712,-345.149 1363.1739,-348.3407 1362.9592,-341.344"/>
</g>
<!-- Node71 -->
<g id="node43" class="node">
<title>Node71</title>
<g id="a_node43"><a xlink:href="spec_2std_8h.html" target="_top" xlink:title="ODP standard types and optimized C library functions. ">
<polygon fill="#ffffff" stroke="#ff0000" points="1916,-280.5 1916,-299.5 1957,-299.5 1957,-280.5 1916,-280.5"/>
<text text-anchor="middle" x="1936.5" y="-287.5" font-family="Helvetica,sans-Serif" font-size="10.00" fill="#000000">std.h</text>
</a>
</g>
</g>
<!-- Node9&#45;&gt;Node71 -->
<g id="edge51" class="edge">
<title>Node9&#45;&gt;Node71</title>
<path fill="none" stroke="#191970" d="M1363.3656,-343.8242C1483.959,-337.9889 1802.7831,-321.0007 1906.5,-300 1909.5133,-299.3899 1912.6438,-298.5682 1915.6961,-297.6566"/>
<polygon fill="#191970" stroke="#191970" points="1363.1573,-340.3301 1353.3367,-344.3058 1363.4931,-347.322 1363.1573,-340.3301"/>
</g>
<!-- Node73 -->
<g id="node44" class="node">
<title>Node73</title>
<g id="a_node44"><a xlink:href="spec_2threshold_8h.html" target="_top" xlink:title="ODP threshold descriptor. ">
<polygon fill="#ffffff" stroke="#ff0000" points="1975,-280.5 1975,-299.5 2046,-299.5 2046,-280.5 1975,-280.5"/>
<text text-anchor="middle" x="2010.5" y="-287.5" font-family="Helvetica,sans-Serif" font-size="10.00" fill="#000000">threshold.h</text>
</a>
</g>
</g>
<!-- Node9&#45;&gt;Node73 -->
<g id="edge52" class="edge">
<title>Node9&#45;&gt;Node73</title>
<path fill="none" stroke="#191970" d="M1363.1536,-345.1406C1470.3048,-342.635 1742.0444,-333.2494 1966.5,-300 1969.1347,-299.6097 1971.8457,-299.1467 1974.5662,-298.6372"/>
<polygon fill="#191970" stroke="#191970" points="1362.9235,-341.6448 1353.0047,-345.3686 1363.0808,-348.643 1362.9235,-341.6448"/>
</g>
<!-- Node75 -->
<g id="node45" class="node">
<title>Node75</title>
<g id="a_node45"><a xlink:href="spec_2thrmask_8h.html" target="_top" xlink:title="ODP thread masks. ">
<polygon fill="#ffffff" stroke="#ff0000" points="2064.5,-280.5 2064.5,-299.5 2130.5,-299.5 2130.5,-280.5 2064.5,-280.5"/>
<text text-anchor="middle" x="2097.5" y="-287.5" font-family="Helvetica,sans-Serif" font-size="10.00" fill="#000000">thrmask.h</text>
</a>
</g>
</g>
<!-- Node9&#45;&gt;Node75 -->
<g id="edge53" class="edge">
<title>Node9&#45;&gt;Node75</title>
<path fill="none" stroke="#191970" d="M1363.1353,-344.1464C1503.5479,-338.3996 1920.9183,-320.0586 2055.5,-300 2058.3172,-299.5801 2061.2234,-299.0646 2064.1302,-298.491"/>
<polygon fill="#191970" stroke="#191970" points="1362.9722,-340.6501 1353.1229,-344.554 1363.257,-347.6443 1362.9722,-340.6501"/>
</g>
<!-- Node77 -->
<g id="node46" class="node">
<title>Node77</title>
<g id="a_node46"><a xlink:href="system__info_8h.html" target="_top" xlink:title="ODP system information. ">
<polygon fill="#ffffff" stroke="#000000" points="2148.5,-280.5 2148.5,-299.5 2234.5,-299.5 2234.5,-280.5 2148.5,-280.5"/>
<text text-anchor="middle" x="2191.5" y="-287.5" font-family="Helvetica,sans-Serif" font-size="10.00" fill="#000000">system_info.h</text>
</a>
</g>
</g>
<!-- Node9&#45;&gt;Node77 -->
<g id="edge55" class="edge">
<title>Node9&#45;&gt;Node77</title>
<path fill="none" stroke="#191970" d="M1363.2231,-345.5795C1489.0912,-343.974 1845.6032,-336.3063 2139.5,-300 2142.4196,-299.6393 2145.4219,-299.2126 2148.4404,-298.7419"/>
<polygon fill="#191970" stroke="#191970" points="1363.1181,-342.0804 1353.1611,-345.701 1363.2027,-349.0799 1363.1181,-342.0804"/>
</g>
<!-- Node78 -->
<g id="node47" class="node">
<title>Node78</title>
<g id="a_node47"><a xlink:href="time_8h.html" target="_top" xlink:title="ODP time. ">
<polygon fill="#ffffff" stroke="#ff0000" points="712.5,-280.5 712.5,-299.5 760.5,-299.5 760.5,-280.5 712.5,-280.5"/>
<text text-anchor="middle" x="736.5" y="-287.5" font-family="Helvetica,sans-Serif" font-size="10.00" fill="#000000">time.h</text>
</a>
</g>
</g>
<!-- Node9&#45;&gt;Node78 -->
<g id="edge56" class="edge">
<title>Node9&#45;&gt;Node78</title>
<path fill="none" stroke="#191970" d="M1269.67,-344.744C1175.3253,-341.6171 955.9097,-331.3262 774.5,-300 770.0633,-299.2339 765.3884,-298.1981 760.8932,-297.0826"/>
<polygon fill="#191970" stroke="#191970" points="1269.6376,-348.2447 1279.7444,-345.0662 1269.8614,-341.2483 1269.6376,-348.2447"/>
</g>
<!-- Node79 -->
<g id="node48" class="node">
<title>Node79</title>
<g id="a_node48"><a xlink:href="timer_8h.html" target="_top" xlink:title="ODP timer service. ">
<polygon fill="#ffffff" stroke="#000000" points="2253,-280.5 2253,-299.5 2304,-299.5 2304,-280.5 2253,-280.5"/>
<text text-anchor="middle" x="2278.5" y="-287.5" font-family="Helvetica,sans-Serif" font-size="10.00" fill="#000000">timer.h</text>
</a>
</g>
</g>
<!-- Node9&#45;&gt;Node79 -->
<g id="edge58" class="edge">
<title>Node9&#45;&gt;Node79</title>
<path fill="none" stroke="#191970" d="M1363.3376,-345.0914C1526.7932,-341.6994 2071.3151,-328.4838 2243.5,-300 2246.4927,-299.5049 2249.5936,-298.8439 2252.6569,-298.0967"/>
<polygon fill="#191970" stroke="#191970" points="1363.0562,-341.5963 1353.1301,-345.3006 1363.1998,-348.5948 1363.0562,-341.5963"/>
</g>
<!-- Node80 -->
<g id="node49" class="node">
<title>Node80</title>
<g id="a_node49"><a xlink:href="strong__types_8h.html" target="_top" xlink:title="ODP Strong Types. ">
<polygon fill="#ffffff" stroke="#000000" points="2322,-280.5 2322,-299.5 2411,-299.5 2411,-280.5 2322,-280.5"/>
<text text-anchor="middle" x="2366.5" y="-287.5" font-family="Helvetica,sans-Serif" font-size="10.00" fill="#000000">strong_types.h</text>
</a>
</g>
</g>
<!-- Node9&#45;&gt;Node80 -->
<g id="edge59" class="edge">
<title>Node9&#45;&gt;Node80</title>
<path fill="none" stroke="#191970" d="M1363.3409,-344.7128C1534.5026,-339.8732 2125.8555,-321.9213 2313.5,-300 2316.1971,-299.6849 2318.9633,-299.3129 2321.7483,-298.9009"/>
<polygon fill="#191970" stroke="#191970" points="1363.0478,-341.2196 1353.1502,-344.9995 1363.2447,-348.2168 1363.0478,-341.2196"/>
</g>
<!-- Node22 -->
<g id="node18" class="node">
<title>Node22</title>
<g id="a_node18"><a xlink:href="spec_2ipsec_8h.html" target="_top" xlink:title="ODP IPSEC API. ">
<polygon fill="#ffffff" stroke="#ff0000" points="741,-.5 741,-19.5 792,-19.5 792,-.5 741,-.5"/>
<text text-anchor="middle" x="766.5" y="-7.5" font-family="Helvetica,sans-Serif" font-size="10.00" fill="#000000">ipsec.h</text>
</a>
</g>
</g>
<!-- Node21&#45;&gt;Node22 -->
<g id="edge19" class="edge">
<title>Node21&#45;&gt;Node22</title>
<path fill="none" stroke="#191970" d="M714.451,-49.928C727.2107,-40.1397 743.0885,-27.9595 753.9301,-19.6427"/>
<polygon fill="#191970" stroke="#191970" points="712.0196,-47.3819 706.2156,-56.2455 716.2803,-52.9359 712.0196,-47.3819"/>
</g>
<!-- Node24&#45;&gt;Node22 -->
<g id="edge21" class="edge">
<title>Node24&#45;&gt;Node22</title>
<path fill="none" stroke="#191970" d="M903.9513,-158.3881C901.4452,-144.5507 896.6126,-126.0509 887.5,-112 859.9922,-69.585 809.5181,-35.4482 783.3023,-19.6013"/>
<polygon fill="#191970" stroke="#191970" points="900.4998,-158.9709 905.4996,-168.3118 907.4161,-157.8918 900.4998,-158.9709"/>
</g>
<!-- Node26 -->
<g id="node21" class="node">
<title>Node26</title>
<g id="a_node21"><a xlink:href="spec_2comp_8h.html" target="_top" xlink:title="ODP Compression. ">
<polygon fill="#ffffff" stroke="#ff0000" points="855,-224.5 855,-243.5 908,-243.5 908,-224.5 855,-224.5"/>
<text text-anchor="middle" x="881.5" y="-231.5" font-family="Helvetica,sans-Serif" font-size="10.00" fill="#000000">comp.h</text>
</a>
</g>
</g>
<!-- Node25&#45;&gt;Node26 -->
<g id="edge23" class="edge">
<title>Node25&#45;&gt;Node26</title>
<path fill="none" stroke="#191970" d="M883.437,-270.1575C882.9547,-261.155 882.4064,-250.9199 882.0166,-243.6427"/>
<polygon fill="#191970" stroke="#191970" points="879.9474,-270.4471 883.9774,-280.2455 886.9374,-270.0726 879.9474,-270.4471"/>
</g>
<!-- Node28 -->
<g id="node22" class="node">
<title>Node28</title>
<g id="a_node22"><a xlink:href="spec_2crypto_8h.html" target="_top" xlink:title="ODP crypto. ">
<polygon fill="#ffffff" stroke="#000000" points="997.5,-224.5 997.5,-243.5 1053.5,-243.5 1053.5,-224.5 997.5,-224.5"/>
<text text-anchor="middle" x="1025.5" y="-231.5" font-family="Helvetica,sans-Serif" font-size="10.00" fill="#000000">crypto.h</text>
</a>
</g>
</g>
<!-- Node25&#45;&gt;Node28 -->
<g id="edge24" class="edge">
<title>Node25&#45;&gt;Node28</title>
<path fill="none" stroke="#191970" d="M918.1032,-276.6541C943.8159,-266.4419 978.6461,-252.6086 1001.5775,-243.5011"/>
<polygon fill="#191970" stroke="#191970" points="916.7407,-273.4292 908.7388,-280.3733 919.3245,-279.9349 916.7407,-273.4292"/>
</g>
<!-- Node29 -->
<g id="node23" class="node">
<title>Node29</title>
<g id="a_node23"><a xlink:href="spec_2event_8h.html" target="_top" xlink:title="ODP event. ">
<polygon fill="#ffffff" stroke="#ff0000" points="926,-224.5 926,-243.5 979,-243.5 979,-224.5 926,-224.5"/>
<text text-anchor="middle" x="952.5" y="-231.5" font-family="Helvetica,sans-Serif" font-size="10.00" fill="#000000">event.h</text>
</a>
</g>
</g>
<!-- Node25&#45;&gt;Node29 -->
<g id="edge26" class="edge">
<title>Node25&#45;&gt;Node29</title>
<path fill="none" stroke="#191970" d="M904.3596,-273.645C916.1858,-263.9058 930.7892,-251.8795 940.791,-243.6427"/>
<polygon fill="#191970" stroke="#191970" points="901.839,-271.1867 896.3447,-280.2455 906.289,-276.5902 901.839,-271.1867"/>
</g>
<!-- Node25&#45;&gt;Node42 -->
<g id="edge27" class="edge">
<title>Node25&#45;&gt;Node42</title>
<path fill="none" stroke="#191970" d="M923.9525,-280.4357C966.4848,-270.1249 1033.7818,-253.8105 1076.2394,-243.5177"/>
<polygon fill="#191970" stroke="#191970" points="923.1202,-277.0361 914.2263,-282.7936 924.7694,-283.839 923.1202,-277.0361"/>
</g>
<!-- Node35 -->
<g id="node25" class="node">
<title>Node35</title>
<g id="a_node25"><a xlink:href="spec_2packet__io_8h.html" target="_top" xlink:title="ODP Packet IO. ">
<polygon fill="#ffffff" stroke="#000000" points="687,-224.5 687,-243.5 760,-243.5 760,-224.5 687,-224.5"/>
<text text-anchor="middle" x="723.5" y="-231.5" font-family="Helvetica,sans-Serif" font-size="10.00" fill="#000000">packet_io.h</text>
</a>
</g>
</g>
<!-- Node25&#45;&gt;Node35 -->
<g id="edge28" class="edge">
<title>Node25&#45;&gt;Node35</title>
<path fill="none" stroke="#191970" d="M847.2889,-277.057C817.8241,-266.8084 777.3459,-252.729 750.8157,-243.5011"/>
<polygon fill="#191970" stroke="#191970" points="846.2283,-280.3937 856.8231,-280.3733 848.528,-273.7822 846.2283,-280.3937"/>
</g>
<!-- Node28&#45;&gt;Node24 -->
<g id="edge25" class="edge">
<title>Node28&#45;&gt;Node24</title>
<path fill="none" stroke="#191970" d="M995.9856,-220.1109C974.4062,-209.9559 945.7024,-196.4482 926.6899,-187.5011"/>
<polygon fill="#191970" stroke="#191970" points="994.5047,-223.2821 1005.0432,-224.3733 997.4853,-216.9484 994.5047,-223.2821"/>
</g>
<!-- Node35&#45;&gt;Node36 -->
<g id="edge29" class="edge">
<title>Node35&#45;&gt;Node36</title>
<path fill="none" stroke="#191970" d="M723.5,-214.1575C723.5,-205.155 723.5,-194.9199 723.5,-187.6427"/>
<polygon fill="#191970" stroke="#191970" points="720.0001,-214.2455 723.5,-224.2455 727.0001,-214.2456 720.0001,-214.2455"/>
</g>
<!-- Node36&#45;&gt;Node22 -->
<g id="edge32" class="edge">
<title>Node36&#45;&gt;Node22</title>
<path fill="none" stroke="#191970" d="M734.3509,-159.4992C738.7262,-151.3129 743.4502,-141.4212 746.5,-132 759.5883,-91.5684 764.3947,-40.6983 765.9008,-19.7232"/>
<polygon fill="#191970" stroke="#191970" points="731.1479,-158.0562 729.323,-168.4927 737.2579,-161.4721 731.1479,-158.0562"/>
</g>
<!-- Node37 -->
<g id="node27" class="node">
<title>Node37</title>
<g id="a_node27"><a xlink:href="spec_2classification_8h.html" target="_top" xlink:title="ODP classification descriptor. ">
<polygon fill="#ffffff" stroke="#000000" points="649,-112.5 649,-131.5 738,-131.5 738,-112.5 649,-112.5"/>
<text text-anchor="middle" x="693.5" y="-119.5" font-family="Helvetica,sans-Serif" font-size="10.00" fill="#000000">classification.h</text>
</a>
</g>
</g>
<!-- Node36&#45;&gt;Node37 -->
<g id="edge30" class="edge">
<title>Node36&#45;&gt;Node37</title>
<path fill="none" stroke="#191970" d="M713.502,-159.3372C708.5324,-150.0605 702.7356,-139.2398 698.6657,-131.6427"/>
<polygon fill="#191970" stroke="#191970" points="710.4669,-161.0835 718.2744,-168.2455 716.6373,-157.7779 710.4669,-161.0835"/>
</g>
<!-- Node36&#45;&gt;Node38 -->
<g id="edge33" class="edge">
<title>Node36&#45;&gt;Node38</title>
<path fill="none" stroke="#191970" d="M752.0792,-163.8368C772.5058,-153.7139 799.4362,-140.3679 817.3281,-131.5011"/>
<polygon fill="#191970" stroke="#191970" points="750.3313,-160.7968 742.9254,-168.3733 753.4396,-167.0688 750.3313,-160.7968"/>
</g>
<!-- Node37&#45;&gt;Node21 -->
<g id="edge31" class="edge">
<title>Node37&#45;&gt;Node21</title>
<path fill="none" stroke="#191970" d="M693.5,-102.1575C693.5,-93.155 693.5,-82.9199 693.5,-75.6427"/>
<polygon fill="#191970" stroke="#191970" points="690.0001,-102.2455 693.5,-112.2455 697.0001,-102.2456 690.0001,-102.2455"/>
</g>
<!-- Node33 -->
<g id="node31" class="node">
<title>Node33</title>
<g id="a_node31"><a xlink:href="spec_2packet__io__stats_8h.html" target="_top" xlink:title="ODP Packet IO statistics. ">
<polygon fill="#ffffff" stroke="#ff0000" points="1177.5,-224.5 1177.5,-243.5 1279.5,-243.5 1279.5,-224.5 1177.5,-224.5"/>
<text text-anchor="middle" x="1228.5" y="-231.5" font-family="Helvetica,sans-Serif" font-size="10.00" fill="#000000">packet_io_stats.h</text>
</a>
</g>
</g>
<!-- Node32&#45;&gt;Node33 -->
<g id="edge37" class="edge">
<title>Node32&#45;&gt;Node33</title>
<path fill="none" stroke="#191970" d="M1128.5965,-276.3833C1152.6035,-266.1985 1184.8259,-252.5284 1206.1045,-243.5011"/>
<polygon fill="#191970" stroke="#191970" points="1127.0305,-273.2457 1119.1916,-280.3733 1129.7644,-279.6897 1127.0305,-273.2457"/>
</g>
<!-- Node46 -->
<g id="node33" class="node">
<title>Node46</title>
<g id="a_node33"><a xlink:href="chksum_8h.html" target="_top" xlink:title="ODP checksum functions. ">
<polygon fill="#ffffff" stroke="#000000" points="1297.5,-224.5 1297.5,-243.5 1361.5,-243.5 1361.5,-224.5 1297.5,-224.5"/>
<text text-anchor="middle" x="1329.5" y="-231.5" font-family="Helvetica,sans-Serif" font-size="10.00" fill="#000000">chksum.h</text>
</a>
</g>
</g>
<!-- Node45&#45;&gt;Node46 -->
<g id="edge39" class="edge">
<title>Node45&#45;&gt;Node46</title>
<path fill="none" stroke="#191970" d="M1210.6949,-276.9231C1239.0297,-266.686 1277.7718,-252.6889 1303.2022,-243.5011"/>
<polygon fill="#191970" stroke="#191970" points="1209.3612,-273.6835 1201.1454,-280.3733 1211.7398,-280.267 1209.3612,-273.6835"/>
</g>
<!-- Node62&#45;&gt;Node59 -->
<g id="edge47" class="edge">
<title>Node62&#45;&gt;Node59</title>
<path fill="none" stroke="#191970" d="M1558.3465,-271.6296C1552.6753,-262.2887 1546.0155,-251.3197 1541.3545,-243.6427"/>
<polygon fill="#191970" stroke="#191970" points="1555.3961,-273.5141 1563.5777,-280.2455 1561.3796,-269.8812 1555.3961,-273.5141"/>
</g>
<!-- Node78&#45;&gt;Node35 -->
<g id="edge57" class="edge">
<title>Node78&#45;&gt;Node35</title>
<path fill="none" stroke="#191970" d="M731.9625,-270.4538C729.8561,-261.3803 727.4464,-250.9998 725.7385,-243.6427"/>
<polygon fill="#191970" stroke="#191970" points="728.5649,-271.2961 734.2356,-280.2455 735.3835,-269.7131 728.5649,-271.2961"/>
</g>
</g>
</svg>
