<?xml version="1.0" encoding="UTF-8" standalone="no"?>
<!DOCTYPE svg PUBLIC "-//W3C//DTD SVG 1.1//EN"
 "http://www.w3.org/Graphics/SVG/1.1/DTD/svg11.dtd">
<!-- Generated by graphviz version 2.40.1 (20161225.0304)
 -->
<!-- Title: event.h Pages: 1 -->
<svg width="1202pt" height="744pt"
 viewBox="0.00 0.00 1202.00 744.00" xmlns="http://www.w3.org/2000/svg" xmlns:xlink="http://www.w3.org/1999/xlink">
<g id="graph0" class="graph" transform="scale(1 1) rotate(0) translate(4 740)">
<title>event.h</title>
<polygon fill="#ffffff" stroke="transparent" points="-4,4 -4,-740 1198,-740 1198,4 -4,4"/>
<!-- Node0 -->
<g id="node1" class="node">
<title>Node0</title>
<polygon fill="#bfbfbf" stroke="#000000" points="457.5,-716.5 457.5,-735.5 510.5,-735.5 510.5,-716.5 457.5,-716.5"/>
<text text-anchor="middle" x="484" y="-723.5" font-family="Helvetica,sans-Serif" font-size="10.00" fill="#000000">event.h</text>
</g>
<!-- Node1 -->
<g id="node2" class="node">
<title>Node1</title>
<polygon fill="#ffffff" stroke="#bfbfbf" points="28,-548.5 28,-567.5 138,-567.5 138,-548.5 28,-548.5"/>
<text text-anchor="middle" x="83" y="-555.5" font-family="Helvetica,sans-Serif" font-size="10.00" fill="#000000">odp/api/abi/event.h</text>
</g>
<!-- Node0&#45;&gt;Node1 -->
<g id="edge1" class="edge">
<title>Node0&#45;&gt;Node1</title>
<path fill="none" stroke="#191970" d="M461.2916,-716.4862C393.7649,-688.1958 194.0342,-604.5181 115.3661,-571.5599"/>
<polygon fill="#191970" stroke="#191970" points="116.5322,-568.2537 105.9564,-567.6177 113.8272,-574.71 116.5322,-568.2537"/>
</g>
<!-- Node2 -->
<g id="node3" class="node">
<title>Node2</title>
<g id="a_node3"><a xlink:href="spec_2event_8h.html" target="_top" xlink:title="ODP event. ">
<polygon fill="#ffffff" stroke="#000000" points="492,-660.5 492,-679.5 610,-679.5 610,-660.5 492,-660.5"/>
<text text-anchor="middle" x="551" y="-667.5" font-family="Helvetica,sans-Serif" font-size="10.00" fill="#000000">odp/api/spec/event.h</text>
</a>
</g>
</g>
<!-- Node0&#45;&gt;Node2 -->
<g id="edge2" class="edge">
<title>Node0&#45;&gt;Node2</title>
<path fill="none" stroke="#191970" d="M495.6705,-716.2455C505.5661,-707.9746 519.9627,-695.9416 531.5901,-686.2232"/>
<polygon fill="#191970" stroke="#191970" points="534.035,-688.7413 539.4632,-679.6427 529.5458,-683.3703 534.035,-688.7413"/>
</g>
<!-- Node3 -->
<g id="node4" class="node">
<title>Node3</title>
<polygon fill="#ffffff" stroke="#bfbfbf" points="943.5,-.5 943.5,-19.5 1064.5,-19.5 1064.5,-.5 943.5,-.5"/>
<text text-anchor="middle" x="1004" y="-7.5" font-family="Helvetica,sans-Serif" font-size="10.00" fill="#000000">odp/visibility_begin.h</text>
</g>
<!-- Node2&#45;&gt;Node3 -->
<g id="edge3" class="edge">
<title>Node2&#45;&gt;Node3</title>
<path fill="none" stroke="#191970" d="M610.0527,-665.8999C769.0092,-654.0781 1194,-616.958 1194,-558 1194,-558 1194,-558 1194,-122 1194,-64.2347 1128.0182,-35.6568 1073.8206,-21.9265"/>
<polygon fill="#191970" stroke="#191970" points="1074.3974,-18.4656 1063.8564,-19.5319 1072.7617,-25.2718 1074.3974,-18.4656"/>
</g>
<!-- Node4 -->
<g id="node5" class="node">
<title>Node4</title>
<g id="a_node5"><a xlink:href="packet_8h.html" target="_top" xlink:title="ODP packet descriptor. ">
<polygon fill="#ffffff" stroke="#000000" points="569,-604.5 569,-623.5 667,-623.5 667,-604.5 569,-604.5"/>
<text text-anchor="middle" x="618" y="-611.5" font-family="Helvetica,sans-Serif" font-size="10.00" fill="#000000">odp/api/packet.h</text>
</a>
</g>
</g>
<!-- Node2&#45;&gt;Node4 -->
<g id="edge4" class="edge">
<title>Node2&#45;&gt;Node4</title>
<path fill="none" stroke="#191970" d="M562.6705,-660.2455C572.5661,-651.9746 586.9627,-639.9416 598.5901,-630.2232"/>
<polygon fill="#191970" stroke="#191970" points="601.035,-632.7413 606.4632,-623.6427 596.5458,-627.3703 601.035,-632.7413"/>
</g>
<!-- Node12 -->
<g id="node13" class="node">
<title>Node12</title>
<polygon fill="#ffffff" stroke="#bfbfbf" points="439,-.5 439,-19.5 551,-19.5 551,-.5 439,-.5"/>
<text text-anchor="middle" x="495" y="-7.5" font-family="Helvetica,sans-Serif" font-size="10.00" fill="#000000">odp/visibility_end.h</text>
</g>
<!-- Node2&#45;&gt;Node12 -->
<g id="edge61" class="edge">
<title>Node2&#45;&gt;Node12</title>
<path fill="none" stroke="#191970" d="M491.7718,-664.149C349.4617,-649.295 0,-607.7536 0,-558 0,-558 0,-558 0,-122 0,-83.8166 21.3115,-73.9739 55,-56 87.1903,-38.8254 314.0036,-21.8036 428.7887,-14.1698"/>
<polygon fill="#191970" stroke="#191970" points="429.1194,-17.6556 438.8671,-13.5045 428.6583,-10.6708 429.1194,-17.6556"/>
</g>
<!-- Node4&#45;&gt;Node1 -->
<g id="edge16" class="edge">
<title>Node4&#45;&gt;Node1</title>
<path fill="none" stroke="#191970" d="M568.9427,-609.8974C483.916,-602.6215 303.716,-586.4723 152,-568 150.8886,-567.8647 149.7674,-567.7261 148.6385,-567.5846"/>
<polygon fill="#191970" stroke="#191970" points="148.6996,-564.0632 138.332,-566.2453 147.7975,-571.0048 148.6996,-564.0632"/>
</g>
<!-- Node5 -->
<g id="node6" class="node">
<title>Node5</title>
<g id="a_node6"><a xlink:href="std__types_8h.html" target="_top" xlink:title="Standard C language types and definitions for ODP. ">
<polygon fill="#ffffff" stroke="#000000" points="190,-235.5 190,-254.5 302,-254.5 302,-235.5 190,-235.5"/>
<text text-anchor="middle" x="246" y="-242.5" font-family="Helvetica,sans-Serif" font-size="10.00" fill="#000000">odp/api/std_types.h</text>
</a>
</g>
</g>
<!-- Node4&#45;&gt;Node5 -->
<g id="edge5" class="edge">
<title>Node4&#45;&gt;Node5</title>
<path fill="none" stroke="#191970" d="M568.9018,-608.3633C468.3627,-595.8889 243.8123,-562.9542 188,-512 163.2447,-489.3995 164,-474.0202 164,-440.5 164,-440.5 164,-440.5 164,-373.5 164,-335.8735 162.2781,-322.4063 183,-291 191.5824,-277.9925 205.1781,-267.3845 217.5462,-259.647"/>
<polygon fill="#191970" stroke="#191970" points="219.4029,-262.6155 226.2459,-254.527 215.8524,-256.5828 219.4029,-262.6155"/>
</g>
<!-- Node13 -->
<g id="node14" class="node">
<title>Node13</title>
<polygon fill="#ffffff" stroke="#bfbfbf" points="646,-548.5 646,-567.5 776,-567.5 776,-548.5 646,-548.5"/>
<text text-anchor="middle" x="711" y="-555.5" font-family="Helvetica,sans-Serif" font-size="10.00" fill="#000000">odp/api/abi/packet_io.h</text>
</g>
<!-- Node4&#45;&gt;Node13 -->
<g id="edge17" class="edge">
<title>Node4&#45;&gt;Node13</title>
<path fill="none" stroke="#191970" d="M634.1994,-604.2455C648.6018,-595.5731 669.8732,-582.7645 686.3799,-572.825"/>
<polygon fill="#191970" stroke="#191970" points="688.225,-575.7996 694.9863,-567.6427 684.614,-569.8028 688.225,-575.7996"/>
</g>
<!-- Node14 -->
<g id="node15" class="node">
<title>Node14</title>
<polygon fill="#ffffff" stroke="#bfbfbf" points="700.5,-425.5 700.5,-455.5 807.5,-455.5 807.5,-425.5 700.5,-425.5"/>
<text text-anchor="start" x="708.5" y="-443.5" font-family="Helvetica,sans-Serif" font-size="10.00" fill="#000000">odp/api/abi/packet</text>
<text text-anchor="middle" x="754" y="-432.5" font-family="Helvetica,sans-Serif" font-size="10.00" fill="#000000">_types.h</text>
</g>
<!-- Node4&#45;&gt;Node14 -->
<g id="edge18" class="edge">
<title>Node4&#45;&gt;Node14</title>
<path fill="none" stroke="#191970" d="M618.4258,-604.3868C619.5143,-590.4736 623.3707,-564.5797 637,-548 659.216,-520.975 680.9807,-535.3858 707,-512 721.7727,-498.7225 733.9355,-479.8093 742.1846,-464.7697"/>
<polygon fill="#191970" stroke="#191970" points="745.4786,-466.0249 747.0284,-455.544 739.2809,-462.7709 745.4786,-466.0249"/>
</g>
<!-- Node15 -->
<g id="node16" class="node">
<title>Node15</title>
<polygon fill="#ffffff" stroke="#bfbfbf" points="794,-548.5 794,-567.5 910,-567.5 910,-548.5 794,-548.5"/>
<text text-anchor="middle" x="852" y="-555.5" font-family="Helvetica,sans-Serif" font-size="10.00" fill="#000000">odp/api/abi/packet.h</text>
</g>
<!-- Node4&#45;&gt;Node15 -->
<g id="edge19" class="edge">
<title>Node4&#45;&gt;Node15</title>
<path fill="none" stroke="#191970" d="M657.9602,-604.4369C697.8392,-594.8932 759.2139,-580.2052 802.2328,-569.9101"/>
<polygon fill="#191970" stroke="#191970" points="803.2939,-573.2551 812.2047,-567.5237 801.6646,-566.4473 803.2939,-573.2551"/>
</g>
<!-- Node16 -->
<g id="node17" class="node">
<title>Node16</title>
<polygon fill="#ffffff" stroke="#bfbfbf" points="928,-548.5 928,-567.5 1038,-567.5 1038,-548.5 928,-548.5"/>
<text text-anchor="middle" x="983" y="-555.5" font-family="Helvetica,sans-Serif" font-size="10.00" fill="#000000">odp/api/abi/buffer.h</text>
</g>
<!-- Node4&#45;&gt;Node16 -->
<g id="edge20" class="edge">
<title>Node4&#45;&gt;Node16</title>
<path fill="none" stroke="#191970" d="M667.0152,-606.5608C724.5571,-597.816 823.1559,-582.796 917.8113,-568.1801"/>
<polygon fill="#191970" stroke="#191970" points="918.4955,-571.616 927.8438,-566.6301 917.4267,-564.698 918.4955,-571.616"/>
</g>
<!-- Node17 -->
<g id="node18" class="node">
<title>Node17</title>
<polygon fill="#ffffff" stroke="#bfbfbf" points="1056,-548.5 1056,-567.5 1160,-567.5 1160,-548.5 1056,-548.5"/>
<text text-anchor="middle" x="1108" y="-555.5" font-family="Helvetica,sans-Serif" font-size="10.00" fill="#000000">odp/api/abi/pool.h</text>
</g>
<!-- Node4&#45;&gt;Node17 -->
<g id="edge21" class="edge">
<title>Node4&#45;&gt;Node17</title>
<path fill="none" stroke="#191970" d="M667.0034,-609.6407C744.9217,-602.5128 902.0885,-587.3365 1045.4857,-568.1447"/>
<polygon fill="#191970" stroke="#191970" points="1046.3426,-571.5609 1055.7853,-566.756 1045.4072,-564.6237 1046.3426,-571.5609"/>
</g>
<!-- Node18 -->
<g id="node19" class="node">
<title>Node18</title>
<g id="a_node19"><a xlink:href="spec_2packet_8h.html" target="_top" xlink:title="ODP packet descriptor. ">
<polygon fill="#ffffff" stroke="#000000" points="453.5,-548.5 453.5,-567.5 576.5,-567.5 576.5,-548.5 453.5,-548.5"/>
<text text-anchor="middle" x="515" y="-555.5" font-family="Helvetica,sans-Serif" font-size="10.00" fill="#000000">odp/api/spec/packet.h</text>
</a>
</g>
</g>
<!-- Node4&#45;&gt;Node18 -->
<g id="edge22" class="edge">
<title>Node4&#45;&gt;Node18</title>
<path fill="none" stroke="#191970" d="M600.0588,-604.2455C583.96,-595.4928 560.1121,-582.527 541.7609,-572.5496"/>
<polygon fill="#191970" stroke="#191970" points="543.1929,-569.3444 532.7356,-567.6427 539.8493,-575.4942 543.1929,-569.3444"/>
</g>
<!-- Node6 -->
<g id="node7" class="node">
<title>Node6</title>
<polygon fill="#ffffff" stroke="#bfbfbf" points="105,-174 105,-193 235,-193 235,-174 105,-174"/>
<text text-anchor="middle" x="170" y="-181" font-family="Helvetica,sans-Serif" font-size="10.00" fill="#000000">odp/api/abi/std_types.h</text>
</g>
<!-- Node5&#45;&gt;Node6 -->
<g id="edge6" class="edge">
<title>Node5&#45;&gt;Node6</title>
<path fill="none" stroke="#191970" d="M234.125,-235.3906C222.3703,-225.8786 204.1514,-211.1357 190.1328,-199.7917"/>
<polygon fill="#191970" stroke="#191970" points="192.0178,-196.8146 182.0424,-193.2449 187.6144,-202.2562 192.0178,-196.8146"/>
</g>
<!-- Node7 -->
<g id="node8" class="node">
<title>Node7</title>
<g id="a_node8"><a xlink:href="spec_2std__types_8h.html" target="_top" xlink:title="Standard C language types and definitions for ODP. ">
<polygon fill="#ffffff" stroke="#000000" points="253.5,-174 253.5,-193 390.5,-193 390.5,-174 253.5,-174"/>
<text text-anchor="middle" x="322" y="-181" font-family="Helvetica,sans-Serif" font-size="10.00" fill="#000000">odp/api/spec/std_types.h</text>
</a>
</g>
</g>
<!-- Node5&#45;&gt;Node7 -->
<g id="edge7" class="edge">
<title>Node5&#45;&gt;Node7</title>
<path fill="none" stroke="#191970" d="M257.875,-235.3906C269.6297,-225.8786 287.8486,-211.1357 301.8672,-199.7917"/>
<polygon fill="#191970" stroke="#191970" points="304.3856,-202.2562 309.9576,-193.2449 299.9822,-196.8146 304.3856,-202.2562"/>
</g>
<!-- Node7&#45;&gt;Node3 -->
<g id="edge8" class="edge">
<title>Node7&#45;&gt;Node3</title>
<path fill="none" stroke="#191970" d="M333.3924,-173.8422C344.7844,-163.9166 362.5042,-147.7325 376,-132 402.8121,-100.7444 393.2802,-76.4914 429,-56 471.7864,-31.4547 789.2915,-17.4441 933.3172,-12.2913"/>
<polygon fill="#191970" stroke="#191970" points="933.511,-15.7867 943.3811,-11.9356 933.2637,-8.7911 933.511,-15.7867"/>
</g>
<!-- Node8 -->
<g id="node9" class="node">
<title>Node8</title>
<polygon fill="#ffffff" stroke="#bfbfbf" points="207.5,-112.5 207.5,-131.5 260.5,-131.5 260.5,-112.5 207.5,-112.5"/>
<text text-anchor="middle" x="234" y="-119.5" font-family="Helvetica,sans-Serif" font-size="10.00" fill="#000000">stdint.h</text>
</g>
<!-- Node7&#45;&gt;Node8 -->
<g id="edge9" class="edge">
<title>Node7&#45;&gt;Node8</title>
<path fill="none" stroke="#191970" d="M308.25,-173.8906C294.3009,-164.1421 272.4902,-148.8994 256.1103,-137.4521"/>
<polygon fill="#191970" stroke="#191970" points="257.8551,-134.4015 247.6534,-131.5419 253.8452,-140.1392 257.8551,-134.4015"/>
</g>
<!-- Node9 -->
<g id="node10" class="node">
<title>Node9</title>
<g id="a_node10"><a xlink:href="align_8h.html" target="_top" xlink:title="ODP alignments. ">
<polygon fill="#ffffff" stroke="#000000" points="278.5,-112.5 278.5,-131.5 367.5,-131.5 367.5,-112.5 278.5,-112.5"/>
<text text-anchor="middle" x="323" y="-119.5" font-family="Helvetica,sans-Serif" font-size="10.00" fill="#000000">odp/api/align.h</text>
</a>
</g>
</g>
<!-- Node7&#45;&gt;Node9 -->
<g id="edge10" class="edge">
<title>Node7&#45;&gt;Node9</title>
<path fill="none" stroke="#191970" d="M322.1563,-173.8906C322.2949,-165.3657 322.5018,-152.6392 322.676,-141.9235"/>
<polygon fill="#191970" stroke="#191970" points="326.1784,-141.8005 322.8415,-131.7449 319.1793,-141.6866 326.1784,-141.8005"/>
</g>
<!-- Node7&#45;&gt;Node12 -->
<g id="edge15" class="edge">
<title>Node7&#45;&gt;Node12</title>
<path fill="none" stroke="#191970" d="M281.9687,-173.986C212.8306,-155.7798 83.026,-112.7261 133,-56 152.1871,-34.2205 329.4205,-20.0498 428.5839,-13.7556"/>
<polygon fill="#191970" stroke="#191970" points="429.0458,-17.2336 438.8081,-13.1169 428.6093,-10.2472 429.0458,-17.2336"/>
</g>
<!-- Node10 -->
<g id="node11" class="node">
<title>Node10</title>
<polygon fill="#ffffff" stroke="#bfbfbf" points="142.5,-56.5 142.5,-75.5 249.5,-75.5 249.5,-56.5 142.5,-56.5"/>
<text text-anchor="middle" x="196" y="-63.5" font-family="Helvetica,sans-Serif" font-size="10.00" fill="#000000">odp/api/abi/align.h</text>
</g>
<!-- Node9&#45;&gt;Node10 -->
<g id="edge11" class="edge">
<title>Node9&#45;&gt;Node10</title>
<path fill="none" stroke="#191970" d="M301.1679,-112.3733C280.6897,-103.3435 249.8601,-89.7494 226.8681,-79.6111"/>
<polygon fill="#191970" stroke="#191970" points="228.1093,-76.3333 217.5472,-75.5011 225.285,-82.7383 228.1093,-76.3333"/>
</g>
<!-- Node11 -->
<g id="node12" class="node">
<title>Node11</title>
<g id="a_node12"><a xlink:href="spec_2align_8h.html" target="_top" xlink:title="ODP alignments. ">
<polygon fill="#ffffff" stroke="#000000" points="268,-56.5 268,-75.5 382,-75.5 382,-56.5 268,-56.5"/>
<text text-anchor="middle" x="325" y="-63.5" font-family="Helvetica,sans-Serif" font-size="10.00" fill="#000000">odp/api/spec/align.h</text>
</a>
</g>
</g>
<!-- Node9&#45;&gt;Node11 -->
<g id="edge12" class="edge">
<title>Node9&#45;&gt;Node11</title>
<path fill="none" stroke="#191970" d="M323.3484,-112.2455C323.6093,-104.9382 323.9752,-94.6944 324.2963,-85.7046"/>
<polygon fill="#191970" stroke="#191970" points="327.7964,-85.7613 324.6556,-75.6427 320.8008,-85.5113 327.7964,-85.7613"/>
</g>
<!-- Node11&#45;&gt;Node3 -->
<g id="edge13" class="edge">
<title>Node11&#45;&gt;Node3</title>
<path fill="none" stroke="#191970" d="M382.3116,-57.6051C386.9384,-57.0258 391.5447,-56.4818 396,-56 589.9094,-35.031 819.6394,-20.4178 933.1844,-13.8735"/>
<polygon fill="#191970" stroke="#191970" points="933.6907,-17.3503 943.4742,-13.2842 933.2904,-10.3617 933.6907,-17.3503"/>
</g>
<!-- Node11&#45;&gt;Node12 -->
<g id="edge14" class="edge">
<title>Node11&#45;&gt;Node12</title>
<path fill="none" stroke="#191970" d="M354.224,-56.3733C382.4925,-47.0613 425.4965,-32.8953 456.5344,-22.671"/>
<polygon fill="#191970" stroke="#191970" points="457.7544,-25.9542 466.1573,-19.5011 455.5643,-19.3056 457.7544,-25.9542"/>
</g>
<!-- Node18&#45;&gt;Node3 -->
<g id="edge23" class="edge">
<title>Node18&#45;&gt;Node3</title>
<path fill="none" stroke="#191970" d="M519.2115,-548.095C525.7499,-533.8182 539.6364,-507.4759 559,-492 593.9467,-464.0696 614.1472,-478.1774 653,-456 672.2299,-445.0235 671.8385,-434.1534 692,-425 885.8032,-337.0131 1156,-519.3412 1156,-306.5 1156,-306.5 1156,-306.5 1156,-122 1156,-68.8635 1095.0521,-38.1127 1050.3436,-22.7035"/>
<polygon fill="#191970" stroke="#191970" points="1051.388,-19.3626 1040.795,-19.5566 1049.1969,-26.0108 1051.388,-19.3626"/>
</g>
<!-- Node18&#45;&gt;Node12 -->
<g id="edge60" class="edge">
<title>Node18&#45;&gt;Node12</title>
<path fill="none" stroke="#191970" d="M477.5706,-548.3949C365.1223,-517.056 38,-406.7066 38,-183.5 38,-183.5 38,-183.5 38,-122 38,-84.6561 57.3772,-74.1748 90,-56 146.4962,-24.5249 328.7786,-14.5456 428.4263,-11.412"/>
<polygon fill="#191970" stroke="#191970" points="428.7954,-14.9026 438.686,-11.1044 428.5855,-7.9058 428.7954,-14.9026"/>
</g>
<!-- Node19 -->
<g id="node20" class="node">
<title>Node19</title>
<g id="a_node20"><a xlink:href="proto__stats__types_8h.html" target="_top" xlink:title="ODP proto stats types. ">
<polygon fill="#ffffff" stroke="#000000" points="345,-358.5 345,-388.5 455,-388.5 455,-358.5 345,-358.5"/>
<text text-anchor="start" x="353" y="-376.5" font-family="Helvetica,sans-Serif" font-size="10.00" fill="#000000">odp/api/proto_stats</text>
<text text-anchor="middle" x="400" y="-365.5" font-family="Helvetica,sans-Serif" font-size="10.00" fill="#000000">_types.h</text>
</a>
</g>
</g>
<!-- Node18&#45;&gt;Node19 -->
<g id="edge24" class="edge">
<title>Node18&#45;&gt;Node19</title>
<path fill="none" stroke="#191970" d="M508.979,-548.3402C491.492,-520.285 440.3314,-438.2056 414.8195,-397.2757"/>
<polygon fill="#191970" stroke="#191970" points="417.7569,-395.3714 409.4969,-388.7363 411.8163,-399.0742 417.7569,-395.3714"/>
</g>
<!-- Node22 -->
<g id="node23" class="node">
<title>Node22</title>
<g id="a_node23"><a xlink:href="time_8h.html" target="_top" xlink:title="ODP time. ">
<polygon fill="#ffffff" stroke="#000000" points="464.5,-297 464.5,-316 551.5,-316 551.5,-297 464.5,-297"/>
<text text-anchor="middle" x="508" y="-304" font-family="Helvetica,sans-Serif" font-size="10.00" fill="#000000">odp/api/time.h</text>
</a>
</g>
</g>
<!-- Node18&#45;&gt;Node22 -->
<g id="edge30" class="edge">
<title>Node18&#45;&gt;Node22</title>
<path fill="none" stroke="#191970" d="M514.7341,-548.448C513.7033,-511.411 509.9576,-376.8321 508.5445,-326.0638"/>
<polygon fill="#191970" stroke="#191970" points="512.0431,-325.9602 508.2661,-316.0615 505.0458,-326.1551 512.0431,-325.9602"/>
</g>
<!-- Node25 -->
<g id="node26" class="node">
<title>Node25</title>
<g id="a_node26"><a xlink:href="packet__types_8h.html" target="_top" xlink:title="ODP packet. ">
<polygon fill="#ffffff" stroke="#000000" points="568,-492.5 568,-511.5 698,-511.5 698,-492.5 568,-492.5"/>
<text text-anchor="middle" x="633" y="-499.5" font-family="Helvetica,sans-Serif" font-size="10.00" fill="#000000">odp/api/packet_types.h</text>
</a>
</g>
</g>
<!-- Node18&#45;&gt;Node25 -->
<g id="edge36" class="edge">
<title>Node18&#45;&gt;Node25</title>
<path fill="none" stroke="#191970" d="M535.2849,-548.3733C554.1421,-539.4241 582.446,-525.9917 603.7455,-515.8835"/>
<polygon fill="#191970" stroke="#191970" points="605.4461,-518.9506 612.9798,-511.5011 602.4449,-512.6266 605.4461,-518.9506"/>
</g>
<!-- Node20 -->
<g id="node21" class="node">
<title>Node20</title>
<polygon fill="#ffffff" stroke="#bfbfbf" points="318,-291.5 318,-321.5 446,-321.5 446,-291.5 318,-291.5"/>
<text text-anchor="start" x="326" y="-309.5" font-family="Helvetica,sans-Serif" font-size="10.00" fill="#000000">odp/api/abi/proto_stats</text>
<text text-anchor="middle" x="382" y="-298.5" font-family="Helvetica,sans-Serif" font-size="10.00" fill="#000000">_types.h</text>
</g>
<!-- Node19&#45;&gt;Node20 -->
<g id="edge25" class="edge">
<title>Node19&#45;&gt;Node20</title>
<path fill="none" stroke="#191970" d="M395.9155,-358.2967C393.7752,-350.3299 391.0999,-340.3718 388.6684,-331.3213"/>
<polygon fill="#191970" stroke="#191970" points="392.0431,-330.3926 386.0683,-321.6432 385.2828,-332.2088 392.0431,-330.3926"/>
</g>
<!-- Node21 -->
<g id="node22" class="node">
<title>Node21</title>
<g id="a_node22"><a xlink:href="spec_2proto__stats__types_8h.html" target="_top" xlink:title="ODP proto stats types. ">
<polygon fill="#ffffff" stroke="#000000" points="192.5,-291.5 192.5,-321.5 299.5,-321.5 299.5,-291.5 192.5,-291.5"/>
<text text-anchor="start" x="200.5" y="-309.5" font-family="Helvetica,sans-Serif" font-size="10.00" fill="#000000">odp/api/spec/proto</text>
<text text-anchor="middle" x="246" y="-298.5" font-family="Helvetica,sans-Serif" font-size="10.00" fill="#000000">_stats_types.h</text>
</a>
</g>
</g>
<!-- Node19&#45;&gt;Node21 -->
<g id="edge26" class="edge">
<title>Node19&#45;&gt;Node21</title>
<path fill="none" stroke="#191970" d="M365.4394,-358.4639C343.1273,-348.7567 313.9013,-336.0415 289.9446,-325.6188"/>
<polygon fill="#191970" stroke="#191970" points="291.2774,-322.3818 280.7113,-321.6017 288.4848,-328.8006 291.2774,-322.3818"/>
</g>
<!-- Node21&#45;&gt;Node3 -->
<g id="edge27" class="edge">
<title>Node21&#45;&gt;Node3</title>
<path fill="none" stroke="#191970" d="M274.4261,-291.4374C304.6897,-275.8268 354.2857,-251.4517 399,-235 592.7793,-163.7029 647.5439,-165.3944 847,-112 908.2299,-95.6088 939.62,-120.2542 985,-76 997.3806,-63.9265 1001.8315,-44.35 1003.3638,-29.6468"/>
<polygon fill="#191970" stroke="#191970" points="1006.8632,-29.7725 1004.0496,-19.5581 999.8793,-29.2977 1006.8632,-29.7725"/>
</g>
<!-- Node21&#45;&gt;Node5 -->
<g id="edge28" class="edge">
<title>Node21&#45;&gt;Node5</title>
<path fill="none" stroke="#191970" d="M246,-291.2977C246,-283.3834 246,-273.6043 246,-265.0759"/>
<polygon fill="#191970" stroke="#191970" points="249.5001,-264.8469 246,-254.8469 242.5001,-264.847 249.5001,-264.8469"/>
</g>
<!-- Node21&#45;&gt;Node12 -->
<g id="edge29" class="edge">
<title>Node21&#45;&gt;Node12</title>
<path fill="none" stroke="#191970" d="M192.2109,-292.1716C142.4063,-275.2616 76,-241.7864 76,-183.5 76,-183.5 76,-183.5 76,-122 76,-86.9903 89.2923,-74.5238 119,-56 169.225,-24.6829 334.7134,-14.6638 428.543,-11.475"/>
<polygon fill="#191970" stroke="#191970" points="428.9015,-14.9654 438.7834,-11.1444 428.6756,-7.969 428.9015,-14.9654"/>
</g>
<!-- Node22&#45;&gt;Node5 -->
<g id="edge31" class="edge">
<title>Node22&#45;&gt;Node5</title>
<path fill="none" stroke="#191970" d="M476.7087,-296.9667C469.5971,-294.9067 462.0584,-292.8067 455,-291 404.0181,-277.9507 345.4695,-265.2593 303.335,-256.5246"/>
<polygon fill="#191970" stroke="#191970" points="304.0312,-253.0946 293.5302,-254.5021 302.6169,-259.9503 304.0312,-253.0946"/>
</g>
<!-- Node23 -->
<g id="node24" class="node">
<title>Node23</title>
<polygon fill="#ffffff" stroke="#bfbfbf" points="408.5,-235.5 408.5,-254.5 513.5,-254.5 513.5,-235.5 408.5,-235.5"/>
<text text-anchor="middle" x="461" y="-242.5" font-family="Helvetica,sans-Serif" font-size="10.00" fill="#000000">odp/api/abi/time.h</text>
</g>
<!-- Node22&#45;&gt;Node23 -->
<g id="edge32" class="edge">
<title>Node22&#45;&gt;Node23</title>
<path fill="none" stroke="#191970" d="M500.6563,-296.8906C493.7298,-287.8273 483.174,-274.0149 474.694,-262.9188"/>
<polygon fill="#191970" stroke="#191970" points="477.3003,-260.565 468.4473,-254.7449 471.7385,-264.8155 477.3003,-260.565"/>
</g>
<!-- Node24 -->
<g id="node25" class="node">
<title>Node24</title>
<g id="a_node25"><a xlink:href="spec_2time_8h.html" target="_top" xlink:title="ODP time. ">
<polygon fill="#ffffff" stroke="#000000" points="438.5,-56.5 438.5,-75.5 551.5,-75.5 551.5,-56.5 438.5,-56.5"/>
<text text-anchor="middle" x="495" y="-63.5" font-family="Helvetica,sans-Serif" font-size="10.00" fill="#000000">odp/api/spec/time.h</text>
</a>
</g>
</g>
<!-- Node22&#45;&gt;Node24 -->
<g id="edge33" class="edge">
<title>Node22&#45;&gt;Node24</title>
<path fill="none" stroke="#191970" d="M511.4731,-296.7863C514.935,-286.5493 520.0138,-269.878 522,-255 530.2716,-193.0404 511.7034,-119.7999 501.351,-85.5246"/>
<polygon fill="#191970" stroke="#191970" points="504.6451,-84.331 498.323,-75.8291 497.9633,-86.4178 504.6451,-84.331"/>
</g>
<!-- Node24&#45;&gt;Node3 -->
<g id="edge34" class="edge">
<title>Node24&#45;&gt;Node3</title>
<path fill="none" stroke="#191970" d="M551.9072,-59.7391C645.3317,-49.4606 831.0014,-29.0332 932.9275,-17.8194"/>
<polygon fill="#191970" stroke="#191970" points="933.5683,-21.2701 943.1255,-16.6974 932.8027,-14.3121 933.5683,-21.2701"/>
</g>
<!-- Node24&#45;&gt;Node12 -->
<g id="edge35" class="edge">
<title>Node24&#45;&gt;Node12</title>
<path fill="none" stroke="#191970" d="M495,-56.2455C495,-48.9382 495,-38.6944 495,-29.7046"/>
<polygon fill="#191970" stroke="#191970" points="498.5001,-29.6426 495,-19.6427 491.5001,-29.6427 498.5001,-29.6426"/>
</g>
<!-- Node25&#45;&gt;Node14 -->
<g id="edge37" class="edge">
<title>Node25&#45;&gt;Node14</title>
<path fill="none" stroke="#191970" d="M651.9063,-492.3906C668.8128,-483.7976 694.1185,-470.9356 715.3054,-460.1671"/>
<polygon fill="#191970" stroke="#191970" points="717.0713,-463.1957 724.4001,-455.5446 713.8996,-456.9555 717.0713,-463.1957"/>
</g>
<!-- Node26 -->
<g id="node27" class="node">
<title>Node26</title>
<g id="a_node27"><a xlink:href="spec_2packet__types_8h.html" target="_top" xlink:title="ODP packet types. ">
<polygon fill="#ffffff" stroke="#000000" points="530,-425.5 530,-455.5 644,-455.5 644,-425.5 530,-425.5"/>
<text text-anchor="start" x="538" y="-443.5" font-family="Helvetica,sans-Serif" font-size="10.00" fill="#000000">odp/api/spec/packet</text>
<text text-anchor="middle" x="587" y="-432.5" font-family="Helvetica,sans-Serif" font-size="10.00" fill="#000000">_types.h</text>
</a>
</g>
</g>
<!-- Node25&#45;&gt;Node26 -->
<g id="edge38" class="edge">
<title>Node25&#45;&gt;Node26</title>
<path fill="none" stroke="#191970" d="M625.8125,-492.3906C620.0481,-484.6839 611.7154,-473.5434 604.2473,-463.5589"/>
<polygon fill="#191970" stroke="#191970" points="607.0452,-461.4561 598.2529,-455.5446 601.4397,-465.6488 607.0452,-461.4561"/>
</g>
<!-- Node26&#45;&gt;Node3 -->
<g id="edge39" class="edge">
<title>Node26&#45;&gt;Node3</title>
<path fill="none" stroke="#191970" d="M644.0783,-427.6029C781.2229,-396.4206 1118,-318.615 1118,-306.5 1118,-306.5 1118,-306.5 1118,-122 1118,-75.4628 1069.0617,-41.828 1035.3136,-24.1659"/>
<polygon fill="#191970" stroke="#191970" points="1036.7576,-20.9746 1026.251,-19.6105 1033.6138,-27.2289 1036.7576,-20.9746"/>
</g>
<!-- Node26&#45;&gt;Node12 -->
<g id="edge59" class="edge">
<title>Node26&#45;&gt;Node12</title>
<path fill="none" stroke="#191970" d="M585.6834,-425.2406C583.6556,-400.3844 580,-349.5969 580,-306.5 580,-306.5 580,-306.5 580,-122 580,-91.3494 577.9231,-80.864 560,-56 550.6976,-43.0952 536.6251,-32.4976 523.9502,-24.7404"/>
<polygon fill="#191970" stroke="#191970" points="525.4657,-21.5739 515.0561,-19.6016 521.9637,-27.6349 525.4657,-21.5739"/>
</g>
<!-- Node26&#45;&gt;Node19 -->
<g id="edge40" class="edge">
<title>Node26&#45;&gt;Node19</title>
<path fill="none" stroke="#191970" d="M545.0335,-425.4639C517.4608,-415.5849 481.1928,-402.5905 451.8228,-392.0675"/>
<polygon fill="#191970" stroke="#191970" points="452.744,-388.6798 442.1495,-388.6017 450.3829,-395.2696 452.744,-388.6798"/>
</g>
<!-- Node27 -->
<g id="node28" class="node">
<title>Node27</title>
<g id="a_node28"><a xlink:href="queue__types_8h.html" target="_top" xlink:title="ODP queue. ">
<polygon fill="#ffffff" stroke="#000000" points="617.5,-364 617.5,-383 744.5,-383 744.5,-364 617.5,-364"/>
<text text-anchor="middle" x="681" y="-371" font-family="Helvetica,sans-Serif" font-size="10.00" fill="#000000">odp/api/queue_types.h</text>
</a>
</g>
</g>
<!-- Node26&#45;&gt;Node27 -->
<g id="edge41" class="edge">
<title>Node26&#45;&gt;Node27</title>
<path fill="none" stroke="#191970" d="M608.3301,-425.2967C623.5445,-414.4524 643.9357,-399.9182 659.2453,-389.006"/>
<polygon fill="#191970" stroke="#191970" points="661.4828,-391.7093 667.5945,-383.055 657.4198,-386.0091 661.4828,-391.7093"/>
</g>
<!-- Node28 -->
<g id="node29" class="node">
<title>Node28</title>
<polygon fill="#ffffff" stroke="#bfbfbf" points="608.5,-297 608.5,-316 753.5,-316 753.5,-297 608.5,-297"/>
<text text-anchor="middle" x="681" y="-304" font-family="Helvetica,sans-Serif" font-size="10.00" fill="#000000">odp/api/abi/queue_types.h</text>
</g>
<!-- Node27&#45;&gt;Node28 -->
<g id="edge42" class="edge">
<title>Node27&#45;&gt;Node28</title>
<path fill="none" stroke="#191970" d="M681,-363.9005C681,-354.149 681,-338.7597 681,-326.3695"/>
<polygon fill="#191970" stroke="#191970" points="684.5001,-326.0816 681,-316.0817 677.5001,-326.0817 684.5001,-326.0816"/>
</g>
<!-- Node29 -->
<g id="node30" class="node">
<title>Node29</title>
<g id="a_node30"><a xlink:href="spec_2queue__types_8h.html" target="_top" xlink:title="ODP queue types. ">
<polygon fill="#ffffff" stroke="#000000" points="771.5,-291.5 771.5,-321.5 882.5,-321.5 882.5,-291.5 771.5,-291.5"/>
<text text-anchor="start" x="779.5" y="-309.5" font-family="Helvetica,sans-Serif" font-size="10.00" fill="#000000">odp/api/spec/queue</text>
<text text-anchor="middle" x="827" y="-298.5" font-family="Helvetica,sans-Serif" font-size="10.00" fill="#000000">_types.h</text>
</a>
</g>
</g>
<!-- Node27&#45;&gt;Node29 -->
<g id="edge43" class="edge">
<title>Node27&#45;&gt;Node29</title>
<path fill="none" stroke="#191970" d="M701.9182,-363.9005C723.5011,-353.9961 757.7576,-338.2756 784.9677,-325.7888"/>
<polygon fill="#191970" stroke="#191970" points="786.6371,-328.8737 794.266,-321.5218 783.7175,-322.5116 786.6371,-328.8737"/>
</g>
<!-- Node29&#45;&gt;Node3 -->
<g id="edge44" class="edge">
<title>Node29&#45;&gt;Node3</title>
<path fill="none" stroke="#191970" d="M882.5219,-291.4917C956.9966,-269.6919 1080,-227.0891 1080,-183.5 1080,-183.5 1080,-183.5 1080,-122 1080,-82.2361 1046.7929,-46.1042 1024.2792,-26.177"/>
<polygon fill="#191970" stroke="#191970" points="1026.4317,-23.4128 1016.5499,-19.5918 1021.8921,-28.7412 1026.4317,-23.4128"/>
</g>
<!-- Node29&#45;&gt;Node12 -->
<g id="edge58" class="edge">
<title>Node29&#45;&gt;Node12</title>
<path fill="none" stroke="#191970" d="M771.2569,-292.6573C723.2969,-280.347 660.3736,-263.0818 651,-255 624.4929,-232.1459 618,-218.4991 618,-183.5 618,-183.5 618,-183.5 618,-122 618,-90.7875 615.0992,-79.001 594,-56 580.0355,-40.7768 560.015,-30.1778 541.6271,-23.025"/>
<polygon fill="#191970" stroke="#191970" points="542.795,-19.7255 532.201,-19.5924 540.3998,-26.303 542.795,-19.7255"/>
</g>
<!-- Node30 -->
<g id="node31" class="node">
<title>Node30</title>
<g id="a_node31"><a xlink:href="schedule__types_8h.html" target="_top" xlink:title="ODP schedule. ">
<polygon fill="#ffffff" stroke="#000000" points="797,-235.5 797,-254.5 937,-254.5 937,-235.5 797,-235.5"/>
<text text-anchor="middle" x="867" y="-242.5" font-family="Helvetica,sans-Serif" font-size="10.00" fill="#000000">odp/api/schedule_types.h</text>
</a>
</g>
</g>
<!-- Node29&#45;&gt;Node30 -->
<g id="edge45" class="edge">
<title>Node29&#45;&gt;Node30</title>
<path fill="none" stroke="#191970" d="M836.8876,-291.2977C842.3822,-282.8498 849.2586,-272.2773 855.0527,-263.369"/>
<polygon fill="#191970" stroke="#191970" points="858.0772,-265.1381 860.5955,-254.8469 852.2092,-261.3215 858.0772,-265.1381"/>
</g>
<!-- Node35 -->
<g id="node36" class="node">
<title>Node35</title>
<g id="a_node36"><a xlink:href="deprecated_8h.html" target="_top" xlink:title="Control deprecated API definitions. ">
<polygon fill="#ffffff" stroke="#000000" points="659.5,-235.5 659.5,-254.5 778.5,-254.5 778.5,-235.5 659.5,-235.5"/>
<text text-anchor="middle" x="719" y="-242.5" font-family="Helvetica,sans-Serif" font-size="10.00" fill="#000000">odp/api/deprecated.h</text>
</a>
</g>
</g>
<!-- Node29&#45;&gt;Node35 -->
<g id="edge54" class="edge">
<title>Node29&#45;&gt;Node35</title>
<path fill="none" stroke="#191970" d="M800.5802,-291.4554C783.5086,-281.734 761.4098,-269.15 744.5191,-259.5317"/>
<polygon fill="#191970" stroke="#191970" points="746.158,-256.4373 735.7362,-254.5303 742.6941,-262.5202 746.158,-256.4373"/>
</g>
<!-- Node31 -->
<g id="node32" class="node">
<title>Node31</title>
<polygon fill="#ffffff" stroke="#bfbfbf" points="934.5,-168.5 934.5,-198.5 1051.5,-198.5 1051.5,-168.5 934.5,-168.5"/>
<text text-anchor="start" x="942.5" y="-186.5" font-family="Helvetica,sans-Serif" font-size="10.00" fill="#000000">odp/api/abi/schedule</text>
<text text-anchor="middle" x="993" y="-175.5" font-family="Helvetica,sans-Serif" font-size="10.00" fill="#000000">_types.h</text>
</g>
<!-- Node30&#45;&gt;Node31 -->
<g id="edge46" class="edge">
<title>Node30&#45;&gt;Node31</title>
<path fill="none" stroke="#191970" d="M886.6875,-235.3906C904.3716,-226.7591 930.8806,-213.8202 953.003,-203.0224"/>
<polygon fill="#191970" stroke="#191970" points="954.7255,-206.0763 962.1769,-198.5446 951.655,-199.7857 954.7255,-206.0763"/>
</g>
<!-- Node32 -->
<g id="node33" class="node">
<title>Node32</title>
<g id="a_node33"><a xlink:href="spec_2schedule__types_8h.html" target="_top" xlink:title="ODP schedule types. ">
<polygon fill="#ffffff" stroke="#000000" points="791.5,-168.5 791.5,-198.5 916.5,-198.5 916.5,-168.5 791.5,-168.5"/>
<text text-anchor="start" x="799.5" y="-186.5" font-family="Helvetica,sans-Serif" font-size="10.00" fill="#000000">odp/api/spec/schedule</text>
<text text-anchor="middle" x="854" y="-175.5" font-family="Helvetica,sans-Serif" font-size="10.00" fill="#000000">_types.h</text>
</a>
</g>
</g>
<!-- Node30&#45;&gt;Node32 -->
<g id="edge47" class="edge">
<title>Node30&#45;&gt;Node32</title>
<path fill="none" stroke="#191970" d="M864.9688,-235.3906C863.4374,-228.1463 861.2648,-217.8679 859.2566,-208.3676"/>
<polygon fill="#191970" stroke="#191970" points="862.6727,-207.6045 857.1802,-198.5446 855.824,-209.0523 862.6727,-207.6045"/>
</g>
<!-- Node32&#45;&gt;Node3 -->
<g id="edge48" class="edge">
<title>Node32&#45;&gt;Node3</title>
<path fill="none" stroke="#191970" d="M904.2477,-168.3844C945.1724,-152.8427 999.1479,-124.0075 1018,-76 1024.0047,-60.7089 1019.228,-42.3629 1013.6809,-28.8989"/>
<polygon fill="#191970" stroke="#191970" points="1016.8055,-27.3158 1009.4547,-19.6859 1010.443,-30.2345 1016.8055,-27.3158"/>
</g>
<!-- Node32&#45;&gt;Node12 -->
<g id="edge53" class="edge">
<title>Node32&#45;&gt;Node12</title>
<path fill="none" stroke="#191970" d="M852.4637,-168.4654C848.8274,-141.2845 837.0854,-84.1814 801,-56 764.7339,-27.6775 639.9795,-16.6619 561.4047,-12.4731"/>
<polygon fill="#191970" stroke="#191970" points="561.2776,-8.9622 551.1126,-11.9492 560.9217,-15.9531 561.2776,-8.9622"/>
</g>
<!-- Node33 -->
<g id="node34" class="node">
<title>Node33</title>
<g id="a_node34"><a xlink:href="support_8h.html" target="_top" xlink:title="ODP support API &#45; platform specific header. ">
<polygon fill="#ffffff" stroke="#000000" points="855.5,-112.5 855.5,-131.5 956.5,-131.5 956.5,-112.5 855.5,-112.5"/>
<text text-anchor="middle" x="906" y="-119.5" font-family="Helvetica,sans-Serif" font-size="10.00" fill="#000000">odp/api/support.h</text>
</a>
</g>
</g>
<!-- Node32&#45;&gt;Node33 -->
<g id="edge49" class="edge">
<title>Node32&#45;&gt;Node33</title>
<path fill="none" stroke="#191970" d="M866.8539,-168.2977C874.2224,-159.5831 883.5026,-148.6075 891.1777,-139.5302"/>
<polygon fill="#191970" stroke="#191970" points="893.8902,-141.743 897.6741,-131.8469 888.5448,-137.2233 893.8902,-141.743"/>
</g>
<!-- Node34 -->
<g id="node35" class="node">
<title>Node34</title>
<g id="a_node35"><a xlink:href="spec_2support_8h.html" target="_top" xlink:title="ODP support API. ">
<polygon fill="#ffffff" stroke="#000000" points="848.5,-56.5 848.5,-75.5 975.5,-75.5 975.5,-56.5 848.5,-56.5"/>
<text text-anchor="middle" x="912" y="-63.5" font-family="Helvetica,sans-Serif" font-size="10.00" fill="#000000">odp/api/spec/support.h</text>
</a>
</g>
</g>
<!-- Node33&#45;&gt;Node34 -->
<g id="edge50" class="edge">
<title>Node33&#45;&gt;Node34</title>
<path fill="none" stroke="#191970" d="M907.0451,-112.2455C907.828,-104.9382 908.9256,-94.6944 909.8888,-85.7046"/>
<polygon fill="#191970" stroke="#191970" points="913.3815,-85.9587 910.9669,-75.6427 906.4214,-85.2129 913.3815,-85.9587"/>
</g>
<!-- Node34&#45;&gt;Node3 -->
<g id="edge51" class="edge">
<title>Node34&#45;&gt;Node3</title>
<path fill="none" stroke="#191970" d="M928.0252,-56.2455C942.1408,-47.6534 962.9263,-35.0014 979.1899,-25.1018"/>
<polygon fill="#191970" stroke="#191970" points="981.4363,-27.8319 988.1585,-19.6427 977.7966,-21.8525 981.4363,-27.8319"/>
</g>
<!-- Node34&#45;&gt;Node12 -->
<g id="edge52" class="edge">
<title>Node34&#45;&gt;Node12</title>
<path fill="none" stroke="#191970" d="M848.2127,-57.4338C770.5896,-47.0096 640.1625,-29.4942 561.3835,-18.9148"/>
<polygon fill="#191970" stroke="#191970" points="561.4711,-15.3952 551.0942,-17.533 560.5394,-22.333 561.4711,-15.3952"/>
</g>
<!-- Node36 -->
<g id="node37" class="node">
<title>Node36</title>
<g id="a_node37"><a xlink:href="spec_2deprecated_8h.html" target="_top" xlink:title="Macro for deprecated API definitions. ">
<polygon fill="#ffffff" stroke="#000000" points="646.5,-56.5 646.5,-75.5 791.5,-75.5 791.5,-56.5 646.5,-56.5"/>
<text text-anchor="middle" x="719" y="-63.5" font-family="Helvetica,sans-Serif" font-size="10.00" fill="#000000">odp/api/spec/deprecated.h</text>
</a>
</g>
</g>
<!-- Node35&#45;&gt;Node36 -->
<g id="edge55" class="edge">
<title>Node35&#45;&gt;Node36</title>
<path fill="none" stroke="#191970" d="M719,-235.3762C719,-207.2097 719,-124.5126 719,-86.0713"/>
<polygon fill="#191970" stroke="#191970" points="722.5001,-85.6714 719,-75.6714 715.5001,-85.6714 722.5001,-85.6714"/>
</g>
<!-- Node36&#45;&gt;Node3 -->
<g id="edge56" class="edge">
<title>Node36&#45;&gt;Node3</title>
<path fill="none" stroke="#191970" d="M767.6694,-56.4369C816.9573,-46.7522 893.2048,-31.7703 945.6926,-21.4569"/>
<polygon fill="#191970" stroke="#191970" points="946.3938,-24.8861 955.5313,-19.5237 945.0441,-18.0175 946.3938,-24.8861"/>
</g>
<!-- Node36&#45;&gt;Node12 -->
<g id="edge57" class="edge">
<title>Node36&#45;&gt;Node12</title>
<path fill="none" stroke="#191970" d="M680.7475,-56.4369C642.6533,-46.9133 584.0687,-32.2672 542.9013,-21.9753"/>
<polygon fill="#191970" stroke="#191970" points="543.645,-18.5536 533.0947,-19.5237 541.9472,-25.3446 543.645,-18.5536"/>
</g>
</g>
</svg>
