<?xml version="1.0" encoding="UTF-8" standalone="no"?>
<!DOCTYPE svg PUBLIC "-//W3C//DTD SVG 1.1//EN"
 "http://www.w3.org/Graphics/SVG/1.1/DTD/svg11.dtd">
<!-- Generated by graphviz version 2.40.1 (20161225.0304)
 -->
<!-- Title: packet_types.h Pages: 1 -->
<svg width="917pt" height="520pt"
 viewBox="0.00 0.00 917.00 520.00" xmlns="http://www.w3.org/2000/svg" xmlns:xlink="http://www.w3.org/1999/xlink">
<g id="graph0" class="graph" transform="scale(1 1) rotate(0) translate(4 516)">
<title>packet_types.h</title>
<polygon fill="#ffffff" stroke="transparent" points="-4,4 -4,-516 913,-516 913,4 -4,4"/>
<!-- Node0 -->
<g id="node1" class="node">
<title>Node0</title>
<polygon fill="#bfbfbf" stroke="#000000" points="312.5,-492.5 312.5,-511.5 403.5,-511.5 403.5,-492.5 312.5,-492.5"/>
<text text-anchor="middle" x="358" y="-499.5" font-family="Helvetica,sans-Serif" font-size="10.00" fill="#000000">packet_types.h</text>
</g>
<!-- Node1 -->
<g id="node2" class="node">
<title>Node1</title>
<polygon fill="#ffffff" stroke="#bfbfbf" points="240.5,-425.5 240.5,-455.5 347.5,-455.5 347.5,-425.5 240.5,-425.5"/>
<text text-anchor="start" x="248.5" y="-443.5" font-family="Helvetica,sans-Serif" font-size="10.00" fill="#000000">odp/api/abi/packet</text>
<text text-anchor="middle" x="294" y="-432.5" font-family="Helvetica,sans-Serif" font-size="10.00" fill="#000000">_types.h</text>
</g>
<!-- Node0&#45;&gt;Node1 -->
<g id="edge1" class="edge">
<title>Node0&#45;&gt;Node1</title>
<path fill="none" stroke="#191970" d="M348,-492.3906C339.7394,-484.4527 327.6878,-472.8718 317.0645,-462.6635"/>
<polygon fill="#191970" stroke="#191970" points="319.2918,-459.9498 309.6562,-455.5446 314.4416,-464.9971 319.2918,-459.9498"/>
</g>
<!-- Node2 -->
<g id="node3" class="node">
<title>Node2</title>
<g id="a_node3"><a xlink:href="spec_2packet__types_8h.html" target="_top" xlink:title="ODP packet types. ">
<polygon fill="#ffffff" stroke="#000000" points="366,-425.5 366,-455.5 480,-455.5 480,-425.5 366,-425.5"/>
<text text-anchor="start" x="374" y="-443.5" font-family="Helvetica,sans-Serif" font-size="10.00" fill="#000000">odp/api/spec/packet</text>
<text text-anchor="middle" x="423" y="-432.5" font-family="Helvetica,sans-Serif" font-size="10.00" fill="#000000">_types.h</text>
</a>
</g>
</g>
<!-- Node0&#45;&gt;Node2 -->
<g id="edge2" class="edge">
<title>Node0&#45;&gt;Node2</title>
<path fill="none" stroke="#191970" d="M368.1563,-492.3906C376.5459,-484.4527 388.7859,-472.8718 399.5751,-462.6635"/>
<polygon fill="#191970" stroke="#191970" points="402.2407,-464.9598 407.0992,-455.5446 397.4298,-459.875 402.2407,-464.9598"/>
</g>
<!-- Node3 -->
<g id="node4" class="node">
<title>Node3</title>
<polygon fill="#ffffff" stroke="#bfbfbf" points="159.5,-.5 159.5,-19.5 280.5,-19.5 280.5,-.5 159.5,-.5"/>
<text text-anchor="middle" x="220" y="-7.5" font-family="Helvetica,sans-Serif" font-size="10.00" fill="#000000">odp/visibility_begin.h</text>
</g>
<!-- Node2&#45;&gt;Node3 -->
<g id="edge3" class="edge">
<title>Node2&#45;&gt;Node3</title>
<path fill="none" stroke="#191970" d="M365.9523,-425.4509C250.4914,-394.5957 0,-325.4697 0,-306.5 0,-306.5 0,-306.5 0,-122 0,-53.8566 84.8604,-27.1553 149.1725,-16.704"/>
<polygon fill="#191970" stroke="#191970" points="149.9422,-20.1273 159.3017,-15.1623 148.8888,-13.207 149.9422,-20.1273"/>
</g>
<!-- Node4 -->
<g id="node5" class="node">
<title>Node4</title>
<g id="a_node5"><a xlink:href="proto__stats__types_8h.html" target="_top" xlink:title="ODP proto stats types. ">
<polygon fill="#ffffff" stroke="#000000" points="293,-358.5 293,-388.5 403,-388.5 403,-358.5 293,-358.5"/>
<text text-anchor="start" x="301" y="-376.5" font-family="Helvetica,sans-Serif" font-size="10.00" fill="#000000">odp/api/proto_stats</text>
<text text-anchor="middle" x="348" y="-365.5" font-family="Helvetica,sans-Serif" font-size="10.00" fill="#000000">_types.h</text>
</a>
</g>
</g>
<!-- Node2&#45;&gt;Node4 -->
<g id="edge4" class="edge">
<title>Node2&#45;&gt;Node4</title>
<path fill="none" stroke="#191970" d="M405.9813,-425.2967C396.1044,-416.4733 383.4931,-405.2072 372.5562,-395.4368"/>
<polygon fill="#191970" stroke="#191970" points="374.7407,-392.6952 364.9513,-388.6432 370.0772,-397.9155 374.7407,-392.6952"/>
</g>
<!-- Node14 -->
<g id="node15" class="node">
<title>Node14</title>
<polygon fill="#ffffff" stroke="#bfbfbf" points="720,-.5 720,-19.5 832,-19.5 832,-.5 720,-.5"/>
<text text-anchor="middle" x="776" y="-7.5" font-family="Helvetica,sans-Serif" font-size="10.00" fill="#000000">odp/visibility_end.h</text>
</g>
<!-- Node2&#45;&gt;Node14 -->
<g id="edge38" class="edge">
<title>Node2&#45;&gt;Node14</title>
<path fill="none" stroke="#191970" d="M480.1795,-436.8193C608.6497,-426.9834 909,-394.5704 909,-306.5 909,-306.5 909,-306.5 909,-122 909,-72.0478 853.4295,-39.8768 814.1292,-23.371"/>
<polygon fill="#191970" stroke="#191970" points="815.1156,-19.9953 804.5318,-19.5108 812.5034,-26.4897 815.1156,-19.9953"/>
</g>
<!-- Node15 -->
<g id="node16" class="node">
<title>Node15</title>
<g id="a_node16"><a xlink:href="queue__types_8h.html" target="_top" xlink:title="ODP queue. ">
<polygon fill="#ffffff" stroke="#000000" points="424.5,-364 424.5,-383 551.5,-383 551.5,-364 424.5,-364"/>
<text text-anchor="middle" x="488" y="-371" font-family="Helvetica,sans-Serif" font-size="10.00" fill="#000000">odp/api/queue_types.h</text>
</a>
</g>
</g>
<!-- Node2&#45;&gt;Node15 -->
<g id="edge20" class="edge">
<title>Node2&#45;&gt;Node15</title>
<path fill="none" stroke="#191970" d="M437.7495,-425.2967C447.8768,-414.8578 461.3212,-400.9997 471.7552,-390.2446"/>
<polygon fill="#191970" stroke="#191970" points="474.2792,-392.6695 478.7303,-383.055 469.255,-387.7953 474.2792,-392.6695"/>
</g>
<!-- Node5 -->
<g id="node6" class="node">
<title>Node5</title>
<polygon fill="#ffffff" stroke="#bfbfbf" points="284,-291.5 284,-321.5 412,-321.5 412,-291.5 284,-291.5"/>
<text text-anchor="start" x="292" y="-309.5" font-family="Helvetica,sans-Serif" font-size="10.00" fill="#000000">odp/api/abi/proto_stats</text>
<text text-anchor="middle" x="348" y="-298.5" font-family="Helvetica,sans-Serif" font-size="10.00" fill="#000000">_types.h</text>
</g>
<!-- Node4&#45;&gt;Node5 -->
<g id="edge5" class="edge">
<title>Node4&#45;&gt;Node5</title>
<path fill="none" stroke="#191970" d="M348,-358.2967C348,-350.5013 348,-340.7991 348,-331.9064"/>
<polygon fill="#191970" stroke="#191970" points="351.5001,-331.6431 348,-321.6432 344.5001,-331.6432 351.5001,-331.6431"/>
</g>
<!-- Node6 -->
<g id="node7" class="node">
<title>Node6</title>
<g id="a_node7"><a xlink:href="spec_2proto__stats__types_8h.html" target="_top" xlink:title="ODP proto stats types. ">
<polygon fill="#ffffff" stroke="#000000" points="110.5,-291.5 110.5,-321.5 217.5,-321.5 217.5,-291.5 110.5,-291.5"/>
<text text-anchor="start" x="118.5" y="-309.5" font-family="Helvetica,sans-Serif" font-size="10.00" fill="#000000">odp/api/spec/proto</text>
<text text-anchor="middle" x="164" y="-298.5" font-family="Helvetica,sans-Serif" font-size="10.00" fill="#000000">_stats_types.h</text>
</a>
</g>
</g>
<!-- Node4&#45;&gt;Node6 -->
<g id="edge6" class="edge">
<title>Node4&#45;&gt;Node6</title>
<path fill="none" stroke="#191970" d="M306.7068,-358.4639C279.5764,-348.5849 243.8902,-335.5905 214.9914,-325.0675"/>
<polygon fill="#191970" stroke="#191970" points="216.0673,-321.7345 205.4733,-321.6017 213.6722,-328.312 216.0673,-321.7345"/>
</g>
<!-- Node6&#45;&gt;Node3 -->
<g id="edge7" class="edge">
<title>Node6&#45;&gt;Node3</title>
<path fill="none" stroke="#191970" d="M127.8537,-291.4624C110.2672,-282.7844 89.7873,-270.4998 75,-255 50.3013,-229.1113 38,-219.2805 38,-183.5 38,-183.5 38,-183.5 38,-122 38,-65.0129 103.5205,-36.0903 155.9366,-22.0701"/>
<polygon fill="#191970" stroke="#191970" points="157.0569,-25.3968 165.8868,-19.5416 155.3328,-18.6124 157.0569,-25.3968"/>
</g>
<!-- Node7 -->
<g id="node8" class="node">
<title>Node7</title>
<g id="a_node8"><a xlink:href="std__types_8h.html" target="_top" xlink:title="Standard C language types and definitions for ODP. ">
<polygon fill="#ffffff" stroke="#000000" points="84,-235.5 84,-254.5 196,-254.5 196,-235.5 84,-235.5"/>
<text text-anchor="middle" x="140" y="-242.5" font-family="Helvetica,sans-Serif" font-size="10.00" fill="#000000">odp/api/std_types.h</text>
</a>
</g>
</g>
<!-- Node6&#45;&gt;Node7 -->
<g id="edge8" class="edge">
<title>Node6&#45;&gt;Node7</title>
<path fill="none" stroke="#191970" d="M158.0674,-291.2977C154.8748,-283.1166 150.9046,-272.943 147.4996,-264.2179"/>
<polygon fill="#191970" stroke="#191970" points="150.7387,-262.8903 143.8427,-254.8469 144.2177,-265.4351 150.7387,-262.8903"/>
</g>
<!-- Node6&#45;&gt;Node14 -->
<g id="edge19" class="edge">
<title>Node6&#45;&gt;Node14</title>
<path fill="none" stroke="#191970" d="M217.5579,-298.3916C235.7608,-295.8035 256.2404,-293.0755 275,-291 400.5143,-277.1134 833,-309.7802 833,-183.5 833,-183.5 833,-183.5 833,-122 833,-85.1826 808.2325,-48.2377 791.3499,-27.3313"/>
<polygon fill="#191970" stroke="#191970" points="794.0131,-25.06 784.9063,-19.6456 788.6489,-29.5574 794.0131,-25.06"/>
</g>
<!-- Node8 -->
<g id="node9" class="node">
<title>Node8</title>
<polygon fill="#ffffff" stroke="#bfbfbf" points="66,-174 66,-193 196,-193 196,-174 66,-174"/>
<text text-anchor="middle" x="131" y="-181" font-family="Helvetica,sans-Serif" font-size="10.00" fill="#000000">odp/api/abi/std_types.h</text>
</g>
<!-- Node7&#45;&gt;Node8 -->
<g id="edge9" class="edge">
<title>Node7&#45;&gt;Node8</title>
<path fill="none" stroke="#191970" d="M138.5938,-235.3906C137.3462,-226.8657 135.4838,-214.1392 133.9156,-203.4235"/>
<polygon fill="#191970" stroke="#191970" points="137.3373,-202.6326 132.4261,-193.2449 130.411,-203.6463 137.3373,-202.6326"/>
</g>
<!-- Node9 -->
<g id="node10" class="node">
<title>Node9</title>
<g id="a_node10"><a xlink:href="spec_2std__types_8h.html" target="_top" xlink:title="Standard C language types and definitions for ODP. ">
<polygon fill="#ffffff" stroke="#000000" points="252.5,-174 252.5,-193 389.5,-193 389.5,-174 252.5,-174"/>
<text text-anchor="middle" x="321" y="-181" font-family="Helvetica,sans-Serif" font-size="10.00" fill="#000000">odp/api/spec/std_types.h</text>
</a>
</g>
</g>
<!-- Node7&#45;&gt;Node9 -->
<g id="edge10" class="edge">
<title>Node7&#45;&gt;Node9</title>
<path fill="none" stroke="#191970" d="M168.2813,-235.3906C199.23,-224.8749 248.9942,-207.966 283.257,-196.3243"/>
<polygon fill="#191970" stroke="#191970" points="284.575,-199.573 292.9173,-193.0419 282.3229,-192.9452 284.575,-199.573"/>
</g>
<!-- Node9&#45;&gt;Node3 -->
<g id="edge11" class="edge">
<title>Node9&#45;&gt;Node3</title>
<path fill="none" stroke="#191970" d="M277.5183,-173.935C230.8416,-160.9331 159.9037,-132.5084 134,-76 122.8453,-51.6662 150.6317,-33.9988 177.532,-23.1016"/>
<polygon fill="#191970" stroke="#191970" points="178.8371,-26.3499 186.9448,-19.5296 176.3535,-19.8053 178.8371,-26.3499"/>
</g>
<!-- Node10 -->
<g id="node11" class="node">
<title>Node10</title>
<polygon fill="#ffffff" stroke="#bfbfbf" points="207.5,-112.5 207.5,-131.5 260.5,-131.5 260.5,-112.5 207.5,-112.5"/>
<text text-anchor="middle" x="234" y="-119.5" font-family="Helvetica,sans-Serif" font-size="10.00" fill="#000000">stdint.h</text>
</g>
<!-- Node9&#45;&gt;Node10 -->
<g id="edge12" class="edge">
<title>Node9&#45;&gt;Node10</title>
<path fill="none" stroke="#191970" d="M307.4063,-173.8906C293.6157,-164.1421 272.0528,-148.8994 255.859,-137.4521"/>
<polygon fill="#191970" stroke="#191970" points="257.6844,-134.4563 247.4983,-131.5419 253.6437,-140.1723 257.6844,-134.4563"/>
</g>
<!-- Node11 -->
<g id="node12" class="node">
<title>Node11</title>
<g id="a_node12"><a xlink:href="align_8h.html" target="_top" xlink:title="ODP alignments. ">
<polygon fill="#ffffff" stroke="#000000" points="278.5,-112.5 278.5,-131.5 367.5,-131.5 367.5,-112.5 278.5,-112.5"/>
<text text-anchor="middle" x="323" y="-119.5" font-family="Helvetica,sans-Serif" font-size="10.00" fill="#000000">odp/api/align.h</text>
</a>
</g>
</g>
<!-- Node9&#45;&gt;Node11 -->
<g id="edge13" class="edge">
<title>Node9&#45;&gt;Node11</title>
<path fill="none" stroke="#191970" d="M321.3125,-173.8906C321.5897,-165.3657 322.0036,-152.6392 322.3521,-141.9235"/>
<polygon fill="#191970" stroke="#191970" points="325.8561,-141.8534 322.6831,-131.7449 318.8598,-141.6258 325.8561,-141.8534"/>
</g>
<!-- Node9&#45;&gt;Node14 -->
<g id="edge18" class="edge">
<title>Node9&#45;&gt;Node14</title>
<path fill="none" stroke="#191970" d="M358.7073,-173.9826C460.6082,-148.2364 734.1277,-78.9458 738,-76 753.4111,-64.276 763.626,-44.3658 769.5462,-29.4728"/>
<polygon fill="#191970" stroke="#191970" points="772.9708,-30.2978 773.1109,-19.7039 766.395,-27.8982 772.9708,-30.2978"/>
</g>
<!-- Node12 -->
<g id="node13" class="node">
<title>Node12</title>
<polygon fill="#ffffff" stroke="#bfbfbf" points="142.5,-56.5 142.5,-75.5 249.5,-75.5 249.5,-56.5 142.5,-56.5"/>
<text text-anchor="middle" x="196" y="-63.5" font-family="Helvetica,sans-Serif" font-size="10.00" fill="#000000">odp/api/abi/align.h</text>
</g>
<!-- Node11&#45;&gt;Node12 -->
<g id="edge14" class="edge">
<title>Node11&#45;&gt;Node12</title>
<path fill="none" stroke="#191970" d="M301.1679,-112.3733C280.6897,-103.3435 249.8601,-89.7494 226.8681,-79.6111"/>
<polygon fill="#191970" stroke="#191970" points="228.1093,-76.3333 217.5472,-75.5011 225.285,-82.7383 228.1093,-76.3333"/>
</g>
<!-- Node13 -->
<g id="node14" class="node">
<title>Node13</title>
<g id="a_node14"><a xlink:href="spec_2align_8h.html" target="_top" xlink:title="ODP alignments. ">
<polygon fill="#ffffff" stroke="#000000" points="268,-56.5 268,-75.5 382,-75.5 382,-56.5 268,-56.5"/>
<text text-anchor="middle" x="325" y="-63.5" font-family="Helvetica,sans-Serif" font-size="10.00" fill="#000000">odp/api/spec/align.h</text>
</a>
</g>
</g>
<!-- Node11&#45;&gt;Node13 -->
<g id="edge15" class="edge">
<title>Node11&#45;&gt;Node13</title>
<path fill="none" stroke="#191970" d="M323.3484,-112.2455C323.6093,-104.9382 323.9752,-94.6944 324.2963,-85.7046"/>
<polygon fill="#191970" stroke="#191970" points="327.7964,-85.7613 324.6556,-75.6427 320.8008,-85.5113 327.7964,-85.7613"/>
</g>
<!-- Node13&#45;&gt;Node3 -->
<g id="edge16" class="edge">
<title>Node13&#45;&gt;Node3</title>
<path fill="none" stroke="#191970" d="M306.7104,-56.2455C290.2238,-47.4527 265.7648,-34.4079 247.0235,-24.4125"/>
<polygon fill="#191970" stroke="#191970" points="248.5506,-21.2604 238.08,-19.6427 245.2565,-27.4368 248.5506,-21.2604"/>
</g>
<!-- Node13&#45;&gt;Node14 -->
<g id="edge17" class="edge">
<title>Node13&#45;&gt;Node14</title>
<path fill="none" stroke="#191970" d="M382.1195,-58.9076C465.7661,-48.5213 621.2274,-29.2179 709.7675,-18.224"/>
<polygon fill="#191970" stroke="#191970" points="710.2058,-21.6965 719.6983,-16.9909 709.3432,-14.7499 710.2058,-21.6965"/>
</g>
<!-- Node16 -->
<g id="node17" class="node">
<title>Node16</title>
<polygon fill="#ffffff" stroke="#bfbfbf" points="561.5,-297 561.5,-316 706.5,-316 706.5,-297 561.5,-297"/>
<text text-anchor="middle" x="634" y="-304" font-family="Helvetica,sans-Serif" font-size="10.00" fill="#000000">odp/api/abi/queue_types.h</text>
</g>
<!-- Node15&#45;&gt;Node16 -->
<g id="edge21" class="edge">
<title>Node15&#45;&gt;Node16</title>
<path fill="none" stroke="#191970" d="M508.9182,-363.9005C533.7456,-352.5072 575.3433,-333.4178 603.6942,-320.4075"/>
<polygon fill="#191970" stroke="#191970" points="605.4917,-323.4336 613.1206,-316.0817 602.5721,-317.0715 605.4917,-323.4336"/>
</g>
<!-- Node17 -->
<g id="node18" class="node">
<title>Node17</title>
<g id="a_node18"><a xlink:href="spec_2queue__types_8h.html" target="_top" xlink:title="ODP queue types. ">
<polygon fill="#ffffff" stroke="#000000" points="432.5,-291.5 432.5,-321.5 543.5,-321.5 543.5,-291.5 432.5,-291.5"/>
<text text-anchor="start" x="440.5" y="-309.5" font-family="Helvetica,sans-Serif" font-size="10.00" fill="#000000">odp/api/spec/queue</text>
<text text-anchor="middle" x="488" y="-298.5" font-family="Helvetica,sans-Serif" font-size="10.00" fill="#000000">_types.h</text>
</a>
</g>
</g>
<!-- Node15&#45;&gt;Node17 -->
<g id="edge22" class="edge">
<title>Node15&#45;&gt;Node17</title>
<path fill="none" stroke="#191970" d="M488,-363.9005C488,-355.5099 488,-342.9451 488,-331.7085"/>
<polygon fill="#191970" stroke="#191970" points="491.5001,-331.5217 488,-321.5218 484.5001,-331.5218 491.5001,-331.5217"/>
</g>
<!-- Node17&#45;&gt;Node3 -->
<g id="edge23" class="edge">
<title>Node17&#45;&gt;Node3</title>
<path fill="none" stroke="#191970" d="M438.0098,-291.4847C386.2718,-274.4069 304.6796,-243.0624 244,-199 214.3283,-177.4539 147.0833,-110.2559 134,-76 130.8285,-67.6961 129.4313,-63.6249 134,-56 143.0087,-40.9649 158.7934,-30.5677 174.4013,-23.5159"/>
<polygon fill="#191970" stroke="#191970" points="176.1223,-26.5923 184.0343,-19.546 173.4551,-20.1203 176.1223,-26.5923"/>
</g>
<!-- Node17&#45;&gt;Node14 -->
<g id="edge37" class="edge">
<title>Node17&#45;&gt;Node14</title>
<path fill="none" stroke="#191970" d="M543.5829,-292.812C546.7616,-292.1645 549.9172,-291.5545 553,-291 617.7817,-279.3478 796.0016,-296.6126 847,-255 872.9715,-233.8083 871,-217.0202 871,-183.5 871,-183.5 871,-183.5 871,-122 871,-90.7875 866.4397,-80.4196 847,-56 836.446,-42.7424 820.9838,-32.0914 807.1812,-24.3904"/>
<polygon fill="#191970" stroke="#191970" points="808.4496,-21.1025 797.9714,-19.5344 805.1847,-27.2945 808.4496,-21.1025"/>
</g>
<!-- Node18 -->
<g id="node19" class="node">
<title>Node18</title>
<g id="a_node19"><a xlink:href="schedule__types_8h.html" target="_top" xlink:title="ODP schedule. ">
<polygon fill="#ffffff" stroke="#000000" points="566,-235.5 566,-254.5 706,-254.5 706,-235.5 566,-235.5"/>
<text text-anchor="middle" x="636" y="-242.5" font-family="Helvetica,sans-Serif" font-size="10.00" fill="#000000">odp/api/schedule_types.h</text>
</a>
</g>
</g>
<!-- Node17&#45;&gt;Node18 -->
<g id="edge24" class="edge">
<title>Node17&#45;&gt;Node18</title>
<path fill="none" stroke="#191970" d="M524.2049,-291.4554C548.4658,-281.374 580.1356,-268.2139 603.5712,-258.4755"/>
<polygon fill="#191970" stroke="#191970" points="605.1739,-261.5997 613.0653,-254.5303 602.4877,-255.1356 605.1739,-261.5997"/>
</g>
<!-- Node23 -->
<g id="node24" class="node">
<title>Node23</title>
<g id="a_node24"><a xlink:href="deprecated_8h.html" target="_top" xlink:title="Control deprecated API definitions. ">
<polygon fill="#ffffff" stroke="#000000" points="428.5,-235.5 428.5,-254.5 547.5,-254.5 547.5,-235.5 428.5,-235.5"/>
<text text-anchor="middle" x="488" y="-242.5" font-family="Helvetica,sans-Serif" font-size="10.00" fill="#000000">odp/api/deprecated.h</text>
</a>
</g>
</g>
<!-- Node17&#45;&gt;Node23 -->
<g id="edge33" class="edge">
<title>Node17&#45;&gt;Node23</title>
<path fill="none" stroke="#191970" d="M488,-291.2977C488,-283.3834 488,-273.6043 488,-265.0759"/>
<polygon fill="#191970" stroke="#191970" points="491.5001,-264.8469 488,-254.8469 484.5001,-264.847 491.5001,-264.8469"/>
</g>
<!-- Node19 -->
<g id="node20" class="node">
<title>Node19</title>
<polygon fill="#ffffff" stroke="#bfbfbf" points="687.5,-168.5 687.5,-198.5 804.5,-198.5 804.5,-168.5 687.5,-168.5"/>
<text text-anchor="start" x="695.5" y="-186.5" font-family="Helvetica,sans-Serif" font-size="10.00" fill="#000000">odp/api/abi/schedule</text>
<text text-anchor="middle" x="746" y="-175.5" font-family="Helvetica,sans-Serif" font-size="10.00" fill="#000000">_types.h</text>
</g>
<!-- Node18&#45;&gt;Node19 -->
<g id="edge25" class="edge">
<title>Node18&#45;&gt;Node19</title>
<path fill="none" stroke="#191970" d="M653.1875,-235.3906C668.4193,-226.8747 691.1503,-214.166 710.304,-203.4573"/>
<polygon fill="#191970" stroke="#191970" points="712.0705,-206.4796 719.091,-198.5446 708.6545,-200.3697 712.0705,-206.4796"/>
</g>
<!-- Node20 -->
<g id="node21" class="node">
<title>Node20</title>
<g id="a_node21"><a xlink:href="spec_2schedule__types_8h.html" target="_top" xlink:title="ODP schedule types. ">
<polygon fill="#ffffff" stroke="#000000" points="544.5,-168.5 544.5,-198.5 669.5,-198.5 669.5,-168.5 544.5,-168.5"/>
<text text-anchor="start" x="552.5" y="-186.5" font-family="Helvetica,sans-Serif" font-size="10.00" fill="#000000">odp/api/spec/schedule</text>
<text text-anchor="middle" x="607" y="-175.5" font-family="Helvetica,sans-Serif" font-size="10.00" fill="#000000">_types.h</text>
</a>
</g>
</g>
<!-- Node18&#45;&gt;Node20 -->
<g id="edge26" class="edge">
<title>Node18&#45;&gt;Node20</title>
<path fill="none" stroke="#191970" d="M631.4688,-235.3906C627.98,-227.9922 622.9991,-217.4291 618.4408,-207.7623"/>
<polygon fill="#191970" stroke="#191970" points="621.525,-206.0967 614.0942,-198.5446 615.1936,-209.0822 621.525,-206.0967"/>
</g>
<!-- Node20&#45;&gt;Node3 -->
<g id="edge27" class="edge">
<title>Node20&#45;&gt;Node3</title>
<path fill="none" stroke="#191970" d="M582.2189,-168.3603C529.8144,-136.4194 410.9204,-64.3756 391,-56 355.1723,-40.9361 313.0282,-29.5322 279.5437,-21.8471"/>
<polygon fill="#191970" stroke="#191970" points="279.9702,-18.3559 269.4465,-19.5816 278.4376,-25.1861 279.9702,-18.3559"/>
</g>
<!-- Node20&#45;&gt;Node14 -->
<g id="edge32" class="edge">
<title>Node20&#45;&gt;Node14</title>
<path fill="none" stroke="#191970" d="M652.2886,-168.4417C674.523,-159.792 700.9775,-147.5383 722,-132 748.5954,-112.3426 758.206,-106.4966 771,-76 777.1125,-61.4299 778.1013,-43.4711 777.7069,-29.9672"/>
<polygon fill="#191970" stroke="#191970" points="781.1935,-29.6294 777.1325,-19.8438 774.2047,-30.0261 781.1935,-29.6294"/>
</g>
<!-- Node21 -->
<g id="node22" class="node">
<title>Node21</title>
<g id="a_node22"><a xlink:href="support_8h.html" target="_top" xlink:title="ODP support API &#45; platform specific header. ">
<polygon fill="#ffffff" stroke="#000000" points="611.5,-112.5 611.5,-131.5 712.5,-131.5 712.5,-112.5 611.5,-112.5"/>
<text text-anchor="middle" x="662" y="-119.5" font-family="Helvetica,sans-Serif" font-size="10.00" fill="#000000">odp/api/support.h</text>
</a>
</g>
</g>
<!-- Node20&#45;&gt;Node21 -->
<g id="edge28" class="edge">
<title>Node20&#45;&gt;Node21</title>
<path fill="none" stroke="#191970" d="M620.5955,-168.2977C628.3891,-159.5831 638.2047,-148.6075 646.3226,-139.5302"/>
<polygon fill="#191970" stroke="#191970" points="649.1365,-141.6341 653.1938,-131.8469 643.9187,-136.9678 649.1365,-141.6341"/>
</g>
<!-- Node22 -->
<g id="node23" class="node">
<title>Node22</title>
<g id="a_node23"><a xlink:href="spec_2support_8h.html" target="_top" xlink:title="ODP support API. ">
<polygon fill="#ffffff" stroke="#000000" points="601.5,-56.5 601.5,-75.5 728.5,-75.5 728.5,-56.5 601.5,-56.5"/>
<text text-anchor="middle" x="665" y="-63.5" font-family="Helvetica,sans-Serif" font-size="10.00" fill="#000000">odp/api/spec/support.h</text>
</a>
</g>
</g>
<!-- Node21&#45;&gt;Node22 -->
<g id="edge29" class="edge">
<title>Node21&#45;&gt;Node22</title>
<path fill="none" stroke="#191970" d="M662.5226,-112.2455C662.914,-104.9382 663.4628,-94.6944 663.9444,-85.7046"/>
<polygon fill="#191970" stroke="#191970" points="667.4434,-85.8156 664.4834,-75.6427 660.4534,-85.4411 667.4434,-85.8156"/>
</g>
<!-- Node22&#45;&gt;Node3 -->
<g id="edge30" class="edge">
<title>Node22&#45;&gt;Node3</title>
<path fill="none" stroke="#191970" d="M601.4039,-57.1135C598.5643,-56.7336 595.7528,-56.3609 593,-56 487.9608,-42.2295 366.1208,-27.4229 291.0432,-18.4336"/>
<polygon fill="#191970" stroke="#191970" points="291.1113,-14.9169 280.7664,-17.2045 290.28,-21.8674 291.1113,-14.9169"/>
</g>
<!-- Node22&#45;&gt;Node14 -->
<g id="edge31" class="edge">
<title>Node22&#45;&gt;Node14</title>
<path fill="none" stroke="#191970" d="M684.0816,-56.3733C701.7402,-47.4644 728.2053,-34.1127 748.2098,-24.0203"/>
<polygon fill="#191970" stroke="#191970" points="749.8158,-27.1303 757.1674,-19.5011 746.6628,-20.8806 749.8158,-27.1303"/>
</g>
<!-- Node24 -->
<g id="node25" class="node">
<title>Node24</title>
<g id="a_node25"><a xlink:href="spec_2deprecated_8h.html" target="_top" xlink:title="Macro for deprecated API definitions. ">
<polygon fill="#ffffff" stroke="#000000" points="438.5,-56.5 438.5,-75.5 583.5,-75.5 583.5,-56.5 438.5,-56.5"/>
<text text-anchor="middle" x="511" y="-63.5" font-family="Helvetica,sans-Serif" font-size="10.00" fill="#000000">odp/api/spec/deprecated.h</text>
</a>
</g>
</g>
<!-- Node23&#45;&gt;Node24 -->
<g id="edge34" class="edge">
<title>Node23&#45;&gt;Node24</title>
<path fill="none" stroke="#191970" d="M489.2366,-235.3762C492.8557,-207.2097 503.4816,-124.5126 508.421,-86.0713"/>
<polygon fill="#191970" stroke="#191970" points="511.9542,-86.0359 509.7573,-75.6714 505.0113,-85.1438 511.9542,-86.0359"/>
</g>
<!-- Node24&#45;&gt;Node3 -->
<g id="edge35" class="edge">
<title>Node24&#45;&gt;Node3</title>
<path fill="none" stroke="#191970" d="M461.306,-56.4369C410.9804,-46.7522 333.1277,-31.7703 279.5349,-21.4569"/>
<polygon fill="#191970" stroke="#191970" points="279.9703,-17.9765 269.4891,-19.5237 278.6475,-24.8504 279.9703,-17.9765"/>
</g>
<!-- Node24&#45;&gt;Node14 -->
<g id="edge36" class="edge">
<title>Node24&#45;&gt;Node14</title>
<path fill="none" stroke="#191970" d="M556.254,-56.4369C601.7973,-46.8127 672.0965,-31.957 720.8686,-21.6504"/>
<polygon fill="#191970" stroke="#191970" points="721.8724,-25.0157 730.9326,-19.5237 720.425,-18.1669 721.8724,-25.0157"/>
</g>
</g>
</svg>
