<?xml version="1.0" encoding="UTF-8" standalone="no"?>
<!DOCTYPE svg PUBLIC "-//W3C//DTD SVG 1.1//EN"
 "http://www.w3.org/Graphics/SVG/1.1/DTD/svg11.dtd">
<!-- Generated by graphviz version 2.40.1 (20161225.0304)
 -->
<!-- Title: packet.h Pages: 1 -->
<svg width="1410pt" height="632pt"
 viewBox="0.00 0.00 1410.00 632.00" xmlns="http://www.w3.org/2000/svg" xmlns:xlink="http://www.w3.org/1999/xlink">
<g id="graph0" class="graph" transform="scale(1 1) rotate(0) translate(4 628)">
<title>packet.h</title>
<polygon fill="#ffffff" stroke="transparent" points="-4,4 -4,-628 1406,-628 1406,4 -4,4"/>
<!-- Node0 -->
<g id="node1" class="node">
<title>Node0</title>
<polygon fill="#bfbfbf" stroke="#000000" points="854.5,-604.5 854.5,-623.5 913.5,-623.5 913.5,-604.5 854.5,-604.5"/>
<text text-anchor="middle" x="884" y="-611.5" font-family="Helvetica,sans-Serif" font-size="10.00" fill="#000000">packet.h</text>
</g>
<!-- Node1 -->
<g id="node2" class="node">
<title>Node1</title>
<g id="a_node2"><a xlink:href="std__types_8h.html" target="_top" xlink:title="Standard C language types and definitions for ODP. ">
<polygon fill="#ffffff" stroke="#000000" points="284,-235.5 284,-254.5 396,-254.5 396,-235.5 284,-235.5"/>
<text text-anchor="middle" x="340" y="-242.5" font-family="Helvetica,sans-Serif" font-size="10.00" fill="#000000">odp/api/std_types.h</text>
</a>
</g>
</g>
<!-- Node0&#45;&gt;Node1 -->
<g id="edge1" class="edge">
<title>Node0&#45;&gt;Node1</title>
<path fill="none" stroke="#191970" d="M854.3912,-611.5632C824.2649,-607.5084 778.2406,-596.715 751,-568 729.9918,-545.8548 732,-532.5246 732,-502 732,-502 732,-502 732,-373.5 732,-305.7856 518.1181,-267.9951 406.3259,-252.8675"/>
<polygon fill="#191970" stroke="#191970" points="406.5381,-249.365 396.164,-251.5168 405.6157,-256.304 406.5381,-249.365"/>
</g>
<!-- Node10 -->
<g id="node11" class="node">
<title>Node10</title>
<polygon fill="#ffffff" stroke="#bfbfbf" points="760,-548.5 760,-567.5 870,-567.5 870,-548.5 760,-548.5"/>
<text text-anchor="middle" x="815" y="-555.5" font-family="Helvetica,sans-Serif" font-size="10.00" fill="#000000">odp/api/abi/event.h</text>
</g>
<!-- Node0&#45;&gt;Node10 -->
<g id="edge12" class="edge">
<title>Node0&#45;&gt;Node10</title>
<path fill="none" stroke="#191970" d="M871.9811,-604.2455C861.7902,-595.9746 846.9638,-583.9416 834.9893,-574.2232"/>
<polygon fill="#191970" stroke="#191970" points="836.8514,-571.2268 826.8812,-567.6427 832.4402,-576.662 836.8514,-571.2268"/>
</g>
<!-- Node11 -->
<g id="node12" class="node">
<title>Node11</title>
<polygon fill="#ffffff" stroke="#bfbfbf" points="888,-548.5 888,-567.5 1018,-567.5 1018,-548.5 888,-548.5"/>
<text text-anchor="middle" x="953" y="-555.5" font-family="Helvetica,sans-Serif" font-size="10.00" fill="#000000">odp/api/abi/packet_io.h</text>
</g>
<!-- Node0&#45;&gt;Node11 -->
<g id="edge13" class="edge">
<title>Node0&#45;&gt;Node11</title>
<path fill="none" stroke="#191970" d="M896.0189,-604.2455C906.2098,-595.9746 921.0362,-583.9416 933.0107,-574.2232"/>
<polygon fill="#191970" stroke="#191970" points="935.5598,-576.662 941.1188,-567.6427 931.1486,-571.2268 935.5598,-576.662"/>
</g>
<!-- Node12 -->
<g id="node13" class="node">
<title>Node12</title>
<polygon fill="#ffffff" stroke="#bfbfbf" points="558.5,-425.5 558.5,-455.5 665.5,-455.5 665.5,-425.5 558.5,-425.5"/>
<text text-anchor="start" x="566.5" y="-443.5" font-family="Helvetica,sans-Serif" font-size="10.00" fill="#000000">odp/api/abi/packet</text>
<text text-anchor="middle" x="612" y="-432.5" font-family="Helvetica,sans-Serif" font-size="10.00" fill="#000000">_types.h</text>
</g>
<!-- Node0&#45;&gt;Node12 -->
<g id="edge14" class="edge">
<title>Node0&#45;&gt;Node12</title>
<path fill="none" stroke="#191970" d="M854.2221,-611.178C819.1944,-606.6932 760.4468,-595.4334 718,-568 676.5509,-541.2114 643.0774,-493.119 625.4872,-464.2723"/>
<polygon fill="#191970" stroke="#191970" points="628.4674,-462.4361 620.3442,-455.6342 622.4527,-466.0172 628.4674,-462.4361"/>
</g>
<!-- Node13 -->
<g id="node14" class="node">
<title>Node13</title>
<polygon fill="#ffffff" stroke="#bfbfbf" points="1036,-548.5 1036,-567.5 1152,-567.5 1152,-548.5 1036,-548.5"/>
<text text-anchor="middle" x="1094" y="-555.5" font-family="Helvetica,sans-Serif" font-size="10.00" fill="#000000">odp/api/abi/packet.h</text>
</g>
<!-- Node0&#45;&gt;Node13 -->
<g id="edge15" class="edge">
<title>Node0&#45;&gt;Node13</title>
<path fill="none" stroke="#191970" d="M913.6425,-606.0953C948.737,-596.7368 1007.5696,-581.0481 1048.4582,-570.1445"/>
<polygon fill="#191970" stroke="#191970" points="1049.4225,-573.5097 1058.183,-567.5512 1047.6188,-566.7461 1049.4225,-573.5097"/>
</g>
<!-- Node14 -->
<g id="node15" class="node">
<title>Node14</title>
<polygon fill="#ffffff" stroke="#bfbfbf" points="1170,-548.5 1170,-567.5 1280,-567.5 1280,-548.5 1170,-548.5"/>
<text text-anchor="middle" x="1225" y="-555.5" font-family="Helvetica,sans-Serif" font-size="10.00" fill="#000000">odp/api/abi/buffer.h</text>
</g>
<!-- Node0&#45;&gt;Node14 -->
<g id="edge16" class="edge">
<title>Node0&#45;&gt;Node14</title>
<path fill="none" stroke="#191970" d="M913.665,-609.1283C968.2173,-600.1696 1085.6401,-580.8861 1159.6657,-568.7294"/>
<polygon fill="#191970" stroke="#191970" points="1160.5114,-572.1375 1169.812,-567.0631 1159.3769,-565.23 1160.5114,-572.1375"/>
</g>
<!-- Node15 -->
<g id="node16" class="node">
<title>Node15</title>
<polygon fill="#ffffff" stroke="#bfbfbf" points="1298,-548.5 1298,-567.5 1402,-567.5 1402,-548.5 1298,-548.5"/>
<text text-anchor="middle" x="1350" y="-555.5" font-family="Helvetica,sans-Serif" font-size="10.00" fill="#000000">odp/api/abi/pool.h</text>
</g>
<!-- Node0&#45;&gt;Node15 -->
<g id="edge17" class="edge">
<title>Node0&#45;&gt;Node15</title>
<path fill="none" stroke="#191970" d="M913.5363,-611.1502C978.972,-604.7287 1141.3015,-588.2047 1287.7163,-568.1241"/>
<polygon fill="#191970" stroke="#191970" points="1288.355,-571.5692 1297.7823,-566.7343 1287.3975,-564.635 1288.355,-571.5692"/>
</g>
<!-- Node16 -->
<g id="node17" class="node">
<title>Node16</title>
<g id="a_node17"><a xlink:href="spec_2packet_8h.html" target="_top" xlink:title="ODP packet descriptor. ">
<polygon fill="#ffffff" stroke="#000000" points="379.5,-548.5 379.5,-567.5 502.5,-567.5 502.5,-548.5 379.5,-548.5"/>
<text text-anchor="middle" x="441" y="-555.5" font-family="Helvetica,sans-Serif" font-size="10.00" fill="#000000">odp/api/spec/packet.h</text>
</a>
</g>
</g>
<!-- Node0&#45;&gt;Node16 -->
<g id="edge18" class="edge">
<title>Node0&#45;&gt;Node16</title>
<path fill="none" stroke="#191970" d="M854.2456,-610.2387C785.0141,-601.4871 611.5272,-579.5565 512.7542,-567.0705"/>
<polygon fill="#191970" stroke="#191970" points="512.9163,-563.5632 502.5563,-565.7814 512.0384,-570.508 512.9163,-563.5632"/>
</g>
<!-- Node2 -->
<g id="node3" class="node">
<title>Node2</title>
<polygon fill="#ffffff" stroke="#bfbfbf" points="266,-174 266,-193 396,-193 396,-174 266,-174"/>
<text text-anchor="middle" x="331" y="-181" font-family="Helvetica,sans-Serif" font-size="10.00" fill="#000000">odp/api/abi/std_types.h</text>
</g>
<!-- Node1&#45;&gt;Node2 -->
<g id="edge2" class="edge">
<title>Node1&#45;&gt;Node2</title>
<path fill="none" stroke="#191970" d="M338.5938,-235.3906C337.3462,-226.8657 335.4838,-214.1392 333.9156,-203.4235"/>
<polygon fill="#191970" stroke="#191970" points="337.3373,-202.6326 332.4261,-193.2449 330.411,-203.6463 337.3373,-202.6326"/>
</g>
<!-- Node3 -->
<g id="node4" class="node">
<title>Node3</title>
<g id="a_node4"><a xlink:href="spec_2std__types_8h.html" target="_top" xlink:title="Standard C language types and definitions for ODP. ">
<polygon fill="#ffffff" stroke="#000000" points="452.5,-174 452.5,-193 589.5,-193 589.5,-174 452.5,-174"/>
<text text-anchor="middle" x="521" y="-181" font-family="Helvetica,sans-Serif" font-size="10.00" fill="#000000">odp/api/spec/std_types.h</text>
</a>
</g>
</g>
<!-- Node1&#45;&gt;Node3 -->
<g id="edge3" class="edge">
<title>Node1&#45;&gt;Node3</title>
<path fill="none" stroke="#191970" d="M368.2813,-235.3906C399.23,-224.8749 448.9942,-207.966 483.257,-196.3243"/>
<polygon fill="#191970" stroke="#191970" points="484.575,-199.573 492.9173,-193.0419 482.3229,-192.9452 484.575,-199.573"/>
</g>
<!-- Node4 -->
<g id="node5" class="node">
<title>Node4</title>
<polygon fill="#ffffff" stroke="#bfbfbf" points="243.5,-.5 243.5,-19.5 364.5,-19.5 364.5,-.5 243.5,-.5"/>
<text text-anchor="middle" x="304" y="-7.5" font-family="Helvetica,sans-Serif" font-size="10.00" fill="#000000">odp/visibility_begin.h</text>
</g>
<!-- Node3&#45;&gt;Node4 -->
<g id="edge4" class="edge">
<title>Node3&#45;&gt;Node4</title>
<path fill="none" stroke="#191970" d="M467.7631,-173.961C421.7546,-164.7091 359.9131,-149.5267 342,-132 313.9733,-104.5779 306.5332,-56.8653 304.6126,-29.9524"/>
<polygon fill="#191970" stroke="#191970" points="308.0999,-29.6156 304.0835,-19.8116 301.1094,-29.9804 308.0999,-29.6156"/>
</g>
<!-- Node5 -->
<g id="node6" class="node">
<title>Node5</title>
<polygon fill="#ffffff" stroke="#bfbfbf" points="351.5,-112.5 351.5,-131.5 404.5,-131.5 404.5,-112.5 351.5,-112.5"/>
<text text-anchor="middle" x="378" y="-119.5" font-family="Helvetica,sans-Serif" font-size="10.00" fill="#000000">stdint.h</text>
</g>
<!-- Node3&#45;&gt;Node5 -->
<g id="edge5" class="edge">
<title>Node3&#45;&gt;Node5</title>
<path fill="none" stroke="#191970" d="M498.6563,-173.8906C474.7297,-163.6005 436.5691,-147.1888 409.5784,-135.5809"/>
<polygon fill="#191970" stroke="#191970" points="410.7561,-132.2775 400.1869,-131.5419 407.9905,-138.708 410.7561,-132.2775"/>
</g>
<!-- Node6 -->
<g id="node7" class="node">
<title>Node6</title>
<g id="a_node7"><a xlink:href="align_8h.html" target="_top" xlink:title="ODP alignments. ">
<polygon fill="#ffffff" stroke="#000000" points="476.5,-112.5 476.5,-131.5 565.5,-131.5 565.5,-112.5 476.5,-112.5"/>
<text text-anchor="middle" x="521" y="-119.5" font-family="Helvetica,sans-Serif" font-size="10.00" fill="#000000">odp/api/align.h</text>
</a>
</g>
</g>
<!-- Node3&#45;&gt;Node6 -->
<g id="edge6" class="edge">
<title>Node3&#45;&gt;Node6</title>
<path fill="none" stroke="#191970" d="M521,-173.8906C521,-165.3657 521,-152.6392 521,-141.9235"/>
<polygon fill="#191970" stroke="#191970" points="524.5001,-141.7448 521,-131.7449 517.5001,-141.7449 524.5001,-141.7448"/>
</g>
<!-- Node9 -->
<g id="node10" class="node">
<title>Node9</title>
<polygon fill="#ffffff" stroke="#bfbfbf" points="929,-.5 929,-19.5 1041,-19.5 1041,-.5 929,-.5"/>
<text text-anchor="middle" x="985" y="-7.5" font-family="Helvetica,sans-Serif" font-size="10.00" fill="#000000">odp/visibility_end.h</text>
</g>
<!-- Node3&#45;&gt;Node9 -->
<g id="edge11" class="edge">
<title>Node3&#45;&gt;Node9</title>
<path fill="none" stroke="#191970" d="M562.3675,-173.981C666.3288,-149.9358 931.3757,-87.8233 947,-76 962.4411,-64.3154 972.6516,-44.3995 978.5626,-29.4945"/>
<polygon fill="#191970" stroke="#191970" points="981.9902,-30.3102 982.1202,-19.7162 975.4121,-27.9169 981.9902,-30.3102"/>
</g>
<!-- Node7 -->
<g id="node8" class="node">
<title>Node7</title>
<polygon fill="#ffffff" stroke="#bfbfbf" points="389.5,-56.5 389.5,-75.5 496.5,-75.5 496.5,-56.5 389.5,-56.5"/>
<text text-anchor="middle" x="443" y="-63.5" font-family="Helvetica,sans-Serif" font-size="10.00" fill="#000000">odp/api/abi/align.h</text>
</g>
<!-- Node6&#45;&gt;Node7 -->
<g id="edge7" class="edge">
<title>Node6&#45;&gt;Node7</title>
<path fill="none" stroke="#191970" d="M507.4134,-112.2455C495.6695,-103.814 478.4801,-91.4729 464.8118,-81.6598"/>
<polygon fill="#191970" stroke="#191970" points="466.5954,-78.6316 456.4309,-75.6427 462.5129,-84.3179 466.5954,-78.6316"/>
</g>
<!-- Node8 -->
<g id="node9" class="node">
<title>Node8</title>
<g id="a_node9"><a xlink:href="spec_2align_8h.html" target="_top" xlink:title="ODP alignments. ">
<polygon fill="#ffffff" stroke="#000000" points="515,-56.5 515,-75.5 629,-75.5 629,-56.5 515,-56.5"/>
<text text-anchor="middle" x="572" y="-63.5" font-family="Helvetica,sans-Serif" font-size="10.00" fill="#000000">odp/api/spec/align.h</text>
</a>
</g>
</g>
<!-- Node6&#45;&gt;Node8 -->
<g id="edge8" class="edge">
<title>Node6&#45;&gt;Node8</title>
<path fill="none" stroke="#191970" d="M529.8835,-112.2455C537.1966,-104.2155 547.7391,-92.6394 556.4467,-83.0781"/>
<polygon fill="#191970" stroke="#191970" points="559.0727,-85.3928 563.2183,-75.6427 553.8972,-80.6795 559.0727,-85.3928"/>
</g>
<!-- Node8&#45;&gt;Node4 -->
<g id="edge9" class="edge">
<title>Node8&#45;&gt;Node4</title>
<path fill="none" stroke="#191970" d="M526.2337,-56.4369C480.0785,-46.7925 408.7822,-31.8948 359.4463,-21.5858"/>
<polygon fill="#191970" stroke="#191970" points="360.0821,-18.1431 349.5776,-19.5237 358.6502,-24.9951 360.0821,-18.1431"/>
</g>
<!-- Node8&#45;&gt;Node9 -->
<g id="edge10" class="edge">
<title>Node8&#45;&gt;Node9</title>
<path fill="none" stroke="#191970" d="M629.0114,-57.4275C632.3903,-56.9391 635.7393,-56.4601 639,-56 736.3677,-42.2622 849.3171,-27.4581 918.9739,-18.4592"/>
<polygon fill="#191970" stroke="#191970" points="919.4602,-21.9255 928.93,-17.1744 918.5642,-14.9831 919.4602,-21.9255"/>
</g>
<!-- Node16&#45;&gt;Node4 -->
<g id="edge19" class="edge">
<title>Node16&#45;&gt;Node4</title>
<path fill="none" stroke="#191970" d="M379.2165,-554.4249C257.8471,-545.7037 0,-518.0498 0,-440.5 0,-440.5 0,-440.5 0,-122 0,-79.5631 31.3243,-75.5302 69,-56 97.1302,-41.418 175.0788,-27.8922 233.5451,-19.3349"/>
<polygon fill="#191970" stroke="#191970" points="234.0857,-22.7932 243.4831,-17.9003 233.0856,-15.865 234.0857,-22.7932"/>
</g>
<!-- Node16&#45;&gt;Node9 -->
<g id="edge56" class="edge">
<title>Node16&#45;&gt;Node9</title>
<path fill="none" stroke="#191970" d="M502.5793,-549.8525C676.0124,-525.1989 1156,-444.5022 1156,-306.5 1156,-306.5 1156,-306.5 1156,-122 1156,-66.272 1091.6589,-36.7699 1041.9108,-22.2881"/>
<polygon fill="#191970" stroke="#191970" points="1042.7509,-18.889 1032.1792,-19.5887 1040.8798,-25.6343 1042.7509,-18.889"/>
</g>
<!-- Node17 -->
<g id="node18" class="node">
<title>Node17</title>
<g id="a_node18"><a xlink:href="proto__stats__types_8h.html" target="_top" xlink:title="ODP proto stats types. ">
<polygon fill="#ffffff" stroke="#000000" points="339,-358.5 339,-388.5 449,-388.5 449,-358.5 339,-358.5"/>
<text text-anchor="start" x="347" y="-376.5" font-family="Helvetica,sans-Serif" font-size="10.00" fill="#000000">odp/api/proto_stats</text>
<text text-anchor="middle" x="394" y="-365.5" font-family="Helvetica,sans-Serif" font-size="10.00" fill="#000000">_types.h</text>
</a>
</g>
</g>
<!-- Node16&#45;&gt;Node17 -->
<g id="edge20" class="edge">
<title>Node16&#45;&gt;Node17</title>
<path fill="none" stroke="#191970" d="M433.5038,-548.3724C426.9756,-539.4569 417.8227,-525.5661 413,-512 399.5075,-474.0457 395.5238,-427.0908 394.3906,-398.7584"/>
<polygon fill="#191970" stroke="#191970" points="397.8817,-398.4118 394.0745,-388.5247 390.885,-398.628 397.8817,-398.4118"/>
</g>
<!-- Node20 -->
<g id="node21" class="node">
<title>Node20</title>
<g id="a_node21"><a xlink:href="time_8h.html" target="_top" xlink:title="ODP time. ">
<polygon fill="#ffffff" stroke="#000000" points="81.5,-297 81.5,-316 168.5,-316 168.5,-297 81.5,-297"/>
<text text-anchor="middle" x="125" y="-304" font-family="Helvetica,sans-Serif" font-size="10.00" fill="#000000">odp/api/time.h</text>
</a>
</g>
</g>
<!-- Node16&#45;&gt;Node20 -->
<g id="edge26" class="edge">
<title>Node16&#45;&gt;Node20</title>
<path fill="none" stroke="#191970" d="M428.9983,-548.448C381.2895,-510.4773 204.7659,-369.9846 144.9612,-322.3868"/>
<polygon fill="#191970" stroke="#191970" points="147.0176,-319.5503 137.0137,-316.0615 142.6585,-325.0274 147.0176,-319.5503"/>
</g>
<!-- Node23 -->
<g id="node24" class="node">
<title>Node23</title>
<g id="a_node24"><a xlink:href="packet__types_8h.html" target="_top" xlink:title="ODP packet. ">
<polygon fill="#ffffff" stroke="#000000" points="422,-492.5 422,-511.5 552,-511.5 552,-492.5 422,-492.5"/>
<text text-anchor="middle" x="487" y="-499.5" font-family="Helvetica,sans-Serif" font-size="10.00" fill="#000000">odp/api/packet_types.h</text>
</a>
</g>
</g>
<!-- Node16&#45;&gt;Node23 -->
<g id="edge32" class="edge">
<title>Node16&#45;&gt;Node23</title>
<path fill="none" stroke="#191970" d="M449.0126,-548.2455C455.4768,-540.3761 464.7385,-529.101 472.4983,-519.6542"/>
<polygon fill="#191970" stroke="#191970" points="475.4364,-521.5916 479.0792,-511.6427 470.0273,-517.1484 475.4364,-521.5916"/>
</g>
<!-- Node18 -->
<g id="node19" class="node">
<title>Node18</title>
<polygon fill="#ffffff" stroke="#bfbfbf" points="194,-291.5 194,-321.5 322,-321.5 322,-291.5 194,-291.5"/>
<text text-anchor="start" x="202" y="-309.5" font-family="Helvetica,sans-Serif" font-size="10.00" fill="#000000">odp/api/abi/proto_stats</text>
<text text-anchor="middle" x="258" y="-298.5" font-family="Helvetica,sans-Serif" font-size="10.00" fill="#000000">_types.h</text>
</g>
<!-- Node17&#45;&gt;Node18 -->
<g id="edge21" class="edge">
<title>Node17&#45;&gt;Node18</title>
<path fill="none" stroke="#191970" d="M363.4789,-358.4639C344.1045,-348.9191 318.827,-336.4663 297.8743,-326.144"/>
<polygon fill="#191970" stroke="#191970" points="299.407,-322.9974 288.8897,-321.7177 296.3135,-329.2768 299.407,-322.9974"/>
</g>
<!-- Node19 -->
<g id="node20" class="node">
<title>Node19</title>
<g id="a_node20"><a xlink:href="spec_2proto__stats__types_8h.html" target="_top" xlink:title="ODP proto stats types. ">
<polygon fill="#ffffff" stroke="#000000" points="340.5,-291.5 340.5,-321.5 447.5,-321.5 447.5,-291.5 340.5,-291.5"/>
<text text-anchor="start" x="348.5" y="-309.5" font-family="Helvetica,sans-Serif" font-size="10.00" fill="#000000">odp/api/spec/proto</text>
<text text-anchor="middle" x="394" y="-298.5" font-family="Helvetica,sans-Serif" font-size="10.00" fill="#000000">_stats_types.h</text>
</a>
</g>
</g>
<!-- Node17&#45;&gt;Node19 -->
<g id="edge22" class="edge">
<title>Node17&#45;&gt;Node19</title>
<path fill="none" stroke="#191970" d="M394,-358.2967C394,-350.5013 394,-340.7991 394,-331.9064"/>
<polygon fill="#191970" stroke="#191970" points="397.5001,-331.6431 394,-321.6432 390.5001,-331.6432 397.5001,-331.6431"/>
</g>
<!-- Node19&#45;&gt;Node1 -->
<g id="edge24" class="edge">
<title>Node19&#45;&gt;Node1</title>
<path fill="none" stroke="#191970" d="M380.6517,-291.2977C372.9998,-282.5831 363.3627,-271.6075 355.3924,-262.5302"/>
<polygon fill="#191970" stroke="#191970" points="357.8742,-260.052 348.6461,-254.8469 352.6141,-264.6707 357.8742,-260.052"/>
</g>
<!-- Node19&#45;&gt;Node4 -->
<g id="edge23" class="edge">
<title>Node19&#45;&gt;Node4</title>
<path fill="none" stroke="#191970" d="M344.7234,-291.4305C322.0662,-282.9955 295.6929,-270.9282 275,-255 194.7484,-193.2272 167.1615,-171.6897 134,-76 131.0894,-67.6012 128.5975,-63.0587 134,-56 146.4466,-39.7379 192.414,-27.8996 233.4141,-20.308"/>
<polygon fill="#191970" stroke="#191970" points="234.205,-23.7222 243.4328,-18.5167 232.9729,-16.8314 234.205,-23.7222"/>
</g>
<!-- Node19&#45;&gt;Node9 -->
<g id="edge25" class="edge">
<title>Node19&#45;&gt;Node9</title>
<path fill="none" stroke="#191970" d="M447.5112,-305.0485C558.068,-301.3794 807.7991,-289.4341 885,-255 970.4916,-216.8679 978.3621,-167.9335 996,-76 998.9753,-60.4918 995.6892,-42.8437 991.9524,-29.701"/>
<polygon fill="#191970" stroke="#191970" points="995.1932,-28.3417 988.835,-19.8668 988.5204,-30.4569 995.1932,-28.3417"/>
</g>
<!-- Node20&#45;&gt;Node1 -->
<g id="edge27" class="edge">
<title>Node20&#45;&gt;Node1</title>
<path fill="none" stroke="#191970" d="M158.5938,-296.8906C195.9083,-286.2169 256.2492,-268.9566 296.9886,-257.3033"/>
<polygon fill="#191970" stroke="#191970" points="297.9903,-260.6572 306.6421,-254.5419 296.0652,-253.9271 297.9903,-260.6572"/>
</g>
<!-- Node21 -->
<g id="node22" class="node">
<title>Node21</title>
<polygon fill="#ffffff" stroke="#bfbfbf" points="66.5,-235.5 66.5,-254.5 171.5,-254.5 171.5,-235.5 66.5,-235.5"/>
<text text-anchor="middle" x="119" y="-242.5" font-family="Helvetica,sans-Serif" font-size="10.00" fill="#000000">odp/api/abi/time.h</text>
</g>
<!-- Node20&#45;&gt;Node21 -->
<g id="edge28" class="edge">
<title>Node20&#45;&gt;Node21</title>
<path fill="none" stroke="#191970" d="M124.0625,-296.8906C123.2308,-288.3657 121.9892,-275.6392 120.9438,-264.9235"/>
<polygon fill="#191970" stroke="#191970" points="124.4053,-264.3577 119.9507,-254.7449 117.4383,-265.0375 124.4053,-264.3577"/>
</g>
<!-- Node22 -->
<g id="node23" class="node">
<title>Node22</title>
<g id="a_node23"><a xlink:href="spec_2time_8h.html" target="_top" xlink:title="ODP time. ">
<polygon fill="#ffffff" stroke="#000000" points="143.5,-56.5 143.5,-75.5 256.5,-75.5 256.5,-56.5 143.5,-56.5"/>
<text text-anchor="middle" x="200" y="-63.5" font-family="Helvetica,sans-Serif" font-size="10.00" fill="#000000">odp/api/spec/time.h</text>
</a>
</g>
</g>
<!-- Node20&#45;&gt;Node22 -->
<g id="edge29" class="edge">
<title>Node20&#45;&gt;Node22</title>
<path fill="none" stroke="#191970" d="M140.2147,-296.8994C153.178,-287.8133 171.0818,-272.9174 180,-255 207.9932,-198.7596 205.4103,-121.6324 202.2481,-85.795"/>
<polygon fill="#191970" stroke="#191970" points="205.7153,-85.2919 201.239,-75.6891 198.75,-85.9874 205.7153,-85.2919"/>
</g>
<!-- Node22&#45;&gt;Node4 -->
<g id="edge30" class="edge">
<title>Node22&#45;&gt;Node4</title>
<path fill="none" stroke="#191970" d="M218.1154,-56.2455C234.445,-47.4527 258.671,-34.4079 277.2339,-24.4125"/>
<polygon fill="#191970" stroke="#191970" points="278.9468,-27.4654 286.0922,-19.6427 275.6281,-21.3021 278.9468,-27.4654"/>
</g>
<!-- Node22&#45;&gt;Node9 -->
<g id="edge31" class="edge">
<title>Node22&#45;&gt;Node9</title>
<path fill="none" stroke="#191970" d="M256.7711,-61.9501C398.5258,-51.8377 767.4563,-25.519 918.7745,-14.7244"/>
<polygon fill="#191970" stroke="#191970" points="919.1294,-18.208 928.855,-14.0052 918.6313,-11.2258 919.1294,-18.208"/>
</g>
<!-- Node23&#45;&gt;Node12 -->
<g id="edge33" class="edge">
<title>Node23&#45;&gt;Node12</title>
<path fill="none" stroke="#191970" d="M506.5313,-492.3906C524.075,-483.7591 550.3736,-470.8202 572.3204,-460.0224"/>
<polygon fill="#191970" stroke="#191970" points="573.9939,-463.0997 581.4216,-455.5446 570.9036,-456.8188 573.9939,-463.0997"/>
</g>
<!-- Node24 -->
<g id="node25" class="node">
<title>Node24</title>
<g id="a_node25"><a xlink:href="spec_2packet__types_8h.html" target="_top" xlink:title="ODP packet types. ">
<polygon fill="#ffffff" stroke="#000000" points="426,-425.5 426,-455.5 540,-455.5 540,-425.5 426,-425.5"/>
<text text-anchor="start" x="434" y="-443.5" font-family="Helvetica,sans-Serif" font-size="10.00" fill="#000000">odp/api/spec/packet</text>
<text text-anchor="middle" x="483" y="-432.5" font-family="Helvetica,sans-Serif" font-size="10.00" fill="#000000">_types.h</text>
</a>
</g>
</g>
<!-- Node23&#45;&gt;Node24 -->
<g id="edge34" class="edge">
<title>Node23&#45;&gt;Node24</title>
<path fill="none" stroke="#191970" d="M486.375,-492.3906C485.9088,-485.2234 485.2495,-475.0862 484.6371,-465.671"/>
<polygon fill="#191970" stroke="#191970" points="488.1203,-465.2963 483.9785,-455.5446 481.135,-465.7507 488.1203,-465.2963"/>
</g>
<!-- Node24&#45;&gt;Node4 -->
<g id="edge35" class="edge">
<title>Node24&#45;&gt;Node4</title>
<path fill="none" stroke="#191970" d="M425.6755,-431.2143C324.6667,-413.7195 121.0063,-373.0058 72,-322 28.0861,-276.2944 38,-246.8832 38,-183.5 38,-183.5 38,-183.5 38,-122 38,-72.7548 82.5757,-77.2501 127,-56 160.7436,-39.8589 200.9158,-28.832 234.4532,-21.6306"/>
<polygon fill="#191970" stroke="#191970" points="235.5542,-24.9767 244.6339,-19.517 234.1312,-18.1228 235.5542,-24.9767"/>
</g>
<!-- Node24&#45;&gt;Node9 -->
<g id="edge55" class="edge">
<title>Node24&#45;&gt;Node9</title>
<path fill="none" stroke="#191970" d="M540.2869,-426.7448C543.565,-426.1144 546.8197,-425.5265 550,-425 677.2085,-403.9406 1118,-435.4399 1118,-306.5 1118,-306.5 1118,-306.5 1118,-122 1118,-72.0478 1062.4295,-39.8768 1023.1292,-23.371"/>
<polygon fill="#191970" stroke="#191970" points="1024.1156,-19.9953 1013.5318,-19.5108 1021.5034,-26.4897 1024.1156,-19.9953"/>
</g>
<!-- Node24&#45;&gt;Node17 -->
<g id="edge36" class="edge">
<title>Node24&#45;&gt;Node17</title>
<path fill="none" stroke="#191970" d="M462.8045,-425.2967C450.8564,-416.302 435.5361,-404.7687 422.3862,-394.8694"/>
<polygon fill="#191970" stroke="#191970" points="424.2098,-391.8613 414.1156,-388.6432 419.9998,-397.4538 424.2098,-391.8613"/>
</g>
<!-- Node25 -->
<g id="node26" class="node">
<title>Node25</title>
<g id="a_node26"><a xlink:href="queue__types_8h.html" target="_top" xlink:title="ODP queue. ">
<polygon fill="#ffffff" stroke="#000000" points="769.5,-364 769.5,-383 896.5,-383 896.5,-364 769.5,-364"/>
<text text-anchor="middle" x="833" y="-371" font-family="Helvetica,sans-Serif" font-size="10.00" fill="#000000">odp/api/queue_types.h</text>
</a>
</g>
</g>
<!-- Node24&#45;&gt;Node25 -->
<g id="edge37" class="edge">
<title>Node24&#45;&gt;Node25</title>
<path fill="none" stroke="#191970" d="M540.3429,-427.0461C543.6068,-426.3389 546.8431,-425.652 550,-425 623.703,-409.7773 708.7028,-394.6303 766.1577,-384.7451"/>
<polygon fill="#191970" stroke="#191970" points="766.9361,-388.1628 776.2005,-383.0225 765.7527,-381.2635 766.9361,-388.1628"/>
</g>
<!-- Node26 -->
<g id="node27" class="node">
<title>Node26</title>
<polygon fill="#ffffff" stroke="#bfbfbf" points="760.5,-297 760.5,-316 905.5,-316 905.5,-297 760.5,-297"/>
<text text-anchor="middle" x="833" y="-304" font-family="Helvetica,sans-Serif" font-size="10.00" fill="#000000">odp/api/abi/queue_types.h</text>
</g>
<!-- Node25&#45;&gt;Node26 -->
<g id="edge38" class="edge">
<title>Node25&#45;&gt;Node26</title>
<path fill="none" stroke="#191970" d="M833,-363.9005C833,-354.149 833,-338.7597 833,-326.3695"/>
<polygon fill="#191970" stroke="#191970" points="836.5001,-326.0816 833,-316.0817 829.5001,-326.0817 836.5001,-326.0816"/>
</g>
<!-- Node27 -->
<g id="node28" class="node">
<title>Node27</title>
<g id="a_node28"><a xlink:href="spec_2queue__types_8h.html" target="_top" xlink:title="ODP queue types. ">
<polygon fill="#ffffff" stroke="#000000" points="923.5,-291.5 923.5,-321.5 1034.5,-321.5 1034.5,-291.5 923.5,-291.5"/>
<text text-anchor="start" x="931.5" y="-309.5" font-family="Helvetica,sans-Serif" font-size="10.00" fill="#000000">odp/api/spec/queue</text>
<text text-anchor="middle" x="979" y="-298.5" font-family="Helvetica,sans-Serif" font-size="10.00" fill="#000000">_types.h</text>
</a>
</g>
</g>
<!-- Node25&#45;&gt;Node27 -->
<g id="edge39" class="edge">
<title>Node25&#45;&gt;Node27</title>
<path fill="none" stroke="#191970" d="M853.9182,-363.9005C875.5011,-353.9961 909.7576,-338.2756 936.9677,-325.7888"/>
<polygon fill="#191970" stroke="#191970" points="938.6371,-328.8737 946.266,-321.5218 935.7175,-322.5116 938.6371,-328.8737"/>
</g>
<!-- Node27&#45;&gt;Node4 -->
<g id="edge40" class="edge">
<title>Node27&#45;&gt;Node4</title>
<path fill="none" stroke="#191970" d="M923.1889,-292.8149C920.4228,-292.1895 917.6815,-291.5811 915,-291 706.1227,-245.7352 636.4149,-289.9356 443,-199 423.2754,-189.7263 423.5672,-179.4158 405,-168 371.4404,-147.3662 350.7899,-160.8843 324,-132 298.2023,-104.1855 298.4937,-56.6224 301.1465,-29.8396"/>
<polygon fill="#191970" stroke="#191970" points="304.6405,-30.098 302.3587,-19.7518 297.6905,-29.2627 304.6405,-30.098"/>
</g>
<!-- Node27&#45;&gt;Node9 -->
<g id="edge54" class="edge">
<title>Node27&#45;&gt;Node9</title>
<path fill="none" stroke="#191970" d="M1014.9551,-291.4452C1031.2045,-282.9544 1049.335,-270.8363 1061,-255 1080.5006,-228.5262 1080,-216.3806 1080,-183.5 1080,-183.5 1080,-183.5 1080,-122 1080,-90.7875 1075.4397,-80.4196 1056,-56 1045.446,-42.7424 1029.9838,-32.0914 1016.1812,-24.3904"/>
<polygon fill="#191970" stroke="#191970" points="1017.4496,-21.1025 1006.9714,-19.5344 1014.1847,-27.2945 1017.4496,-21.1025"/>
</g>
<!-- Node28 -->
<g id="node29" class="node">
<title>Node28</title>
<g id="a_node29"><a xlink:href="schedule__types_8h.html" target="_top" xlink:title="ODP schedule. ">
<polygon fill="#ffffff" stroke="#000000" points="736,-235.5 736,-254.5 876,-254.5 876,-235.5 736,-235.5"/>
<text text-anchor="middle" x="806" y="-242.5" font-family="Helvetica,sans-Serif" font-size="10.00" fill="#000000">odp/api/schedule_types.h</text>
</a>
</g>
</g>
<!-- Node27&#45;&gt;Node28 -->
<g id="edge41" class="edge">
<title>Node27&#45;&gt;Node28</title>
<path fill="none" stroke="#191970" d="M936.6794,-291.4554C907.8139,-281.194 869.9761,-267.7429 842.4484,-257.9571"/>
<polygon fill="#191970" stroke="#191970" points="843.4036,-254.5821 832.8089,-254.5303 841.0588,-261.1778 843.4036,-254.5821"/>
</g>
<!-- Node33 -->
<g id="node34" class="node">
<title>Node33</title>
<g id="a_node34"><a xlink:href="deprecated_8h.html" target="_top" xlink:title="Control deprecated API definitions. ">
<polygon fill="#ffffff" stroke="#000000" points="932.5,-235.5 932.5,-254.5 1051.5,-254.5 1051.5,-235.5 932.5,-235.5"/>
<text text-anchor="middle" x="992" y="-242.5" font-family="Helvetica,sans-Serif" font-size="10.00" fill="#000000">odp/api/deprecated.h</text>
</a>
</g>
</g>
<!-- Node27&#45;&gt;Node33 -->
<g id="edge50" class="edge">
<title>Node27&#45;&gt;Node33</title>
<path fill="none" stroke="#191970" d="M982.2135,-291.2977C983.9052,-283.2945 986.0001,-273.3843 987.817,-264.7889"/>
<polygon fill="#191970" stroke="#191970" points="991.2747,-265.3546 989.9185,-254.8469 984.426,-263.9069 991.2747,-265.3546"/>
</g>
<!-- Node29 -->
<g id="node30" class="node">
<title>Node29</title>
<polygon fill="#ffffff" stroke="#bfbfbf" points="820.5,-168.5 820.5,-198.5 937.5,-198.5 937.5,-168.5 820.5,-168.5"/>
<text text-anchor="start" x="828.5" y="-186.5" font-family="Helvetica,sans-Serif" font-size="10.00" fill="#000000">odp/api/abi/schedule</text>
<text text-anchor="middle" x="879" y="-175.5" font-family="Helvetica,sans-Serif" font-size="10.00" fill="#000000">_types.h</text>
</g>
<!-- Node28&#45;&gt;Node29 -->
<g id="edge42" class="edge">
<title>Node28&#45;&gt;Node29</title>
<path fill="none" stroke="#191970" d="M817.4063,-235.3906C827.0115,-227.2986 841.1104,-215.4207 853.396,-205.0705"/>
<polygon fill="#191970" stroke="#191970" points="855.7495,-207.6643 861.1422,-198.5446 851.2394,-202.3109 855.7495,-207.6643"/>
</g>
<!-- Node30 -->
<g id="node31" class="node">
<title>Node30</title>
<g id="a_node31"><a xlink:href="spec_2schedule__types_8h.html" target="_top" xlink:title="ODP schedule types. ">
<polygon fill="#ffffff" stroke="#000000" points="677.5,-168.5 677.5,-198.5 802.5,-198.5 802.5,-168.5 677.5,-168.5"/>
<text text-anchor="start" x="685.5" y="-186.5" font-family="Helvetica,sans-Serif" font-size="10.00" fill="#000000">odp/api/spec/schedule</text>
<text text-anchor="middle" x="740" y="-175.5" font-family="Helvetica,sans-Serif" font-size="10.00" fill="#000000">_types.h</text>
</a>
</g>
</g>
<!-- Node28&#45;&gt;Node30 -->
<g id="edge43" class="edge">
<title>Node28&#45;&gt;Node30</title>
<path fill="none" stroke="#191970" d="M795.6875,-235.3906C787.086,-227.3756 774.4988,-215.6466 763.4666,-205.3666"/>
<polygon fill="#191970" stroke="#191970" points="765.8476,-202.8012 756.1454,-198.5446 761.0755,-207.9225 765.8476,-202.8012"/>
</g>
<!-- Node30&#45;&gt;Node4 -->
<g id="edge44" class="edge">
<title>Node30&#45;&gt;Node4</title>
<path fill="none" stroke="#191970" d="M677.3681,-178.4322C620.9962,-172.3026 536.7068,-159.1978 468,-132 406.7371,-107.7489 348.0705,-54.4996 320.4604,-27.0726"/>
<polygon fill="#191970" stroke="#191970" points="322.7419,-24.4023 313.2192,-19.758 317.7673,-29.3271 322.7419,-24.4023"/>
</g>
<!-- Node30&#45;&gt;Node9 -->
<g id="edge49" class="edge">
<title>Node30&#45;&gt;Node9</title>
<path fill="none" stroke="#191970" d="M802.7168,-169.1377C861.4403,-155.4988 941.0546,-136.4364 947,-132 970.1532,-114.723 971.3508,-103.5637 980,-76 984.6832,-61.0752 985.7997,-43.3613 985.8184,-30.0445"/>
<polygon fill="#191970" stroke="#191970" points="989.3101,-29.5836 985.6143,-19.6543 982.3115,-29.7211 989.3101,-29.5836"/>
</g>
<!-- Node31 -->
<g id="node32" class="node">
<title>Node31</title>
<g id="a_node32"><a xlink:href="support_8h.html" target="_top" xlink:title="ODP support API &#45; platform specific header. ">
<polygon fill="#ffffff" stroke="#000000" points="836.5,-112.5 836.5,-131.5 937.5,-131.5 937.5,-112.5 836.5,-112.5"/>
<text text-anchor="middle" x="887" y="-119.5" font-family="Helvetica,sans-Serif" font-size="10.00" fill="#000000">odp/api/support.h</text>
</a>
</g>
</g>
<!-- Node30&#45;&gt;Node31 -->
<g id="edge45" class="edge">
<title>Node30&#45;&gt;Node31</title>
<path fill="none" stroke="#191970" d="M775.9602,-168.4554C800.0573,-158.374 831.513,-145.2139 854.7903,-135.4755"/>
<polygon fill="#191970" stroke="#191970" points="856.3459,-138.6187 864.2202,-131.5303 853.6442,-132.1611 856.3459,-138.6187"/>
</g>
<!-- Node32 -->
<g id="node33" class="node">
<title>Node32</title>
<g id="a_node33"><a xlink:href="spec_2support_8h.html" target="_top" xlink:title="ODP support API. ">
<polygon fill="#ffffff" stroke="#000000" points="647.5,-56.5 647.5,-75.5 774.5,-75.5 774.5,-56.5 647.5,-56.5"/>
<text text-anchor="middle" x="711" y="-63.5" font-family="Helvetica,sans-Serif" font-size="10.00" fill="#000000">odp/api/spec/support.h</text>
</a>
</g>
</g>
<!-- Node31&#45;&gt;Node32 -->
<g id="edge46" class="edge">
<title>Node31&#45;&gt;Node32</title>
<path fill="none" stroke="#191970" d="M856.7445,-112.3733C827.3517,-103.021 782.5708,-88.7725 750.4066,-78.5385"/>
<polygon fill="#191970" stroke="#191970" points="751.4512,-75.198 740.8607,-75.5011 749.3287,-81.8685 751.4512,-75.198"/>
</g>
<!-- Node32&#45;&gt;Node4 -->
<g id="edge47" class="edge">
<title>Node32&#45;&gt;Node4</title>
<path fill="none" stroke="#191970" d="M647.4063,-57.25C573.4813,-47.0785 451.8149,-30.3382 374.9026,-19.7556"/>
<polygon fill="#191970" stroke="#191970" points="375.2058,-16.2645 364.822,-18.3686 374.2516,-23.1991 375.2058,-16.2645"/>
</g>
<!-- Node32&#45;&gt;Node9 -->
<g id="edge48" class="edge">
<title>Node32&#45;&gt;Node9</title>
<path fill="none" stroke="#191970" d="M757.791,-56.4369C804.9795,-46.7925 877.872,-31.8948 928.3124,-21.5858"/>
<polygon fill="#191970" stroke="#191970" points="929.3054,-24.9553 938.402,-19.5237 927.9037,-18.097 929.3054,-24.9553"/>
</g>
<!-- Node34 -->
<g id="node35" class="node">
<title>Node34</title>
<g id="a_node35"><a xlink:href="spec_2deprecated_8h.html" target="_top" xlink:title="Macro for deprecated API definitions. ">
<polygon fill="#ffffff" stroke="#000000" points="792.5,-56.5 792.5,-75.5 937.5,-75.5 937.5,-56.5 792.5,-56.5"/>
<text text-anchor="middle" x="865" y="-63.5" font-family="Helvetica,sans-Serif" font-size="10.00" fill="#000000">odp/api/spec/deprecated.h</text>
</a>
</g>
</g>
<!-- Node33&#45;&gt;Node34 -->
<g id="edge51" class="edge">
<title>Node33&#45;&gt;Node34</title>
<path fill="none" stroke="#191970" d="M991.0768,-235.154C988.3841,-211.3946 978.6091,-150.0722 947,-112 935.2567,-97.8556 917.9752,-87.2534 902.3013,-79.8143"/>
<polygon fill="#191970" stroke="#191970" points="903.3726,-76.46 892.8137,-75.5877 900.5241,-82.8542 903.3726,-76.46"/>
</g>
<!-- Node34&#45;&gt;Node4 -->
<g id="edge52" class="edge">
<title>Node34&#45;&gt;Node4</title>
<path fill="none" stroke="#191970" d="M792.1532,-56.9114C789.4012,-56.5983 786.6761,-56.2934 784,-56 638.8204,-40.0848 468.594,-24.4981 374.8833,-16.1836"/>
<polygon fill="#191970" stroke="#191970" points="374.9421,-12.6752 364.6723,-15.2796 374.3247,-19.6479 374.9421,-12.6752"/>
</g>
<!-- Node34&#45;&gt;Node9 -->
<g id="edge53" class="edge">
<title>Node34&#45;&gt;Node9</title>
<path fill="none" stroke="#191970" d="M885.6287,-56.3733C904.8919,-47.3838 933.8486,-33.8706 955.5419,-23.7471"/>
<polygon fill="#191970" stroke="#191970" points="957.0587,-26.9017 964.6405,-19.5011 954.0985,-20.5584 957.0587,-26.9017"/>
</g>
</g>
</svg>
