<?xml version="1.0" encoding="UTF-8" standalone="no"?>
<!DOCTYPE svg PUBLIC "-//W3C//DTD SVG 1.1//EN"
 "http://www.w3.org/Graphics/SVG/1.1/DTD/svg11.dtd">
<!-- Generated by graphviz version 2.40.1 (20161225.0304)
 -->
<!-- Title: packet_flag_inlines.h Pages: 1 -->
<svg width="244pt" height="151pt"
 viewBox="0.00 0.00 243.50 151.00" xmlns="http://www.w3.org/2000/svg" xmlns:xlink="http://www.w3.org/1999/xlink">
<g id="graph0" class="graph" transform="scale(1 1) rotate(0) translate(4 147)">
<title>packet_flag_inlines.h</title>
<polygon fill="#ffffff" stroke="transparent" points="-4,4 -4,-147 239.5,-147 239.5,4 -4,4"/>
<!-- Node0 -->
<g id="node1" class="node">
<title>Node0</title>
<polygon fill="#bfbfbf" stroke="#000000" points="57,-123.5 57,-142.5 176,-142.5 176,-123.5 57,-123.5"/>
<text text-anchor="middle" x="116.5" y="-130.5" font-family="Helvetica,sans-Serif" font-size="10.00" fill="#000000">packet_flag_inlines.h</text>
</g>
<!-- Node1 -->
<g id="node2" class="node">
<title>Node1</title>
<polygon fill="#ffffff" stroke="#bfbfbf" points="0,-56.5 0,-86.5 107,-86.5 107,-56.5 0,-56.5"/>
<text text-anchor="start" x="8" y="-74.5" font-family="Helvetica,sans-Serif" font-size="10.00" fill="#000000">odp/api/abi/packet</text>
<text text-anchor="middle" x="53.5" y="-63.5" font-family="Helvetica,sans-Serif" font-size="10.00" fill="#000000">_types.h</text>
</g>
<!-- Node0&#45;&gt;Node1 -->
<g id="edge1" class="edge">
<title>Node0&#45;&gt;Node1</title>
<path fill="none" stroke="#191970" d="M106.6563,-123.3906C98.5247,-115.4527 86.6614,-103.8718 76.2041,-93.6635"/>
<polygon fill="#191970" stroke="#191970" points="78.5122,-91.0255 68.9115,-86.5446 73.6224,-96.0345 78.5122,-91.0255"/>
</g>
<!-- Node2 -->
<g id="node3" class="node">
<title>Node2</title>
<g id="a_node3"><a xlink:href="packet__inline__types_8h.html" target="_top" xlink:title="ODP packet descriptor. ">
<polygon fill="#ffffff" stroke="#000000" points="125.5,-56.5 125.5,-86.5 235.5,-86.5 235.5,-56.5 125.5,-56.5"/>
<text text-anchor="start" x="133.5" y="-74.5" font-family="Helvetica,sans-Serif" font-size="10.00" fill="#000000">odp/api/plat/packet</text>
<text text-anchor="middle" x="180.5" y="-63.5" font-family="Helvetica,sans-Serif" font-size="10.00" fill="#000000">_inline_types.h</text>
</a>
</g>
</g>
<!-- Node0&#45;&gt;Node2 -->
<g id="edge2" class="edge">
<title>Node0&#45;&gt;Node2</title>
<path fill="none" stroke="#191970" d="M126.5,-123.3906C134.7606,-115.4527 146.8122,-103.8718 157.4355,-93.6635"/>
<polygon fill="#191970" stroke="#191970" points="160.0584,-95.9971 164.8438,-86.5446 155.2082,-90.9498 160.0584,-95.9971"/>
</g>
<!-- Node3 -->
<g id="node4" class="node">
<title>Node3</title>
<polygon fill="#ffffff" stroke="#bfbfbf" points="154,-.5 154,-19.5 207,-19.5 207,-.5 154,-.5"/>
<text text-anchor="middle" x="180.5" y="-7.5" font-family="Helvetica,sans-Serif" font-size="10.00" fill="#000000">stdint.h</text>
</g>
<!-- Node2&#45;&gt;Node3 -->
<g id="edge3" class="edge">
<title>Node2&#45;&gt;Node3</title>
<path fill="none" stroke="#191970" d="M180.5,-56.2977C180.5,-48.3834 180.5,-38.6043 180.5,-30.0759"/>
<polygon fill="#191970" stroke="#191970" points="184.0001,-29.8469 180.5,-19.8469 177.0001,-29.847 184.0001,-29.8469"/>
</g>
</g>
</svg>
