<?xml version="1.0" encoding="UTF-8" standalone="no"?>
<!DOCTYPE svg PUBLIC "-//W3C//DTD SVG 1.1//EN"
 "http://www.w3.org/Graphics/SVG/1.1/DTD/svg11.dtd">
<!-- Generated by graphviz version 2.40.1 (20161225.0304)
 -->
<!-- Title: packet_inlines.h Pages: 1 -->
<svg width="2021pt" height="587pt"
 viewBox="0.00 0.00 2021.00 587.00" xmlns="http://www.w3.org/2000/svg" xmlns:xlink="http://www.w3.org/1999/xlink">
<g id="graph0" class="graph" transform="scale(1 1) rotate(0) translate(4 583)">
<title>packet_inlines.h</title>
<polygon fill="#ffffff" stroke="transparent" points="-4,4 -4,-583 2017,-583 2017,4 -4,4"/>
<!-- Node0 -->
<g id="node1" class="node">
<title>Node0</title>
<polygon fill="#bfbfbf" stroke="#000000" points="1125,-559.5 1125,-578.5 1221,-578.5 1221,-559.5 1125,-559.5"/>
<text text-anchor="middle" x="1173" y="-566.5" font-family="Helvetica,sans-Serif" font-size="10.00" fill="#000000">packet_inlines.h</text>
</g>
<!-- Node1 -->
<g id="node2" class="node">
<title>Node1</title>
<polygon fill="#ffffff" stroke="#bfbfbf" points="501,-498 501,-517 617,-517 617,-498 501,-498"/>
<text text-anchor="middle" x="559" y="-505" font-family="Helvetica,sans-Serif" font-size="10.00" fill="#000000">odp/api/abi/packet.h</text>
</g>
<!-- Node0&#45;&gt;Node1 -->
<g id="edge1" class="edge">
<title>Node0&#45;&gt;Node1</title>
<path fill="none" stroke="#191970" d="M1124.7978,-567.2702C1029.1685,-563.3269 808.8841,-551.6926 626,-523 619.5755,-521.9921 612.8517,-520.7113 606.2469,-519.3196"/>
<polygon fill="#191970" stroke="#191970" points="606.5451,-515.8012 596.0258,-517.0643 605.0368,-522.6368 606.5451,-515.8012"/>
</g>
<!-- Node2 -->
<g id="node3" class="node">
<title>Node2</title>
<g id="a_node3"><a xlink:href="packet__types_8h.html" target="_top" xlink:title="ODP packet. ">
<polygon fill="#ffffff" stroke="#000000" points="635,-498 635,-517 765,-517 765,-498 635,-498"/>
<text text-anchor="middle" x="700" y="-505" font-family="Helvetica,sans-Serif" font-size="10.00" fill="#000000">odp/api/packet_types.h</text>
</a>
</g>
</g>
<!-- Node0&#45;&gt;Node2 -->
<g id="edge2" class="edge">
<title>Node0&#45;&gt;Node2</title>
<path fill="none" stroke="#191970" d="M1124.9235,-564.5995C1050.5405,-557.5181 903.1766,-542.4009 779,-523 771.3294,-521.8016 763.2682,-520.3935 755.347,-518.9231"/>
<polygon fill="#191970" stroke="#191970" points="755.9059,-515.4668 745.4283,-517.0384 754.5992,-522.3437 755.9059,-515.4668"/>
</g>
<!-- Node27 -->
<g id="node28" class="node">
<title>Node27</title>
<g id="a_node28"><a xlink:href="pool_8h.html" target="_top" xlink:title="ODP pool. ">
<polygon fill="#ffffff" stroke="#000000" points="897,-498 897,-517 983,-517 983,-498 897,-498"/>
<text text-anchor="middle" x="940" y="-505" font-family="Helvetica,sans-Serif" font-size="10.00" fill="#000000">odp/api/pool.h</text>
</a>
</g>
</g>
<!-- Node0&#45;&gt;Node27 -->
<g id="edge41" class="edge">
<title>Node0&#45;&gt;Node27</title>
<path fill="none" stroke="#191970" d="M1135.8895,-559.4141C1100.2513,-550.1816 1044.9098,-535.7747 997,-523 992.9869,-521.9299 988.8169,-520.8105 984.6402,-519.6841"/>
<polygon fill="#191970" stroke="#191970" points="985.5198,-516.2964 974.9528,-517.0632 983.6917,-523.0534 985.5198,-516.2964"/>
</g>
<!-- Node30 -->
<g id="node31" class="node">
<title>Node30</title>
<polygon fill="#ffffff" stroke="#bfbfbf" points="1183,-431 1183,-450 1293,-450 1293,-431 1183,-431"/>
<text text-anchor="middle" x="1238" y="-438" font-family="Helvetica,sans-Serif" font-size="10.00" fill="#000000">odp/api/abi/event.h</text>
</g>
<!-- Node0&#45;&gt;Node30 -->
<g id="edge65" class="edge">
<title>Node0&#45;&gt;Node30</title>
<path fill="none" stroke="#191970" d="M1124.9653,-561.4589C1072.7843,-551.1908 1000.5447,-529.6377 1030,-492 1030.6261,-491.2 1127.3411,-467.4894 1188.6538,-452.5231"/>
<polygon fill="#191970" stroke="#191970" points="1189.6566,-455.8812 1198.5419,-450.1103 1187.9972,-449.0807 1189.6566,-455.8812"/>
</g>
<!-- Node33 -->
<g id="node34" class="node">
<title>Node33</title>
<polygon fill="#ffffff" stroke="#bfbfbf" points="1039,-498 1039,-517 1169,-517 1169,-498 1039,-498"/>
<text text-anchor="middle" x="1104" y="-505" font-family="Helvetica,sans-Serif" font-size="10.00" fill="#000000">odp/api/abi/packet_io.h</text>
</g>
<!-- Node0&#45;&gt;Node33 -->
<g id="edge53" class="edge">
<title>Node0&#45;&gt;Node33</title>
<path fill="none" stroke="#191970" d="M1162.2188,-559.3906C1151.6474,-549.9683 1135.3175,-535.4134 1122.6397,-524.1137"/>
<polygon fill="#191970" stroke="#191970" points="1124.7272,-521.2858 1114.9333,-517.2449 1120.0696,-526.5114 1124.7272,-521.2858"/>
</g>
<!-- Node34 -->
<g id="node35" class="node">
<title>Node34</title>
<g id="a_node35"><a xlink:href="hints_8h.html" target="_top" xlink:title="ODP compiler hints. ">
<polygon fill="#ffffff" stroke="#000000" points="671.5,-364 671.5,-383 760.5,-383 760.5,-364 671.5,-364"/>
<text text-anchor="middle" x="716" y="-371" font-family="Helvetica,sans-Serif" font-size="10.00" fill="#000000">odp/api/hints.h</text>
</a>
</g>
</g>
<!-- Node0&#45;&gt;Node34 -->
<g id="edge54" class="edge">
<title>Node0&#45;&gt;Node34</title>
<path fill="none" stroke="#191970" d="M1124.9816,-568.0783C1039.6949,-565.5931 866.1281,-556.4545 817,-523 775.8953,-495.0091 791.9631,-465.4255 763,-425 754.1877,-412.7002 742.7755,-400.1334 733.4034,-390.4928"/>
<polygon fill="#191970" stroke="#191970" points="735.6431,-387.7811 726.1125,-383.153 730.6768,-392.7143 735.6431,-387.7811"/>
</g>
<!-- Node36 -->
<g id="node37" class="node">
<title>Node36</title>
<g id="a_node37"><a xlink:href="time_8h.html" target="_top" xlink:title="ODP time. ">
<polygon fill="#ffffff" stroke="#000000" points="792.5,-297 792.5,-316 879.5,-316 879.5,-297 792.5,-297"/>
<text text-anchor="middle" x="836" y="-304" font-family="Helvetica,sans-Serif" font-size="10.00" fill="#000000">odp/api/time.h</text>
</a>
</g>
</g>
<!-- Node0&#45;&gt;Node36 -->
<g id="edge58" class="edge">
<title>Node0&#45;&gt;Node36</title>
<path fill="none" stroke="#191970" d="M1124.9415,-564.8106C1044.0675,-557.31 887.7986,-540.708 870,-523 816.5191,-469.7915 825.4872,-369.1271 832.2498,-326.4396"/>
<polygon fill="#191970" stroke="#191970" points="835.7205,-326.908 833.9637,-316.4598 828.8215,-325.7231 835.7205,-326.908"/>
</g>
<!-- Node39 -->
<g id="node40" class="node">
<title>Node39</title>
<polygon fill="#ffffff" stroke="#bfbfbf" points="1187,-498 1187,-517 1297,-517 1297,-498 1187,-498"/>
<text text-anchor="middle" x="1242" y="-505" font-family="Helvetica,sans-Serif" font-size="10.00" fill="#000000">odp/api/abi/buffer.h</text>
</g>
<!-- Node0&#45;&gt;Node39 -->
<g id="edge64" class="edge">
<title>Node0&#45;&gt;Node39</title>
<path fill="none" stroke="#191970" d="M1183.7813,-559.3906C1194.3526,-549.9683 1210.6825,-535.4134 1223.3603,-524.1137"/>
<polygon fill="#191970" stroke="#191970" points="1225.9304,-526.5114 1231.0667,-517.2449 1221.2728,-521.2858 1225.9304,-526.5114"/>
</g>
<!-- Node40 -->
<g id="node41" class="node">
<title>Node40</title>
<g id="a_node41"><a xlink:href="packet__inline__types_8h.html" target="_top" xlink:title="ODP packet descriptor. ">
<polygon fill="#ffffff" stroke="#000000" points="859,-358.5 859,-388.5 969,-388.5 969,-358.5 859,-358.5"/>
<text text-anchor="start" x="867" y="-376.5" font-family="Helvetica,sans-Serif" font-size="10.00" fill="#000000">odp/api/plat/packet</text>
<text text-anchor="middle" x="914" y="-365.5" font-family="Helvetica,sans-Serif" font-size="10.00" fill="#000000">_inline_types.h</text>
</a>
</g>
</g>
<!-- Node0&#45;&gt;Node40 -->
<g id="edge66" class="edge">
<title>Node0&#45;&gt;Node40</title>
<path fill="none" stroke="#191970" d="M1124.7385,-564.6037C1047.4856,-557.0741 903.1503,-540.7917 888,-523 857.8421,-487.5842 881.6545,-429.9021 899.3344,-397.5173"/>
<polygon fill="#191970" stroke="#191970" points="902.4398,-399.1365 904.333,-388.7121 896.3524,-395.6806 902.4398,-399.1365"/>
</g>
<!-- Node41 -->
<g id="node42" class="node">
<title>Node41</title>
<g id="a_node42"><a xlink:href="pool__inline__types_8h.html" target="_top" xlink:title="ODP packet descriptor. ">
<polygon fill="#ffffff" stroke="#000000" points="1315.5,-492.5 1315.5,-522.5 1446.5,-522.5 1446.5,-492.5 1315.5,-492.5"/>
<text text-anchor="start" x="1323.5" y="-510.5" font-family="Helvetica,sans-Serif" font-size="10.00" fill="#000000">odp/api/plat/pool_inline</text>
<text text-anchor="middle" x="1381" y="-499.5" font-family="Helvetica,sans-Serif" font-size="10.00" fill="#000000">_types.h</text>
</a>
</g>
</g>
<!-- Node0&#45;&gt;Node41 -->
<g id="edge68" class="edge">
<title>Node0&#45;&gt;Node41</title>
<path fill="none" stroke="#191970" d="M1205.5,-559.3906C1236.1264,-550.3352 1282.7867,-536.539 1320.2983,-525.4479"/>
<polygon fill="#191970" stroke="#191970" points="1321.5203,-528.7364 1330.1175,-522.5446 1319.5355,-522.0237 1321.5203,-528.7364"/>
</g>
<!-- Node42 -->
<g id="node43" class="node">
<title>Node42</title>
<g id="a_node43"><a xlink:href="pktio__inlines_8h_source.html" target="_top" xlink:title="odp/api/plat/pktio\l_inlines.h">
<polygon fill="#ffffff" stroke="#000000" points="1465,-492.5 1465,-522.5 1567,-522.5 1567,-492.5 1465,-492.5"/>
<text text-anchor="start" x="1473" y="-510.5" font-family="Helvetica,sans-Serif" font-size="10.00" fill="#000000">odp/api/plat/pktio</text>
<text text-anchor="middle" x="1516" y="-499.5" font-family="Helvetica,sans-Serif" font-size="10.00" fill="#000000">_inlines.h</text>
</a>
</g>
</g>
<!-- Node0&#45;&gt;Node42 -->
<g id="edge69" class="edge">
<title>Node0&#45;&gt;Node42</title>
<path fill="none" stroke="#191970" d="M1221.0671,-562.5573C1275.5286,-554.953 1367.1189,-541.2464 1454.8391,-523.1408"/>
<polygon fill="#191970" stroke="#191970" points="1455.6117,-526.5551 1464.6859,-521.0861 1454.1818,-519.7027 1455.6117,-526.5551"/>
</g>
<!-- Node43 -->
<g id="node44" class="node">
<title>Node43</title>
<polygon fill="#ffffff" stroke="#bfbfbf" points="1585.5,-498 1585.5,-517 1638.5,-517 1638.5,-498 1585.5,-498"/>
<text text-anchor="middle" x="1612" y="-505" font-family="Helvetica,sans-Serif" font-size="10.00" fill="#000000">string.h</text>
</g>
<!-- Node0&#45;&gt;Node43 -->
<g id="edge70" class="edge">
<title>Node0&#45;&gt;Node43</title>
<path fill="none" stroke="#191970" d="M1221.204,-565.2752C1313.1005,-557.8814 1510.0758,-540.545 1576,-523 1578.3303,-522.3798 1580.7053,-521.6343 1583.0679,-520.8101"/>
<polygon fill="#191970" stroke="#191970" points="1584.5252,-523.9984 1592.5647,-517.0979 1581.9767,-517.4788 1584.5252,-523.9984"/>
</g>
<!-- Node44 -->
<g id="node45" class="node">
<title>Node44</title>
<polygon fill="#ffffff" stroke="#bfbfbf" points="1657,-498 1657,-517 1729,-517 1729,-498 1657,-498"/>
<text text-anchor="middle" x="1693" y="-505" font-family="Helvetica,sans-Serif" font-size="10.00" fill="#000000">sys/types.h</text>
</g>
<!-- Node0&#45;&gt;Node44 -->
<g id="edge71" class="edge">
<title>Node0&#45;&gt;Node44</title>
<path fill="none" stroke="#191970" d="M1221.1053,-568.0643C1307.5279,-565.5626 1494.3805,-556.4065 1648,-523 1651.6031,-522.2165 1655.3175,-521.2351 1658.9948,-520.1487"/>
<polygon fill="#191970" stroke="#191970" points="1660.0846,-523.4748 1668.5404,-517.0913 1657.9493,-516.8084 1660.0846,-523.4748"/>
</g>
<!-- Node45 -->
<g id="node46" class="node">
<title>Node45</title>
<polygon fill="#ffffff" stroke="#bfbfbf" points="1747,-498 1747,-517 1821,-517 1821,-498 1747,-498"/>
<text text-anchor="middle" x="1784" y="-505" font-family="Helvetica,sans-Serif" font-size="10.00" fill="#000000">rte_config.h</text>
</g>
<!-- Node0&#45;&gt;Node45 -->
<g id="edge72" class="edge">
<title>Node0&#45;&gt;Node45</title>
<path fill="none" stroke="#191970" d="M1221.295,-566.5837C1339.2772,-560.4371 1639.6806,-543.2501 1738,-523 1741.6834,-522.2414 1745.4804,-521.2762 1749.2394,-520.1996"/>
<polygon fill="#191970" stroke="#191970" points="1750.4938,-523.4747 1758.9973,-517.1548 1748.4086,-516.7925 1750.4938,-523.4747"/>
</g>
<!-- Node46 -->
<g id="node47" class="node">
<title>Node46</title>
<polygon fill="#ffffff" stroke="#bfbfbf" points="1839.5,-498 1839.5,-517 1908.5,-517 1908.5,-498 1839.5,-498"/>
<text text-anchor="middle" x="1874" y="-505" font-family="Helvetica,sans-Serif" font-size="10.00" fill="#000000">rte_mbuf.h</text>
</g>
<!-- Node0&#45;&gt;Node46 -->
<g id="edge73" class="edge">
<title>Node0&#45;&gt;Node46</title>
<path fill="none" stroke="#191970" d="M1221.3503,-567.2994C1352.6115,-562.4143 1713.5576,-547.1257 1830,-523 1833.6233,-522.2493 1837.3547,-521.2729 1841.0403,-520.1752"/>
<polygon fill="#191970" stroke="#191970" points="1842.1643,-523.4901 1850.5833,-517.0581 1839.9908,-516.836 1842.1643,-523.4901"/>
</g>
<!-- Node47 -->
<g id="node48" class="node">
<title>Node47</title>
<polygon fill="#ffffff" stroke="#bfbfbf" points="1927,-498 1927,-517 2013,-517 2013,-498 1927,-498"/>
<text text-anchor="middle" x="1970" y="-505" font-family="Helvetica,sans-Serif" font-size="10.00" fill="#000000">rte_memcpy.h</text>
</g>
<!-- Node0&#45;&gt;Node47 -->
<g id="edge74" class="edge">
<title>Node0&#45;&gt;Node47</title>
<path fill="none" stroke="#191970" d="M1221.2346,-567.4591C1364.0743,-562.6685 1783.3107,-546.9086 1918,-523 1922.7362,-522.1593 1927.6519,-521.0373 1932.4869,-519.7796"/>
<polygon fill="#191970" stroke="#191970" points="1933.53,-523.1222 1942.2151,-517.0543 1931.6417,-516.3817 1933.53,-523.1222"/>
</g>
<!-- Node3 -->
<g id="node4" class="node">
<title>Node3</title>
<polygon fill="#ffffff" stroke="#bfbfbf" points="646.5,-425.5 646.5,-455.5 753.5,-455.5 753.5,-425.5 646.5,-425.5"/>
<text text-anchor="start" x="654.5" y="-443.5" font-family="Helvetica,sans-Serif" font-size="10.00" fill="#000000">odp/api/abi/packet</text>
<text text-anchor="middle" x="700" y="-432.5" font-family="Helvetica,sans-Serif" font-size="10.00" fill="#000000">_types.h</text>
</g>
<!-- Node2&#45;&gt;Node3 -->
<g id="edge3" class="edge">
<title>Node2&#45;&gt;Node3</title>
<path fill="none" stroke="#191970" d="M700,-497.9005C700,-489.5099 700,-476.9451 700,-465.7085"/>
<polygon fill="#191970" stroke="#191970" points="703.5001,-465.5217 700,-455.5218 696.5001,-465.5218 703.5001,-465.5217"/>
</g>
<!-- Node4 -->
<g id="node5" class="node">
<title>Node4</title>
<g id="a_node5"><a xlink:href="spec_2packet__types_8h.html" target="_top" xlink:title="ODP packet types. ">
<polygon fill="#ffffff" stroke="#000000" points="506,-425.5 506,-455.5 620,-455.5 620,-425.5 506,-425.5"/>
<text text-anchor="start" x="514" y="-443.5" font-family="Helvetica,sans-Serif" font-size="10.00" fill="#000000">odp/api/spec/packet</text>
<text text-anchor="middle" x="563" y="-432.5" font-family="Helvetica,sans-Serif" font-size="10.00" fill="#000000">_types.h</text>
</a>
</g>
</g>
<!-- Node2&#45;&gt;Node4 -->
<g id="edge4" class="edge">
<title>Node2&#45;&gt;Node4</title>
<path fill="none" stroke="#191970" d="M680.3712,-497.9005C660.2073,-488.0393 628.2546,-472.4128 602.7762,-459.9526"/>
<polygon fill="#191970" stroke="#191970" points="604.2371,-456.7709 593.7161,-455.5218 601.1618,-463.0592 604.2371,-456.7709"/>
</g>
<!-- Node5 -->
<g id="node6" class="node">
<title>Node5</title>
<polygon fill="#ffffff" stroke="#bfbfbf" points="167.5,-.5 167.5,-19.5 288.5,-19.5 288.5,-.5 167.5,-.5"/>
<text text-anchor="middle" x="228" y="-7.5" font-family="Helvetica,sans-Serif" font-size="10.00" fill="#000000">odp/visibility_begin.h</text>
</g>
<!-- Node4&#45;&gt;Node5 -->
<g id="edge5" class="edge">
<title>Node4&#45;&gt;Node5</title>
<path fill="none" stroke="#191970" d="M505.9183,-438.9659C362.7873,-433.5773 0,-409.7365 0,-306.5 0,-306.5 0,-306.5 0,-122 0,-78.9164 33.5465,-77.2939 71,-56 99.3949,-39.8563 133.9609,-28.9341 163.4237,-21.7998"/>
<polygon fill="#191970" stroke="#191970" points="164.2573,-25.1994 173.2035,-19.5235 162.6704,-18.3817 164.2573,-25.1994"/>
</g>
<!-- Node6 -->
<g id="node7" class="node">
<title>Node6</title>
<g id="a_node7"><a xlink:href="proto__stats__types_8h.html" target="_top" xlink:title="ODP proto stats types. ">
<polygon fill="#ffffff" stroke="#000000" points="508,-358.5 508,-388.5 618,-388.5 618,-358.5 508,-358.5"/>
<text text-anchor="start" x="516" y="-376.5" font-family="Helvetica,sans-Serif" font-size="10.00" fill="#000000">odp/api/proto_stats</text>
<text text-anchor="middle" x="563" y="-365.5" font-family="Helvetica,sans-Serif" font-size="10.00" fill="#000000">_types.h</text>
</a>
</g>
</g>
<!-- Node4&#45;&gt;Node6 -->
<g id="edge6" class="edge">
<title>Node4&#45;&gt;Node6</title>
<path fill="none" stroke="#191970" d="M563,-425.2967C563,-417.5013 563,-407.7991 563,-398.9064"/>
<polygon fill="#191970" stroke="#191970" points="566.5001,-398.6431 563,-388.6432 559.5001,-398.6432 566.5001,-398.6431"/>
</g>
<!-- Node16 -->
<g id="node17" class="node">
<title>Node16</title>
<polygon fill="#ffffff" stroke="#bfbfbf" points="929,-.5 929,-19.5 1041,-19.5 1041,-.5 929,-.5"/>
<text text-anchor="middle" x="985" y="-7.5" font-family="Helvetica,sans-Serif" font-size="10.00" fill="#000000">odp/visibility_end.h</text>
</g>
<!-- Node4&#45;&gt;Node16 -->
<g id="edge40" class="edge">
<title>Node4&#45;&gt;Node16</title>
<path fill="none" stroke="#191970" d="M620.1967,-427.8973C626.1899,-426.8112 632.2071,-425.8171 638,-425 795.5243,-402.7818 1344,-465.5835 1344,-306.5 1344,-306.5 1344,-306.5 1344,-122 1344,-84.6561 1324.2938,-74.7531 1292,-56 1252.2477,-32.9157 1129.1517,-20.1705 1051.4396,-14.2357"/>
<polygon fill="#191970" stroke="#191970" points="1051.4908,-10.7299 1041.2583,-13.4771 1050.9706,-17.7105 1051.4908,-10.7299"/>
</g>
<!-- Node17 -->
<g id="node18" class="node">
<title>Node17</title>
<g id="a_node18"><a xlink:href="queue__types_8h.html" target="_top" xlink:title="ODP queue. ">
<polygon fill="#ffffff" stroke="#000000" points="362.5,-364 362.5,-383 489.5,-383 489.5,-364 362.5,-364"/>
<text text-anchor="middle" x="426" y="-371" font-family="Helvetica,sans-Serif" font-size="10.00" fill="#000000">odp/api/queue_types.h</text>
</a>
</g>
</g>
<!-- Node4&#45;&gt;Node17 -->
<g id="edge22" class="edge">
<title>Node4&#45;&gt;Node17</title>
<path fill="none" stroke="#191970" d="M532.2545,-425.4639C509.0606,-414.1209 477.4684,-398.6707 454.7706,-387.5703"/>
<polygon fill="#191970" stroke="#191970" points="456.1588,-384.3531 445.6379,-383.1039 453.0835,-390.6414 456.1588,-384.3531"/>
</g>
<!-- Node7 -->
<g id="node8" class="node">
<title>Node7</title>
<polygon fill="#ffffff" stroke="#bfbfbf" points="192,-291.5 192,-321.5 320,-321.5 320,-291.5 192,-291.5"/>
<text text-anchor="start" x="200" y="-309.5" font-family="Helvetica,sans-Serif" font-size="10.00" fill="#000000">odp/api/abi/proto_stats</text>
<text text-anchor="middle" x="256" y="-298.5" font-family="Helvetica,sans-Serif" font-size="10.00" fill="#000000">_types.h</text>
</g>
<!-- Node6&#45;&gt;Node7 -->
<g id="edge7" class="edge">
<title>Node6&#45;&gt;Node7</title>
<path fill="none" stroke="#191970" d="M507.703,-360.2168C504.4218,-359.4588 501.1687,-358.7149 498,-358 441.7663,-345.3136 377.9849,-331.7752 330.0237,-321.7646"/>
<polygon fill="#191970" stroke="#191970" points="330.5416,-318.2974 320.0379,-319.6835 329.1134,-325.1501 330.5416,-318.2974"/>
</g>
<!-- Node8 -->
<g id="node9" class="node">
<title>Node8</title>
<g id="a_node9"><a xlink:href="spec_2proto__stats__types_8h.html" target="_top" xlink:title="ODP proto stats types. ">
<polygon fill="#ffffff" stroke="#000000" points="509.5,-291.5 509.5,-321.5 616.5,-321.5 616.5,-291.5 509.5,-291.5"/>
<text text-anchor="start" x="517.5" y="-309.5" font-family="Helvetica,sans-Serif" font-size="10.00" fill="#000000">odp/api/spec/proto</text>
<text text-anchor="middle" x="563" y="-298.5" font-family="Helvetica,sans-Serif" font-size="10.00" fill="#000000">_stats_types.h</text>
</a>
</g>
</g>
<!-- Node6&#45;&gt;Node8 -->
<g id="edge8" class="edge">
<title>Node6&#45;&gt;Node8</title>
<path fill="none" stroke="#191970" d="M563,-358.2967C563,-350.5013 563,-340.7991 563,-331.9064"/>
<polygon fill="#191970" stroke="#191970" points="566.5001,-331.6431 563,-321.6432 559.5001,-331.6432 566.5001,-331.6431"/>
</g>
<!-- Node8&#45;&gt;Node5 -->
<g id="edge9" class="edge">
<title>Node8&#45;&gt;Node5</title>
<path fill="none" stroke="#191970" d="M509.3365,-293.6113C504.8359,-292.6747 500.3464,-291.7896 496,-291 330.4504,-260.9253 133,-351.7592 133,-183.5 133,-183.5 133,-183.5 133,-122 133,-78.9765 174.2735,-44.0102 202.4109,-25.1715"/>
<polygon fill="#191970" stroke="#191970" points="204.5021,-27.9879 211.0159,-19.632 200.713,-22.102 204.5021,-27.9879"/>
</g>
<!-- Node9 -->
<g id="node10" class="node">
<title>Node9</title>
<g id="a_node10"><a xlink:href="std__types_8h.html" target="_top" xlink:title="Standard C language types and definitions for ODP. ">
<polygon fill="#ffffff" stroke="#000000" points="949,-235.5 949,-254.5 1061,-254.5 1061,-235.5 949,-235.5"/>
<text text-anchor="middle" x="1005" y="-242.5" font-family="Helvetica,sans-Serif" font-size="10.00" fill="#000000">odp/api/std_types.h</text>
</a>
</g>
</g>
<!-- Node8&#45;&gt;Node9 -->
<g id="edge10" class="edge">
<title>Node8&#45;&gt;Node9</title>
<path fill="none" stroke="#191970" d="M616.756,-299.0204C697.7531,-287.7504 850.9291,-266.4375 938.724,-254.2217"/>
<polygon fill="#191970" stroke="#191970" points="939.4142,-257.6594 948.8364,-252.8146 938.4495,-250.7262 939.4142,-257.6594"/>
</g>
<!-- Node8&#45;&gt;Node16 -->
<g id="edge21" class="edge">
<title>Node8&#45;&gt;Node16</title>
<path fill="none" stroke="#191970" d="M600.993,-291.4286C643.6461,-275.0995 715.2427,-249.4501 779,-235 903.0852,-206.877 946.0701,-249.1543 1063,-199 1083.031,-190.4082 1082.911,-180.1594 1101,-168 1128.7305,-149.3597 1144.515,-156.7158 1167,-132 1190.8367,-105.7983 1213.1503,-83.642 1191,-56 1173.6435,-34.3403 1104.6947,-22.2072 1051.2903,-15.9104"/>
<polygon fill="#191970" stroke="#191970" points="1051.5068,-12.4126 1041.1764,-14.7647 1050.7188,-19.3682 1051.5068,-12.4126"/>
</g>
<!-- Node10 -->
<g id="node11" class="node">
<title>Node10</title>
<polygon fill="#ffffff" stroke="#bfbfbf" points="1110,-174 1110,-193 1240,-193 1240,-174 1110,-174"/>
<text text-anchor="middle" x="1175" y="-181" font-family="Helvetica,sans-Serif" font-size="10.00" fill="#000000">odp/api/abi/std_types.h</text>
</g>
<!-- Node9&#45;&gt;Node10 -->
<g id="edge11" class="edge">
<title>Node9&#45;&gt;Node10</title>
<path fill="none" stroke="#191970" d="M1031.5625,-235.3906C1060.5056,-224.92 1106.9694,-208.1111 1139.1356,-196.4745"/>
<polygon fill="#191970" stroke="#191970" points="1140.4111,-199.7351 1148.624,-193.0419 1138.0298,-193.1526 1140.4111,-199.7351"/>
</g>
<!-- Node11 -->
<g id="node12" class="node">
<title>Node11</title>
<g id="a_node12"><a xlink:href="spec_2std__types_8h.html" target="_top" xlink:title="Standard C language types and definitions for ODP. ">
<polygon fill="#ffffff" stroke="#000000" points="916.5,-174 916.5,-193 1053.5,-193 1053.5,-174 916.5,-174"/>
<text text-anchor="middle" x="985" y="-181" font-family="Helvetica,sans-Serif" font-size="10.00" fill="#000000">odp/api/spec/std_types.h</text>
</a>
</g>
</g>
<!-- Node9&#45;&gt;Node11 -->
<g id="edge12" class="edge">
<title>Node9&#45;&gt;Node11</title>
<path fill="none" stroke="#191970" d="M1001.875,-235.3906C999.0735,-226.776 994.8767,-213.8708 991.3694,-203.0858"/>
<polygon fill="#191970" stroke="#191970" points="994.5902,-201.6722 988.1691,-193.2449 987.9333,-203.8371 994.5902,-201.6722"/>
</g>
<!-- Node11&#45;&gt;Node5 -->
<g id="edge13" class="edge">
<title>Node11&#45;&gt;Node5</title>
<path fill="none" stroke="#191970" d="M975.9343,-173.873C959.9656,-157.6566 924.9935,-125.3575 888,-112 757.7755,-64.9791 383.8099,-148.7338 266,-76 249.1806,-65.616 239.0463,-44.8517 233.5252,-29.3723"/>
<polygon fill="#191970" stroke="#191970" points="236.8062,-28.1422 230.4144,-19.6926 230.1419,-30.284 236.8062,-28.1422"/>
</g>
<!-- Node12 -->
<g id="node13" class="node">
<title>Node12</title>
<polygon fill="#ffffff" stroke="#bfbfbf" points="825.5,-112.5 825.5,-131.5 878.5,-131.5 878.5,-112.5 825.5,-112.5"/>
<text text-anchor="middle" x="852" y="-119.5" font-family="Helvetica,sans-Serif" font-size="10.00" fill="#000000">stdint.h</text>
</g>
<!-- Node11&#45;&gt;Node12 -->
<g id="edge14" class="edge">
<title>Node11&#45;&gt;Node12</title>
<path fill="none" stroke="#191970" d="M964.2188,-173.8906C942.1606,-163.6908 907.095,-147.4763 882.0331,-135.8875"/>
<polygon fill="#191970" stroke="#191970" points="883.1809,-132.5622 872.6353,-131.5419 880.2429,-138.9158 883.1809,-132.5622"/>
</g>
<!-- Node13 -->
<g id="node14" class="node">
<title>Node13</title>
<g id="a_node14"><a xlink:href="align_8h.html" target="_top" xlink:title="ODP alignments. ">
<polygon fill="#ffffff" stroke="#000000" points="940.5,-112.5 940.5,-131.5 1029.5,-131.5 1029.5,-112.5 940.5,-112.5"/>
<text text-anchor="middle" x="985" y="-119.5" font-family="Helvetica,sans-Serif" font-size="10.00" fill="#000000">odp/api/align.h</text>
</a>
</g>
</g>
<!-- Node11&#45;&gt;Node13 -->
<g id="edge15" class="edge">
<title>Node11&#45;&gt;Node13</title>
<path fill="none" stroke="#191970" d="M985,-173.8906C985,-165.3657 985,-152.6392 985,-141.9235"/>
<polygon fill="#191970" stroke="#191970" points="988.5001,-141.7448 985,-131.7449 981.5001,-141.7449 988.5001,-141.7448"/>
</g>
<!-- Node11&#45;&gt;Node16 -->
<g id="edge20" class="edge">
<title>Node11&#45;&gt;Node16</title>
<path fill="none" stroke="#191970" d="M1026.0771,-173.9904C1094.2867,-156.2964 1219.0782,-114.712 1173,-56 1157.8933,-36.7513 1099.1277,-24.5159 1051.2685,-17.5439"/>
<polygon fill="#191970" stroke="#191970" points="1051.6307,-14.0605 1041.241,-16.1354 1050.6569,-20.9924 1051.6307,-14.0605"/>
</g>
<!-- Node14 -->
<g id="node15" class="node">
<title>Node14</title>
<polygon fill="#ffffff" stroke="#bfbfbf" points="1056.5,-56.5 1056.5,-75.5 1163.5,-75.5 1163.5,-56.5 1056.5,-56.5"/>
<text text-anchor="middle" x="1110" y="-63.5" font-family="Helvetica,sans-Serif" font-size="10.00" fill="#000000">odp/api/abi/align.h</text>
</g>
<!-- Node13&#45;&gt;Node14 -->
<g id="edge16" class="edge">
<title>Node13&#45;&gt;Node14</title>
<path fill="none" stroke="#191970" d="M1006.4883,-112.3733C1026.644,-103.3435 1056.988,-89.7494 1079.618,-79.6111"/>
<polygon fill="#191970" stroke="#191970" points="1081.0971,-82.7838 1088.7921,-75.5011 1078.2351,-76.3955 1081.0971,-82.7838"/>
</g>
<!-- Node15 -->
<g id="node16" class="node">
<title>Node15</title>
<g id="a_node16"><a xlink:href="spec_2align_8h.html" target="_top" xlink:title="ODP alignments. ">
<polygon fill="#ffffff" stroke="#000000" points="886,-56.5 886,-75.5 1000,-75.5 1000,-56.5 886,-56.5"/>
<text text-anchor="middle" x="943" y="-63.5" font-family="Helvetica,sans-Serif" font-size="10.00" fill="#000000">odp/api/spec/align.h</text>
</a>
</g>
</g>
<!-- Node13&#45;&gt;Node15 -->
<g id="edge17" class="edge">
<title>Node13&#45;&gt;Node15</title>
<path fill="none" stroke="#191970" d="M977.6842,-112.2455C971.7821,-104.3761 963.3258,-93.101 956.2406,-83.6542"/>
<polygon fill="#191970" stroke="#191970" points="959.0321,-81.5427 950.232,-75.6427 953.432,-85.7427 959.0321,-81.5427"/>
</g>
<!-- Node15&#45;&gt;Node5 -->
<g id="edge18" class="edge">
<title>Node15&#45;&gt;Node5</title>
<path fill="none" stroke="#191970" d="M885.8024,-60.2855C870.5967,-58.8251 854.181,-57.3012 839,-56 643.5225,-39.2455 412.5732,-22.7565 298.7234,-14.8467"/>
<polygon fill="#191970" stroke="#191970" points="298.9575,-11.3547 288.7392,-14.1542 298.4731,-18.3379 298.9575,-11.3547"/>
</g>
<!-- Node15&#45;&gt;Node16 -->
<g id="edge19" class="edge">
<title>Node15&#45;&gt;Node16</title>
<path fill="none" stroke="#191970" d="M950.3158,-56.2455C956.2179,-48.3761 964.6742,-37.101 971.7594,-27.6542"/>
<polygon fill="#191970" stroke="#191970" points="974.568,-29.7427 977.768,-19.6427 968.9679,-25.5427 974.568,-29.7427"/>
</g>
<!-- Node18 -->
<g id="node19" class="node">
<title>Node18</title>
<polygon fill="#ffffff" stroke="#bfbfbf" points="28.5,-297 28.5,-316 173.5,-316 173.5,-297 28.5,-297"/>
<text text-anchor="middle" x="101" y="-304" font-family="Helvetica,sans-Serif" font-size="10.00" fill="#000000">odp/api/abi/queue_types.h</text>
</g>
<!-- Node17&#45;&gt;Node18 -->
<g id="edge23" class="edge">
<title>Node17&#45;&gt;Node18</title>
<path fill="none" stroke="#191970" d="M379.7806,-363.9717C321.2635,-351.9082 220.5,-331.1354 157.4826,-318.1441"/>
<polygon fill="#191970" stroke="#191970" points="157.8236,-314.6409 147.3228,-316.0496 156.4101,-321.4967 157.8236,-314.6409"/>
</g>
<!-- Node19 -->
<g id="node20" class="node">
<title>Node19</title>
<g id="a_node20"><a xlink:href="spec_2queue__types_8h.html" target="_top" xlink:title="ODP queue types. ">
<polygon fill="#ffffff" stroke="#000000" points="376.5,-291.5 376.5,-321.5 487.5,-321.5 487.5,-291.5 376.5,-291.5"/>
<text text-anchor="start" x="384.5" y="-309.5" font-family="Helvetica,sans-Serif" font-size="10.00" fill="#000000">odp/api/spec/queue</text>
<text text-anchor="middle" x="432" y="-298.5" font-family="Helvetica,sans-Serif" font-size="10.00" fill="#000000">_types.h</text>
</a>
</g>
</g>
<!-- Node17&#45;&gt;Node19 -->
<g id="edge24" class="edge">
<title>Node17&#45;&gt;Node19</title>
<path fill="none" stroke="#191970" d="M426.8597,-363.9005C427.6111,-355.5099 428.7363,-342.9451 429.7425,-331.7085"/>
<polygon fill="#191970" stroke="#191970" points="433.2488,-331.7941 430.6548,-321.5218 426.2767,-331.1697 433.2488,-331.7941"/>
</g>
<!-- Node19&#45;&gt;Node5 -->
<g id="edge25" class="edge">
<title>Node19&#45;&gt;Node5</title>
<path fill="none" stroke="#191970" d="M376.2881,-293.7906C371.4642,-292.8035 366.6514,-291.8584 362,-291 308.3171,-281.0929 160.8571,-290.0426 119,-255 93.298,-233.4823 95,-217.0202 95,-183.5 95,-183.5 95,-183.5 95,-122 95,-90.7875 97.4945,-78.6216 119,-56 133.959,-40.2647 155.1481,-29.6812 174.872,-22.6778"/>
<polygon fill="#191970" stroke="#191970" points="176.0112,-25.9876 184.4033,-19.5205 173.8099,-19.3427 176.0112,-25.9876"/>
</g>
<!-- Node19&#45;&gt;Node16 -->
<g id="edge39" class="edge">
<title>Node19&#45;&gt;Node16</title>
<path fill="none" stroke="#191970" d="M459.2082,-291.483C534.177,-250.3122 743.0578,-137.0441 817,-112 899.2317,-84.1482 953.5534,-142.8091 1009,-76 1020.6068,-62.0147 1010.5598,-41.9391 1000.1407,-27.6072"/>
<polygon fill="#191970" stroke="#191970" points="1002.726,-25.2324 993.7956,-19.5317 997.2218,-29.5572 1002.726,-25.2324"/>
</g>
<!-- Node20 -->
<g id="node21" class="node">
<title>Node20</title>
<g id="a_node21"><a xlink:href="schedule__types_8h.html" target="_top" xlink:title="ODP schedule. ">
<polygon fill="#ffffff" stroke="#000000" points="372,-235.5 372,-254.5 512,-254.5 512,-235.5 372,-235.5"/>
<text text-anchor="middle" x="442" y="-242.5" font-family="Helvetica,sans-Serif" font-size="10.00" fill="#000000">odp/api/schedule_types.h</text>
</a>
</g>
</g>
<!-- Node19&#45;&gt;Node20 -->
<g id="edge26" class="edge">
<title>Node19&#45;&gt;Node20</title>
<path fill="none" stroke="#191970" d="M434.4719,-291.2977C435.7733,-283.2945 437.3847,-273.3843 438.7823,-264.7889"/>
<polygon fill="#191970" stroke="#191970" points="442.2485,-265.2791 440.3989,-254.8469 435.3392,-264.1555 442.2485,-265.2791"/>
</g>
<!-- Node25 -->
<g id="node26" class="node">
<title>Node25</title>
<g id="a_node26"><a xlink:href="deprecated_8h.html" target="_top" xlink:title="Control deprecated API definitions. ">
<polygon fill="#ffffff" stroke="#000000" points="234.5,-235.5 234.5,-254.5 353.5,-254.5 353.5,-235.5 234.5,-235.5"/>
<text text-anchor="middle" x="294" y="-242.5" font-family="Helvetica,sans-Serif" font-size="10.00" fill="#000000">odp/api/deprecated.h</text>
</a>
</g>
</g>
<!-- Node19&#45;&gt;Node25 -->
<g id="edge35" class="edge">
<title>Node19&#45;&gt;Node25</title>
<path fill="none" stroke="#191970" d="M398.2414,-291.4554C375.7207,-281.419 346.3533,-268.3314 324.5308,-258.6061"/>
<polygon fill="#191970" stroke="#191970" points="325.9439,-255.4041 315.3851,-254.5303 323.0944,-261.7979 325.9439,-255.4041"/>
</g>
<!-- Node21 -->
<g id="node22" class="node">
<title>Node21</title>
<polygon fill="#ffffff" stroke="#bfbfbf" points="322.5,-168.5 322.5,-198.5 439.5,-198.5 439.5,-168.5 322.5,-168.5"/>
<text text-anchor="start" x="330.5" y="-186.5" font-family="Helvetica,sans-Serif" font-size="10.00" fill="#000000">odp/api/abi/schedule</text>
<text text-anchor="middle" x="381" y="-175.5" font-family="Helvetica,sans-Serif" font-size="10.00" fill="#000000">_types.h</text>
</g>
<!-- Node20&#45;&gt;Node21 -->
<g id="edge27" class="edge">
<title>Node20&#45;&gt;Node21</title>
<path fill="none" stroke="#191970" d="M432.4688,-235.3906C424.5953,-227.4527 413.1087,-215.8718 402.9833,-205.6635"/>
<polygon fill="#191970" stroke="#191970" points="405.4494,-203.1797 395.9223,-198.5446 400.4795,-208.1093 405.4494,-203.1797"/>
</g>
<!-- Node22 -->
<g id="node23" class="node">
<title>Node22</title>
<g id="a_node23"><a xlink:href="spec_2schedule__types_8h.html" target="_top" xlink:title="ODP schedule types. ">
<polygon fill="#ffffff" stroke="#000000" points="457.5,-168.5 457.5,-198.5 582.5,-198.5 582.5,-168.5 457.5,-168.5"/>
<text text-anchor="start" x="465.5" y="-186.5" font-family="Helvetica,sans-Serif" font-size="10.00" fill="#000000">odp/api/spec/schedule</text>
<text text-anchor="middle" x="520" y="-175.5" font-family="Helvetica,sans-Serif" font-size="10.00" fill="#000000">_types.h</text>
</a>
</g>
</g>
<!-- Node20&#45;&gt;Node22 -->
<g id="edge28" class="edge">
<title>Node20&#45;&gt;Node22</title>
<path fill="none" stroke="#191970" d="M454.1875,-235.3906C464.5484,-227.2215 479.8026,-215.1941 493.0169,-204.7752"/>
<polygon fill="#191970" stroke="#191970" points="495.2334,-207.4846 500.9191,-198.5446 490.8993,-201.9877 495.2334,-207.4846"/>
</g>
<!-- Node22&#45;&gt;Node5 -->
<g id="edge29" class="edge">
<title>Node22&#45;&gt;Node5</title>
<path fill="none" stroke="#191970" d="M462.5846,-168.4213C373.6544,-144.4981 211.0973,-98.2796 195,-76 183.9618,-60.7225 196.5106,-41.2062 209.1809,-27.3691"/>
<polygon fill="#191970" stroke="#191970" points="211.9588,-29.5362 216.4777,-19.9534 206.9692,-24.6266 211.9588,-29.5362"/>
</g>
<!-- Node22&#45;&gt;Node16 -->
<g id="edge34" class="edge">
<title>Node22&#45;&gt;Node16</title>
<path fill="none" stroke="#191970" d="M573.1778,-168.4185C637.2952,-149.5902 747.8106,-115.0667 839,-76 856.5431,-68.4843 859.7617,-64.1907 877,-56 901.7425,-44.2437 930.2764,-32.1514 951.7992,-23.317"/>
<polygon fill="#191970" stroke="#191970" points="953.2187,-26.518 961.1559,-19.5001 950.5747,-20.0365 953.2187,-26.518"/>
</g>
<!-- Node23 -->
<g id="node24" class="node">
<title>Node23</title>
<g id="a_node24"><a xlink:href="support_8h.html" target="_top" xlink:title="ODP support API &#45; platform specific header. ">
<polygon fill="#ffffff" stroke="#000000" points="467.5,-112.5 467.5,-131.5 568.5,-131.5 568.5,-112.5 467.5,-112.5"/>
<text text-anchor="middle" x="518" y="-119.5" font-family="Helvetica,sans-Serif" font-size="10.00" fill="#000000">odp/api/support.h</text>
</a>
</g>
</g>
<!-- Node22&#45;&gt;Node23 -->
<g id="edge30" class="edge">
<title>Node22&#45;&gt;Node23</title>
<path fill="none" stroke="#191970" d="M519.5056,-168.2977C519.2482,-160.3834 518.9302,-150.6043 518.6529,-142.0759"/>
<polygon fill="#191970" stroke="#191970" points="522.1435,-141.7279 518.3202,-131.8469 515.1472,-141.9554 522.1435,-141.7279"/>
</g>
<!-- Node24 -->
<g id="node25" class="node">
<title>Node24</title>
<g id="a_node25"><a xlink:href="spec_2support_8h.html" target="_top" xlink:title="ODP support API. ">
<polygon fill="#ffffff" stroke="#000000" points="438.5,-56.5 438.5,-75.5 565.5,-75.5 565.5,-56.5 438.5,-56.5"/>
<text text-anchor="middle" x="502" y="-63.5" font-family="Helvetica,sans-Serif" font-size="10.00" fill="#000000">odp/api/spec/support.h</text>
</a>
</g>
</g>
<!-- Node23&#45;&gt;Node24 -->
<g id="edge31" class="edge">
<title>Node23&#45;&gt;Node24</title>
<path fill="none" stroke="#191970" d="M515.213,-112.2455C513.1023,-104.8579 510.134,-94.4689 507.5453,-85.4087"/>
<polygon fill="#191970" stroke="#191970" points="510.8677,-84.2964 504.755,-75.6427 504.137,-86.2195 510.8677,-84.2964"/>
</g>
<!-- Node24&#45;&gt;Node5 -->
<g id="edge32" class="edge">
<title>Node24&#45;&gt;Node5</title>
<path fill="none" stroke="#191970" d="M455.209,-56.4369C408.0205,-46.7925 335.128,-31.8948 284.6876,-21.5858"/>
<polygon fill="#191970" stroke="#191970" points="285.0963,-18.097 274.598,-19.5237 283.6946,-24.9553 285.0963,-18.097"/>
</g>
<!-- Node24&#45;&gt;Node16 -->
<g id="edge33" class="edge">
<title>Node24&#45;&gt;Node16</title>
<path fill="none" stroke="#191970" d="M565.6893,-57.1823C568.8366,-56.7758 571.9535,-56.3795 575,-56 696.1588,-40.907 837.7487,-25.5187 918.8436,-16.9201"/>
<polygon fill="#191970" stroke="#191970" points="919.3345,-20.3878 928.9106,-15.8547 918.5977,-13.4267 919.3345,-20.3878"/>
</g>
<!-- Node26 -->
<g id="node27" class="node">
<title>Node26</title>
<g id="a_node27"><a xlink:href="spec_2deprecated_8h.html" target="_top" xlink:title="Macro for deprecated API definitions. ">
<polygon fill="#ffffff" stroke="#000000" points="275.5,-56.5 275.5,-75.5 420.5,-75.5 420.5,-56.5 275.5,-56.5"/>
<text text-anchor="middle" x="348" y="-63.5" font-family="Helvetica,sans-Serif" font-size="10.00" fill="#000000">odp/api/spec/deprecated.h</text>
</a>
</g>
</g>
<!-- Node25&#45;&gt;Node26 -->
<g id="edge36" class="edge">
<title>Node25&#45;&gt;Node26</title>
<path fill="none" stroke="#191970" d="M296.0713,-235.444C299.3063,-220.8164 305.9246,-192.04 313,-168 321.5975,-138.7881 333.3985,-105.5218 340.8618,-85.1448"/>
<polygon fill="#191970" stroke="#191970" points="344.1489,-86.3468 344.3293,-75.7535 337.5822,-83.9222 344.1489,-86.3468"/>
</g>
<!-- Node26&#45;&gt;Node5 -->
<g id="edge37" class="edge">
<title>Node26&#45;&gt;Node5</title>
<path fill="none" stroke="#191970" d="M327.3713,-56.3733C308.1081,-47.3838 279.1514,-33.8706 257.4581,-23.7471"/>
<polygon fill="#191970" stroke="#191970" points="258.9015,-20.5584 248.3595,-19.5011 255.9413,-26.9017 258.9015,-20.5584"/>
</g>
<!-- Node26&#45;&gt;Node16 -->
<g id="edge38" class="edge">
<title>Node26&#45;&gt;Node16</title>
<path fill="none" stroke="#191970" d="M420.842,-56.8667C423.5954,-56.5661 426.322,-56.276 429,-56 605.6943,-37.7911 814.5671,-22.064 918.835,-14.6077"/>
<polygon fill="#191970" stroke="#191970" points="919.1724,-18.0926 928.8982,-13.8905 918.6747,-11.1103 919.1724,-18.0926"/>
</g>
<!-- Node28 -->
<g id="node29" class="node">
<title>Node28</title>
<polygon fill="#ffffff" stroke="#bfbfbf" points="935,-431 935,-450 1039,-450 1039,-431 935,-431"/>
<text text-anchor="middle" x="987" y="-438" font-family="Helvetica,sans-Serif" font-size="10.00" fill="#000000">odp/api/abi/pool.h</text>
</g>
<!-- Node27&#45;&gt;Node28 -->
<g id="edge42" class="edge">
<title>Node27&#45;&gt;Node28</title>
<path fill="none" stroke="#191970" d="M946.734,-497.9005C953.9236,-487.6515 965.4819,-471.1747 974.3748,-458.4976"/>
<polygon fill="#191970" stroke="#191970" points="977.401,-460.2783 980.2785,-450.0817 971.6704,-456.2582 977.401,-460.2783"/>
</g>
<!-- Node29 -->
<g id="node30" class="node">
<title>Node29</title>
<polygon fill="#ffffff" stroke="#bfbfbf" points="1057.5,-425.5 1057.5,-455.5 1164.5,-455.5 1164.5,-425.5 1057.5,-425.5"/>
<text text-anchor="start" x="1065.5" y="-443.5" font-family="Helvetica,sans-Serif" font-size="10.00" fill="#000000">odp/api/abi/shared</text>
<text text-anchor="middle" x="1111" y="-432.5" font-family="Helvetica,sans-Serif" font-size="10.00" fill="#000000">_memory.h</text>
</g>
<!-- Node27&#45;&gt;Node29 -->
<g id="edge43" class="edge">
<title>Node27&#45;&gt;Node29</title>
<path fill="none" stroke="#191970" d="M964.5001,-497.9005C990.1098,-487.8663 1030.9548,-471.8627 1063.0186,-459.2997"/>
<polygon fill="#191970" stroke="#191970" points="1064.6269,-462.4287 1072.6609,-455.5218 1062.0732,-455.9111 1064.6269,-462.4287"/>
</g>
<!-- Node27&#45;&gt;Node30 -->
<g id="edge44" class="edge">
<title>Node27&#45;&gt;Node30</title>
<path fill="none" stroke="#191970" d="M973.6647,-497.9572C981.3125,-495.8976 989.4168,-493.8002 997,-492 1075.1065,-473.4578 1095.6424,-473.4509 1174,-456 1179.032,-454.8793 1184.277,-453.6725 1189.5039,-452.4447"/>
<polygon fill="#191970" stroke="#191970" points="1190.5531,-455.7929 1199.4723,-450.0748 1188.9339,-448.9827 1190.5531,-455.7929"/>
</g>
<!-- Node31 -->
<g id="node32" class="node">
<title>Node31</title>
<g id="a_node32"><a xlink:href="spec_2pool_8h.html" target="_top" xlink:title="ODP pool. ">
<polygon fill="#ffffff" stroke="#000000" points="987.5,-364 987.5,-383 1098.5,-383 1098.5,-364 987.5,-364"/>
<text text-anchor="middle" x="1043" y="-371" font-family="Helvetica,sans-Serif" font-size="10.00" fill="#000000">odp/api/spec/pool.h</text>
</a>
</g>
</g>
<!-- Node27&#45;&gt;Node31 -->
<g id="edge45" class="edge">
<title>Node27&#45;&gt;Node31</title>
<path fill="none" stroke="#191970" d="M934.4025,-497.9714C925.6221,-481.6448 911.0764,-447.8743 926,-425 934.8522,-411.4317 971.6606,-396.5895 1001.6594,-386.3394"/>
<polygon fill="#191970" stroke="#191970" points="1003.1441,-389.5337 1011.5216,-383.0478 1000.9279,-382.8938 1003.1441,-389.5337"/>
</g>
<!-- Node31&#45;&gt;Node5 -->
<g id="edge46" class="edge">
<title>Node31&#45;&gt;Node5</title>
<path fill="none" stroke="#191970" d="M1008.1356,-363.9988C998.4443,-361.6831 987.8701,-359.4561 978,-358 843.4431,-338.1492 493.7313,-371.3839 367,-322 346.6915,-314.0863 348.9065,-299.8765 329,-291 210.2803,-238.0617 57,-313.4878 57,-183.5 57,-183.5 57,-183.5 57,-122 57,-66.272 121.3411,-36.7699 171.0892,-22.2881"/>
<polygon fill="#191970" stroke="#191970" points="172.1202,-25.6343 180.8208,-19.5887 170.2491,-18.889 172.1202,-25.6343"/>
</g>
<!-- Node31&#45;&gt;Node9 -->
<g id="edge47" class="edge">
<title>Node31&#45;&gt;Node9</title>
<path fill="none" stroke="#191970" d="M1036.8427,-363.6413C1030.8349,-353.5593 1021.9049,-337.2562 1017,-322 1010.9355,-303.1366 1007.8824,-280.6556 1006.38,-264.8698"/>
<polygon fill="#191970" stroke="#191970" points="1009.8518,-264.3833 1005.5392,-254.7059 1002.8756,-264.9604 1009.8518,-264.3833"/>
</g>
<!-- Node31&#45;&gt;Node16 -->
<g id="edge52" class="edge">
<title>Node31&#45;&gt;Node16</title>
<path fill="none" stroke="#191970" d="M1079.0176,-363.9935C1151.0467,-343.9183 1306,-294.929 1306,-245 1306,-245 1306,-245 1306,-122 1306,-87.6999 1294.4229,-75.1998 1266,-56 1231.8857,-32.9556 1123.2133,-20.4254 1051.4416,-14.4827"/>
<polygon fill="#191970" stroke="#191970" points="1051.3818,-10.9667 1041.1333,-13.6533 1050.8203,-17.9442 1051.3818,-10.9667"/>
</g>
<!-- Node32 -->
<g id="node33" class="node">
<title>Node32</title>
<g id="a_node33"><a xlink:href="pool__types_8h.html" target="_top" xlink:title="Type definitions for pools. ">
<polygon fill="#ffffff" stroke="#000000" points="1025.5,-297 1025.5,-316 1168.5,-316 1168.5,-297 1025.5,-297"/>
<text text-anchor="middle" x="1097" y="-304" font-family="Helvetica,sans-Serif" font-size="10.00" fill="#000000">odp/api/spec/pool_types.h</text>
</a>
</g>
</g>
<!-- Node31&#45;&gt;Node32 -->
<g id="edge48" class="edge">
<title>Node31&#45;&gt;Node32</title>
<path fill="none" stroke="#191970" d="M1050.7369,-363.9005C1059.0775,-353.552 1072.5354,-336.8542 1082.7912,-324.1295"/>
<polygon fill="#191970" stroke="#191970" points="1085.7273,-326.064 1089.2775,-316.0817 1080.2771,-321.6713 1085.7273,-326.064"/>
</g>
<!-- Node32&#45;&gt;Node5 -->
<g id="edge49" class="edge">
<title>Node32&#45;&gt;Node5</title>
<path fill="none" stroke="#191970" d="M1096.1719,-296.509C1094.3253,-280.9324 1088.4481,-250.9918 1070,-235 1014.2683,-186.6887 979.6734,-216.4045 908,-199 760.6054,-163.208 727.1615,-139.5146 578,-112 504.3691,-98.4179 298.9338,-125.7734 243,-76 230.2688,-64.671 227.1485,-44.9954 226.8355,-30.0665"/>
<polygon fill="#191970" stroke="#191970" points="230.34,-29.8571 227.0307,-19.7924 223.3413,-29.724 230.34,-29.8571"/>
</g>
<!-- Node32&#45;&gt;Node9 -->
<g id="edge50" class="edge">
<title>Node32&#45;&gt;Node9</title>
<path fill="none" stroke="#191970" d="M1082.625,-296.8906C1067.9069,-287.0519 1044.8168,-271.6167 1027.6411,-260.1351"/>
<polygon fill="#191970" stroke="#191970" points="1029.5327,-257.1896 1019.2741,-254.5419 1025.6425,-263.0091 1029.5327,-257.1896"/>
</g>
<!-- Node32&#45;&gt;Node16 -->
<g id="edge51" class="edge">
<title>Node32&#45;&gt;Node16</title>
<path fill="none" stroke="#191970" d="M1136.2309,-296.9555C1186.7159,-282.0564 1268,-248.0456 1268,-183.5 1268,-183.5 1268,-183.5 1268,-122 1268,-90.7875 1267.8948,-76.0814 1244,-56 1215.484,-32.0349 1118.1457,-19.9337 1051.2722,-14.3076"/>
<polygon fill="#191970" stroke="#191970" points="1051.4783,-10.8129 1041.2277,-13.4916 1050.9115,-17.7899 1051.4783,-10.8129"/>
</g>
<!-- Node35 -->
<g id="node36" class="node">
<title>Node35</title>
<g id="a_node36"><a xlink:href="spec_2hints_8h.html" target="_top" xlink:title="ODP compiler hints. ">
<polygon fill="#ffffff" stroke="#000000" points="584,-56.5 584,-75.5 698,-75.5 698,-56.5 584,-56.5"/>
<text text-anchor="middle" x="641" y="-63.5" font-family="Helvetica,sans-Serif" font-size="10.00" fill="#000000">odp/api/spec/hints.h</text>
</a>
</g>
</g>
<!-- Node34&#45;&gt;Node35 -->
<g id="edge55" class="edge">
<title>Node34&#45;&gt;Node35</title>
<path fill="none" stroke="#191970" d="M706.1278,-363.8652C686.6189,-343.7413 645,-294.9563 645,-245 645,-245 645,-245 645,-183.5 645,-149.12 643.2684,-109.1143 642.0838,-85.7694"/>
<polygon fill="#191970" stroke="#191970" points="645.577,-85.5473 641.5562,-75.7451 638.5867,-85.9153 645.577,-85.5473"/>
</g>
<!-- Node35&#45;&gt;Node5 -->
<g id="edge56" class="edge">
<title>Node35&#45;&gt;Node5</title>
<path fill="none" stroke="#191970" d="M583.7721,-57.2626C580.8062,-56.8306 577.8685,-56.4074 575,-56 479.3756,-42.4187 368.7389,-27.9709 298.5873,-18.9671"/>
<polygon fill="#191970" stroke="#191970" points="298.9013,-15.4788 288.5375,-17.679 298.0113,-22.422 298.9013,-15.4788"/>
</g>
<!-- Node35&#45;&gt;Node16 -->
<g id="edge57" class="edge">
<title>Node35&#45;&gt;Node16</title>
<path fill="none" stroke="#191970" d="M698.1908,-56.6899C758.9426,-46.8 854.8627,-31.1851 918.8333,-20.7713"/>
<polygon fill="#191970" stroke="#191970" points="919.5079,-24.2077 928.8156,-19.1463 918.3831,-17.2986 919.5079,-24.2077"/>
</g>
<!-- Node36&#45;&gt;Node9 -->
<g id="edge59" class="edge">
<title>Node36&#45;&gt;Node9</title>
<path fill="none" stroke="#191970" d="M862.4063,-296.8906C891.1791,-286.42 937.3696,-269.6111 969.3466,-257.9745"/>
<polygon fill="#191970" stroke="#191970" points="970.579,-261.2506 978.7792,-254.5419 968.1851,-254.6726 970.579,-261.2506"/>
</g>
<!-- Node37 -->
<g id="node38" class="node">
<title>Node37</title>
<polygon fill="#ffffff" stroke="#bfbfbf" points="787.5,-235.5 787.5,-254.5 892.5,-254.5 892.5,-235.5 787.5,-235.5"/>
<text text-anchor="middle" x="840" y="-242.5" font-family="Helvetica,sans-Serif" font-size="10.00" fill="#000000">odp/api/abi/time.h</text>
</g>
<!-- Node36&#45;&gt;Node37 -->
<g id="edge60" class="edge">
<title>Node36&#45;&gt;Node37</title>
<path fill="none" stroke="#191970" d="M836.625,-296.8906C837.1795,-288.3657 838.0072,-275.6392 838.7042,-264.9235"/>
<polygon fill="#191970" stroke="#191970" points="842.2097,-264.951 839.3662,-254.7449 835.2244,-264.4966 842.2097,-264.951"/>
</g>
<!-- Node38 -->
<g id="node39" class="node">
<title>Node38</title>
<g id="a_node39"><a xlink:href="spec_2time_8h.html" target="_top" xlink:title="ODP time. ">
<polygon fill="#ffffff" stroke="#000000" points="716.5,-56.5 716.5,-75.5 829.5,-75.5 829.5,-56.5 716.5,-56.5"/>
<text text-anchor="middle" x="773" y="-63.5" font-family="Helvetica,sans-Serif" font-size="10.00" fill="#000000">odp/api/spec/time.h</text>
</a>
</g>
</g>
<!-- Node36&#45;&gt;Node38 -->
<g id="edge61" class="edge">
<title>Node36&#45;&gt;Node38</title>
<path fill="none" stroke="#191970" d="M819.3718,-296.8375C805.7762,-287.9067 787.4663,-273.2724 779,-255 752.7228,-198.2872 762.213,-121.3903 768.8029,-85.7019"/>
<polygon fill="#191970" stroke="#191970" points="772.286,-86.1295 770.7916,-75.6406 765.4189,-84.7721 772.286,-86.1295"/>
</g>
<!-- Node38&#45;&gt;Node5 -->
<g id="edge62" class="edge">
<title>Node38&#45;&gt;Node5</title>
<path fill="none" stroke="#191970" d="M716.1455,-57.1841C713.0541,-56.7677 709.9904,-56.3699 707,-56 562.3542,-38.1101 392.3985,-23.2402 298.8061,-15.5826"/>
<polygon fill="#191970" stroke="#191970" points="298.8589,-12.0754 288.6078,-14.752 298.2906,-19.0523 298.8589,-12.0754"/>
</g>
<!-- Node38&#45;&gt;Node16 -->
<g id="edge63" class="edge">
<title>Node38&#45;&gt;Node16</title>
<path fill="none" stroke="#191970" d="M809.4441,-56.3733C845.3069,-46.9001 900.1878,-32.4032 939.0282,-22.1435"/>
<polygon fill="#191970" stroke="#191970" points="940.257,-25.439 949.0315,-19.5011 938.4692,-18.6712 940.257,-25.439"/>
</g>
<!-- Node40&#45;&gt;Node12 -->
<g id="edge67" class="edge">
<title>Node40&#45;&gt;Node12</title>
<path fill="none" stroke="#191970" d="M914.3025,-358.2658C914.4577,-332.4655 913.2318,-278.713 902,-235 893.0184,-200.0446 874.2483,-162.2312 862.4338,-140.4123"/>
<polygon fill="#191970" stroke="#191970" points="865.4542,-138.6415 857.5552,-131.5806 859.3269,-142.0263 865.4542,-138.6415"/>
</g>
</g>
</svg>
