<?xml version="1.0" encoding="UTF-8" standalone="no"?>
<!DOCTYPE svg PUBLIC "-//W3C//DTD SVG 1.1//EN"
 "http://www.w3.org/Graphics/SVG/1.1/DTD/svg11.dtd">
<!-- Generated by graphviz version 2.40.1 (20161225.0304)
 -->
<!-- Title: proto_stats.h Pages: 1 -->
<svg width="649pt" height="509pt"
 viewBox="0.00 0.00 649.00 509.00" xmlns="http://www.w3.org/2000/svg" xmlns:xlink="http://www.w3.org/1999/xlink">
<g id="graph0" class="graph" transform="scale(1 1) rotate(0) translate(4 505)">
<title>proto_stats.h</title>
<polygon fill="#ffffff" stroke="transparent" points="-4,4 -4,-505 645,-505 645,4 -4,4"/>
<!-- Node0 -->
<g id="node1" class="node">
<title>Node0</title>
<polygon fill="#bfbfbf" stroke="#000000" points="200,-481.5 200,-500.5 280,-500.5 280,-481.5 200,-481.5"/>
<text text-anchor="middle" x="240" y="-488.5" font-family="Helvetica,sans-Serif" font-size="10.00" fill="#000000">proto_stats.h</text>
</g>
<!-- Node1 -->
<g id="node2" class="node">
<title>Node1</title>
<g id="a_node2"><a xlink:href="std__types_8h.html" target="_top" xlink:title="Standard C language types and definitions for ODP. ">
<polygon fill="#ffffff" stroke="#000000" points="363,-224.5 363,-243.5 475,-243.5 475,-224.5 363,-224.5"/>
<text text-anchor="middle" x="419" y="-231.5" font-family="Helvetica,sans-Serif" font-size="10.00" fill="#000000">odp/api/std_types.h</text>
</a>
</g>
</g>
<!-- Node0&#45;&gt;Node1 -->
<g id="edge1" class="edge">
<title>Node0&#45;&gt;Node1</title>
<path fill="none" stroke="#191970" d="M280.4343,-488.3936C337.2042,-483.7956 436.0717,-472.0382 458,-445 504.5087,-387.6535 455.6225,-292.6254 431.1779,-252.6396"/>
<polygon fill="#191970" stroke="#191970" points="433.851,-250.3158 425.5628,-243.7161 427.9264,-254.0439 433.851,-250.3158"/>
</g>
<!-- Node10 -->
<g id="node11" class="node">
<title>Node10</title>
<polygon fill="#ffffff" stroke="#bfbfbf" points="55.5,-420 55.5,-439 168.5,-439 168.5,-420 55.5,-420"/>
<text text-anchor="middle" x="112" y="-427" font-family="Helvetica,sans-Serif" font-size="10.00" fill="#000000">odp/api/abi/queue.h</text>
</g>
<!-- Node0&#45;&gt;Node10 -->
<g id="edge12" class="edge">
<title>Node0&#45;&gt;Node10</title>
<path fill="none" stroke="#191970" d="M220,-481.3906C198.7711,-471.1908 165.0238,-454.9763 140.904,-443.3875"/>
<polygon fill="#191970" stroke="#191970" points="142.3889,-440.2179 131.8596,-439.0419 139.3574,-446.5275 142.3889,-440.2179"/>
</g>
<!-- Node11 -->
<g id="node12" class="node">
<title>Node11</title>
<polygon fill="#ffffff" stroke="#bfbfbf" points="0,-280.5 0,-310.5 128,-310.5 128,-280.5 0,-280.5"/>
<text text-anchor="start" x="8" y="-298.5" font-family="Helvetica,sans-Serif" font-size="10.00" fill="#000000">odp/api/abi/proto_stats</text>
<text text-anchor="middle" x="64" y="-287.5" font-family="Helvetica,sans-Serif" font-size="10.00" fill="#000000">_types.h</text>
</g>
<!-- Node0&#45;&gt;Node11 -->
<g id="edge13" class="edge">
<title>Node0&#45;&gt;Node11</title>
<path fill="none" stroke="#191970" d="M199.6663,-487.2344C148.5432,-481.5308 64.7842,-468.759 46,-445 17.4949,-408.9456 36.6323,-351.9016 51.4179,-319.7029"/>
<polygon fill="#191970" stroke="#191970" points="54.6353,-321.0883 55.8093,-310.5587 48.3252,-318.0579 54.6353,-321.0883"/>
</g>
<!-- Node12 -->
<g id="node13" class="node">
<title>Node12</title>
<polygon fill="#ffffff" stroke="#bfbfbf" points="311.5,-420 311.5,-439 448.5,-439 448.5,-420 311.5,-420"/>
<text text-anchor="middle" x="380" y="-427" font-family="Helvetica,sans-Serif" font-size="10.00" fill="#000000">odp/api/abi/proto_stats.h</text>
</g>
<!-- Node0&#45;&gt;Node12 -->
<g id="edge14" class="edge">
<title>Node0&#45;&gt;Node12</title>
<path fill="none" stroke="#191970" d="M261.875,-481.3906C285.2996,-471.1005 322.6596,-454.6888 349.0841,-443.0809"/>
<polygon fill="#191970" stroke="#191970" points="350.5307,-446.2683 358.2786,-439.0419 347.7154,-439.8594 350.5307,-446.2683"/>
</g>
<!-- Node13 -->
<g id="node14" class="node">
<title>Node13</title>
<g id="a_node14"><a xlink:href="spec_2proto__stats_8h.html" target="_top" xlink:title="ODP Proto Stats. ">
<polygon fill="#ffffff" stroke="#000000" points="186.5,-414.5 186.5,-444.5 293.5,-444.5 293.5,-414.5 186.5,-414.5"/>
<text text-anchor="start" x="194.5" y="-432.5" font-family="Helvetica,sans-Serif" font-size="10.00" fill="#000000">odp/api/spec/proto</text>
<text text-anchor="middle" x="240" y="-421.5" font-family="Helvetica,sans-Serif" font-size="10.00" fill="#000000">_stats.h</text>
</a>
</g>
</g>
<!-- Node0&#45;&gt;Node13 -->
<g id="edge15" class="edge">
<title>Node0&#45;&gt;Node13</title>
<path fill="none" stroke="#191970" d="M240,-481.3906C240,-474.2234 240,-464.0862 240,-454.671"/>
<polygon fill="#191970" stroke="#191970" points="243.5001,-454.5446 240,-444.5446 236.5001,-454.5446 243.5001,-454.5446"/>
</g>
<!-- Node2 -->
<g id="node3" class="node">
<title>Node2</title>
<polygon fill="#ffffff" stroke="#bfbfbf" points="430,-168.5 430,-187.5 560,-187.5 560,-168.5 430,-168.5"/>
<text text-anchor="middle" x="495" y="-175.5" font-family="Helvetica,sans-Serif" font-size="10.00" fill="#000000">odp/api/abi/std_types.h</text>
</g>
<!-- Node1&#45;&gt;Node2 -->
<g id="edge2" class="edge">
<title>Node1&#45;&gt;Node2</title>
<path fill="none" stroke="#191970" d="M432.2382,-224.2455C443.681,-215.814 460.4296,-203.4729 473.7475,-193.6598"/>
<polygon fill="#191970" stroke="#191970" points="475.9391,-196.3924 481.9135,-187.6427 471.7867,-190.757 475.9391,-196.3924"/>
</g>
<!-- Node3 -->
<g id="node4" class="node">
<title>Node3</title>
<g id="a_node4"><a xlink:href="spec_2std__types_8h.html" target="_top" xlink:title="Standard C language types and definitions for ODP. ">
<polygon fill="#ffffff" stroke="#000000" points="274.5,-168.5 274.5,-187.5 411.5,-187.5 411.5,-168.5 274.5,-168.5"/>
<text text-anchor="middle" x="343" y="-175.5" font-family="Helvetica,sans-Serif" font-size="10.00" fill="#000000">odp/api/spec/std_types.h</text>
</a>
</g>
</g>
<!-- Node1&#45;&gt;Node3 -->
<g id="edge3" class="edge">
<title>Node1&#45;&gt;Node3</title>
<path fill="none" stroke="#191970" d="M405.7618,-224.2455C394.319,-215.814 377.5704,-203.4729 364.2525,-193.6598"/>
<polygon fill="#191970" stroke="#191970" points="366.2133,-190.757 356.0865,-187.6427 362.0609,-196.3924 366.2133,-190.757"/>
</g>
<!-- Node4 -->
<g id="node5" class="node">
<title>Node4</title>
<polygon fill="#ffffff" stroke="#bfbfbf" points="189.5,-.5 189.5,-19.5 310.5,-19.5 310.5,-.5 189.5,-.5"/>
<text text-anchor="middle" x="250" y="-7.5" font-family="Helvetica,sans-Serif" font-size="10.00" fill="#000000">odp/visibility_begin.h</text>
</g>
<!-- Node3&#45;&gt;Node4 -->
<g id="edge4" class="edge">
<title>Node3&#45;&gt;Node4</title>
<path fill="none" stroke="#191970" d="M331.3238,-168.4504C321.3634,-159.7983 307.2297,-146.2541 298,-132 276.5551,-98.8812 262.1437,-54.6753 255.0734,-29.5829"/>
<polygon fill="#191970" stroke="#191970" points="258.4146,-28.5311 252.4178,-19.7968 251.6589,-30.3644 258.4146,-28.5311"/>
</g>
<!-- Node5 -->
<g id="node6" class="node">
<title>Node5</title>
<polygon fill="#ffffff" stroke="#bfbfbf" points="307.5,-112.5 307.5,-131.5 360.5,-131.5 360.5,-112.5 307.5,-112.5"/>
<text text-anchor="middle" x="334" y="-119.5" font-family="Helvetica,sans-Serif" font-size="10.00" fill="#000000">stdint.h</text>
</g>
<!-- Node3&#45;&gt;Node5 -->
<g id="edge5" class="edge">
<title>Node3&#45;&gt;Node5</title>
<path fill="none" stroke="#191970" d="M341.4323,-168.2455C340.2579,-160.9382 338.6116,-150.6944 337.1668,-141.7046"/>
<polygon fill="#191970" stroke="#191970" points="340.5922,-140.9606 335.5497,-131.6427 333.6809,-142.0714 340.5922,-140.9606"/>
</g>
<!-- Node6 -->
<g id="node7" class="node">
<title>Node6</title>
<g id="a_node7"><a xlink:href="align_8h.html" target="_top" xlink:title="ODP alignments. ">
<polygon fill="#ffffff" stroke="#000000" points="378.5,-112.5 378.5,-131.5 467.5,-131.5 467.5,-112.5 378.5,-112.5"/>
<text text-anchor="middle" x="423" y="-119.5" font-family="Helvetica,sans-Serif" font-size="10.00" fill="#000000">odp/api/align.h</text>
</a>
</g>
</g>
<!-- Node3&#45;&gt;Node6 -->
<g id="edge6" class="edge">
<title>Node3&#45;&gt;Node6</title>
<path fill="none" stroke="#191970" d="M356.9349,-168.2455C369.0947,-159.7337 386.9464,-147.2375 401.0285,-137.3801"/>
<polygon fill="#191970" stroke="#191970" points="403.0395,-140.2447 409.2248,-131.6427 399.0253,-134.51 403.0395,-140.2447"/>
</g>
<!-- Node9 -->
<g id="node10" class="node">
<title>Node9</title>
<polygon fill="#ffffff" stroke="#bfbfbf" points="528,-.5 528,-19.5 640,-19.5 640,-.5 528,-.5"/>
<text text-anchor="middle" x="584" y="-7.5" font-family="Helvetica,sans-Serif" font-size="10.00" fill="#000000">odp/visibility_end.h</text>
</g>
<!-- Node3&#45;&gt;Node9 -->
<g id="edge11" class="edge">
<title>Node3&#45;&gt;Node9</title>
<path fill="none" stroke="#191970" d="M382.3509,-168.4278C409.8975,-160.8017 446.9913,-148.6372 477,-132 511.5421,-112.8494 520.384,-106.062 546,-76 558.2829,-61.5852 568.7169,-42.6395 575.5258,-28.7456"/>
<polygon fill="#191970" stroke="#191970" points="578.7117,-30.1955 579.8177,-19.6586 572.3822,-27.206 578.7117,-30.1955"/>
</g>
<!-- Node7 -->
<g id="node8" class="node">
<title>Node7</title>
<polygon fill="#ffffff" stroke="#bfbfbf" points="429.5,-56.5 429.5,-75.5 536.5,-75.5 536.5,-56.5 429.5,-56.5"/>
<text text-anchor="middle" x="483" y="-63.5" font-family="Helvetica,sans-Serif" font-size="10.00" fill="#000000">odp/api/abi/align.h</text>
</g>
<!-- Node6&#45;&gt;Node7 -->
<g id="edge7" class="edge">
<title>Node6&#45;&gt;Node7</title>
<path fill="none" stroke="#191970" d="M433.4512,-112.2455C442.2269,-104.0549 454.9554,-92.1749 465.314,-82.5069"/>
<polygon fill="#191970" stroke="#191970" points="467.7461,-85.0246 472.6686,-75.6427 462.9699,-79.9072 467.7461,-85.0246"/>
</g>
<!-- Node8 -->
<g id="node9" class="node">
<title>Node8</title>
<g id="a_node9"><a xlink:href="spec_2align_8h.html" target="_top" xlink:title="ODP alignments. ">
<polygon fill="#ffffff" stroke="#000000" points="297,-56.5 297,-75.5 411,-75.5 411,-56.5 297,-56.5"/>
<text text-anchor="middle" x="354" y="-63.5" font-family="Helvetica,sans-Serif" font-size="10.00" fill="#000000">odp/api/spec/align.h</text>
</a>
</g>
</g>
<!-- Node6&#45;&gt;Node8 -->
<g id="edge8" class="edge">
<title>Node6&#45;&gt;Node8</title>
<path fill="none" stroke="#191970" d="M410.9811,-112.2455C400.7902,-103.9746 385.9638,-91.9416 373.9893,-82.2232"/>
<polygon fill="#191970" stroke="#191970" points="375.8514,-79.2268 365.8812,-75.6427 371.4402,-84.662 375.8514,-79.2268"/>
</g>
<!-- Node8&#45;&gt;Node4 -->
<g id="edge9" class="edge">
<title>Node8&#45;&gt;Node4</title>
<path fill="none" stroke="#191970" d="M335.8846,-56.2455C319.555,-47.4527 295.329,-34.4079 276.7661,-24.4125"/>
<polygon fill="#191970" stroke="#191970" points="278.3719,-21.3021 267.9078,-19.6427 275.0532,-27.4654 278.3719,-21.3021"/>
</g>
<!-- Node8&#45;&gt;Node9 -->
<g id="edge10" class="edge">
<title>Node8&#45;&gt;Node9</title>
<path fill="none" stroke="#191970" d="M393.2771,-56.4369C432.4744,-46.8932 492.8,-32.2052 535.0835,-21.9101"/>
<polygon fill="#191970" stroke="#191970" points="535.9968,-25.2901 544.8849,-19.5237 534.3408,-18.4888 535.9968,-25.2901"/>
</g>
<!-- Node13&#45;&gt;Node4 -->
<g id="edge16" class="edge">
<title>Node13&#45;&gt;Node4</title>
<path fill="none" stroke="#191970" d="M230.9379,-414.4281C217.2803,-390.2409 193,-340.8622 193,-295.5 193,-295.5 193,-295.5 193,-122 193,-85.1826 217.7675,-48.2377 234.6501,-27.3313"/>
<polygon fill="#191970" stroke="#191970" points="237.3511,-29.5574 241.0938,-19.6456 231.9869,-25.06 237.3511,-29.5574"/>
</g>
<!-- Node13&#45;&gt;Node9 -->
<g id="edge23" class="edge">
<title>Node13&#45;&gt;Node9</title>
<path fill="none" stroke="#191970" d="M293.6646,-415.4059C402.9334,-385.1249 641,-310.3861 641,-234 641,-234 641,-234 641,-122 641,-85.1826 616.2325,-48.2377 599.3499,-27.3313"/>
<polygon fill="#191970" stroke="#191970" points="602.0131,-25.06 592.9063,-19.6456 596.6489,-29.5574 602.0131,-25.06"/>
</g>
<!-- Node14 -->
<g id="node15" class="node">
<title>Node14</title>
<g id="a_node15"><a xlink:href="proto__stats__types_8h.html" target="_top" xlink:title="ODP proto stats types. ">
<polygon fill="#ffffff" stroke="#000000" points="55,-347.5 55,-377.5 165,-377.5 165,-347.5 55,-347.5"/>
<text text-anchor="start" x="63" y="-365.5" font-family="Helvetica,sans-Serif" font-size="10.00" fill="#000000">odp/api/proto_stats</text>
<text text-anchor="middle" x="110" y="-354.5" font-family="Helvetica,sans-Serif" font-size="10.00" fill="#000000">_types.h</text>
</a>
</g>
</g>
<!-- Node13&#45;&gt;Node14 -->
<g id="edge17" class="edge">
<title>Node13&#45;&gt;Node14</title>
<path fill="none" stroke="#191970" d="M210.8255,-414.4639C192.4719,-405.0047 168.5765,-392.6894 148.655,-382.4222"/>
<polygon fill="#191970" stroke="#191970" points="150.0193,-379.1879 139.527,-377.7177 146.8124,-385.4101 150.0193,-379.1879"/>
</g>
<!-- Node14&#45;&gt;Node11 -->
<g id="edge18" class="edge">
<title>Node14&#45;&gt;Node11</title>
<path fill="none" stroke="#191970" d="M99.5619,-347.2967C93.8569,-338.9873 86.6646,-328.5115 80.2433,-319.1587"/>
<polygon fill="#191970" stroke="#191970" points="82.9423,-316.9062 74.3968,-310.6432 77.1715,-320.8682 82.9423,-316.9062"/>
</g>
<!-- Node15 -->
<g id="node16" class="node">
<title>Node15</title>
<g id="a_node16"><a xlink:href="spec_2proto__stats__types_8h.html" target="_top" xlink:title="ODP proto stats types. ">
<polygon fill="#ffffff" stroke="#000000" points="293.5,-280.5 293.5,-310.5 400.5,-310.5 400.5,-280.5 293.5,-280.5"/>
<text text-anchor="start" x="301.5" y="-298.5" font-family="Helvetica,sans-Serif" font-size="10.00" fill="#000000">odp/api/spec/proto</text>
<text text-anchor="middle" x="347" y="-287.5" font-family="Helvetica,sans-Serif" font-size="10.00" fill="#000000">_stats_types.h</text>
</a>
</g>
</g>
<!-- Node14&#45;&gt;Node15 -->
<g id="edge19" class="edge">
<title>Node14&#45;&gt;Node15</title>
<path fill="none" stroke="#191970" d="M163.1874,-347.4639C198.8923,-337.3701 246.1016,-324.024 283.7359,-313.3848"/>
<polygon fill="#191970" stroke="#191970" points="284.9099,-316.6901 293.5806,-310.6017 283.0056,-309.9541 284.9099,-316.6901"/>
</g>
<!-- Node15&#45;&gt;Node1 -->
<g id="edge21" class="edge">
<title>Node15&#45;&gt;Node1</title>
<path fill="none" stroke="#191970" d="M364.7978,-280.2977C375.4167,-271.2274 388.9031,-259.7077 399.7667,-250.4285"/>
<polygon fill="#191970" stroke="#191970" points="402.1413,-253.0031 407.4719,-243.8469 397.5949,-247.6805 402.1413,-253.0031"/>
</g>
<!-- Node15&#45;&gt;Node4 -->
<g id="edge20" class="edge">
<title>Node15&#45;&gt;Node4</title>
<path fill="none" stroke="#191970" d="M315.3025,-280.4642C280.957,-261.7116 231,-226.1579 231,-178 231,-178 231,-178 231,-122 231,-89.2688 238.9852,-51.9052 244.6022,-29.6716"/>
<polygon fill="#191970" stroke="#191970" points="248.0415,-30.3545 247.1965,-19.7934 241.2711,-28.5763 248.0415,-30.3545"/>
</g>
<!-- Node15&#45;&gt;Node9 -->
<g id="edge22" class="edge">
<title>Node15&#45;&gt;Node9</title>
<path fill="none" stroke="#191970" d="M400.666,-282.3844C475.7334,-262.4458 603,-222.1344 603,-178 603,-178 603,-178 603,-122 603,-89.2688 595.0148,-51.9052 589.3978,-29.6716"/>
<polygon fill="#191970" stroke="#191970" points="592.7289,-28.5763 586.8035,-19.7934 585.9585,-30.3545 592.7289,-28.5763"/>
</g>
</g>
</svg>
