<?xml version="1.0" encoding="UTF-8" standalone="no"?>
<!DOCTYPE svg PUBLIC "-//W3C//DTD SVG 1.1//EN"
 "http://www.w3.org/Graphics/SVG/1.1/DTD/svg11.dtd">
<!-- Generated by graphviz version 2.40.1 (20161225.0304)
 -->
<!-- Title: classification.h Pages: 1 -->
<svg width="1847pt" height="1147pt"
 viewBox="0.00 0.00 1847.00 1147.00" xmlns="http://www.w3.org/2000/svg" xmlns:xlink="http://www.w3.org/1999/xlink">
<g id="graph0" class="graph" transform="scale(1 1) rotate(0) translate(4 1143)">
<title>classification.h</title>
<polygon fill="#ffffff" stroke="transparent" points="-4,4 -4,-1143 1843,-1143 1843,4 -4,4"/>
<!-- Node0 -->
<g id="node1" class="node">
<title>Node0</title>
<polygon fill="#bfbfbf" stroke="#000000" points="1478.5,-1119.5 1478.5,-1138.5 1567.5,-1138.5 1567.5,-1119.5 1478.5,-1119.5"/>
<text text-anchor="middle" x="1523" y="-1126.5" font-family="Helvetica,sans-Serif" font-size="10.00" fill="#000000">classification.h</text>
</g>
<!-- Node1 -->
<g id="node2" class="node">
<title>Node1</title>
<polygon fill="#ffffff" stroke="#bfbfbf" points="1246.5,-.5 1246.5,-19.5 1367.5,-19.5 1367.5,-.5 1246.5,-.5"/>
<text text-anchor="middle" x="1307" y="-7.5" font-family="Helvetica,sans-Serif" font-size="10.00" fill="#000000">odp/visibility_begin.h</text>
</g>
<!-- Node0&#45;&gt;Node1 -->
<g id="edge1" class="edge">
<title>Node0&#45;&gt;Node1</title>
<path fill="none" stroke="#191970" d="M1567.5402,-1123.6559C1628.3018,-1115.855 1733.5631,-1100.3741 1768,-1083 1806.4654,-1063.5935 1839,-1060.0836 1839,-1017 1839,-1017 1839,-1017 1839,-122 1839,-75.5625 1800.9031,-73.7699 1758,-56 1691.08,-28.2826 1487.2446,-16.6427 1377.9709,-12.2896"/>
<polygon fill="#191970" stroke="#191970" points="1377.8273,-8.7815 1367.699,-11.8908 1377.5557,-15.7762 1377.8273,-8.7815"/>
</g>
<!-- Node2 -->
<g id="node3" class="node">
<title>Node2</title>
<g id="a_node3"><a xlink:href="packet__io_8h.html" target="_top" xlink:title="ODP Packet IO. ">
<polygon fill="#ffffff" stroke="#000000" points="1467,-1063.5 1467,-1082.5 1579,-1082.5 1579,-1063.5 1467,-1063.5"/>
<text text-anchor="middle" x="1523" y="-1070.5" font-family="Helvetica,sans-Serif" font-size="10.00" fill="#000000">odp/api/packet_io.h</text>
</a>
</g>
</g>
<!-- Node0&#45;&gt;Node2 -->
<g id="edge2" class="edge">
<title>Node0&#45;&gt;Node2</title>
<path fill="none" stroke="#191970" d="M1523,-1119.2455C1523,-1111.9382 1523,-1101.6944 1523,-1092.7046"/>
<polygon fill="#191970" stroke="#191970" points="1526.5001,-1092.6426 1523,-1082.6427 1519.5001,-1092.6427 1526.5001,-1092.6426"/>
</g>
<!-- Node10 -->
<g id="node11" class="node">
<title>Node10</title>
<polygon fill="#ffffff" stroke="#bfbfbf" points="374,-.5 374,-19.5 486,-19.5 486,-.5 374,-.5"/>
<text text-anchor="middle" x="430" y="-7.5" font-family="Helvetica,sans-Serif" font-size="10.00" fill="#000000">odp/visibility_end.h</text>
</g>
<!-- Node0&#45;&gt;Node10 -->
<g id="edge104" class="edge">
<title>Node0&#45;&gt;Node10</title>
<path fill="none" stroke="#191970" d="M1478.2443,-1128.1104C1226.6792,-1122.8235 0,-1093.1402 0,-1017 0,-1017 0,-1017 0,-122 0,-82.3572 24.8066,-74.2477 60,-56 111.4426,-29.3272 271.9035,-17.4633 363.7334,-12.7406"/>
<polygon fill="#191970" stroke="#191970" points="363.9494,-16.2343 373.7621,-12.2392 363.5998,-9.243 363.9494,-16.2343"/>
</g>
<!-- Node44 -->
<g id="node45" class="node">
<title>Node44</title>
<g id="a_node45"><a xlink:href="support_8h.html" target="_top" xlink:title="ODP support API &#45; platform specific header. ">
<polygon fill="#ffffff" stroke="#000000" points="710.5,-112.5 710.5,-131.5 811.5,-131.5 811.5,-112.5 710.5,-112.5"/>
<text text-anchor="middle" x="761" y="-119.5" font-family="Helvetica,sans-Serif" font-size="10.00" fill="#000000">odp/api/support.h</text>
</a>
</g>
</g>
<!-- Node0&#45;&gt;Node44 -->
<g id="edge98" class="edge">
<title>Node0&#45;&gt;Node44</title>
<path fill="none" stroke="#191970" d="M1478.3317,-1126.9153C1262.0311,-1116.3736 330.4197,-1065.6825 247,-971 179.5945,-894.4938 786.5339,-350.9624 821,-255 829.9405,-230.1073 812.395,-181.5752 805,-168 798.9287,-156.8547 789.4497,-146.4517 780.8423,-138.3679"/>
<polygon fill="#191970" stroke="#191970" points="783.0966,-135.6887 773.3053,-131.6413 778.4356,-140.9112 783.0966,-135.6887"/>
</g>
<!-- Node48 -->
<g id="node49" class="node">
<title>Node48</title>
<g id="a_node49"><a xlink:href="threshold_8h.html" target="_top" xlink:title="ODP threshold API &#45; platform specific header. ">
<polygon fill="#ffffff" stroke="#000000" points="1649,-1063.5 1649,-1082.5 1759,-1082.5 1759,-1063.5 1649,-1063.5"/>
<text text-anchor="middle" x="1704" y="-1070.5" font-family="Helvetica,sans-Serif" font-size="10.00" fill="#000000">odp/api/threshold.h</text>
</a>
</g>
</g>
<!-- Node0&#45;&gt;Node48 -->
<g id="edge99" class="edge">
<title>Node0&#45;&gt;Node48</title>
<path fill="none" stroke="#191970" d="M1554.115,-1119.3733C1584.3429,-1110.021 1630.396,-1095.7725 1663.4739,-1085.5385"/>
<polygon fill="#191970" stroke="#191970" points="1664.7723,-1088.8005 1673.291,-1082.5011 1662.7033,-1082.1133 1664.7723,-1088.8005"/>
</g>
<!-- Node3 -->
<g id="node4" class="node">
<title>Node3</title>
<g id="a_node4"><a xlink:href="std__types_8h.html" target="_top" xlink:title="Standard C language types and definitions for ODP. ">
<polygon fill="#ffffff" stroke="#000000" points="1344,-235.5 1344,-254.5 1456,-254.5 1456,-235.5 1344,-235.5"/>
<text text-anchor="middle" x="1400" y="-242.5" font-family="Helvetica,sans-Serif" font-size="10.00" fill="#000000">odp/api/std_types.h</text>
</a>
</g>
</g>
<!-- Node2&#45;&gt;Node3 -->
<g id="edge3" class="edge">
<title>Node2&#45;&gt;Node3</title>
<path fill="none" stroke="#191970" d="M1579.2685,-1064.7873C1629.4845,-1056.5968 1698.4636,-1042.959 1721,-1027 1749.375,-1006.9065 1763,-995.7691 1763,-961 1763,-961 1763,-961 1763,-558 1763,-455.4642 1719.5829,-431.413 1648,-358 1645.5023,-355.4384 1541.2454,-292.5058 1538,-291 1508.1096,-277.1316 1472.84,-265.4507 1445.439,-257.3299"/>
<polygon fill="#191970" stroke="#191970" points="1446.3042,-253.9365 1435.7245,-254.5017 1444.3475,-260.6575 1446.3042,-253.9365"/>
</g>
<!-- Node11 -->
<g id="node12" class="node">
<title>Node11</title>
<polygon fill="#ffffff" stroke="#bfbfbf" points="1441,-548.5 1441,-567.5 1545,-567.5 1545,-548.5 1441,-548.5"/>
<text text-anchor="middle" x="1493" y="-555.5" font-family="Helvetica,sans-Serif" font-size="10.00" fill="#000000">odp/api/abi/pool.h</text>
</g>
<!-- Node2&#45;&gt;Node11 -->
<g id="edge14" class="edge">
<title>Node2&#45;&gt;Node11</title>
<path fill="none" stroke="#191970" d="M1579.1523,-1066.4521C1627.0063,-1059.5797 1690.4389,-1046.9567 1706,-1027 1711.4658,-1019.9902 1707.9526,-1015.6718 1706,-1007 1665.5159,-827.2047 1544.2939,-634.8444 1505.2572,-576.0679"/>
<polygon fill="#191970" stroke="#191970" points="1508.0035,-573.8787 1499.5299,-567.5188 1502.1879,-577.7748 1508.0035,-573.8787"/>
</g>
<!-- Node12 -->
<g id="node13" class="node">
<title>Node12</title>
<polygon fill="#ffffff" stroke="#bfbfbf" points="1551,-1007.5 1551,-1026.5 1697,-1026.5 1697,-1007.5 1551,-1007.5"/>
<text text-anchor="middle" x="1624" y="-1014.5" font-family="Helvetica,sans-Serif" font-size="10.00" fill="#000000">odp/api/abi/classification.h</text>
</g>
<!-- Node2&#45;&gt;Node12 -->
<g id="edge15" class="edge">
<title>Node2&#45;&gt;Node12</title>
<path fill="none" stroke="#191970" d="M1540.5929,-1063.2455C1556.379,-1054.4928 1579.7639,-1041.527 1597.7587,-1031.5496"/>
<polygon fill="#191970" stroke="#191970" points="1599.5603,-1034.5528 1606.6087,-1026.6427 1596.1659,-1028.4308 1599.5603,-1034.5528"/>
</g>
<!-- Node13 -->
<g id="node14" class="node">
<title>Node13</title>
<polygon fill="#ffffff" stroke="#bfbfbf" points="1403.5,-425.5 1403.5,-455.5 1510.5,-455.5 1510.5,-425.5 1403.5,-425.5"/>
<text text-anchor="start" x="1411.5" y="-443.5" font-family="Helvetica,sans-Serif" font-size="10.00" fill="#000000">odp/api/abi/packet</text>
<text text-anchor="middle" x="1457" y="-432.5" font-family="Helvetica,sans-Serif" font-size="10.00" fill="#000000">_types.h</text>
</g>
<!-- Node2&#45;&gt;Node13 -->
<g id="edge16" class="edge">
<title>Node2&#45;&gt;Node13</title>
<path fill="none" stroke="#191970" d="M1525.1223,-1063.4004C1528.146,-1050.3723 1534.2023,-1026.4832 1542,-1007 1571.62,-932.9917 1606.0087,-925.4203 1625,-848 1633.0471,-815.1948 1630.1637,-805.3808 1625,-772 1609.0346,-668.7907 1605.94,-638.6052 1554,-548 1534.8487,-514.592 1503.8845,-482.6735 1482.1024,-462.4243"/>
<polygon fill="#191970" stroke="#191970" points="1484.2762,-459.6697 1474.5317,-455.5109 1479.5559,-464.8387 1484.2762,-459.6697"/>
</g>
<!-- Node14 -->
<g id="node15" class="node">
<title>Node14</title>
<polygon fill="#ffffff" stroke="#bfbfbf" points="813,-548.5 813,-567.5 943,-567.5 943,-548.5 813,-548.5"/>
<text text-anchor="middle" x="878" y="-555.5" font-family="Helvetica,sans-Serif" font-size="10.00" fill="#000000">odp/api/abi/packet_io.h</text>
</g>
<!-- Node2&#45;&gt;Node14 -->
<g id="edge17" class="edge">
<title>Node2&#45;&gt;Node14</title>
<path fill="none" stroke="#191970" d="M1466.7119,-1069.6247C1345.6556,-1059.1981 1059.5978,-1017.0071 912,-848 875.4702,-806.1715 885,-781.5342 885,-726 885,-726 885,-726 885,-670 885,-637.6486 882.0548,-600.1429 879.9851,-577.7814"/>
<polygon fill="#191970" stroke="#191970" points="883.4449,-577.1945 879.0029,-567.5758 876.4771,-577.8651 883.4449,-577.1945"/>
</g>
<!-- Node15 -->
<g id="node16" class="node">
<title>Node15</title>
<polygon fill="#ffffff" stroke="#bfbfbf" points="142.5,-297 142.5,-316 287.5,-316 287.5,-297 142.5,-297"/>
<text text-anchor="middle" x="215" y="-304" font-family="Helvetica,sans-Serif" font-size="10.00" fill="#000000">odp/api/abi/queue_types.h</text>
</g>
<!-- Node2&#45;&gt;Node15 -->
<g id="edge18" class="edge">
<title>Node2&#45;&gt;Node15</title>
<path fill="none" stroke="#191970" d="M1466.6992,-1071.3999C1208.7127,-1063.705 152,-1028.0917 152,-961 152,-961 152,-961 152,-440.5 152,-395.1677 181.8938,-348.7055 200.4971,-324.1804"/>
<polygon fill="#191970" stroke="#191970" points="203.3526,-326.2108 206.7639,-316.1801 197.842,-321.8942 203.3526,-326.2108"/>
</g>
<!-- Node16 -->
<g id="node17" class="node">
<title>Node16</title>
<g id="a_node17"><a xlink:href="spec_2packet__io_8h.html" target="_top" xlink:title="ODP Packet IO. ">
<polygon fill="#ffffff" stroke="#000000" points="696.5,-1007.5 696.5,-1026.5 833.5,-1026.5 833.5,-1007.5 696.5,-1007.5"/>
<text text-anchor="middle" x="765" y="-1014.5" font-family="Helvetica,sans-Serif" font-size="10.00" fill="#000000">odp/api/spec/packet_io.h</text>
</a>
</g>
</g>
<!-- Node2&#45;&gt;Node16 -->
<g id="edge19" class="edge">
<title>Node2&#45;&gt;Node16</title>
<path fill="none" stroke="#191970" d="M1466.9546,-1068.8594C1333.7013,-1059.0149 997.637,-1034.1869 843.9309,-1022.8313"/>
<polygon fill="#191970" stroke="#191970" points="843.86,-1019.3166 833.6292,-1022.0702 843.3442,-1026.2976 843.86,-1019.3166"/>
</g>
<!-- Node4 -->
<g id="node5" class="node">
<title>Node4</title>
<polygon fill="#ffffff" stroke="#bfbfbf" points="1228,-174 1228,-193 1358,-193 1358,-174 1228,-174"/>
<text text-anchor="middle" x="1293" y="-181" font-family="Helvetica,sans-Serif" font-size="10.00" fill="#000000">odp/api/abi/std_types.h</text>
</g>
<!-- Node3&#45;&gt;Node4 -->
<g id="edge4" class="edge">
<title>Node3&#45;&gt;Node4</title>
<path fill="none" stroke="#191970" d="M1383.2813,-235.3906C1365.9278,-225.4165 1338.5677,-209.6908 1318.5118,-198.1633"/>
<polygon fill="#191970" stroke="#191970" points="1320.0154,-194.9907 1309.6013,-193.0419 1316.5272,-201.0596 1320.0154,-194.9907"/>
</g>
<!-- Node5 -->
<g id="node6" class="node">
<title>Node5</title>
<g id="a_node6"><a xlink:href="spec_2std__types_8h.html" target="_top" xlink:title="Standard C language types and definitions for ODP. ">
<polygon fill="#ffffff" stroke="#000000" points="1414.5,-174 1414.5,-193 1551.5,-193 1551.5,-174 1414.5,-174"/>
<text text-anchor="middle" x="1483" y="-181" font-family="Helvetica,sans-Serif" font-size="10.00" fill="#000000">odp/api/spec/std_types.h</text>
</a>
</g>
</g>
<!-- Node3&#45;&gt;Node5 -->
<g id="edge5" class="edge">
<title>Node3&#45;&gt;Node5</title>
<path fill="none" stroke="#191970" d="M1412.9688,-235.3906C1426.0034,-225.7324 1446.3164,-210.6812 1461.7155,-199.271"/>
<polygon fill="#191970" stroke="#191970" points="1464.1713,-201.8075 1470.1223,-193.0419 1460.0039,-196.1832 1464.1713,-201.8075"/>
</g>
<!-- Node5&#45;&gt;Node1 -->
<g id="edge6" class="edge">
<title>Node5&#45;&gt;Node1</title>
<path fill="none" stroke="#191970" d="M1494.1885,-173.7687C1504.1804,-164.2725 1518.1187,-148.8302 1524,-132 1529.4899,-116.2899 1536.8821,-72.8401 1523,-56 1504.6902,-33.7887 1433.5489,-21.8077 1377.8508,-15.6973"/>
<polygon fill="#191970" stroke="#191970" points="1377.9581,-12.1894 1367.6467,-14.6236 1377.2255,-19.151 1377.9581,-12.1894"/>
</g>
<!-- Node6 -->
<g id="node7" class="node">
<title>Node6</title>
<polygon fill="#ffffff" stroke="#bfbfbf" points="1461.5,-112.5 1461.5,-131.5 1514.5,-131.5 1514.5,-112.5 1461.5,-112.5"/>
<text text-anchor="middle" x="1488" y="-119.5" font-family="Helvetica,sans-Serif" font-size="10.00" fill="#000000">stdint.h</text>
</g>
<!-- Node5&#45;&gt;Node6 -->
<g id="edge7" class="edge">
<title>Node5&#45;&gt;Node6</title>
<path fill="none" stroke="#191970" d="M1483.7813,-173.8906C1484.4743,-165.3657 1485.509,-152.6392 1486.3802,-141.9235"/>
<polygon fill="#191970" stroke="#191970" points="1489.8858,-141.9956 1487.2077,-131.7449 1482.9088,-141.4283 1489.8858,-141.9956"/>
</g>
<!-- Node7 -->
<g id="node8" class="node">
<title>Node7</title>
<g id="a_node8"><a xlink:href="align_8h.html" target="_top" xlink:title="ODP alignments. ">
<polygon fill="#ffffff" stroke="#000000" points="1315.5,-112.5 1315.5,-131.5 1404.5,-131.5 1404.5,-112.5 1315.5,-112.5"/>
<text text-anchor="middle" x="1360" y="-119.5" font-family="Helvetica,sans-Serif" font-size="10.00" fill="#000000">odp/api/align.h</text>
</a>
</g>
</g>
<!-- Node5&#45;&gt;Node7 -->
<g id="edge8" class="edge">
<title>Node5&#45;&gt;Node7</title>
<path fill="none" stroke="#191970" d="M1463.7813,-173.8906C1443.4719,-163.7359 1411.2393,-147.6196 1388.0832,-136.0416"/>
<polygon fill="#191970" stroke="#191970" points="1389.5933,-132.8836 1379.0838,-131.5419 1386.4628,-139.1446 1389.5933,-132.8836"/>
</g>
<!-- Node5&#45;&gt;Node10 -->
<g id="edge13" class="edge">
<title>Node5&#45;&gt;Node10</title>
<path fill="none" stroke="#191970" d="M1440.9981,-173.98C1378.8251,-159.9645 1258.5891,-133.1521 1156,-112 1027.8617,-85.5801 996.4007,-75.3107 867,-56 736.1296,-36.47 581.991,-22.288 496.191,-15.1725"/>
<polygon fill="#191970" stroke="#191970" points="496.3258,-11.6718 486.0725,-14.3399 495.7517,-18.6482 496.3258,-11.6718"/>
</g>
<!-- Node8 -->
<g id="node9" class="node">
<title>Node8</title>
<polygon fill="#ffffff" stroke="#bfbfbf" points="1373.5,-56.5 1373.5,-75.5 1480.5,-75.5 1480.5,-56.5 1373.5,-56.5"/>
<text text-anchor="middle" x="1427" y="-63.5" font-family="Helvetica,sans-Serif" font-size="10.00" fill="#000000">odp/api/abi/align.h</text>
</g>
<!-- Node7&#45;&gt;Node8 -->
<g id="edge9" class="edge">
<title>Node7&#45;&gt;Node8</title>
<path fill="none" stroke="#191970" d="M1371.6705,-112.2455C1381.5661,-103.9746 1395.9627,-91.9416 1407.5901,-82.2232"/>
<polygon fill="#191970" stroke="#191970" points="1410.035,-84.7413 1415.4632,-75.6427 1405.5458,-79.3703 1410.035,-84.7413"/>
</g>
<!-- Node9 -->
<g id="node10" class="node">
<title>Node9</title>
<g id="a_node10"><a xlink:href="spec_2align_8h.html" target="_top" xlink:title="ODP alignments. ">
<polygon fill="#ffffff" stroke="#000000" points="1165,-56.5 1165,-75.5 1279,-75.5 1279,-56.5 1165,-56.5"/>
<text text-anchor="middle" x="1222" y="-63.5" font-family="Helvetica,sans-Serif" font-size="10.00" fill="#000000">odp/api/spec/align.h</text>
</a>
</g>
</g>
<!-- Node7&#45;&gt;Node9 -->
<g id="edge10" class="edge">
<title>Node7&#45;&gt;Node9</title>
<path fill="none" stroke="#191970" d="M1336.277,-112.3733C1313.8263,-103.2629 1279.9261,-89.5062 1254.8745,-79.3404"/>
<polygon fill="#191970" stroke="#191970" points="1255.9957,-76.0182 1245.4135,-75.5011 1253.3635,-82.5045 1255.9957,-76.0182"/>
</g>
<!-- Node9&#45;&gt;Node1 -->
<g id="edge11" class="edge">
<title>Node9&#45;&gt;Node1</title>
<path fill="none" stroke="#191970" d="M1236.8059,-56.2455C1249.7256,-47.7337 1268.6931,-35.2375 1283.6552,-25.3801"/>
<polygon fill="#191970" stroke="#191970" points="1285.9387,-28.067 1292.3638,-19.6427 1282.0876,-22.2216 1285.9387,-28.067"/>
</g>
<!-- Node9&#45;&gt;Node10 -->
<g id="edge12" class="edge">
<title>Node9&#45;&gt;Node10</title>
<path fill="none" stroke="#191970" d="M1164.8021,-57.022C1161.8283,-56.6529 1158.8808,-56.3089 1156,-56 913.6127,-30.0083 624.0059,-17.0604 496.1854,-12.2629"/>
<polygon fill="#191970" stroke="#191970" points="496.2838,-8.7643 486.1609,-11.891 496.0242,-15.7595 496.2838,-8.7643"/>
</g>
<!-- Node16&#45;&gt;Node1 -->
<g id="edge20" class="edge">
<title>Node16&#45;&gt;Node1</title>
<path fill="none" stroke="#191970" d="M833.6935,-1013.4033C926.2591,-1007.8584 1095.9373,-995.2319 1239,-971 1342.7311,-953.43 1372.7037,-957.3775 1469,-915 1517.9661,-893.4513 1533.82,-888.3037 1569,-848 1607.5921,-803.7872 1801,-432.1867 1801,-373.5 1801,-373.5 1801,-373.5 1801,-122 1801,-75.2171 1762.1904,-73.9787 1719,-56 1659.0167,-31.031 1478.7107,-18.4011 1377.6383,-13.1252"/>
<polygon fill="#191970" stroke="#191970" points="1377.6789,-9.6228 1367.5132,-12.6075 1377.3214,-16.6137 1377.6789,-9.6228"/>
</g>
<!-- Node16&#45;&gt;Node10 -->
<g id="edge97" class="edge">
<title>Node16&#45;&gt;Node10</title>
<path fill="none" stroke="#191970" d="M696.3699,-1015.0995C563.5345,-1010.8195 281.2759,-998.566 247,-971 246.0576,-970.2421 38,-307.7094 38,-306.5 38,-306.5 38,-306.5 38,-122 38,-81.4482 64.9151,-74.502 101,-56 145.5857,-33.1394 281.2073,-20.1202 363.7495,-14.1144"/>
<polygon fill="#191970" stroke="#191970" points="364.0642,-17.6009 373.7903,-13.3993 363.5669,-10.6186 364.0642,-17.6009"/>
</g>
<!-- Node17 -->
<g id="node18" class="node">
<title>Node17</title>
<g id="a_node18"><a xlink:href="deprecated_8h.html" target="_top" xlink:title="Control deprecated API definitions. ">
<polygon fill="#ffffff" stroke="#000000" points="692.5,-235.5 692.5,-254.5 811.5,-254.5 811.5,-235.5 692.5,-235.5"/>
<text text-anchor="middle" x="752" y="-242.5" font-family="Helvetica,sans-Serif" font-size="10.00" fill="#000000">odp/api/deprecated.h</text>
</a>
</g>
</g>
<!-- Node16&#45;&gt;Node17 -->
<g id="edge21" class="edge">
<title>Node16&#45;&gt;Node17</title>
<path fill="none" stroke="#191970" d="M746.5856,-1007.4158C730.2253,-998.6372 705.8922,-984.9263 686,-971 560.8118,-883.3575 490.834,-878.2527 435,-736 416.5253,-688.9306 419.4618,-674.368 415,-624 411.8744,-588.7162 422.1927,-579.1806 439,-548 510.2054,-415.9005 534.3361,-376.0161 658,-291 676.8693,-278.0278 699.9422,-266.6793 718.5064,-258.4998"/>
<polygon fill="#191970" stroke="#191970" points="719.9547,-261.687 727.7572,-254.5196 717.188,-255.2569 719.9547,-261.687"/>
</g>
<!-- Node19 -->
<g id="node20" class="node">
<title>Node19</title>
<g id="a_node20"><a xlink:href="packet__io__stats_8h.html" target="_top" xlink:title="ODP packet IO stats. ">
<polygon fill="#ffffff" stroke="#000000" points="694.5,-951.5 694.5,-970.5 835.5,-970.5 835.5,-951.5 694.5,-951.5"/>
<text text-anchor="middle" x="765" y="-958.5" font-family="Helvetica,sans-Serif" font-size="10.00" fill="#000000">odp/api/packet_io_stats.h</text>
</a>
</g>
</g>
<!-- Node16&#45;&gt;Node19 -->
<g id="edge25" class="edge">
<title>Node16&#45;&gt;Node19</title>
<path fill="none" stroke="#191970" d="M765,-1007.2455C765,-999.9382 765,-989.6944 765,-980.7046"/>
<polygon fill="#191970" stroke="#191970" points="768.5001,-980.6426 765,-970.6427 761.5001,-980.6427 768.5001,-980.6426"/>
</g>
<!-- Node28 -->
<g id="node29" class="node">
<title>Node28</title>
<g id="a_node29"><a xlink:href="packet_8h.html" target="_top" xlink:title="ODP packet descriptor. ">
<polygon fill="#ffffff" stroke="#000000" points="1096,-604.5 1096,-623.5 1194,-623.5 1194,-604.5 1096,-604.5"/>
<text text-anchor="middle" x="1145" y="-611.5" font-family="Helvetica,sans-Serif" font-size="10.00" fill="#000000">odp/api/packet.h</text>
</a>
</g>
</g>
<!-- Node16&#45;&gt;Node28 -->
<g id="edge96" class="edge">
<title>Node16&#45;&gt;Node28</title>
<path fill="none" stroke="#191970" d="M833.7201,-1011.9507C952.5893,-1001.31 1184,-971.3662 1184,-899.5 1184,-899.5 1184,-899.5 1184,-726 1184,-691.5398 1167.3304,-654.2666 1155.7876,-632.5877"/>
<polygon fill="#191970" stroke="#191970" points="1158.8252,-630.8481 1150.9233,-623.7906 1152.6994,-634.2355 1158.8252,-630.8481"/>
</g>
<!-- Node34 -->
<g id="node35" class="node">
<title>Node34</title>
<g id="a_node35"><a xlink:href="time_8h.html" target="_top" xlink:title="ODP time. ">
<polygon fill="#ffffff" stroke="#000000" points="1233.5,-297 1233.5,-316 1320.5,-316 1320.5,-297 1233.5,-297"/>
<text text-anchor="middle" x="1277" y="-304" font-family="Helvetica,sans-Serif" font-size="10.00" fill="#000000">odp/api/time.h</text>
</a>
</g>
</g>
<!-- Node16&#45;&gt;Node34 -->
<g id="edge95" class="edge">
<title>Node16&#45;&gt;Node34</title>
<path fill="none" stroke="#191970" d="M833.744,-1011.7176C1005.9314,-997.0546 1449.0787,-950.0252 1549,-848 1586.64,-809.5675 1611,-667.7943 1611,-614 1611,-614 1611,-614 1611,-440.5 1611,-380.8206 1425.0009,-335.5898 1330.605,-316.4777"/>
<polygon fill="#191970" stroke="#191970" points="1331.1564,-313.0188 1320.6647,-314.4932 1329.7859,-319.8834 1331.1564,-313.0188"/>
</g>
<!-- Node39 -->
<g id="node40" class="node">
<title>Node39</title>
<g id="a_node40"><a xlink:href="queue__types_8h.html" target="_top" xlink:title="ODP queue. ">
<polygon fill="#ffffff" stroke="#000000" points="387.5,-364 387.5,-383 514.5,-383 514.5,-364 387.5,-364"/>
<text text-anchor="middle" x="451" y="-371" font-family="Helvetica,sans-Serif" font-size="10.00" fill="#000000">odp/api/queue_types.h</text>
</a>
</g>
</g>
<!-- Node16&#45;&gt;Node39 -->
<g id="edge90" class="edge">
<title>Node16&#45;&gt;Node39</title>
<path fill="none" stroke="#191970" d="M696.2466,-1014.5624C610.7427,-1010.3593 470.8028,-999.2759 428,-971 346.3408,-917.0552 315,-879.8686 315,-782 315,-782 315,-782 315,-726 315,-649.4471 353,-634.5529 353,-558 353,-558 353,-558 353,-502 353,-452.9275 398.7464,-410.9266 427.7288,-389.2413"/>
<polygon fill="#191970" stroke="#191970" points="430.0622,-391.8733 436.1159,-383.1783 425.9612,-386.2003 430.0622,-391.8733"/>
</g>
<!-- Node46 -->
<g id="node47" class="node">
<title>Node46</title>
<g id="a_node47"><a xlink:href="reassembly_8h.html" target="_top" xlink:title="ODP REASSEMBLY API &#45; platform specific header. ">
<polygon fill="#ffffff" stroke="#000000" points="256,-951.5 256,-970.5 376,-970.5 376,-951.5 256,-951.5"/>
<text text-anchor="middle" x="316" y="-958.5" font-family="Helvetica,sans-Serif" font-size="10.00" fill="#000000">odp/api/reassembly.h</text>
</a>
</g>
</g>
<!-- Node16&#45;&gt;Node46 -->
<g id="edge91" class="edge">
<title>Node16&#45;&gt;Node46</title>
<path fill="none" stroke="#191970" d="M696.1963,-1008.8166C620.9603,-999.8082 496.8511,-984.7727 390,-971 388.7343,-970.8369 387.4566,-970.6715 386.1695,-970.5043"/>
<polygon fill="#191970" stroke="#191970" points="386.5373,-967.0226 376.1673,-969.1935 385.6277,-973.9633 386.5373,-967.0226"/>
</g>
<!-- Node18 -->
<g id="node19" class="node">
<title>Node18</title>
<g id="a_node19"><a xlink:href="spec_2deprecated_8h.html" target="_top" xlink:title="Macro for deprecated API definitions. ">
<polygon fill="#ffffff" stroke="#000000" points="534.5,-56.5 534.5,-75.5 679.5,-75.5 679.5,-56.5 534.5,-56.5"/>
<text text-anchor="middle" x="607" y="-63.5" font-family="Helvetica,sans-Serif" font-size="10.00" fill="#000000">odp/api/spec/deprecated.h</text>
</a>
</g>
</g>
<!-- Node17&#45;&gt;Node18 -->
<g id="edge22" class="edge">
<title>Node17&#45;&gt;Node18</title>
<path fill="none" stroke="#191970" d="M721.0258,-235.3904C701.8567,-228.0747 677.9453,-216.2814 662,-199 631.4847,-165.9278 616.6844,-113.5659 610.5904,-85.422"/>
<polygon fill="#191970" stroke="#191970" points="614.0166,-84.7062 608.6074,-75.5963 607.1549,-86.0911 614.0166,-84.7062"/>
</g>
<!-- Node18&#45;&gt;Node1 -->
<g id="edge23" class="edge">
<title>Node18&#45;&gt;Node1</title>
<path fill="none" stroke="#191970" d="M679.8579,-56.9344C682.9453,-56.6073 686.0027,-56.2942 689,-56 887.0003,-36.5687 1121.4103,-21.2078 1236.3182,-14.1756"/>
<polygon fill="#191970" stroke="#191970" points="1236.6229,-17.6636 1246.3915,-13.5618 1236.1971,-10.6766 1236.6229,-17.6636"/>
</g>
<!-- Node18&#45;&gt;Node10 -->
<g id="edge24" class="edge">
<title>Node18&#45;&gt;Node10</title>
<path fill="none" stroke="#191970" d="M576.5726,-56.3733C547.0128,-47.021 501.9774,-32.7725 469.6305,-22.5385"/>
<polygon fill="#191970" stroke="#191970" points="470.6203,-19.1807 460.0303,-19.5011 468.5087,-25.8546 470.6203,-19.1807"/>
</g>
<!-- Node20 -->
<g id="node21" class="node">
<title>Node20</title>
<g id="a_node21"><a xlink:href="spec_2packet__io__stats_8h.html" target="_top" xlink:title="ODP Packet IO statistics. ">
<polygon fill="#ffffff" stroke="#000000" points="708,-884.5 708,-914.5 822,-914.5 822,-884.5 708,-884.5"/>
<text text-anchor="start" x="716" y="-902.5" font-family="Helvetica,sans-Serif" font-size="10.00" fill="#000000">odp/api/spec/packet</text>
<text text-anchor="middle" x="765" y="-891.5" font-family="Helvetica,sans-Serif" font-size="10.00" fill="#000000">_io_stats.h</text>
</a>
</g>
</g>
<!-- Node19&#45;&gt;Node20 -->
<g id="edge26" class="edge">
<title>Node19&#45;&gt;Node20</title>
<path fill="none" stroke="#191970" d="M765,-951.3906C765,-944.2234 765,-934.0862 765,-924.671"/>
<polygon fill="#191970" stroke="#191970" points="768.5001,-924.5446 765,-914.5446 761.5001,-924.5446 768.5001,-924.5446"/>
</g>
<!-- Node20&#45;&gt;Node1 -->
<g id="edge27" class="edge">
<title>Node20&#45;&gt;Node1</title>
<path fill="none" stroke="#191970" d="M822.2473,-892.0249C875.5729,-884.1603 956.8643,-869.854 1025,-848 1299.4744,-759.9647 1384.2057,-747.1741 1610,-568 1715.479,-484.2994 1763,-441.1536 1763,-306.5 1763,-306.5 1763,-306.5 1763,-122 1763,-43.622 1505.7179,-19.798 1377.6648,-12.7944"/>
<polygon fill="#191970" stroke="#191970" points="1377.7236,-9.2927 1367.5533,-12.2617 1377.3552,-16.283 1377.7236,-9.2927"/>
</g>
<!-- Node20&#45;&gt;Node10 -->
<g id="edge89" class="edge">
<title>Node20&#45;&gt;Node10</title>
<path fill="none" stroke="#191970" d="M707.5619,-893.1119C661.3593,-886.3681 595.6877,-873.0944 543,-848 399.5387,-779.6715 76,-465.4023 76,-306.5 76,-306.5 76,-306.5 76,-122 76,-79.5631 107.0045,-74.9006 145,-56 182.3708,-37.4101 291.7554,-23.538 363.6273,-16.114"/>
<polygon fill="#191970" stroke="#191970" points="364.3512,-19.5586 373.9462,-15.0656 363.6436,-12.5944 364.3512,-19.5586"/>
</g>
<!-- Node20&#45;&gt;Node17 -->
<g id="edge28" class="edge">
<title>Node20&#45;&gt;Node17</title>
<path fill="none" stroke="#191970" d="M707.6213,-887.9126C611.6557,-864.8143 429,-803.3369 429,-670 429,-670 429,-670 429,-614 429,-521.347 662.4798,-319.5112 732.4282,-261.122"/>
<polygon fill="#191970" stroke="#191970" points="734.6669,-263.8125 740.1212,-254.7295 730.1931,-258.4287 734.6669,-263.8125"/>
</g>
<!-- Node21 -->
<g id="node22" class="node">
<title>Node21</title>
<g id="a_node22"><a xlink:href="queue_8h.html" target="_top" xlink:title="ODP queue. ">
<polygon fill="#ffffff" stroke="#000000" points="920.5,-828.5 920.5,-847.5 1015.5,-847.5 1015.5,-828.5 920.5,-828.5"/>
<text text-anchor="middle" x="968" y="-835.5" font-family="Helvetica,sans-Serif" font-size="10.00" fill="#000000">odp/api/queue.h</text>
</a>
</g>
</g>
<!-- Node20&#45;&gt;Node21 -->
<g id="edge29" class="edge">
<title>Node20&#45;&gt;Node21</title>
<path fill="none" stroke="#191970" d="M814.6594,-884.4554C849.1247,-874.0139 894.4909,-860.27 926.9198,-850.4455"/>
<polygon fill="#191970" stroke="#191970" points="927.9866,-853.7795 936.5422,-847.5303 925.9569,-847.0802 927.9866,-853.7795"/>
</g>
<!-- Node21&#45;&gt;Node3 -->
<g id="edge30" class="edge">
<title>Node21&#45;&gt;Node3</title>
<path fill="none" stroke="#191970" d="M993.4531,-828.4628C1117.0824,-781.7757 1649,-576.5701 1649,-502 1649,-502 1649,-502 1649,-440.5 1649,-402.3133 1649.4317,-387.3481 1625,-358 1621.5395,-353.8431 1488.8643,-288.5332 1428.9014,-259.1421"/>
<polygon fill="#191970" stroke="#191970" points="1430.1179,-255.8407 1419.5978,-254.5843 1427.0382,-262.1269 1430.1179,-255.8407"/>
</g>
<!-- Node21&#45;&gt;Node11 -->
<g id="edge35" class="edge">
<title>Node21&#45;&gt;Node11</title>
<path fill="none" stroke="#191970" d="M986.5694,-828.3615C1004.3987,-819.091 1032.0766,-804.6574 1056,-792 1211.8389,-709.5486 1398.1128,-609.2068 1466.311,-572.4103"/>
<polygon fill="#191970" stroke="#191970" points="1467.9969,-575.4777 1475.135,-567.6483 1464.6724,-569.3175 1467.9969,-575.4777"/>
</g>
<!-- Node21&#45;&gt;Node15 -->
<g id="edge32" class="edge">
<title>Node21&#45;&gt;Node15</title>
<path fill="none" stroke="#191970" d="M920.2897,-835.4381C812.508,-829.3128 556.9968,-812.7712 524,-792 465.7489,-755.3314 479.6563,-718.2589 443,-660 361.5359,-530.5268 260.7417,-376.2679 226.7879,-324.4624"/>
<polygon fill="#191970" stroke="#191970" points="229.6562,-322.4537 221.2456,-316.0106 223.8025,-326.2922 229.6562,-322.4537"/>
</g>
<!-- Node22 -->
<g id="node23" class="node">
<title>Node22</title>
<polygon fill="#ffffff" stroke="#bfbfbf" points="685,-548.5 685,-567.5 795,-567.5 795,-548.5 685,-548.5"/>
<text text-anchor="middle" x="740" y="-555.5" font-family="Helvetica,sans-Serif" font-size="10.00" fill="#000000">odp/api/abi/event.h</text>
</g>
<!-- Node21&#45;&gt;Node22 -->
<g id="edge31" class="edge">
<title>Node21&#45;&gt;Node22</title>
<path fill="none" stroke="#191970" d="M928.7873,-828.4602C882.285,-814.5297 811,-783.756 811,-726 811,-726 811,-726 811,-670 811,-631.2128 780.2491,-594.9698 759.2224,-574.7214"/>
<polygon fill="#191970" stroke="#191970" points="761.4378,-572.0026 751.7242,-567.7722 756.6796,-577.1368 761.4378,-572.0026"/>
</g>
<!-- Node23 -->
<g id="node24" class="node">
<title>Node23</title>
<polygon fill="#ffffff" stroke="#bfbfbf" points="913.5,-772.5 913.5,-791.5 1026.5,-791.5 1026.5,-772.5 913.5,-772.5"/>
<text text-anchor="middle" x="970" y="-779.5" font-family="Helvetica,sans-Serif" font-size="10.00" fill="#000000">odp/api/abi/queue.h</text>
</g>
<!-- Node21&#45;&gt;Node23 -->
<g id="edge33" class="edge">
<title>Node21&#45;&gt;Node23</title>
<path fill="none" stroke="#191970" d="M968.3484,-828.2455C968.6093,-820.9382 968.9752,-810.6944 969.2963,-801.7046"/>
<polygon fill="#191970" stroke="#191970" points="972.7964,-801.7613 969.6556,-791.6427 965.8008,-801.5113 972.7964,-801.7613"/>
</g>
<!-- Node24 -->
<g id="node25" class="node">
<title>Node24</title>
<polygon fill="#ffffff" stroke="#bfbfbf" points="961,-548.5 961,-567.5 1071,-567.5 1071,-548.5 961,-548.5"/>
<text text-anchor="middle" x="1016" y="-555.5" font-family="Helvetica,sans-Serif" font-size="10.00" fill="#000000">odp/api/abi/buffer.h</text>
</g>
<!-- Node21&#45;&gt;Node24 -->
<g id="edge34" class="edge">
<title>Node21&#45;&gt;Node24</title>
<path fill="none" stroke="#191970" d="M989.6883,-828.3358C1004.7608,-820.5635 1024.1898,-808.2604 1036,-792 1053.9382,-767.3024 1055,-756.5246 1055,-726 1055,-726 1055,-726 1055,-670 1055,-635.5398 1038.3304,-598.2666 1026.7876,-576.5877"/>
<polygon fill="#191970" stroke="#191970" points="1029.8252,-574.8481 1021.9233,-567.7906 1023.6994,-578.2355 1029.8252,-574.8481"/>
</g>
<!-- Node25 -->
<g id="node26" class="node">
<title>Node25</title>
<g id="a_node26"><a xlink:href="spec_2queue_8h.html" target="_top" xlink:title="ODP queue. ">
<polygon fill="#ffffff" stroke="#000000" points="533,-772.5 533,-791.5 653,-791.5 653,-772.5 533,-772.5"/>
<text text-anchor="middle" x="593" y="-779.5" font-family="Helvetica,sans-Serif" font-size="10.00" fill="#000000">odp/api/spec/queue.h</text>
</a>
</g>
</g>
<!-- Node21&#45;&gt;Node25 -->
<g id="edge36" class="edge">
<title>Node21&#45;&gt;Node25</title>
<path fill="none" stroke="#191970" d="M920.1251,-830.8507C855.1586,-821.149 738.5982,-803.7427 663.5842,-792.5406"/>
<polygon fill="#191970" stroke="#191970" points="663.6921,-789.018 653.2848,-791.0025 662.6582,-795.9412 663.6921,-789.018"/>
</g>
<!-- Node25&#45;&gt;Node1 -->
<g id="edge37" class="edge">
<title>Node25&#45;&gt;Node1</title>
<path fill="none" stroke="#191970" d="M591.8711,-772.4954C589.7357,-751.5258 586.449,-699.9848 600,-660 619.3085,-603.0268 637.7165,-594.4019 676,-548 838.5218,-351.0135 882.9841,-290.6127 1107,-168 1186.1583,-124.6736 1230.5298,-145.5729 1288,-76 1298.7855,-62.9432 1303.4516,-44.0588 1305.4687,-29.8322"/>
<polygon fill="#191970" stroke="#191970" points="1308.9774,-29.9429 1306.5847,-19.6217 1302.0188,-29.1822 1308.9774,-29.9429"/>
</g>
<!-- Node25&#45;&gt;Node10 -->
<g id="edge88" class="edge">
<title>Node25&#45;&gt;Node10</title>
<path fill="none" stroke="#191970" d="M579.181,-772.4519C500.644,-717.6906 114,-441.2532 114,-306.5 114,-306.5 114,-306.5 114,-122 114,-72.3971 158.6431,-76.0798 204,-56 254.888,-33.4715 317.1364,-21.8463 363.4096,-15.9257"/>
<polygon fill="#191970" stroke="#191970" points="364.1209,-19.3649 373.6226,-14.678 363.2719,-12.4166 364.1209,-19.3649"/>
</g>
<!-- Node26 -->
<g id="node27" class="node">
<title>Node26</title>
<g id="a_node27"><a xlink:href="event_8h.html" target="_top" xlink:title="ODP event. ">
<polygon fill="#ffffff" stroke="#000000" points="622,-716.5 622,-735.5 714,-735.5 714,-716.5 622,-716.5"/>
<text text-anchor="middle" x="668" y="-723.5" font-family="Helvetica,sans-Serif" font-size="10.00" fill="#000000">odp/api/event.h</text>
</a>
</g>
</g>
<!-- Node25&#45;&gt;Node26 -->
<g id="edge38" class="edge">
<title>Node25&#45;&gt;Node26</title>
<path fill="none" stroke="#191970" d="M606.064,-772.2455C617.3562,-763.814 633.8845,-751.4729 647.0271,-741.6598"/>
<polygon fill="#191970" stroke="#191970" points="649.1669,-744.4301 655.0857,-735.6427 644.9789,-738.8211 649.1669,-744.4301"/>
</g>
<!-- Node25&#45;&gt;Node39 -->
<g id="edge87" class="edge">
<title>Node25&#45;&gt;Node39</title>
<path fill="none" stroke="#191970" d="M585.4061,-772.4565C571.4187,-753.8857 543,-711.0976 543,-670 543,-670 543,-670 543,-614 543,-525.807 488.3639,-430.7165 463.3002,-391.7345"/>
<polygon fill="#191970" stroke="#191970" points="466.0283,-389.5124 457.6164,-383.0711 460.1755,-393.3523 466.0283,-389.5124"/>
</g>
<!-- Node26&#45;&gt;Node22 -->
<g id="edge39" class="edge">
<title>Node26&#45;&gt;Node22</title>
<path fill="none" stroke="#191970" d="M692.6414,-716.3398C708.026,-708.8919 726.6319,-696.9701 736,-680 753.8431,-647.6777 749.2528,-602.846 744.499,-577.5009"/>
<polygon fill="#191970" stroke="#191970" points="747.9101,-576.7125 742.45,-567.6329 741.0563,-578.1357 747.9101,-576.7125"/>
</g>
<!-- Node27 -->
<g id="node28" class="node">
<title>Node27</title>
<g id="a_node28"><a xlink:href="spec_2event_8h.html" target="_top" xlink:title="ODP event. ">
<polygon fill="#ffffff" stroke="#000000" points="609,-660.5 609,-679.5 727,-679.5 727,-660.5 609,-660.5"/>
<text text-anchor="middle" x="668" y="-667.5" font-family="Helvetica,sans-Serif" font-size="10.00" fill="#000000">odp/api/spec/event.h</text>
</a>
</g>
</g>
<!-- Node26&#45;&gt;Node27 -->
<g id="edge40" class="edge">
<title>Node26&#45;&gt;Node27</title>
<path fill="none" stroke="#191970" d="M668,-716.2455C668,-708.9382 668,-698.6944 668,-689.7046"/>
<polygon fill="#191970" stroke="#191970" points="671.5001,-689.6426 668,-679.6427 664.5001,-689.6427 671.5001,-689.6426"/>
</g>
<!-- Node27&#45;&gt;Node1 -->
<g id="edge41" class="edge">
<title>Node27&#45;&gt;Node1</title>
<path fill="none" stroke="#191970" d="M666.9109,-660.4686C664.8713,-639.4456 661.8647,-587.8045 676,-548 687.2145,-516.4203 996.5672,-73.7373 1025,-56 1059.2979,-34.6038 1164.2277,-21.8064 1235.9506,-15.3314"/>
<polygon fill="#191970" stroke="#191970" points="1236.625,-18.7856 1246.2794,-14.4217 1236.0108,-11.8126 1236.625,-18.7856"/>
</g>
<!-- Node27&#45;&gt;Node10 -->
<g id="edge86" class="edge">
<title>Node27&#45;&gt;Node10</title>
<path fill="none" stroke="#191970" d="M658.6895,-660.3149C636.2458,-635.9024 581,-569.0049 581,-502 581,-502 581,-502 581,-440.5 581,-395.9329 560.9558,-382.9097 524,-358 463.1997,-317.0181 428.9424,-354.0594 363,-322 287.9089,-285.4928 260.9232,-272.3321 221,-199 190.6043,-143.1682 178.1152,-99.9963 224,-56 243.8791,-36.9391 311.4333,-24.403 363.8236,-17.3009"/>
<polygon fill="#191970" stroke="#191970" points="364.2894,-20.7699 373.7473,-15.9951 363.3761,-13.8297 364.2894,-20.7699"/>
</g>
<!-- Node27&#45;&gt;Node28 -->
<g id="edge42" class="edge">
<title>Node27&#45;&gt;Node28</title>
<path fill="none" stroke="#191970" d="M727.4479,-663.0208C819.1618,-652.2535 994.1219,-631.7132 1085.7287,-620.9585"/>
<polygon fill="#191970" stroke="#191970" points="1086.1472,-624.4335 1095.6708,-619.7913 1085.3309,-617.4812 1086.1472,-624.4335"/>
</g>
<!-- Node28&#45;&gt;Node3 -->
<g id="edge43" class="edge">
<title>Node28&#45;&gt;Node3</title>
<path fill="none" stroke="#191970" d="M1194.0959,-609.7361C1249.4338,-603.8647 1334.5033,-591.2719 1356,-568 1397.0316,-523.5801 1400.2204,-328.2447 1400.1539,-264.9041"/>
<polygon fill="#191970" stroke="#191970" points="1403.653,-264.6648 1400.112,-254.6792 1396.6531,-264.6935 1403.653,-264.6648"/>
</g>
<!-- Node28&#45;&gt;Node11 -->
<g id="edge49" class="edge">
<title>Node28&#45;&gt;Node11</title>
<path fill="none" stroke="#191970" d="M1194.1218,-606.0953C1256.1382,-596.1157 1362.8871,-578.9377 1430.6089,-568.0399"/>
<polygon fill="#191970" stroke="#191970" points="1431.4016,-571.4575 1440.7185,-566.4131 1430.2894,-564.5464 1431.4016,-571.4575"/>
</g>
<!-- Node28&#45;&gt;Node13 -->
<g id="edge46" class="edge">
<title>Node28&#45;&gt;Node13</title>
<path fill="none" stroke="#191970" d="M1194.1051,-605.8594C1263.0756,-594.2647 1381.1617,-573.7582 1389,-568 1423.2121,-542.867 1441.9066,-495.2511 1450.6497,-465.8567"/>
<polygon fill="#191970" stroke="#191970" points="1454.1041,-466.5004 1453.4309,-455.927 1447.3635,-464.6124 1454.1041,-466.5004"/>
</g>
<!-- Node28&#45;&gt;Node14 -->
<g id="edge45" class="edge">
<title>Node28&#45;&gt;Node14</title>
<path fill="none" stroke="#191970" d="M1099.4044,-604.4369C1053.4215,-594.7925 982.3912,-579.8948 933.2394,-569.5858"/>
<polygon fill="#191970" stroke="#191970" points="933.913,-566.151 923.4075,-567.5237 932.4761,-573.0019 933.913,-566.151"/>
</g>
<!-- Node28&#45;&gt;Node22 -->
<g id="edge44" class="edge">
<title>Node28&#45;&gt;Node22</title>
<path fill="none" stroke="#191970" d="M1095.8262,-607.6946C1031.4509,-599.3673 914.8331,-584.033 805.0653,-568.1327"/>
<polygon fill="#191970" stroke="#191970" points="805.5463,-564.6659 795.1469,-566.6916 804.5398,-571.5931 805.5463,-564.6659"/>
</g>
<!-- Node28&#45;&gt;Node24 -->
<g id="edge48" class="edge">
<title>Node28&#45;&gt;Node24</title>
<path fill="none" stroke="#191970" d="M1122.8241,-604.3733C1102.0234,-595.3435 1070.7083,-581.7494 1047.3542,-571.6111"/>
<polygon fill="#191970" stroke="#191970" points="1048.4532,-568.2727 1037.8865,-567.5011 1045.6657,-574.6938 1048.4532,-568.2727"/>
</g>
<!-- Node29 -->
<g id="node30" class="node">
<title>Node29</title>
<polygon fill="#ffffff" stroke="#bfbfbf" points="1231,-548.5 1231,-567.5 1347,-567.5 1347,-548.5 1231,-548.5"/>
<text text-anchor="middle" x="1289" y="-555.5" font-family="Helvetica,sans-Serif" font-size="10.00" fill="#000000">odp/api/abi/packet.h</text>
</g>
<!-- Node28&#45;&gt;Node29 -->
<g id="edge47" class="edge">
<title>Node28&#45;&gt;Node29</title>
<path fill="none" stroke="#191970" d="M1169.7545,-604.3733C1193.2849,-595.2226 1228.8687,-581.3844 1255.0426,-571.2057"/>
<polygon fill="#191970" stroke="#191970" points="1256.5171,-574.3877 1264.5685,-567.5011 1253.9799,-567.8636 1256.5171,-574.3877"/>
</g>
<!-- Node30 -->
<g id="node31" class="node">
<title>Node30</title>
<g id="a_node31"><a xlink:href="spec_2packet_8h.html" target="_top" xlink:title="ODP packet descriptor. ">
<polygon fill="#ffffff" stroke="#000000" points="1089.5,-548.5 1089.5,-567.5 1212.5,-567.5 1212.5,-548.5 1089.5,-548.5"/>
<text text-anchor="middle" x="1151" y="-555.5" font-family="Helvetica,sans-Serif" font-size="10.00" fill="#000000">odp/api/spec/packet.h</text>
</a>
</g>
</g>
<!-- Node28&#45;&gt;Node30 -->
<g id="edge50" class="edge">
<title>Node28&#45;&gt;Node30</title>
<path fill="none" stroke="#191970" d="M1146.0451,-604.2455C1146.828,-596.9382 1147.9256,-586.6944 1148.8888,-577.7046"/>
<polygon fill="#191970" stroke="#191970" points="1152.3815,-577.9587 1149.9669,-567.6427 1145.4214,-577.2129 1152.3815,-577.9587"/>
</g>
<!-- Node30&#45;&gt;Node1 -->
<g id="edge51" class="edge">
<title>Node30&#45;&gt;Node1</title>
<path fill="none" stroke="#191970" d="M1120.3694,-548.4311C1060.5533,-528.8193 934,-482.378 934,-440.5 934,-440.5 934,-440.5 934,-373.5 934,-335.8735 930.705,-321.3098 953,-291 1009.12,-214.7054 1273.8555,-158.1445 1321,-76 1329.3513,-61.4487 1323.9746,-42.5193 1317.6175,-28.6662"/>
<polygon fill="#191970" stroke="#191970" points="1320.66,-26.9282 1312.9974,-19.6113 1314.4247,-30.1096 1320.66,-26.9282"/>
</g>
<!-- Node30&#45;&gt;Node10 -->
<g id="edge85" class="edge">
<title>Node30&#45;&gt;Node10</title>
<path fill="none" stroke="#191970" d="M1111.0105,-548.4711C1076.5243,-539.9323 1025.5524,-526.541 982,-512 806.4102,-453.3751 772.4336,-410.7822 595,-358 517.6375,-334.9866 486.2692,-363.4287 417,-322 295.1302,-249.1118 152.1934,-167.6017 240,-56 255.331,-36.5143 315.0519,-24.2871 363.4994,-17.3801"/>
<polygon fill="#191970" stroke="#191970" points="364.2157,-20.8147 373.6464,-15.9863 363.2631,-13.8798 364.2157,-20.8147"/>
</g>
<!-- Node31 -->
<g id="node32" class="node">
<title>Node31</title>
<g id="a_node32"><a xlink:href="proto__stats__types_8h.html" target="_top" xlink:title="ODP proto stats types. ">
<polygon fill="#ffffff" stroke="#000000" points="1006,-358.5 1006,-388.5 1116,-388.5 1116,-358.5 1006,-358.5"/>
<text text-anchor="start" x="1014" y="-376.5" font-family="Helvetica,sans-Serif" font-size="10.00" fill="#000000">odp/api/proto_stats</text>
<text text-anchor="middle" x="1061" y="-365.5" font-family="Helvetica,sans-Serif" font-size="10.00" fill="#000000">_types.h</text>
</a>
</g>
</g>
<!-- Node30&#45;&gt;Node31 -->
<g id="edge52" class="edge">
<title>Node30&#45;&gt;Node31</title>
<path fill="none" stroke="#191970" d="M1147.512,-548.3988C1139.2996,-526.161 1117.647,-469.6148 1094,-425 1089.0542,-415.6687 1082.9707,-405.815 1077.3799,-397.2532"/>
<polygon fill="#191970" stroke="#191970" points="1080.2563,-395.258 1071.8004,-388.8746 1074.4299,-399.1379 1080.2563,-395.258"/>
</g>
<!-- Node30&#45;&gt;Node34 -->
<g id="edge58" class="edge">
<title>Node30&#45;&gt;Node34</title>
<path fill="none" stroke="#191970" d="M1153.0026,-548.351C1155.8908,-535.267 1161.794,-511.3148 1170,-492 1197.522,-427.2207 1242.8532,-356.8071 1264.603,-324.5178"/>
<polygon fill="#191970" stroke="#191970" points="1267.5892,-326.3505 1270.3147,-316.1123 1261.7994,-322.4162 1267.5892,-326.3505"/>
</g>
<!-- Node37 -->
<g id="node38" class="node">
<title>Node37</title>
<g id="a_node38"><a xlink:href="packet__types_8h.html" target="_top" xlink:title="ODP packet. ">
<polygon fill="#ffffff" stroke="#000000" points="1179,-492.5 1179,-511.5 1309,-511.5 1309,-492.5 1179,-492.5"/>
<text text-anchor="middle" x="1244" y="-499.5" font-family="Helvetica,sans-Serif" font-size="10.00" fill="#000000">odp/api/packet_types.h</text>
</a>
</g>
</g>
<!-- Node30&#45;&gt;Node37 -->
<g id="edge64" class="edge">
<title>Node30&#45;&gt;Node37</title>
<path fill="none" stroke="#191970" d="M1167.1994,-548.2455C1181.6018,-539.5731 1202.8732,-526.7645 1219.3799,-516.825"/>
<polygon fill="#191970" stroke="#191970" points="1221.225,-519.7996 1227.9863,-511.6427 1217.614,-513.8028 1221.225,-519.7996"/>
</g>
<!-- Node32 -->
<g id="node33" class="node">
<title>Node32</title>
<polygon fill="#ffffff" stroke="#bfbfbf" points="962,-291.5 962,-321.5 1090,-321.5 1090,-291.5 962,-291.5"/>
<text text-anchor="start" x="970" y="-309.5" font-family="Helvetica,sans-Serif" font-size="10.00" fill="#000000">odp/api/abi/proto_stats</text>
<text text-anchor="middle" x="1026" y="-298.5" font-family="Helvetica,sans-Serif" font-size="10.00" fill="#000000">_types.h</text>
</g>
<!-- Node31&#45;&gt;Node32 -->
<g id="edge53" class="edge">
<title>Node31&#45;&gt;Node32</title>
<path fill="none" stroke="#191970" d="M1053.058,-358.2967C1048.8067,-350.1586 1043.47,-339.9425 1038.662,-330.7386"/>
<polygon fill="#191970" stroke="#191970" points="1041.6431,-328.8861 1033.9106,-321.6432 1035.4386,-332.1273 1041.6431,-328.8861"/>
</g>
<!-- Node33 -->
<g id="node34" class="node">
<title>Node33</title>
<g id="a_node34"><a xlink:href="spec_2proto__stats__types_8h.html" target="_top" xlink:title="ODP proto stats types. ">
<polygon fill="#ffffff" stroke="#000000" points="1108.5,-291.5 1108.5,-321.5 1215.5,-321.5 1215.5,-291.5 1108.5,-291.5"/>
<text text-anchor="start" x="1116.5" y="-309.5" font-family="Helvetica,sans-Serif" font-size="10.00" fill="#000000">odp/api/spec/proto</text>
<text text-anchor="middle" x="1162" y="-298.5" font-family="Helvetica,sans-Serif" font-size="10.00" fill="#000000">_stats_types.h</text>
</a>
</g>
</g>
<!-- Node31&#45;&gt;Node33 -->
<g id="edge54" class="edge">
<title>Node31&#45;&gt;Node33</title>
<path fill="none" stroke="#191970" d="M1083.6664,-358.4639C1097.474,-349.3044 1115.3189,-337.4667 1130.4882,-327.4038"/>
<polygon fill="#191970" stroke="#191970" points="1132.6614,-330.1623 1139.0598,-321.7177 1128.7918,-324.3291 1132.6614,-330.1623"/>
</g>
<!-- Node33&#45;&gt;Node1 -->
<g id="edge55" class="edge">
<title>Node33&#45;&gt;Node1</title>
<path fill="none" stroke="#191970" d="M1163.5758,-291.2083C1167.4196,-262.279 1180.0249,-199.6122 1219,-168 1287.4472,-112.4833 1333.1307,-167.0324 1414,-132 1433.2499,-123.661 1480.5387,-94.7238 1490,-76 1494.0089,-68.0665 1495.4658,-63.0098 1490,-56 1476.0012,-38.0469 1423.2609,-26.0289 1377.9727,-18.7934"/>
<polygon fill="#191970" stroke="#191970" points="1378.2615,-15.2966 1367.8451,-17.2332 1377.1957,-22.215 1378.2615,-15.2966"/>
</g>
<!-- Node33&#45;&gt;Node3 -->
<g id="edge56" class="edge">
<title>Node33&#45;&gt;Node3</title>
<path fill="none" stroke="#191970" d="M1215.7086,-292.6215C1257.0766,-281.9319 1313.6914,-267.3024 1353.215,-257.0894"/>
<polygon fill="#191970" stroke="#191970" points="1354.3203,-260.4188 1363.1266,-254.5282 1352.5689,-253.6414 1354.3203,-260.4188"/>
</g>
<!-- Node33&#45;&gt;Node10 -->
<g id="edge57" class="edge">
<title>Node33&#45;&gt;Node10</title>
<path fill="none" stroke="#191970" d="M1108.1731,-292.5718C1105.0806,-291.9855 1102.007,-291.4545 1099,-291 1031.6473,-280.8208 539.7554,-298.0914 487,-255 461.5347,-234.1996 468,-216.3806 468,-183.5 468,-183.5 468,-183.5 468,-122 468,-87.6118 451.7366,-50.2832 440.489,-28.5791"/>
<polygon fill="#191970" stroke="#191970" points="443.431,-26.6605 435.607,-19.5166 437.2683,-29.9804 443.431,-26.6605"/>
</g>
<!-- Node34&#45;&gt;Node3 -->
<g id="edge59" class="edge">
<title>Node34&#45;&gt;Node3</title>
<path fill="none" stroke="#191970" d="M1296.2188,-296.8906C1316.5281,-286.7359 1348.7607,-270.6196 1371.9168,-259.0416"/>
<polygon fill="#191970" stroke="#191970" points="1373.5372,-262.1446 1380.9162,-254.5419 1370.4067,-255.8836 1373.5372,-262.1446"/>
</g>
<!-- Node35 -->
<g id="node36" class="node">
<title>Node35</title>
<polygon fill="#ffffff" stroke="#bfbfbf" points="1220.5,-235.5 1220.5,-254.5 1325.5,-254.5 1325.5,-235.5 1220.5,-235.5"/>
<text text-anchor="middle" x="1273" y="-242.5" font-family="Helvetica,sans-Serif" font-size="10.00" fill="#000000">odp/api/abi/time.h</text>
</g>
<!-- Node34&#45;&gt;Node35 -->
<g id="edge60" class="edge">
<title>Node34&#45;&gt;Node35</title>
<path fill="none" stroke="#191970" d="M1276.375,-296.8906C1275.8205,-288.3657 1274.9928,-275.6392 1274.2958,-264.9235"/>
<polygon fill="#191970" stroke="#191970" points="1277.7756,-264.4966 1273.6338,-254.7449 1270.7903,-264.951 1277.7756,-264.4966"/>
</g>
<!-- Node36 -->
<g id="node37" class="node">
<title>Node36</title>
<g id="a_node37"><a xlink:href="spec_2time_8h.html" target="_top" xlink:title="ODP time. ">
<polygon fill="#ffffff" stroke="#000000" points="1033.5,-56.5 1033.5,-75.5 1146.5,-75.5 1146.5,-56.5 1033.5,-56.5"/>
<text text-anchor="middle" x="1090" y="-63.5" font-family="Helvetica,sans-Serif" font-size="10.00" fill="#000000">odp/api/spec/time.h</text>
</a>
</g>
</g>
<!-- Node34&#45;&gt;Node36 -->
<g id="edge61" class="edge">
<title>Node34&#45;&gt;Node36</title>
<path fill="none" stroke="#191970" d="M1262.1715,-296.8609C1248.1968,-287.3158 1227.1912,-271.7382 1212,-255 1161.5943,-199.4612 1118.1583,-120.8892 1099.6011,-85.096"/>
<polygon fill="#191970" stroke="#191970" points="1102.5208,-83.1184 1094.8501,-75.8102 1096.2891,-86.3068 1102.5208,-83.1184"/>
</g>
<!-- Node36&#45;&gt;Node1 -->
<g id="edge62" class="edge">
<title>Node36&#45;&gt;Node1</title>
<path fill="none" stroke="#191970" d="M1127.3036,-56.3733C1164.1685,-46.8598 1220.666,-32.2797 1260.4506,-22.0127"/>
<polygon fill="#191970" stroke="#191970" points="1261.375,-25.3889 1270.1831,-19.5011 1259.6258,-18.611 1261.375,-25.3889"/>
</g>
<!-- Node36&#45;&gt;Node10 -->
<g id="edge63" class="edge">
<title>Node36&#45;&gt;Node10</title>
<path fill="none" stroke="#191970" d="M1033.4583,-57.7144C1028.5729,-57.0962 1023.7022,-56.5143 1019,-56 829.8476,-35.3133 605.5298,-20.4519 496.3461,-13.8365"/>
<polygon fill="#191970" stroke="#191970" points="496.3367,-10.3297 486.1444,-13.2221 495.9159,-17.317 496.3367,-10.3297"/>
</g>
<!-- Node37&#45;&gt;Node13 -->
<g id="edge65" class="edge">
<title>Node37&#45;&gt;Node13</title>
<path fill="none" stroke="#191970" d="M1277.2813,-492.3906C1308.6439,-483.3352 1356.4258,-469.539 1394.8391,-458.4479"/>
<polygon fill="#191970" stroke="#191970" points="1396.2577,-461.6813 1404.8943,-455.5446 1394.3159,-454.956 1396.2577,-461.6813"/>
</g>
<!-- Node38 -->
<g id="node39" class="node">
<title>Node38</title>
<g id="a_node39"><a xlink:href="spec_2packet__types_8h.html" target="_top" xlink:title="ODP packet types. ">
<polygon fill="#ffffff" stroke="#000000" points="971,-425.5 971,-455.5 1085,-455.5 1085,-425.5 971,-425.5"/>
<text text-anchor="start" x="979" y="-443.5" font-family="Helvetica,sans-Serif" font-size="10.00" fill="#000000">odp/api/spec/packet</text>
<text text-anchor="middle" x="1028" y="-432.5" font-family="Helvetica,sans-Serif" font-size="10.00" fill="#000000">_types.h</text>
</a>
</g>
</g>
<!-- Node37&#45;&gt;Node38 -->
<g id="edge66" class="edge">
<title>Node37&#45;&gt;Node38</title>
<path fill="none" stroke="#191970" d="M1210.25,-492.3906C1178.3103,-483.2967 1129.578,-469.4215 1090.5396,-458.3064"/>
<polygon fill="#191970" stroke="#191970" points="1091.4158,-454.9168 1080.8395,-455.5446 1089.4988,-461.6493 1091.4158,-454.9168"/>
</g>
<!-- Node38&#45;&gt;Node1 -->
<g id="edge67" class="edge">
<title>Node38&#45;&gt;Node1</title>
<path fill="none" stroke="#191970" d="M1085.3239,-435.4273C1201.4153,-421.6253 1461.7013,-371.8827 1561,-199 1581.3796,-163.5184 1584.3734,-100.8001 1540,-56 1517.6454,-33.4305 1437.7896,-21.3651 1377.751,-15.3356"/>
<polygon fill="#191970" stroke="#191970" points="1377.8355,-11.8275 1367.545,-14.3488 1377.1618,-18.795 1377.8355,-11.8275"/>
</g>
<!-- Node38&#45;&gt;Node10 -->
<g id="edge84" class="edge">
<title>Node38&#45;&gt;Node10</title>
<path fill="none" stroke="#191970" d="M982.266,-425.4599C924.7056,-407.0545 822.5236,-376.1111 733,-358 608.7263,-332.8587 561.0441,-383.1985 450,-322 434.4816,-313.4475 252.9919,-92.6752 247,-76 243.9941,-67.6348 241.5342,-63.0098 247,-56 261.4973,-37.4075 317.545,-25.1804 363.8357,-18.0384"/>
<polygon fill="#191970" stroke="#191970" points="364.4721,-21.4823 373.8477,-16.5479 363.4413,-14.5586 364.4721,-21.4823"/>
</g>
<!-- Node38&#45;&gt;Node31 -->
<g id="edge68" class="edge">
<title>Node38&#45;&gt;Node31</title>
<path fill="none" stroke="#191970" d="M1035.4882,-425.2967C1039.4965,-417.1586 1044.5283,-406.9425 1049.0616,-397.7386"/>
<polygon fill="#191970" stroke="#191970" points="1052.2627,-399.1606 1053.5414,-388.6432 1045.9831,-396.0676 1052.2627,-399.1606"/>
</g>
<!-- Node38&#45;&gt;Node39 -->
<g id="edge69" class="edge">
<title>Node38&#45;&gt;Node39</title>
<path fill="none" stroke="#191970" d="M970.831,-433.8617C865.6829,-421.6521 641.7176,-395.6457 525.0823,-382.1023"/>
<polygon fill="#191970" stroke="#191970" points="525.1582,-378.5877 514.8212,-380.9108 524.3508,-385.5409 525.1582,-378.5877"/>
</g>
<!-- Node39&#45;&gt;Node15 -->
<g id="edge70" class="edge">
<title>Node39&#45;&gt;Node15</title>
<path fill="none" stroke="#191970" d="M417.4376,-363.9717C375.7054,-352.124 304.3836,-331.8758 258.497,-318.8487"/>
<polygon fill="#191970" stroke="#191970" points="259.4045,-315.4681 248.8287,-316.1039 257.4927,-322.202 259.4045,-315.4681"/>
</g>
<!-- Node40 -->
<g id="node41" class="node">
<title>Node40</title>
<g id="a_node41"><a xlink:href="spec_2queue__types_8h.html" target="_top" xlink:title="ODP queue types. ">
<polygon fill="#ffffff" stroke="#000000" points="458.5,-291.5 458.5,-321.5 569.5,-321.5 569.5,-291.5 458.5,-291.5"/>
<text text-anchor="start" x="466.5" y="-309.5" font-family="Helvetica,sans-Serif" font-size="10.00" fill="#000000">odp/api/spec/queue</text>
<text text-anchor="middle" x="514" y="-298.5" font-family="Helvetica,sans-Serif" font-size="10.00" fill="#000000">_types.h</text>
</a>
</g>
</g>
<!-- Node39&#45;&gt;Node40 -->
<g id="edge71" class="edge">
<title>Node39&#45;&gt;Node40</title>
<path fill="none" stroke="#191970" d="M460.0264,-363.9005C468.5668,-354.8178 481.7062,-340.8442 492.8823,-328.9585"/>
<polygon fill="#191970" stroke="#191970" points="495.5746,-331.2046 499.8751,-321.5218 490.4749,-326.4094 495.5746,-331.2046"/>
</g>
<!-- Node40&#45;&gt;Node1 -->
<g id="edge72" class="edge">
<title>Node40&#45;&gt;Node1</title>
<path fill="none" stroke="#191970" d="M555.4439,-291.4125C581.4346,-281.6551 615.4904,-268.3275 645,-255 662.7531,-246.9821 665.9209,-242.2528 684,-235 736.0734,-214.1096 756.5532,-227.3012 805,-199 883.9776,-152.8636 870.5888,-95.679 953,-56 1001.5431,-32.6277 1147.4361,-19.7845 1236.0547,-13.9492"/>
<polygon fill="#191970" stroke="#191970" points="1236.5479,-17.4248 1246.3021,-13.2889 1236.0976,-10.4393 1236.5479,-17.4248"/>
</g>
<!-- Node40&#45;&gt;Node10 -->
<g id="edge83" class="edge">
<title>Node40&#45;&gt;Node10</title>
<path fill="none" stroke="#191970" d="M491.0667,-291.464C478.5809,-282.2484 463.7382,-269.4608 454,-255 435.2765,-227.1965 430,-217.0202 430,-183.5 430,-183.5 430,-183.5 430,-122 430,-89.7116 430,-52.1872 430,-29.8048"/>
<polygon fill="#191970" stroke="#191970" points="433.5001,-29.5883 430,-19.5884 426.5001,-29.5884 433.5001,-29.5883"/>
</g>
<!-- Node40&#45;&gt;Node17 -->
<g id="edge82" class="edge">
<title>Node40&#45;&gt;Node17</title>
<path fill="none" stroke="#191970" d="M569.5001,-292.1586C610.6054,-281.5368 666.0063,-267.2211 704.949,-257.1581"/>
<polygon fill="#191970" stroke="#191970" points="706.1664,-260.4586 714.9727,-254.568 704.4151,-253.6812 706.1664,-260.4586"/>
</g>
<!-- Node41 -->
<g id="node42" class="node">
<title>Node41</title>
<g id="a_node42"><a xlink:href="schedule__types_8h.html" target="_top" xlink:title="ODP schedule. ">
<polygon fill="#ffffff" stroke="#000000" points="496,-235.5 496,-254.5 636,-254.5 636,-235.5 496,-235.5"/>
<text text-anchor="middle" x="566" y="-242.5" font-family="Helvetica,sans-Serif" font-size="10.00" fill="#000000">odp/api/schedule_types.h</text>
</a>
</g>
</g>
<!-- Node40&#45;&gt;Node41 -->
<g id="edge73" class="edge">
<title>Node40&#45;&gt;Node41</title>
<path fill="none" stroke="#191970" d="M526.8539,-291.2977C534.2224,-282.5831 543.5026,-271.6075 551.1777,-262.5302"/>
<polygon fill="#191970" stroke="#191970" points="553.8902,-264.743 557.6741,-254.8469 548.5448,-260.2233 553.8902,-264.743"/>
</g>
<!-- Node42 -->
<g id="node43" class="node">
<title>Node42</title>
<polygon fill="#ffffff" stroke="#bfbfbf" points="496.5,-168.5 496.5,-198.5 613.5,-198.5 613.5,-168.5 496.5,-168.5"/>
<text text-anchor="start" x="504.5" y="-186.5" font-family="Helvetica,sans-Serif" font-size="10.00" fill="#000000">odp/api/abi/schedule</text>
<text text-anchor="middle" x="555" y="-175.5" font-family="Helvetica,sans-Serif" font-size="10.00" fill="#000000">_types.h</text>
</g>
<!-- Node41&#45;&gt;Node42 -->
<g id="edge74" class="edge">
<title>Node41&#45;&gt;Node42</title>
<path fill="none" stroke="#191970" d="M564.2813,-235.3906C562.9993,-228.2234 561.1862,-218.0862 559.5021,-208.671"/>
<polygon fill="#191970" stroke="#191970" points="562.897,-207.7721 557.6909,-198.5446 556.0063,-209.0046 562.897,-207.7721"/>
</g>
<!-- Node43 -->
<g id="node44" class="node">
<title>Node43</title>
<g id="a_node44"><a xlink:href="spec_2schedule__types_8h.html" target="_top" xlink:title="ODP schedule types. ">
<polygon fill="#ffffff" stroke="#000000" points="670.5,-168.5 670.5,-198.5 795.5,-198.5 795.5,-168.5 670.5,-168.5"/>
<text text-anchor="start" x="678.5" y="-186.5" font-family="Helvetica,sans-Serif" font-size="10.00" fill="#000000">odp/api/spec/schedule</text>
<text text-anchor="middle" x="733" y="-175.5" font-family="Helvetica,sans-Serif" font-size="10.00" fill="#000000">_types.h</text>
</a>
</g>
</g>
<!-- Node41&#45;&gt;Node43 -->
<g id="edge75" class="edge">
<title>Node41&#45;&gt;Node43</title>
<path fill="none" stroke="#191970" d="M592.0938,-235.3906C616.2647,-226.4893 652.8745,-213.0073 682.7194,-202.0165"/>
<polygon fill="#191970" stroke="#191970" points="683.9728,-205.2848 692.1472,-198.5446 681.5538,-198.716 683.9728,-205.2848"/>
</g>
<!-- Node43&#45;&gt;Node1 -->
<g id="edge76" class="edge">
<title>Node43&#45;&gt;Node1</title>
<path fill="none" stroke="#191970" d="M761.408,-168.3067C778.9814,-158.5612 801.7772,-145.284 821,-132 865.1977,-101.4569 865.4822,-76.8402 915,-56 971.3473,-32.2856 1139.5892,-19.2816 1236.3667,-13.5786"/>
<polygon fill="#191970" stroke="#191970" points="1236.5835,-17.072 1246.3647,-13.0004 1236.1793,-10.0837 1236.5835,-17.072"/>
</g>
<!-- Node43&#45;&gt;Node10 -->
<g id="edge81" class="edge">
<title>Node43&#45;&gt;Node10</title>
<path fill="none" stroke="#191970" d="M701.1302,-168.469C659.9054,-148.684 586.2381,-112.1607 526,-76 499.5029,-60.0939 470.4356,-39.6624 451.3062,-25.7745"/>
<polygon fill="#191970" stroke="#191970" points="453.1533,-22.7893 443.015,-19.7125 449.0218,-28.4401 453.1533,-22.7893"/>
</g>
<!-- Node43&#45;&gt;Node44 -->
<g id="edge77" class="edge">
<title>Node43&#45;&gt;Node44</title>
<path fill="none" stroke="#191970" d="M739.9214,-168.2977C743.6461,-160.1166 748.278,-149.943 752.2504,-141.2179"/>
<polygon fill="#191970" stroke="#191970" points="755.5586,-142.3983 756.5168,-131.8469 749.1878,-139.4978 755.5586,-142.3983"/>
</g>
<!-- Node45 -->
<g id="node46" class="node">
<title>Node45</title>
<g id="a_node46"><a xlink:href="spec_2support_8h.html" target="_top" xlink:title="ODP support API. ">
<polygon fill="#ffffff" stroke="#000000" points="697.5,-56.5 697.5,-75.5 824.5,-75.5 824.5,-56.5 697.5,-56.5"/>
<text text-anchor="middle" x="761" y="-63.5" font-family="Helvetica,sans-Serif" font-size="10.00" fill="#000000">odp/api/spec/support.h</text>
</a>
</g>
</g>
<!-- Node44&#45;&gt;Node45 -->
<g id="edge78" class="edge">
<title>Node44&#45;&gt;Node45</title>
<path fill="none" stroke="#191970" d="M761,-112.2455C761,-104.9382 761,-94.6944 761,-85.7046"/>
<polygon fill="#191970" stroke="#191970" points="764.5001,-85.6426 761,-75.6427 757.5001,-85.6427 764.5001,-85.6426"/>
</g>
<!-- Node45&#45;&gt;Node1 -->
<g id="edge79" class="edge">
<title>Node45&#45;&gt;Node1</title>
<path fill="none" stroke="#191970" d="M824.7017,-59.4665C927.44,-48.9292 1129.0124,-28.2551 1236.143,-17.2674"/>
<polygon fill="#191970" stroke="#191970" points="1236.6185,-20.7371 1246.2092,-16.235 1235.9042,-13.7736 1236.6185,-20.7371"/>
</g>
<!-- Node45&#45;&gt;Node10 -->
<g id="edge80" class="edge">
<title>Node45&#45;&gt;Node10</title>
<path fill="none" stroke="#191970" d="M704.4752,-56.4369C646.6685,-46.6569 556.9315,-31.4748 495.9263,-21.1537"/>
<polygon fill="#191970" stroke="#191970" points="496.4592,-17.6942 486.0154,-19.4769 495.2914,-24.5961 496.4592,-17.6942"/>
</g>
<!-- Node47 -->
<g id="node48" class="node">
<title>Node47</title>
<g id="a_node48"><a xlink:href="spec_2reassembly_8h.html" target="_top" xlink:title="ODP REASSEMBLY API. ">
<polygon fill="#ffffff" stroke="#000000" points="256,-56.5 256,-75.5 402,-75.5 402,-56.5 256,-56.5"/>
<text text-anchor="middle" x="329" y="-63.5" font-family="Helvetica,sans-Serif" font-size="10.00" fill="#000000">odp/api/spec/reassembly.h</text>
</a>
</g>
</g>
<!-- Node46&#45;&gt;Node47 -->
<g id="edge92" class="edge">
<title>Node46&#45;&gt;Node47</title>
<path fill="none" stroke="#191970" d="M304.6384,-951.4512C283.2195,-932.3103 239,-886.8751 239,-838 239,-838 239,-838 239,-670 239,-513.2724 273.3113,-477.0767 296,-322 308.863,-234.0818 321.5972,-128.7793 326.6855,-85.7646"/>
<polygon fill="#191970" stroke="#191970" points="330.1674,-86.1229 327.8611,-75.7821 323.2155,-85.3041 330.1674,-86.1229"/>
</g>
<!-- Node47&#45;&gt;Node1 -->
<g id="edge93" class="edge">
<title>Node47&#45;&gt;Node1</title>
<path fill="none" stroke="#191970" d="M402.109,-61.8138C584.2705,-51.3833 1056.5968,-24.338 1236.2379,-14.0518"/>
<polygon fill="#191970" stroke="#191970" points="1236.5811,-17.538 1246.3647,-13.472 1236.1809,-10.5494 1236.5811,-17.538"/>
</g>
<!-- Node47&#45;&gt;Node10 -->
<g id="edge94" class="edge">
<title>Node47&#45;&gt;Node10</title>
<path fill="none" stroke="#191970" d="M346.5929,-56.2455C362.379,-47.4928 385.7639,-34.527 403.7587,-24.5496"/>
<polygon fill="#191970" stroke="#191970" points="405.5603,-27.5528 412.6087,-19.6427 402.1659,-21.4308 405.5603,-27.5528"/>
</g>
<!-- Node49 -->
<g id="node50" class="node">
<title>Node49</title>
<g id="a_node50"><a xlink:href="spec_2threshold_8h.html" target="_top" xlink:title="ODP threshold descriptor. ">
<polygon fill="#ffffff" stroke="#000000" points="1599,-297 1599,-316 1735,-316 1735,-297 1599,-297"/>
<text text-anchor="middle" x="1667" y="-304" font-family="Helvetica,sans-Serif" font-size="10.00" fill="#000000">odp/api/spec/threshold.h</text>
</a>
</g>
</g>
<!-- Node48&#45;&gt;Node49 -->
<g id="edge100" class="edge">
<title>Node48&#45;&gt;Node49</title>
<path fill="none" stroke="#191970" d="M1726.9318,-1063.4455C1742.9425,-1055.7264 1763.7411,-1043.4417 1777,-1027 1796.5932,-1002.7033 1801,-992.2125 1801,-961 1801,-961 1801,-961 1801,-558 1801,-459.5698 1720.0669,-362.2311 1683.9967,-323.7371"/>
<polygon fill="#191970" stroke="#191970" points="1686.0769,-320.8481 1676.6369,-316.0379 1681.0169,-325.6851 1686.0769,-320.8481"/>
</g>
<!-- Node49&#45;&gt;Node1 -->
<g id="edge101" class="edge">
<title>Node49&#45;&gt;Node1</title>
<path fill="none" stroke="#191970" d="M1664.5724,-296.6865C1659.6592,-275.9351 1649,-226.0158 1649,-183.5 1649,-183.5 1649,-183.5 1649,-122 1649,-85.1996 1630.5762,-74.9001 1599,-56 1562.7266,-34.2883 1452.2044,-21.4704 1378.0235,-15.0912"/>
<polygon fill="#191970" stroke="#191970" points="1378.0668,-11.5826 1367.809,-14.2336 1377.481,-18.5581 1378.0668,-11.5826"/>
</g>
<!-- Node49&#45;&gt;Node3 -->
<g id="edge102" class="edge">
<title>Node49&#45;&gt;Node3</title>
<path fill="none" stroke="#191970" d="M1625.5742,-296.9581C1578.6106,-286.1406 1502.0067,-268.4959 1451.3021,-256.8168"/>
<polygon fill="#191970" stroke="#191970" points="1452.0535,-253.3983 1441.523,-254.5643 1450.4822,-260.2196 1452.0535,-253.3983"/>
</g>
<!-- Node49&#45;&gt;Node10 -->
<g id="edge103" class="edge">
<title>Node49&#45;&gt;Node10</title>
<path fill="none" stroke="#191970" d="M1635.9461,-296.877C1585.6621,-280.6123 1484.1692,-244.922 1406,-199 1386.9086,-187.7844 1387.215,-177.0347 1367,-168 1280.1467,-129.1827 1249.5926,-149.0498 1156,-132 1027.2847,-108.5519 989.0679,-123.0835 867,-76 850.999,-69.8282 850.2295,-61.543 834,-56 773.19,-35.2309 594.5486,-20.7377 496.4245,-14.098"/>
<polygon fill="#191970" stroke="#191970" points="496.5293,-10.5972 486.3182,-13.4226 496.0625,-17.5817 496.5293,-10.5972"/>
</g>
</g>
</svg>
