<?xml version="1.0" encoding="UTF-8" standalone="no"?>
<!DOCTYPE svg PUBLIC "-//W3C//DTD SVG 1.1//EN"
 "http://www.w3.org/Graphics/SVG/1.1/DTD/svg11.dtd">
<!-- Generated by graphviz version 2.40.1 (20161225.0304)
 -->
<!-- Title: align.h Pages: 1 -->
<svg width="2931pt" height="532pt"
 viewBox="0.00 0.00 2930.50 532.00" xmlns="http://www.w3.org/2000/svg" xmlns:xlink="http://www.w3.org/1999/xlink">
<g id="graph0" class="graph" transform="scale(1 1) rotate(0) translate(4 528)">
<title>align.h</title>
<polygon fill="#ffffff" stroke="transparent" points="-4,4 -4,-528 2926.5,-528 2926.5,4 -4,4"/>
<!-- Node3 -->
<g id="node1" class="node">
<title>Node3</title>
<polygon fill="#bfbfbf" stroke="#000000" points="119.5,-504.5 119.5,-523.5 169.5,-523.5 169.5,-504.5 119.5,-504.5"/>
<text text-anchor="middle" x="144.5" y="-511.5" font-family="Helvetica,sans-Serif" font-size="10.00" fill="#000000">align.h</text>
</g>
<!-- Node4 -->
<g id="node2" class="node">
<title>Node4</title>
<g id="a_node2"><a xlink:href="align_8h.html" target="_top" xlink:title="ODP alignments. ">
<polygon fill="#ffffff" stroke="#000000" points="119.5,-448.5 119.5,-467.5 169.5,-467.5 169.5,-448.5 119.5,-448.5"/>
<text text-anchor="middle" x="144.5" y="-455.5" font-family="Helvetica,sans-Serif" font-size="10.00" fill="#000000">align.h</text>
</a>
</g>
</g>
<!-- Node3&#45;&gt;Node4 -->
<g id="edge1" class="edge">
<title>Node3&#45;&gt;Node4</title>
<path fill="none" stroke="#191970" d="M144.5,-494.1575C144.5,-485.155 144.5,-474.9199 144.5,-467.6427"/>
<polygon fill="#191970" stroke="#191970" points="141.0001,-494.2455 144.5,-504.2455 148.0001,-494.2456 141.0001,-494.2455"/>
</g>
<!-- Node5 -->
<g id="node3" class="node">
<title>Node5</title>
<g id="a_node3"><a xlink:href="abi-default_2atomic_8h.html" target="_top" xlink:title="ODP atomic operations. ">
<polygon fill="#ffffff" stroke="#000000" points="0,-280.5 0,-299.5 59,-299.5 59,-280.5 0,-280.5"/>
<text text-anchor="middle" x="29.5" y="-287.5" font-family="Helvetica,sans-Serif" font-size="10.00" fill="#000000">atomic.h</text>
</a>
</g>
</g>
<!-- Node4&#45;&gt;Node5 -->
<g id="edge2" class="edge">
<title>Node4&#45;&gt;Node5</title>
<path fill="none" stroke="#191970" d="M132.2465,-440.0993C108.0784,-404.7928 54.9862,-327.232 36.2274,-299.8279"/>
<polygon fill="#191970" stroke="#191970" points="129.4508,-442.2114 137.9876,-448.4862 135.2271,-438.2573 129.4508,-442.2114"/>
</g>
<!-- Node6 -->
<g id="node4" class="node">
<title>Node6</title>
<g id="a_node4"><a xlink:href="abi-default_2cpumask_8h.html" target="_top" xlink:title="ODP CPU masks and enumeration. ">
<polygon fill="#ffffff" stroke="#000000" points="77.5,-280.5 77.5,-299.5 147.5,-299.5 147.5,-280.5 77.5,-280.5"/>
<text text-anchor="middle" x="112.5" y="-287.5" font-family="Helvetica,sans-Serif" font-size="10.00" fill="#000000">cpumask.h</text>
</a>
</g>
</g>
<!-- Node4&#45;&gt;Node6 -->
<g id="edge3" class="edge">
<title>Node4&#45;&gt;Node6</title>
<path fill="none" stroke="#191970" d="M138.4369,-438.539C136.047,-430.3947 133.4202,-420.7945 131.5,-412 122.4465,-370.5338 116.0317,-320.2296 113.5898,-299.5639"/>
<polygon fill="#191970" stroke="#191970" points="135.1185,-439.6574 141.3629,-448.2164 141.819,-437.6314 135.1185,-439.6574"/>
</g>
<!-- Node7 -->
<g id="node5" class="node">
<title>Node7</title>
<g id="a_node5"><a xlink:href="spec_2std__types_8h.html" target="_top" xlink:title="Standard C language types and definitions for ODP. ">
<polygon fill="#ffffff" stroke="#000000" points="141,-392.5 141,-411.5 214,-411.5 214,-392.5 141,-392.5"/>
<text text-anchor="middle" x="177.5" y="-399.5" font-family="Helvetica,sans-Serif" font-size="10.00" fill="#000000">std_types.h</text>
</a>
</g>
</g>
<!-- Node4&#45;&gt;Node7 -->
<g id="edge4" class="edge">
<title>Node4&#45;&gt;Node7</title>
<path fill="none" stroke="#191970" d="M155.3254,-439.6296C160.8299,-430.2887 167.2937,-419.3197 171.8177,-411.6427"/>
<polygon fill="#191970" stroke="#191970" points="152.3097,-437.8532 150.2482,-448.2455 158.3405,-441.4071 152.3097,-437.8532"/>
</g>
<!-- Node80 -->
<g id="node50" class="node">
<title>Node80</title>
<g id="a_node50"><a xlink:href="time__inlines_8h_source.html" target="_top" xlink:title="time_inlines.h">
<polygon fill="#ffffff" stroke="#000000" points="232.5,-392.5 232.5,-411.5 318.5,-411.5 318.5,-392.5 232.5,-392.5"/>
<text text-anchor="middle" x="275.5" y="-399.5" font-family="Helvetica,sans-Serif" font-size="10.00" fill="#000000">time_inlines.h</text>
</a>
</g>
</g>
<!-- Node4&#45;&gt;Node80 -->
<g id="edge60" class="edge">
<title>Node4&#45;&gt;Node80</title>
<path fill="none" stroke="#191970" d="M176.3534,-444.3833C200.1785,-434.1985 232.1568,-420.5284 253.2742,-411.5011"/>
<polygon fill="#191970" stroke="#191970" points="174.839,-441.2242 167.0197,-448.3733 177.5906,-447.6608 174.839,-441.2242"/>
</g>
<!-- Node8 -->
<g id="node6" class="node">
<title>Node8</title>
<g id="a_node6"><a xlink:href="std__types_8h.html" target="_top" xlink:title="Standard C language types and definitions for ODP. ">
<polygon fill="#ffffff" stroke="#000000" points="1320,-336.5 1320,-355.5 1393,-355.5 1393,-336.5 1320,-336.5"/>
<text text-anchor="middle" x="1356.5" y="-343.5" font-family="Helvetica,sans-Serif" font-size="10.00" fill="#000000">std_types.h</text>
</a>
</g>
</g>
<!-- Node7&#45;&gt;Node8 -->
<g id="edge5" class="edge">
<title>Node7&#45;&gt;Node8</title>
<path fill="none" stroke="#191970" d="M224.0665,-392.2076C462.8609,-363.5092 1152.7439,-349.6438 1319.7823,-346.6333"/>
<polygon fill="#191970" stroke="#191970" points="223.5498,-388.7449 214.0588,-393.4535 224.4146,-395.6912 223.5498,-388.7449"/>
</g>
<!-- Node8&#45;&gt;Node5 -->
<g id="edge6" class="edge">
<title>Node8&#45;&gt;Node5</title>
<path fill="none" stroke="#191970" d="M1309.4813,-345.6756C1107.8217,-344.0759 315.1652,-335.6039 68.5,-300 65.456,-299.5606 62.3063,-298.9769 59.1771,-298.3114"/>
<polygon fill="#191970" stroke="#191970" points="1309.705,-349.1774 1319.7319,-345.755 1309.7593,-342.1776 1309.705,-349.1774"/>
</g>
<!-- Node8&#45;&gt;Node6 -->
<g id="edge9" class="edge">
<title>Node8&#45;&gt;Node6</title>
<path fill="none" stroke="#191970" d="M1309.9119,-345.3674C1117.6912,-342.5792 385.6006,-330.1607 156.5,-300 153.704,-299.6319 150.8243,-299.1696 147.9396,-298.6468"/>
<polygon fill="#191970" stroke="#191970" points="1309.9179,-348.8677 1319.9671,-345.5116 1310.0183,-341.8685 1309.9179,-348.8677"/>
</g>
<!-- Node9 -->
<g id="node7" class="node">
<title>Node9</title>
<g id="a_node7"><a xlink:href="abi-default_2barrier_8h.html" target="_top" xlink:title="ODP barrier. ">
<polygon fill="#ffffff" stroke="#000000" points="2775,-280.5 2775,-299.5 2832,-299.5 2832,-280.5 2775,-280.5"/>
<text text-anchor="middle" x="2803.5" y="-287.5" font-family="Helvetica,sans-Serif" font-size="10.00" fill="#000000">barrier.h</text>
</a>
</g>
</g>
<!-- Node8&#45;&gt;Node9 -->
<g id="edge7" class="edge">
<title>Node8&#45;&gt;Node9</title>
<path fill="none" stroke="#191970" d="M1403.2072,-345.1185C1632.0467,-340.713 2629.3983,-320.4809 2766.5,-300 2769.264,-299.5871 2772.117,-299.0405 2774.9554,-298.4152"/>
<polygon fill="#191970" stroke="#191970" points="1403.1374,-341.6191 1393.2064,-345.3103 1403.2717,-348.6178 1403.1374,-341.6191"/>
</g>
<!-- Node10 -->
<g id="node8" class="node">
<title>Node10</title>
<g id="a_node8"><a xlink:href="abi-default_2byteorder_8h.html" target="_top" xlink:title="ODP byteorder. ">
<polygon fill="#ffffff" stroke="#000000" points="2850.5,-280.5 2850.5,-299.5 2922.5,-299.5 2922.5,-280.5 2850.5,-280.5"/>
<text text-anchor="middle" x="2886.5" y="-287.5" font-family="Helvetica,sans-Serif" font-size="10.00" fill="#000000">byteorder.h</text>
</a>
</g>
</g>
<!-- Node8&#45;&gt;Node10 -->
<g id="edge8" class="edge">
<title>Node8&#45;&gt;Node10</title>
<path fill="none" stroke="#191970" d="M1403.3379,-345.7326C1623.0969,-344.2966 2553.3399,-336.1554 2841.5,-300 2844.3587,-299.6413 2847.3033,-299.1858 2850.253,-298.6677"/>
<polygon fill="#191970" stroke="#191970" points="1403.0958,-342.2339 1393.1184,-345.7978 1403.1406,-349.2338 1403.0958,-342.2339"/>
</g>
<!-- Node11 -->
<g id="node9" class="node">
<title>Node11</title>
<g id="a_node9"><a xlink:href="abi-default_2init_8h.html" target="_top" xlink:title="ODP initialization. ">
<polygon fill="#ffffff" stroke="#000000" points="166,-280.5 166,-299.5 207,-299.5 207,-280.5 166,-280.5"/>
<text text-anchor="middle" x="186.5" y="-287.5" font-family="Helvetica,sans-Serif" font-size="10.00" fill="#000000">init.h</text>
</a>
</g>
</g>
<!-- Node8&#45;&gt;Node11 -->
<g id="edge10" class="edge">
<title>Node8&#45;&gt;Node11</title>
<path fill="none" stroke="#191970" d="M1309.6177,-344.9166C1108.5022,-340.1595 324.06,-320.4481 215.5,-300 212.7785,-299.4874 209.9661,-298.7704 207.212,-297.9533"/>
<polygon fill="#191970" stroke="#191970" points="1309.766,-348.421 1319.8457,-345.1575 1309.9309,-341.4229 1309.766,-348.421"/>
</g>
<!-- Node12 -->
<g id="node10" class="node">
<title>Node12</title>
<g id="a_node10"><a xlink:href="abi-default_2ipsec_8h.html" target="_top" xlink:title="ODP IPSEC API &#45; platform specific types. ">
<polygon fill="#ffffff" stroke="#000000" points="225,-280.5 225,-299.5 276,-299.5 276,-280.5 225,-280.5"/>
<text text-anchor="middle" x="250.5" y="-287.5" font-family="Helvetica,sans-Serif" font-size="10.00" fill="#000000">ipsec.h</text>
</a>
</g>
</g>
<!-- Node8&#45;&gt;Node12 -->
<g id="edge11" class="edge">
<title>Node8&#45;&gt;Node12</title>
<path fill="none" stroke="#191970" d="M1309.6436,-345.5028C1130.131,-343.3632 486.1883,-333.4736 284.5,-300 281.8293,-299.5568 279.0723,-298.9705 276.3375,-298.3034"/>
<polygon fill="#191970" stroke="#191970" points="1309.7711,-349.0044 1319.8114,-345.6215 1309.853,-342.0049 1309.7711,-349.0044"/>
</g>
<!-- Node13 -->
<g id="node11" class="node">
<title>Node13</title>
<g id="a_node11"><a xlink:href="abi-default_2packet__io_8h.html" target="_top" xlink:title="ODP Packet IO. ">
<polygon fill="#ffffff" stroke="#000000" points="294,-280.5 294,-299.5 367,-299.5 367,-280.5 294,-280.5"/>
<text text-anchor="middle" x="330.5" y="-287.5" font-family="Helvetica,sans-Serif" font-size="10.00" fill="#000000">packet_io.h</text>
</a>
</g>
</g>
<!-- Node8&#45;&gt;Node13 -->
<g id="edge12" class="edge">
<title>Node8&#45;&gt;Node13</title>
<path fill="none" stroke="#191970" d="M1309.8682,-344.8459C1140.815,-340.5008 560.4208,-324.1356 376.5,-300 373.4208,-299.5959 370.2422,-299.0915 367.0615,-298.5253"/>
<polygon fill="#191970" stroke="#191970" points="1309.8523,-348.3466 1319.9384,-345.103 1310.031,-341.3488 1309.8523,-348.3466"/>
</g>
<!-- Node14 -->
<g id="node12" class="node">
<title>Node14</title>
<g id="a_node12"><a xlink:href="abi-default_2rwlock__recursive_8h.html" target="_top" xlink:title="ODP recursive read/write lock. ">
<polygon fill="#ffffff" stroke="#000000" points="385.5,-280.5 385.5,-299.5 493.5,-299.5 493.5,-280.5 385.5,-280.5"/>
<text text-anchor="middle" x="439.5" y="-287.5" font-family="Helvetica,sans-Serif" font-size="10.00" fill="#000000">rwlock_recursive.h</text>
</a>
</g>
</g>
<!-- Node8&#45;&gt;Node14 -->
<g id="edge13" class="edge">
<title>Node8&#45;&gt;Node14</title>
<path fill="none" stroke="#191970" d="M1309.4507,-345.1758C1180.2337,-342.5434 809.1162,-332.5041 502.5,-300 499.6367,-299.6965 496.7052,-299.3514 493.7488,-298.9765"/>
<polygon fill="#191970" stroke="#191970" points="1309.7007,-348.6814 1319.7682,-345.3806 1309.8396,-341.6828 1309.7007,-348.6814"/>
</g>
<!-- Node15 -->
<g id="node13" class="node">
<title>Node15</title>
<g id="a_node13"><a xlink:href="abi-default_2schedule_8h.html" target="_top" xlink:title="ODP schedule. ">
<polygon fill="#ffffff" stroke="#000000" points="512,-280.5 512,-299.5 581,-299.5 581,-280.5 512,-280.5"/>
<text text-anchor="middle" x="546.5" y="-287.5" font-family="Helvetica,sans-Serif" font-size="10.00" fill="#000000">schedule.h</text>
</a>
</g>
</g>
<!-- Node8&#45;&gt;Node15 -->
<g id="edge14" class="edge">
<title>Node8&#45;&gt;Node15</title>
<path fill="none" stroke="#191970" d="M1309.6691,-344.1935C1165.649,-338.479 730.5894,-319.9887 590.5,-300 587.553,-299.5795 584.5115,-299.0635 581.4683,-298.4896"/>
<polygon fill="#191970" stroke="#191970" points="1309.7951,-347.7011 1319.9254,-344.5983 1310.0713,-340.7065 1309.7951,-347.7011"/>
</g>
<!-- Node16 -->
<g id="node14" class="node">
<title>Node16</title>
<g id="a_node14"><a xlink:href="abi-default_2spinlock__recursive_8h.html" target="_top" xlink:title="ODP recursive spinlock. ">
<polygon fill="#ffffff" stroke="#000000" points="599.5,-280.5 599.5,-299.5 715.5,-299.5 715.5,-280.5 599.5,-280.5"/>
<text text-anchor="middle" x="657.5" y="-287.5" font-family="Helvetica,sans-Serif" font-size="10.00" fill="#000000">spinlock_recursive.h</text>
</a>
</g>
</g>
<!-- Node8&#45;&gt;Node16 -->
<g id="edge15" class="edge">
<title>Node8&#45;&gt;Node16</title>
<path fill="none" stroke="#191970" d="M1309.456,-343.7932C1204.3459,-338.5961 942.5312,-324.1708 724.5,-300 721.5777,-299.676 718.5872,-299.32 715.5697,-298.9412"/>
<polygon fill="#191970" stroke="#191970" points="1309.5637,-347.3026 1319.723,-344.296 1309.9062,-340.311 1309.5637,-347.3026"/>
</g>
<!-- Node17 -->
<g id="node15" class="node">
<title>Node17</title>
<g id="a_node15"><a xlink:href="abi-default_2traffic__mngr_8h.html" target="_top" xlink:title="ODP traffic mngr. ">
<polygon fill="#ffffff" stroke="#000000" points="733.5,-280.5 733.5,-299.5 817.5,-299.5 817.5,-280.5 733.5,-280.5"/>
<text text-anchor="middle" x="775.5" y="-287.5" font-family="Helvetica,sans-Serif" font-size="10.00" fill="#000000">traffic_mngr.h</text>
</a>
</g>
</g>
<!-- Node8&#45;&gt;Node17 -->
<g id="edge16" class="edge">
<title>Node8&#45;&gt;Node17</title>
<path fill="none" stroke="#191970" d="M1309.5489,-343.617C1216.8566,-338.5393 1003.943,-325.0235 826.5,-300 823.641,-299.5968 820.6999,-299.1382 817.7418,-298.6443"/>
<polygon fill="#191970" stroke="#191970" points="1309.5469,-347.1219 1319.7213,-344.1667 1309.9247,-340.1321 1309.5469,-347.1219"/>
</g>
<!-- Node18 -->
<g id="node16" class="node">
<title>Node18</title>
<g id="a_node16"><a xlink:href="barrier_8h.html" target="_top" xlink:title="ODP execution barriers. ">
<polygon fill="#ffffff" stroke="#000000" points="836,-280.5 836,-299.5 893,-299.5 893,-280.5 836,-280.5"/>
<text text-anchor="middle" x="864.5" y="-287.5" font-family="Helvetica,sans-Serif" font-size="10.00" fill="#000000">barrier.h</text>
</a>
</g>
</g>
<!-- Node8&#45;&gt;Node18 -->
<g id="edge17" class="edge">
<title>Node8&#45;&gt;Node18</title>
<path fill="none" stroke="#191970" d="M1309.8495,-343.8001C1227.0457,-339.3376 1049.1944,-327.2362 901.5,-300 898.7516,-299.4932 895.9091,-298.8835 893.0774,-298.2183"/>
<polygon fill="#191970" stroke="#191970" points="1309.7724,-347.3008 1319.9426,-344.3313 1310.1404,-340.3105 1309.7724,-347.3008"/>
</g>
<!-- Node19 -->
<g id="node17" class="node">
<title>Node19</title>
<g id="a_node17"><a xlink:href="buffer_8h.html" target="_top" xlink:title="ODP buffer descriptor. ">
<polygon fill="#ffffff" stroke="#000000" points="911,-280.5 911,-299.5 964,-299.5 964,-280.5 911,-280.5"/>
<text text-anchor="middle" x="937.5" y="-287.5" font-family="Helvetica,sans-Serif" font-size="10.00" fill="#000000">buffer.h</text>
</a>
</g>
</g>
<!-- Node8&#45;&gt;Node19 -->
<g id="edge18" class="edge">
<title>Node8&#45;&gt;Node19</title>
<path fill="none" stroke="#191970" d="M1309.7337,-342.1006C1238.0594,-335.7216 1096.9017,-321.5656 978.5,-300 973.8868,-299.1598 969.0177,-298.1146 964.309,-297.0196"/>
<polygon fill="#191970" stroke="#191970" points="1309.5253,-345.5957 1319.7935,-342.9853 1310.1386,-338.6226 1309.5253,-345.5957"/>
</g>
<!-- Node20 -->
<g id="node18" class="node">
<title>Node20</title>
<g id="a_node18"><a xlink:href="classification_8h.html" target="_top" xlink:title="ODP classification descriptor. ">
<polygon fill="#ffffff" stroke="#000000" points="995,-56.5 995,-75.5 1084,-75.5 1084,-56.5 995,-56.5"/>
<text text-anchor="middle" x="1039.5" y="-63.5" font-family="Helvetica,sans-Serif" font-size="10.00" fill="#000000">classification.h</text>
</a>
</g>
</g>
<!-- Node8&#45;&gt;Node20 -->
<g id="edge19" class="edge">
<title>Node8&#45;&gt;Node20</title>
<path fill="none" stroke="#191970" d="M1309.8694,-342.4239C1223.6603,-335.3951 1046.2082,-318.8164 1025.5,-300 962.2759,-242.5518 949.6856,-189.5558 985.5,-112 992.8833,-96.0115 1008.8676,-83.5319 1021.5401,-75.6299"/>
<polygon fill="#191970" stroke="#191970" points="1309.6649,-345.9187 1319.9137,-343.2332 1310.2272,-338.9413 1309.6649,-345.9187"/>
</g>
<!-- Node23 -->
<g id="node20" class="node">
<title>Node23</title>
<g id="a_node20"><a xlink:href="crypto_8h.html" target="_top" xlink:title="ODP crypto. ">
<polygon fill="#ffffff" stroke="#000000" points="1234.5,-168.5 1234.5,-187.5 1290.5,-187.5 1290.5,-168.5 1234.5,-168.5"/>
<text text-anchor="middle" x="1262.5" y="-175.5" font-family="Helvetica,sans-Serif" font-size="10.00" fill="#000000">crypto.h</text>
</a>
</g>
</g>
<!-- Node8&#45;&gt;Node23 -->
<g id="edge21" class="edge">
<title>Node8&#45;&gt;Node23</title>
<path fill="none" stroke="#191970" d="M1332.2843,-330.6915C1313.8578,-317.1391 1293.8067,-296.9384 1307.5,-280 1356.9804,-218.7933 1524.9314,-285.2463 1475.5,-224 1452.5713,-195.5909 1343.151,-183.8722 1290.6843,-179.8249"/>
<polygon fill="#191970" stroke="#191970" points="1330.3017,-333.5759 1340.5091,-336.4148 1334.3,-327.8301 1330.3017,-333.5759"/>
</g>
<!-- Node24 -->
<g id="node21" class="node">
<title>Node24</title>
<g id="a_node21"><a xlink:href="packet_8h.html" target="_top" xlink:title="ODP packet descriptor. ">
<polygon fill="#ffffff" stroke="#000000" points="1163,-280.5 1163,-299.5 1222,-299.5 1222,-280.5 1163,-280.5"/>
<text text-anchor="middle" x="1192.5" y="-287.5" font-family="Helvetica,sans-Serif" font-size="10.00" fill="#000000">packet.h</text>
</a>
</g>
</g>
<!-- Node8&#45;&gt;Node24 -->
<g id="edge23" class="edge">
<title>Node8&#45;&gt;Node24</title>
<path fill="none" stroke="#191970" d="M1318.5956,-333.057C1288.5816,-322.8084 1247.3493,-308.729 1220.3247,-299.5011"/>
<polygon fill="#191970" stroke="#191970" points="1317.7129,-336.454 1328.3074,-336.3733 1319.9749,-329.8295 1317.7129,-336.454"/>
</g>
<!-- Node41 -->
<g id="node25" class="node">
<title>Node41</title>
<g id="a_node25"><a xlink:href="spec_2packet__flags_8h.html" target="_top" xlink:title="ODP packet flags. ">
<polygon fill="#ffffff" stroke="#ff0000" points="1380,-224.5 1380,-243.5 1467,-243.5 1467,-224.5 1380,-224.5"/>
<text text-anchor="middle" x="1423.5" y="-231.5" font-family="Helvetica,sans-Serif" font-size="10.00" fill="#000000">packet_flags.h</text>
</a>
</g>
</g>
<!-- Node8&#45;&gt;Node41 -->
<g id="edge44" class="edge">
<title>Node8&#45;&gt;Node41</title>
<path fill="none" stroke="#191970" d="M1317.3621,-332.6719C1289.0058,-320.8225 1258.2695,-301.9972 1274.5,-280 1281.2108,-270.9049 1342.5734,-254.1007 1384.4285,-243.5157"/>
<polygon fill="#191970" stroke="#191970" points="1316.2299,-335.9879 1326.816,-336.4174 1318.8083,-329.4801 1316.2299,-335.9879"/>
</g>
<!-- Node35 -->
<g id="node27" class="node">
<title>Node35</title>
<g id="a_node27"><a xlink:href="packet__io_8h.html" target="_top" xlink:title="ODP Packet IO. ">
<polygon fill="#ffffff" stroke="#000000" points="1033,-168.5 1033,-187.5 1106,-187.5 1106,-168.5 1033,-168.5"/>
<text text-anchor="middle" x="1069.5" y="-175.5" font-family="Helvetica,sans-Serif" font-size="10.00" fill="#000000">packet_io.h</text>
</a>
</g>
</g>
<!-- Node8&#45;&gt;Node35 -->
<g id="edge35" class="edge">
<title>Node8&#45;&gt;Node35</title>
<path fill="none" stroke="#191970" d="M1309.776,-344.3263C1234.2505,-340.7604 1089.7324,-330.1069 1049.5,-300 1020.9173,-278.6108 1009.8383,-256.9822 1023.5,-224 1029.8102,-208.7658 1043.8846,-195.9464 1054.8148,-187.7423"/>
<polygon fill="#191970" stroke="#191970" points="1309.81,-347.8312 1319.957,-344.7837 1310.1242,-340.8383 1309.81,-347.8312"/>
</g>
<!-- Node37 -->
<g id="node29" class="node">
<title>Node37</title>
<g id="a_node29"><a xlink:href="spec_2traffic__mngr_8h.html" target="_top" xlink:title="traffic_mngr.h">
<polygon fill="#ffffff" stroke="#ff0000" points="1140.5,-112.5 1140.5,-131.5 1224.5,-131.5 1224.5,-112.5 1140.5,-112.5"/>
<text text-anchor="middle" x="1182.5" y="-119.5" font-family="Helvetica,sans-Serif" font-size="10.00" fill="#000000">traffic_mngr.h</text>
</a>
</g>
</g>
<!-- Node8&#45;&gt;Node37 -->
<g id="edge54" class="edge">
<title>Node8&#45;&gt;Node37</title>
<path fill="none" stroke="#191970" d="M1309.6932,-342.0435C1255.9387,-336.4159 1172.6745,-324.0056 1153.5,-300 1112.2691,-248.3808 1158.7055,-160.9307 1176.3048,-131.7815"/>
<polygon fill="#191970" stroke="#191970" points="1309.3939,-345.531 1319.6938,-343.0484 1310.0938,-338.5661 1309.3939,-345.531"/>
</g>
<!-- Node43 -->
<g id="node30" class="node">
<title>Node43</title>
<g id="a_node30"><a xlink:href="proto__stats_8h.html" target="_top" xlink:title="ODP proto stats. ">
<polygon fill="#ffffff" stroke="#000000" points="1316.5,-280.5 1316.5,-299.5 1396.5,-299.5 1396.5,-280.5 1316.5,-280.5"/>
<text text-anchor="middle" x="1356.5" y="-287.5" font-family="Helvetica,sans-Serif" font-size="10.00" fill="#000000">proto_stats.h</text>
</a>
</g>
</g>
<!-- Node8&#45;&gt;Node43 -->
<g id="edge36" class="edge">
<title>Node8&#45;&gt;Node43</title>
<path fill="none" stroke="#191970" d="M1356.5,-326.1575C1356.5,-317.155 1356.5,-306.9199 1356.5,-299.6427"/>
<polygon fill="#191970" stroke="#191970" points="1353.0001,-326.2455 1356.5,-336.2455 1360.0001,-326.2456 1353.0001,-326.2455"/>
</g>
<!-- Node31 -->
<g id="node31" class="node">
<title>Node31</title>
<g id="a_node31"><a xlink:href="queue_8h.html" target="_top" xlink:title="ODP queue. ">
<polygon fill="#ffffff" stroke="#000000" points="1414.5,-280.5 1414.5,-299.5 1470.5,-299.5 1470.5,-280.5 1414.5,-280.5"/>
<text text-anchor="middle" x="1442.5" y="-287.5" font-family="Helvetica,sans-Serif" font-size="10.00" fill="#000000">queue.h</text>
</a>
</g>
</g>
<!-- Node8&#45;&gt;Node31 -->
<g id="edge37" class="edge">
<title>Node8&#45;&gt;Node31</title>
<path fill="none" stroke="#191970" d="M1379.8905,-330.769C1395.1299,-320.8456 1414.5509,-308.1994 1427.6916,-299.6427"/>
<polygon fill="#191970" stroke="#191970" points="1377.9502,-327.8558 1371.4801,-336.2455 1381.7699,-333.7218 1377.9502,-327.8558"/>
</g>
<!-- Node44 -->
<g id="node33" class="node">
<title>Node44</title>
<g id="a_node33"><a xlink:href="spec_2chksum_8h.html" target="_top" xlink:title="ODP checksum functions. ">
<polygon fill="#ffffff" stroke="#ff0000" points="1488.5,-280.5 1488.5,-299.5 1552.5,-299.5 1552.5,-280.5 1488.5,-280.5"/>
<text text-anchor="middle" x="1520.5" y="-287.5" font-family="Helvetica,sans-Serif" font-size="10.00" fill="#000000">chksum.h</text>
</a>
</g>
</g>
<!-- Node8&#45;&gt;Node44 -->
<g id="edge39" class="edge">
<title>Node8&#45;&gt;Node44</title>
<path fill="none" stroke="#191970" d="M1394.4044,-333.057C1424.4184,-322.8084 1465.6507,-308.729 1492.6753,-299.5011"/>
<polygon fill="#191970" stroke="#191970" points="1393.0251,-329.8295 1384.6926,-336.3733 1395.2871,-336.454 1393.0251,-329.8295"/>
</g>
<!-- Node46 -->
<g id="node34" class="node">
<title>Node46</title>
<g id="a_node34"><a xlink:href="spec_2cpu_8h.html" target="_top" xlink:title="ODP CPU API. ">
<polygon fill="#ffffff" stroke="#ff0000" points="1571,-280.5 1571,-299.5 1614,-299.5 1614,-280.5 1571,-280.5"/>
<text text-anchor="middle" x="1592.5" y="-287.5" font-family="Helvetica,sans-Serif" font-size="10.00" fill="#000000">cpu.h</text>
</a>
</g>
</g>
<!-- Node8&#45;&gt;Node46 -->
<g id="edge40" class="edge">
<title>Node8&#45;&gt;Node46</title>
<path fill="none" stroke="#191970" d="M1402.9156,-336.8466C1444.6606,-328.3157 1507.5362,-314.7253 1561.5,-300 1564.5551,-299.1663 1567.757,-298.2189 1570.8953,-297.2473"/>
<polygon fill="#191970" stroke="#191970" points="1402.1415,-333.4323 1393.0374,-338.8514 1403.5338,-340.2925 1402.1415,-333.4323"/>
</g>
<!-- Node49 -->
<g id="node35" class="node">
<title>Node49</title>
<g id="a_node35"><a xlink:href="spec_2feature_8h.html" target="_top" xlink:title="ODP features. ">
<polygon fill="#ffffff" stroke="#ff0000" points="1632,-280.5 1632,-299.5 1693,-299.5 1693,-280.5 1632,-280.5"/>
<text text-anchor="middle" x="1662.5" y="-287.5" font-family="Helvetica,sans-Serif" font-size="10.00" fill="#000000">feature.h</text>
</a>
</g>
</g>
<!-- Node8&#45;&gt;Node49 -->
<g id="edge41" class="edge">
<title>Node8&#45;&gt;Node49</title>
<path fill="none" stroke="#191970" d="M1403.3984,-338.9618C1456.6966,-330.7148 1546.1948,-316.1131 1622.5,-300 1625.5816,-299.3493 1628.7856,-298.6268 1631.9788,-297.8765"/>
<polygon fill="#191970" stroke="#191970" points="1402.5876,-335.5452 1393.236,-340.525 1403.6519,-342.4638 1402.5876,-335.5452"/>
</g>
<!-- Node56 -->
<g id="node36" class="node">
<title>Node56</title>
<g id="a_node36"><a xlink:href="spec_2hash_8h.html" target="_top" xlink:title="ODP Hash functions. ">
<polygon fill="#ffffff" stroke="#ff0000" points="1711,-280.5 1711,-299.5 1760,-299.5 1760,-280.5 1711,-280.5"/>
<text text-anchor="middle" x="1735.5" y="-287.5" font-family="Helvetica,sans-Serif" font-size="10.00" fill="#000000">hash.h</text>
</a>
</g>
</g>
<!-- Node8&#45;&gt;Node56 -->
<g id="edge42" class="edge">
<title>Node8&#45;&gt;Node56</title>
<path fill="none" stroke="#191970" d="M1403.2559,-342.062C1469.9536,-335.9262 1596.0214,-322.405 1701.5,-300 1704.5093,-299.3608 1707.64,-298.5898 1710.73,-297.7629"/>
<polygon fill="#191970" stroke="#191970" points="1402.7171,-338.5964 1393.0733,-342.9836 1403.3481,-345.5679 1402.7171,-338.5964"/>
</g>
<!-- Node51 -->
<g id="node37" class="node">
<title>Node51</title>
<g id="a_node37"><a xlink:href="spec_2init_8h.html" target="_top" xlink:title="init.h">
<polygon fill="#ffffff" stroke="#ff0000" points="1778,-280.5 1778,-299.5 1819,-299.5 1819,-280.5 1778,-280.5"/>
<text text-anchor="middle" x="1798.5" y="-287.5" font-family="Helvetica,sans-Serif" font-size="10.00" fill="#000000">init.h</text>
</a>
</g>
</g>
<!-- Node8&#45;&gt;Node51 -->
<g id="edge43" class="edge">
<title>Node8&#45;&gt;Node51</title>
<path fill="none" stroke="#191970" d="M1403.3318,-343.9814C1480.3173,-339.9495 1638.0906,-328.6791 1768.5,-300 1771.5027,-299.3397 1774.6272,-298.4897 1777.6767,-297.5647"/>
<polygon fill="#191970" stroke="#191970" points="1402.8265,-340.5023 1393.0162,-344.5033 1403.1803,-347.4934 1402.8265,-340.5023"/>
</g>
<!-- Node58 -->
<g id="node38" class="node">
<title>Node58</title>
<g id="a_node38"><a xlink:href="spec_2pool_8h.html" target="_top" xlink:title="ODP pool. ">
<polygon fill="#ffffff" stroke="#ff0000" points="1858,-224.5 1858,-243.5 1905,-243.5 1905,-224.5 1858,-224.5"/>
<text text-anchor="middle" x="1881.5" y="-231.5" font-family="Helvetica,sans-Serif" font-size="10.00" fill="#000000">pool.h</text>
</a>
</g>
</g>
<!-- Node8&#45;&gt;Node58 -->
<g id="edge45" class="edge">
<title>Node8&#45;&gt;Node58</title>
<path fill="none" stroke="#191970" d="M1403.3651,-343.4975C1515.3003,-337.2282 1791.6658,-319.9165 1828.5,-300 1852.2854,-287.139 1869.2592,-258.67 1876.9255,-243.6735"/>
<polygon fill="#191970" stroke="#191970" points="1402.8502,-340.0206 1393.0595,-344.0695 1403.2381,-347.0099 1402.8502,-340.0206"/>
</g>
<!-- Node61 -->
<g id="node39" class="node">
<title>Node61</title>
<g id="a_node39"><a xlink:href="pool__types_8h.html" target="_top" xlink:title="Type definitions for pools. ">
<polygon fill="#ffffff" stroke="#000000" points="1876,-280.5 1876,-299.5 1955,-299.5 1955,-280.5 1876,-280.5"/>
<text text-anchor="middle" x="1915.5" y="-287.5" font-family="Helvetica,sans-Serif" font-size="10.00" fill="#000000">pool_types.h</text>
</a>
</g>
</g>
<!-- Node8&#45;&gt;Node61 -->
<g id="edge46" class="edge">
<title>Node8&#45;&gt;Node61</title>
<path fill="none" stroke="#191970" d="M1403.1398,-343.1956C1492.4129,-337.5082 1693.5094,-323.1554 1861.5,-300 1866.1281,-299.3621 1870.9629,-298.602 1875.7556,-297.7899"/>
<polygon fill="#191970" stroke="#191970" points="1402.8306,-339.708 1393.0707,-343.8304 1403.2711,-346.6942 1402.8306,-339.708"/>
</g>
<!-- Node62 -->
<g id="node40" class="node">
<title>Node62</title>
<g id="a_node40"><a xlink:href="spec_2proto__stats__types_8h.html" target="_top" xlink:title="ODP proto stats types. ">
<polygon fill="#ffffff" stroke="#ff0000" points="1973,-280.5 1973,-299.5 2086,-299.5 2086,-280.5 1973,-280.5"/>
<text text-anchor="middle" x="2029.5" y="-287.5" font-family="Helvetica,sans-Serif" font-size="10.00" fill="#000000">proto_stats_types.h</text>
</a>
</g>
</g>
<!-- Node8&#45;&gt;Node62 -->
<g id="edge48" class="edge">
<title>Node8&#45;&gt;Node62</title>
<path fill="none" stroke="#191970" d="M1403.5551,-343.6794C1505.8425,-338.363 1756.0184,-323.8877 1964.5,-300 1967.2224,-299.6881 1970.0056,-299.3467 1972.8143,-298.9843"/>
<polygon fill="#191970" stroke="#191970" points="1403.0664,-340.1998 1393.2596,-344.2094 1403.4263,-347.1905 1403.0664,-340.1998"/>
</g>
<!-- Node39 -->
<g id="node41" class="node">
<title>Node39</title>
<g id="a_node41"><a xlink:href="spec_2schedule_8h.html" target="_top" xlink:title="ODP schedule. ">
<polygon fill="#ffffff" stroke="#ff0000" points="2104,-280.5 2104,-299.5 2173,-299.5 2173,-280.5 2104,-280.5"/>
<text text-anchor="middle" x="2138.5" y="-287.5" font-family="Helvetica,sans-Serif" font-size="10.00" fill="#000000">schedule.h</text>
</a>
</g>
</g>
<!-- Node8&#45;&gt;Node39 -->
<g id="edge49" class="edge">
<title>Node8&#45;&gt;Node39</title>
<path fill="none" stroke="#191970" d="M1403.1306,-344.1147C1543.5298,-338.2774 1960.8661,-319.7055 2095.5,-300 2098.2301,-299.6004 2101.0428,-299.1154 2103.8607,-298.577"/>
<polygon fill="#191970" stroke="#191970" points="1402.9659,-340.6184 1393.1192,-344.5288 1403.2553,-347.6124 1402.9659,-340.6184"/>
</g>
<!-- Node68 -->
<g id="node42" class="node">
<title>Node68</title>
<g id="a_node42"><a xlink:href="spec_2stash_8h.html" target="_top" xlink:title="ODP stash. ">
<polygon fill="#ffffff" stroke="#ff0000" points="2191.5,-280.5 2191.5,-299.5 2243.5,-299.5 2243.5,-280.5 2191.5,-280.5"/>
<text text-anchor="middle" x="2217.5" y="-287.5" font-family="Helvetica,sans-Serif" font-size="10.00" fill="#000000">stash.h</text>
</a>
</g>
</g>
<!-- Node8&#45;&gt;Node68 -->
<g id="edge50" class="edge">
<title>Node8&#45;&gt;Node68</title>
<path fill="none" stroke="#191970" d="M1403.4302,-344.7607C1555.0789,-340.5403 2030.8796,-325.5534 2182.5,-300 2185.3666,-299.5169 2188.333,-298.8845 2191.2709,-298.1721"/>
<polygon fill="#191970" stroke="#191970" points="1402.9803,-341.2717 1393.0805,-345.046 1403.1732,-348.2691 1402.9803,-341.2717"/>
</g>
<!-- Node70 -->
<g id="node43" class="node">
<title>Node70</title>
<g id="a_node43"><a xlink:href="spec_2std_8h.html" target="_top" xlink:title="ODP standard types and optimized C library functions. ">
<polygon fill="#ffffff" stroke="#ff0000" points="2262,-280.5 2262,-299.5 2303,-299.5 2303,-280.5 2262,-280.5"/>
<text text-anchor="middle" x="2282.5" y="-287.5" font-family="Helvetica,sans-Serif" font-size="10.00" fill="#000000">std.h</text>
</a>
</g>
</g>
<!-- Node8&#45;&gt;Node70 -->
<g id="edge51" class="edge">
<title>Node8&#45;&gt;Node70</title>
<path fill="none" stroke="#191970" d="M1403.6451,-345.2586C1563.9782,-342.4748 2087.3559,-331.1653 2252.5,-300 2255.5211,-299.4299 2258.656,-298.6307 2261.7104,-297.7299"/>
<polygon fill="#191970" stroke="#191970" points="1403.1157,-341.767 1393.1769,-345.4371 1403.2351,-348.766 1403.1157,-341.767"/>
</g>
<!-- Node72 -->
<g id="node44" class="node">
<title>Node72</title>
<g id="a_node44"><a xlink:href="spec_2threshold_8h.html" target="_top" xlink:title="ODP threshold descriptor. ">
<polygon fill="#ffffff" stroke="#ff0000" points="2321,-280.5 2321,-299.5 2392,-299.5 2392,-280.5 2321,-280.5"/>
<text text-anchor="middle" x="2356.5" y="-287.5" font-family="Helvetica,sans-Serif" font-size="10.00" fill="#000000">threshold.h</text>
</a>
</g>
</g>
<!-- Node8&#45;&gt;Node72 -->
<g id="edge52" class="edge">
<title>Node8&#45;&gt;Node72</title>
<path fill="none" stroke="#191970" d="M1403.615,-344.8281C1570.6068,-340.5036 2133.7821,-324.4162 2312.5,-300 2315.1389,-299.6395 2317.853,-299.1983 2320.5758,-298.7043"/>
<polygon fill="#191970" stroke="#191970" points="1403.1035,-341.34 1393.1968,-345.0959 1403.2835,-348.3377 1403.1035,-341.34"/>
</g>
<!-- Node74 -->
<g id="node45" class="node">
<title>Node74</title>
<g id="a_node45"><a xlink:href="spec_2thrmask_8h.html" target="_top" xlink:title="ODP thread masks. ">
<polygon fill="#ffffff" stroke="#ff0000" points="2410.5,-280.5 2410.5,-299.5 2476.5,-299.5 2476.5,-280.5 2410.5,-280.5"/>
<text text-anchor="middle" x="2443.5" y="-287.5" font-family="Helvetica,sans-Serif" font-size="10.00" fill="#000000">thrmask.h</text>
</a>
</g>
</g>
<!-- Node8&#45;&gt;Node74 -->
<g id="edge53" class="edge">
<title>Node8&#45;&gt;Node74</title>
<path fill="none" stroke="#191970" d="M1403.2743,-345.1212C1579.6677,-341.6238 2204.54,-327.5284 2401.5,-300 2404.3209,-299.6057 2407.2297,-299.1082 2410.1382,-298.5467"/>
<polygon fill="#191970" stroke="#191970" points="1402.9622,-341.6266 1393.0329,-345.3223 1403.0997,-348.6252 1402.9622,-341.6266"/>
</g>
<!-- Node76 -->
<g id="node46" class="node">
<title>Node76</title>
<g id="a_node46"><a xlink:href="system__info_8h.html" target="_top" xlink:title="ODP system information. ">
<polygon fill="#ffffff" stroke="#000000" points="2494.5,-280.5 2494.5,-299.5 2580.5,-299.5 2580.5,-280.5 2494.5,-280.5"/>
<text text-anchor="middle" x="2537.5" y="-287.5" font-family="Helvetica,sans-Serif" font-size="10.00" fill="#000000">system_info.h</text>
</a>
</g>
</g>
<!-- Node8&#45;&gt;Node76 -->
<g id="edge55" class="edge">
<title>Node8&#45;&gt;Node76</title>
<path fill="none" stroke="#191970" d="M1403.2917,-345.0261C1588.5112,-341.0264 2270.6896,-324.8899 2485.5,-300 2488.4223,-299.6614 2491.4265,-299.2512 2494.4465,-298.7926"/>
<polygon fill="#191970" stroke="#191970" points="1402.9964,-341.5315 1393.0738,-345.2453 1403.1466,-348.5299 1402.9964,-341.5315"/>
</g>
<!-- Node77 -->
<g id="node47" class="node">
<title>Node77</title>
<g id="a_node47"><a xlink:href="time_8h.html" target="_top" xlink:title="ODP time. ">
<polygon fill="#ffffff" stroke="#ff0000" points="1058.5,-280.5 1058.5,-299.5 1106.5,-299.5 1106.5,-280.5 1058.5,-280.5"/>
<text text-anchor="middle" x="1082.5" y="-287.5" font-family="Helvetica,sans-Serif" font-size="10.00" fill="#000000">time.h</text>
</a>
</g>
</g>
<!-- Node8&#45;&gt;Node77 -->
<g id="edge56" class="edge">
<title>Node8&#45;&gt;Node77</title>
<path fill="none" stroke="#191970" d="M1309.9278,-337.843C1262.1898,-329.2664 1185.8952,-314.9613 1120.5,-300 1115.978,-298.9654 1111.1771,-297.7749 1106.5647,-296.5843"/>
<polygon fill="#191970" stroke="#191970" points="1309.4994,-341.3218 1319.9593,-339.6364 1310.7313,-334.4311 1309.4994,-341.3218"/>
</g>
<!-- Node78 -->
<g id="node48" class="node">
<title>Node78</title>
<g id="a_node48"><a xlink:href="timer_8h.html" target="_top" xlink:title="ODP timer service. ">
<polygon fill="#ffffff" stroke="#000000" points="2599,-280.5 2599,-299.5 2650,-299.5 2650,-280.5 2599,-280.5"/>
<text text-anchor="middle" x="2624.5" y="-287.5" font-family="Helvetica,sans-Serif" font-size="10.00" fill="#000000">timer.h</text>
</a>
</g>
</g>
<!-- Node8&#45;&gt;Node78 -->
<g id="edge58" class="edge">
<title>Node8&#45;&gt;Node78</title>
<path fill="none" stroke="#191970" d="M1403.4387,-345.7592C1599.6221,-344.5201 2354.6374,-337.3708 2589.5,-300 2592.4957,-299.5233 2595.5985,-298.8739 2598.6629,-298.1331"/>
<polygon fill="#191970" stroke="#191970" points="1403.1627,-342.2607 1393.1843,-345.8218 1403.2055,-349.2606 1403.1627,-342.2607"/>
</g>
<!-- Node79 -->
<g id="node49" class="node">
<title>Node79</title>
<g id="a_node49"><a xlink:href="strong__types_8h.html" target="_top" xlink:title="ODP Strong Types. ">
<polygon fill="#ffffff" stroke="#000000" points="2668,-280.5 2668,-299.5 2757,-299.5 2757,-280.5 2668,-280.5"/>
<text text-anchor="middle" x="2712.5" y="-287.5" font-family="Helvetica,sans-Serif" font-size="10.00" fill="#000000">strong_types.h</text>
</a>
</g>
</g>
<!-- Node8&#45;&gt;Node79 -->
<g id="edge59" class="edge">
<title>Node8&#45;&gt;Node79</title>
<path fill="none" stroke="#191970" d="M1403.3421,-345.2967C1606.0387,-342.1068 2408.6519,-327.9305 2659.5,-300 2662.1988,-299.6995 2664.9663,-299.3388 2667.7523,-298.9353"/>
<polygon fill="#191970" stroke="#191970" points="1402.9887,-341.8016 1393.0445,-345.4573 1403.098,-348.8008 1402.9887,-341.8016"/>
</g>
<!-- Node21 -->
<g id="node19" class="node">
<title>Node21</title>
<g id="a_node19"><a xlink:href="spec_2ipsec_8h.html" target="_top" xlink:title="ODP IPSEC API. ">
<polygon fill="#ffffff" stroke="#ff0000" points="1087,-.5 1087,-19.5 1138,-19.5 1138,-.5 1087,-.5"/>
<text text-anchor="middle" x="1112.5" y="-7.5" font-family="Helvetica,sans-Serif" font-size="10.00" fill="#000000">ipsec.h</text>
</a>
</g>
</g>
<!-- Node20&#45;&gt;Node21 -->
<g id="edge20" class="edge">
<title>Node20&#45;&gt;Node21</title>
<path fill="none" stroke="#191970" d="M1060.451,-49.928C1073.2107,-40.1397 1089.0885,-27.9595 1099.9301,-19.6427"/>
<polygon fill="#191970" stroke="#191970" points="1058.0196,-47.3819 1052.2156,-56.2455 1062.2803,-52.9359 1058.0196,-47.3819"/>
</g>
<!-- Node23&#45;&gt;Node21 -->
<g id="edge22" class="edge">
<title>Node23&#45;&gt;Node21</title>
<path fill="none" stroke="#191970" d="M1256.5442,-158.4038C1251.7338,-144.5739 1244.0288,-126.0767 1233.5,-112 1202.8912,-71.0772 1152.8858,-35.7753 1127.8276,-19.5292"/>
<polygon fill="#191970" stroke="#191970" points="1253.3507,-159.8999 1259.7802,-168.3209 1260.0054,-157.7284 1253.3507,-159.8999"/>
</g>
<!-- Node25 -->
<g id="node22" class="node">
<title>Node25</title>
<g id="a_node22"><a xlink:href="spec_2comp_8h.html" target="_top" xlink:title="ODP Compression. ">
<polygon fill="#ffffff" stroke="#ff0000" points="1309,-224.5 1309,-243.5 1362,-243.5 1362,-224.5 1309,-224.5"/>
<text text-anchor="middle" x="1335.5" y="-231.5" font-family="Helvetica,sans-Serif" font-size="10.00" fill="#000000">comp.h</text>
</a>
</g>
</g>
<!-- Node24&#45;&gt;Node25 -->
<g id="edge24" class="edge">
<title>Node24&#45;&gt;Node25</title>
<path fill="none" stroke="#191970" d="M1226.5798,-276.6541C1252.6573,-266.4419 1287.9815,-252.6086 1311.2382,-243.5011"/>
<polygon fill="#191970" stroke="#191970" points="1225.1178,-273.4677 1217.0826,-280.3733 1227.6703,-279.9858 1225.1178,-273.4677"/>
</g>
<!-- Node27 -->
<g id="node23" class="node">
<title>Node27</title>
<g id="a_node23"><a xlink:href="spec_2crypto_8h.html" target="_top" xlink:title="ODP crypto. ">
<polygon fill="#ffffff" stroke="#000000" points="1234.5,-224.5 1234.5,-243.5 1290.5,-243.5 1290.5,-224.5 1234.5,-224.5"/>
<text text-anchor="middle" x="1262.5" y="-231.5" font-family="Helvetica,sans-Serif" font-size="10.00" fill="#000000">crypto.h</text>
</a>
</g>
</g>
<!-- Node24&#45;&gt;Node27 -->
<g id="edge25" class="edge">
<title>Node24&#45;&gt;Node27</title>
<path fill="none" stroke="#191970" d="M1212.59,-273.928C1224.8253,-264.1397 1240.0507,-251.9595 1250.4467,-243.6427"/>
<polygon fill="#191970" stroke="#191970" points="1210.3153,-271.2655 1204.6931,-280.2455 1214.6882,-276.7316 1210.3153,-271.2655"/>
</g>
<!-- Node28 -->
<g id="node24" class="node">
<title>Node28</title>
<g id="a_node24"><a xlink:href="spec_2event_8h.html" target="_top" xlink:title="ODP event. ">
<polygon fill="#ffffff" stroke="#ff0000" points="1163,-224.5 1163,-243.5 1216,-243.5 1216,-224.5 1163,-224.5"/>
<text text-anchor="middle" x="1189.5" y="-231.5" font-family="Helvetica,sans-Serif" font-size="10.00" fill="#000000">event.h</text>
</a>
</g>
</g>
<!-- Node24&#45;&gt;Node28 -->
<g id="edge27" class="edge">
<title>Node24&#45;&gt;Node28</title>
<path fill="none" stroke="#191970" d="M1191.437,-270.1575C1190.9547,-261.155 1190.4064,-250.9199 1190.0166,-243.6427"/>
<polygon fill="#191970" stroke="#191970" points="1187.9474,-270.4471 1191.9774,-280.2455 1194.9374,-270.0726 1187.9474,-270.4471"/>
</g>
<!-- Node24&#45;&gt;Node41 -->
<g id="edge28" class="edge">
<title>Node24&#45;&gt;Node41</title>
<path fill="none" stroke="#191970" d="M1231.9525,-280.4357C1274.4848,-270.1249 1341.7818,-253.8105 1384.2394,-243.5177"/>
<polygon fill="#191970" stroke="#191970" points="1231.1202,-277.0361 1222.2263,-282.7936 1232.7694,-283.839 1231.1202,-277.0361"/>
</g>
<!-- Node34 -->
<g id="node26" class="node">
<title>Node34</title>
<g id="a_node26"><a xlink:href="spec_2packet__io_8h.html" target="_top" xlink:title="ODP Packet IO. ">
<polygon fill="#ffffff" stroke="#000000" points="1033,-224.5 1033,-243.5 1106,-243.5 1106,-224.5 1033,-224.5"/>
<text text-anchor="middle" x="1069.5" y="-231.5" font-family="Helvetica,sans-Serif" font-size="10.00" fill="#000000">packet_io.h</text>
</a>
</g>
</g>
<!-- Node24&#45;&gt;Node34 -->
<g id="edge29" class="edge">
<title>Node24&#45;&gt;Node34</title>
<path fill="none" stroke="#191970" d="M1161.9935,-276.1109C1139.6888,-265.9559 1110.0201,-252.4482 1090.3685,-243.5011"/>
<polygon fill="#191970" stroke="#191970" points="1160.8041,-279.415 1171.3555,-280.3733 1163.7047,-273.0442 1160.8041,-279.415"/>
</g>
<!-- Node27&#45;&gt;Node23 -->
<g id="edge26" class="edge">
<title>Node27&#45;&gt;Node23</title>
<path fill="none" stroke="#191970" d="M1262.5,-214.1575C1262.5,-205.155 1262.5,-194.9199 1262.5,-187.6427"/>
<polygon fill="#191970" stroke="#191970" points="1259.0001,-214.2455 1262.5,-224.2455 1266.0001,-214.2456 1259.0001,-214.2455"/>
</g>
<!-- Node34&#45;&gt;Node35 -->
<g id="edge30" class="edge">
<title>Node34&#45;&gt;Node35</title>
<path fill="none" stroke="#191970" d="M1069.5,-214.1575C1069.5,-205.155 1069.5,-194.9199 1069.5,-187.6427"/>
<polygon fill="#191970" stroke="#191970" points="1066.0001,-214.2455 1069.5,-224.2455 1073.0001,-214.2456 1066.0001,-214.2455"/>
</g>
<!-- Node35&#45;&gt;Node21 -->
<g id="edge33" class="edge">
<title>Node35&#45;&gt;Node21</title>
<path fill="none" stroke="#191970" d="M1080.3509,-159.4992C1084.7262,-151.3129 1089.4502,-141.4212 1092.5,-132 1105.5883,-91.5684 1110.3947,-40.6983 1111.9008,-19.7232"/>
<polygon fill="#191970" stroke="#191970" points="1077.1479,-158.0562 1075.323,-168.4927 1083.2579,-161.4721 1077.1479,-158.0562"/>
</g>
<!-- Node36 -->
<g id="node28" class="node">
<title>Node36</title>
<g id="a_node28"><a xlink:href="spec_2classification_8h.html" target="_top" xlink:title="ODP classification descriptor. ">
<polygon fill="#ffffff" stroke="#000000" points="995,-112.5 995,-131.5 1084,-131.5 1084,-112.5 995,-112.5"/>
<text text-anchor="middle" x="1039.5" y="-119.5" font-family="Helvetica,sans-Serif" font-size="10.00" fill="#000000">classification.h</text>
</a>
</g>
</g>
<!-- Node35&#45;&gt;Node36 -->
<g id="edge31" class="edge">
<title>Node35&#45;&gt;Node36</title>
<path fill="none" stroke="#191970" d="M1059.502,-159.3372C1054.5324,-150.0605 1048.7356,-139.2398 1044.6657,-131.6427"/>
<polygon fill="#191970" stroke="#191970" points="1056.4669,-161.0835 1064.2744,-168.2455 1062.6373,-157.7779 1056.4669,-161.0835"/>
</g>
<!-- Node35&#45;&gt;Node37 -->
<g id="edge34" class="edge">
<title>Node35&#45;&gt;Node37</title>
<path fill="none" stroke="#191970" d="M1098.0792,-163.8368C1118.5058,-153.7139 1145.4362,-140.3679 1163.3281,-131.5011"/>
<polygon fill="#191970" stroke="#191970" points="1096.3313,-160.7968 1088.9254,-168.3733 1099.4396,-167.0688 1096.3313,-160.7968"/>
</g>
<!-- Node36&#45;&gt;Node20 -->
<g id="edge32" class="edge">
<title>Node36&#45;&gt;Node20</title>
<path fill="none" stroke="#191970" d="M1039.5,-102.1575C1039.5,-93.155 1039.5,-82.9199 1039.5,-75.6427"/>
<polygon fill="#191970" stroke="#191970" points="1036.0001,-102.2455 1039.5,-112.2455 1043.0001,-102.2456 1036.0001,-102.2455"/>
</g>
<!-- Node32 -->
<g id="node32" class="node">
<title>Node32</title>
<g id="a_node32"><a xlink:href="spec_2packet__io__stats_8h.html" target="_top" xlink:title="ODP Packet IO statistics. ">
<polygon fill="#ffffff" stroke="#ff0000" points="1523.5,-224.5 1523.5,-243.5 1625.5,-243.5 1625.5,-224.5 1523.5,-224.5"/>
<text text-anchor="middle" x="1574.5" y="-231.5" font-family="Helvetica,sans-Serif" font-size="10.00" fill="#000000">packet_io_stats.h</text>
</a>
</g>
</g>
<!-- Node31&#45;&gt;Node32 -->
<g id="edge38" class="edge">
<title>Node31&#45;&gt;Node32</title>
<path fill="none" stroke="#191970" d="M1474.5965,-276.3833C1498.6035,-266.1985 1530.8259,-252.5284 1552.1045,-243.5011"/>
<polygon fill="#191970" stroke="#191970" points="1473.0305,-273.2457 1465.1916,-280.3733 1475.7644,-279.6897 1473.0305,-273.2457"/>
</g>
<!-- Node61&#45;&gt;Node58 -->
<g id="edge47" class="edge">
<title>Node61&#45;&gt;Node58</title>
<path fill="none" stroke="#191970" d="M1904.3465,-271.6296C1898.6753,-262.2887 1892.0155,-251.3197 1887.3545,-243.6427"/>
<polygon fill="#191970" stroke="#191970" points="1901.3961,-273.5141 1909.5777,-280.2455 1907.3796,-269.8812 1901.3961,-273.5141"/>
</g>
<!-- Node77&#45;&gt;Node34 -->
<g id="edge57" class="edge">
<title>Node77&#45;&gt;Node34</title>
<path fill="none" stroke="#191970" d="M1077.9625,-270.4538C1075.8561,-261.3803 1073.4464,-250.9998 1071.7385,-243.6427"/>
<polygon fill="#191970" stroke="#191970" points="1074.5649,-271.2961 1080.2356,-280.2455 1081.3835,-269.7131 1074.5649,-271.2961"/>
</g>
</g>
</svg>
