<?xml version="1.0" encoding="UTF-8" standalone="no"?>
<!DOCTYPE svg PUBLIC "-//W3C//DTD SVG 1.1//EN"
 "http://www.w3.org/Graphics/SVG/1.1/DTD/svg11.dtd">
<!-- Generated by graphviz version 2.40.1 (20161225.0304)
 -->
<!-- Title: std_types.h Pages: 1 -->
<svg width="2910pt" height="420pt"
 viewBox="0.00 0.00 2910.00 420.00" xmlns="http://www.w3.org/2000/svg" xmlns:xlink="http://www.w3.org/1999/xlink">
<g id="graph0" class="graph" transform="scale(1 1) rotate(0) translate(4 416)">
<title>std_types.h</title>
<polygon fill="#ffffff" stroke="transparent" points="-4,4 -4,-416 2906,-416 2906,4 -4,4"/>
<!-- Node7 -->
<g id="node1" class="node">
<title>Node7</title>
<polygon fill="#bfbfbf" stroke="#000000" points="1398,-392.5 1398,-411.5 1471,-411.5 1471,-392.5 1398,-392.5"/>
<text text-anchor="middle" x="1434.5" y="-399.5" font-family="Helvetica,sans-Serif" font-size="10.00" fill="#000000">std_types.h</text>
</g>
<!-- Node8 -->
<g id="node2" class="node">
<title>Node8</title>
<g id="a_node2"><a xlink:href="std__types_8h.html" target="_top" xlink:title="Standard C language types and definitions for ODP. ">
<polygon fill="#ffffff" stroke="#000000" points="1398,-336.5 1398,-355.5 1471,-355.5 1471,-336.5 1398,-336.5"/>
<text text-anchor="middle" x="1434.5" y="-343.5" font-family="Helvetica,sans-Serif" font-size="10.00" fill="#000000">std_types.h</text>
</a>
</g>
</g>
<!-- Node7&#45;&gt;Node8 -->
<g id="edge1" class="edge">
<title>Node7&#45;&gt;Node8</title>
<path fill="none" stroke="#191970" d="M1434.5,-382.1575C1434.5,-373.155 1434.5,-362.9199 1434.5,-355.6427"/>
<polygon fill="#191970" stroke="#191970" points="1431.0001,-382.2455 1434.5,-392.2455 1438.0001,-382.2456 1431.0001,-382.2455"/>
</g>
<!-- Node9 -->
<g id="node3" class="node">
<title>Node9</title>
<g id="a_node3"><a xlink:href="abi-default_2atomic_8h.html" target="_top" xlink:title="ODP atomic operations. ">
<polygon fill="#ffffff" stroke="#000000" points="0,-280.5 0,-299.5 59,-299.5 59,-280.5 0,-280.5"/>
<text text-anchor="middle" x="29.5" y="-287.5" font-family="Helvetica,sans-Serif" font-size="10.00" fill="#000000">atomic.h</text>
</a>
</g>
</g>
<!-- Node8&#45;&gt;Node9 -->
<g id="edge2" class="edge">
<title>Node8&#45;&gt;Node9</title>
<path fill="none" stroke="#191970" d="M1387.6666,-345.8287C1178.7291,-344.8489 330.4657,-338.5286 67.5,-300 64.8001,-299.6044 62.0162,-299.0883 59.2404,-298.499"/>
<polygon fill="#191970" stroke="#191970" points="1387.6801,-349.3287 1397.6958,-345.8739 1387.7117,-342.3288 1387.6801,-349.3287"/>
</g>
<!-- Node10 -->
<g id="node4" class="node">
<title>Node10</title>
<g id="a_node4"><a xlink:href="abi-default_2barrier_8h.html" target="_top" xlink:title="ODP barrier. ">
<polygon fill="#ffffff" stroke="#000000" points="77,-280.5 77,-299.5 134,-299.5 134,-280.5 77,-280.5"/>
<text text-anchor="middle" x="105.5" y="-287.5" font-family="Helvetica,sans-Serif" font-size="10.00" fill="#000000">barrier.h</text>
</a>
</g>
</g>
<!-- Node8&#45;&gt;Node10 -->
<g id="edge3" class="edge">
<title>Node8&#45;&gt;Node10</title>
<path fill="none" stroke="#191970" d="M1387.6999,-345.7212C1186.0893,-344.3063 390.7627,-336.4778 143.5,-300 140.5305,-299.5619 137.4593,-298.979 134.4089,-298.314"/>
<polygon fill="#191970" stroke="#191970" points="1387.9214,-349.2227 1397.9451,-345.7911 1387.9693,-342.2228 1387.9214,-349.2227"/>
</g>
<!-- Node11 -->
<g id="node5" class="node">
<title>Node11</title>
<g id="a_node5"><a xlink:href="abi-default_2byteorder_8h.html" target="_top" xlink:title="ODP byteorder. ">
<polygon fill="#ffffff" stroke="#000000" points="152.5,-280.5 152.5,-299.5 224.5,-299.5 224.5,-280.5 152.5,-280.5"/>
<text text-anchor="middle" x="188.5" y="-287.5" font-family="Helvetica,sans-Serif" font-size="10.00" fill="#000000">byteorder.h</text>
</a>
</g>
</g>
<!-- Node8&#45;&gt;Node11 -->
<g id="edge4" class="edge">
<title>Node8&#45;&gt;Node11</title>
<path fill="none" stroke="#191970" d="M1387.877,-345.3388C1195.5115,-342.4371 462.8636,-329.6309 233.5,-300 230.6426,-299.6309 227.699,-299.1678 224.7499,-298.6445"/>
<polygon fill="#191970" stroke="#191970" points="1387.8885,-348.8393 1397.9397,-345.489 1387.993,-341.84 1387.8885,-348.8393"/>
</g>
<!-- Node12 -->
<g id="node6" class="node">
<title>Node12</title>
<g id="a_node6"><a xlink:href="abi-default_2cpumask_8h.html" target="_top" xlink:title="ODP CPU masks and enumeration. ">
<polygon fill="#ffffff" stroke="#000000" points="242.5,-280.5 242.5,-299.5 312.5,-299.5 312.5,-280.5 242.5,-280.5"/>
<text text-anchor="middle" x="277.5" y="-287.5" font-family="Helvetica,sans-Serif" font-size="10.00" fill="#000000">cpumask.h</text>
</a>
</g>
</g>
<!-- Node8&#45;&gt;Node12 -->
<g id="edge5" class="edge">
<title>Node8&#45;&gt;Node12</title>
<path fill="none" stroke="#191970" d="M1387.7343,-345.203C1204.1574,-341.8984 532.5874,-328.1106 321.5,-300 318.7046,-299.6277 315.8252,-299.1624 312.9408,-298.6376"/>
<polygon fill="#191970" stroke="#191970" points="1387.806,-348.7047 1397.8668,-345.3836 1387.9308,-341.7058 1387.806,-348.7047"/>
</g>
<!-- Node13 -->
<g id="node7" class="node">
<title>Node13</title>
<g id="a_node7"><a xlink:href="abi-default_2init_8h.html" target="_top" xlink:title="ODP initialization. ">
<polygon fill="#ffffff" stroke="#000000" points="331,-280.5 331,-299.5 372,-299.5 372,-280.5 331,-280.5"/>
<text text-anchor="middle" x="351.5" y="-287.5" font-family="Helvetica,sans-Serif" font-size="10.00" fill="#000000">init.h</text>
</a>
</g>
</g>
<!-- Node8&#45;&gt;Node13 -->
<g id="edge6" class="edge">
<title>Node8&#45;&gt;Node13</title>
<path fill="none" stroke="#191970" d="M1387.7869,-345.7464C1210.2843,-344.5064 577.7642,-337.4957 380.5,-300 377.7794,-299.4829 374.9675,-298.7632 372.2136,-297.9447"/>
<polygon fill="#191970" stroke="#191970" points="1387.8227,-349.2467 1397.8459,-345.8139 1387.8697,-342.2468 1387.8227,-349.2467"/>
</g>
<!-- Node14 -->
<g id="node8" class="node">
<title>Node14</title>
<g id="a_node8"><a xlink:href="abi-default_2ipsec_8h.html" target="_top" xlink:title="ODP IPSEC API &#45; platform specific types. ">
<polygon fill="#ffffff" stroke="#000000" points="390,-280.5 390,-299.5 441,-299.5 441,-280.5 390,-280.5"/>
<text text-anchor="middle" x="415.5" y="-287.5" font-family="Helvetica,sans-Serif" font-size="10.00" fill="#000000">ipsec.h</text>
</a>
</g>
</g>
<!-- Node8&#45;&gt;Node14 -->
<g id="edge7" class="edge">
<title>Node8&#45;&gt;Node14</title>
<path fill="none" stroke="#191970" d="M1387.8507,-345.3003C1218.0756,-342.5239 633.4714,-330.8908 449.5,-300 446.8301,-299.5517 444.0737,-298.9621 441.3392,-298.293"/>
<polygon fill="#191970" stroke="#191970" points="1387.9064,-348.8016 1397.9615,-345.4632 1388.0192,-341.8025 1387.9064,-348.8016"/>
</g>
<!-- Node15 -->
<g id="node9" class="node">
<title>Node15</title>
<g id="a_node9"><a xlink:href="abi-default_2packet__io_8h.html" target="_top" xlink:title="ODP Packet IO. ">
<polygon fill="#ffffff" stroke="#000000" points="459,-280.5 459,-299.5 532,-299.5 532,-280.5 459,-280.5"/>
<text text-anchor="middle" x="495.5" y="-287.5" font-family="Helvetica,sans-Serif" font-size="10.00" fill="#000000">packet_io.h</text>
</a>
</g>
</g>
<!-- Node8&#45;&gt;Node15 -->
<g id="edge8" class="edge">
<title>Node8&#45;&gt;Node15</title>
<path fill="none" stroke="#191970" d="M1387.0757,-344.5762C1226.9877,-339.6103 707.3358,-322.1472 541.5,-300 538.4217,-299.5889 535.2438,-299.0795 532.0635,-298.5101"/>
<polygon fill="#191970" stroke="#191970" points="1387.4294,-348.0887 1397.5326,-344.8986 1387.6452,-341.092 1387.4294,-348.0887"/>
</g>
<!-- Node16 -->
<g id="node10" class="node">
<title>Node16</title>
<g id="a_node10"><a xlink:href="abi-default_2rwlock__recursive_8h.html" target="_top" xlink:title="ODP recursive read/write lock. ">
<polygon fill="#ffffff" stroke="#000000" points="550.5,-280.5 550.5,-299.5 658.5,-299.5 658.5,-280.5 550.5,-280.5"/>
<text text-anchor="middle" x="604.5" y="-287.5" font-family="Helvetica,sans-Serif" font-size="10.00" fill="#000000">rwlock_recursive.h</text>
</a>
</g>
</g>
<!-- Node8&#45;&gt;Node16 -->
<g id="edge9" class="edge">
<title>Node8&#45;&gt;Node16</title>
<path fill="none" stroke="#191970" d="M1387.3551,-344.7722C1267.0747,-341.2931 939.1142,-329.6302 667.5,-300 664.6376,-299.6877 661.7068,-299.3358 658.751,-298.9554"/>
<polygon fill="#191970" stroke="#191970" points="1387.5756,-348.2798 1397.6709,-345.0652 1387.7743,-341.2826 1387.5756,-348.2798"/>
</g>
<!-- Node17 -->
<g id="node11" class="node">
<title>Node17</title>
<g id="a_node11"><a xlink:href="abi-default_2schedule_8h.html" target="_top" xlink:title="ODP schedule. ">
<polygon fill="#ffffff" stroke="#000000" points="677,-280.5 677,-299.5 746,-299.5 746,-280.5 677,-280.5"/>
<text text-anchor="middle" x="711.5" y="-287.5" font-family="Helvetica,sans-Serif" font-size="10.00" fill="#000000">schedule.h</text>
</a>
</g>
</g>
<!-- Node8&#45;&gt;Node17 -->
<g id="edge10" class="edge">
<title>Node8&#45;&gt;Node17</title>
<path fill="none" stroke="#191970" d="M1387.7084,-345.3361C1277.1512,-343.2228 991.342,-334.5737 755.5,-300 752.5547,-299.5682 749.5143,-299.0443 746.4719,-298.4651"/>
<polygon fill="#191970" stroke="#191970" points="1387.7907,-348.8381 1397.8528,-345.5208 1387.9183,-341.8392 1387.7907,-348.8381"/>
</g>
<!-- Node18 -->
<g id="node12" class="node">
<title>Node18</title>
<g id="a_node12"><a xlink:href="abi-default_2spinlock__recursive_8h.html" target="_top" xlink:title="ODP recursive spinlock. ">
<polygon fill="#ffffff" stroke="#000000" points="764.5,-280.5 764.5,-299.5 880.5,-299.5 880.5,-280.5 764.5,-280.5"/>
<text text-anchor="middle" x="822.5" y="-287.5" font-family="Helvetica,sans-Serif" font-size="10.00" fill="#000000">spinlock_recursive.h</text>
</a>
</g>
</g>
<!-- Node8&#45;&gt;Node18 -->
<g id="edge11" class="edge">
<title>Node8&#45;&gt;Node18</title>
<path fill="none" stroke="#191970" d="M1387.6573,-343.0599C1293.2329,-336.9097 1073.3584,-321.4577 889.5,-300 886.5796,-299.6592 883.5907,-299.2895 880.5744,-298.9"/>
<polygon fill="#191970" stroke="#191970" points="1387.534,-346.5591 1397.7391,-343.7122 1387.986,-339.5738 1387.534,-346.5591"/>
</g>
<!-- Node19 -->
<g id="node13" class="node">
<title>Node19</title>
<g id="a_node13"><a xlink:href="abi-default_2traffic__mngr_8h.html" target="_top" xlink:title="ODP traffic mngr. ">
<polygon fill="#ffffff" stroke="#000000" points="898.5,-280.5 898.5,-299.5 982.5,-299.5 982.5,-280.5 898.5,-280.5"/>
<text text-anchor="middle" x="940.5" y="-287.5" font-family="Helvetica,sans-Serif" font-size="10.00" fill="#000000">traffic_mngr.h</text>
</a>
</g>
</g>
<!-- Node8&#45;&gt;Node19 -->
<g id="edge12" class="edge">
<title>Node8&#45;&gt;Node19</title>
<path fill="none" stroke="#191970" d="M1387.5302,-342.5229C1306.4558,-336.2089 1135.1272,-321.4933 991.5,-300 988.6445,-299.5727 985.706,-299.0959 982.7499,-298.5888"/>
<polygon fill="#191970" stroke="#191970" points="1387.6543,-346.0428 1397.8939,-343.3224 1388.1928,-339.0636 1387.6543,-346.0428"/>
</g>
<!-- Node20 -->
<g id="node14" class="node">
<title>Node20</title>
<g id="a_node14"><a xlink:href="barrier_8h.html" target="_top" xlink:title="ODP execution barriers. ">
<polygon fill="#ffffff" stroke="#000000" points="1001,-280.5 1001,-299.5 1058,-299.5 1058,-280.5 1001,-280.5"/>
<text text-anchor="middle" x="1029.5" y="-287.5" font-family="Helvetica,sans-Serif" font-size="10.00" fill="#000000">barrier.h</text>
</a>
</g>
</g>
<!-- Node8&#45;&gt;Node20 -->
<g id="edge13" class="edge">
<title>Node8&#45;&gt;Node20</title>
<path fill="none" stroke="#191970" d="M1387.6481,-342.2545C1317.4024,-336.164 1180.8241,-322.4803 1066.5,-300 1063.7578,-299.4608 1060.9195,-298.8293 1058.0904,-298.1504"/>
<polygon fill="#191970" stroke="#191970" points="1387.6682,-345.7689 1397.9298,-343.1326 1388.264,-338.7943 1387.6682,-345.7689"/>
</g>
<!-- Node21 -->
<g id="node15" class="node">
<title>Node21</title>
<g id="a_node15"><a xlink:href="buffer_8h.html" target="_top" xlink:title="ODP buffer descriptor. ">
<polygon fill="#ffffff" stroke="#000000" points="1076,-280.5 1076,-299.5 1129,-299.5 1129,-280.5 1076,-280.5"/>
<text text-anchor="middle" x="1102.5" y="-287.5" font-family="Helvetica,sans-Serif" font-size="10.00" fill="#000000">buffer.h</text>
</a>
</g>
</g>
<!-- Node8&#45;&gt;Node21 -->
<g id="edge14" class="edge">
<title>Node8&#45;&gt;Node21</title>
<path fill="none" stroke="#191970" d="M1387.6671,-339.8093C1329.9876,-331.9063 1229.128,-317.1799 1143.5,-300 1138.9025,-299.0776 1134.0413,-297.9914 1129.3355,-296.8809"/>
<polygon fill="#191970" stroke="#191970" points="1387.1963,-343.2774 1397.577,-341.1581 1388.1404,-336.3413 1387.1963,-343.2774"/>
</g>
<!-- Node22 -->
<g id="node16" class="node">
<title>Node22</title>
<g id="a_node16"><a xlink:href="classification_8h.html" target="_top" xlink:title="ODP classification descriptor. ">
<polygon fill="#ffffff" stroke="#000000" points="1190,-56.5 1190,-75.5 1279,-75.5 1279,-56.5 1190,-56.5"/>
<text text-anchor="middle" x="1234.5" y="-63.5" font-family="Helvetica,sans-Serif" font-size="10.00" fill="#000000">classification.h</text>
</a>
</g>
</g>
<!-- Node8&#45;&gt;Node22 -->
<g id="edge15" class="edge">
<title>Node8&#45;&gt;Node22</title>
<path fill="none" stroke="#191970" d="M1387.4323,-341.3137C1325.7946,-334.4787 1221.7777,-320.3359 1189.5,-300 1160.4585,-281.703 1085.353,-152.6592 1079.5,-132 1077.077,-123.4477 1074.1834,-119.1236 1079.5,-112 1092.8053,-94.1725 1149.0518,-80.787 1189.9659,-73.177"/>
<polygon fill="#191970" stroke="#191970" points="1387.3628,-344.8267 1397.6822,-342.4264 1388.1183,-337.8675 1387.3628,-344.8267"/>
</g>
<!-- Node25 -->
<g id="node18" class="node">
<title>Node25</title>
<g id="a_node18"><a xlink:href="crypto_8h.html" target="_top" xlink:title="ODP crypto. ">
<polygon fill="#ffffff" stroke="#000000" points="1317.5,-168.5 1317.5,-187.5 1373.5,-187.5 1373.5,-168.5 1317.5,-168.5"/>
<text text-anchor="middle" x="1345.5" y="-175.5" font-family="Helvetica,sans-Serif" font-size="10.00" fill="#000000">crypto.h</text>
</a>
</g>
</g>
<!-- Node8&#45;&gt;Node25 -->
<g id="edge17" class="edge">
<title>Node8&#45;&gt;Node25</title>
<path fill="none" stroke="#191970" d="M1441.5117,-326.4839C1447.6537,-311.8876 1457.8968,-292.3898 1472.5,-280 1510.1654,-248.0435 1599.7008,-262.2937 1568.5,-224 1544.2171,-194.1968 1428.1075,-183.1273 1373.7218,-179.5287"/>
<polygon fill="#191970" stroke="#191970" points="1438.1438,-325.4862 1437.7605,-336.0741 1444.6628,-328.0362 1438.1438,-325.4862"/>
</g>
<!-- Node26 -->
<g id="node19" class="node">
<title>Node26</title>
<g id="a_node19"><a xlink:href="packet_8h.html" target="_top" xlink:title="ODP packet descriptor. ">
<polygon fill="#ffffff" stroke="#000000" points="1328,-280.5 1328,-299.5 1387,-299.5 1387,-280.5 1328,-280.5"/>
<text text-anchor="middle" x="1357.5" y="-287.5" font-family="Helvetica,sans-Serif" font-size="10.00" fill="#000000">packet.h</text>
</a>
</g>
</g>
<!-- Node8&#45;&gt;Node26 -->
<g id="edge19" class="edge">
<title>Node8&#45;&gt;Node26</title>
<path fill="none" stroke="#191970" d="M1412.7884,-330.2097C1399.2647,-320.3743 1382.3042,-308.0394 1370.7587,-299.6427"/>
<polygon fill="#191970" stroke="#191970" points="1410.9416,-333.1944 1421.0876,-336.2455 1415.0589,-327.5332 1410.9416,-333.1944"/>
</g>
<!-- Node43 -->
<g id="node23" class="node">
<title>Node43</title>
<g id="a_node23"><a xlink:href="spec_2packet__flags_8h.html" target="_top" xlink:title="ODP packet flags. ">
<polygon fill="#ffffff" stroke="#ff0000" points="1473,-224.5 1473,-243.5 1560,-243.5 1560,-224.5 1473,-224.5"/>
<text text-anchor="middle" x="1516.5" y="-231.5" font-family="Helvetica,sans-Serif" font-size="10.00" fill="#000000">packet_flags.h</text>
</a>
</g>
</g>
<!-- Node8&#45;&gt;Node43 -->
<g id="edge44" class="edge">
<title>Node8&#45;&gt;Node43</title>
<path fill="none" stroke="#191970" d="M1431.4473,-326.1895C1430.3307,-312.2574 1431.0097,-293.7261 1439.5,-280 1450.3129,-262.5191 1470.4469,-250.8354 1487.4148,-243.6181"/>
<polygon fill="#191970" stroke="#191970" points="1427.9795,-326.6692 1432.613,-336.1971 1434.9325,-325.8593 1427.9795,-326.6692"/>
</g>
<!-- Node37 -->
<g id="node25" class="node">
<title>Node37</title>
<g id="a_node25"><a xlink:href="packet__io_8h.html" target="_top" xlink:title="ODP Packet IO. ">
<polygon fill="#ffffff" stroke="#000000" points="1165,-168.5 1165,-187.5 1238,-187.5 1238,-168.5 1165,-168.5"/>
<text text-anchor="middle" x="1201.5" y="-175.5" font-family="Helvetica,sans-Serif" font-size="10.00" fill="#000000">packet_io.h</text>
</a>
</g>
</g>
<!-- Node8&#45;&gt;Node37 -->
<g id="edge31" class="edge">
<title>Node8&#45;&gt;Node37</title>
<path fill="none" stroke="#191970" d="M1387.8813,-337.9074C1350.4316,-330.5386 1296.9408,-318.0379 1252.5,-300 1206.3748,-281.2785 1180.3904,-287.1103 1155.5,-244 1143.4185,-223.0748 1168.6732,-200.2904 1186.3193,-187.7158"/>
<polygon fill="#191970" stroke="#191970" points="1387.5171,-341.4014 1397.9978,-339.8501 1388.8373,-334.527 1387.5171,-341.4014"/>
</g>
<!-- Node39 -->
<g id="node27" class="node">
<title>Node39</title>
<g id="a_node27"><a xlink:href="spec_2traffic__mngr_8h.html" target="_top" xlink:title="traffic_mngr.h">
<polygon fill="#ffffff" stroke="#ff0000" points="1088.5,-112.5 1088.5,-131.5 1172.5,-131.5 1172.5,-112.5 1088.5,-112.5"/>
<text text-anchor="middle" x="1130.5" y="-119.5" font-family="Helvetica,sans-Serif" font-size="10.00" fill="#000000">traffic_mngr.h</text>
</a>
</g>
</g>
<!-- Node8&#45;&gt;Node39 -->
<g id="edge54" class="edge">
<title>Node8&#45;&gt;Node39</title>
<path fill="none" stroke="#191970" d="M1387.8813,-337.9074C1350.4316,-330.5386 1296.9408,-318.0379 1252.5,-300 1206.3748,-281.2785 1184.6127,-284.3792 1155.5,-244 1130.0847,-208.7491 1129.1676,-153.6438 1129.9467,-131.5928"/>
<polygon fill="#191970" stroke="#191970" points="1387.5171,-341.4014 1397.9978,-339.8501 1388.8373,-334.527 1387.5171,-341.4014"/>
</g>
<!-- Node45 -->
<g id="node28" class="node">
<title>Node45</title>
<g id="a_node28"><a xlink:href="proto__stats_8h.html" target="_top" xlink:title="ODP proto stats. ">
<polygon fill="#ffffff" stroke="#000000" points="1481.5,-280.5 1481.5,-299.5 1561.5,-299.5 1561.5,-280.5 1481.5,-280.5"/>
<text text-anchor="middle" x="1521.5" y="-287.5" font-family="Helvetica,sans-Serif" font-size="10.00" fill="#000000">proto_stats.h</text>
</a>
</g>
</g>
<!-- Node8&#45;&gt;Node45 -->
<g id="edge32" class="edge">
<title>Node8&#45;&gt;Node45</title>
<path fill="none" stroke="#191970" d="M1458.1625,-330.769C1473.5791,-320.8456 1493.226,-308.1994 1506.5194,-299.6427"/>
<polygon fill="#191970" stroke="#191970" points="1456.1685,-327.89 1449.6542,-336.2455 1459.9573,-333.7761 1456.1685,-327.89"/>
</g>
<!-- Node33 -->
<g id="node29" class="node">
<title>Node33</title>
<g id="a_node29"><a xlink:href="queue_8h.html" target="_top" xlink:title="ODP queue. ">
<polygon fill="#ffffff" stroke="#000000" points="1579.5,-280.5 1579.5,-299.5 1635.5,-299.5 1635.5,-280.5 1579.5,-280.5"/>
<text text-anchor="middle" x="1607.5" y="-287.5" font-family="Helvetica,sans-Serif" font-size="10.00" fill="#000000">queue.h</text>
</a>
</g>
</g>
<!-- Node8&#45;&gt;Node33 -->
<g id="edge33" class="edge">
<title>Node8&#45;&gt;Node33</title>
<path fill="none" stroke="#191970" d="M1473.7807,-333.2849C1505.9231,-322.8804 1550.6077,-308.416 1579.2939,-299.1303"/>
<polygon fill="#191970" stroke="#191970" points="1472.6758,-329.9636 1464.2398,-336.3733 1474.8316,-336.6234 1472.6758,-329.9636"/>
</g>
<!-- Node46 -->
<g id="node31" class="node">
<title>Node46</title>
<g id="a_node31"><a xlink:href="spec_2chksum_8h.html" target="_top" xlink:title="ODP checksum functions. ">
<polygon fill="#ffffff" stroke="#000000" points="1653.5,-280.5 1653.5,-299.5 1717.5,-299.5 1717.5,-280.5 1653.5,-280.5"/>
<text text-anchor="middle" x="1685.5" y="-287.5" font-family="Helvetica,sans-Serif" font-size="10.00" fill="#000000">chksum.h</text>
</a>
</g>
</g>
<!-- Node8&#45;&gt;Node46 -->
<g id="edge35" class="edge">
<title>Node8&#45;&gt;Node46</title>
<path fill="none" stroke="#191970" d="M1481.1606,-336.109C1523.7636,-326.9998 1588.4513,-312.972 1644.5,-300 1647.3552,-299.3392 1650.3192,-298.6407 1653.2881,-297.9325"/>
<polygon fill="#191970" stroke="#191970" points="1480.405,-332.6914 1471.356,-338.2019 1481.8663,-339.5371 1480.405,-332.6914"/>
</g>
<!-- Node48 -->
<g id="node33" class="node">
<title>Node48</title>
<g id="a_node33"><a xlink:href="spec_2cpu_8h.html" target="_top" xlink:title="ODP CPU API. ">
<polygon fill="#ffffff" stroke="#000000" points="1736,-280.5 1736,-299.5 1779,-299.5 1779,-280.5 1736,-280.5"/>
<text text-anchor="middle" x="1757.5" y="-287.5" font-family="Helvetica,sans-Serif" font-size="10.00" fill="#000000">cpu.h</text>
</a>
</g>
</g>
<!-- Node8&#45;&gt;Node48 -->
<g id="edge37" class="edge">
<title>Node8&#45;&gt;Node48</title>
<path fill="none" stroke="#191970" d="M1481.2415,-340.9142C1539.268,-334.0803 1641.0284,-320.3868 1726.5,-300 1729.5804,-299.2653 1732.7965,-298.3735 1735.9416,-297.4285"/>
<polygon fill="#191970" stroke="#191970" points="1480.8053,-337.4412 1471.2755,-342.0709 1481.6124,-344.3945 1480.8053,-337.4412"/>
</g>
<!-- Node51 -->
<g id="node35" class="node">
<title>Node51</title>
<g id="a_node35"><a xlink:href="spec_2feature_8h.html" target="_top" xlink:title="ODP features. ">
<polygon fill="#ffffff" stroke="#000000" points="1797,-280.5 1797,-299.5 1858,-299.5 1858,-280.5 1797,-280.5"/>
<text text-anchor="middle" x="1827.5" y="-287.5" font-family="Helvetica,sans-Serif" font-size="10.00" fill="#000000">feature.h</text>
</a>
</g>
</g>
<!-- Node8&#45;&gt;Node51 -->
<g id="edge39" class="edge">
<title>Node8&#45;&gt;Node51</title>
<path fill="none" stroke="#191970" d="M1481.4079,-341.6276C1549.292,-334.9066 1678.707,-320.6163 1787.5,-300 1790.4539,-299.4402 1793.5151,-298.795 1796.5691,-298.1074"/>
<polygon fill="#191970" stroke="#191970" points="1480.6653,-338.1834 1471.0538,-342.6411 1481.3472,-345.1501 1480.6653,-338.1834"/>
</g>
<!-- Node53 -->
<g id="node37" class="node">
<title>Node53</title>
<g id="a_node37"><a xlink:href="spec_2init_8h.html" target="_top" xlink:title="init.h">
<polygon fill="#ffffff" stroke="#ff0000" points="1919,-168.5 1919,-187.5 1960,-187.5 1960,-168.5 1919,-168.5"/>
<text text-anchor="middle" x="1939.5" y="-175.5" font-family="Helvetica,sans-Serif" font-size="10.00" fill="#000000">init.h</text>
</a>
</g>
</g>
<!-- Node8&#45;&gt;Node53 -->
<g id="edge43" class="edge">
<title>Node8&#45;&gt;Node53</title>
<path fill="none" stroke="#191970" d="M1481.1829,-343.8765C1577.8203,-339.019 1796.5967,-325.5018 1866.5,-300 1876.9512,-296.1872 1944.2778,-253.8231 1949.5,-244 1959.1834,-225.7854 1950.5662,-200.9921 1944.4162,-187.5747"/>
<polygon fill="#191970" stroke="#191970" points="1480.9341,-340.3844 1471.1188,-344.3731 1481.2792,-347.3759 1480.9341,-340.3844"/>
</g>
<!-- Node58 -->
<g id="node38" class="node">
<title>Node58</title>
<g id="a_node38"><a xlink:href="spec_2hash_8h.html" target="_top" xlink:title="ODP Hash functions. ">
<polygon fill="#ffffff" stroke="#ff0000" points="1915,-280.5 1915,-299.5 1964,-299.5 1964,-280.5 1915,-280.5"/>
<text text-anchor="middle" x="1939.5" y="-287.5" font-family="Helvetica,sans-Serif" font-size="10.00" fill="#000000">hash.h</text>
</a>
</g>
</g>
<!-- Node8&#45;&gt;Node58 -->
<g id="edge42" class="edge">
<title>Node8&#45;&gt;Node58</title>
<path fill="none" stroke="#191970" d="M1481.023,-343.7626C1565.2359,-339.1912 1748.3308,-326.8575 1900.5,-300 1905.1808,-299.1739 1910.1266,-298.081 1914.8664,-296.9215"/>
<polygon fill="#191970" stroke="#191970" points="1480.8114,-340.2689 1471.0112,-344.2946 1481.1829,-347.259 1480.8114,-340.2689"/>
</g>
<!-- Node60 -->
<g id="node39" class="node">
<title>Node60</title>
<g id="a_node39"><a xlink:href="spec_2pool_8h.html" target="_top" xlink:title="ODP pool. ">
<polygon fill="#ffffff" stroke="#ff0000" points="2018,-224.5 2018,-243.5 2065,-243.5 2065,-224.5 2018,-224.5"/>
<text text-anchor="middle" x="2041.5" y="-231.5" font-family="Helvetica,sans-Serif" font-size="10.00" fill="#000000">pool.h</text>
</a>
</g>
</g>
<!-- Node8&#45;&gt;Node60 -->
<g id="edge45" class="edge">
<title>Node8&#45;&gt;Node60</title>
<path fill="none" stroke="#191970" d="M1481.2837,-343.7813C1603.9189,-337.7147 1928.2951,-319.9658 1972.5,-300 2000.2976,-287.4448 2023.7817,-258.842 2034.7926,-243.7461"/>
<polygon fill="#191970" stroke="#191970" points="1480.9032,-340.2956 1471.0869,-344.2817 1481.2464,-347.2872 1480.9032,-340.2956"/>
</g>
<!-- Node63 -->
<g id="node40" class="node">
<title>Node63</title>
<g id="a_node40"><a xlink:href="pool__types_8h.html" target="_top" xlink:title="Type definitions for pools. ">
<polygon fill="#ffffff" stroke="#000000" points="2021,-280.5 2021,-299.5 2100,-299.5 2100,-280.5 2021,-280.5"/>
<text text-anchor="middle" x="2060.5" y="-287.5" font-family="Helvetica,sans-Serif" font-size="10.00" fill="#000000">pool_types.h</text>
</a>
</g>
</g>
<!-- Node8&#45;&gt;Node63 -->
<g id="edge46" class="edge">
<title>Node8&#45;&gt;Node63</title>
<path fill="none" stroke="#191970" d="M1481.2539,-343.8723C1579.0724,-339.0621 1812.3435,-325.7151 2006.5,-300 2011.1314,-299.3866 2015.9682,-298.6416 2020.7621,-297.838"/>
<polygon fill="#191970" stroke="#191970" points="1480.9279,-340.3839 1471.1092,-344.3643 1481.267,-347.3757 1480.9279,-340.3839"/>
</g>
<!-- Node64 -->
<g id="node41" class="node">
<title>Node64</title>
<g id="a_node41"><a xlink:href="spec_2proto__stats__types_8h.html" target="_top" xlink:title="ODP proto stats types. ">
<polygon fill="#ffffff" stroke="#ff0000" points="2118,-280.5 2118,-299.5 2231,-299.5 2231,-280.5 2118,-280.5"/>
<text text-anchor="middle" x="2174.5" y="-287.5" font-family="Helvetica,sans-Serif" font-size="10.00" fill="#000000">proto_stats_types.h</text>
</a>
</g>
</g>
<!-- Node8&#45;&gt;Node64 -->
<g id="edge48" class="edge">
<title>Node8&#45;&gt;Node64</title>
<path fill="none" stroke="#191970" d="M1481.2671,-344.177C1591.1485,-339.5964 1874.259,-326.0638 2109.5,-300 2112.2235,-299.6982 2115.0077,-299.3652 2117.8172,-299.0093"/>
<polygon fill="#191970" stroke="#191970" points="1481.029,-340.6838 1471.1816,-344.5925 1481.3172,-347.6778 1481.029,-340.6838"/>
</g>
<!-- Node41 -->
<g id="node42" class="node">
<title>Node41</title>
<g id="a_node42"><a xlink:href="spec_2schedule_8h.html" target="_top" xlink:title="ODP schedule. ">
<polygon fill="#ffffff" stroke="#ff0000" points="2249,-280.5 2249,-299.5 2318,-299.5 2318,-280.5 2249,-280.5"/>
<text text-anchor="middle" x="2283.5" y="-287.5" font-family="Helvetica,sans-Serif" font-size="10.00" fill="#000000">schedule.h</text>
</a>
</g>
</g>
<!-- Node8&#45;&gt;Node41 -->
<g id="edge49" class="edge">
<title>Node8&#45;&gt;Node41</title>
<path fill="none" stroke="#191970" d="M1481.2642,-344.3867C1630.1978,-339.0825 2092.3176,-321.2984 2240.5,-300 2243.2312,-299.6074 2246.0445,-299.1275 2248.8629,-298.5926"/>
<polygon fill="#191970" stroke="#191970" points="1480.9607,-340.8952 1471.0909,-344.7469 1481.2085,-347.8908 1480.9607,-340.8952"/>
</g>
<!-- Node70 -->
<g id="node43" class="node">
<title>Node70</title>
<g id="a_node43"><a xlink:href="spec_2stash_8h.html" target="_top" xlink:title="ODP stash. ">
<polygon fill="#ffffff" stroke="#ff0000" points="2336.5,-280.5 2336.5,-299.5 2388.5,-299.5 2388.5,-280.5 2336.5,-280.5"/>
<text text-anchor="middle" x="2362.5" y="-287.5" font-family="Helvetica,sans-Serif" font-size="10.00" fill="#000000">stash.h</text>
</a>
</g>
</g>
<!-- Node8&#45;&gt;Node70 -->
<g id="edge50" class="edge">
<title>Node8&#45;&gt;Node70</title>
<path fill="none" stroke="#191970" d="M1481.4402,-344.9868C1641.084,-341.3211 2162.2738,-327.4926 2327.5,-300 2330.3676,-299.5229 2333.3347,-298.8943 2336.2729,-298.1842"/>
<polygon fill="#191970" stroke="#191970" points="1480.9351,-341.4973 1471.0171,-345.2234 1481.094,-348.4955 1480.9351,-341.4973"/>
</g>
<!-- Node72 -->
<g id="node44" class="node">
<title>Node72</title>
<g id="a_node44"><a xlink:href="spec_2std_8h.html" target="_top" xlink:title="ODP standard types and optimized C library functions. ">
<polygon fill="#ffffff" stroke="#ff0000" points="2407,-280.5 2407,-299.5 2448,-299.5 2448,-280.5 2407,-280.5"/>
<text text-anchor="middle" x="2427.5" y="-287.5" font-family="Helvetica,sans-Serif" font-size="10.00" fill="#000000">std.h</text>
</a>
</g>
</g>
<!-- Node8&#45;&gt;Node72 -->
<g id="edge51" class="edge">
<title>Node8&#45;&gt;Node72</title>
<path fill="none" stroke="#191970" d="M1481.2393,-345.4593C1648.7573,-343.258 2218.6055,-333.4303 2397.5,-300 2400.5221,-299.4353 2403.6576,-298.6391 2406.7123,-297.7397"/>
<polygon fill="#191970" stroke="#191970" points="1480.9785,-341.9622 1471.0244,-345.5905 1481.0685,-348.9617 1480.9785,-341.9622"/>
</g>
<!-- Node74 -->
<g id="node45" class="node">
<title>Node74</title>
<g id="a_node45"><a xlink:href="spec_2threshold_8h.html" target="_top" xlink:title="ODP threshold descriptor. ">
<polygon fill="#ffffff" stroke="#ff0000" points="2466,-280.5 2466,-299.5 2537,-299.5 2537,-280.5 2466,-280.5"/>
<text text-anchor="middle" x="2501.5" y="-287.5" font-family="Helvetica,sans-Serif" font-size="10.00" fill="#000000">threshold.h</text>
</a>
</g>
</g>
<!-- Node8&#45;&gt;Node74 -->
<g id="edge52" class="edge">
<title>Node8&#45;&gt;Node74</title>
<path fill="none" stroke="#191970" d="M1481.1541,-345.0094C1654.9826,-341.1462 2264.8786,-326.0073 2457.5,-300 2460.1395,-299.6436 2462.854,-299.2055 2465.577,-298.7137"/>
<polygon fill="#191970" stroke="#191970" points="1480.9745,-341.5124 1471.0541,-345.232 1481.1289,-348.5107 1480.9745,-341.5124"/>
</g>
<!-- Node76 -->
<g id="node46" class="node">
<title>Node76</title>
<g id="a_node46"><a xlink:href="spec_2thrmask_8h.html" target="_top" xlink:title="ODP thread masks. ">
<polygon fill="#ffffff" stroke="#ff0000" points="2555.5,-280.5 2555.5,-299.5 2621.5,-299.5 2621.5,-280.5 2555.5,-280.5"/>
<text text-anchor="middle" x="2588.5" y="-287.5" font-family="Helvetica,sans-Serif" font-size="10.00" fill="#000000">thrmask.h</text>
</a>
</g>
</g>
<!-- Node8&#45;&gt;Node76 -->
<g id="edge53" class="edge">
<title>Node8&#45;&gt;Node76</title>
<path fill="none" stroke="#191970" d="M1481.2323,-345.2651C1664.6768,-342.1949 2335.7494,-329.1715 2546.5,-300 2549.3214,-299.6095 2552.2306,-299.1145 2555.1394,-298.5548"/>
<polygon fill="#191970" stroke="#191970" points="1481.0477,-341.7676 1471.1071,-345.4327 1481.1636,-348.7667 1481.0477,-341.7676"/>
</g>
<!-- Node78 -->
<g id="node47" class="node">
<title>Node78</title>
<g id="a_node47"><a xlink:href="system__info_8h.html" target="_top" xlink:title="ODP system information. ">
<polygon fill="#ffffff" stroke="#000000" points="2639.5,-280.5 2639.5,-299.5 2725.5,-299.5 2725.5,-280.5 2639.5,-280.5"/>
<text text-anchor="middle" x="2682.5" y="-287.5" font-family="Helvetica,sans-Serif" font-size="10.00" fill="#000000">system_info.h</text>
</a>
</g>
</g>
<!-- Node8&#45;&gt;Node78 -->
<g id="edge55" class="edge">
<title>Node8&#45;&gt;Node78</title>
<path fill="none" stroke="#191970" d="M1481.226,-345.1503C1673.194,-341.5128 2401.819,-326.2331 2630.5,-300 2633.4227,-299.6647 2636.4271,-299.257 2639.4473,-298.8002"/>
<polygon fill="#191970" stroke="#191970" points="1481.1138,-341.6517 1471.1815,-345.3392 1481.2456,-348.6504 1481.1138,-341.6517"/>
</g>
<!-- Node79 -->
<g id="node48" class="node">
<title>Node79</title>
<g id="a_node48"><a xlink:href="time_8h.html" target="_top" xlink:title="ODP time. ">
<polygon fill="#ffffff" stroke="#ff0000" points="1261.5,-280.5 1261.5,-299.5 1309.5,-299.5 1309.5,-280.5 1261.5,-280.5"/>
<text text-anchor="middle" x="1285.5" y="-287.5" font-family="Helvetica,sans-Serif" font-size="10.00" fill="#000000">time.h</text>
</a>
</g>
</g>
<!-- Node8&#45;&gt;Node79 -->
<g id="edge56" class="edge">
<title>Node8&#45;&gt;Node79</title>
<path fill="none" stroke="#191970" d="M1399.2272,-332.7431C1371.6623,-322.3832 1334.0737,-308.2559 1309.7931,-299.1303"/>
<polygon fill="#191970" stroke="#191970" points="1398.2939,-336.1313 1408.886,-336.3733 1400.7566,-329.5788 1398.2939,-336.1313"/>
</g>
<!-- Node80 -->
<g id="node49" class="node">
<title>Node80</title>
<g id="a_node49"><a xlink:href="timer_8h.html" target="_top" xlink:title="ODP timer service. ">
<polygon fill="#ffffff" stroke="#000000" points="2744,-280.5 2744,-299.5 2795,-299.5 2795,-280.5 2744,-280.5"/>
<text text-anchor="middle" x="2769.5" y="-287.5" font-family="Helvetica,sans-Serif" font-size="10.00" fill="#000000">timer.h</text>
</a>
</g>
</g>
<!-- Node8&#45;&gt;Node80 -->
<g id="edge58" class="edge">
<title>Node8&#45;&gt;Node80</title>
<path fill="none" stroke="#191970" d="M1481.3111,-345.8647C1683.862,-345.0454 2485.7728,-339.3321 2734.5,-300 2737.4961,-299.5262 2740.5992,-298.8785 2743.6638,-298.1388"/>
<polygon fill="#191970" stroke="#191970" points="1481.0074,-342.3657 1471.0209,-345.9041 1481.0343,-349.3657 1481.0074,-342.3657"/>
</g>
<!-- Node81 -->
<g id="node50" class="node">
<title>Node81</title>
<g id="a_node50"><a xlink:href="strong__types_8h.html" target="_top" xlink:title="ODP Strong Types. ">
<polygon fill="#ffffff" stroke="#000000" points="2813,-280.5 2813,-299.5 2902,-299.5 2902,-280.5 2813,-280.5"/>
<text text-anchor="middle" x="2857.5" y="-287.5" font-family="Helvetica,sans-Serif" font-size="10.00" fill="#000000">strong_types.h</text>
</a>
</g>
</g>
<!-- Node8&#45;&gt;Node81 -->
<g id="edge59" class="edge">
<title>Node8&#45;&gt;Node81</title>
<path fill="none" stroke="#191970" d="M1481.0353,-345.3941C1689.5973,-342.5318 2539.6093,-329.2629 2804.5,-300 2807.1991,-299.7018 2809.9668,-299.3429 2812.7529,-298.9408"/>
<polygon fill="#191970" stroke="#191970" points="1480.9784,-341.8945 1471.0269,-345.5302 1481.0736,-348.8938 1480.9784,-341.8945"/>
</g>
<!-- Node23 -->
<g id="node17" class="node">
<title>Node23</title>
<g id="a_node17"><a xlink:href="spec_2ipsec_8h.html" target="_top" xlink:title="ODP IPSEC API. ">
<polygon fill="#ffffff" stroke="#ff0000" points="1282,-.5 1282,-19.5 1333,-19.5 1333,-.5 1282,-.5"/>
<text text-anchor="middle" x="1307.5" y="-7.5" font-family="Helvetica,sans-Serif" font-size="10.00" fill="#000000">ipsec.h</text>
</a>
</g>
</g>
<!-- Node22&#45;&gt;Node23 -->
<g id="edge16" class="edge">
<title>Node22&#45;&gt;Node23</title>
<path fill="none" stroke="#191970" d="M1255.451,-49.928C1268.2107,-40.1397 1284.0885,-27.9595 1294.9301,-19.6427"/>
<polygon fill="#191970" stroke="#191970" points="1253.0196,-47.3819 1247.2156,-56.2455 1257.2803,-52.9359 1253.0196,-47.3819"/>
</g>
<!-- Node25&#45;&gt;Node23 -->
<g id="edge18" class="edge">
<title>Node25&#45;&gt;Node23</title>
<path fill="none" stroke="#191970" d="M1342.2736,-158.3964C1338.1439,-134.1808 1330.4441,-91.7973 1321.5,-56 1318.3433,-43.3658 1313.8351,-29.048 1310.7947,-19.79"/>
<polygon fill="#191970" stroke="#191970" points="1338.8516,-159.153 1343.9579,-168.4361 1345.7551,-157.9949 1338.8516,-159.153"/>
</g>
<!-- Node27 -->
<g id="node20" class="node">
<title>Node27</title>
<g id="a_node20"><a xlink:href="spec_2comp_8h.html" target="_top" xlink:title="ODP Compression. ">
<polygon fill="#ffffff" stroke="#ff0000" points="1331,-224.5 1331,-243.5 1384,-243.5 1384,-224.5 1331,-224.5"/>
<text text-anchor="middle" x="1357.5" y="-231.5" font-family="Helvetica,sans-Serif" font-size="10.00" fill="#000000">comp.h</text>
</a>
</g>
</g>
<!-- Node26&#45;&gt;Node27 -->
<g id="edge20" class="edge">
<title>Node26&#45;&gt;Node27</title>
<path fill="none" stroke="#191970" d="M1357.5,-270.1575C1357.5,-261.155 1357.5,-250.9199 1357.5,-243.6427"/>
<polygon fill="#191970" stroke="#191970" points="1354.0001,-270.2455 1357.5,-280.2455 1361.0001,-270.2456 1354.0001,-270.2455"/>
</g>
<!-- Node29 -->
<g id="node21" class="node">
<title>Node29</title>
<g id="a_node21"><a xlink:href="spec_2crypto_8h.html" target="_top" xlink:title="ODP crypto. ">
<polygon fill="#ffffff" stroke="#000000" points="1256.5,-224.5 1256.5,-243.5 1312.5,-243.5 1312.5,-224.5 1256.5,-224.5"/>
<text text-anchor="middle" x="1284.5" y="-231.5" font-family="Helvetica,sans-Serif" font-size="10.00" fill="#000000">crypto.h</text>
</a>
</g>
</g>
<!-- Node26&#45;&gt;Node29 -->
<g id="edge21" class="edge">
<title>Node26&#45;&gt;Node29</title>
<path fill="none" stroke="#191970" d="M1336.549,-273.928C1323.7893,-264.1397 1307.9115,-251.9595 1297.0699,-243.6427"/>
<polygon fill="#191970" stroke="#191970" points="1334.7197,-276.9359 1344.7844,-280.2455 1338.9804,-271.3819 1334.7197,-276.9359"/>
</g>
<!-- Node30 -->
<g id="node22" class="node">
<title>Node30</title>
<g id="a_node22"><a xlink:href="spec_2event_8h.html" target="_top" xlink:title="ODP event. ">
<polygon fill="#ffffff" stroke="#ff0000" points="1402,-224.5 1402,-243.5 1455,-243.5 1455,-224.5 1402,-224.5"/>
<text text-anchor="middle" x="1428.5" y="-231.5" font-family="Helvetica,sans-Serif" font-size="10.00" fill="#000000">event.h</text>
</a>
</g>
</g>
<!-- Node26&#45;&gt;Node30 -->
<g id="edge23" class="edge">
<title>Node26&#45;&gt;Node30</title>
<path fill="none" stroke="#191970" d="M1377.877,-273.928C1390.2871,-264.1397 1405.73,-251.9595 1416.2745,-243.6427"/>
<polygon fill="#191970" stroke="#191970" points="1375.5514,-271.3046 1369.8673,-280.2455 1379.8864,-276.8007 1375.5514,-271.3046"/>
</g>
<!-- Node26&#45;&gt;Node43 -->
<g id="edge24" class="edge">
<title>Node26&#45;&gt;Node43</title>
<path fill="none" stroke="#191970" d="M1394.629,-276.9231C1423.695,-266.686 1463.4369,-252.6889 1489.5236,-243.5011"/>
<polygon fill="#191970" stroke="#191970" points="1393.1025,-273.75 1384.8331,-280.3733 1395.4279,-280.3524 1393.1025,-273.75"/>
</g>
<!-- Node36 -->
<g id="node24" class="node">
<title>Node36</title>
<g id="a_node24"><a xlink:href="spec_2packet__io_8h.html" target="_top" xlink:title="ODP Packet IO. ">
<polygon fill="#ffffff" stroke="#000000" points="1165,-224.5 1165,-243.5 1238,-243.5 1238,-224.5 1165,-224.5"/>
<text text-anchor="middle" x="1201.5" y="-231.5" font-family="Helvetica,sans-Serif" font-size="10.00" fill="#000000">packet_io.h</text>
</a>
</g>
</g>
<!-- Node26&#45;&gt;Node36 -->
<g id="edge25" class="edge">
<title>Node26&#45;&gt;Node36</title>
<path fill="none" stroke="#191970" d="M1321.0716,-276.9231C1292.5539,-266.686 1253.5619,-252.6889 1227.9674,-243.5011"/>
<polygon fill="#191970" stroke="#191970" points="1320.0881,-280.2887 1330.6826,-280.3733 1322.4532,-273.7004 1320.0881,-280.2887"/>
</g>
<!-- Node29&#45;&gt;Node25 -->
<g id="edge22" class="edge">
<title>Node29&#45;&gt;Node25</title>
<path fill="none" stroke="#191970" d="M1302.6249,-217.3607C1313.178,-207.6727 1326.1112,-195.7995 1334.9964,-187.6427"/>
<polygon fill="#191970" stroke="#191970" points="1300.125,-214.9045 1295.1254,-224.2455 1304.8589,-220.0611 1300.125,-214.9045"/>
</g>
<!-- Node36&#45;&gt;Node37 -->
<g id="edge26" class="edge">
<title>Node36&#45;&gt;Node37</title>
<path fill="none" stroke="#191970" d="M1201.5,-214.1575C1201.5,-205.155 1201.5,-194.9199 1201.5,-187.6427"/>
<polygon fill="#191970" stroke="#191970" points="1198.0001,-214.2455 1201.5,-224.2455 1205.0001,-214.2456 1198.0001,-214.2455"/>
</g>
<!-- Node37&#45;&gt;Node23 -->
<g id="edge29" class="edge">
<title>Node37&#45;&gt;Node23</title>
<path fill="none" stroke="#191970" d="M1243.8997,-164.5324C1259.9417,-157.3507 1276.8751,-146.8493 1287.5,-132 1312.6038,-96.9149 1310.6162,-41.715 1308.6034,-19.6157"/>
<polygon fill="#191970" stroke="#191970" points="1242.5077,-161.3205 1234.6119,-168.3849 1245.1898,-167.7863 1242.5077,-161.3205"/>
</g>
<!-- Node38 -->
<g id="node26" class="node">
<title>Node38</title>
<g id="a_node26"><a xlink:href="spec_2classification_8h.html" target="_top" xlink:title="ODP classification descriptor. ">
<polygon fill="#ffffff" stroke="#000000" points="1190,-112.5 1190,-131.5 1279,-131.5 1279,-112.5 1190,-112.5"/>
<text text-anchor="middle" x="1234.5" y="-119.5" font-family="Helvetica,sans-Serif" font-size="10.00" fill="#000000">classification.h</text>
</a>
</g>
</g>
<!-- Node37&#45;&gt;Node38 -->
<g id="edge27" class="edge">
<title>Node37&#45;&gt;Node38</title>
<path fill="none" stroke="#191970" d="M1212.3254,-159.6296C1217.8299,-150.2887 1224.2937,-139.3197 1228.8177,-131.6427"/>
<polygon fill="#191970" stroke="#191970" points="1209.3097,-157.8532 1207.2482,-168.2455 1215.3405,-161.4071 1209.3097,-157.8532"/>
</g>
<!-- Node37&#45;&gt;Node39 -->
<g id="edge30" class="edge">
<title>Node37&#45;&gt;Node39</title>
<path fill="none" stroke="#191970" d="M1181.123,-161.928C1168.7129,-152.1397 1153.27,-139.9595 1142.7255,-131.6427"/>
<polygon fill="#191970" stroke="#191970" points="1179.1136,-164.8007 1189.1327,-168.2455 1183.4486,-159.3046 1179.1136,-164.8007"/>
</g>
<!-- Node38&#45;&gt;Node22 -->
<g id="edge28" class="edge">
<title>Node38&#45;&gt;Node22</title>
<path fill="none" stroke="#191970" d="M1234.5,-102.1575C1234.5,-93.155 1234.5,-82.9199 1234.5,-75.6427"/>
<polygon fill="#191970" stroke="#191970" points="1231.0001,-102.2455 1234.5,-112.2455 1238.0001,-102.2456 1231.0001,-102.2455"/>
</g>
<!-- Node34 -->
<g id="node30" class="node">
<title>Node34</title>
<g id="a_node30"><a xlink:href="spec_2packet__io__stats_8h.html" target="_top" xlink:title="ODP Packet IO statistics. ">
<polygon fill="#ffffff" stroke="#ff0000" points="1616.5,-224.5 1616.5,-243.5 1718.5,-243.5 1718.5,-224.5 1616.5,-224.5"/>
<text text-anchor="middle" x="1667.5" y="-231.5" font-family="Helvetica,sans-Serif" font-size="10.00" fill="#000000">packet_io_stats.h</text>
</a>
</g>
</g>
<!-- Node33&#45;&gt;Node34 -->
<g id="edge34" class="edge">
<title>Node33&#45;&gt;Node34</title>
<path fill="none" stroke="#191970" d="M1625.3278,-273.3607C1635.7078,-263.6727 1648.4291,-251.7995 1657.1686,-243.6427"/>
<polygon fill="#191970" stroke="#191970" points="1622.8737,-270.8636 1617.9512,-280.2455 1627.6499,-275.981 1622.8737,-270.8636"/>
</g>
<!-- Node47 -->
<g id="node32" class="node">
<title>Node47</title>
<g id="a_node32"><a xlink:href="chksum_8h.html" target="_top" xlink:title="ODP checksum functions. ">
<polygon fill="#ffffff" stroke="#000000" points="1736.5,-224.5 1736.5,-243.5 1800.5,-243.5 1800.5,-224.5 1736.5,-224.5"/>
<text text-anchor="middle" x="1768.5" y="-231.5" font-family="Helvetica,sans-Serif" font-size="10.00" fill="#000000">chksum.h</text>
</a>
</g>
</g>
<!-- Node46&#45;&gt;Node47 -->
<g id="edge36" class="edge">
<title>Node46&#45;&gt;Node47</title>
<path fill="none" stroke="#191970" d="M1708.488,-274.49C1723.1322,-264.6096 1741.6444,-252.1194 1754.2082,-243.6427"/>
<polygon fill="#191970" stroke="#191970" points="1706.2896,-271.7511 1699.9575,-280.2455 1710.2047,-277.5539 1706.2896,-271.7511"/>
</g>
<!-- Node49 -->
<g id="node34" class="node">
<title>Node49</title>
<g id="a_node34"><a xlink:href="cpu_8h.html" target="_top" xlink:title="ODP CPU. ">
<polygon fill="#ffffff" stroke="#ff0000" points="1819,-224.5 1819,-243.5 1862,-243.5 1862,-224.5 1819,-224.5"/>
<text text-anchor="middle" x="1840.5" y="-231.5" font-family="Helvetica,sans-Serif" font-size="10.00" fill="#000000">cpu.h</text>
</a>
</g>
</g>
<!-- Node48&#45;&gt;Node49 -->
<g id="edge38" class="edge">
<title>Node48&#45;&gt;Node49</title>
<path fill="none" stroke="#191970" d="M1780.488,-274.49C1795.1322,-264.6096 1813.6444,-252.1194 1826.2082,-243.6427"/>
<polygon fill="#191970" stroke="#191970" points="1778.2896,-271.7511 1771.9575,-280.2455 1782.2047,-277.5539 1778.2896,-271.7511"/>
</g>
<!-- Node52 -->
<g id="node36" class="node">
<title>Node52</title>
<g id="a_node36"><a xlink:href="feature_8h.html" target="_top" xlink:title="ODP features. ">
<polygon fill="#ffffff" stroke="#000000" points="1880,-224.5 1880,-243.5 1941,-243.5 1941,-224.5 1880,-224.5"/>
<text text-anchor="middle" x="1910.5" y="-231.5" font-family="Helvetica,sans-Serif" font-size="10.00" fill="#000000">feature.h</text>
</a>
</g>
</g>
<!-- Node51&#45;&gt;Node52 -->
<g id="edge40" class="edge">
<title>Node51&#45;&gt;Node52</title>
<path fill="none" stroke="#191970" d="M1850.488,-274.49C1865.1322,-264.6096 1883.6444,-252.1194 1896.2082,-243.6427"/>
<polygon fill="#191970" stroke="#191970" points="1848.2896,-271.7511 1841.9575,-280.2455 1852.2047,-277.5539 1848.2896,-271.7511"/>
</g>
<!-- Node52&#45;&gt;Node53 -->
<g id="edge41" class="edge">
<title>Node52&#45;&gt;Node53</title>
<path fill="none" stroke="#191970" d="M1920.1647,-215.3372C1924.9687,-206.0605 1930.5723,-195.2398 1934.5065,-187.6427"/>
<polygon fill="#191970" stroke="#191970" points="1917.042,-213.7561 1915.5514,-224.2455 1923.258,-216.9751 1917.042,-213.7561"/>
</g>
<!-- Node63&#45;&gt;Node60 -->
<g id="edge47" class="edge">
<title>Node63&#45;&gt;Node60</title>
<path fill="none" stroke="#191970" d="M2053.9685,-270.7493C2050.8664,-261.6064 2047.2949,-251.0798 2044.7716,-243.6427"/>
<polygon fill="#191970" stroke="#191970" points="2050.663,-271.9003 2057.1905,-280.2455 2057.2918,-269.6512 2050.663,-271.9003"/>
</g>
<!-- Node79&#45;&gt;Node36 -->
<g id="edge57" class="edge">
<title>Node79&#45;&gt;Node36</title>
<path fill="none" stroke="#191970" d="M1262.2351,-274.49C1247.4144,-264.6096 1228.6791,-252.1194 1215.964,-243.6427"/>
<polygon fill="#191970" stroke="#191970" points="1260.6063,-277.6107 1270.8683,-280.2455 1264.4893,-271.7863 1260.6063,-277.6107"/>
</g>
</g>
</svg>
