<?xml version="1.0" encoding="UTF-8" standalone="no"?>
<!DOCTYPE svg PUBLIC "-//W3C//DTD SVG 1.1//EN"
 "http://www.w3.org/Graphics/SVG/1.1/DTD/svg11.dtd">
<!-- Generated by graphviz version 2.40.1 (20161225.0304)
 -->
<!-- Title: schedule.h Pages: 1 -->
<svg width="1494pt" height="800pt"
 viewBox="0.00 0.00 1494.00 800.00" xmlns="http://www.w3.org/2000/svg" xmlns:xlink="http://www.w3.org/1999/xlink">
<g id="graph0" class="graph" transform="scale(1 1) rotate(0) translate(4 796)">
<title>schedule.h</title>
<polygon fill="#ffffff" stroke="transparent" points="-4,4 -4,-796 1490,-796 1490,4 -4,4"/>
<!-- Node0 -->
<g id="node1" class="node">
<title>Node0</title>
<polygon fill="#bfbfbf" stroke="#000000" points="1191.5,-772.5 1191.5,-791.5 1260.5,-791.5 1260.5,-772.5 1191.5,-772.5"/>
<text text-anchor="middle" x="1226" y="-779.5" font-family="Helvetica,sans-Serif" font-size="10.00" fill="#000000">schedule.h</text>
</g>
<!-- Node1 -->
<g id="node2" class="node">
<title>Node1</title>
<polygon fill="#ffffff" stroke="#bfbfbf" points="1197.5,-.5 1197.5,-19.5 1318.5,-19.5 1318.5,-.5 1197.5,-.5"/>
<text text-anchor="middle" x="1258" y="-7.5" font-family="Helvetica,sans-Serif" font-size="10.00" fill="#000000">odp/visibility_begin.h</text>
</g>
<!-- Node0&#45;&gt;Node1 -->
<g id="edge1" class="edge">
<title>Node0&#45;&gt;Node1</title>
<path fill="none" stroke="#191970" d="M1260.526,-774.7306C1331.2511,-758.8428 1486,-718.5345 1486,-670 1486,-670 1486,-670 1486,-122 1486,-84.3794 1464.5581,-76.4792 1433,-56 1401.9544,-35.8534 1362.4205,-24.5077 1328.7861,-18.1292"/>
<polygon fill="#191970" stroke="#191970" points="1329.0122,-14.6144 1318.5531,-16.3049 1327.7836,-21.5058 1329.0122,-14.6144"/>
</g>
<!-- Node2 -->
<g id="node3" class="node">
<title>Node2</title>
<g id="a_node3"><a xlink:href="std__types_8h.html" target="_top" xlink:title="Standard C language types and definitions for ODP. ">
<polygon fill="#ffffff" stroke="#000000" points="438,-235.5 438,-254.5 550,-254.5 550,-235.5 438,-235.5"/>
<text text-anchor="middle" x="494" y="-242.5" font-family="Helvetica,sans-Serif" font-size="10.00" fill="#000000">odp/api/std_types.h</text>
</a>
</g>
</g>
<!-- Node0&#45;&gt;Node2 -->
<g id="edge2" class="edge">
<title>Node0&#45;&gt;Node2</title>
<path fill="none" stroke="#191970" d="M1226,-772.4116C1226,-753.0538 1226,-707.9167 1226,-670 1226,-670 1226,-670 1226,-558 1226,-486.982 1161.9397,-495.619 1103,-456 1084.911,-443.8406 1084.1642,-435.3824 1065,-425 932.5153,-353.2254 874.9374,-392.9327 742,-322 722.4649,-311.5765 722.994,-300.5137 703,-291 657.9646,-269.5709 602.6924,-257.967 560.3021,-251.7765"/>
<polygon fill="#191970" stroke="#191970" points="560.7551,-248.3059 550.3673,-250.3897 559.7874,-255.2387 560.7551,-248.3059"/>
</g>
<!-- Node9 -->
<g id="node10" class="node">
<title>Node9</title>
<polygon fill="#ffffff" stroke="#bfbfbf" points="314,-.5 314,-19.5 426,-19.5 426,-.5 314,-.5"/>
<text text-anchor="middle" x="370" y="-7.5" font-family="Helvetica,sans-Serif" font-size="10.00" fill="#000000">odp/visibility_end.h</text>
</g>
<!-- Node0&#45;&gt;Node9 -->
<g id="edge73" class="edge">
<title>Node0&#45;&gt;Node9</title>
<path fill="none" stroke="#191970" d="M1191.2422,-781.0456C1044.878,-776.9073 478.1039,-759.6534 301,-736 165.2494,-717.8696 0,-806.956 0,-670 0,-670 0,-670 0,-122 0,-59.2584 197.3603,-28.4215 303.7981,-16.3531"/>
<polygon fill="#191970" stroke="#191970" points="304.2517,-19.8244 313.805,-15.2434 303.4801,-12.867 304.2517,-19.8244"/>
</g>
<!-- Node10 -->
<g id="node11" class="node">
<title>Node10</title>
<g id="a_node11"><a xlink:href="event_8h.html" target="_top" xlink:title="ODP event. ">
<polygon fill="#ffffff" stroke="#000000" points="518,-716.5 518,-735.5 610,-735.5 610,-716.5 518,-716.5"/>
<text text-anchor="middle" x="564" y="-723.5" font-family="Helvetica,sans-Serif" font-size="10.00" fill="#000000">odp/api/event.h</text>
</a>
</g>
</g>
<!-- Node0&#45;&gt;Node10 -->
<g id="edge13" class="edge">
<title>Node0&#45;&gt;Node10</title>
<path fill="none" stroke="#191970" d="M1191.3401,-779.068C1083.4783,-769.9438 753.0628,-741.9932 620.1964,-730.7538"/>
<polygon fill="#191970" stroke="#191970" points="620.4812,-727.2655 610.2218,-729.91 619.8911,-734.2405 620.4812,-727.2655"/>
</g>
<!-- Node28 -->
<g id="node29" class="node">
<title>Node28</title>
<g id="a_node29"><a xlink:href="queue__types_8h.html" target="_top" xlink:title="ODP queue. ">
<polygon fill="#ffffff" stroke="#000000" points="1106.5,-364 1106.5,-383 1233.5,-383 1233.5,-364 1106.5,-364"/>
<text text-anchor="middle" x="1170" y="-371" font-family="Helvetica,sans-Serif" font-size="10.00" fill="#000000">odp/api/queue_types.h</text>
</a>
</g>
</g>
<!-- Node0&#45;&gt;Node28 -->
<g id="edge65" class="edge">
<title>Node0&#45;&gt;Node28</title>
<path fill="none" stroke="#191970" d="M1231.607,-772.4834C1242.1774,-753.6141 1264,-709.8343 1264,-670 1264,-670 1264,-670 1264,-502 1264,-465.4311 1256.5585,-454.5384 1235,-425 1224.4487,-410.5431 1208.8175,-397.9828 1195.528,-388.886"/>
<polygon fill="#191970" stroke="#191970" points="1197.0752,-385.7154 1186.7929,-383.1609 1193.238,-391.57 1197.0752,-385.7154"/>
</g>
<!-- Node31 -->
<g id="node32" class="node">
<title>Node31</title>
<g id="a_node32"><a xlink:href="schedule__types_8h.html" target="_top" xlink:title="ODP schedule. ">
<polygon fill="#ffffff" stroke="#000000" points="1204,-235.5 1204,-254.5 1344,-254.5 1344,-235.5 1204,-235.5"/>
<text text-anchor="middle" x="1274" y="-242.5" font-family="Helvetica,sans-Serif" font-size="10.00" fill="#000000">odp/api/schedule_types.h</text>
</a>
</g>
</g>
<!-- Node0&#45;&gt;Node31 -->
<g id="edge66" class="edge">
<title>Node0&#45;&gt;Node31</title>
<path fill="none" stroke="#191970" d="M1260.8719,-773.0434C1305.7475,-759.172 1378,-727.8549 1378,-670 1378,-670 1378,-670 1378,-440.5 1378,-367.0947 1320.1457,-294.433 1290.7383,-262.2404"/>
<polygon fill="#191970" stroke="#191970" points="1292.9854,-259.5193 1283.5977,-254.6079 1287.8737,-264.3016 1292.9854,-259.5193"/>
</g>
<!-- Node38 -->
<g id="node39" class="node">
<title>Node38</title>
<g id="a_node39"><a xlink:href="thrmask_8h.html" target="_top" xlink:title="ODP thread masks. ">
<polygon fill="#ffffff" stroke="#000000" points="37.5,-364 37.5,-383 142.5,-383 142.5,-364 37.5,-364"/>
<text text-anchor="middle" x="90" y="-371" font-family="Helvetica,sans-Serif" font-size="10.00" fill="#000000">odp/api/thrmask.h</text>
</a>
</g>
</g>
<!-- Node0&#45;&gt;Node38 -->
<g id="edge67" class="edge">
<title>Node0&#45;&gt;Node38</title>
<path fill="none" stroke="#191970" d="M1191.2596,-780.4536C1000.205,-771.7264 86,-726.9886 86,-670 86,-670 86,-670 86,-502 86,-463.4826 87.8177,-418.5023 89.0024,-393.2753"/>
<polygon fill="#191970" stroke="#191970" points="92.5039,-393.3268 89.4934,-383.1687 85.5122,-392.987 92.5039,-393.3268"/>
</g>
<!-- Node3 -->
<g id="node4" class="node">
<title>Node3</title>
<polygon fill="#ffffff" stroke="#bfbfbf" points="542,-174 542,-193 672,-193 672,-174 542,-174"/>
<text text-anchor="middle" x="607" y="-181" font-family="Helvetica,sans-Serif" font-size="10.00" fill="#000000">odp/api/abi/std_types.h</text>
</g>
<!-- Node2&#45;&gt;Node3 -->
<g id="edge3" class="edge">
<title>Node2&#45;&gt;Node3</title>
<path fill="none" stroke="#191970" d="M511.6563,-235.3906C530.1486,-225.3262 559.401,-209.4057 580.6308,-197.8514"/>
<polygon fill="#191970" stroke="#191970" points="582.3575,-200.8965 589.4677,-193.0419 579.0112,-194.7481 582.3575,-200.8965"/>
</g>
<!-- Node4 -->
<g id="node5" class="node">
<title>Node4</title>
<g id="a_node5"><a xlink:href="spec_2std__types_8h.html" target="_top" xlink:title="Standard C language types and definitions for ODP. ">
<polygon fill="#ffffff" stroke="#000000" points="348.5,-174 348.5,-193 485.5,-193 485.5,-174 348.5,-174"/>
<text text-anchor="middle" x="417" y="-181" font-family="Helvetica,sans-Serif" font-size="10.00" fill="#000000">odp/api/spec/std_types.h</text>
</a>
</g>
</g>
<!-- Node2&#45;&gt;Node4 -->
<g id="edge4" class="edge">
<title>Node2&#45;&gt;Node4</title>
<path fill="none" stroke="#191970" d="M481.9688,-235.3906C469.9893,-225.8227 451.3834,-210.9621 437.1475,-199.5919"/>
<polygon fill="#191970" stroke="#191970" points="438.9447,-196.5479 428.9468,-193.0419 434.5761,-202.0175 438.9447,-196.5479"/>
</g>
<!-- Node4&#45;&gt;Node1 -->
<g id="edge5" class="edge">
<title>Node4&#45;&gt;Node1</title>
<path fill="none" stroke="#191970" d="M466.0888,-173.94C477.2214,-171.8814 489.0038,-169.7887 500,-168 573.4077,-156.0592 1093.7288,-103.0699 1163,-76 1192.5776,-64.4417 1221.8612,-41.9814 1239.9294,-26.4967"/>
<polygon fill="#191970" stroke="#191970" points="1242.6505,-28.7648 1247.8505,-19.5338 1238.029,-23.5072 1242.6505,-28.7648"/>
</g>
<!-- Node5 -->
<g id="node6" class="node">
<title>Node5</title>
<polygon fill="#ffffff" stroke="#bfbfbf" points="373.5,-112.5 373.5,-131.5 426.5,-131.5 426.5,-112.5 373.5,-112.5"/>
<text text-anchor="middle" x="400" y="-119.5" font-family="Helvetica,sans-Serif" font-size="10.00" fill="#000000">stdint.h</text>
</g>
<!-- Node4&#45;&gt;Node5 -->
<g id="edge6" class="edge">
<title>Node4&#45;&gt;Node5</title>
<path fill="none" stroke="#191970" d="M414.3438,-173.8906C411.9625,-165.276 408.3952,-152.3708 405.414,-141.5858"/>
<polygon fill="#191970" stroke="#191970" points="408.7316,-140.4509 402.6937,-131.7449 401.9846,-142.3159 408.7316,-140.4509"/>
</g>
<!-- Node6 -->
<g id="node7" class="node">
<title>Node6</title>
<g id="a_node7"><a xlink:href="align_8h.html" target="_top" xlink:title="ODP alignments. ">
<polygon fill="#ffffff" stroke="#000000" points="483.5,-112.5 483.5,-131.5 572.5,-131.5 572.5,-112.5 483.5,-112.5"/>
<text text-anchor="middle" x="528" y="-119.5" font-family="Helvetica,sans-Serif" font-size="10.00" fill="#000000">odp/api/align.h</text>
</a>
</g>
</g>
<!-- Node4&#45;&gt;Node6 -->
<g id="edge7" class="edge">
<title>Node4&#45;&gt;Node6</title>
<path fill="none" stroke="#191970" d="M434.3438,-173.8906C452.4273,-163.8713 480.9859,-148.0483 501.8165,-136.5071"/>
<polygon fill="#191970" stroke="#191970" points="503.7271,-139.4498 510.778,-131.5419 500.3346,-133.3268 503.7271,-139.4498"/>
</g>
<!-- Node4&#45;&gt;Node9 -->
<g id="edge12" class="edge">
<title>Node4&#45;&gt;Node9</title>
<path fill="none" stroke="#191970" d="M402.7317,-173.8739C390.3216,-164.6683 372.9627,-149.6083 364,-132 348.593,-101.7311 351.001,-89.5945 356,-56 357.3327,-47.0439 360.0494,-37.419 362.7381,-29.3"/>
<polygon fill="#191970" stroke="#191970" points="366.1067,-30.272 366.1376,-19.6772 359.5064,-27.9402 366.1067,-30.272"/>
</g>
<!-- Node7 -->
<g id="node8" class="node">
<title>Node7</title>
<polygon fill="#ffffff" stroke="#bfbfbf" points="398.5,-56.5 398.5,-75.5 505.5,-75.5 505.5,-56.5 398.5,-56.5"/>
<text text-anchor="middle" x="452" y="-63.5" font-family="Helvetica,sans-Serif" font-size="10.00" fill="#000000">odp/api/abi/align.h</text>
</g>
<!-- Node6&#45;&gt;Node7 -->
<g id="edge8" class="edge">
<title>Node6&#45;&gt;Node7</title>
<path fill="none" stroke="#191970" d="M514.7618,-112.2455C503.319,-103.814 486.5704,-91.4729 473.2525,-81.6598"/>
<polygon fill="#191970" stroke="#191970" points="475.2133,-78.757 465.0865,-75.6427 471.0609,-84.3924 475.2133,-78.757"/>
</g>
<!-- Node8 -->
<g id="node9" class="node">
<title>Node8</title>
<g id="a_node9"><a xlink:href="spec_2align_8h.html" target="_top" xlink:title="ODP alignments. ">
<polygon fill="#ffffff" stroke="#000000" points="524,-56.5 524,-75.5 638,-75.5 638,-56.5 524,-56.5"/>
<text text-anchor="middle" x="581" y="-63.5" font-family="Helvetica,sans-Serif" font-size="10.00" fill="#000000">odp/api/spec/align.h</text>
</a>
</g>
</g>
<!-- Node6&#45;&gt;Node8 -->
<g id="edge9" class="edge">
<title>Node6&#45;&gt;Node8</title>
<path fill="none" stroke="#191970" d="M537.2319,-112.2455C544.8317,-104.2155 555.7877,-92.6394 564.8368,-83.0781"/>
<polygon fill="#191970" stroke="#191970" points="567.5421,-85.3115 571.8739,-75.6427 562.458,-80.4998 567.5421,-85.3115"/>
</g>
<!-- Node8&#45;&gt;Node1 -->
<g id="edge10" class="edge">
<title>Node8&#45;&gt;Node1</title>
<path fill="none" stroke="#191970" d="M638.1372,-61.2737C761.4797,-51.0711 1052.3972,-27.007 1187.1765,-15.8584"/>
<polygon fill="#191970" stroke="#191970" points="1187.7094,-19.3263 1197.3868,-15.0138 1187.1322,-12.3502 1187.7094,-19.3263"/>
</g>
<!-- Node8&#45;&gt;Node9 -->
<g id="edge11" class="edge">
<title>Node8&#45;&gt;Node9</title>
<path fill="none" stroke="#191970" d="M544.7278,-56.3733C509.0342,-46.9001 454.4121,-32.4032 415.7549,-22.1435"/>
<polygon fill="#191970" stroke="#191970" points="416.3621,-18.6835 405.7989,-19.5011 414.5664,-25.4493 416.3621,-18.6835"/>
</g>
<!-- Node11 -->
<g id="node12" class="node">
<title>Node11</title>
<polygon fill="#ffffff" stroke="#bfbfbf" points="114,-548.5 114,-567.5 224,-567.5 224,-548.5 114,-548.5"/>
<text text-anchor="middle" x="169" y="-555.5" font-family="Helvetica,sans-Serif" font-size="10.00" fill="#000000">odp/api/abi/event.h</text>
</g>
<!-- Node10&#45;&gt;Node11 -->
<g id="edge14" class="edge">
<title>Node10&#45;&gt;Node11</title>
<path fill="none" stroke="#191970" d="M517.7984,-718.4607C452.0328,-706.2476 329.2886,-677.8815 238,-624 216.2808,-611.1806 196.0068,-590.2877 183.1313,-575.4451"/>
<polygon fill="#191970" stroke="#191970" points="185.569,-572.9063 176.4503,-567.512 180.2148,-577.4155 185.569,-572.9063"/>
</g>
<!-- Node12 -->
<g id="node13" class="node">
<title>Node12</title>
<g id="a_node13"><a xlink:href="spec_2event_8h.html" target="_top" xlink:title="ODP event. ">
<polygon fill="#ffffff" stroke="#000000" points="505,-660.5 505,-679.5 623,-679.5 623,-660.5 505,-660.5"/>
<text text-anchor="middle" x="564" y="-667.5" font-family="Helvetica,sans-Serif" font-size="10.00" fill="#000000">odp/api/spec/event.h</text>
</a>
</g>
</g>
<!-- Node10&#45;&gt;Node12 -->
<g id="edge15" class="edge">
<title>Node10&#45;&gt;Node12</title>
<path fill="none" stroke="#191970" d="M564,-716.2455C564,-708.9382 564,-698.6944 564,-689.7046"/>
<polygon fill="#191970" stroke="#191970" points="567.5001,-689.6426 564,-679.6427 560.5001,-689.6427 567.5001,-689.6426"/>
</g>
<!-- Node12&#45;&gt;Node1 -->
<g id="edge16" class="edge">
<title>Node12&#45;&gt;Node1</title>
<path fill="none" stroke="#191970" d="M623.2695,-665.4294C740.1262,-654.3033 1005.6721,-618.4071 1199,-512 1341.1525,-433.7597 1448,-407.2618 1448,-245 1448,-245 1448,-245 1448,-122 1448,-64.2347 1382.0182,-35.6568 1327.8206,-21.9265"/>
<polygon fill="#191970" stroke="#191970" points="1328.3974,-18.4656 1317.8564,-19.5319 1326.7617,-25.2718 1328.3974,-18.4656"/>
</g>
<!-- Node12&#45;&gt;Node9 -->
<g id="edge64" class="edge">
<title>Node12&#45;&gt;Node9</title>
<path fill="none" stroke="#191970" d="M504.909,-662.9307C443.2795,-652.5291 347.7634,-627.4116 290,-568 184.2847,-459.2682 180,-396.652 180,-245 180,-245 180,-245 180,-122 180,-62.973 248.8954,-34.4224 303.7129,-21.048"/>
<polygon fill="#191970" stroke="#191970" points="304.8107,-24.3866 313.7649,-18.7234 303.2334,-17.5666 304.8107,-24.3866"/>
</g>
<!-- Node13 -->
<g id="node14" class="node">
<title>Node13</title>
<g id="a_node14"><a xlink:href="packet_8h.html" target="_top" xlink:title="ODP packet descriptor. ">
<polygon fill="#ffffff" stroke="#000000" points="515,-604.5 515,-623.5 613,-623.5 613,-604.5 515,-604.5"/>
<text text-anchor="middle" x="564" y="-611.5" font-family="Helvetica,sans-Serif" font-size="10.00" fill="#000000">odp/api/packet.h</text>
</a>
</g>
</g>
<!-- Node12&#45;&gt;Node13 -->
<g id="edge17" class="edge">
<title>Node12&#45;&gt;Node13</title>
<path fill="none" stroke="#191970" d="M564,-660.2455C564,-652.9382 564,-642.6944 564,-633.7046"/>
<polygon fill="#191970" stroke="#191970" points="567.5001,-633.6426 564,-623.6427 560.5001,-633.6427 567.5001,-633.6426"/>
</g>
<!-- Node13&#45;&gt;Node2 -->
<g id="edge18" class="edge">
<title>Node13&#45;&gt;Node2</title>
<path fill="none" stroke="#191970" d="M514.855,-611.2047C449.4498,-606.4911 338.5893,-594.7199 309,-568 286.3453,-547.5422 290,-532.5246 290,-502 290,-502 290,-502 290,-440.5 290,-390.7664 417.984,-297.1663 471.2078,-260.3918"/>
<polygon fill="#191970" stroke="#191970" points="473.3871,-263.1412 479.6551,-254.5994 469.4284,-257.3681 473.3871,-263.1412"/>
</g>
<!-- Node13&#45;&gt;Node11 -->
<g id="edge19" class="edge">
<title>Node13&#45;&gt;Node11</title>
<path fill="none" stroke="#191970" d="M514.7716,-607.0208C444.0139,-596.9893 313.4201,-578.4748 234.5564,-567.2941"/>
<polygon fill="#191970" stroke="#191970" points="234.6491,-563.7723 224.2568,-565.8339 233.6665,-570.703 234.6491,-563.7723"/>
</g>
<!-- Node14 -->
<g id="node15" class="node">
<title>Node14</title>
<polygon fill="#ffffff" stroke="#bfbfbf" points="710,-548.5 710,-567.5 840,-567.5 840,-548.5 710,-548.5"/>
<text text-anchor="middle" x="775" y="-555.5" font-family="Helvetica,sans-Serif" font-size="10.00" fill="#000000">odp/api/abi/packet_io.h</text>
</g>
<!-- Node13&#45;&gt;Node14 -->
<g id="edge20" class="edge">
<title>Node13&#45;&gt;Node14</title>
<path fill="none" stroke="#191970" d="M600.2722,-604.3733C635.9658,-594.9001 690.5879,-580.4032 729.2451,-570.1435"/>
<polygon fill="#191970" stroke="#191970" points="730.4336,-573.4493 739.2011,-567.5011 728.6379,-566.6835 730.4336,-573.4493"/>
</g>
<!-- Node15 -->
<g id="node16" class="node">
<title>Node15</title>
<polygon fill="#ffffff" stroke="#bfbfbf" points="948.5,-425.5 948.5,-455.5 1055.5,-455.5 1055.5,-425.5 948.5,-425.5"/>
<text text-anchor="start" x="956.5" y="-443.5" font-family="Helvetica,sans-Serif" font-size="10.00" fill="#000000">odp/api/abi/packet</text>
<text text-anchor="middle" x="1002" y="-432.5" font-family="Helvetica,sans-Serif" font-size="10.00" fill="#000000">_types.h</text>
</g>
<!-- Node13&#45;&gt;Node15 -->
<g id="edge21" class="edge">
<title>Node13&#45;&gt;Node15</title>
<path fill="none" stroke="#191970" d="M613.1647,-611.9283C718.1307,-607.0368 956.7645,-593.2423 983,-568 1010.1707,-541.858 1009.8078,-494.903 1006.3837,-465.852"/>
<polygon fill="#191970" stroke="#191970" points="1009.813,-465.0998 1004.9726,-455.6753 1002.8793,-466.0613 1009.813,-465.0998"/>
</g>
<!-- Node16 -->
<g id="node17" class="node">
<title>Node16</title>
<polygon fill="#ffffff" stroke="#bfbfbf" points="858,-548.5 858,-567.5 974,-567.5 974,-548.5 858,-548.5"/>
<text text-anchor="middle" x="916" y="-555.5" font-family="Helvetica,sans-Serif" font-size="10.00" fill="#000000">odp/api/abi/packet.h</text>
</g>
<!-- Node13&#45;&gt;Node16 -->
<g id="edge22" class="edge">
<title>Node13&#45;&gt;Node16</title>
<path fill="none" stroke="#191970" d="M613.3147,-606.1545C674.5403,-596.414 779.2775,-579.7513 848.072,-568.8067"/>
<polygon fill="#191970" stroke="#191970" points="848.6259,-572.2627 857.9518,-567.2349 847.5261,-565.3496 848.6259,-572.2627"/>
</g>
<!-- Node17 -->
<g id="node18" class="node">
<title>Node17</title>
<polygon fill="#ffffff" stroke="#bfbfbf" points="318,-548.5 318,-567.5 428,-567.5 428,-548.5 318,-548.5"/>
<text text-anchor="middle" x="373" y="-555.5" font-family="Helvetica,sans-Serif" font-size="10.00" fill="#000000">odp/api/abi/buffer.h</text>
</g>
<!-- Node13&#45;&gt;Node17 -->
<g id="edge23" class="edge">
<title>Node13&#45;&gt;Node17</title>
<path fill="none" stroke="#191970" d="M531.1659,-604.3733C499.1305,-594.9807 450.2513,-580.6496 415.3145,-570.4064"/>
<polygon fill="#191970" stroke="#191970" points="415.9864,-566.9561 405.4056,-567.5011 414.0169,-573.6733 415.9864,-566.9561"/>
</g>
<!-- Node18 -->
<g id="node19" class="node">
<title>Node18</title>
<polygon fill="#ffffff" stroke="#bfbfbf" points="446,-548.5 446,-567.5 550,-567.5 550,-548.5 446,-548.5"/>
<text text-anchor="middle" x="498" y="-555.5" font-family="Helvetica,sans-Serif" font-size="10.00" fill="#000000">odp/api/abi/pool.h</text>
</g>
<!-- Node13&#45;&gt;Node18 -->
<g id="edge24" class="edge">
<title>Node13&#45;&gt;Node18</title>
<path fill="none" stroke="#191970" d="M552.5037,-604.2455C542.7558,-595.9746 528.5741,-583.9416 517.1202,-574.2232"/>
<polygon fill="#191970" stroke="#191970" points="519.2541,-571.4437 509.3646,-567.6427 514.7253,-576.7813 519.2541,-571.4437"/>
</g>
<!-- Node19 -->
<g id="node20" class="node">
<title>Node19</title>
<g id="a_node20"><a xlink:href="spec_2packet_8h.html" target="_top" xlink:title="ODP packet descriptor. ">
<polygon fill="#ffffff" stroke="#000000" points="568.5,-548.5 568.5,-567.5 691.5,-567.5 691.5,-548.5 568.5,-548.5"/>
<text text-anchor="middle" x="630" y="-555.5" font-family="Helvetica,sans-Serif" font-size="10.00" fill="#000000">odp/api/spec/packet.h</text>
</a>
</g>
</g>
<!-- Node13&#45;&gt;Node19 -->
<g id="edge25" class="edge">
<title>Node13&#45;&gt;Node19</title>
<path fill="none" stroke="#191970" d="M575.4963,-604.2455C585.2442,-595.9746 599.4259,-583.9416 610.8798,-574.2232"/>
<polygon fill="#191970" stroke="#191970" points="613.2747,-576.7813 618.6354,-567.6427 608.7459,-571.4437 613.2747,-576.7813"/>
</g>
<!-- Node19&#45;&gt;Node1 -->
<g id="edge26" class="edge">
<title>Node19&#45;&gt;Node1</title>
<path fill="none" stroke="#191970" d="M691.5439,-549.0895C694.7396,-548.7027 697.9062,-548.3365 701,-548 804.6956,-536.7206 1072.5329,-551.675 1169,-512 1204.578,-497.3675 1207.9509,-483.3541 1235,-456 1245.7082,-445.1711 1410,-260.2293 1410,-245 1410,-245 1410,-245 1410,-122 1410,-68.8635 1349.0521,-38.1127 1304.3436,-22.7035"/>
<polygon fill="#191970" stroke="#191970" points="1305.388,-19.3626 1294.795,-19.5566 1303.1969,-26.0108 1305.388,-19.3626"/>
</g>
<!-- Node19&#45;&gt;Node9 -->
<g id="edge63" class="edge">
<title>Node19&#45;&gt;Node9</title>
<path fill="none" stroke="#191970" d="M590.4957,-548.4252C487.3754,-520.8286 218,-430.9442 218,-245 218,-245 218,-245 218,-122 218,-68.8635 278.9479,-38.1127 323.6564,-22.7035"/>
<polygon fill="#191970" stroke="#191970" points="324.8031,-26.0108 333.205,-19.5566 322.612,-19.3626 324.8031,-26.0108"/>
</g>
<!-- Node20 -->
<g id="node21" class="node">
<title>Node20</title>
<g id="a_node21"><a xlink:href="proto__stats__types_8h.html" target="_top" xlink:title="ODP proto stats types. ">
<polygon fill="#ffffff" stroke="#000000" points="575,-358.5 575,-388.5 685,-388.5 685,-358.5 575,-358.5"/>
<text text-anchor="start" x="583" y="-376.5" font-family="Helvetica,sans-Serif" font-size="10.00" fill="#000000">odp/api/proto_stats</text>
<text text-anchor="middle" x="630" y="-365.5" font-family="Helvetica,sans-Serif" font-size="10.00" fill="#000000">_types.h</text>
</a>
</g>
</g>
<!-- Node19&#45;&gt;Node20 -->
<g id="edge27" class="edge">
<title>Node19&#45;&gt;Node20</title>
<path fill="none" stroke="#191970" d="M630,-548.3402C630,-520.6387 630,-440.2663 630,-398.8429"/>
<polygon fill="#191970" stroke="#191970" points="633.5001,-398.7363 630,-388.7363 626.5001,-398.7364 633.5001,-398.7363"/>
</g>
<!-- Node23 -->
<g id="node24" class="node">
<title>Node23</title>
<g id="a_node24"><a xlink:href="time_8h.html" target="_top" xlink:title="ODP time. ">
<polygon fill="#ffffff" stroke="#000000" points="750.5,-297 750.5,-316 837.5,-316 837.5,-297 750.5,-297"/>
<text text-anchor="middle" x="794" y="-304" font-family="Helvetica,sans-Serif" font-size="10.00" fill="#000000">odp/api/time.h</text>
</a>
</g>
</g>
<!-- Node19&#45;&gt;Node23 -->
<g id="edge33" class="edge">
<title>Node19&#45;&gt;Node23</title>
<path fill="none" stroke="#191970" d="M636.2287,-548.448C660.6338,-511.0219 749.988,-373.994 782.2677,-324.4919"/>
<polygon fill="#191970" stroke="#191970" points="785.2346,-326.3497 787.7651,-316.0615 779.3711,-322.5262 785.2346,-326.3497"/>
</g>
<!-- Node26 -->
<g id="node27" class="node">
<title>Node26</title>
<g id="a_node27"><a xlink:href="packet__types_8h.html" target="_top" xlink:title="ODP packet. ">
<polygon fill="#ffffff" stroke="#000000" points="1030,-492.5 1030,-511.5 1160,-511.5 1160,-492.5 1030,-492.5"/>
<text text-anchor="middle" x="1095" y="-499.5" font-family="Helvetica,sans-Serif" font-size="10.00" fill="#000000">odp/api/packet_types.h</text>
</a>
</g>
</g>
<!-- Node19&#45;&gt;Node26 -->
<g id="edge39" class="edge">
<title>Node19&#45;&gt;Node26</title>
<path fill="none" stroke="#191970" d="M691.5616,-549.2384C694.7527,-548.8127 697.9135,-548.3975 701,-548 811.6361,-533.7523 940.002,-519.1187 1019.3694,-510.2914"/>
<polygon fill="#191970" stroke="#191970" points="1020.2047,-513.7203 1029.7574,-509.1381 1019.4322,-506.763 1020.2047,-513.7203"/>
</g>
<!-- Node21 -->
<g id="node22" class="node">
<title>Node21</title>
<polygon fill="#ffffff" stroke="#bfbfbf" points="566,-291.5 566,-321.5 694,-321.5 694,-291.5 566,-291.5"/>
<text text-anchor="start" x="574" y="-309.5" font-family="Helvetica,sans-Serif" font-size="10.00" fill="#000000">odp/api/abi/proto_stats</text>
<text text-anchor="middle" x="630" y="-298.5" font-family="Helvetica,sans-Serif" font-size="10.00" fill="#000000">_types.h</text>
</g>
<!-- Node20&#45;&gt;Node21 -->
<g id="edge28" class="edge">
<title>Node20&#45;&gt;Node21</title>
<path fill="none" stroke="#191970" d="M630,-358.2967C630,-350.5013 630,-340.7991 630,-331.9064"/>
<polygon fill="#191970" stroke="#191970" points="633.5001,-331.6431 630,-321.6432 626.5001,-331.6432 633.5001,-331.6431"/>
</g>
<!-- Node22 -->
<g id="node23" class="node">
<title>Node22</title>
<g id="a_node23"><a xlink:href="spec_2proto__stats__types_8h.html" target="_top" xlink:title="ODP proto stats types. ">
<polygon fill="#ffffff" stroke="#000000" points="440.5,-291.5 440.5,-321.5 547.5,-321.5 547.5,-291.5 440.5,-291.5"/>
<text text-anchor="start" x="448.5" y="-309.5" font-family="Helvetica,sans-Serif" font-size="10.00" fill="#000000">odp/api/spec/proto</text>
<text text-anchor="middle" x="494" y="-298.5" font-family="Helvetica,sans-Serif" font-size="10.00" fill="#000000">_stats_types.h</text>
</a>
</g>
</g>
<!-- Node20&#45;&gt;Node22 -->
<g id="edge29" class="edge">
<title>Node20&#45;&gt;Node22</title>
<path fill="none" stroke="#191970" d="M599.4789,-358.4639C580.1045,-348.9191 554.827,-336.4663 533.8743,-326.144"/>
<polygon fill="#191970" stroke="#191970" points="535.407,-322.9974 524.8897,-321.7177 532.3135,-329.2768 535.407,-322.9974"/>
</g>
<!-- Node22&#45;&gt;Node1 -->
<g id="edge30" class="edge">
<title>Node22&#45;&gt;Node1</title>
<path fill="none" stroke="#191970" d="M533.7535,-291.4786C579.6186,-274.8143 657.6388,-248.5008 727,-235 817.646,-217.3562 1058.2298,-239.9523 1141,-199 1207.2668,-166.2131 1223.7246,-143.8913 1253,-76 1259.2564,-61.4911 1260.2345,-43.5278 1259.7994,-30.0065"/>
<polygon fill="#191970" stroke="#191970" points="1263.2836,-29.6373 1259.1865,-19.8668 1256.2964,-30.0598 1263.2836,-29.6373"/>
</g>
<!-- Node22&#45;&gt;Node2 -->
<g id="edge31" class="edge">
<title>Node22&#45;&gt;Node2</title>
<path fill="none" stroke="#191970" d="M494,-291.2977C494,-283.3834 494,-273.6043 494,-265.0759"/>
<polygon fill="#191970" stroke="#191970" points="497.5001,-264.8469 494,-254.8469 490.5001,-264.847 497.5001,-264.8469"/>
</g>
<!-- Node22&#45;&gt;Node9 -->
<g id="edge32" class="edge">
<title>Node22&#45;&gt;Node9</title>
<path fill="none" stroke="#191970" d="M453.7961,-291.4544C416.4136,-275.0469 362.9947,-244.8423 339,-199 309.3877,-142.4252 341.6491,-64.3715 359.6172,-28.902"/>
<polygon fill="#191970" stroke="#191970" points="362.8965,-30.1854 364.4472,-19.7047 356.6991,-26.9308 362.8965,-30.1854"/>
</g>
<!-- Node23&#45;&gt;Node2 -->
<g id="edge34" class="edge">
<title>Node23&#45;&gt;Node2</title>
<path fill="none" stroke="#191970" d="M760.061,-296.9837C752.1889,-294.9007 743.8242,-292.7866 736,-291 677.0296,-277.5347 609.3498,-264.9069 560.5854,-256.3014"/>
<polygon fill="#191970" stroke="#191970" points="560.9311,-252.8086 550.4766,-254.5273 559.721,-259.7033 560.9311,-252.8086"/>
</g>
<!-- Node24 -->
<g id="node25" class="node">
<title>Node24</title>
<polygon fill="#ffffff" stroke="#bfbfbf" points="735.5,-235.5 735.5,-254.5 840.5,-254.5 840.5,-235.5 735.5,-235.5"/>
<text text-anchor="middle" x="788" y="-242.5" font-family="Helvetica,sans-Serif" font-size="10.00" fill="#000000">odp/api/abi/time.h</text>
</g>
<!-- Node23&#45;&gt;Node24 -->
<g id="edge35" class="edge">
<title>Node23&#45;&gt;Node24</title>
<path fill="none" stroke="#191970" d="M793.0625,-296.8906C792.2308,-288.3657 790.9892,-275.6392 789.9438,-264.9235"/>
<polygon fill="#191970" stroke="#191970" points="793.4053,-264.3577 788.9507,-254.7449 786.4383,-265.0375 793.4053,-264.3577"/>
</g>
<!-- Node25 -->
<g id="node26" class="node">
<title>Node25</title>
<g id="a_node26"><a xlink:href="spec_2time_8h.html" target="_top" xlink:title="ODP time. ">
<polygon fill="#ffffff" stroke="#000000" points="732.5,-56.5 732.5,-75.5 845.5,-75.5 845.5,-56.5 732.5,-56.5"/>
<text text-anchor="middle" x="789" y="-63.5" font-family="Helvetica,sans-Serif" font-size="10.00" fill="#000000">odp/api/spec/time.h</text>
</a>
</g>
</g>
<!-- Node23&#45;&gt;Node25 -->
<g id="edge36" class="edge">
<title>Node23&#45;&gt;Node25</title>
<path fill="none" stroke="#191970" d="M773.0876,-296.9632C757.2076,-288.4557 736.5306,-274.3465 727,-255 697.5817,-195.2826 747.6251,-118.3314 774.139,-83.9634"/>
<polygon fill="#191970" stroke="#191970" points="777.1332,-85.821 780.6097,-75.8127 771.6508,-81.4685 777.1332,-85.821"/>
</g>
<!-- Node25&#45;&gt;Node1 -->
<g id="edge37" class="edge">
<title>Node25&#45;&gt;Node1</title>
<path fill="none" stroke="#191970" d="M845.5062,-57.299C848.7165,-56.8481 851.8982,-56.4119 855,-56 971.3147,-40.5553 1106.9424,-25.7284 1187.4674,-17.2581"/>
<polygon fill="#191970" stroke="#191970" points="1187.9111,-20.7308 1197.4913,-16.2066 1187.1807,-13.769 1187.9111,-20.7308"/>
</g>
<!-- Node25&#45;&gt;Node9 -->
<g id="edge38" class="edge">
<title>Node25&#45;&gt;Node9</title>
<path fill="none" stroke="#191970" d="M732.4247,-57.9875C727.5466,-57.31 722.6868,-56.6398 718,-56 619.8743,-42.6047 506.096,-27.6795 436.0789,-18.5646"/>
<polygon fill="#191970" stroke="#191970" points="436.4411,-15.0823 426.0731,-17.2628 435.5379,-22.0238 436.4411,-15.0823"/>
</g>
<!-- Node26&#45;&gt;Node15 -->
<g id="edge40" class="edge">
<title>Node26&#45;&gt;Node15</title>
<path fill="none" stroke="#191970" d="M1080.4688,-492.3906C1067.8823,-484.0673 1049.2393,-471.7389 1033.283,-461.1872"/>
<polygon fill="#191970" stroke="#191970" points="1035.0221,-458.1411 1024.7504,-455.5446 1031.1609,-463.98 1035.0221,-458.1411"/>
</g>
<!-- Node27 -->
<g id="node28" class="node">
<title>Node27</title>
<g id="a_node28"><a xlink:href="spec_2packet__types_8h.html" target="_top" xlink:title="ODP packet types. ">
<polygon fill="#ffffff" stroke="#000000" points="1112,-425.5 1112,-455.5 1226,-455.5 1226,-425.5 1112,-425.5"/>
<text text-anchor="start" x="1120" y="-443.5" font-family="Helvetica,sans-Serif" font-size="10.00" fill="#000000">odp/api/spec/packet</text>
<text text-anchor="middle" x="1169" y="-432.5" font-family="Helvetica,sans-Serif" font-size="10.00" fill="#000000">_types.h</text>
</a>
</g>
</g>
<!-- Node26&#45;&gt;Node27 -->
<g id="edge41" class="edge">
<title>Node26&#45;&gt;Node27</title>
<path fill="none" stroke="#191970" d="M1106.5625,-492.3906C1116.2993,-484.2986 1130.5913,-472.4207 1143.0453,-462.0705"/>
<polygon fill="#191970" stroke="#191970" points="1145.4439,-464.628 1150.8976,-455.5446 1140.9697,-459.2445 1145.4439,-464.628"/>
</g>
<!-- Node27&#45;&gt;Node1 -->
<g id="edge42" class="edge">
<title>Node27&#45;&gt;Node1</title>
<path fill="none" stroke="#191970" d="M1193.8918,-425.3112C1248.0986,-390.1112 1372,-297.2162 1372,-183.5 1372,-183.5 1372,-183.5 1372,-122 1372,-75.4628 1323.0617,-41.828 1289.3136,-24.1659"/>
<polygon fill="#191970" stroke="#191970" points="1290.7576,-20.9746 1280.251,-19.6105 1287.6138,-27.2289 1290.7576,-20.9746"/>
</g>
<!-- Node27&#45;&gt;Node9 -->
<g id="edge62" class="edge">
<title>Node27&#45;&gt;Node9</title>
<path fill="none" stroke="#191970" d="M1135.0101,-425.332C1090.3566,-404.7337 1010.3077,-365.4643 948,-322 900.2315,-288.6778 899.6006,-265.5283 850,-235 781.1903,-192.6489 758.7575,-189.9582 681,-168 591.5549,-142.7414 561.4808,-166.0513 475,-132 453.78,-123.6448 402.5636,-94.3338 389,-76 379.0396,-62.5367 374.2895,-43.9798 372.0306,-29.9711"/>
<polygon fill="#191970" stroke="#191970" points="375.4793,-29.3518 370.7012,-19.8956 368.5394,-30.2676 375.4793,-29.3518"/>
</g>
<!-- Node27&#45;&gt;Node20 -->
<g id="edge43" class="edge">
<title>Node27&#45;&gt;Node20</title>
<path fill="none" stroke="#191970" d="M1111.8268,-431.6629C1096.6209,-429.3991 1080.199,-427.0319 1065,-425 933.8958,-407.4735 780.1426,-389.99 695.0343,-380.5813"/>
<polygon fill="#191970" stroke="#191970" points="695.3252,-377.0922 685.0017,-379.4744 694.5576,-384.05 695.3252,-377.0922"/>
</g>
<!-- Node27&#45;&gt;Node28 -->
<g id="edge44" class="edge">
<title>Node27&#45;&gt;Node28</title>
<path fill="none" stroke="#191970" d="M1169.2269,-425.2967C1169.3691,-415.7699 1169.5538,-403.3954 1169.707,-393.1306"/>
<polygon fill="#191970" stroke="#191970" points="1173.2077,-393.1061 1169.8574,-383.055 1166.2084,-393.0016 1173.2077,-393.1061"/>
</g>
<!-- Node29 -->
<g id="node30" class="node">
<title>Node29</title>
<polygon fill="#ffffff" stroke="#bfbfbf" points="956.5,-297 956.5,-316 1101.5,-316 1101.5,-297 956.5,-297"/>
<text text-anchor="middle" x="1029" y="-304" font-family="Helvetica,sans-Serif" font-size="10.00" fill="#000000">odp/api/abi/queue_types.h</text>
</g>
<!-- Node28&#45;&gt;Node29 -->
<g id="edge45" class="edge">
<title>Node28&#45;&gt;Node29</title>
<path fill="none" stroke="#191970" d="M1149.7981,-363.9005C1125.821,-352.5072 1085.6479,-333.4178 1058.2679,-320.4075"/>
<polygon fill="#191970" stroke="#191970" points="1059.6987,-317.2123 1049.1644,-316.0817 1056.6944,-323.5348 1059.6987,-317.2123"/>
</g>
<!-- Node30 -->
<g id="node31" class="node">
<title>Node30</title>
<g id="a_node31"><a xlink:href="spec_2queue__types_8h.html" target="_top" xlink:title="ODP queue types. ">
<polygon fill="#ffffff" stroke="#000000" points="1119.5,-291.5 1119.5,-321.5 1230.5,-321.5 1230.5,-291.5 1119.5,-291.5"/>
<text text-anchor="start" x="1127.5" y="-309.5" font-family="Helvetica,sans-Serif" font-size="10.00" fill="#000000">odp/api/spec/queue</text>
<text text-anchor="middle" x="1175" y="-298.5" font-family="Helvetica,sans-Serif" font-size="10.00" fill="#000000">_types.h</text>
</a>
</g>
</g>
<!-- Node28&#45;&gt;Node30 -->
<g id="edge46" class="edge">
<title>Node28&#45;&gt;Node30</title>
<path fill="none" stroke="#191970" d="M1170.7164,-363.9005C1171.3425,-355.5099 1172.2802,-342.9451 1173.1188,-331.7085"/>
<polygon fill="#191970" stroke="#191970" points="1176.625,-331.7545 1173.879,-321.5218 1169.6444,-331.2335 1176.625,-331.7545"/>
</g>
<!-- Node30&#45;&gt;Node1 -->
<g id="edge47" class="edge">
<title>Node30&#45;&gt;Node1</title>
<path fill="none" stroke="#191970" d="M1175.4466,-291.4026C1177.0869,-263.3549 1184.5488,-202.8973 1218,-168 1248.3839,-136.3026 1285.2475,-168.2659 1310,-132 1329.0418,-104.1011 1323.8741,-86.7969 1310,-56 1304.4303,-43.6369 1293.7137,-33.2563 1283.4494,-25.5033"/>
<polygon fill="#191970" stroke="#191970" points="1285.2549,-22.4948 1275.0567,-19.623 1281.2382,-28.2277 1285.2549,-22.4948"/>
</g>
<!-- Node30&#45;&gt;Node9 -->
<g id="edge61" class="edge">
<title>Node30&#45;&gt;Node9</title>
<path fill="none" stroke="#191970" d="M1119.427,-292.8376C1061.7428,-278.5898 978.9312,-257.9218 972,-255 969.5614,-253.972 649.4796,-56.9248 647,-56 577.7356,-30.1663 493.3328,-18.7973 436.031,-13.8212"/>
<polygon fill="#191970" stroke="#191970" points="436.2664,-10.3288 426.0118,-12.9923 435.6892,-17.305 436.2664,-10.3288"/>
</g>
<!-- Node30&#45;&gt;Node31 -->
<g id="edge48" class="edge">
<title>Node30&#45;&gt;Node31</title>
<path fill="none" stroke="#191970" d="M1199.2181,-291.4554C1214.5773,-281.9141 1234.3757,-269.6151 1249.7425,-260.0691"/>
<polygon fill="#191970" stroke="#191970" points="1252.011,-262.7802 1258.6585,-254.5303 1248.3172,-256.8341 1252.011,-262.7802"/>
</g>
<!-- Node36 -->
<g id="node37" class="node">
<title>Node36</title>
<g id="a_node37"><a xlink:href="deprecated_8h.html" target="_top" xlink:title="Control deprecated API definitions. ">
<polygon fill="#ffffff" stroke="#000000" points="980.5,-235.5 980.5,-254.5 1099.5,-254.5 1099.5,-235.5 980.5,-235.5"/>
<text text-anchor="middle" x="1040" y="-242.5" font-family="Helvetica,sans-Serif" font-size="10.00" fill="#000000">odp/api/deprecated.h</text>
</a>
</g>
</g>
<!-- Node30&#45;&gt;Node36 -->
<g id="edge57" class="edge">
<title>Node30&#45;&gt;Node36</title>
<path fill="none" stroke="#191970" d="M1141.9753,-291.4554C1120.043,-281.464 1091.4727,-268.4487 1070.1547,-258.7372"/>
<polygon fill="#191970" stroke="#191970" points="1071.4714,-255.4909 1060.9202,-254.5303 1068.5694,-261.8611 1071.4714,-255.4909"/>
</g>
<!-- Node32 -->
<g id="node33" class="node">
<title>Node32</title>
<polygon fill="#ffffff" stroke="#bfbfbf" points="1226.5,-168.5 1226.5,-198.5 1343.5,-198.5 1343.5,-168.5 1226.5,-168.5"/>
<text text-anchor="start" x="1234.5" y="-186.5" font-family="Helvetica,sans-Serif" font-size="10.00" fill="#000000">odp/api/abi/schedule</text>
<text text-anchor="middle" x="1285" y="-175.5" font-family="Helvetica,sans-Serif" font-size="10.00" fill="#000000">_types.h</text>
</g>
<!-- Node31&#45;&gt;Node32 -->
<g id="edge49" class="edge">
<title>Node31&#45;&gt;Node32</title>
<path fill="none" stroke="#191970" d="M1275.7188,-235.3906C1277.0007,-228.2234 1278.8138,-218.0862 1280.4979,-208.671"/>
<polygon fill="#191970" stroke="#191970" points="1283.9937,-209.0046 1282.3091,-198.5446 1277.103,-207.7721 1283.9937,-209.0046"/>
</g>
<!-- Node33 -->
<g id="node34" class="node">
<title>Node33</title>
<g id="a_node34"><a xlink:href="spec_2schedule__types_8h.html" target="_top" xlink:title="ODP schedule types. ">
<polygon fill="#ffffff" stroke="#000000" points="1006.5,-168.5 1006.5,-198.5 1131.5,-198.5 1131.5,-168.5 1006.5,-168.5"/>
<text text-anchor="start" x="1014.5" y="-186.5" font-family="Helvetica,sans-Serif" font-size="10.00" fill="#000000">odp/api/spec/schedule</text>
<text text-anchor="middle" x="1069" y="-175.5" font-family="Helvetica,sans-Serif" font-size="10.00" fill="#000000">_types.h</text>
</a>
</g>
</g>
<!-- Node31&#45;&gt;Node33 -->
<g id="edge50" class="edge">
<title>Node31&#45;&gt;Node33</title>
<path fill="none" stroke="#191970" d="M1241.9688,-235.3906C1211.784,-226.3352 1165.7967,-212.539 1128.8262,-201.4479"/>
<polygon fill="#191970" stroke="#191970" points="1129.7327,-198.0657 1119.1486,-198.5446 1127.7212,-204.7705 1129.7327,-198.0657"/>
</g>
<!-- Node33&#45;&gt;Node1 -->
<g id="edge51" class="edge">
<title>Node33&#45;&gt;Node1</title>
<path fill="none" stroke="#191970" d="M1105.128,-168.3671C1142.2817,-151.0976 1199.4533,-119.5104 1234,-76 1244.6484,-62.5887 1250.8367,-44.0267 1254.2536,-30.0028"/>
<polygon fill="#191970" stroke="#191970" points="1257.7425,-30.4274 1256.432,-19.914 1250.9002,-28.95 1257.7425,-30.4274"/>
</g>
<!-- Node33&#45;&gt;Node9 -->
<g id="edge56" class="edge">
<title>Node33&#45;&gt;Node9</title>
<path fill="none" stroke="#191970" d="M1013.3057,-168.4592C944.4964,-149.3499 824.2368,-114.2273 724,-76 703.9291,-68.3456 700.6025,-62.0801 680,-56 598.0667,-31.8202 500.0266,-19.9969 436.4567,-14.4686"/>
<polygon fill="#191970" stroke="#191970" points="436.4274,-10.9539 426.1691,-13.6028 435.8403,-17.9292 436.4274,-10.9539"/>
</g>
<!-- Node34 -->
<g id="node35" class="node">
<title>Node34</title>
<g id="a_node35"><a xlink:href="support_8h.html" target="_top" xlink:title="ODP support API &#45; platform specific header. ">
<polygon fill="#ffffff" stroke="#000000" points="1032.5,-112.5 1032.5,-131.5 1133.5,-131.5 1133.5,-112.5 1032.5,-112.5"/>
<text text-anchor="middle" x="1083" y="-119.5" font-family="Helvetica,sans-Serif" font-size="10.00" fill="#000000">odp/api/support.h</text>
</a>
</g>
</g>
<!-- Node33&#45;&gt;Node34 -->
<g id="edge52" class="edge">
<title>Node33&#45;&gt;Node34</title>
<path fill="none" stroke="#191970" d="M1072.4607,-168.2977C1074.2826,-160.2945 1076.5385,-150.3843 1078.4952,-141.7889"/>
<polygon fill="#191970" stroke="#191970" points="1081.9514,-142.3744 1080.7584,-131.8469 1075.126,-140.8206 1081.9514,-142.3744"/>
</g>
<!-- Node35 -->
<g id="node36" class="node">
<title>Node35</title>
<g id="a_node36"><a xlink:href="spec_2support_8h.html" target="_top" xlink:title="ODP support API. ">
<polygon fill="#ffffff" stroke="#000000" points="1026.5,-56.5 1026.5,-75.5 1153.5,-75.5 1153.5,-56.5 1026.5,-56.5"/>
<text text-anchor="middle" x="1090" y="-63.5" font-family="Helvetica,sans-Serif" font-size="10.00" fill="#000000">odp/api/spec/support.h</text>
</a>
</g>
</g>
<!-- Node34&#45;&gt;Node35 -->
<g id="edge53" class="edge">
<title>Node34&#45;&gt;Node35</title>
<path fill="none" stroke="#191970" d="M1084.2193,-112.2455C1085.1327,-104.9382 1086.4132,-94.6944 1087.5369,-85.7046"/>
<polygon fill="#191970" stroke="#191970" points="1091.0272,-85.9996 1088.7947,-75.6427 1084.0813,-85.1313 1091.0272,-85.9996"/>
</g>
<!-- Node35&#45;&gt;Node1 -->
<g id="edge54" class="edge">
<title>Node35&#45;&gt;Node1</title>
<path fill="none" stroke="#191970" d="M1118.8802,-56.3733C1146.8161,-47.0613 1189.3142,-32.8953 1219.9869,-22.671"/>
<polygon fill="#191970" stroke="#191970" points="1221.1166,-25.9839 1229.4966,-19.5011 1218.903,-19.3431 1221.1166,-25.9839"/>
</g>
<!-- Node35&#45;&gt;Node9 -->
<g id="edge55" class="edge">
<title>Node35&#45;&gt;Node9</title>
<path fill="none" stroke="#191970" d="M1026.425,-56.9343C1023.5797,-56.603 1020.7613,-56.2894 1018,-56 805.9515,-33.7733 553.715,-19.2889 436.2779,-13.2327"/>
<polygon fill="#191970" stroke="#191970" points="436.1839,-9.7234 426.018,-12.7074 435.8259,-16.7143 436.1839,-9.7234"/>
</g>
<!-- Node37 -->
<g id="node38" class="node">
<title>Node37</title>
<g id="a_node38"><a xlink:href="spec_2deprecated_8h.html" target="_top" xlink:title="Macro for deprecated API definitions. ">
<polygon fill="#ffffff" stroke="#000000" points="863.5,-56.5 863.5,-75.5 1008.5,-75.5 1008.5,-56.5 863.5,-56.5"/>
<text text-anchor="middle" x="936" y="-63.5" font-family="Helvetica,sans-Serif" font-size="10.00" fill="#000000">odp/api/spec/deprecated.h</text>
</a>
</g>
</g>
<!-- Node36&#45;&gt;Node37 -->
<g id="edge58" class="edge">
<title>Node36&#45;&gt;Node37</title>
<path fill="none" stroke="#191970" d="M1029.3521,-235.1642C1020.216,-226.3286 1007.1192,-212.676 998,-199 972.9076,-161.3689 952.7995,-111.9655 942.8308,-85.2173"/>
<polygon fill="#191970" stroke="#191970" points="946.0163,-83.7366 939.3013,-75.5416 939.4402,-86.1355 946.0163,-83.7366"/>
</g>
<!-- Node37&#45;&gt;Node1 -->
<g id="edge59" class="edge">
<title>Node37&#45;&gt;Node1</title>
<path fill="none" stroke="#191970" d="M990.9879,-56.4369C1047.0219,-46.6918 1133.8966,-31.5832 1193.2293,-21.2645"/>
<polygon fill="#191970" stroke="#191970" points="1193.9865,-24.6854 1203.2389,-19.5237 1192.7871,-17.7889 1193.9865,-24.6854"/>
</g>
<!-- Node37&#45;&gt;Node9 -->
<g id="edge60" class="edge">
<title>Node37&#45;&gt;Node9</title>
<path fill="none" stroke="#191970" d="M863.1536,-56.908C860.4015,-56.5958 857.6763,-56.2921 855,-56 705.4774,-39.6828 529.6508,-23.8379 436.2179,-15.6831"/>
<polygon fill="#191970" stroke="#191970" points="436.3293,-12.1797 426.0634,-14.7988 435.722,-19.1533 436.3293,-12.1797"/>
</g>
<!-- Node39 -->
<g id="node40" class="node">
<title>Node39</title>
<polygon fill="#ffffff" stroke="#bfbfbf" points="28.5,-297 28.5,-316 151.5,-316 151.5,-297 28.5,-297"/>
<text text-anchor="middle" x="90" y="-304" font-family="Helvetica,sans-Serif" font-size="10.00" fill="#000000">odp/api/abi/thrmask.h</text>
</g>
<!-- Node38&#45;&gt;Node39 -->
<g id="edge68" class="edge">
<title>Node38&#45;&gt;Node39</title>
<path fill="none" stroke="#191970" d="M90,-363.9005C90,-354.149 90,-338.7597 90,-326.3695"/>
<polygon fill="#191970" stroke="#191970" points="93.5001,-326.0816 90,-316.0817 86.5001,-326.0817 93.5001,-326.0816"/>
</g>
<!-- Node40 -->
<g id="node41" class="node">
<title>Node40</title>
<g id="a_node41"><a xlink:href="spec_2thrmask_8h.html" target="_top" xlink:title="ODP thread masks. ">
<polygon fill="#ffffff" stroke="#000000" points="246.5,-297 246.5,-316 377.5,-316 377.5,-297 246.5,-297"/>
<text text-anchor="middle" x="312" y="-304" font-family="Helvetica,sans-Serif" font-size="10.00" fill="#000000">odp/api/spec/thrmask.h</text>
</a>
</g>
</g>
<!-- Node38&#45;&gt;Node40 -->
<g id="edge69" class="edge">
<title>Node38&#45;&gt;Node40</title>
<path fill="none" stroke="#191970" d="M121.8072,-363.9005C160.9596,-352.0843 227.5404,-331.9901 270.6333,-318.9845"/>
<polygon fill="#191970" stroke="#191970" points="271.6896,-322.3218 280.2518,-316.0817 269.667,-315.6203 271.6896,-322.3218"/>
</g>
<!-- Node40&#45;&gt;Node1 -->
<g id="edge70" class="edge">
<title>Node40&#45;&gt;Node1</title>
<path fill="none" stroke="#191970" d="M327.3924,-296.8038C349.6447,-282.8527 392.1739,-256.4373 429,-235 457.5402,-218.3861 466.5353,-217.3374 494,-199 512.4148,-186.705 512.4875,-176.3373 533,-168 680.7346,-107.9534 732.1188,-154.4638 890,-132 924.0036,-127.1619 1163.7192,-92.2088 1194,-76 1215.4088,-64.5402 1233.9754,-43.3909 1245.5166,-28.1164"/>
<polygon fill="#191970" stroke="#191970" points="1248.425,-30.0679 1251.4685,-19.9197 1242.7607,-25.955 1248.425,-30.0679"/>
</g>
<!-- Node40&#45;&gt;Node2 -->
<g id="edge71" class="edge">
<title>Node40&#45;&gt;Node2</title>
<path fill="none" stroke="#191970" d="M340.4375,-296.8906C371.5572,-286.3749 421.5964,-269.466 456.0485,-257.8243"/>
<polygon fill="#191970" stroke="#191970" points="457.4089,-261.0591 465.7622,-254.5419 455.168,-254.4274 457.4089,-261.0591"/>
</g>
<!-- Node40&#45;&gt;Node9 -->
<g id="edge72" class="edge">
<title>Node40&#45;&gt;Node9</title>
<path fill="none" stroke="#191970" d="M304.2134,-296.9759C288.8262,-277.1572 256,-229.4879 256,-183.5 256,-183.5 256,-183.5 256,-122 256,-90.7875 259.3361,-79.3929 280,-56 292.916,-41.3783 311.5884,-30.7807 328.5811,-23.4697"/>
<polygon fill="#191970" stroke="#191970" points="330.3685,-26.5231 338.3359,-19.5394 327.7524,-20.0303 330.3685,-26.5231"/>
</g>
</g>
</svg>
