<?xml version="1.0" encoding="UTF-8" standalone="no"?>
<!DOCTYPE svg PUBLIC "-//W3C//DTD SVG 1.1//EN"
 "http://www.w3.org/Graphics/SVG/1.1/DTD/svg11.dtd">
<!-- Generated by graphviz version 2.40.1 (20161225.0304)
 -->
<!-- Title: event.h Pages: 1 -->
<svg width="1283pt" height="688pt"
 viewBox="0.00 0.00 1283.00 688.00" xmlns="http://www.w3.org/2000/svg" xmlns:xlink="http://www.w3.org/1999/xlink">
<g id="graph0" class="graph" transform="scale(1 1) rotate(0) translate(4 684)">
<title>event.h</title>
<polygon fill="#ffffff" stroke="transparent" points="-4,4 -4,-684 1279,-684 1279,4 -4,4"/>
<!-- Node0 -->
<g id="node1" class="node">
<title>Node0</title>
<polygon fill="#bfbfbf" stroke="#000000" points="777.5,-660.5 777.5,-679.5 830.5,-679.5 830.5,-660.5 777.5,-660.5"/>
<text text-anchor="middle" x="804" y="-667.5" font-family="Helvetica,sans-Serif" font-size="10.00" fill="#000000">event.h</text>
</g>
<!-- Node1 -->
<g id="node2" class="node">
<title>Node1</title>
<polygon fill="#ffffff" stroke="#bfbfbf" points="676.5,-.5 676.5,-19.5 797.5,-19.5 797.5,-.5 676.5,-.5"/>
<text text-anchor="middle" x="737" y="-7.5" font-family="Helvetica,sans-Serif" font-size="10.00" fill="#000000">odp/visibility_begin.h</text>
</g>
<!-- Node0&#45;&gt;Node1 -->
<g id="edge1" class="edge">
<title>Node0&#45;&gt;Node1</title>
<path fill="none" stroke="#191970" d="M830.6725,-669.4252C930.3096,-666.5687 1275,-650.0357 1275,-558 1275,-558 1275,-558 1275,-122 1275,-68.7482 1225.1318,-73.9598 1175,-56 1109.1916,-32.4241 913.9366,-19.0591 807.7267,-13.3462"/>
<polygon fill="#191970" stroke="#191970" points="807.9047,-9.8508 797.7336,-12.8171 807.5346,-16.841 807.9047,-9.8508"/>
</g>
<!-- Node2 -->
<g id="node3" class="node">
<title>Node2</title>
<g id="a_node3"><a xlink:href="packet_8h.html" target="_top" xlink:title="ODP packet descriptor. ">
<polygon fill="#ffffff" stroke="#000000" points="755,-604.5 755,-623.5 853,-623.5 853,-604.5 755,-604.5"/>
<text text-anchor="middle" x="804" y="-611.5" font-family="Helvetica,sans-Serif" font-size="10.00" fill="#000000">odp/api/packet.h</text>
</a>
</g>
</g>
<!-- Node0&#45;&gt;Node2 -->
<g id="edge2" class="edge">
<title>Node0&#45;&gt;Node2</title>
<path fill="none" stroke="#191970" d="M804,-660.2455C804,-652.9382 804,-642.6944 804,-633.7046"/>
<polygon fill="#191970" stroke="#191970" points="807.5001,-633.6426 804,-623.6427 800.5001,-633.6427 807.5001,-633.6426"/>
</g>
<!-- Node10 -->
<g id="node11" class="node">
<title>Node10</title>
<polygon fill="#ffffff" stroke="#bfbfbf" points="197,-.5 197,-19.5 309,-19.5 309,-.5 197,-.5"/>
<text text-anchor="middle" x="253" y="-7.5" font-family="Helvetica,sans-Serif" font-size="10.00" fill="#000000">odp/visibility_end.h</text>
</g>
<!-- Node0&#45;&gt;Node10 -->
<g id="edge59" class="edge">
<title>Node0&#45;&gt;Node10</title>
<path fill="none" stroke="#191970" d="M777.2495,-669.1565C637.7432,-664.4122 0,-638.3308 0,-558 0,-558 0,-558 0,-122 0,-84.3794 21.1286,-75.988 53,-56 75.0967,-42.1422 137.3379,-29.0891 186.5765,-20.4531"/>
<polygon fill="#191970" stroke="#191970" points="187.2913,-23.8816 196.5506,-18.7323 186.1011,-16.9835 187.2913,-23.8816"/>
</g>
<!-- Node3 -->
<g id="node4" class="node">
<title>Node3</title>
<g id="a_node4"><a xlink:href="std__types_8h.html" target="_top" xlink:title="Standard C language types and definitions for ODP. ">
<polygon fill="#ffffff" stroke="#000000" points="1009,-235.5 1009,-254.5 1121,-254.5 1121,-235.5 1009,-235.5"/>
<text text-anchor="middle" x="1065" y="-242.5" font-family="Helvetica,sans-Serif" font-size="10.00" fill="#000000">odp/api/std_types.h</text>
</a>
</g>
</g>
<!-- Node2&#45;&gt;Node3 -->
<g id="edge3" class="edge">
<title>Node2&#45;&gt;Node3</title>
<path fill="none" stroke="#191970" d="M853.1625,-607.102C880.55,-600.9694 913.55,-589.4694 936,-568 1027.2486,-480.7371 1055.4968,-320.5419 1062.7849,-264.7682"/>
<polygon fill="#191970" stroke="#191970" points="1066.2658,-265.1368 1064.0065,-254.7857 1059.3177,-264.2865 1066.2658,-265.1368"/>
</g>
<!-- Node11 -->
<g id="node12" class="node">
<title>Node11</title>
<polygon fill="#ffffff" stroke="#bfbfbf" points="817,-548.5 817,-567.5 927,-567.5 927,-548.5 817,-548.5"/>
<text text-anchor="middle" x="872" y="-555.5" font-family="Helvetica,sans-Serif" font-size="10.00" fill="#000000">odp/api/abi/event.h</text>
</g>
<!-- Node2&#45;&gt;Node11 -->
<g id="edge14" class="edge">
<title>Node2&#45;&gt;Node11</title>
<path fill="none" stroke="#191970" d="M815.8447,-604.2455C825.888,-595.9746 840.4995,-583.9416 852.3004,-574.2232"/>
<polygon fill="#191970" stroke="#191970" points="854.7967,-576.7015 860.291,-567.6427 850.3467,-571.298 854.7967,-576.7015"/>
</g>
<!-- Node12 -->
<g id="node13" class="node">
<title>Node12</title>
<polygon fill="#ffffff" stroke="#bfbfbf" points="983,-548.5 983,-567.5 1113,-567.5 1113,-548.5 983,-548.5"/>
<text text-anchor="middle" x="1048" y="-555.5" font-family="Helvetica,sans-Serif" font-size="10.00" fill="#000000">odp/api/abi/packet_io.h</text>
</g>
<!-- Node2&#45;&gt;Node12 -->
<g id="edge15" class="edge">
<title>Node2&#45;&gt;Node12</title>
<path fill="none" stroke="#191970" d="M845.6679,-604.4369C887.4266,-594.8529 951.7891,-580.0812 996.6728,-569.78"/>
<polygon fill="#191970" stroke="#191970" points="997.5404,-573.172 1006.504,-567.5237 995.9745,-566.3494 997.5404,-573.172"/>
</g>
<!-- Node13 -->
<g id="node14" class="node">
<title>Node13</title>
<polygon fill="#ffffff" stroke="#bfbfbf" points="52.5,-425.5 52.5,-455.5 159.5,-455.5 159.5,-425.5 52.5,-425.5"/>
<text text-anchor="start" x="60.5" y="-443.5" font-family="Helvetica,sans-Serif" font-size="10.00" fill="#000000">odp/api/abi/packet</text>
<text text-anchor="middle" x="106" y="-432.5" font-family="Helvetica,sans-Serif" font-size="10.00" fill="#000000">_types.h</text>
</g>
<!-- Node2&#45;&gt;Node13 -->
<g id="edge16" class="edge">
<title>Node2&#45;&gt;Node13</title>
<path fill="none" stroke="#191970" d="M754.992,-610.6913C601.2061,-599.8098 135.8314,-562.8962 93,-512 82.1377,-499.0924 86.1688,-480.1627 92.4988,-465.0229"/>
<polygon fill="#191970" stroke="#191970" points="95.7829,-466.2629 96.857,-455.7226 89.4443,-463.2925 95.7829,-466.2629"/>
</g>
<!-- Node14 -->
<g id="node15" class="node">
<title>Node14</title>
<polygon fill="#ffffff" stroke="#bfbfbf" points="1131,-548.5 1131,-567.5 1247,-567.5 1247,-548.5 1131,-548.5"/>
<text text-anchor="middle" x="1189" y="-555.5" font-family="Helvetica,sans-Serif" font-size="10.00" fill="#000000">odp/api/abi/packet.h</text>
</g>
<!-- Node2&#45;&gt;Node14 -->
<g id="edge17" class="edge">
<title>Node2&#45;&gt;Node14</title>
<path fill="none" stroke="#191970" d="M853.0391,-606.9762C913.4956,-598.3015 1019.6747,-583.0157 1120.8128,-568.1697"/>
<polygon fill="#191970" stroke="#191970" points="1121.5126,-571.6046 1130.8977,-566.6883 1120.4952,-564.6789 1121.5126,-571.6046"/>
</g>
<!-- Node15 -->
<g id="node16" class="node">
<title>Node15</title>
<polygon fill="#ffffff" stroke="#bfbfbf" points="425,-548.5 425,-567.5 535,-567.5 535,-548.5 425,-548.5"/>
<text text-anchor="middle" x="480" y="-555.5" font-family="Helvetica,sans-Serif" font-size="10.00" fill="#000000">odp/api/abi/buffer.h</text>
</g>
<!-- Node2&#45;&gt;Node15 -->
<g id="edge18" class="edge">
<title>Node2&#45;&gt;Node15</title>
<path fill="none" stroke="#191970" d="M754.7914,-605.4948C698.7823,-595.8142 607.064,-579.9617 545.1563,-569.2616"/>
<polygon fill="#191970" stroke="#191970" points="545.5556,-565.7788 535.1055,-567.5244 544.3633,-572.6765 545.5556,-565.7788"/>
</g>
<!-- Node16 -->
<g id="node17" class="node">
<title>Node16</title>
<polygon fill="#ffffff" stroke="#bfbfbf" points="553,-548.5 553,-567.5 657,-567.5 657,-548.5 553,-548.5"/>
<text text-anchor="middle" x="605" y="-555.5" font-family="Helvetica,sans-Serif" font-size="10.00" fill="#000000">odp/api/abi/pool.h</text>
</g>
<!-- Node2&#45;&gt;Node16 -->
<g id="edge19" class="edge">
<title>Node2&#45;&gt;Node16</title>
<path fill="none" stroke="#191970" d="M769.7907,-604.3733C736.2703,-594.9404 685.0495,-580.5265 648.619,-570.2747"/>
<polygon fill="#191970" stroke="#191970" points="649.3372,-566.8409 638.7629,-567.5011 647.4409,-573.5792 649.3372,-566.8409"/>
</g>
<!-- Node17 -->
<g id="node18" class="node">
<title>Node17</title>
<g id="a_node18"><a xlink:href="spec_2packet_8h.html" target="_top" xlink:title="ODP packet descriptor. ">
<polygon fill="#ffffff" stroke="#000000" points="675.5,-548.5 675.5,-567.5 798.5,-567.5 798.5,-548.5 675.5,-548.5"/>
<text text-anchor="middle" x="737" y="-555.5" font-family="Helvetica,sans-Serif" font-size="10.00" fill="#000000">odp/api/spec/packet.h</text>
</a>
</g>
</g>
<!-- Node2&#45;&gt;Node17 -->
<g id="edge20" class="edge">
<title>Node2&#45;&gt;Node17</title>
<path fill="none" stroke="#191970" d="M792.3295,-604.2455C782.4339,-595.9746 768.0373,-583.9416 756.4099,-574.2232"/>
<polygon fill="#191970" stroke="#191970" points="758.4542,-571.3703 748.5368,-567.6427 753.965,-576.7413 758.4542,-571.3703"/>
</g>
<!-- Node4 -->
<g id="node5" class="node">
<title>Node4</title>
<polygon fill="#ffffff" stroke="#bfbfbf" points="1117,-174 1117,-193 1247,-193 1247,-174 1117,-174"/>
<text text-anchor="middle" x="1182" y="-181" font-family="Helvetica,sans-Serif" font-size="10.00" fill="#000000">odp/api/abi/std_types.h</text>
</g>
<!-- Node3&#45;&gt;Node4 -->
<g id="edge4" class="edge">
<title>Node3&#45;&gt;Node4</title>
<path fill="none" stroke="#191970" d="M1083.2813,-235.3906C1102.5141,-225.2811 1132.9879,-209.2628 1154.9925,-197.6962"/>
<polygon fill="#191970" stroke="#191970" points="1156.624,-200.7928 1163.8471,-193.0419 1153.367,-194.5967 1156.624,-200.7928"/>
</g>
<!-- Node5 -->
<g id="node6" class="node">
<title>Node5</title>
<g id="a_node6"><a xlink:href="spec_2std__types_8h.html" target="_top" xlink:title="Standard C language types and definitions for ODP. ">
<polygon fill="#ffffff" stroke="#000000" points="961.5,-174 961.5,-193 1098.5,-193 1098.5,-174 961.5,-174"/>
<text text-anchor="middle" x="1030" y="-181" font-family="Helvetica,sans-Serif" font-size="10.00" fill="#000000">odp/api/spec/std_types.h</text>
</a>
</g>
</g>
<!-- Node3&#45;&gt;Node5 -->
<g id="edge5" class="edge">
<title>Node3&#45;&gt;Node5</title>
<path fill="none" stroke="#191970" d="M1059.5313,-235.3906C1054.4754,-226.5068 1046.8228,-213.0601 1040.5746,-202.0811"/>
<polygon fill="#191970" stroke="#191970" points="1043.534,-200.2048 1035.5459,-193.2449 1037.4502,-203.6672 1043.534,-200.2048"/>
</g>
<!-- Node5&#45;&gt;Node1 -->
<g id="edge6" class="edge">
<title>Node5&#45;&gt;Node1</title>
<path fill="none" stroke="#191970" d="M1031.9257,-173.8878C1036.0589,-150.1988 1042.9845,-88.5785 1011,-56 983.4218,-27.9096 879.6244,-16.9395 808.0119,-12.6777"/>
<polygon fill="#191970" stroke="#191970" points="807.8736,-9.1644 797.6926,-12.0963 807.4798,-16.1533 807.8736,-9.1644"/>
</g>
<!-- Node6 -->
<g id="node7" class="node">
<title>Node6</title>
<polygon fill="#ffffff" stroke="#bfbfbf" points="1165.5,-112.5 1165.5,-131.5 1218.5,-131.5 1218.5,-112.5 1165.5,-112.5"/>
<text text-anchor="middle" x="1192" y="-119.5" font-family="Helvetica,sans-Serif" font-size="10.00" fill="#000000">stdint.h</text>
</g>
<!-- Node5&#45;&gt;Node6 -->
<g id="edge7" class="edge">
<title>Node5&#45;&gt;Node6</title>
<path fill="none" stroke="#191970" d="M1055.3125,-173.8906C1082.7747,-163.4652 1126.7895,-146.7559 1157.4263,-135.1252"/>
<polygon fill="#191970" stroke="#191970" points="1158.7585,-138.3633 1166.8652,-131.5419 1156.274,-131.819 1158.7585,-138.3633"/>
</g>
<!-- Node7 -->
<g id="node8" class="node">
<title>Node7</title>
<g id="a_node8"><a xlink:href="align_8h.html" target="_top" xlink:title="ODP alignments. ">
<polygon fill="#ffffff" stroke="#000000" points="1058.5,-112.5 1058.5,-131.5 1147.5,-131.5 1147.5,-112.5 1058.5,-112.5"/>
<text text-anchor="middle" x="1103" y="-119.5" font-family="Helvetica,sans-Serif" font-size="10.00" fill="#000000">odp/api/align.h</text>
</a>
</g>
</g>
<!-- Node5&#45;&gt;Node7 -->
<g id="edge8" class="edge">
<title>Node5&#45;&gt;Node7</title>
<path fill="none" stroke="#191970" d="M1041.4063,-173.8906C1052.6969,-164.3786 1070.1967,-149.6357 1083.6619,-138.2917"/>
<polygon fill="#191970" stroke="#191970" points="1086.0402,-140.8646 1091.4329,-131.7449 1081.5301,-135.5111 1086.0402,-140.8646"/>
</g>
<!-- Node5&#45;&gt;Node10 -->
<g id="edge13" class="edge">
<title>Node5&#45;&gt;Node10</title>
<path fill="none" stroke="#191970" d="M995.5053,-173.9624C913.4009,-151.4655 699.7225,-94.119 519,-56 451.2559,-41.711 373.118,-28.5952 319.1413,-20.0568"/>
<polygon fill="#191970" stroke="#191970" points="319.4378,-16.5605 309.0153,-18.4639 318.3499,-23.4755 319.4378,-16.5605"/>
</g>
<!-- Node8 -->
<g id="node9" class="node">
<title>Node8</title>
<polygon fill="#ffffff" stroke="#bfbfbf" points="1058.5,-56.5 1058.5,-75.5 1165.5,-75.5 1165.5,-56.5 1058.5,-56.5"/>
<text text-anchor="middle" x="1112" y="-63.5" font-family="Helvetica,sans-Serif" font-size="10.00" fill="#000000">odp/api/abi/align.h</text>
</g>
<!-- Node7&#45;&gt;Node8 -->
<g id="edge9" class="edge">
<title>Node7&#45;&gt;Node8</title>
<path fill="none" stroke="#191970" d="M1104.5677,-112.2455C1105.7421,-104.9382 1107.3884,-94.6944 1108.8332,-85.7046"/>
<polygon fill="#191970" stroke="#191970" points="1112.3191,-86.0714 1110.4503,-75.6427 1105.4078,-84.9606 1112.3191,-86.0714"/>
</g>
<!-- Node9 -->
<g id="node10" class="node">
<title>Node9</title>
<g id="a_node10"><a xlink:href="spec_2align_8h.html" target="_top" xlink:title="ODP alignments. ">
<polygon fill="#ffffff" stroke="#000000" points="888,-56.5 888,-75.5 1002,-75.5 1002,-56.5 888,-56.5"/>
<text text-anchor="middle" x="945" y="-63.5" font-family="Helvetica,sans-Serif" font-size="10.00" fill="#000000">odp/api/spec/align.h</text>
</a>
</g>
</g>
<!-- Node7&#45;&gt;Node9 -->
<g id="edge10" class="edge">
<title>Node7&#45;&gt;Node9</title>
<path fill="none" stroke="#191970" d="M1075.8388,-112.3733C1049.7933,-103.1419 1010.2884,-89.1402 981.5021,-78.9375"/>
<polygon fill="#191970" stroke="#191970" points="982.4015,-75.5429 971.8067,-75.5011 980.063,-82.1408 982.4015,-75.5429"/>
</g>
<!-- Node9&#45;&gt;Node1 -->
<g id="edge11" class="edge">
<title>Node9&#45;&gt;Node1</title>
<path fill="none" stroke="#191970" d="M909.2435,-56.3733C874.0574,-46.9001 820.2119,-32.4032 782.1044,-22.1435"/>
<polygon fill="#191970" stroke="#191970" points="782.856,-18.7213 772.2899,-19.5011 781.0361,-25.4806 782.856,-18.7213"/>
</g>
<!-- Node9&#45;&gt;Node10 -->
<g id="edge12" class="edge">
<title>Node9&#45;&gt;Node10</title>
<path fill="none" stroke="#191970" d="M887.782,-61.3696C760.5971,-51.0772 454.9892,-26.3459 319.5492,-15.3855"/>
<polygon fill="#191970" stroke="#191970" points="319.5662,-11.8755 309.3164,-14.5574 319.0015,-18.8527 319.5662,-11.8755"/>
</g>
<!-- Node17&#45;&gt;Node1 -->
<g id="edge21" class="edge">
<title>Node17&#45;&gt;Node1</title>
<path fill="none" stroke="#191970" d="M750.1747,-548.3108C773.3542,-530.0345 819,-488.0125 819,-440.5 819,-440.5 819,-440.5 819,-306.5 819,-195.1631 885.1974,-146.9648 821,-56 810.6789,-41.3754 794.1833,-30.9161 778.5317,-23.7051"/>
<polygon fill="#191970" stroke="#191970" points="779.5298,-20.326 768.9581,-19.6268 776.7864,-26.766 779.5298,-20.326"/>
</g>
<!-- Node17&#45;&gt;Node10 -->
<g id="edge58" class="edge">
<title>Node17&#45;&gt;Node10</title>
<path fill="none" stroke="#191970" d="M675.275,-549.3554C504.4544,-523.7153 38,-441.3544 38,-306.5 38,-306.5 38,-306.5 38,-122 38,-53.9849 123.6772,-27.2094 186.8612,-16.711"/>
<polygon fill="#191970" stroke="#191970" points="187.451,-20.1614 196.7921,-15.162 186.3722,-13.245 187.451,-20.1614"/>
</g>
<!-- Node18 -->
<g id="node19" class="node">
<title>Node18</title>
<g id="a_node19"><a xlink:href="proto__stats__types_8h.html" target="_top" xlink:title="ODP proto stats types. ">
<polygon fill="#ffffff" stroke="#000000" points="579,-358.5 579,-388.5 689,-388.5 689,-358.5 579,-358.5"/>
<text text-anchor="start" x="587" y="-376.5" font-family="Helvetica,sans-Serif" font-size="10.00" fill="#000000">odp/api/proto_stats</text>
<text text-anchor="middle" x="634" y="-365.5" font-family="Helvetica,sans-Serif" font-size="10.00" fill="#000000">_types.h</text>
</a>
</g>
</g>
<!-- Node17&#45;&gt;Node18 -->
<g id="edge22" class="edge">
<title>Node17&#45;&gt;Node18</title>
<path fill="none" stroke="#191970" d="M731.6073,-548.3402C715.9779,-520.344 670.3153,-438.5503 647.4175,-397.5342"/>
<polygon fill="#191970" stroke="#191970" points="650.4365,-395.7618 642.5059,-388.7363 644.3244,-399.1739 650.4365,-395.7618"/>
</g>
<!-- Node21 -->
<g id="node22" class="node">
<title>Node21</title>
<g id="a_node22"><a xlink:href="time_8h.html" target="_top" xlink:title="ODP time. ">
<polygon fill="#ffffff" stroke="#000000" points="847.5,-297 847.5,-316 934.5,-316 934.5,-297 847.5,-297"/>
<text text-anchor="middle" x="891" y="-304" font-family="Helvetica,sans-Serif" font-size="10.00" fill="#000000">odp/api/time.h</text>
</a>
</g>
</g>
<!-- Node17&#45;&gt;Node21 -->
<g id="edge28" class="edge">
<title>Node17&#45;&gt;Node21</title>
<path fill="none" stroke="#191970" d="M774.0508,-548.411C794.1436,-541.4203 817.8881,-529.959 833,-512 879.5884,-456.6343 888.8512,-366.2291 890.623,-326.4044"/>
<polygon fill="#191970" stroke="#191970" points="894.1221,-326.4873 890.9533,-316.3775 887.1259,-326.2568 894.1221,-326.4873"/>
</g>
<!-- Node24 -->
<g id="node25" class="node">
<title>Node24</title>
<g id="a_node25"><a xlink:href="packet__types_8h.html" target="_top" xlink:title="ODP packet. ">
<polygon fill="#ffffff" stroke="#000000" points="102,-492.5 102,-511.5 232,-511.5 232,-492.5 102,-492.5"/>
<text text-anchor="middle" x="167" y="-499.5" font-family="Helvetica,sans-Serif" font-size="10.00" fill="#000000">odp/api/packet_types.h</text>
</a>
</g>
</g>
<!-- Node17&#45;&gt;Node24 -->
<g id="edge34" class="edge">
<title>Node17&#45;&gt;Node24</title>
<path fill="none" stroke="#191970" d="M675.4525,-549.1225C672.2577,-548.7271 669.0923,-548.35 666,-548 479.8377,-526.9274 432.3053,-531.7678 246,-512 244.7241,-511.8646 243.4368,-511.7259 242.1407,-511.5843"/>
<polygon fill="#191970" stroke="#191970" points="242.4022,-508.0917 232.0729,-510.4486 241.6175,-515.0476 242.4022,-508.0917"/>
</g>
<!-- Node19 -->
<g id="node20" class="node">
<title>Node19</title>
<polygon fill="#ffffff" stroke="#bfbfbf" points="537,-291.5 537,-321.5 665,-321.5 665,-291.5 537,-291.5"/>
<text text-anchor="start" x="545" y="-309.5" font-family="Helvetica,sans-Serif" font-size="10.00" fill="#000000">odp/api/abi/proto_stats</text>
<text text-anchor="middle" x="601" y="-298.5" font-family="Helvetica,sans-Serif" font-size="10.00" fill="#000000">_types.h</text>
</g>
<!-- Node18&#45;&gt;Node19 -->
<g id="edge23" class="edge">
<title>Node18&#45;&gt;Node19</title>
<path fill="none" stroke="#191970" d="M626.5118,-358.2967C622.5035,-350.1586 617.4717,-339.9425 612.9384,-330.7386"/>
<polygon fill="#191970" stroke="#191970" points="616.0169,-329.0676 608.4586,-321.6432 609.7373,-332.1606 616.0169,-329.0676"/>
</g>
<!-- Node20 -->
<g id="node21" class="node">
<title>Node20</title>
<g id="a_node21"><a xlink:href="spec_2proto__stats__types_8h.html" target="_top" xlink:title="ODP proto stats types. ">
<polygon fill="#ffffff" stroke="#000000" points="683.5,-291.5 683.5,-321.5 790.5,-321.5 790.5,-291.5 683.5,-291.5"/>
<text text-anchor="start" x="691.5" y="-309.5" font-family="Helvetica,sans-Serif" font-size="10.00" fill="#000000">odp/api/spec/proto</text>
<text text-anchor="middle" x="737" y="-298.5" font-family="Helvetica,sans-Serif" font-size="10.00" fill="#000000">_stats_types.h</text>
</a>
</g>
</g>
<!-- Node18&#45;&gt;Node20 -->
<g id="edge24" class="edge">
<title>Node18&#45;&gt;Node20</title>
<path fill="none" stroke="#191970" d="M657.1152,-358.4639C671.1963,-349.3044 689.3945,-337.4667 704.8642,-327.4038"/>
<polygon fill="#191970" stroke="#191970" points="707.1315,-330.1044 713.6056,-321.7177 703.3145,-324.2366 707.1315,-330.1044"/>
</g>
<!-- Node20&#45;&gt;Node1 -->
<g id="edge25" class="edge">
<title>Node20&#45;&gt;Node1</title>
<path fill="none" stroke="#191970" d="M748.2685,-291.2594C776.6741,-250.8314 845.9725,-138.3307 803,-56 795.8755,-42.3502 782.6477,-31.926 769.8944,-24.4806"/>
<polygon fill="#191970" stroke="#191970" points="771.2508,-21.2362 760.7859,-19.5822 767.9353,-27.4012 771.2508,-21.2362"/>
</g>
<!-- Node20&#45;&gt;Node3 -->
<g id="edge26" class="edge">
<title>Node20&#45;&gt;Node3</title>
<path fill="none" stroke="#191970" d="M790.7952,-296.4134C849.4155,-285.4221 942.999,-267.8752 1004.2301,-256.3944"/>
<polygon fill="#191970" stroke="#191970" points="1004.9602,-259.8185 1014.1439,-254.5355 1003.6702,-252.9384 1004.9602,-259.8185"/>
</g>
<!-- Node20&#45;&gt;Node10 -->
<g id="edge27" class="edge">
<title>Node20&#45;&gt;Node10</title>
<path fill="none" stroke="#191970" d="M683.1655,-292.6213C680.0749,-292.0223 677.0039,-291.475 674,-291 619.4222,-282.3687 222.0806,-288.3187 178,-255 151.0252,-234.6109 152,-217.3136 152,-183.5 152,-183.5 152,-183.5 152,-122 152,-91.4754 152.0462,-79.9271 171,-56 182.3313,-41.6955 199.4041,-31.1119 215.0427,-23.7275"/>
<polygon fill="#191970" stroke="#191970" points="216.7962,-26.7793 224.5305,-19.5383 213.9688,-20.3757 216.7962,-26.7793"/>
</g>
<!-- Node21&#45;&gt;Node3 -->
<g id="edge29" class="edge">
<title>Node21&#45;&gt;Node3</title>
<path fill="none" stroke="#191970" d="M918.1875,-296.8906C947.8117,-286.42 995.3687,-269.6111 1028.2918,-257.9745"/>
<polygon fill="#191970" stroke="#191970" points="1029.7414,-261.1744 1038.0034,-254.5419 1027.4086,-254.5745 1029.7414,-261.1744"/>
</g>
<!-- Node22 -->
<g id="node23" class="node">
<title>Node22</title>
<polygon fill="#ffffff" stroke="#bfbfbf" points="885.5,-235.5 885.5,-254.5 990.5,-254.5 990.5,-235.5 885.5,-235.5"/>
<text text-anchor="middle" x="938" y="-242.5" font-family="Helvetica,sans-Serif" font-size="10.00" fill="#000000">odp/api/abi/time.h</text>
</g>
<!-- Node21&#45;&gt;Node22 -->
<g id="edge30" class="edge">
<title>Node21&#45;&gt;Node22</title>
<path fill="none" stroke="#191970" d="M898.3438,-296.8906C905.2702,-287.8273 915.826,-274.0149 924.306,-262.9188"/>
<polygon fill="#191970" stroke="#191970" points="927.2615,-264.8155 930.5527,-254.7449 921.6997,-260.565 927.2615,-264.8155"/>
</g>
<!-- Node23 -->
<g id="node24" class="node">
<title>Node23</title>
<g id="a_node24"><a xlink:href="spec_2time_8h.html" target="_top" xlink:title="ODP time. ">
<polygon fill="#ffffff" stroke="#000000" points="680.5,-56.5 680.5,-75.5 793.5,-75.5 793.5,-56.5 680.5,-56.5"/>
<text text-anchor="middle" x="737" y="-63.5" font-family="Helvetica,sans-Serif" font-size="10.00" fill="#000000">odp/api/spec/time.h</text>
</a>
</g>
</g>
<!-- Node21&#45;&gt;Node23 -->
<g id="edge31" class="edge">
<title>Node21&#45;&gt;Node23</title>
<path fill="none" stroke="#191970" d="M884.7723,-296.7742C861.5034,-260.4355 779.431,-132.264 748.7171,-84.2985"/>
<polygon fill="#191970" stroke="#191970" points="751.4766,-82.1173 743.1365,-75.5833 745.5815,-85.8921 751.4766,-82.1173"/>
</g>
<!-- Node23&#45;&gt;Node1 -->
<g id="edge32" class="edge">
<title>Node23&#45;&gt;Node1</title>
<path fill="none" stroke="#191970" d="M737,-56.2455C737,-48.9382 737,-38.6944 737,-29.7046"/>
<polygon fill="#191970" stroke="#191970" points="740.5001,-29.6426 737,-19.6427 733.5001,-29.6427 740.5001,-29.6426"/>
</g>
<!-- Node23&#45;&gt;Node10 -->
<g id="edge33" class="edge">
<title>Node23&#45;&gt;Node10</title>
<path fill="none" stroke="#191970" d="M680.0558,-59.4114C590.0047,-48.9923 415.1547,-28.7617 319.4878,-17.6928"/>
<polygon fill="#191970" stroke="#191970" points="319.6896,-14.1929 309.3536,-16.5203 318.885,-21.1465 319.6896,-14.1929"/>
</g>
<!-- Node24&#45;&gt;Node13 -->
<g id="edge35" class="edge">
<title>Node24&#45;&gt;Node13</title>
<path fill="none" stroke="#191970" d="M157.4688,-492.3906C149.5953,-484.4527 138.1087,-472.8718 127.9833,-462.6635"/>
<polygon fill="#191970" stroke="#191970" points="130.4494,-460.1797 120.9223,-455.5446 125.4795,-465.1093 130.4494,-460.1797"/>
</g>
<!-- Node25 -->
<g id="node26" class="node">
<title>Node25</title>
<g id="a_node26"><a xlink:href="spec_2packet__types_8h.html" target="_top" xlink:title="ODP packet types. ">
<polygon fill="#ffffff" stroke="#000000" points="274,-425.5 274,-455.5 388,-455.5 388,-425.5 274,-425.5"/>
<text text-anchor="start" x="282" y="-443.5" font-family="Helvetica,sans-Serif" font-size="10.00" fill="#000000">odp/api/spec/packet</text>
<text text-anchor="middle" x="331" y="-432.5" font-family="Helvetica,sans-Serif" font-size="10.00" fill="#000000">_types.h</text>
</a>
</g>
</g>
<!-- Node24&#45;&gt;Node25 -->
<g id="edge36" class="edge">
<title>Node24&#45;&gt;Node25</title>
<path fill="none" stroke="#191970" d="M192.625,-492.3906C216.259,-483.5279 252.0028,-470.1239 281.2416,-459.1594"/>
<polygon fill="#191970" stroke="#191970" points="282.7467,-462.333 290.8811,-455.5446 280.2888,-455.7787 282.7467,-462.333"/>
</g>
<!-- Node25&#45;&gt;Node1 -->
<g id="edge37" class="edge">
<title>Node25&#45;&gt;Node1</title>
<path fill="none" stroke="#191970" d="M352.9432,-425.4825C367.5547,-415.3698 387.1011,-401.6241 404,-389 418.0689,-378.49 512.9489,-300.0477 528,-291 562.1129,-270.4937 580.2528,-281.4443 610,-255 637.5445,-230.5138 652,-220.3547 652,-183.5 652,-183.5 652,-183.5 652,-122 652,-91.3494 654.0769,-80.864 672,-56 681.3024,-43.0952 695.3749,-32.4976 708.0498,-24.7404"/>
<polygon fill="#191970" stroke="#191970" points="710.0363,-27.6349 716.9439,-19.6016 706.5343,-21.5739 710.0363,-27.6349"/>
</g>
<!-- Node25&#45;&gt;Node10 -->
<g id="edge57" class="edge">
<title>Node25&#45;&gt;Node10</title>
<path fill="none" stroke="#191970" d="M281.5311,-425.484C207.3757,-401.472 76,-352.4477 76,-306.5 76,-306.5 76,-306.5 76,-122 76,-65.4608 141.2889,-36.2861 192.5614,-22.0919"/>
<polygon fill="#191970" stroke="#191970" points="193.5011,-25.4639 202.2789,-19.5309 191.7171,-18.695 193.5011,-25.4639"/>
</g>
<!-- Node25&#45;&gt;Node18 -->
<g id="edge38" class="edge">
<title>Node25&#45;&gt;Node18</title>
<path fill="none" stroke="#191970" d="M388.3482,-427.819C439.7647,-416.4497 515.1518,-399.78 568.8329,-387.9099"/>
<polygon fill="#191970" stroke="#191970" points="569.9208,-391.2539 578.9293,-385.6774 568.4094,-384.419 569.9208,-391.2539"/>
</g>
<!-- Node26 -->
<g id="node27" class="node">
<title>Node26</title>
<g id="a_node27"><a xlink:href="queue__types_8h.html" target="_top" xlink:title="ODP queue. ">
<polygon fill="#ffffff" stroke="#000000" points="267.5,-364 267.5,-383 394.5,-383 394.5,-364 267.5,-364"/>
<text text-anchor="middle" x="331" y="-371" font-family="Helvetica,sans-Serif" font-size="10.00" fill="#000000">odp/api/queue_types.h</text>
</a>
</g>
</g>
<!-- Node25&#45;&gt;Node26 -->
<g id="edge39" class="edge">
<title>Node25&#45;&gt;Node26</title>
<path fill="none" stroke="#191970" d="M331,-425.2967C331,-415.7699 331,-403.3954 331,-393.1306"/>
<polygon fill="#191970" stroke="#191970" points="334.5001,-393.0549 331,-383.055 327.5001,-393.055 334.5001,-393.0549"/>
</g>
<!-- Node27 -->
<g id="node28" class="node">
<title>Node27</title>
<polygon fill="#ffffff" stroke="#bfbfbf" points="331.5,-297 331.5,-316 476.5,-316 476.5,-297 331.5,-297"/>
<text text-anchor="middle" x="404" y="-304" font-family="Helvetica,sans-Serif" font-size="10.00" fill="#000000">odp/api/abi/queue_types.h</text>
</g>
<!-- Node26&#45;&gt;Node27 -->
<g id="edge40" class="edge">
<title>Node26&#45;&gt;Node27</title>
<path fill="none" stroke="#191970" d="M341.4591,-363.9005C353.0597,-353.2535 371.9829,-335.8856 385.9805,-323.0385"/>
<polygon fill="#191970" stroke="#191970" points="388.5596,-325.4221 393.5603,-316.0817 383.8263,-320.2649 388.5596,-325.4221"/>
</g>
<!-- Node28 -->
<g id="node29" class="node">
<title>Node28</title>
<g id="a_node29"><a xlink:href="spec_2queue__types_8h.html" target="_top" xlink:title="ODP queue types. ">
<polygon fill="#ffffff" stroke="#000000" points="202.5,-291.5 202.5,-321.5 313.5,-321.5 313.5,-291.5 202.5,-291.5"/>
<text text-anchor="start" x="210.5" y="-309.5" font-family="Helvetica,sans-Serif" font-size="10.00" fill="#000000">odp/api/spec/queue</text>
<text text-anchor="middle" x="258" y="-298.5" font-family="Helvetica,sans-Serif" font-size="10.00" fill="#000000">_types.h</text>
</a>
</g>
</g>
<!-- Node26&#45;&gt;Node28 -->
<g id="edge41" class="edge">
<title>Node26&#45;&gt;Node28</title>
<path fill="none" stroke="#191970" d="M320.5409,-363.9005C310.5506,-354.7313 295.1293,-340.5776 282.1003,-328.6195"/>
<polygon fill="#191970" stroke="#191970" points="284.101,-325.705 274.367,-321.5218 279.3677,-330.8622 284.101,-325.705"/>
</g>
<!-- Node28&#45;&gt;Node1 -->
<g id="edge42" class="edge">
<title>Node28&#45;&gt;Node1</title>
<path fill="none" stroke="#191970" d="M313.6692,-293.2249C316.8259,-292.4722 319.9531,-291.7265 323,-291 457.1164,-259.0218 614,-321.3761 614,-183.5 614,-183.5 614,-183.5 614,-122 614,-90.7875 616.9008,-79.001 638,-56 651.9645,-40.7768 671.985,-30.1778 690.3729,-23.025"/>
<polygon fill="#191970" stroke="#191970" points="691.6002,-26.303 699.799,-19.5924 689.205,-19.7255 691.6002,-26.303"/>
</g>
<!-- Node28&#45;&gt;Node10 -->
<g id="edge56" class="edge">
<title>Node28&#45;&gt;Node10</title>
<path fill="none" stroke="#191970" d="M202.2245,-293.3542C179.6559,-285.535 154.9772,-273.4213 138,-255 115.2835,-230.3512 114,-217.0202 114,-183.5 114,-183.5 114,-183.5 114,-122 114,-90.7875 116.2824,-78.418 138,-56 153.435,-40.0672 175.1051,-29.5055 195.4784,-22.5734"/>
<polygon fill="#191970" stroke="#191970" points="196.5553,-25.9038 205.0306,-19.5461 194.4405,-19.2309 196.5553,-25.9038"/>
</g>
<!-- Node29 -->
<g id="node30" class="node">
<title>Node29</title>
<g id="a_node30"><a xlink:href="schedule__types_8h.html" target="_top" xlink:title="ODP schedule. ">
<polygon fill="#ffffff" stroke="#000000" points="325,-235.5 325,-254.5 465,-254.5 465,-235.5 325,-235.5"/>
<text text-anchor="middle" x="395" y="-242.5" font-family="Helvetica,sans-Serif" font-size="10.00" fill="#000000">odp/api/schedule_types.h</text>
</a>
</g>
</g>
<!-- Node28&#45;&gt;Node29 -->
<g id="edge43" class="edge">
<title>Node28&#45;&gt;Node29</title>
<path fill="none" stroke="#191970" d="M291.514,-291.4554C313.7712,-281.464 342.7647,-268.4487 364.3985,-258.7372"/>
<polygon fill="#191970" stroke="#191970" points="366.0803,-261.8187 373.7699,-254.5303 363.2135,-255.4327 366.0803,-261.8187"/>
</g>
<!-- Node34 -->
<g id="node35" class="node">
<title>Node34</title>
<g id="a_node35"><a xlink:href="deprecated_8h.html" target="_top" xlink:title="Control deprecated API definitions. ">
<polygon fill="#ffffff" stroke="#000000" points="187.5,-235.5 187.5,-254.5 306.5,-254.5 306.5,-235.5 187.5,-235.5"/>
<text text-anchor="middle" x="247" y="-242.5" font-family="Helvetica,sans-Serif" font-size="10.00" fill="#000000">odp/api/deprecated.h</text>
</a>
</g>
</g>
<!-- Node28&#45;&gt;Node34 -->
<g id="edge52" class="edge">
<title>Node28&#45;&gt;Node34</title>
<path fill="none" stroke="#191970" d="M255.2809,-291.2977C253.8494,-283.2945 252.0769,-273.3843 250.5395,-264.7889"/>
<polygon fill="#191970" stroke="#191970" points="253.9673,-264.0744 248.7612,-254.8469 247.0767,-265.307 253.9673,-264.0744"/>
</g>
<!-- Node30 -->
<g id="node31" class="node">
<title>Node30</title>
<polygon fill="#ffffff" stroke="#bfbfbf" points="275.5,-168.5 275.5,-198.5 392.5,-198.5 392.5,-168.5 275.5,-168.5"/>
<text text-anchor="start" x="283.5" y="-186.5" font-family="Helvetica,sans-Serif" font-size="10.00" fill="#000000">odp/api/abi/schedule</text>
<text text-anchor="middle" x="334" y="-175.5" font-family="Helvetica,sans-Serif" font-size="10.00" fill="#000000">_types.h</text>
</g>
<!-- Node29&#45;&gt;Node30 -->
<g id="edge44" class="edge">
<title>Node29&#45;&gt;Node30</title>
<path fill="none" stroke="#191970" d="M385.4688,-235.3906C377.5953,-227.4527 366.1087,-215.8718 355.9833,-205.6635"/>
<polygon fill="#191970" stroke="#191970" points="358.4494,-203.1797 348.9223,-198.5446 353.4795,-208.1093 358.4494,-203.1797"/>
</g>
<!-- Node31 -->
<g id="node32" class="node">
<title>Node31</title>
<g id="a_node32"><a xlink:href="spec_2schedule__types_8h.html" target="_top" xlink:title="ODP schedule types. ">
<polygon fill="#ffffff" stroke="#000000" points="410.5,-168.5 410.5,-198.5 535.5,-198.5 535.5,-168.5 410.5,-168.5"/>
<text text-anchor="start" x="418.5" y="-186.5" font-family="Helvetica,sans-Serif" font-size="10.00" fill="#000000">odp/api/spec/schedule</text>
<text text-anchor="middle" x="473" y="-175.5" font-family="Helvetica,sans-Serif" font-size="10.00" fill="#000000">_types.h</text>
</a>
</g>
</g>
<!-- Node29&#45;&gt;Node31 -->
<g id="edge45" class="edge">
<title>Node29&#45;&gt;Node31</title>
<path fill="none" stroke="#191970" d="M407.1875,-235.3906C417.5484,-227.2215 432.8026,-215.1941 446.0169,-204.7752"/>
<polygon fill="#191970" stroke="#191970" points="448.2334,-207.4846 453.9191,-198.5446 443.8993,-201.9877 448.2334,-207.4846"/>
</g>
<!-- Node31&#45;&gt;Node1 -->
<g id="edge46" class="edge">
<title>Node31&#45;&gt;Node1</title>
<path fill="none" stroke="#191970" d="M486.3722,-168.4333C513.3619,-138.3089 573.9882,-72.1509 600,-56 625.0432,-40.4505 655.9559,-29.4847 682.0758,-22.1705"/>
<polygon fill="#191970" stroke="#191970" points="683.0835,-25.5239 691.8295,-19.5441 681.2634,-18.7647 683.0835,-25.5239"/>
</g>
<!-- Node31&#45;&gt;Node10 -->
<g id="edge51" class="edge">
<title>Node31&#45;&gt;Node10</title>
<path fill="none" stroke="#191970" d="M447.3969,-168.4177C432.2644,-158.9125 413.1608,-145.8484 398,-132 365.6059,-102.4102 368.6993,-84.0944 335,-56 319.5934,-43.1558 300.0838,-32.0435 283.96,-23.9598"/>
<polygon fill="#191970" stroke="#191970" points="285.438,-20.7866 274.9144,-19.56 282.3762,-27.0815 285.438,-20.7866"/>
</g>
<!-- Node32 -->
<g id="node33" class="node">
<title>Node32</title>
<g id="a_node33"><a xlink:href="support_8h.html" target="_top" xlink:title="ODP support API &#45; platform specific header. ">
<polygon fill="#ffffff" stroke="#000000" points="406.5,-112.5 406.5,-131.5 507.5,-131.5 507.5,-112.5 406.5,-112.5"/>
<text text-anchor="middle" x="457" y="-119.5" font-family="Helvetica,sans-Serif" font-size="10.00" fill="#000000">odp/api/support.h</text>
</a>
</g>
</g>
<!-- Node31&#45;&gt;Node32 -->
<g id="edge47" class="edge">
<title>Node31&#45;&gt;Node32</title>
<path fill="none" stroke="#191970" d="M469.0449,-168.2977C466.9628,-160.2945 464.3845,-150.3843 462.1483,-141.7889"/>
<polygon fill="#191970" stroke="#191970" points="465.4669,-140.6435 459.5618,-131.8469 458.6924,-142.406 465.4669,-140.6435"/>
</g>
<!-- Node33 -->
<g id="node34" class="node">
<title>Node33</title>
<g id="a_node34"><a xlink:href="spec_2support_8h.html" target="_top" xlink:title="ODP support API. ">
<polygon fill="#ffffff" stroke="#000000" points="382.5,-56.5 382.5,-75.5 509.5,-75.5 509.5,-56.5 382.5,-56.5"/>
<text text-anchor="middle" x="446" y="-63.5" font-family="Helvetica,sans-Serif" font-size="10.00" fill="#000000">odp/api/spec/support.h</text>
</a>
</g>
</g>
<!-- Node32&#45;&gt;Node33 -->
<g id="edge48" class="edge">
<title>Node32&#45;&gt;Node33</title>
<path fill="none" stroke="#191970" d="M455.0839,-112.2455C453.6486,-104.9382 451.6364,-94.6944 449.8705,-85.7046"/>
<polygon fill="#191970" stroke="#191970" points="453.256,-84.7805 447.8941,-75.6427 446.3873,-86.1298 453.256,-84.7805"/>
</g>
<!-- Node33&#45;&gt;Node1 -->
<g id="edge49" class="edge">
<title>Node33&#45;&gt;Node1</title>
<path fill="none" stroke="#191970" d="M495.694,-56.4369C546.0196,-46.7522 623.8723,-31.7703 677.4651,-21.4569"/>
<polygon fill="#191970" stroke="#191970" points="678.3525,-24.8504 687.5109,-19.5237 677.0297,-17.9765 678.3525,-24.8504"/>
</g>
<!-- Node33&#45;&gt;Node10 -->
<g id="edge50" class="edge">
<title>Node33&#45;&gt;Node10</title>
<path fill="none" stroke="#191970" d="M412.8221,-56.3733C380.4513,-46.9807 331.0602,-32.6496 295.7576,-22.4064"/>
<polygon fill="#191970" stroke="#191970" points="296.3242,-18.9264 285.7449,-19.5011 294.3735,-25.6492 296.3242,-18.9264"/>
</g>
<!-- Node35 -->
<g id="node36" class="node">
<title>Node35</title>
<g id="a_node36"><a xlink:href="spec_2deprecated_8h.html" target="_top" xlink:title="Macro for deprecated API definitions. ">
<polygon fill="#ffffff" stroke="#000000" points="180.5,-56.5 180.5,-75.5 325.5,-75.5 325.5,-56.5 180.5,-56.5"/>
<text text-anchor="middle" x="253" y="-63.5" font-family="Helvetica,sans-Serif" font-size="10.00" fill="#000000">odp/api/spec/deprecated.h</text>
</a>
</g>
</g>
<!-- Node34&#45;&gt;Node35 -->
<g id="edge53" class="edge">
<title>Node34&#45;&gt;Node35</title>
<path fill="none" stroke="#191970" d="M247.3226,-235.3762C248.2667,-207.2097 251.0387,-124.5126 252.3272,-86.0713"/>
<polygon fill="#191970" stroke="#191970" points="255.8388,-85.7831 252.6758,-75.6714 248.8427,-85.5485 255.8388,-85.7831"/>
</g>
<!-- Node35&#45;&gt;Node1 -->
<g id="edge54" class="edge">
<title>Node35&#45;&gt;Node1</title>
<path fill="none" stroke="#191970" d="M325.7215,-57.5859C417.8003,-46.9322 575.3849,-28.6993 666.4296,-18.1652"/>
<polygon fill="#191970" stroke="#191970" points="666.8498,-21.64 676.3812,-17.0137 666.0452,-14.6864 666.8498,-21.64"/>
</g>
<!-- Node35&#45;&gt;Node10 -->
<g id="edge55" class="edge">
<title>Node35&#45;&gt;Node10</title>
<path fill="none" stroke="#191970" d="M253,-56.2455C253,-48.9382 253,-38.6944 253,-29.7046"/>
<polygon fill="#191970" stroke="#191970" points="256.5001,-29.6426 253,-19.6427 249.5001,-29.6427 256.5001,-29.6426"/>
</g>
</g>
</svg>
