<?xml version="1.0" encoding="UTF-8" standalone="no"?>
<!DOCTYPE svg PUBLIC "-//W3C//DTD SVG 1.1//EN"
 "http://www.w3.org/Graphics/SVG/1.1/DTD/svg11.dtd">
<!-- Generated by graphviz version 2.40.1 (20161225.0304)
 -->
<!-- Title: crypto.h Pages: 1 -->
<svg width="1265pt" height="688pt"
 viewBox="0.00 0.00 1265.00 688.00" xmlns="http://www.w3.org/2000/svg" xmlns:xlink="http://www.w3.org/1999/xlink">
<g id="graph0" class="graph" transform="scale(1 1) rotate(0) translate(4 684)">
<title>crypto.h</title>
<polygon fill="#ffffff" stroke="transparent" points="-4,4 -4,-684 1261,-684 1261,4 -4,4"/>
<!-- Node0 -->
<g id="node1" class="node">
<title>Node0</title>
<polygon fill="#bfbfbf" stroke="#000000" points="1008,-660.5 1008,-679.5 1064,-679.5 1064,-660.5 1008,-660.5"/>
<text text-anchor="middle" x="1036" y="-667.5" font-family="Helvetica,sans-Serif" font-size="10.00" fill="#000000">crypto.h</text>
</g>
<!-- Node1 -->
<g id="node2" class="node">
<title>Node1</title>
<polygon fill="#ffffff" stroke="#bfbfbf" points="943.5,-.5 943.5,-19.5 1064.5,-19.5 1064.5,-.5 943.5,-.5"/>
<text text-anchor="middle" x="1004" y="-7.5" font-family="Helvetica,sans-Serif" font-size="10.00" fill="#000000">odp/visibility_begin.h</text>
</g>
<!-- Node0&#45;&gt;Node1 -->
<g id="edge1" class="edge">
<title>Node0&#45;&gt;Node1</title>
<path fill="none" stroke="#191970" d="M1064.4395,-668.5097C1124.128,-663.6933 1257,-643.3826 1257,-558 1257,-558 1257,-558 1257,-122 1257,-84.6561 1236.5555,-75.9704 1205,-56 1183.4216,-42.3438 1123.4657,-29.6217 1074.6107,-21.0342"/>
<polygon fill="#191970" stroke="#191970" points="1075.1375,-17.5734 1064.6875,-19.3192 1073.9454,-24.4711 1075.1375,-17.5734"/>
</g>
<!-- Node2 -->
<g id="node3" class="node">
<title>Node2</title>
<g id="a_node3"><a xlink:href="deprecated_8h.html" target="_top" xlink:title="Control deprecated API definitions. ">
<polygon fill="#ffffff" stroke="#000000" points="1033.5,-235.5 1033.5,-254.5 1152.5,-254.5 1152.5,-235.5 1033.5,-235.5"/>
<text text-anchor="middle" x="1093" y="-242.5" font-family="Helvetica,sans-Serif" font-size="10.00" fill="#000000">odp/api/deprecated.h</text>
</a>
</g>
</g>
<!-- Node0&#45;&gt;Node2 -->
<g id="edge2" class="edge">
<title>Node0&#45;&gt;Node2</title>
<path fill="none" stroke="#191970" d="M1043.7458,-660.4815C1058.0129,-641.9535 1087,-599.2353 1087,-558 1087,-558 1087,-558 1087,-373.5 1087,-334.9593 1089.7265,-289.9871 1091.5036,-264.7679"/>
<polygon fill="#191970" stroke="#191970" points="1095.0037,-264.8927 1092.2401,-254.6647 1088.0222,-264.3837 1095.0037,-264.8927"/>
</g>
<!-- Node4 -->
<g id="node5" class="node">
<title>Node4</title>
<polygon fill="#ffffff" stroke="#bfbfbf" points="465,-.5 465,-19.5 577,-19.5 577,-.5 465,-.5"/>
<text text-anchor="middle" x="521" y="-7.5" font-family="Helvetica,sans-Serif" font-size="10.00" fill="#000000">odp/visibility_end.h</text>
</g>
<!-- Node0&#45;&gt;Node4 -->
<g id="edge61" class="edge">
<title>Node0&#45;&gt;Node4</title>
<path fill="none" stroke="#191970" d="M1030.393,-660.4834C1019.8226,-641.6141 998,-597.8343 998,-558 998,-558 998,-558 998,-440.5 998,-319.1429 843.5683,-401.6417 752,-322 702.4261,-278.883 701.5846,-256.6112 670,-199 636.6132,-138.1015 654.2027,-106.9433 607,-56 593.8204,-41.776 575.2217,-31.0725 558.6901,-23.5863"/>
<polygon fill="#191970" stroke="#191970" points="559.8226,-20.264 549.252,-19.548 557.069,-26.6996 559.8226,-20.264"/>
</g>
<!-- Node5 -->
<g id="node6" class="node">
<title>Node5</title>
<g id="a_node6"><a xlink:href="support_8h.html" target="_top" xlink:title="ODP support API &#45; platform specific header. ">
<polygon fill="#ffffff" stroke="#000000" points="799.5,-112.5 799.5,-131.5 900.5,-131.5 900.5,-112.5 799.5,-112.5"/>
<text text-anchor="middle" x="850" y="-119.5" font-family="Helvetica,sans-Serif" font-size="10.00" fill="#000000">odp/api/support.h</text>
</a>
</g>
</g>
<!-- Node0&#45;&gt;Node5 -->
<g id="edge6" class="edge">
<title>Node0&#45;&gt;Node5</title>
<path fill="none" stroke="#191970" d="M1036,-660.4116C1036,-641.0538 1036,-595.9167 1036,-558 1036,-558 1036,-558 1036,-440.5 1036,-385.9382 983.2264,-207.488 948,-168 934.4249,-152.7826 914.753,-142.2013 896.5909,-135.0598"/>
<polygon fill="#191970" stroke="#191970" points="897.5824,-131.6955 886.9888,-131.5357 895.1706,-138.2669 897.5824,-131.6955"/>
</g>
<!-- Node7 -->
<g id="node8" class="node">
<title>Node7</title>
<g id="a_node8"><a xlink:href="packet_8h.html" target="_top" xlink:title="ODP packet descriptor. ">
<polygon fill="#ffffff" stroke="#000000" points="533,-604.5 533,-623.5 631,-623.5 631,-604.5 533,-604.5"/>
<text text-anchor="middle" x="582" y="-611.5" font-family="Helvetica,sans-Serif" font-size="10.00" fill="#000000">odp/api/packet.h</text>
</a>
</g>
</g>
<!-- Node0&#45;&gt;Node7 -->
<g id="edge10" class="edge">
<title>Node0&#45;&gt;Node7</title>
<path fill="none" stroke="#191970" d="M1007.9429,-666.5392C935.4034,-657.5916 740.4224,-633.5411 641.4225,-621.3296"/>
<polygon fill="#191970" stroke="#191970" points="641.6355,-617.8295 631.2822,-620.0789 640.7785,-624.7768 641.6355,-617.8295"/>
</g>
<!-- Node3 -->
<g id="node4" class="node">
<title>Node3</title>
<g id="a_node4"><a xlink:href="spec_2deprecated_8h.html" target="_top" xlink:title="Macro for deprecated API definitions. ">
<polygon fill="#ffffff" stroke="#000000" points="931.5,-56.5 931.5,-75.5 1076.5,-75.5 1076.5,-56.5 931.5,-56.5"/>
<text text-anchor="middle" x="1004" y="-63.5" font-family="Helvetica,sans-Serif" font-size="10.00" fill="#000000">odp/api/spec/deprecated.h</text>
</a>
</g>
</g>
<!-- Node2&#45;&gt;Node3 -->
<g id="edge3" class="edge">
<title>Node2&#45;&gt;Node3</title>
<path fill="none" stroke="#191970" d="M1088.215,-235.3762C1074.0897,-206.9669 1032.3819,-123.0828 1013.4902,-85.0871"/>
<polygon fill="#191970" stroke="#191970" points="1016.3948,-83.0674 1008.8087,-75.6714 1010.1269,-86.1839 1016.3948,-83.0674"/>
</g>
<!-- Node3&#45;&gt;Node1 -->
<g id="edge4" class="edge">
<title>Node3&#45;&gt;Node1</title>
<path fill="none" stroke="#191970" d="M1004,-56.2455C1004,-48.9382 1004,-38.6944 1004,-29.7046"/>
<polygon fill="#191970" stroke="#191970" points="1007.5001,-29.6426 1004,-19.6427 1000.5001,-29.6427 1007.5001,-29.6426"/>
</g>
<!-- Node3&#45;&gt;Node4 -->
<g id="edge5" class="edge">
<title>Node3&#45;&gt;Node4</title>
<path fill="none" stroke="#191970" d="M931.146,-56.9746C928.396,-56.6438 925.6733,-56.318 923,-56 805.005,-41.9657 667.4272,-26.3941 587.6633,-17.4443"/>
<polygon fill="#191970" stroke="#191970" points="587.604,-13.9158 577.2762,-16.2796 586.8239,-20.8722 587.604,-13.9158"/>
</g>
<!-- Node6 -->
<g id="node7" class="node">
<title>Node6</title>
<g id="a_node7"><a xlink:href="spec_2support_8h.html" target="_top" xlink:title="ODP support API. ">
<polygon fill="#ffffff" stroke="#000000" points="786.5,-56.5 786.5,-75.5 913.5,-75.5 913.5,-56.5 786.5,-56.5"/>
<text text-anchor="middle" x="850" y="-63.5" font-family="Helvetica,sans-Serif" font-size="10.00" fill="#000000">odp/api/spec/support.h</text>
</a>
</g>
</g>
<!-- Node5&#45;&gt;Node6 -->
<g id="edge7" class="edge">
<title>Node5&#45;&gt;Node6</title>
<path fill="none" stroke="#191970" d="M850,-112.2455C850,-104.9382 850,-94.6944 850,-85.7046"/>
<polygon fill="#191970" stroke="#191970" points="853.5001,-85.6426 850,-75.6427 846.5001,-85.6427 853.5001,-85.6426"/>
</g>
<!-- Node6&#45;&gt;Node1 -->
<g id="edge8" class="edge">
<title>Node6&#45;&gt;Node1</title>
<path fill="none" stroke="#191970" d="M876.4735,-56.3733C901.8597,-47.1419 940.3645,-33.1402 968.422,-22.9375"/>
<polygon fill="#191970" stroke="#191970" points="969.6701,-26.2079 977.8719,-19.5011 967.2778,-19.6293 969.6701,-26.2079"/>
</g>
<!-- Node6&#45;&gt;Node4 -->
<g id="edge9" class="edge">
<title>Node6&#45;&gt;Node4</title>
<path fill="none" stroke="#191970" d="M793.8167,-56.4369C736.5646,-46.6918 647.8013,-31.5832 587.1787,-21.2645"/>
<polygon fill="#191970" stroke="#191970" points="587.3971,-17.7514 576.9516,-19.5237 586.2225,-24.6521 587.3971,-17.7514"/>
</g>
<!-- Node8 -->
<g id="node9" class="node">
<title>Node8</title>
<g id="a_node9"><a xlink:href="std__types_8h.html" target="_top" xlink:title="Standard C language types and definitions for ODP. ">
<polygon fill="#ffffff" stroke="#000000" points="161,-235.5 161,-254.5 273,-254.5 273,-235.5 161,-235.5"/>
<text text-anchor="middle" x="217" y="-242.5" font-family="Helvetica,sans-Serif" font-size="10.00" fill="#000000">odp/api/std_types.h</text>
</a>
</g>
</g>
<!-- Node7&#45;&gt;Node8 -->
<g id="edge11" class="edge">
<title>Node7&#45;&gt;Node8</title>
<path fill="none" stroke="#191970" d="M532.9338,-611.8193C433.2843,-606.9168 210.5923,-593.4165 139,-568 88.4668,-550.0599 38,-555.6233 38,-502 38,-502 38,-502 38,-373.5 38,-335.8735 31.1165,-318.3093 57,-291 70.4149,-276.8462 114.1434,-264.8326 152.5007,-256.6356"/>
<polygon fill="#191970" stroke="#191970" points="153.5509,-259.9923 162.6296,-254.5308 152.1266,-253.1387 153.5509,-259.9923"/>
</g>
<!-- Node15 -->
<g id="node16" class="node">
<title>Node15</title>
<polygon fill="#ffffff" stroke="#bfbfbf" points="860,-548.5 860,-567.5 970,-567.5 970,-548.5 860,-548.5"/>
<text text-anchor="middle" x="915" y="-555.5" font-family="Helvetica,sans-Serif" font-size="10.00" fill="#000000">odp/api/abi/event.h</text>
</g>
<!-- Node7&#45;&gt;Node15 -->
<g id="edge22" class="edge">
<title>Node7&#45;&gt;Node15</title>
<path fill="none" stroke="#191970" d="M631.1353,-605.737C689.0941,-595.9902 785.6578,-579.7512 849.8245,-568.9604"/>
<polygon fill="#191970" stroke="#191970" points="850.5527,-572.3872 859.8338,-567.2772 849.3918,-565.4841 850.5527,-572.3872"/>
</g>
<!-- Node16 -->
<g id="node17" class="node">
<title>Node16</title>
<polygon fill="#ffffff" stroke="#bfbfbf" points="148,-548.5 148,-567.5 278,-567.5 278,-548.5 148,-548.5"/>
<text text-anchor="middle" x="213" y="-555.5" font-family="Helvetica,sans-Serif" font-size="10.00" fill="#000000">odp/api/abi/packet_io.h</text>
</g>
<!-- Node7&#45;&gt;Node16 -->
<g id="edge23" class="edge">
<title>Node7&#45;&gt;Node16</title>
<path fill="none" stroke="#191970" d="M532.9996,-606.5636C469.713,-596.9592 359.021,-580.1604 285.8604,-569.0574"/>
<polygon fill="#191970" stroke="#191970" points="286.207,-565.57 275.795,-567.5299 285.1566,-572.4908 286.207,-565.57"/>
</g>
<!-- Node17 -->
<g id="node18" class="node">
<title>Node17</title>
<polygon fill="#ffffff" stroke="#bfbfbf" points="528.5,-425.5 528.5,-455.5 635.5,-455.5 635.5,-425.5 528.5,-425.5"/>
<text text-anchor="start" x="536.5" y="-443.5" font-family="Helvetica,sans-Serif" font-size="10.00" fill="#000000">odp/api/abi/packet</text>
<text text-anchor="middle" x="582" y="-432.5" font-family="Helvetica,sans-Serif" font-size="10.00" fill="#000000">_types.h</text>
</g>
<!-- Node7&#45;&gt;Node17 -->
<g id="edge24" class="edge">
<title>Node7&#45;&gt;Node17</title>
<path fill="none" stroke="#191970" d="M582,-604.4248C582,-578.256 582,-504.8895 582,-465.7855"/>
<polygon fill="#191970" stroke="#191970" points="585.5001,-465.7324 582,-455.7325 578.5001,-465.7325 585.5001,-465.7324"/>
</g>
<!-- Node18 -->
<g id="node19" class="node">
<title>Node18</title>
<polygon fill="#ffffff" stroke="#bfbfbf" points="438,-548.5 438,-567.5 554,-567.5 554,-548.5 438,-548.5"/>
<text text-anchor="middle" x="496" y="-555.5" font-family="Helvetica,sans-Serif" font-size="10.00" fill="#000000">odp/api/abi/packet.h</text>
</g>
<!-- Node7&#45;&gt;Node18 -->
<g id="edge25" class="edge">
<title>Node7&#45;&gt;Node18</title>
<path fill="none" stroke="#191970" d="M567.0199,-604.2455C553.8249,-595.6534 534.3949,-583.0014 519.1921,-573.1018"/>
<polygon fill="#191970" stroke="#191970" points="521.0983,-570.1665 510.8084,-567.6427 517.2785,-576.0325 521.0983,-570.1665"/>
</g>
<!-- Node19 -->
<g id="node20" class="node">
<title>Node19</title>
<polygon fill="#ffffff" stroke="#bfbfbf" points="610,-548.5 610,-567.5 720,-567.5 720,-548.5 610,-548.5"/>
<text text-anchor="middle" x="665" y="-555.5" font-family="Helvetica,sans-Serif" font-size="10.00" fill="#000000">odp/api/abi/buffer.h</text>
</g>
<!-- Node7&#45;&gt;Node19 -->
<g id="edge26" class="edge">
<title>Node7&#45;&gt;Node19</title>
<path fill="none" stroke="#191970" d="M596.4575,-604.2455C609.0732,-595.7337 627.5944,-583.2375 642.2045,-573.3801"/>
<polygon fill="#191970" stroke="#191970" points="644.3761,-576.1371 650.7082,-567.6427 640.4609,-570.3343 644.3761,-576.1371"/>
</g>
<!-- Node20 -->
<g id="node21" class="node">
<title>Node20</title>
<polygon fill="#ffffff" stroke="#bfbfbf" points="738,-548.5 738,-567.5 842,-567.5 842,-548.5 738,-548.5"/>
<text text-anchor="middle" x="790" y="-555.5" font-family="Helvetica,sans-Serif" font-size="10.00" fill="#000000">odp/api/abi/pool.h</text>
</g>
<!-- Node7&#45;&gt;Node20 -->
<g id="edge27" class="edge">
<title>Node7&#45;&gt;Node20</title>
<path fill="none" stroke="#191970" d="M617.7565,-604.3733C652.9426,-594.9001 706.7881,-580.4032 744.8956,-570.1435"/>
<polygon fill="#191970" stroke="#191970" points="745.9639,-573.4806 754.7101,-567.5011 744.144,-566.7213 745.9639,-573.4806"/>
</g>
<!-- Node21 -->
<g id="node22" class="node">
<title>Node21</title>
<g id="a_node22"><a xlink:href="spec_2packet_8h.html" target="_top" xlink:title="ODP packet descriptor. ">
<polygon fill="#ffffff" stroke="#000000" points="296.5,-548.5 296.5,-567.5 419.5,-567.5 419.5,-548.5 296.5,-548.5"/>
<text text-anchor="middle" x="358" y="-555.5" font-family="Helvetica,sans-Serif" font-size="10.00" fill="#000000">odp/api/spec/packet.h</text>
</a>
</g>
</g>
<!-- Node7&#45;&gt;Node21 -->
<g id="edge28" class="edge">
<title>Node7&#45;&gt;Node21</title>
<path fill="none" stroke="#191970" d="M543.7475,-604.4369C505.6533,-594.9133 447.0687,-580.2672 405.9013,-569.9753"/>
<polygon fill="#191970" stroke="#191970" points="406.645,-566.5536 396.0947,-567.5237 404.9472,-573.3446 406.645,-566.5536"/>
</g>
<!-- Node9 -->
<g id="node10" class="node">
<title>Node9</title>
<polygon fill="#ffffff" stroke="#bfbfbf" points="184,-174 184,-193 314,-193 314,-174 184,-174"/>
<text text-anchor="middle" x="249" y="-181" font-family="Helvetica,sans-Serif" font-size="10.00" fill="#000000">odp/api/abi/std_types.h</text>
</g>
<!-- Node8&#45;&gt;Node9 -->
<g id="edge12" class="edge">
<title>Node8&#45;&gt;Node9</title>
<path fill="none" stroke="#191970" d="M222,-235.3906C226.5758,-226.5965 233.4781,-213.3312 239.1583,-202.4145"/>
<polygon fill="#191970" stroke="#191970" points="242.4185,-203.7314 243.9295,-193.2449 236.2088,-200.5003 242.4185,-203.7314"/>
</g>
<!-- Node10 -->
<g id="node11" class="node">
<title>Node10</title>
<g id="a_node11"><a xlink:href="spec_2std__types_8h.html" target="_top" xlink:title="Standard C language types and definitions for ODP. ">
<polygon fill="#ffffff" stroke="#000000" points="28.5,-174 28.5,-193 165.5,-193 165.5,-174 28.5,-174"/>
<text text-anchor="middle" x="97" y="-181" font-family="Helvetica,sans-Serif" font-size="10.00" fill="#000000">odp/api/spec/std_types.h</text>
</a>
</g>
</g>
<!-- Node8&#45;&gt;Node10 -->
<g id="edge13" class="edge">
<title>Node8&#45;&gt;Node10</title>
<path fill="none" stroke="#191970" d="M198.25,-235.3906C178.524,-225.2811 147.2688,-209.2628 124.7,-197.6962"/>
<polygon fill="#191970" stroke="#191970" points="126.114,-194.4881 115.6183,-193.0419 122.9213,-200.7176 126.114,-194.4881"/>
</g>
<!-- Node10&#45;&gt;Node1 -->
<g id="edge14" class="edge">
<title>Node10&#45;&gt;Node1</title>
<path fill="none" stroke="#191970" d="M144.8407,-173.9432C154.8057,-171.9666 165.2439,-169.9065 175,-168 433.9514,-117.3978 498.7667,-105.1376 758,-56 820.9009,-44.0772 892.8908,-30.64 942.6682,-21.3816"/>
<polygon fill="#191970" stroke="#191970" points="943.438,-24.7985 952.6297,-19.5295 942.1583,-17.9165 943.438,-24.7985"/>
</g>
<!-- Node10&#45;&gt;Node4 -->
<g id="edge21" class="edge">
<title>Node10&#45;&gt;Node4</title>
<path fill="none" stroke="#191970" d="M95.5732,-173.9764C92.4985,-149.3715 88.3083,-83.6798 126,-56 151.8832,-36.9921 348.7837,-21.3158 454.4477,-14.1685"/>
<polygon fill="#191970" stroke="#191970" points="454.9463,-17.6431 464.6902,-13.4831 454.4788,-10.6587 454.9463,-17.6431"/>
</g>
<!-- Node11 -->
<g id="node12" class="node">
<title>Node11</title>
<polygon fill="#ffffff" stroke="#bfbfbf" points="110.5,-112.5 110.5,-131.5 163.5,-131.5 163.5,-112.5 110.5,-112.5"/>
<text text-anchor="middle" x="137" y="-119.5" font-family="Helvetica,sans-Serif" font-size="10.00" fill="#000000">stdint.h</text>
</g>
<!-- Node10&#45;&gt;Node11 -->
<g id="edge15" class="edge">
<title>Node10&#45;&gt;Node11</title>
<path fill="none" stroke="#191970" d="M103.25,-173.8906C109.0865,-164.917 117.9509,-151.2879 125.1306,-140.2491"/>
<polygon fill="#191970" stroke="#191970" points="128.1436,-142.0361 130.6619,-131.7449 122.2755,-138.2194 128.1436,-142.0361"/>
</g>
<!-- Node12 -->
<g id="node13" class="node">
<title>Node12</title>
<g id="a_node13"><a xlink:href="align_8h.html" target="_top" xlink:title="ODP alignments. ">
<polygon fill="#ffffff" stroke="#000000" points="220.5,-112.5 220.5,-131.5 309.5,-131.5 309.5,-112.5 220.5,-112.5"/>
<text text-anchor="middle" x="265" y="-119.5" font-family="Helvetica,sans-Serif" font-size="10.00" fill="#000000">odp/api/align.h</text>
</a>
</g>
</g>
<!-- Node10&#45;&gt;Node12 -->
<g id="edge16" class="edge">
<title>Node10&#45;&gt;Node12</title>
<path fill="none" stroke="#191970" d="M123.25,-173.8906C151.7293,-163.4652 197.3743,-146.7559 229.1457,-135.1252"/>
<polygon fill="#191970" stroke="#191970" points="230.7469,-138.2663 238.9343,-131.5419 228.3406,-131.6929 230.7469,-138.2663"/>
</g>
<!-- Node13 -->
<g id="node14" class="node">
<title>Node13</title>
<polygon fill="#ffffff" stroke="#bfbfbf" points="168.5,-56.5 168.5,-75.5 275.5,-75.5 275.5,-56.5 168.5,-56.5"/>
<text text-anchor="middle" x="222" y="-63.5" font-family="Helvetica,sans-Serif" font-size="10.00" fill="#000000">odp/api/abi/align.h</text>
</g>
<!-- Node12&#45;&gt;Node13 -->
<g id="edge17" class="edge">
<title>Node12&#45;&gt;Node13</title>
<path fill="none" stroke="#191970" d="M257.51,-112.2455C251.4674,-104.3761 242.8097,-93.101 235.5559,-83.6542"/>
<polygon fill="#191970" stroke="#191970" points="238.2705,-81.4426 229.4042,-75.6427 232.7185,-85.7058 238.2705,-81.4426"/>
</g>
<!-- Node14 -->
<g id="node15" class="node">
<title>Node14</title>
<g id="a_node15"><a xlink:href="spec_2align_8h.html" target="_top" xlink:title="ODP alignments. ">
<polygon fill="#ffffff" stroke="#000000" points="332,-56.5 332,-75.5 446,-75.5 446,-56.5 332,-56.5"/>
<text text-anchor="middle" x="389" y="-63.5" font-family="Helvetica,sans-Serif" font-size="10.00" fill="#000000">odp/api/spec/align.h</text>
</a>
</g>
</g>
<!-- Node12&#45;&gt;Node14 -->
<g id="edge18" class="edge">
<title>Node12&#45;&gt;Node14</title>
<path fill="none" stroke="#191970" d="M286.3164,-112.3733C306.2216,-103.3838 336.1436,-89.8706 358.56,-79.7471"/>
<polygon fill="#191970" stroke="#191970" points="360.2887,-82.8068 367.9618,-75.5011 357.4075,-76.4272 360.2887,-82.8068"/>
</g>
<!-- Node14&#45;&gt;Node1 -->
<g id="edge19" class="edge">
<title>Node14&#45;&gt;Node1</title>
<path fill="none" stroke="#191970" d="M446.2059,-57.0935C449.1776,-56.7056 452.1225,-56.3382 455,-56 626.2224,-35.8781 828.4969,-21.2872 933.2134,-14.414"/>
<polygon fill="#191970" stroke="#191970" points="933.5942,-17.8967 943.3452,-13.7532 933.1385,-10.9116 933.5942,-17.8967"/>
</g>
<!-- Node14&#45;&gt;Node4 -->
<g id="edge20" class="edge">
<title>Node14&#45;&gt;Node4</title>
<path fill="none" stroke="#191970" d="M411.6916,-56.3733C433.0711,-47.3032 465.3057,-33.6279 489.2362,-23.4755"/>
<polygon fill="#191970" stroke="#191970" points="490.7656,-26.6287 498.6045,-19.5011 488.0317,-20.1846 490.7656,-26.6287"/>
</g>
<!-- Node21&#45;&gt;Node1 -->
<g id="edge29" class="edge">
<title>Node21&#45;&gt;Node1</title>
<path fill="none" stroke="#191970" d="M404.5964,-548.438C583.852,-510.3402 1219,-362.7058 1219,-183.5 1219,-183.5 1219,-183.5 1219,-122 1219,-55.5829 1137.3014,-28.4904 1074.6282,-17.4783"/>
<polygon fill="#191970" stroke="#191970" points="1075.1852,-14.0229 1064.7483,-15.8454 1074.0437,-20.9292 1075.1852,-14.0229"/>
</g>
<!-- Node21&#45;&gt;Node4 -->
<g id="edge60" class="edge">
<title>Node21&#45;&gt;Node4</title>
<path fill="none" stroke="#191970" d="M311.9307,-548.4551C215.2406,-525.4402 0,-457.2743 0,-306.5 0,-306.5 0,-306.5 0,-122 0,-66.8799 52.9558,-74.1554 105,-56 167.9303,-34.047 354.2916,-19.9353 454.8667,-13.7"/>
<polygon fill="#191970" stroke="#191970" points="455.1493,-17.1893 464.917,-13.0854 454.722,-10.2024 455.1493,-17.1893"/>
</g>
<!-- Node22 -->
<g id="node23" class="node">
<title>Node22</title>
<g id="a_node23"><a xlink:href="proto__stats__types_8h.html" target="_top" xlink:title="ODP proto stats types. ">
<polygon fill="#ffffff" stroke="#000000" points="306,-358.5 306,-388.5 416,-388.5 416,-358.5 306,-358.5"/>
<text text-anchor="start" x="314" y="-376.5" font-family="Helvetica,sans-Serif" font-size="10.00" fill="#000000">odp/api/proto_stats</text>
<text text-anchor="middle" x="361" y="-365.5" font-family="Helvetica,sans-Serif" font-size="10.00" fill="#000000">_types.h</text>
</a>
</g>
</g>
<!-- Node21&#45;&gt;Node22 -->
<g id="edge30" class="edge">
<title>Node21&#45;&gt;Node22</title>
<path fill="none" stroke="#191970" d="M358.1571,-548.3402C358.6075,-520.6387 359.9144,-440.2663 360.5879,-398.8429"/>
<polygon fill="#191970" stroke="#191970" points="364.0891,-398.7919 360.7523,-388.7363 357.09,-398.6781 364.0891,-398.7919"/>
</g>
<!-- Node25 -->
<g id="node26" class="node">
<title>Node25</title>
<g id="a_node26"><a xlink:href="time_8h.html" target="_top" xlink:title="ODP time. ">
<polygon fill="#ffffff" stroke="#000000" points="66.5,-297 66.5,-316 153.5,-316 153.5,-297 66.5,-297"/>
<text text-anchor="middle" x="110" y="-304" font-family="Helvetica,sans-Serif" font-size="10.00" fill="#000000">odp/api/time.h</text>
</a>
</g>
</g>
<!-- Node21&#45;&gt;Node25 -->
<g id="edge36" class="edge">
<title>Node21&#45;&gt;Node25</title>
<path fill="none" stroke="#191970" d="M348.5809,-548.448C311.3688,-510.7107 174.3006,-371.7081 126.5417,-323.2752"/>
<polygon fill="#191970" stroke="#191970" points="128.942,-320.7245 119.4285,-316.0615 123.9577,-325.6395 128.942,-320.7245"/>
</g>
<!-- Node28 -->
<g id="node29" class="node">
<title>Node28</title>
<g id="a_node29"><a xlink:href="packet__types_8h.html" target="_top" xlink:title="ODP packet. ">
<polygon fill="#ffffff" stroke="#000000" points="388,-492.5 388,-511.5 518,-511.5 518,-492.5 388,-492.5"/>
<text text-anchor="middle" x="453" y="-499.5" font-family="Helvetica,sans-Serif" font-size="10.00" fill="#000000">odp/api/packet_types.h</text>
</a>
</g>
</g>
<!-- Node21&#45;&gt;Node28 -->
<g id="edge42" class="edge">
<title>Node21&#45;&gt;Node28</title>
<path fill="none" stroke="#191970" d="M374.5477,-548.2455C389.2599,-539.5731 410.9888,-526.7645 427.8505,-516.825"/>
<polygon fill="#191970" stroke="#191970" points="429.8046,-519.736 436.6419,-511.6427 426.2498,-513.7057 429.8046,-519.736"/>
</g>
<!-- Node23 -->
<g id="node24" class="node">
<title>Node23</title>
<polygon fill="#ffffff" stroke="#bfbfbf" points="297,-291.5 297,-321.5 425,-321.5 425,-291.5 297,-291.5"/>
<text text-anchor="start" x="305" y="-309.5" font-family="Helvetica,sans-Serif" font-size="10.00" fill="#000000">odp/api/abi/proto_stats</text>
<text text-anchor="middle" x="361" y="-298.5" font-family="Helvetica,sans-Serif" font-size="10.00" fill="#000000">_types.h</text>
</g>
<!-- Node22&#45;&gt;Node23 -->
<g id="edge31" class="edge">
<title>Node22&#45;&gt;Node23</title>
<path fill="none" stroke="#191970" d="M361,-358.2967C361,-350.5013 361,-340.7991 361,-331.9064"/>
<polygon fill="#191970" stroke="#191970" points="364.5001,-331.6431 361,-321.6432 357.5001,-331.6432 364.5001,-331.6431"/>
</g>
<!-- Node24 -->
<g id="node25" class="node">
<title>Node24</title>
<g id="a_node25"><a xlink:href="spec_2proto__stats__types_8h.html" target="_top" xlink:title="ODP proto stats types. ">
<polygon fill="#ffffff" stroke="#000000" points="171.5,-291.5 171.5,-321.5 278.5,-321.5 278.5,-291.5 171.5,-291.5"/>
<text text-anchor="start" x="179.5" y="-309.5" font-family="Helvetica,sans-Serif" font-size="10.00" fill="#000000">odp/api/spec/proto</text>
<text text-anchor="middle" x="225" y="-298.5" font-family="Helvetica,sans-Serif" font-size="10.00" fill="#000000">_stats_types.h</text>
</a>
</g>
</g>
<!-- Node22&#45;&gt;Node24 -->
<g id="edge32" class="edge">
<title>Node22&#45;&gt;Node24</title>
<path fill="none" stroke="#191970" d="M330.4789,-358.4639C311.1045,-348.9191 285.827,-336.4663 264.8743,-326.144"/>
<polygon fill="#191970" stroke="#191970" points="266.407,-322.9974 255.8897,-321.7177 263.3135,-329.2768 266.407,-322.9974"/>
</g>
<!-- Node24&#45;&gt;Node1 -->
<g id="edge33" class="edge">
<title>Node24&#45;&gt;Node1</title>
<path fill="none" stroke="#191970" d="M278.8271,-292.5736C281.9196,-291.9868 284.9931,-291.4552 288,-291 421.6038,-270.775 770.8645,-308.3797 895,-255 948.4392,-232.0205 1062.8709,-129.3746 1086,-76 1096.3542,-52.1057 1069.7737,-34.3625 1044.1689,-23.326"/>
<polygon fill="#191970" stroke="#191970" points="1045.4331,-20.062 1034.85,-19.5645 1042.8129,-26.5531 1045.4331,-20.062"/>
</g>
<!-- Node24&#45;&gt;Node4 -->
<g id="edge35" class="edge">
<title>Node24&#45;&gt;Node4</title>
<path fill="none" stroke="#191970" d="M249.592,-291.4398C288.1996,-265.8958 355.4469,-212.5112 323,-168 292.2002,-125.7484 255.1123,-160.0702 211,-132 176.4706,-110.0277 131.9454,-86.7101 159,-56 178.1871,-34.2205 355.4205,-20.0498 454.5839,-13.7556"/>
<polygon fill="#191970" stroke="#191970" points="455.0458,-17.2336 464.8081,-13.1169 454.6093,-10.2472 455.0458,-17.2336"/>
</g>
<!-- Node24&#45;&gt;Node8 -->
<g id="edge34" class="edge">
<title>Node24&#45;&gt;Node8</title>
<path fill="none" stroke="#191970" d="M223.0225,-291.2977C221.9814,-283.2945 220.6923,-273.3843 219.5742,-264.7889"/>
<polygon fill="#191970" stroke="#191970" points="223.0417,-264.3119 218.2809,-254.8469 216.1002,-265.2149 223.0417,-264.3119"/>
</g>
<!-- Node25&#45;&gt;Node8 -->
<g id="edge37" class="edge">
<title>Node25&#45;&gt;Node8</title>
<path fill="none" stroke="#191970" d="M126.7188,-296.8906C144.0722,-286.9165 171.4323,-271.1908 191.4882,-259.6633"/>
<polygon fill="#191970" stroke="#191970" points="193.4728,-262.5596 200.3987,-254.5419 189.9846,-256.4907 193.4728,-262.5596"/>
</g>
<!-- Node26 -->
<g id="node27" class="node">
<title>Node26</title>
<polygon fill="#ffffff" stroke="#bfbfbf" points="37.5,-235.5 37.5,-254.5 142.5,-254.5 142.5,-235.5 37.5,-235.5"/>
<text text-anchor="middle" x="90" y="-242.5" font-family="Helvetica,sans-Serif" font-size="10.00" fill="#000000">odp/api/abi/time.h</text>
</g>
<!-- Node25&#45;&gt;Node26 -->
<g id="edge38" class="edge">
<title>Node25&#45;&gt;Node26</title>
<path fill="none" stroke="#191970" d="M106.875,-296.8906C104.0735,-288.276 99.8767,-275.3708 96.3694,-264.5858"/>
<polygon fill="#191970" stroke="#191970" points="99.5902,-263.1722 93.1691,-254.7449 92.9333,-265.3371 99.5902,-263.1722"/>
</g>
<!-- Node27 -->
<g id="node28" class="node">
<title>Node27</title>
<g id="a_node28"><a xlink:href="spec_2time_8h.html" target="_top" xlink:title="ODP time. ">
<polygon fill="#ffffff" stroke="#000000" points="464.5,-56.5 464.5,-75.5 577.5,-75.5 577.5,-56.5 464.5,-56.5"/>
<text text-anchor="middle" x="521" y="-63.5" font-family="Helvetica,sans-Serif" font-size="10.00" fill="#000000">odp/api/spec/time.h</text>
</a>
</g>
</g>
<!-- Node25&#45;&gt;Node27 -->
<g id="edge39" class="edge">
<title>Node25&#45;&gt;Node27</title>
<path fill="none" stroke="#191970" d="M142.1675,-296.9093C191.7328,-282.1258 281.2008,-255.4161 282,-255 374.9147,-206.626 467.0899,-120.0018 504.0745,-83.2471"/>
<polygon fill="#191970" stroke="#191970" points="506.9149,-85.3552 511.4953,-75.8017 501.9569,-80.4137 506.9149,-85.3552"/>
</g>
<!-- Node27&#45;&gt;Node1 -->
<g id="edge40" class="edge">
<title>Node27&#45;&gt;Node1</title>
<path fill="none" stroke="#191970" d="M577.8265,-59.4114C666.3375,-49.1493 836.941,-29.3692 933.2806,-18.1994"/>
<polygon fill="#191970" stroke="#191970" points="933.6925,-21.6751 943.2228,-17.0466 932.8862,-14.7217 933.6925,-21.6751"/>
</g>
<!-- Node27&#45;&gt;Node4 -->
<g id="edge41" class="edge">
<title>Node27&#45;&gt;Node4</title>
<path fill="none" stroke="#191970" d="M521,-56.2455C521,-48.9382 521,-38.6944 521,-29.7046"/>
<polygon fill="#191970" stroke="#191970" points="524.5001,-29.6426 521,-19.6427 517.5001,-29.6427 524.5001,-29.6426"/>
</g>
<!-- Node28&#45;&gt;Node17 -->
<g id="edge43" class="edge">
<title>Node28&#45;&gt;Node17</title>
<path fill="none" stroke="#191970" d="M473.1563,-492.3906C491.3423,-483.7205 518.6441,-470.7046 541.3537,-459.8779"/>
<polygon fill="#191970" stroke="#191970" points="542.9226,-463.0074 550.443,-455.5446 539.9102,-456.6887 542.9226,-463.0074"/>
</g>
<!-- Node29 -->
<g id="node30" class="node">
<title>Node29</title>
<g id="a_node30"><a xlink:href="spec_2packet__types_8h.html" target="_top" xlink:title="ODP packet types. ">
<polygon fill="#ffffff" stroke="#000000" points="396,-425.5 396,-455.5 510,-455.5 510,-425.5 396,-425.5"/>
<text text-anchor="start" x="404" y="-443.5" font-family="Helvetica,sans-Serif" font-size="10.00" fill="#000000">odp/api/spec/packet</text>
<text text-anchor="middle" x="453" y="-432.5" font-family="Helvetica,sans-Serif" font-size="10.00" fill="#000000">_types.h</text>
</a>
</g>
</g>
<!-- Node28&#45;&gt;Node29 -->
<g id="edge44" class="edge">
<title>Node28&#45;&gt;Node29</title>
<path fill="none" stroke="#191970" d="M453,-492.3906C453,-485.2234 453,-475.0862 453,-465.671"/>
<polygon fill="#191970" stroke="#191970" points="456.5001,-465.5446 453,-455.5446 449.5001,-465.5446 456.5001,-465.5446"/>
</g>
<!-- Node29&#45;&gt;Node1 -->
<g id="edge45" class="edge">
<title>Node29&#45;&gt;Node1</title>
<path fill="none" stroke="#191970" d="M510.1275,-426.847C552.4055,-416.6562 611.371,-402.2612 663,-389 774.2077,-360.4358 1080.918,-336.2944 1162,-255 1185.2197,-231.7195 1181,-216.3806 1181,-183.5 1181,-183.5 1181,-183.5 1181,-122 1181,-65.4608 1115.7111,-36.2861 1064.4386,-22.0919"/>
<polygon fill="#191970" stroke="#191970" points="1065.2829,-18.695 1054.7211,-19.5309 1063.4989,-25.4639 1065.2829,-18.695"/>
</g>
<!-- Node29&#45;&gt;Node4 -->
<g id="edge59" class="edge">
<title>Node29&#45;&gt;Node4</title>
<path fill="none" stroke="#191970" d="M452.8061,-425.2784C452.0775,-397.8269 448.7618,-338.4686 434,-291 416.8496,-235.8505 287.0781,-101.2241 323,-56 339.3594,-35.4042 403.7983,-23.1972 454.7791,-16.5927"/>
<polygon fill="#191970" stroke="#191970" points="455.2877,-20.0565 464.7776,-15.3457 454.4213,-13.1103 455.2877,-20.0565"/>
</g>
<!-- Node29&#45;&gt;Node22 -->
<g id="edge46" class="edge">
<title>Node29&#45;&gt;Node22</title>
<path fill="none" stroke="#191970" d="M432.1238,-425.2967C419.6552,-416.2163 403.6342,-404.5488 389.9553,-394.587"/>
<polygon fill="#191970" stroke="#191970" points="391.9376,-391.7009 381.7936,-388.6432 387.8167,-397.3594 391.9376,-391.7009"/>
</g>
<!-- Node30 -->
<g id="node31" class="node">
<title>Node30</title>
<g id="a_node31"><a xlink:href="queue__types_8h.html" target="_top" xlink:title="ODP queue. ">
<polygon fill="#ffffff" stroke="#000000" points="526.5,-364 526.5,-383 653.5,-383 653.5,-364 526.5,-364"/>
<text text-anchor="middle" x="590" y="-371" font-family="Helvetica,sans-Serif" font-size="10.00" fill="#000000">odp/api/queue_types.h</text>
</a>
</g>
</g>
<!-- Node29&#45;&gt;Node30 -->
<g id="edge47" class="edge">
<title>Node29&#45;&gt;Node30</title>
<path fill="none" stroke="#191970" d="M483.7455,-425.4639C506.9394,-414.1209 538.5316,-398.6707 561.2294,-387.5703"/>
<polygon fill="#191970" stroke="#191970" points="562.9165,-390.6414 570.3621,-383.1039 559.8412,-384.3531 562.9165,-390.6414"/>
</g>
<!-- Node31 -->
<g id="node32" class="node">
<title>Node31</title>
<polygon fill="#ffffff" stroke="#bfbfbf" points="517.5,-297 517.5,-316 662.5,-316 662.5,-297 517.5,-297"/>
<text text-anchor="middle" x="590" y="-304" font-family="Helvetica,sans-Serif" font-size="10.00" fill="#000000">odp/api/abi/queue_types.h</text>
</g>
<!-- Node30&#45;&gt;Node31 -->
<g id="edge48" class="edge">
<title>Node30&#45;&gt;Node31</title>
<path fill="none" stroke="#191970" d="M590,-363.9005C590,-354.149 590,-338.7597 590,-326.3695"/>
<polygon fill="#191970" stroke="#191970" points="593.5001,-326.0816 590,-316.0817 586.5001,-326.0817 593.5001,-326.0816"/>
</g>
<!-- Node32 -->
<g id="node33" class="node">
<title>Node32</title>
<g id="a_node33"><a xlink:href="spec_2queue__types_8h.html" target="_top" xlink:title="ODP queue types. ">
<polygon fill="#ffffff" stroke="#000000" points="760.5,-291.5 760.5,-321.5 871.5,-321.5 871.5,-291.5 760.5,-291.5"/>
<text text-anchor="start" x="768.5" y="-309.5" font-family="Helvetica,sans-Serif" font-size="10.00" fill="#000000">odp/api/spec/queue</text>
<text text-anchor="middle" x="816" y="-298.5" font-family="Helvetica,sans-Serif" font-size="10.00" fill="#000000">_types.h</text>
</a>
</g>
</g>
<!-- Node30&#45;&gt;Node32 -->
<g id="edge49" class="edge">
<title>Node30&#45;&gt;Node32</title>
<path fill="none" stroke="#191970" d="M622.3803,-363.9005C657.0294,-353.6284 712.7801,-337.1006 755.5798,-324.4122"/>
<polygon fill="#191970" stroke="#191970" points="756.7369,-327.7198 765.3296,-321.5218 754.7472,-321.0085 756.7369,-327.7198"/>
</g>
<!-- Node32&#45;&gt;Node1 -->
<g id="edge50" class="edge">
<title>Node32&#45;&gt;Node1</title>
<path fill="none" stroke="#191970" d="M866.2746,-291.4551C890.614,-282.8737 919.5653,-270.6755 943,-255 1035.7358,-192.9688 1076.74,-179.2565 1119,-76 1130.2602,-48.4873 1100.8952,-31.9371 1069.0267,-22.2905"/>
<polygon fill="#191970" stroke="#191970" points="1069.6715,-18.8366 1059.0984,-19.5139 1067.7861,-25.5779 1069.6715,-18.8366"/>
</g>
<!-- Node32&#45;&gt;Node2 -->
<g id="edge57" class="edge">
<title>Node32&#45;&gt;Node2</title>
<path fill="none" stroke="#191970" d="M871.7219,-294.1285C920.8374,-283.2238 991.8906,-267.4485 1040.1318,-256.7379"/>
<polygon fill="#191970" stroke="#191970" points="1041.0599,-260.1171 1050.0636,-254.5328 1039.5427,-253.2835 1041.0599,-260.1171"/>
</g>
<!-- Node32&#45;&gt;Node4 -->
<g id="edge58" class="edge">
<title>Node32&#45;&gt;Node4</title>
<path fill="none" stroke="#191970" d="M760.2752,-298.3906C698.0617,-285.8191 606,-255.1167 606,-183.5 606,-183.5 606,-183.5 606,-122 606,-91.3494 603.9231,-80.864 586,-56 576.6976,-43.0952 562.6251,-32.4976 549.9502,-24.7404"/>
<polygon fill="#191970" stroke="#191970" points="551.4657,-21.5739 541.0561,-19.6016 547.9637,-27.6349 551.4657,-21.5739"/>
</g>
<!-- Node33 -->
<g id="node34" class="node">
<title>Node33</title>
<g id="a_node34"><a xlink:href="schedule__types_8h.html" target="_top" xlink:title="ODP schedule. ">
<polygon fill="#ffffff" stroke="#000000" points="746,-235.5 746,-254.5 886,-254.5 886,-235.5 746,-235.5"/>
<text text-anchor="middle" x="816" y="-242.5" font-family="Helvetica,sans-Serif" font-size="10.00" fill="#000000">odp/api/schedule_types.h</text>
</a>
</g>
</g>
<!-- Node32&#45;&gt;Node33 -->
<g id="edge51" class="edge">
<title>Node32&#45;&gt;Node33</title>
<path fill="none" stroke="#191970" d="M816,-291.2977C816,-283.3834 816,-273.6043 816,-265.0759"/>
<polygon fill="#191970" stroke="#191970" points="819.5001,-264.8469 816,-254.8469 812.5001,-264.847 819.5001,-264.8469"/>
</g>
<!-- Node34 -->
<g id="node35" class="node">
<title>Node34</title>
<polygon fill="#ffffff" stroke="#bfbfbf" points="821.5,-168.5 821.5,-198.5 938.5,-198.5 938.5,-168.5 821.5,-168.5"/>
<text text-anchor="start" x="829.5" y="-186.5" font-family="Helvetica,sans-Serif" font-size="10.00" fill="#000000">odp/api/abi/schedule</text>
<text text-anchor="middle" x="880" y="-175.5" font-family="Helvetica,sans-Serif" font-size="10.00" fill="#000000">_types.h</text>
</g>
<!-- Node33&#45;&gt;Node34 -->
<g id="edge52" class="edge">
<title>Node33&#45;&gt;Node34</title>
<path fill="none" stroke="#191970" d="M826,-235.3906C834.2606,-227.4527 846.3122,-215.8718 856.9355,-205.6635"/>
<polygon fill="#191970" stroke="#191970" points="859.5584,-207.9971 864.3438,-198.5446 854.7082,-202.9498 859.5584,-207.9971"/>
</g>
<!-- Node35 -->
<g id="node36" class="node">
<title>Node35</title>
<g id="a_node36"><a xlink:href="spec_2schedule__types_8h.html" target="_top" xlink:title="ODP schedule types. ">
<polygon fill="#ffffff" stroke="#000000" points="678.5,-168.5 678.5,-198.5 803.5,-198.5 803.5,-168.5 678.5,-168.5"/>
<text text-anchor="start" x="686.5" y="-186.5" font-family="Helvetica,sans-Serif" font-size="10.00" fill="#000000">odp/api/spec/schedule</text>
<text text-anchor="middle" x="741" y="-175.5" font-family="Helvetica,sans-Serif" font-size="10.00" fill="#000000">_types.h</text>
</a>
</g>
</g>
<!-- Node33&#45;&gt;Node35 -->
<g id="edge53" class="edge">
<title>Node33&#45;&gt;Node35</title>
<path fill="none" stroke="#191970" d="M804.2813,-235.3906C794.4129,-227.2986 779.9277,-215.4207 767.3054,-205.0705"/>
<polygon fill="#191970" stroke="#191970" points="769.2991,-202.179 759.3471,-198.5446 764.8605,-207.5919 769.2991,-202.179"/>
</g>
<!-- Node35&#45;&gt;Node1 -->
<g id="edge54" class="edge">
<title>Node35&#45;&gt;Node1</title>
<path fill="none" stroke="#191970" d="M740.6883,-168.3635C741.0137,-141.5343 745.7962,-85.6764 778,-56 800.3258,-35.4263 875.5038,-23.0857 933.0845,-16.4434"/>
<polygon fill="#191970" stroke="#191970" points="933.7009,-19.8964 943.2506,-15.308 932.9239,-12.9397 933.7009,-19.8964"/>
</g>
<!-- Node35&#45;&gt;Node4 -->
<g id="edge56" class="edge">
<title>Node35&#45;&gt;Node4</title>
<path fill="none" stroke="#191970" d="M735.0312,-168.1513C723.9008,-141.4916 697.4716,-86.5605 658,-56 637.0765,-39.8002 610.14,-29.1409 585.6964,-22.2065"/>
<polygon fill="#191970" stroke="#191970" points="586.3221,-18.7509 575.7573,-19.5476 584.5131,-25.5131 586.3221,-18.7509"/>
</g>
<!-- Node35&#45;&gt;Node5 -->
<g id="edge55" class="edge">
<title>Node35&#45;&gt;Node5</title>
<path fill="none" stroke="#191970" d="M767.6644,-168.4554C784.8941,-158.734 807.1975,-146.15 824.2446,-136.5317"/>
<polygon fill="#191970" stroke="#191970" points="826.1194,-139.4926 833.1089,-131.5303 822.6796,-133.3961 826.1194,-139.4926"/>
</g>
</g>
</svg>
