<?xml version="1.0" encoding="UTF-8" standalone="no"?>
<!DOCTYPE svg PUBLIC "-//W3C//DTD SVG 1.1//EN"
 "http://www.w3.org/Graphics/SVG/1.1/DTD/svg11.dtd">
<!-- Generated by graphviz version 2.40.1 (20161225.0304)
 -->
<!-- Title: std_types.h Pages: 1 -->
<svg width="2910pt" height="364pt"
 viewBox="0.00 0.00 2910.00 364.00" xmlns="http://www.w3.org/2000/svg" xmlns:xlink="http://www.w3.org/1999/xlink">
<g id="graph0" class="graph" transform="scale(1 1) rotate(0) translate(4 360)">
<title>std_types.h</title>
<polygon fill="#ffffff" stroke="transparent" points="-4,4 -4,-360 2906,-360 2906,4 -4,4"/>
<!-- Node9 -->
<g id="node1" class="node">
<title>Node9</title>
<polygon fill="#bfbfbf" stroke="#000000" points="1398,-336.5 1398,-355.5 1471,-355.5 1471,-336.5 1398,-336.5"/>
<text text-anchor="middle" x="1434.5" y="-343.5" font-family="Helvetica,sans-Serif" font-size="10.00" fill="#000000">std_types.h</text>
</g>
<!-- Node10 -->
<g id="node2" class="node">
<title>Node10</title>
<g id="a_node2"><a xlink:href="abi-default_2atomic_8h.html" target="_top" xlink:title="ODP atomic operations. ">
<polygon fill="#ffffff" stroke="#000000" points="0,-280.5 0,-299.5 59,-299.5 59,-280.5 0,-280.5"/>
<text text-anchor="middle" x="29.5" y="-287.5" font-family="Helvetica,sans-Serif" font-size="10.00" fill="#000000">atomic.h</text>
</a>
</g>
</g>
<!-- Node9&#45;&gt;Node10 -->
<g id="edge1" class="edge">
<title>Node9&#45;&gt;Node10</title>
<path fill="none" stroke="#191970" d="M1387.6666,-345.8287C1178.7291,-344.8489 330.4657,-338.5286 67.5,-300 64.8001,-299.6044 62.0162,-299.0883 59.2404,-298.499"/>
<polygon fill="#191970" stroke="#191970" points="1387.6801,-349.3287 1397.6958,-345.8739 1387.7117,-342.3288 1387.6801,-349.3287"/>
</g>
<!-- Node11 -->
<g id="node3" class="node">
<title>Node11</title>
<g id="a_node3"><a xlink:href="abi-default_2barrier_8h.html" target="_top" xlink:title="ODP barrier. ">
<polygon fill="#ffffff" stroke="#000000" points="77,-280.5 77,-299.5 134,-299.5 134,-280.5 77,-280.5"/>
<text text-anchor="middle" x="105.5" y="-287.5" font-family="Helvetica,sans-Serif" font-size="10.00" fill="#000000">barrier.h</text>
</a>
</g>
</g>
<!-- Node9&#45;&gt;Node11 -->
<g id="edge2" class="edge">
<title>Node9&#45;&gt;Node11</title>
<path fill="none" stroke="#191970" d="M1387.6999,-345.7212C1186.0893,-344.3063 390.7627,-336.4778 143.5,-300 140.5305,-299.5619 137.4593,-298.979 134.4089,-298.314"/>
<polygon fill="#191970" stroke="#191970" points="1387.9214,-349.2227 1397.9451,-345.7911 1387.9693,-342.2228 1387.9214,-349.2227"/>
</g>
<!-- Node12 -->
<g id="node4" class="node">
<title>Node12</title>
<g id="a_node4"><a xlink:href="abi-default_2byteorder_8h.html" target="_top" xlink:title="ODP byteorder. ">
<polygon fill="#ffffff" stroke="#000000" points="152.5,-280.5 152.5,-299.5 224.5,-299.5 224.5,-280.5 152.5,-280.5"/>
<text text-anchor="middle" x="188.5" y="-287.5" font-family="Helvetica,sans-Serif" font-size="10.00" fill="#000000">byteorder.h</text>
</a>
</g>
</g>
<!-- Node9&#45;&gt;Node12 -->
<g id="edge3" class="edge">
<title>Node9&#45;&gt;Node12</title>
<path fill="none" stroke="#191970" d="M1387.877,-345.3388C1195.5115,-342.4371 462.8636,-329.6309 233.5,-300 230.6426,-299.6309 227.699,-299.1678 224.7499,-298.6445"/>
<polygon fill="#191970" stroke="#191970" points="1387.8885,-348.8393 1397.9397,-345.489 1387.993,-341.84 1387.8885,-348.8393"/>
</g>
<!-- Node13 -->
<g id="node5" class="node">
<title>Node13</title>
<g id="a_node5"><a xlink:href="abi-default_2cpumask_8h.html" target="_top" xlink:title="ODP CPU masks and enumeration. ">
<polygon fill="#ffffff" stroke="#000000" points="242.5,-280.5 242.5,-299.5 312.5,-299.5 312.5,-280.5 242.5,-280.5"/>
<text text-anchor="middle" x="277.5" y="-287.5" font-family="Helvetica,sans-Serif" font-size="10.00" fill="#000000">cpumask.h</text>
</a>
</g>
</g>
<!-- Node9&#45;&gt;Node13 -->
<g id="edge4" class="edge">
<title>Node9&#45;&gt;Node13</title>
<path fill="none" stroke="#191970" d="M1387.7343,-345.203C1204.1574,-341.8984 532.5874,-328.1106 321.5,-300 318.7046,-299.6277 315.8252,-299.1624 312.9408,-298.6376"/>
<polygon fill="#191970" stroke="#191970" points="1387.806,-348.7047 1397.8668,-345.3836 1387.9308,-341.7058 1387.806,-348.7047"/>
</g>
<!-- Node14 -->
<g id="node6" class="node">
<title>Node14</title>
<g id="a_node6"><a xlink:href="abi-default_2init_8h.html" target="_top" xlink:title="ODP initialization. ">
<polygon fill="#ffffff" stroke="#000000" points="331,-280.5 331,-299.5 372,-299.5 372,-280.5 331,-280.5"/>
<text text-anchor="middle" x="351.5" y="-287.5" font-family="Helvetica,sans-Serif" font-size="10.00" fill="#000000">init.h</text>
</a>
</g>
</g>
<!-- Node9&#45;&gt;Node14 -->
<g id="edge5" class="edge">
<title>Node9&#45;&gt;Node14</title>
<path fill="none" stroke="#191970" d="M1387.7869,-345.7464C1210.2843,-344.5064 577.7642,-337.4957 380.5,-300 377.7794,-299.4829 374.9675,-298.7632 372.2136,-297.9447"/>
<polygon fill="#191970" stroke="#191970" points="1387.8227,-349.2467 1397.8459,-345.8139 1387.8697,-342.2468 1387.8227,-349.2467"/>
</g>
<!-- Node15 -->
<g id="node7" class="node">
<title>Node15</title>
<g id="a_node7"><a xlink:href="abi-default_2ipsec_8h.html" target="_top" xlink:title="ODP IPSEC API &#45; platform specific types. ">
<polygon fill="#ffffff" stroke="#000000" points="390,-280.5 390,-299.5 441,-299.5 441,-280.5 390,-280.5"/>
<text text-anchor="middle" x="415.5" y="-287.5" font-family="Helvetica,sans-Serif" font-size="10.00" fill="#000000">ipsec.h</text>
</a>
</g>
</g>
<!-- Node9&#45;&gt;Node15 -->
<g id="edge6" class="edge">
<title>Node9&#45;&gt;Node15</title>
<path fill="none" stroke="#191970" d="M1387.8507,-345.3003C1218.0756,-342.5239 633.4714,-330.8908 449.5,-300 446.8301,-299.5517 444.0737,-298.9621 441.3392,-298.293"/>
<polygon fill="#191970" stroke="#191970" points="1387.9064,-348.8016 1397.9615,-345.4632 1388.0192,-341.8025 1387.9064,-348.8016"/>
</g>
<!-- Node16 -->
<g id="node8" class="node">
<title>Node16</title>
<g id="a_node8"><a xlink:href="abi-default_2packet__io_8h.html" target="_top" xlink:title="ODP Packet IO. ">
<polygon fill="#ffffff" stroke="#000000" points="459,-280.5 459,-299.5 532,-299.5 532,-280.5 459,-280.5"/>
<text text-anchor="middle" x="495.5" y="-287.5" font-family="Helvetica,sans-Serif" font-size="10.00" fill="#000000">packet_io.h</text>
</a>
</g>
</g>
<!-- Node9&#45;&gt;Node16 -->
<g id="edge7" class="edge">
<title>Node9&#45;&gt;Node16</title>
<path fill="none" stroke="#191970" d="M1387.0757,-344.5762C1226.9877,-339.6103 707.3358,-322.1472 541.5,-300 538.4217,-299.5889 535.2438,-299.0795 532.0635,-298.5101"/>
<polygon fill="#191970" stroke="#191970" points="1387.4294,-348.0887 1397.5326,-344.8986 1387.6452,-341.092 1387.4294,-348.0887"/>
</g>
<!-- Node17 -->
<g id="node9" class="node">
<title>Node17</title>
<g id="a_node9"><a xlink:href="abi-default_2rwlock__recursive_8h.html" target="_top" xlink:title="ODP recursive read/write lock. ">
<polygon fill="#ffffff" stroke="#000000" points="550.5,-280.5 550.5,-299.5 658.5,-299.5 658.5,-280.5 550.5,-280.5"/>
<text text-anchor="middle" x="604.5" y="-287.5" font-family="Helvetica,sans-Serif" font-size="10.00" fill="#000000">rwlock_recursive.h</text>
</a>
</g>
</g>
<!-- Node9&#45;&gt;Node17 -->
<g id="edge8" class="edge">
<title>Node9&#45;&gt;Node17</title>
<path fill="none" stroke="#191970" d="M1387.3551,-344.7722C1267.0747,-341.2931 939.1142,-329.6302 667.5,-300 664.6376,-299.6877 661.7068,-299.3358 658.751,-298.9554"/>
<polygon fill="#191970" stroke="#191970" points="1387.5756,-348.2798 1397.6709,-345.0652 1387.7743,-341.2826 1387.5756,-348.2798"/>
</g>
<!-- Node18 -->
<g id="node10" class="node">
<title>Node18</title>
<g id="a_node10"><a xlink:href="abi-default_2schedule_8h.html" target="_top" xlink:title="ODP schedule. ">
<polygon fill="#ffffff" stroke="#000000" points="677,-280.5 677,-299.5 746,-299.5 746,-280.5 677,-280.5"/>
<text text-anchor="middle" x="711.5" y="-287.5" font-family="Helvetica,sans-Serif" font-size="10.00" fill="#000000">schedule.h</text>
</a>
</g>
</g>
<!-- Node9&#45;&gt;Node18 -->
<g id="edge9" class="edge">
<title>Node9&#45;&gt;Node18</title>
<path fill="none" stroke="#191970" d="M1387.7084,-345.3361C1277.1512,-343.2228 991.342,-334.5737 755.5,-300 752.5547,-299.5682 749.5143,-299.0443 746.4719,-298.4651"/>
<polygon fill="#191970" stroke="#191970" points="1387.7907,-348.8381 1397.8528,-345.5208 1387.9183,-341.8392 1387.7907,-348.8381"/>
</g>
<!-- Node19 -->
<g id="node11" class="node">
<title>Node19</title>
<g id="a_node11"><a xlink:href="abi-default_2spinlock__recursive_8h.html" target="_top" xlink:title="ODP recursive spinlock. ">
<polygon fill="#ffffff" stroke="#000000" points="764.5,-280.5 764.5,-299.5 880.5,-299.5 880.5,-280.5 764.5,-280.5"/>
<text text-anchor="middle" x="822.5" y="-287.5" font-family="Helvetica,sans-Serif" font-size="10.00" fill="#000000">spinlock_recursive.h</text>
</a>
</g>
</g>
<!-- Node9&#45;&gt;Node19 -->
<g id="edge10" class="edge">
<title>Node9&#45;&gt;Node19</title>
<path fill="none" stroke="#191970" d="M1387.6573,-343.0599C1293.2329,-336.9097 1073.3584,-321.4577 889.5,-300 886.5796,-299.6592 883.5907,-299.2895 880.5744,-298.9"/>
<polygon fill="#191970" stroke="#191970" points="1387.534,-346.5591 1397.7391,-343.7122 1387.986,-339.5738 1387.534,-346.5591"/>
</g>
<!-- Node20 -->
<g id="node12" class="node">
<title>Node20</title>
<g id="a_node12"><a xlink:href="abi-default_2traffic__mngr_8h.html" target="_top" xlink:title="ODP traffic mngr. ">
<polygon fill="#ffffff" stroke="#000000" points="898.5,-280.5 898.5,-299.5 982.5,-299.5 982.5,-280.5 898.5,-280.5"/>
<text text-anchor="middle" x="940.5" y="-287.5" font-family="Helvetica,sans-Serif" font-size="10.00" fill="#000000">traffic_mngr.h</text>
</a>
</g>
</g>
<!-- Node9&#45;&gt;Node20 -->
<g id="edge11" class="edge">
<title>Node9&#45;&gt;Node20</title>
<path fill="none" stroke="#191970" d="M1387.5302,-342.5229C1306.4558,-336.2089 1135.1272,-321.4933 991.5,-300 988.6445,-299.5727 985.706,-299.0959 982.7499,-298.5888"/>
<polygon fill="#191970" stroke="#191970" points="1387.6543,-346.0428 1397.8939,-343.3224 1388.1928,-339.0636 1387.6543,-346.0428"/>
</g>
<!-- Node21 -->
<g id="node13" class="node">
<title>Node21</title>
<g id="a_node13"><a xlink:href="barrier_8h.html" target="_top" xlink:title="ODP execution barriers. ">
<polygon fill="#ffffff" stroke="#000000" points="1001,-280.5 1001,-299.5 1058,-299.5 1058,-280.5 1001,-280.5"/>
<text text-anchor="middle" x="1029.5" y="-287.5" font-family="Helvetica,sans-Serif" font-size="10.00" fill="#000000">barrier.h</text>
</a>
</g>
</g>
<!-- Node9&#45;&gt;Node21 -->
<g id="edge12" class="edge">
<title>Node9&#45;&gt;Node21</title>
<path fill="none" stroke="#191970" d="M1387.6481,-342.2545C1317.4024,-336.164 1180.8241,-322.4803 1066.5,-300 1063.7578,-299.4608 1060.9195,-298.8293 1058.0904,-298.1504"/>
<polygon fill="#191970" stroke="#191970" points="1387.6682,-345.7689 1397.9298,-343.1326 1388.264,-338.7943 1387.6682,-345.7689"/>
</g>
<!-- Node22 -->
<g id="node14" class="node">
<title>Node22</title>
<g id="a_node14"><a xlink:href="buffer_8h.html" target="_top" xlink:title="ODP buffer descriptor. ">
<polygon fill="#ffffff" stroke="#000000" points="1076,-280.5 1076,-299.5 1129,-299.5 1129,-280.5 1076,-280.5"/>
<text text-anchor="middle" x="1102.5" y="-287.5" font-family="Helvetica,sans-Serif" font-size="10.00" fill="#000000">buffer.h</text>
</a>
</g>
</g>
<!-- Node9&#45;&gt;Node22 -->
<g id="edge13" class="edge">
<title>Node9&#45;&gt;Node22</title>
<path fill="none" stroke="#191970" d="M1387.6671,-339.8093C1329.9876,-331.9063 1229.128,-317.1799 1143.5,-300 1138.9025,-299.0776 1134.0413,-297.9914 1129.3355,-296.8809"/>
<polygon fill="#191970" stroke="#191970" points="1387.1963,-343.2774 1397.577,-341.1581 1388.1404,-336.3413 1387.1963,-343.2774"/>
</g>
<!-- Node23 -->
<g id="node15" class="node">
<title>Node23</title>
<g id="a_node15"><a xlink:href="classification_8h.html" target="_top" xlink:title="ODP classification descriptor. ">
<polygon fill="#ffffff" stroke="#000000" points="1036,-56.5 1036,-75.5 1125,-75.5 1125,-56.5 1036,-56.5"/>
<text text-anchor="middle" x="1080.5" y="-63.5" font-family="Helvetica,sans-Serif" font-size="10.00" fill="#000000">classification.h</text>
</a>
</g>
</g>
<!-- Node9&#45;&gt;Node23 -->
<g id="edge14" class="edge">
<title>Node9&#45;&gt;Node23</title>
<path fill="none" stroke="#191970" d="M1387.4623,-342.8646C1333.8012,-338.1375 1244.0968,-326.7007 1171.5,-300 1155.046,-293.9483 1153.091,-288.0175 1137.5,-280 1102.4655,-261.9839 1082.0938,-273.9492 1056.5,-244 1017.4144,-198.263 1001.277,-166.6201 1026.5,-112 1033.8833,-96.0115 1049.8676,-83.5319 1062.5401,-75.6299"/>
<polygon fill="#191970" stroke="#191970" points="1387.4406,-346.375 1397.6981,-343.7231 1388.0257,-339.3995 1387.4406,-346.375"/>
</g>
<!-- Node26 -->
<g id="node17" class="node">
<title>Node26</title>
<g id="a_node17"><a xlink:href="crypto_8h.html" target="_top" xlink:title="ODP crypto. ">
<polygon fill="#ffffff" stroke="#000000" points="1346.5,-168.5 1346.5,-187.5 1402.5,-187.5 1402.5,-168.5 1346.5,-168.5"/>
<text text-anchor="middle" x="1374.5" y="-175.5" font-family="Helvetica,sans-Serif" font-size="10.00" fill="#000000">crypto.h</text>
</a>
</g>
</g>
<!-- Node9&#45;&gt;Node26 -->
<g id="edge16" class="edge">
<title>Node9&#45;&gt;Node26</title>
<path fill="none" stroke="#191970" d="M1442.9908,-327.2685C1449.8082,-313.3819 1460.2457,-294.4391 1472.5,-280 1492.9813,-255.8672 1535.1161,-249.5991 1516.5,-224 1502.9735,-205.3996 1439.9383,-190.4784 1402.5519,-183.0764"/>
<polygon fill="#191970" stroke="#191970" points="1439.8071,-325.8138 1438.6922,-336.3498 1446.1341,-328.8087 1439.8071,-325.8138"/>
</g>
<!-- Node27 -->
<g id="node18" class="node">
<title>Node27</title>
<g id="a_node18"><a xlink:href="packet_8h.html" target="_top" xlink:title="ODP packet descriptor. ">
<polygon fill="#ffffff" stroke="#000000" points="1328,-280.5 1328,-299.5 1387,-299.5 1387,-280.5 1328,-280.5"/>
<text text-anchor="middle" x="1357.5" y="-287.5" font-family="Helvetica,sans-Serif" font-size="10.00" fill="#000000">packet.h</text>
</a>
</g>
</g>
<!-- Node9&#45;&gt;Node27 -->
<g id="edge18" class="edge">
<title>Node9&#45;&gt;Node27</title>
<path fill="none" stroke="#191970" d="M1412.7884,-330.2097C1399.2647,-320.3743 1382.3042,-308.0394 1370.7587,-299.6427"/>
<polygon fill="#191970" stroke="#191970" points="1410.9416,-333.1944 1421.0876,-336.2455 1415.0589,-327.5332 1410.9416,-333.1944"/>
</g>
<!-- Node44 -->
<g id="node22" class="node">
<title>Node44</title>
<g id="a_node22"><a xlink:href="spec_2packet__flags_8h.html" target="_top" xlink:title="ODP packet flags. ">
<polygon fill="#ffffff" stroke="#ff0000" points="1421,-224.5 1421,-243.5 1508,-243.5 1508,-224.5 1421,-224.5"/>
<text text-anchor="middle" x="1464.5" y="-231.5" font-family="Helvetica,sans-Serif" font-size="10.00" fill="#000000">packet_flags.h</text>
</a>
</g>
</g>
<!-- Node9&#45;&gt;Node44 -->
<g id="edge44" class="edge">
<title>Node9&#45;&gt;Node44</title>
<path fill="none" stroke="#191970" d="M1433.8523,-326.0075C1433.9433,-312.7126 1435.0763,-295.0038 1439.5,-280 1443.4586,-266.5738 1451.7014,-252.6547 1457.6415,-243.6943"/>
<polygon fill="#191970" stroke="#191970" points="1430.3572,-326.4209 1433.984,-336.3756 1437.3566,-326.332 1430.3572,-326.4209"/>
</g>
<!-- Node38 -->
<g id="node24" class="node">
<title>Node38</title>
<g id="a_node24"><a xlink:href="packet__io_8h.html" target="_top" xlink:title="ODP Packet IO. ">
<polygon fill="#ffffff" stroke="#000000" points="1074,-168.5 1074,-187.5 1147,-187.5 1147,-168.5 1074,-168.5"/>
<text text-anchor="middle" x="1110.5" y="-175.5" font-family="Helvetica,sans-Serif" font-size="10.00" fill="#000000">packet_io.h</text>
</a>
</g>
</g>
<!-- Node9&#45;&gt;Node38 -->
<g id="edge30" class="edge">
<title>Node9&#45;&gt;Node38</title>
<path fill="none" stroke="#191970" d="M1387.5432,-339.382C1342.4336,-332.2806 1272.7308,-319.3447 1214.5,-300 1194.4977,-293.3551 1191.074,-287.817 1171.5,-280 1124.9034,-261.3913 1093.7808,-284.7451 1064.5,-244 1050.2364,-224.1517 1076.9696,-200.5979 1095.3147,-187.6799"/>
<polygon fill="#191970" stroke="#191970" points="1387.2033,-342.8708 1397.6199,-340.9355 1388.27,-335.9526 1387.2033,-342.8708"/>
</g>
<!-- Node40 -->
<g id="node26" class="node">
<title>Node40</title>
<g id="a_node26"><a xlink:href="spec_2traffic__mngr_8h.html" target="_top" xlink:title="traffic_mngr.h">
<polygon fill="#ffffff" stroke="#ff0000" points="1181.5,-112.5 1181.5,-131.5 1265.5,-131.5 1265.5,-112.5 1181.5,-112.5"/>
<text text-anchor="middle" x="1223.5" y="-119.5" font-family="Helvetica,sans-Serif" font-size="10.00" fill="#000000">traffic_mngr.h</text>
</a>
</g>
</g>
<!-- Node9&#45;&gt;Node40 -->
<g id="edge54" class="edge">
<title>Node9&#45;&gt;Node40</title>
<path fill="none" stroke="#191970" d="M1398.481,-332.8551C1375.3647,-324.1409 1344.851,-312.1171 1318.5,-300 1301.1602,-292.0265 1297.7637,-288.1371 1280.5,-280 1243.0189,-262.3336 1217.4561,-278.4957 1194.5,-244 1170.3775,-207.7514 1201.6466,-153.6784 1216.4811,-131.7559"/>
<polygon fill="#191970" stroke="#191970" points="1397.3089,-336.1535 1407.9014,-336.3778 1399.7608,-329.5969 1397.3089,-336.1535"/>
</g>
<!-- Node46 -->
<g id="node27" class="node">
<title>Node46</title>
<g id="a_node27"><a xlink:href="proto__stats_8h.html" target="_top" xlink:title="ODP proto stats. ">
<polygon fill="#ffffff" stroke="#000000" points="1481.5,-280.5 1481.5,-299.5 1561.5,-299.5 1561.5,-280.5 1481.5,-280.5"/>
<text text-anchor="middle" x="1521.5" y="-287.5" font-family="Helvetica,sans-Serif" font-size="10.00" fill="#000000">proto_stats.h</text>
</a>
</g>
</g>
<!-- Node9&#45;&gt;Node46 -->
<g id="edge31" class="edge">
<title>Node9&#45;&gt;Node46</title>
<path fill="none" stroke="#191970" d="M1458.1625,-330.769C1473.5791,-320.8456 1493.226,-308.1994 1506.5194,-299.6427"/>
<polygon fill="#191970" stroke="#191970" points="1456.1685,-327.89 1449.6542,-336.2455 1459.9573,-333.7761 1456.1685,-327.89"/>
</g>
<!-- Node34 -->
<g id="node28" class="node">
<title>Node34</title>
<g id="a_node28"><a xlink:href="queue_8h.html" target="_top" xlink:title="ODP queue. ">
<polygon fill="#ffffff" stroke="#000000" points="1579.5,-280.5 1579.5,-299.5 1635.5,-299.5 1635.5,-280.5 1579.5,-280.5"/>
<text text-anchor="middle" x="1607.5" y="-287.5" font-family="Helvetica,sans-Serif" font-size="10.00" fill="#000000">queue.h</text>
</a>
</g>
</g>
<!-- Node9&#45;&gt;Node34 -->
<g id="edge32" class="edge">
<title>Node9&#45;&gt;Node34</title>
<path fill="none" stroke="#191970" d="M1473.7807,-333.2849C1505.9231,-322.8804 1550.6077,-308.416 1579.2939,-299.1303"/>
<polygon fill="#191970" stroke="#191970" points="1472.6758,-329.9636 1464.2398,-336.3733 1474.8316,-336.6234 1472.6758,-329.9636"/>
</g>
<!-- Node47 -->
<g id="node30" class="node">
<title>Node47</title>
<g id="a_node30"><a xlink:href="spec_2chksum_8h.html" target="_top" xlink:title="ODP checksum functions. ">
<polygon fill="#ffffff" stroke="#000000" points="1653.5,-280.5 1653.5,-299.5 1717.5,-299.5 1717.5,-280.5 1653.5,-280.5"/>
<text text-anchor="middle" x="1685.5" y="-287.5" font-family="Helvetica,sans-Serif" font-size="10.00" fill="#000000">chksum.h</text>
</a>
</g>
</g>
<!-- Node9&#45;&gt;Node47 -->
<g id="edge34" class="edge">
<title>Node9&#45;&gt;Node47</title>
<path fill="none" stroke="#191970" d="M1481.1606,-336.109C1523.7636,-326.9998 1588.4513,-312.972 1644.5,-300 1647.3552,-299.3392 1650.3192,-298.6407 1653.2881,-297.9325"/>
<polygon fill="#191970" stroke="#191970" points="1480.405,-332.6914 1471.356,-338.2019 1481.8663,-339.5371 1480.405,-332.6914"/>
</g>
<!-- Node49 -->
<g id="node32" class="node">
<title>Node49</title>
<g id="a_node32"><a xlink:href="spec_2cpu_8h.html" target="_top" xlink:title="ODP CPU API. ">
<polygon fill="#ffffff" stroke="#000000" points="1736,-280.5 1736,-299.5 1779,-299.5 1779,-280.5 1736,-280.5"/>
<text text-anchor="middle" x="1757.5" y="-287.5" font-family="Helvetica,sans-Serif" font-size="10.00" fill="#000000">cpu.h</text>
</a>
</g>
</g>
<!-- Node9&#45;&gt;Node49 -->
<g id="edge36" class="edge">
<title>Node9&#45;&gt;Node49</title>
<path fill="none" stroke="#191970" d="M1481.2415,-340.9142C1539.268,-334.0803 1641.0284,-320.3868 1726.5,-300 1729.5804,-299.2653 1732.7965,-298.3735 1735.9416,-297.4285"/>
<polygon fill="#191970" stroke="#191970" points="1480.8053,-337.4412 1471.2755,-342.0709 1481.6124,-344.3945 1480.8053,-337.4412"/>
</g>
<!-- Node52 -->
<g id="node34" class="node">
<title>Node52</title>
<g id="a_node34"><a xlink:href="spec_2feature_8h.html" target="_top" xlink:title="ODP features. ">
<polygon fill="#ffffff" stroke="#000000" points="1836,-280.5 1836,-299.5 1897,-299.5 1897,-280.5 1836,-280.5"/>
<text text-anchor="middle" x="1866.5" y="-287.5" font-family="Helvetica,sans-Serif" font-size="10.00" fill="#000000">feature.h</text>
</a>
</g>
</g>
<!-- Node9&#45;&gt;Node52 -->
<g id="edge38" class="edge">
<title>Node9&#45;&gt;Node52</title>
<path fill="none" stroke="#191970" d="M1481.4672,-341.951C1554.5054,-335.3097 1699.5936,-320.7364 1821.5,-300 1826.0761,-299.2216 1830.8885,-298.2826 1835.5952,-297.2958"/>
<polygon fill="#191970" stroke="#191970" points="1480.871,-338.4905 1471.2252,-342.8731 1481.4988,-345.4623 1480.871,-338.4905"/>
</g>
<!-- Node54 -->
<g id="node36" class="node">
<title>Node54</title>
<g id="a_node36"><a xlink:href="spec_2init_8h.html" target="_top" xlink:title="init.h">
<polygon fill="#ffffff" stroke="#ff0000" points="1847,-168.5 1847,-187.5 1888,-187.5 1888,-168.5 1847,-168.5"/>
<text text-anchor="middle" x="1867.5" y="-175.5" font-family="Helvetica,sans-Serif" font-size="10.00" fill="#000000">init.h</text>
</a>
</g>
</g>
<!-- Node9&#45;&gt;Node54 -->
<g id="edge43" class="edge">
<title>Node9&#45;&gt;Node54</title>
<path fill="none" stroke="#191970" d="M1481.1851,-344.6862C1565.1162,-341.5556 1737.4219,-331.3957 1787.5,-300 1831.2775,-272.5543 1856.0854,-211.379 1864.3574,-187.6589"/>
<polygon fill="#191970" stroke="#191970" points="1481.029,-341.1894 1471.1595,-345.0422 1481.2775,-348.185 1481.029,-341.1894"/>
</g>
<!-- Node59 -->
<g id="node37" class="node">
<title>Node59</title>
<g id="a_node37"><a xlink:href="spec_2hash_8h.html" target="_top" xlink:title="ODP Hash functions. ">
<polygon fill="#ffffff" stroke="#000000" points="1915,-280.5 1915,-299.5 1964,-299.5 1964,-280.5 1915,-280.5"/>
<text text-anchor="middle" x="1939.5" y="-287.5" font-family="Helvetica,sans-Serif" font-size="10.00" fill="#000000">hash.h</text>
</a>
</g>
</g>
<!-- Node9&#45;&gt;Node59 -->
<g id="edge41" class="edge">
<title>Node9&#45;&gt;Node59</title>
<path fill="none" stroke="#191970" d="M1481.2991,-344.3528C1566.4279,-340.7107 1752.004,-329.7916 1905.5,-300 1908.52,-299.4138 1911.6574,-298.6752 1914.751,-297.866"/>
<polygon fill="#191970" stroke="#191970" points="1481.0277,-340.8609 1471.181,-344.7714 1481.3171,-347.8549 1481.0277,-340.8609"/>
</g>
<!-- Node61 -->
<g id="node39" class="node">
<title>Node61</title>
<g id="a_node39"><a xlink:href="spec_2pool_8h.html" target="_top" xlink:title="ODP pool. ">
<polygon fill="#ffffff" stroke="#ff0000" points="2029,-224.5 2029,-243.5 2076,-243.5 2076,-224.5 2029,-224.5"/>
<text text-anchor="middle" x="2052.5" y="-231.5" font-family="Helvetica,sans-Serif" font-size="10.00" fill="#000000">pool.h</text>
</a>
</g>
</g>
<!-- Node9&#45;&gt;Node61 -->
<g id="edge45" class="edge">
<title>Node9&#45;&gt;Node61</title>
<path fill="none" stroke="#191970" d="M1481.3102,-345.5473C1595.2264,-343.8819 1884.0226,-336.1156 1972.5,-300 2003.173,-287.4796 2031.0817,-258.8616 2044.354,-243.7543"/>
<polygon fill="#191970" stroke="#191970" points="1481.1152,-342.0495 1471.164,-345.6861 1481.211,-349.0489 1481.1152,-342.0495"/>
</g>
<!-- Node64 -->
<g id="node40" class="node">
<title>Node64</title>
<g id="a_node40"><a xlink:href="pool__types_8h.html" target="_top" xlink:title="Type definitions for pools. ">
<polygon fill="#ffffff" stroke="#000000" points="2021,-280.5 2021,-299.5 2100,-299.5 2100,-280.5 2021,-280.5"/>
<text text-anchor="middle" x="2060.5" y="-287.5" font-family="Helvetica,sans-Serif" font-size="10.00" fill="#000000">pool_types.h</text>
</a>
</g>
</g>
<!-- Node9&#45;&gt;Node64 -->
<g id="edge46" class="edge">
<title>Node9&#45;&gt;Node64</title>
<path fill="none" stroke="#191970" d="M1481.2539,-343.8723C1579.0724,-339.0621 1812.3435,-325.7151 2006.5,-300 2011.1314,-299.3866 2015.9682,-298.6416 2020.7621,-297.838"/>
<polygon fill="#191970" stroke="#191970" points="1480.9279,-340.3839 1471.1092,-344.3643 1481.267,-347.3757 1480.9279,-340.3839"/>
</g>
<!-- Node65 -->
<g id="node41" class="node">
<title>Node65</title>
<g id="a_node41"><a xlink:href="spec_2proto__stats__types_8h.html" target="_top" xlink:title="ODP proto stats types. ">
<polygon fill="#ffffff" stroke="#ff0000" points="2118,-280.5 2118,-299.5 2231,-299.5 2231,-280.5 2118,-280.5"/>
<text text-anchor="middle" x="2174.5" y="-287.5" font-family="Helvetica,sans-Serif" font-size="10.00" fill="#000000">proto_stats_types.h</text>
</a>
</g>
</g>
<!-- Node9&#45;&gt;Node65 -->
<g id="edge48" class="edge">
<title>Node9&#45;&gt;Node65</title>
<path fill="none" stroke="#191970" d="M1481.2671,-344.177C1591.1485,-339.5964 1874.259,-326.0638 2109.5,-300 2112.2235,-299.6982 2115.0077,-299.3652 2117.8172,-299.0093"/>
<polygon fill="#191970" stroke="#191970" points="1481.029,-340.6838 1471.1816,-344.5925 1481.3172,-347.6778 1481.029,-340.6838"/>
</g>
<!-- Node42 -->
<g id="node42" class="node">
<title>Node42</title>
<g id="a_node42"><a xlink:href="spec_2schedule_8h.html" target="_top" xlink:title="ODP schedule. ">
<polygon fill="#ffffff" stroke="#ff0000" points="2249,-280.5 2249,-299.5 2318,-299.5 2318,-280.5 2249,-280.5"/>
<text text-anchor="middle" x="2283.5" y="-287.5" font-family="Helvetica,sans-Serif" font-size="10.00" fill="#000000">schedule.h</text>
</a>
</g>
</g>
<!-- Node9&#45;&gt;Node42 -->
<g id="edge49" class="edge">
<title>Node9&#45;&gt;Node42</title>
<path fill="none" stroke="#191970" d="M1481.2642,-344.3867C1630.1978,-339.0825 2092.3176,-321.2984 2240.5,-300 2243.2312,-299.6074 2246.0445,-299.1275 2248.8629,-298.5926"/>
<polygon fill="#191970" stroke="#191970" points="1480.9607,-340.8952 1471.0909,-344.7469 1481.2085,-347.8908 1480.9607,-340.8952"/>
</g>
<!-- Node71 -->
<g id="node43" class="node">
<title>Node71</title>
<g id="a_node43"><a xlink:href="spec_2stash_8h.html" target="_top" xlink:title="ODP stash. ">
<polygon fill="#ffffff" stroke="#ff0000" points="2336.5,-280.5 2336.5,-299.5 2388.5,-299.5 2388.5,-280.5 2336.5,-280.5"/>
<text text-anchor="middle" x="2362.5" y="-287.5" font-family="Helvetica,sans-Serif" font-size="10.00" fill="#000000">stash.h</text>
</a>
</g>
</g>
<!-- Node9&#45;&gt;Node71 -->
<g id="edge50" class="edge">
<title>Node9&#45;&gt;Node71</title>
<path fill="none" stroke="#191970" d="M1481.4402,-344.9868C1641.084,-341.3211 2162.2738,-327.4926 2327.5,-300 2330.3676,-299.5229 2333.3347,-298.8943 2336.2729,-298.1842"/>
<polygon fill="#191970" stroke="#191970" points="1480.9351,-341.4973 1471.0171,-345.2234 1481.094,-348.4955 1480.9351,-341.4973"/>
</g>
<!-- Node73 -->
<g id="node44" class="node">
<title>Node73</title>
<g id="a_node44"><a xlink:href="spec_2std_8h.html" target="_top" xlink:title="ODP standard types and optimized C library functions. ">
<polygon fill="#ffffff" stroke="#ff0000" points="2407,-280.5 2407,-299.5 2448,-299.5 2448,-280.5 2407,-280.5"/>
<text text-anchor="middle" x="2427.5" y="-287.5" font-family="Helvetica,sans-Serif" font-size="10.00" fill="#000000">std.h</text>
</a>
</g>
</g>
<!-- Node9&#45;&gt;Node73 -->
<g id="edge51" class="edge">
<title>Node9&#45;&gt;Node73</title>
<path fill="none" stroke="#191970" d="M1481.2393,-345.4593C1648.7573,-343.258 2218.6055,-333.4303 2397.5,-300 2400.5221,-299.4353 2403.6576,-298.6391 2406.7123,-297.7397"/>
<polygon fill="#191970" stroke="#191970" points="1480.9785,-341.9622 1471.0244,-345.5905 1481.0685,-348.9617 1480.9785,-341.9622"/>
</g>
<!-- Node75 -->
<g id="node45" class="node">
<title>Node75</title>
<g id="a_node45"><a xlink:href="spec_2threshold_8h.html" target="_top" xlink:title="ODP threshold descriptor. ">
<polygon fill="#ffffff" stroke="#ff0000" points="2466,-280.5 2466,-299.5 2537,-299.5 2537,-280.5 2466,-280.5"/>
<text text-anchor="middle" x="2501.5" y="-287.5" font-family="Helvetica,sans-Serif" font-size="10.00" fill="#000000">threshold.h</text>
</a>
</g>
</g>
<!-- Node9&#45;&gt;Node75 -->
<g id="edge52" class="edge">
<title>Node9&#45;&gt;Node75</title>
<path fill="none" stroke="#191970" d="M1481.1541,-345.0094C1654.9826,-341.1462 2264.8786,-326.0073 2457.5,-300 2460.1395,-299.6436 2462.854,-299.2055 2465.577,-298.7137"/>
<polygon fill="#191970" stroke="#191970" points="1480.9745,-341.5124 1471.0541,-345.232 1481.1289,-348.5107 1480.9745,-341.5124"/>
</g>
<!-- Node77 -->
<g id="node46" class="node">
<title>Node77</title>
<g id="a_node46"><a xlink:href="spec_2thrmask_8h.html" target="_top" xlink:title="ODP thread masks. ">
<polygon fill="#ffffff" stroke="#ff0000" points="2555.5,-280.5 2555.5,-299.5 2621.5,-299.5 2621.5,-280.5 2555.5,-280.5"/>
<text text-anchor="middle" x="2588.5" y="-287.5" font-family="Helvetica,sans-Serif" font-size="10.00" fill="#000000">thrmask.h</text>
</a>
</g>
</g>
<!-- Node9&#45;&gt;Node77 -->
<g id="edge53" class="edge">
<title>Node9&#45;&gt;Node77</title>
<path fill="none" stroke="#191970" d="M1481.2323,-345.2651C1664.6768,-342.1949 2335.7494,-329.1715 2546.5,-300 2549.3214,-299.6095 2552.2306,-299.1145 2555.1394,-298.5548"/>
<polygon fill="#191970" stroke="#191970" points="1481.0477,-341.7676 1471.1071,-345.4327 1481.1636,-348.7667 1481.0477,-341.7676"/>
</g>
<!-- Node79 -->
<g id="node47" class="node">
<title>Node79</title>
<g id="a_node47"><a xlink:href="system__info_8h.html" target="_top" xlink:title="ODP system information. ">
<polygon fill="#ffffff" stroke="#000000" points="2639.5,-280.5 2639.5,-299.5 2725.5,-299.5 2725.5,-280.5 2639.5,-280.5"/>
<text text-anchor="middle" x="2682.5" y="-287.5" font-family="Helvetica,sans-Serif" font-size="10.00" fill="#000000">system_info.h</text>
</a>
</g>
</g>
<!-- Node9&#45;&gt;Node79 -->
<g id="edge55" class="edge">
<title>Node9&#45;&gt;Node79</title>
<path fill="none" stroke="#191970" d="M1481.226,-345.1503C1673.194,-341.5128 2401.819,-326.2331 2630.5,-300 2633.4227,-299.6647 2636.4271,-299.257 2639.4473,-298.8002"/>
<polygon fill="#191970" stroke="#191970" points="1481.1138,-341.6517 1471.1815,-345.3392 1481.2456,-348.6504 1481.1138,-341.6517"/>
</g>
<!-- Node80 -->
<g id="node48" class="node">
<title>Node80</title>
<g id="a_node48"><a xlink:href="time_8h.html" target="_top" xlink:title="ODP time. ">
<polygon fill="#ffffff" stroke="#ff0000" points="1223.5,-280.5 1223.5,-299.5 1271.5,-299.5 1271.5,-280.5 1223.5,-280.5"/>
<text text-anchor="middle" x="1247.5" y="-287.5" font-family="Helvetica,sans-Serif" font-size="10.00" fill="#000000">time.h</text>
</a>
</g>
</g>
<!-- Node9&#45;&gt;Node80 -->
<g id="edge56" class="edge">
<title>Node9&#45;&gt;Node80</title>
<path fill="none" stroke="#191970" d="M1392.7649,-333.5018C1355.4596,-322.3302 1302.1009,-306.3511 1271.5135,-297.1912"/>
<polygon fill="#191970" stroke="#191970" points="1391.7698,-336.8573 1402.3536,-336.3733 1393.778,-330.1515 1391.7698,-336.8573"/>
</g>
<!-- Node81 -->
<g id="node49" class="node">
<title>Node81</title>
<g id="a_node49"><a xlink:href="timer_8h.html" target="_top" xlink:title="ODP timer service. ">
<polygon fill="#ffffff" stroke="#000000" points="2744,-280.5 2744,-299.5 2795,-299.5 2795,-280.5 2744,-280.5"/>
<text text-anchor="middle" x="2769.5" y="-287.5" font-family="Helvetica,sans-Serif" font-size="10.00" fill="#000000">timer.h</text>
</a>
</g>
</g>
<!-- Node9&#45;&gt;Node81 -->
<g id="edge58" class="edge">
<title>Node9&#45;&gt;Node81</title>
<path fill="none" stroke="#191970" d="M1481.3111,-345.8647C1683.862,-345.0454 2485.7728,-339.3321 2734.5,-300 2737.4961,-299.5262 2740.5992,-298.8785 2743.6638,-298.1388"/>
<polygon fill="#191970" stroke="#191970" points="1481.0074,-342.3657 1471.0209,-345.9041 1481.0343,-349.3657 1481.0074,-342.3657"/>
</g>
<!-- Node82 -->
<g id="node50" class="node">
<title>Node82</title>
<g id="a_node50"><a xlink:href="strong__types_8h.html" target="_top" xlink:title="ODP Strong Types. ">
<polygon fill="#ffffff" stroke="#000000" points="2813,-280.5 2813,-299.5 2902,-299.5 2902,-280.5 2813,-280.5"/>
<text text-anchor="middle" x="2857.5" y="-287.5" font-family="Helvetica,sans-Serif" font-size="10.00" fill="#000000">strong_types.h</text>
</a>
</g>
</g>
<!-- Node9&#45;&gt;Node82 -->
<g id="edge59" class="edge">
<title>Node9&#45;&gt;Node82</title>
<path fill="none" stroke="#191970" d="M1481.0353,-345.3941C1689.5973,-342.5318 2539.6093,-329.2629 2804.5,-300 2807.1991,-299.7018 2809.9668,-299.3429 2812.7529,-298.9408"/>
<polygon fill="#191970" stroke="#191970" points="1480.9784,-341.8945 1471.0269,-345.5302 1481.0736,-348.8938 1480.9784,-341.8945"/>
</g>
<!-- Node24 -->
<g id="node16" class="node">
<title>Node24</title>
<g id="a_node16"><a xlink:href="spec_2ipsec_8h.html" target="_top" xlink:title="ODP IPSEC API. ">
<polygon fill="#ffffff" stroke="#ff0000" points="1128,-.5 1128,-19.5 1179,-19.5 1179,-.5 1128,-.5"/>
<text text-anchor="middle" x="1153.5" y="-7.5" font-family="Helvetica,sans-Serif" font-size="10.00" fill="#000000">ipsec.h</text>
</a>
</g>
</g>
<!-- Node23&#45;&gt;Node24 -->
<g id="edge15" class="edge">
<title>Node23&#45;&gt;Node24</title>
<path fill="none" stroke="#191970" d="M1101.451,-49.928C1114.2107,-40.1397 1130.0885,-27.9595 1140.9301,-19.6427"/>
<polygon fill="#191970" stroke="#191970" points="1099.0196,-47.3819 1093.2156,-56.2455 1103.2803,-52.9359 1099.0196,-47.3819"/>
</g>
<!-- Node26&#45;&gt;Node24 -->
<g id="edge17" class="edge">
<title>Node26&#45;&gt;Node24</title>
<path fill="none" stroke="#191970" d="M1353.8187,-162.2785C1308.7323,-128.0047 1202.7072,-47.4064 1166.1518,-19.6177"/>
<polygon fill="#191970" stroke="#191970" points="1351.9058,-165.2208 1361.9849,-168.4862 1356.142,-159.6481 1351.9058,-165.2208"/>
</g>
<!-- Node28 -->
<g id="node19" class="node">
<title>Node28</title>
<g id="a_node19"><a xlink:href="spec_2comp_8h.html" target="_top" xlink:title="ODP Compression. ">
<polygon fill="#ffffff" stroke="#ff0000" points="1204,-224.5 1204,-243.5 1257,-243.5 1257,-224.5 1204,-224.5"/>
<text text-anchor="middle" x="1230.5" y="-231.5" font-family="Helvetica,sans-Serif" font-size="10.00" fill="#000000">comp.h</text>
</a>
</g>
</g>
<!-- Node27&#45;&gt;Node28 -->
<g id="edge19" class="edge">
<title>Node27&#45;&gt;Node28</title>
<path fill="none" stroke="#191970" d="M1326.3108,-276.2473C1303.2463,-266.0771 1272.4288,-252.4883 1252.0472,-243.5011"/>
<polygon fill="#191970" stroke="#191970" points="1325.1058,-279.5411 1335.6679,-280.3733 1327.9301,-273.1361 1325.1058,-279.5411"/>
</g>
<!-- Node30 -->
<g id="node20" class="node">
<title>Node30</title>
<g id="a_node20"><a xlink:href="spec_2crypto_8h.html" target="_top" xlink:title="ODP crypto. ">
<polygon fill="#ffffff" stroke="#000000" points="1346.5,-224.5 1346.5,-243.5 1402.5,-243.5 1402.5,-224.5 1346.5,-224.5"/>
<text text-anchor="middle" x="1374.5" y="-231.5" font-family="Helvetica,sans-Serif" font-size="10.00" fill="#000000">crypto.h</text>
</a>
</g>
</g>
<!-- Node27&#45;&gt;Node30 -->
<g id="edge20" class="edge">
<title>Node27&#45;&gt;Node30</title>
<path fill="none" stroke="#191970" d="M1363.4337,-270.4538C1366.1881,-261.3803 1369.3393,-250.9998 1371.5728,-243.6427"/>
<polygon fill="#191970" stroke="#191970" points="1360.017,-269.66 1360.4612,-280.2455 1366.7151,-271.6934 1360.017,-269.66"/>
</g>
<!-- Node31 -->
<g id="node21" class="node">
<title>Node31</title>
<g id="a_node21"><a xlink:href="spec_2event_8h.html" target="_top" xlink:title="ODP event. ">
<polygon fill="#ffffff" stroke="#ff0000" points="1275,-224.5 1275,-243.5 1328,-243.5 1328,-224.5 1275,-224.5"/>
<text text-anchor="middle" x="1301.5" y="-231.5" font-family="Helvetica,sans-Serif" font-size="10.00" fill="#000000">event.h</text>
</a>
</g>
</g>
<!-- Node27&#45;&gt;Node31 -->
<g id="edge22" class="edge">
<title>Node27&#45;&gt;Node31</title>
<path fill="none" stroke="#191970" d="M1340.5751,-273.0751C1330.9402,-263.4402 1319.2196,-251.7196 1311.1427,-243.6427"/>
<polygon fill="#191970" stroke="#191970" points="1338.1996,-275.6493 1347.7455,-280.2455 1343.1493,-270.6996 1338.1996,-275.6493"/>
</g>
<!-- Node27&#45;&gt;Node44 -->
<g id="edge23" class="edge">
<title>Node27&#45;&gt;Node44</title>
<path fill="none" stroke="#191970" d="M1385.0199,-275.5971C1404.2017,-265.558 1429.2678,-252.4393 1446.0756,-243.6427"/>
<polygon fill="#191970" stroke="#191970" points="1383.375,-272.5075 1376.138,-280.2455 1386.6209,-278.7095 1383.375,-272.5075"/>
</g>
<!-- Node37 -->
<g id="node23" class="node">
<title>Node37</title>
<g id="a_node23"><a xlink:href="spec_2packet__io_8h.html" target="_top" xlink:title="ODP Packet IO. ">
<polygon fill="#ffffff" stroke="#000000" points="1074,-224.5 1074,-243.5 1147,-243.5 1147,-224.5 1074,-224.5"/>
<text text-anchor="middle" x="1110.5" y="-231.5" font-family="Helvetica,sans-Serif" font-size="10.00" fill="#000000">packet_io.h</text>
</a>
</g>
</g>
<!-- Node27&#45;&gt;Node37 -->
<g id="edge24" class="edge">
<title>Node27&#45;&gt;Node37</title>
<path fill="none" stroke="#191970" d="M1317.8703,-281.0151C1270.816,-270.347 1192.9703,-252.6977 1147.2273,-242.3268"/>
<polygon fill="#191970" stroke="#191970" points="1317.1796,-284.4473 1327.706,-283.2451 1318.7274,-277.6206 1317.1796,-284.4473"/>
</g>
<!-- Node30&#45;&gt;Node26 -->
<g id="edge21" class="edge">
<title>Node30&#45;&gt;Node26</title>
<path fill="none" stroke="#191970" d="M1374.5,-214.1575C1374.5,-205.155 1374.5,-194.9199 1374.5,-187.6427"/>
<polygon fill="#191970" stroke="#191970" points="1371.0001,-214.2455 1374.5,-224.2455 1378.0001,-214.2456 1371.0001,-214.2455"/>
</g>
<!-- Node37&#45;&gt;Node38 -->
<g id="edge25" class="edge">
<title>Node37&#45;&gt;Node38</title>
<path fill="none" stroke="#191970" d="M1110.5,-214.1575C1110.5,-205.155 1110.5,-194.9199 1110.5,-187.6427"/>
<polygon fill="#191970" stroke="#191970" points="1107.0001,-214.2455 1110.5,-224.2455 1114.0001,-214.2456 1107.0001,-214.2455"/>
</g>
<!-- Node38&#45;&gt;Node24 -->
<g id="edge28" class="edge">
<title>Node38&#45;&gt;Node24</title>
<path fill="none" stroke="#191970" d="M1121.3509,-159.4992C1125.7262,-151.3129 1130.4502,-141.4212 1133.5,-132 1146.5883,-91.5684 1151.3947,-40.6983 1152.9008,-19.7232"/>
<polygon fill="#191970" stroke="#191970" points="1118.1479,-158.0562 1116.323,-168.4927 1124.2579,-161.4721 1118.1479,-158.0562"/>
</g>
<!-- Node39 -->
<g id="node25" class="node">
<title>Node39</title>
<g id="a_node25"><a xlink:href="spec_2classification_8h.html" target="_top" xlink:title="ODP classification descriptor. ">
<polygon fill="#ffffff" stroke="#000000" points="1036,-112.5 1036,-131.5 1125,-131.5 1125,-112.5 1036,-112.5"/>
<text text-anchor="middle" x="1080.5" y="-119.5" font-family="Helvetica,sans-Serif" font-size="10.00" fill="#000000">classification.h</text>
</a>
</g>
</g>
<!-- Node38&#45;&gt;Node39 -->
<g id="edge26" class="edge">
<title>Node38&#45;&gt;Node39</title>
<path fill="none" stroke="#191970" d="M1100.502,-159.3372C1095.5324,-150.0605 1089.7356,-139.2398 1085.6657,-131.6427"/>
<polygon fill="#191970" stroke="#191970" points="1097.4669,-161.0835 1105.2744,-168.2455 1103.6373,-157.7779 1097.4669,-161.0835"/>
</g>
<!-- Node38&#45;&gt;Node40 -->
<g id="edge29" class="edge">
<title>Node38&#45;&gt;Node40</title>
<path fill="none" stroke="#191970" d="M1139.0792,-163.8368C1159.5058,-153.7139 1186.4362,-140.3679 1204.3281,-131.5011"/>
<polygon fill="#191970" stroke="#191970" points="1137.3313,-160.7968 1129.9254,-168.3733 1140.4396,-167.0688 1137.3313,-160.7968"/>
</g>
<!-- Node39&#45;&gt;Node23 -->
<g id="edge27" class="edge">
<title>Node39&#45;&gt;Node23</title>
<path fill="none" stroke="#191970" d="M1080.5,-102.1575C1080.5,-93.155 1080.5,-82.9199 1080.5,-75.6427"/>
<polygon fill="#191970" stroke="#191970" points="1077.0001,-102.2455 1080.5,-112.2455 1084.0001,-102.2456 1077.0001,-102.2455"/>
</g>
<!-- Node35 -->
<g id="node29" class="node">
<title>Node35</title>
<g id="a_node29"><a xlink:href="spec_2packet__io__stats_8h.html" target="_top" xlink:title="ODP Packet IO statistics. ">
<polygon fill="#ffffff" stroke="#ff0000" points="1564.5,-224.5 1564.5,-243.5 1666.5,-243.5 1666.5,-224.5 1564.5,-224.5"/>
<text text-anchor="middle" x="1615.5" y="-231.5" font-family="Helvetica,sans-Serif" font-size="10.00" fill="#000000">packet_io_stats.h</text>
</a>
</g>
</g>
<!-- Node34&#45;&gt;Node35 -->
<g id="edge33" class="edge">
<title>Node34&#45;&gt;Node35</title>
<path fill="none" stroke="#191970" d="M1610.3346,-270.1575C1611.6207,-261.155 1613.0829,-250.9199 1614.1225,-243.6427"/>
<polygon fill="#191970" stroke="#191970" points="1606.843,-269.851 1608.8935,-280.2455 1613.7726,-270.8411 1606.843,-269.851"/>
</g>
<!-- Node48 -->
<g id="node31" class="node">
<title>Node48</title>
<g id="a_node31"><a xlink:href="chksum_8h.html" target="_top" xlink:title="ODP checksum functions. ">
<polygon fill="#ffffff" stroke="#000000" points="1684.5,-224.5 1684.5,-243.5 1748.5,-243.5 1748.5,-224.5 1684.5,-224.5"/>
<text text-anchor="middle" x="1716.5" y="-231.5" font-family="Helvetica,sans-Serif" font-size="10.00" fill="#000000">chksum.h</text>
</a>
</g>
</g>
<!-- Node47&#45;&gt;Node48 -->
<g id="edge35" class="edge">
<title>Node47&#45;&gt;Node48</title>
<path fill="none" stroke="#191970" d="M1695.8312,-271.3372C1700.9665,-262.0605 1706.9566,-251.2398 1711.1621,-243.6427"/>
<polygon fill="#191970" stroke="#191970" points="1692.6809,-269.8015 1690.8998,-280.2455 1698.8051,-273.1917 1692.6809,-269.8015"/>
</g>
<!-- Node50 -->
<g id="node33" class="node">
<title>Node50</title>
<g id="a_node33"><a xlink:href="cpu_8h.html" target="_top" xlink:title="ODP CPU. ">
<polygon fill="#ffffff" stroke="#ff0000" points="1767,-224.5 1767,-243.5 1810,-243.5 1810,-224.5 1767,-224.5"/>
<text text-anchor="middle" x="1788.5" y="-231.5" font-family="Helvetica,sans-Serif" font-size="10.00" fill="#000000">cpu.h</text>
</a>
</g>
</g>
<!-- Node49&#45;&gt;Node50 -->
<g id="edge37" class="edge">
<title>Node49&#45;&gt;Node50</title>
<path fill="none" stroke="#191970" d="M1767.8312,-271.3372C1772.9665,-262.0605 1778.9566,-251.2398 1783.1621,-243.6427"/>
<polygon fill="#191970" stroke="#191970" points="1764.6809,-269.8015 1762.8998,-280.2455 1770.8051,-273.1917 1764.6809,-269.8015"/>
</g>
<!-- Node53 -->
<g id="node35" class="node">
<title>Node53</title>
<g id="a_node35"><a xlink:href="feature_8h.html" target="_top" xlink:title="ODP features. ">
<polygon fill="#ffffff" stroke="#000000" points="1867,-224.5 1867,-243.5 1928,-243.5 1928,-224.5 1867,-224.5"/>
<text text-anchor="middle" x="1897.5" y="-231.5" font-family="Helvetica,sans-Serif" font-size="10.00" fill="#000000">feature.h</text>
</a>
</g>
</g>
<!-- Node52&#45;&gt;Node53 -->
<g id="edge39" class="edge">
<title>Node52&#45;&gt;Node53</title>
<path fill="none" stroke="#191970" d="M1876.8312,-271.3372C1881.9665,-262.0605 1887.9566,-251.2398 1892.1621,-243.6427"/>
<polygon fill="#191970" stroke="#191970" points="1873.6809,-269.8015 1871.8998,-280.2455 1879.8051,-273.1917 1873.6809,-269.8015"/>
</g>
<!-- Node53&#45;&gt;Node54 -->
<g id="edge40" class="edge">
<title>Node53&#45;&gt;Node54</title>
<path fill="none" stroke="#191970" d="M1887.502,-215.3372C1882.5324,-206.0605 1876.7356,-195.2398 1872.6657,-187.6427"/>
<polygon fill="#191970" stroke="#191970" points="1884.4669,-217.0835 1892.2744,-224.2455 1890.6373,-213.7779 1884.4669,-217.0835"/>
</g>
<!-- Node60 -->
<g id="node38" class="node">
<title>Node60</title>
<g id="a_node38"><a xlink:href="hash_8h.html" target="_top" xlink:title="ODP Hash function. ">
<polygon fill="#ffffff" stroke="#000000" points="1946,-224.5 1946,-243.5 1995,-243.5 1995,-224.5 1946,-224.5"/>
<text text-anchor="middle" x="1970.5" y="-231.5" font-family="Helvetica,sans-Serif" font-size="10.00" fill="#000000">hash.h</text>
</a>
</g>
</g>
<!-- Node59&#45;&gt;Node60 -->
<g id="edge42" class="edge">
<title>Node59&#45;&gt;Node60</title>
<path fill="none" stroke="#191970" d="M1949.8312,-271.3372C1954.9665,-262.0605 1960.9566,-251.2398 1965.1621,-243.6427"/>
<polygon fill="#191970" stroke="#191970" points="1946.6809,-269.8015 1944.8998,-280.2455 1952.8051,-273.1917 1946.6809,-269.8015"/>
</g>
<!-- Node64&#45;&gt;Node61 -->
<g id="edge47" class="edge">
<title>Node64&#45;&gt;Node61</title>
<path fill="none" stroke="#191970" d="M2057.6654,-270.1575C2056.3793,-261.155 2054.9171,-250.9199 2053.8775,-243.6427"/>
<polygon fill="#191970" stroke="#191970" points="2054.2274,-270.8411 2059.1065,-280.2455 2061.157,-269.851 2054.2274,-270.8411"/>
</g>
<!-- Node80&#45;&gt;Node37 -->
<g id="edge57" class="edge">
<title>Node80&#45;&gt;Node37</title>
<path fill="none" stroke="#191970" d="M1214.5194,-276.5189C1189.5689,-266.3201 1155.9266,-252.5685 1133.7438,-243.5011"/>
<polygon fill="#191970" stroke="#191970" points="1213.368,-279.8293 1223.9489,-280.3733 1216.0166,-273.3497 1213.368,-279.8293"/>
</g>
</g>
</svg>
